G04 #@! TF.GenerationSoftware,KiCad,Pcbnew,5.0.2-bee76a0~70~ubuntu18.04.1*
G04 #@! TF.CreationDate,2019-08-23T13:18:47-04:00*
G04 #@! TF.ProjectId,board,626f6172-642e-46b6-9963-61645f706362,rev?*
G04 #@! TF.SameCoordinates,Original*
G04 #@! TF.FileFunction,Copper,L2,Bot*
G04 #@! TF.FilePolarity,Positive*
%FSLAX46Y46*%
G04 Gerber Fmt 4.6, Leading zero omitted, Abs format (unit mm)*
G04 Created by KiCad (PCBNEW 5.0.2-bee76a0~70~ubuntu18.04.1) date Fri 23 Aug 2019 01:18:47 PM EDT*
%MOMM*%
%LPD*%
G01*
G04 APERTURE LIST*
G04 #@! TA.AperFunction,NonConductor*
%ADD10C,0.150000*%
G04 #@! TD*
G04 #@! TA.AperFunction,ComponentPad*
%ADD11R,2.200000X2.200000*%
G04 #@! TD*
G04 #@! TA.AperFunction,ComponentPad*
%ADD12O,2.200000X2.200000*%
G04 #@! TD*
G04 #@! TA.AperFunction,ComponentPad*
%ADD13R,1.700000X1.700000*%
G04 #@! TD*
G04 #@! TA.AperFunction,ComponentPad*
%ADD14O,1.700000X1.700000*%
G04 #@! TD*
G04 #@! TA.AperFunction,Conductor*
%ADD15C,0.100000*%
G04 #@! TD*
G04 #@! TA.AperFunction,SMDPad,CuDef*
%ADD16C,1.150000*%
G04 #@! TD*
G04 #@! TA.AperFunction,ComponentPad*
%ADD17O,2.400000X1.600000*%
G04 #@! TD*
G04 #@! TA.AperFunction,ComponentPad*
%ADD18R,2.400000X1.600000*%
G04 #@! TD*
G04 #@! TA.AperFunction,SMDPad,CuDef*
%ADD19R,3.800000X2.000000*%
G04 #@! TD*
G04 #@! TA.AperFunction,SMDPad,CuDef*
%ADD20R,1.500000X2.000000*%
G04 #@! TD*
G04 #@! TA.AperFunction,ComponentPad*
%ADD21R,1.600000X1.600000*%
G04 #@! TD*
G04 #@! TA.AperFunction,ComponentPad*
%ADD22O,1.600000X1.600000*%
G04 #@! TD*
G04 #@! TA.AperFunction,ViaPad*
%ADD23C,1.200000*%
G04 #@! TD*
G04 #@! TA.AperFunction,ViaPad*
%ADD24C,0.800000*%
G04 #@! TD*
G04 #@! TA.AperFunction,Conductor*
%ADD25C,0.600000*%
G04 #@! TD*
G04 #@! TA.AperFunction,Conductor*
%ADD26C,1.600000*%
G04 #@! TD*
G04 #@! TA.AperFunction,Conductor*
%ADD27C,0.254000*%
G04 #@! TD*
G04 APERTURE END LIST*
D10*
X120938952Y-137518114D02*
X120900857Y-137556209D01*
X120938952Y-137594304D01*
X120977047Y-137556209D01*
X120938952Y-137518114D01*
X120938952Y-137594304D01*
X120557999Y-137518114D02*
X120519904Y-137556209D01*
X120557999Y-137594304D01*
X120596095Y-137556209D01*
X120557999Y-137518114D01*
X120557999Y-137594304D01*
X120177047Y-137289542D02*
X119567523Y-137289542D01*
X119186571Y-137518114D02*
X119148476Y-137556209D01*
X119186571Y-137594304D01*
X119224666Y-137556209D01*
X119186571Y-137518114D01*
X119186571Y-137594304D01*
X118196095Y-137518114D02*
X118157999Y-137556209D01*
X118196095Y-137594304D01*
X118234190Y-137556209D01*
X118196095Y-137518114D01*
X118196095Y-137594304D01*
X117815142Y-137518114D02*
X117777047Y-137556209D01*
X117815142Y-137594304D01*
X117853238Y-137556209D01*
X117815142Y-137518114D01*
X117815142Y-137594304D01*
X116824666Y-137289542D02*
X116215142Y-137289542D01*
X115834190Y-137518114D02*
X115796095Y-137556209D01*
X115834190Y-137594304D01*
X115872285Y-137556209D01*
X115834190Y-137518114D01*
X115834190Y-137594304D01*
X114843714Y-137289542D02*
X114234190Y-137289542D01*
X113853238Y-137518114D02*
X113815142Y-137556209D01*
X113853238Y-137594304D01*
X113891333Y-137556209D01*
X113853238Y-137518114D01*
X113853238Y-137594304D01*
X113472285Y-137518114D02*
X113434190Y-137556209D01*
X113472285Y-137594304D01*
X113510380Y-137556209D01*
X113472285Y-137518114D01*
X113472285Y-137594304D01*
X111910380Y-136756209D02*
X112596095Y-137784780D01*
X111034190Y-137289542D02*
X110424666Y-137289542D01*
X110043714Y-137518114D02*
X110005619Y-137556209D01*
X110043714Y-137594304D01*
X110081809Y-137556209D01*
X110043714Y-137518114D01*
X110043714Y-137594304D01*
X109662761Y-137518114D02*
X109624666Y-137556209D01*
X109662761Y-137594304D01*
X109700857Y-137556209D01*
X109662761Y-137518114D01*
X109662761Y-137594304D01*
X109281809Y-137518114D02*
X109243714Y-137556209D01*
X109281809Y-137594304D01*
X109319904Y-137556209D01*
X109281809Y-137518114D01*
X109281809Y-137594304D01*
X108291333Y-137518114D02*
X108253238Y-137556209D01*
X108291333Y-137594304D01*
X108329428Y-137556209D01*
X108291333Y-137518114D01*
X108291333Y-137594304D01*
X107910380Y-137289542D02*
X107300857Y-137289542D01*
X106919904Y-137518114D02*
X106881809Y-137556209D01*
X106919904Y-137594304D01*
X106957999Y-137556209D01*
X106919904Y-137518114D01*
X106919904Y-137594304D01*
X105929428Y-137518114D02*
X105891333Y-137556209D01*
X105929428Y-137594304D01*
X105967523Y-137556209D01*
X105929428Y-137518114D01*
X105929428Y-137594304D01*
X105548476Y-137518114D02*
X105510380Y-137556209D01*
X105548476Y-137594304D01*
X105586571Y-137556209D01*
X105548476Y-137518114D01*
X105548476Y-137594304D01*
X104558000Y-137518114D02*
X104519904Y-137556209D01*
X104558000Y-137594304D01*
X104596095Y-137556209D01*
X104558000Y-137518114D01*
X104558000Y-137594304D01*
X104177047Y-137289542D02*
X103567523Y-137289542D01*
X102577047Y-137289542D02*
X101967523Y-137289542D01*
X101586571Y-137518114D02*
X101548476Y-137556209D01*
X101586571Y-137594304D01*
X101624666Y-137556209D01*
X101586571Y-137518114D01*
X101586571Y-137594304D01*
X100024666Y-136756209D02*
X100710380Y-137784780D01*
X99148476Y-137518114D02*
X99110380Y-137556209D01*
X99148476Y-137594304D01*
X99186571Y-137556209D01*
X99148476Y-137518114D01*
X99148476Y-137594304D01*
X98767523Y-137289542D02*
X98158000Y-137289542D01*
X97167523Y-137289542D02*
X96558000Y-137289542D01*
X96177047Y-137518114D02*
X96138952Y-137556209D01*
X96177047Y-137594304D01*
X96215142Y-137556209D01*
X96177047Y-137518114D01*
X96177047Y-137594304D01*
X95186571Y-137289542D02*
X94577047Y-137289542D01*
X94196095Y-137518114D02*
X94158000Y-137556209D01*
X94196095Y-137594304D01*
X94234190Y-137556209D01*
X94196095Y-137518114D01*
X94196095Y-137594304D01*
X93815142Y-137518114D02*
X93777047Y-137556209D01*
X93815142Y-137594304D01*
X93853238Y-137556209D01*
X93815142Y-137518114D01*
X93815142Y-137594304D01*
X92253238Y-136756209D02*
X92938952Y-137784780D01*
X91377047Y-137289542D02*
X90767523Y-137289542D01*
X89777047Y-137518114D02*
X89738952Y-137556209D01*
X89777047Y-137594304D01*
X89815142Y-137556209D01*
X89777047Y-137518114D01*
X89777047Y-137594304D01*
X88786571Y-137518114D02*
X88748476Y-137556209D01*
X88786571Y-137594304D01*
X88824666Y-137556209D01*
X88786571Y-137518114D01*
X88786571Y-137594304D01*
X88405619Y-137289542D02*
X87796095Y-137289542D01*
X87415142Y-137518114D02*
X87377047Y-137556209D01*
X87415142Y-137594304D01*
X87453238Y-137556209D01*
X87415142Y-137518114D01*
X87415142Y-137594304D01*
X87034190Y-137518114D02*
X86996095Y-137556209D01*
X87034190Y-137594304D01*
X87072285Y-137556209D01*
X87034190Y-137518114D01*
X87034190Y-137594304D01*
X86043714Y-137518114D02*
X86005619Y-137556209D01*
X86043714Y-137594304D01*
X86081809Y-137556209D01*
X86043714Y-137518114D01*
X86043714Y-137594304D01*
X85662761Y-137289542D02*
X85053238Y-137289542D01*
X84672285Y-137518114D02*
X84634190Y-137556209D01*
X84672285Y-137594304D01*
X84710380Y-137556209D01*
X84672285Y-137518114D01*
X84672285Y-137594304D01*
X84291333Y-137518114D02*
X84253238Y-137556209D01*
X84291333Y-137594304D01*
X84329428Y-137556209D01*
X84291333Y-137518114D01*
X84291333Y-137594304D01*
X82729428Y-136756209D02*
X83415142Y-137784780D01*
X81853238Y-137518114D02*
X81815142Y-137556209D01*
X81853238Y-137594304D01*
X81891333Y-137556209D01*
X81853238Y-137518114D01*
X81853238Y-137594304D01*
X81472285Y-137518114D02*
X81434190Y-137556209D01*
X81472285Y-137594304D01*
X81510380Y-137556209D01*
X81472285Y-137518114D01*
X81472285Y-137594304D01*
X81091333Y-137518114D02*
X81053238Y-137556209D01*
X81091333Y-137594304D01*
X81129428Y-137556209D01*
X81091333Y-137518114D01*
X81091333Y-137594304D01*
X80710380Y-137518114D02*
X80672285Y-137556209D01*
X80710380Y-137594304D01*
X80748476Y-137556209D01*
X80710380Y-137518114D01*
X80710380Y-137594304D01*
X79719904Y-137518114D02*
X79681809Y-137556209D01*
X79719904Y-137594304D01*
X79758000Y-137556209D01*
X79719904Y-137518114D01*
X79719904Y-137594304D01*
X79338952Y-137518114D02*
X79300857Y-137556209D01*
X79338952Y-137594304D01*
X79377047Y-137556209D01*
X79338952Y-137518114D01*
X79338952Y-137594304D01*
X78348476Y-137289542D02*
X77738952Y-137289542D01*
X77358000Y-137289542D02*
X76748476Y-137289542D01*
X75186571Y-136756209D02*
X75872285Y-137784780D01*
X74310380Y-137289542D02*
X73700857Y-137289542D01*
X72710380Y-137518114D02*
X72672285Y-137556209D01*
X72710380Y-137594304D01*
X72748476Y-137556209D01*
X72710380Y-137518114D01*
X72710380Y-137594304D01*
X72329428Y-137518114D02*
X72291333Y-137556209D01*
X72329428Y-137594304D01*
X72367523Y-137556209D01*
X72329428Y-137518114D01*
X72329428Y-137594304D01*
X71948476Y-137518114D02*
X71910380Y-137556209D01*
X71948476Y-137594304D01*
X71986571Y-137556209D01*
X71948476Y-137518114D01*
X71948476Y-137594304D01*
X71567523Y-137518114D02*
X71529428Y-137556209D01*
X71567523Y-137594304D01*
X71605619Y-137556209D01*
X71567523Y-137518114D01*
X71567523Y-137594304D01*
X70577047Y-137518114D02*
X70538952Y-137556209D01*
X70577047Y-137594304D01*
X70615142Y-137556209D01*
X70577047Y-137518114D01*
X70577047Y-137594304D01*
X120519904Y-138868114D02*
X120481809Y-138906209D01*
X120519904Y-138944304D01*
X120557999Y-138906209D01*
X120519904Y-138868114D01*
X120519904Y-138944304D01*
X120138952Y-138868114D02*
X120100857Y-138906209D01*
X120138952Y-138944304D01*
X120177047Y-138906209D01*
X120138952Y-138868114D01*
X120138952Y-138944304D01*
X119757999Y-138868114D02*
X119719904Y-138906209D01*
X119757999Y-138944304D01*
X119796095Y-138906209D01*
X119757999Y-138868114D01*
X119757999Y-138944304D01*
X118767523Y-138868114D02*
X118729428Y-138906209D01*
X118767523Y-138944304D01*
X118805619Y-138906209D01*
X118767523Y-138868114D01*
X118767523Y-138944304D01*
X117777047Y-138639542D02*
X117167523Y-138639542D01*
X116786571Y-138868114D02*
X116748476Y-138906209D01*
X116786571Y-138944304D01*
X116824666Y-138906209D01*
X116786571Y-138868114D01*
X116786571Y-138944304D01*
X116405619Y-138639542D02*
X115796095Y-138639542D01*
X115415142Y-138868114D02*
X115377047Y-138906209D01*
X115415142Y-138944304D01*
X115453238Y-138906209D01*
X115415142Y-138868114D01*
X115415142Y-138944304D01*
X114424666Y-138868114D02*
X114386571Y-138906209D01*
X114424666Y-138944304D01*
X114462761Y-138906209D01*
X114424666Y-138868114D01*
X114424666Y-138944304D01*
X114043714Y-138639542D02*
X113434190Y-138639542D01*
X113053238Y-138868114D02*
X113015142Y-138906209D01*
X113053238Y-138944304D01*
X113091333Y-138906209D01*
X113053238Y-138868114D01*
X113053238Y-138944304D01*
X112062761Y-138868114D02*
X112024666Y-138906209D01*
X112062761Y-138944304D01*
X112100857Y-138906209D01*
X112062761Y-138868114D01*
X112062761Y-138944304D01*
X111072285Y-138639542D02*
X110462761Y-138639542D01*
X108900857Y-138106209D02*
X109586571Y-139134780D01*
X108024666Y-138639542D02*
X107415142Y-138639542D01*
X107034190Y-138639542D02*
X106424666Y-138639542D01*
X105434190Y-138868114D02*
X105396095Y-138906209D01*
X105434190Y-138944304D01*
X105472285Y-138906209D01*
X105434190Y-138868114D01*
X105434190Y-138944304D01*
X104443714Y-138868114D02*
X104405619Y-138906209D01*
X104443714Y-138944304D01*
X104481809Y-138906209D01*
X104443714Y-138868114D01*
X104443714Y-138944304D01*
X104062761Y-138868114D02*
X104024666Y-138906209D01*
X104062761Y-138944304D01*
X104100857Y-138906209D01*
X104062761Y-138868114D01*
X104062761Y-138944304D01*
X103681809Y-138868114D02*
X103643714Y-138906209D01*
X103681809Y-138944304D01*
X103719904Y-138906209D01*
X103681809Y-138868114D01*
X103681809Y-138944304D01*
X102691333Y-138868114D02*
X102653238Y-138906209D01*
X102691333Y-138944304D01*
X102729428Y-138906209D01*
X102691333Y-138868114D01*
X102691333Y-138944304D01*
X102310380Y-138868114D02*
X102272285Y-138906209D01*
X102310380Y-138944304D01*
X102348476Y-138906209D01*
X102310380Y-138868114D01*
X102310380Y-138944304D01*
X101929428Y-138868114D02*
X101891333Y-138906209D01*
X101929428Y-138944304D01*
X101967523Y-138906209D01*
X101929428Y-138868114D01*
X101929428Y-138944304D01*
X100938952Y-138868114D02*
X100900857Y-138906209D01*
X100938952Y-138944304D01*
X100977047Y-138906209D01*
X100938952Y-138868114D01*
X100938952Y-138944304D01*
X100557999Y-138639542D02*
X99948476Y-138639542D01*
X98957999Y-138639542D02*
X98348476Y-138639542D01*
X97967523Y-138639542D02*
X97357999Y-138639542D01*
X96977047Y-138868114D02*
X96938952Y-138906209D01*
X96977047Y-138944304D01*
X97015142Y-138906209D01*
X96977047Y-138868114D01*
X96977047Y-138944304D01*
X95986571Y-138868114D02*
X95948476Y-138906209D01*
X95986571Y-138944304D01*
X96024666Y-138906209D01*
X95986571Y-138868114D01*
X95986571Y-138944304D01*
X94424666Y-138106209D02*
X95110380Y-139134780D01*
X93548476Y-138868114D02*
X93510380Y-138906209D01*
X93548476Y-138944304D01*
X93586571Y-138906209D01*
X93548476Y-138868114D01*
X93548476Y-138944304D01*
X93167523Y-138639542D02*
X92557999Y-138639542D01*
X92177047Y-138868114D02*
X92138952Y-138906209D01*
X92177047Y-138944304D01*
X92215142Y-138906209D01*
X92177047Y-138868114D01*
X92177047Y-138944304D01*
X91796095Y-138868114D02*
X91757999Y-138906209D01*
X91796095Y-138944304D01*
X91834190Y-138906209D01*
X91796095Y-138868114D01*
X91796095Y-138944304D01*
X91415142Y-138639542D02*
X90805619Y-138639542D01*
X90424666Y-138868114D02*
X90386571Y-138906209D01*
X90424666Y-138944304D01*
X90462761Y-138906209D01*
X90424666Y-138868114D01*
X90424666Y-138944304D01*
X89434190Y-138639542D02*
X88824666Y-138639542D01*
X87834190Y-138868114D02*
X87796095Y-138906209D01*
X87834190Y-138944304D01*
X87872285Y-138906209D01*
X87834190Y-138868114D01*
X87834190Y-138944304D01*
X87453238Y-138868114D02*
X87415142Y-138906209D01*
X87453238Y-138944304D01*
X87491333Y-138906209D01*
X87453238Y-138868114D01*
X87453238Y-138944304D01*
X87072285Y-138868114D02*
X87034190Y-138906209D01*
X87072285Y-138944304D01*
X87110380Y-138906209D01*
X87072285Y-138868114D01*
X87072285Y-138944304D01*
X86691333Y-138868114D02*
X86653238Y-138906209D01*
X86691333Y-138944304D01*
X86729428Y-138906209D01*
X86691333Y-138868114D01*
X86691333Y-138944304D01*
X85700857Y-138868114D02*
X85662761Y-138906209D01*
X85700857Y-138944304D01*
X85738952Y-138906209D01*
X85700857Y-138868114D01*
X85700857Y-138944304D01*
X84138952Y-138106209D02*
X84824666Y-139134780D01*
X83262761Y-138639542D02*
X82653238Y-138639542D01*
X82272285Y-138868114D02*
X82234190Y-138906209D01*
X82272285Y-138944304D01*
X82310380Y-138906209D01*
X82272285Y-138868114D01*
X82272285Y-138944304D01*
X81891333Y-138868114D02*
X81853238Y-138906209D01*
X81891333Y-138944304D01*
X81929428Y-138906209D01*
X81891333Y-138868114D01*
X81891333Y-138944304D01*
X81510380Y-138868114D02*
X81472285Y-138906209D01*
X81510380Y-138944304D01*
X81548476Y-138906209D01*
X81510380Y-138868114D01*
X81510380Y-138944304D01*
X80519904Y-138868114D02*
X80481809Y-138906209D01*
X80519904Y-138944304D01*
X80557999Y-138906209D01*
X80519904Y-138868114D01*
X80519904Y-138944304D01*
X79529428Y-138868114D02*
X79491333Y-138906209D01*
X79529428Y-138944304D01*
X79567523Y-138906209D01*
X79529428Y-138868114D01*
X79529428Y-138944304D01*
X79148476Y-138639542D02*
X78538952Y-138639542D01*
X77548476Y-138868114D02*
X77510380Y-138906209D01*
X77548476Y-138944304D01*
X77586571Y-138906209D01*
X77548476Y-138868114D01*
X77548476Y-138944304D01*
X77167523Y-138639542D02*
X76557999Y-138639542D01*
X76177047Y-138868114D02*
X76138952Y-138906209D01*
X76177047Y-138944304D01*
X76215142Y-138906209D01*
X76177047Y-138868114D01*
X76177047Y-138944304D01*
X74615142Y-138106209D02*
X75300857Y-139134780D01*
X73738952Y-138868114D02*
X73700857Y-138906209D01*
X73738952Y-138944304D01*
X73777047Y-138906209D01*
X73738952Y-138868114D01*
X73738952Y-138944304D01*
X73357999Y-138868114D02*
X73319904Y-138906209D01*
X73357999Y-138944304D01*
X73396095Y-138906209D01*
X73357999Y-138868114D01*
X73357999Y-138944304D01*
X72367523Y-138868114D02*
X72329428Y-138906209D01*
X72367523Y-138944304D01*
X72405619Y-138906209D01*
X72367523Y-138868114D01*
X72367523Y-138944304D01*
X71986571Y-138868114D02*
X71948476Y-138906209D01*
X71986571Y-138944304D01*
X72024666Y-138906209D01*
X71986571Y-138868114D01*
X71986571Y-138944304D01*
X71605619Y-138868114D02*
X71567523Y-138906209D01*
X71605619Y-138944304D01*
X71643714Y-138906209D01*
X71605619Y-138868114D01*
X71605619Y-138944304D01*
X116634190Y-140218114D02*
X116596095Y-140256209D01*
X116634190Y-140294304D01*
X116672285Y-140256209D01*
X116634190Y-140218114D01*
X116634190Y-140294304D01*
X116253238Y-140218114D02*
X116215142Y-140256209D01*
X116253238Y-140294304D01*
X116291333Y-140256209D01*
X116253238Y-140218114D01*
X116253238Y-140294304D01*
X115872285Y-140218114D02*
X115834190Y-140256209D01*
X115872285Y-140294304D01*
X115910380Y-140256209D01*
X115872285Y-140218114D01*
X115872285Y-140294304D01*
X114881809Y-139989542D02*
X114272285Y-139989542D01*
X113281809Y-140218114D02*
X113243714Y-140256209D01*
X113281809Y-140294304D01*
X113319904Y-140256209D01*
X113281809Y-140218114D01*
X113281809Y-140294304D01*
X112900857Y-140218114D02*
X112862761Y-140256209D01*
X112900857Y-140294304D01*
X112938952Y-140256209D01*
X112900857Y-140218114D01*
X112900857Y-140294304D01*
X111910380Y-139989542D02*
X111300857Y-139989542D01*
X110919904Y-140218114D02*
X110881809Y-140256209D01*
X110919904Y-140294304D01*
X110958000Y-140256209D01*
X110919904Y-140218114D01*
X110919904Y-140294304D01*
X110538952Y-139989542D02*
X109929428Y-139989542D01*
X109548476Y-140218114D02*
X109510380Y-140256209D01*
X109548476Y-140294304D01*
X109586571Y-140256209D01*
X109548476Y-140218114D01*
X109548476Y-140294304D01*
X108558000Y-139989542D02*
X107948476Y-139989542D01*
X107567523Y-140218114D02*
X107529428Y-140256209D01*
X107567523Y-140294304D01*
X107605619Y-140256209D01*
X107567523Y-140218114D01*
X107567523Y-140294304D01*
X107186571Y-139989542D02*
X106577047Y-139989542D01*
X105586571Y-139989542D02*
X104977047Y-139989542D01*
X104596095Y-140218114D02*
X104558000Y-140256209D01*
X104596095Y-140294304D01*
X104634190Y-140256209D01*
X104596095Y-140218114D01*
X104596095Y-140294304D01*
X104215142Y-139989542D02*
X103605619Y-139989542D01*
X103224666Y-139989542D02*
X102615142Y-139989542D01*
X101053238Y-139456209D02*
X101738952Y-140484780D01*
X100177047Y-140218114D02*
X100138952Y-140256209D01*
X100177047Y-140294304D01*
X100215142Y-140256209D01*
X100177047Y-140218114D01*
X100177047Y-140294304D01*
X99796095Y-139989542D02*
X99186571Y-139989542D01*
X98805619Y-139989542D02*
X98196095Y-139989542D01*
X97205619Y-140218114D02*
X97167523Y-140256209D01*
X97205619Y-140294304D01*
X97243714Y-140256209D01*
X97205619Y-140218114D01*
X97205619Y-140294304D01*
X96824666Y-140218114D02*
X96786571Y-140256209D01*
X96824666Y-140294304D01*
X96862761Y-140256209D01*
X96824666Y-140218114D01*
X96824666Y-140294304D01*
X95834190Y-139989542D02*
X95224666Y-139989542D01*
X94234190Y-140218114D02*
X94196095Y-140256209D01*
X94234190Y-140294304D01*
X94272285Y-140256209D01*
X94234190Y-140218114D01*
X94234190Y-140294304D01*
X93853238Y-140218114D02*
X93815142Y-140256209D01*
X93853238Y-140294304D01*
X93891333Y-140256209D01*
X93853238Y-140218114D01*
X93853238Y-140294304D01*
X93472285Y-140218114D02*
X93434190Y-140256209D01*
X93472285Y-140294304D01*
X93510380Y-140256209D01*
X93472285Y-140218114D01*
X93472285Y-140294304D01*
X93091333Y-140218114D02*
X93053238Y-140256209D01*
X93091333Y-140294304D01*
X93129428Y-140256209D01*
X93091333Y-140218114D01*
X93091333Y-140294304D01*
X91529428Y-139456209D02*
X92215142Y-140484780D01*
X90653238Y-140218114D02*
X90615142Y-140256209D01*
X90653238Y-140294304D01*
X90691333Y-140256209D01*
X90653238Y-140218114D01*
X90653238Y-140294304D01*
X90272285Y-140218114D02*
X90234190Y-140256209D01*
X90272285Y-140294304D01*
X90310380Y-140256209D01*
X90272285Y-140218114D01*
X90272285Y-140294304D01*
X89891333Y-140218114D02*
X89853238Y-140256209D01*
X89891333Y-140294304D01*
X89929428Y-140256209D01*
X89891333Y-140218114D01*
X89891333Y-140294304D01*
X89510380Y-140218114D02*
X89472285Y-140256209D01*
X89510380Y-140294304D01*
X89548476Y-140256209D01*
X89510380Y-140218114D01*
X89510380Y-140294304D01*
X88519904Y-139989542D02*
X87910380Y-139989542D01*
X87529428Y-139989542D02*
X86919904Y-139989542D01*
X86538952Y-139989542D02*
X85929428Y-139989542D01*
X84938952Y-139989542D02*
X84329428Y-139989542D01*
X83948476Y-140218114D02*
X83910380Y-140256209D01*
X83948476Y-140294304D01*
X83986571Y-140256209D01*
X83948476Y-140218114D01*
X83948476Y-140294304D01*
X82958000Y-140218114D02*
X82919904Y-140256209D01*
X82958000Y-140294304D01*
X82996095Y-140256209D01*
X82958000Y-140218114D01*
X82958000Y-140294304D01*
X81967523Y-139989542D02*
X81358000Y-139989542D01*
X80977047Y-140218114D02*
X80938952Y-140256209D01*
X80977047Y-140294304D01*
X81015142Y-140256209D01*
X80977047Y-140218114D01*
X80977047Y-140294304D01*
X80596095Y-139989542D02*
X79986571Y-139989542D01*
X79605619Y-139989542D02*
X78996095Y-139989542D01*
X78005619Y-140218114D02*
X77967523Y-140256209D01*
X78005619Y-140294304D01*
X78043714Y-140256209D01*
X78005619Y-140218114D01*
X78005619Y-140294304D01*
X77624666Y-139989542D02*
X77015142Y-139989542D01*
X76634190Y-140218114D02*
X76596095Y-140256209D01*
X76634190Y-140294304D01*
X76672285Y-140256209D01*
X76634190Y-140218114D01*
X76634190Y-140294304D01*
X76253238Y-140218114D02*
X76215142Y-140256209D01*
X76253238Y-140294304D01*
X76291333Y-140256209D01*
X76253238Y-140218114D01*
X76253238Y-140294304D01*
X75872285Y-139989542D02*
X75262761Y-139989542D01*
X74881809Y-140218114D02*
X74843714Y-140256209D01*
X74881809Y-140294304D01*
X74919904Y-140256209D01*
X74881809Y-140218114D01*
X74881809Y-140294304D01*
D11*
G04 #@! TO.P,D1,1*
G04 #@! TO.N,Net-(D1-Pad1)*
X109067600Y-130810000D03*
D12*
G04 #@! TO.P,D1,2*
G04 #@! TO.N,GND*
X109067600Y-123190000D03*
G04 #@! TD*
D13*
G04 #@! TO.P,J1,1*
G04 #@! TO.N,+3V3*
X108051600Y-76454000D03*
D14*
G04 #@! TO.P,J1,2*
G04 #@! TO.N,+5V*
X108051600Y-73914000D03*
G04 #@! TO.P,J1,3*
G04 #@! TO.N,Net-(J1-Pad3)*
X110591600Y-76454000D03*
G04 #@! TO.P,J1,4*
G04 #@! TO.N,+5V*
X110591600Y-73914000D03*
G04 #@! TO.P,J1,5*
G04 #@! TO.N,Net-(J1-Pad5)*
X113131600Y-76454000D03*
G04 #@! TO.P,J1,6*
G04 #@! TO.N,GND*
X113131600Y-73914000D03*
G04 #@! TO.P,J1,7*
G04 #@! TO.N,Net-(J1-Pad7)*
X115671600Y-76454000D03*
G04 #@! TO.P,J1,8*
G04 #@! TO.N,/UART_TX_WHT*
X115671600Y-73914000D03*
G04 #@! TO.P,J1,9*
G04 #@! TO.N,GND*
X118211600Y-76454000D03*
G04 #@! TO.P,J1,10*
G04 #@! TO.N,/UART_RX_GRN*
X118211600Y-73914000D03*
G04 #@! TO.P,J1,11*
G04 #@! TO.N,/Fan_On*
X120751600Y-76454000D03*
G04 #@! TO.P,J1,12*
G04 #@! TO.N,/PWM0*
X120751600Y-73914000D03*
G04 #@! TO.P,J1,13*
G04 #@! TO.N,/Temp_D*
X123291600Y-76454000D03*
G04 #@! TO.P,J1,14*
G04 #@! TO.N,GND*
X123291600Y-73914000D03*
G04 #@! TO.P,J1,15*
G04 #@! TO.N,/Smoke_D*
X125831600Y-76454000D03*
G04 #@! TO.P,J1,16*
G04 #@! TO.N,/Alarm_PWM*
X125831600Y-73914000D03*
G04 #@! TO.P,J1,17*
G04 #@! TO.N,Net-(J1-Pad17)*
X128371600Y-76454000D03*
G04 #@! TO.P,J1,18*
G04 #@! TO.N,/LEDs*
X128371600Y-73914000D03*
G04 #@! TO.P,J1,19*
G04 #@! TO.N,Net-(J1-Pad19)*
X130911600Y-76454000D03*
G04 #@! TO.P,J1,20*
G04 #@! TO.N,GND*
X130911600Y-73914000D03*
G04 #@! TO.P,J1,21*
G04 #@! TO.N,Net-(J1-Pad21)*
X133451600Y-76454000D03*
G04 #@! TO.P,J1,22*
G04 #@! TO.N,Net-(J1-Pad22)*
X133451600Y-73914000D03*
G04 #@! TO.P,J1,23*
G04 #@! TO.N,Net-(J1-Pad23)*
X135991600Y-76454000D03*
G04 #@! TO.P,J1,24*
G04 #@! TO.N,Net-(J1-Pad24)*
X135991600Y-73914000D03*
G04 #@! TO.P,J1,25*
G04 #@! TO.N,Net-(J1-Pad25)*
X138531600Y-76454000D03*
G04 #@! TO.P,J1,26*
G04 #@! TO.N,Net-(J1-Pad26)*
X138531600Y-73914000D03*
G04 #@! TO.P,J1,27*
G04 #@! TO.N,Net-(J1-Pad27)*
X141071600Y-76454000D03*
G04 #@! TO.P,J1,28*
G04 #@! TO.N,Net-(J1-Pad28)*
X141071600Y-73914000D03*
G04 #@! TO.P,J1,29*
G04 #@! TO.N,Net-(J1-Pad29)*
X143611600Y-76454000D03*
G04 #@! TO.P,J1,30*
G04 #@! TO.N,Net-(J1-Pad30)*
X143611600Y-73914000D03*
G04 #@! TO.P,J1,31*
G04 #@! TO.N,Net-(J1-Pad31)*
X146151600Y-76454000D03*
G04 #@! TO.P,J1,32*
G04 #@! TO.N,Net-(J1-Pad32)*
X146151600Y-73914000D03*
G04 #@! TO.P,J1,33*
G04 #@! TO.N,Net-(J1-Pad33)*
X148691600Y-76454000D03*
G04 #@! TO.P,J1,34*
G04 #@! TO.N,Net-(J1-Pad34)*
X148691600Y-73914000D03*
G04 #@! TO.P,J1,35*
G04 #@! TO.N,Net-(J1-Pad35)*
X151231600Y-76454000D03*
G04 #@! TO.P,J1,36*
G04 #@! TO.N,Net-(J1-Pad36)*
X151231600Y-73914000D03*
G04 #@! TO.P,J1,37*
G04 #@! TO.N,Net-(J1-Pad37)*
X153771600Y-76454000D03*
G04 #@! TO.P,J1,38*
G04 #@! TO.N,Net-(J1-Pad38)*
X153771600Y-73914000D03*
G04 #@! TO.P,J1,39*
G04 #@! TO.N,Net-(J1-Pad39)*
X156311600Y-76454000D03*
G04 #@! TO.P,J1,40*
G04 #@! TO.N,Net-(J1-Pad40)*
X156311600Y-73914000D03*
G04 #@! TD*
D13*
G04 #@! TO.P,J2,1*
G04 #@! TO.N,+5V*
X78536800Y-75946000D03*
D14*
G04 #@! TO.P,J2,2*
G04 #@! TO.N,GND*
X81076800Y-75946000D03*
G04 #@! TO.P,J2,3*
G04 #@! TO.N,/Smoke_D*
X83616800Y-75946000D03*
G04 #@! TO.P,J2,4*
G04 #@! TO.N,/Smoke_A*
X86156800Y-75946000D03*
G04 #@! TD*
G04 #@! TO.P,J3,2*
G04 #@! TO.N,GND*
X130911600Y-70281800D03*
D13*
G04 #@! TO.P,J3,1*
G04 #@! TO.N,/LEDs*
X128371600Y-70281800D03*
G04 #@! TD*
G04 #@! TO.P,J4,1*
G04 #@! TO.N,+5V*
X92887800Y-76022200D03*
D14*
G04 #@! TO.P,J4,2*
G04 #@! TO.N,/Temp_D*
X95427800Y-76022200D03*
G04 #@! TO.P,J4,3*
G04 #@! TO.N,Net-(J4-Pad3)*
X97967800Y-76022200D03*
G04 #@! TO.P,J4,4*
G04 #@! TO.N,GND*
X100507800Y-76022200D03*
G04 #@! TD*
D13*
G04 #@! TO.P,J5,1*
G04 #@! TO.N,/Alarm_PWM*
X135991600Y-70281800D03*
D14*
G04 #@! TO.P,J5,2*
G04 #@! TO.N,GND*
X138531600Y-70281800D03*
G04 #@! TD*
D13*
G04 #@! TO.P,J6,1*
G04 #@! TO.N,GND*
X113131600Y-70256400D03*
D14*
G04 #@! TO.P,J6,2*
G04 #@! TO.N,/UART_TX_WHT*
X115671600Y-70256400D03*
G04 #@! TO.P,J6,3*
G04 #@! TO.N,/UART_RX_GRN*
X118211600Y-70256400D03*
G04 #@! TD*
D13*
G04 #@! TO.P,J7,1*
G04 #@! TO.N,Net-(J7-Pad1)*
X143586200Y-140411200D03*
D14*
G04 #@! TO.P,J7,2*
G04 #@! TO.N,GND*
X141046200Y-140411200D03*
G04 #@! TD*
D13*
G04 #@! TO.P,J8,1*
G04 #@! TO.N,Net-(J8-Pad1)*
X74396600Y-132943600D03*
D14*
G04 #@! TO.P,J8,2*
G04 #@! TO.N,GND*
X76936600Y-132943600D03*
G04 #@! TD*
G04 #@! TO.P,J9,4*
G04 #@! TO.N,Net-(C5-Pad1)*
X125222000Y-140436600D03*
G04 #@! TO.P,J9,3*
X127762000Y-140436600D03*
G04 #@! TO.P,J9,2*
G04 #@! TO.N,GND*
X130302000Y-140436600D03*
D13*
G04 #@! TO.P,J9,1*
X132842000Y-140436600D03*
G04 #@! TD*
D15*
G04 #@! TO.N,/Temp_D*
G04 #@! TO.C,R1*
G36*
X95294705Y-78193604D02*
X95318973Y-78197204D01*
X95342772Y-78203165D01*
X95365871Y-78211430D01*
X95388050Y-78221920D01*
X95409093Y-78234532D01*
X95428799Y-78249147D01*
X95446977Y-78265623D01*
X95463453Y-78283801D01*
X95478068Y-78303507D01*
X95490680Y-78324550D01*
X95501170Y-78346729D01*
X95509435Y-78369828D01*
X95515396Y-78393627D01*
X95518996Y-78417895D01*
X95520200Y-78442399D01*
X95520200Y-79342401D01*
X95518996Y-79366905D01*
X95515396Y-79391173D01*
X95509435Y-79414972D01*
X95501170Y-79438071D01*
X95490680Y-79460250D01*
X95478068Y-79481293D01*
X95463453Y-79500999D01*
X95446977Y-79519177D01*
X95428799Y-79535653D01*
X95409093Y-79550268D01*
X95388050Y-79562880D01*
X95365871Y-79573370D01*
X95342772Y-79581635D01*
X95318973Y-79587596D01*
X95294705Y-79591196D01*
X95270201Y-79592400D01*
X94620199Y-79592400D01*
X94595695Y-79591196D01*
X94571427Y-79587596D01*
X94547628Y-79581635D01*
X94524529Y-79573370D01*
X94502350Y-79562880D01*
X94481307Y-79550268D01*
X94461601Y-79535653D01*
X94443423Y-79519177D01*
X94426947Y-79500999D01*
X94412332Y-79481293D01*
X94399720Y-79460250D01*
X94389230Y-79438071D01*
X94380965Y-79414972D01*
X94375004Y-79391173D01*
X94371404Y-79366905D01*
X94370200Y-79342401D01*
X94370200Y-78442399D01*
X94371404Y-78417895D01*
X94375004Y-78393627D01*
X94380965Y-78369828D01*
X94389230Y-78346729D01*
X94399720Y-78324550D01*
X94412332Y-78303507D01*
X94426947Y-78283801D01*
X94443423Y-78265623D01*
X94461601Y-78249147D01*
X94481307Y-78234532D01*
X94502350Y-78221920D01*
X94524529Y-78211430D01*
X94547628Y-78203165D01*
X94571427Y-78197204D01*
X94595695Y-78193604D01*
X94620199Y-78192400D01*
X95270201Y-78192400D01*
X95294705Y-78193604D01*
X95294705Y-78193604D01*
G37*
D16*
G04 #@! TD*
G04 #@! TO.P,R1,2*
G04 #@! TO.N,/Temp_D*
X94945200Y-78892400D03*
D15*
G04 #@! TO.N,+5V*
G04 #@! TO.C,R1*
G36*
X93244705Y-78193604D02*
X93268973Y-78197204D01*
X93292772Y-78203165D01*
X93315871Y-78211430D01*
X93338050Y-78221920D01*
X93359093Y-78234532D01*
X93378799Y-78249147D01*
X93396977Y-78265623D01*
X93413453Y-78283801D01*
X93428068Y-78303507D01*
X93440680Y-78324550D01*
X93451170Y-78346729D01*
X93459435Y-78369828D01*
X93465396Y-78393627D01*
X93468996Y-78417895D01*
X93470200Y-78442399D01*
X93470200Y-79342401D01*
X93468996Y-79366905D01*
X93465396Y-79391173D01*
X93459435Y-79414972D01*
X93451170Y-79438071D01*
X93440680Y-79460250D01*
X93428068Y-79481293D01*
X93413453Y-79500999D01*
X93396977Y-79519177D01*
X93378799Y-79535653D01*
X93359093Y-79550268D01*
X93338050Y-79562880D01*
X93315871Y-79573370D01*
X93292772Y-79581635D01*
X93268973Y-79587596D01*
X93244705Y-79591196D01*
X93220201Y-79592400D01*
X92570199Y-79592400D01*
X92545695Y-79591196D01*
X92521427Y-79587596D01*
X92497628Y-79581635D01*
X92474529Y-79573370D01*
X92452350Y-79562880D01*
X92431307Y-79550268D01*
X92411601Y-79535653D01*
X92393423Y-79519177D01*
X92376947Y-79500999D01*
X92362332Y-79481293D01*
X92349720Y-79460250D01*
X92339230Y-79438071D01*
X92330965Y-79414972D01*
X92325004Y-79391173D01*
X92321404Y-79366905D01*
X92320200Y-79342401D01*
X92320200Y-78442399D01*
X92321404Y-78417895D01*
X92325004Y-78393627D01*
X92330965Y-78369828D01*
X92339230Y-78346729D01*
X92349720Y-78324550D01*
X92362332Y-78303507D01*
X92376947Y-78283801D01*
X92393423Y-78265623D01*
X92411601Y-78249147D01*
X92431307Y-78234532D01*
X92452350Y-78221920D01*
X92474529Y-78211430D01*
X92497628Y-78203165D01*
X92521427Y-78197204D01*
X92545695Y-78193604D01*
X92570199Y-78192400D01*
X93220201Y-78192400D01*
X93244705Y-78193604D01*
X93244705Y-78193604D01*
G37*
D16*
G04 #@! TD*
G04 #@! TO.P,R1,1*
G04 #@! TO.N,+5V*
X92895200Y-78892400D03*
D15*
G04 #@! TO.N,+3V3*
G04 #@! TO.C,R4*
G36*
X150690105Y-119593604D02*
X150714373Y-119597204D01*
X150738172Y-119603165D01*
X150761271Y-119611430D01*
X150783450Y-119621920D01*
X150804493Y-119634532D01*
X150824199Y-119649147D01*
X150842377Y-119665623D01*
X150858853Y-119683801D01*
X150873468Y-119703507D01*
X150886080Y-119724550D01*
X150896570Y-119746729D01*
X150904835Y-119769828D01*
X150910796Y-119793627D01*
X150914396Y-119817895D01*
X150915600Y-119842399D01*
X150915600Y-120492401D01*
X150914396Y-120516905D01*
X150910796Y-120541173D01*
X150904835Y-120564972D01*
X150896570Y-120588071D01*
X150886080Y-120610250D01*
X150873468Y-120631293D01*
X150858853Y-120650999D01*
X150842377Y-120669177D01*
X150824199Y-120685653D01*
X150804493Y-120700268D01*
X150783450Y-120712880D01*
X150761271Y-120723370D01*
X150738172Y-120731635D01*
X150714373Y-120737596D01*
X150690105Y-120741196D01*
X150665601Y-120742400D01*
X149765599Y-120742400D01*
X149741095Y-120741196D01*
X149716827Y-120737596D01*
X149693028Y-120731635D01*
X149669929Y-120723370D01*
X149647750Y-120712880D01*
X149626707Y-120700268D01*
X149607001Y-120685653D01*
X149588823Y-120669177D01*
X149572347Y-120650999D01*
X149557732Y-120631293D01*
X149545120Y-120610250D01*
X149534630Y-120588071D01*
X149526365Y-120564972D01*
X149520404Y-120541173D01*
X149516804Y-120516905D01*
X149515600Y-120492401D01*
X149515600Y-119842399D01*
X149516804Y-119817895D01*
X149520404Y-119793627D01*
X149526365Y-119769828D01*
X149534630Y-119746729D01*
X149545120Y-119724550D01*
X149557732Y-119703507D01*
X149572347Y-119683801D01*
X149588823Y-119665623D01*
X149607001Y-119649147D01*
X149626707Y-119634532D01*
X149647750Y-119621920D01*
X149669929Y-119611430D01*
X149693028Y-119603165D01*
X149716827Y-119597204D01*
X149741095Y-119593604D01*
X149765599Y-119592400D01*
X150665601Y-119592400D01*
X150690105Y-119593604D01*
X150690105Y-119593604D01*
G37*
D16*
G04 #@! TD*
G04 #@! TO.P,R4,1*
G04 #@! TO.N,+3V3*
X150215600Y-120167400D03*
D15*
G04 #@! TO.N,Net-(R4-Pad2)*
G04 #@! TO.C,R4*
G36*
X150690105Y-121643604D02*
X150714373Y-121647204D01*
X150738172Y-121653165D01*
X150761271Y-121661430D01*
X150783450Y-121671920D01*
X150804493Y-121684532D01*
X150824199Y-121699147D01*
X150842377Y-121715623D01*
X150858853Y-121733801D01*
X150873468Y-121753507D01*
X150886080Y-121774550D01*
X150896570Y-121796729D01*
X150904835Y-121819828D01*
X150910796Y-121843627D01*
X150914396Y-121867895D01*
X150915600Y-121892399D01*
X150915600Y-122542401D01*
X150914396Y-122566905D01*
X150910796Y-122591173D01*
X150904835Y-122614972D01*
X150896570Y-122638071D01*
X150886080Y-122660250D01*
X150873468Y-122681293D01*
X150858853Y-122700999D01*
X150842377Y-122719177D01*
X150824199Y-122735653D01*
X150804493Y-122750268D01*
X150783450Y-122762880D01*
X150761271Y-122773370D01*
X150738172Y-122781635D01*
X150714373Y-122787596D01*
X150690105Y-122791196D01*
X150665601Y-122792400D01*
X149765599Y-122792400D01*
X149741095Y-122791196D01*
X149716827Y-122787596D01*
X149693028Y-122781635D01*
X149669929Y-122773370D01*
X149647750Y-122762880D01*
X149626707Y-122750268D01*
X149607001Y-122735653D01*
X149588823Y-122719177D01*
X149572347Y-122700999D01*
X149557732Y-122681293D01*
X149545120Y-122660250D01*
X149534630Y-122638071D01*
X149526365Y-122614972D01*
X149520404Y-122591173D01*
X149516804Y-122566905D01*
X149515600Y-122542401D01*
X149515600Y-121892399D01*
X149516804Y-121867895D01*
X149520404Y-121843627D01*
X149526365Y-121819828D01*
X149534630Y-121796729D01*
X149545120Y-121774550D01*
X149557732Y-121753507D01*
X149572347Y-121733801D01*
X149588823Y-121715623D01*
X149607001Y-121699147D01*
X149626707Y-121684532D01*
X149647750Y-121671920D01*
X149669929Y-121661430D01*
X149693028Y-121653165D01*
X149716827Y-121647204D01*
X149741095Y-121643604D01*
X149765599Y-121642400D01*
X150665601Y-121642400D01*
X150690105Y-121643604D01*
X150690105Y-121643604D01*
G37*
D16*
G04 #@! TD*
G04 #@! TO.P,R4,2*
G04 #@! TO.N,Net-(R4-Pad2)*
X150215600Y-122217400D03*
D15*
G04 #@! TO.N,Net-(R4-Pad2)*
G04 #@! TO.C,R5*
G36*
X155820905Y-126680204D02*
X155845173Y-126683804D01*
X155868972Y-126689765D01*
X155892071Y-126698030D01*
X155914250Y-126708520D01*
X155935293Y-126721132D01*
X155954999Y-126735747D01*
X155973177Y-126752223D01*
X155989653Y-126770401D01*
X156004268Y-126790107D01*
X156016880Y-126811150D01*
X156027370Y-126833329D01*
X156035635Y-126856428D01*
X156041596Y-126880227D01*
X156045196Y-126904495D01*
X156046400Y-126928999D01*
X156046400Y-127579001D01*
X156045196Y-127603505D01*
X156041596Y-127627773D01*
X156035635Y-127651572D01*
X156027370Y-127674671D01*
X156016880Y-127696850D01*
X156004268Y-127717893D01*
X155989653Y-127737599D01*
X155973177Y-127755777D01*
X155954999Y-127772253D01*
X155935293Y-127786868D01*
X155914250Y-127799480D01*
X155892071Y-127809970D01*
X155868972Y-127818235D01*
X155845173Y-127824196D01*
X155820905Y-127827796D01*
X155796401Y-127829000D01*
X154896399Y-127829000D01*
X154871895Y-127827796D01*
X154847627Y-127824196D01*
X154823828Y-127818235D01*
X154800729Y-127809970D01*
X154778550Y-127799480D01*
X154757507Y-127786868D01*
X154737801Y-127772253D01*
X154719623Y-127755777D01*
X154703147Y-127737599D01*
X154688532Y-127717893D01*
X154675920Y-127696850D01*
X154665430Y-127674671D01*
X154657165Y-127651572D01*
X154651204Y-127627773D01*
X154647604Y-127603505D01*
X154646400Y-127579001D01*
X154646400Y-126928999D01*
X154647604Y-126904495D01*
X154651204Y-126880227D01*
X154657165Y-126856428D01*
X154665430Y-126833329D01*
X154675920Y-126811150D01*
X154688532Y-126790107D01*
X154703147Y-126770401D01*
X154719623Y-126752223D01*
X154737801Y-126735747D01*
X154757507Y-126721132D01*
X154778550Y-126708520D01*
X154800729Y-126698030D01*
X154823828Y-126689765D01*
X154847627Y-126683804D01*
X154871895Y-126680204D01*
X154896399Y-126679000D01*
X155796401Y-126679000D01*
X155820905Y-126680204D01*
X155820905Y-126680204D01*
G37*
D16*
G04 #@! TD*
G04 #@! TO.P,R5,1*
G04 #@! TO.N,Net-(R4-Pad2)*
X155346400Y-127254000D03*
D15*
G04 #@! TO.N,GND*
G04 #@! TO.C,R5*
G36*
X155820905Y-124630204D02*
X155845173Y-124633804D01*
X155868972Y-124639765D01*
X155892071Y-124648030D01*
X155914250Y-124658520D01*
X155935293Y-124671132D01*
X155954999Y-124685747D01*
X155973177Y-124702223D01*
X155989653Y-124720401D01*
X156004268Y-124740107D01*
X156016880Y-124761150D01*
X156027370Y-124783329D01*
X156035635Y-124806428D01*
X156041596Y-124830227D01*
X156045196Y-124854495D01*
X156046400Y-124878999D01*
X156046400Y-125529001D01*
X156045196Y-125553505D01*
X156041596Y-125577773D01*
X156035635Y-125601572D01*
X156027370Y-125624671D01*
X156016880Y-125646850D01*
X156004268Y-125667893D01*
X155989653Y-125687599D01*
X155973177Y-125705777D01*
X155954999Y-125722253D01*
X155935293Y-125736868D01*
X155914250Y-125749480D01*
X155892071Y-125759970D01*
X155868972Y-125768235D01*
X155845173Y-125774196D01*
X155820905Y-125777796D01*
X155796401Y-125779000D01*
X154896399Y-125779000D01*
X154871895Y-125777796D01*
X154847627Y-125774196D01*
X154823828Y-125768235D01*
X154800729Y-125759970D01*
X154778550Y-125749480D01*
X154757507Y-125736868D01*
X154737801Y-125722253D01*
X154719623Y-125705777D01*
X154703147Y-125687599D01*
X154688532Y-125667893D01*
X154675920Y-125646850D01*
X154665430Y-125624671D01*
X154657165Y-125601572D01*
X154651204Y-125577773D01*
X154647604Y-125553505D01*
X154646400Y-125529001D01*
X154646400Y-124878999D01*
X154647604Y-124854495D01*
X154651204Y-124830227D01*
X154657165Y-124806428D01*
X154665430Y-124783329D01*
X154675920Y-124761150D01*
X154688532Y-124740107D01*
X154703147Y-124720401D01*
X154719623Y-124702223D01*
X154737801Y-124685747D01*
X154757507Y-124671132D01*
X154778550Y-124658520D01*
X154800729Y-124648030D01*
X154823828Y-124639765D01*
X154847627Y-124633804D01*
X154871895Y-124630204D01*
X154896399Y-124629000D01*
X155796401Y-124629000D01*
X155820905Y-124630204D01*
X155820905Y-124630204D01*
G37*
D16*
G04 #@! TD*
G04 #@! TO.P,R5,2*
G04 #@! TO.N,GND*
X155346400Y-125204000D03*
D17*
G04 #@! TO.P,U1,8*
G04 #@! TO.N,Net-(U1-Pad8)*
X83566000Y-131114800D03*
G04 #@! TO.P,U1,4*
G04 #@! TO.N,GND*
X91186000Y-123494800D03*
G04 #@! TO.P,U1,7*
G04 #@! TO.N,+7.5V*
X83566000Y-128574800D03*
G04 #@! TO.P,U1,3*
G04 #@! TO.N,Net-(R2-Pad2)*
X91186000Y-126034800D03*
G04 #@! TO.P,U1,6*
G04 #@! TO.N,/HV_PWM*
X83566000Y-126034800D03*
G04 #@! TO.P,U1,2*
G04 #@! TO.N,/PWM0*
X91186000Y-128574800D03*
G04 #@! TO.P,U1,5*
G04 #@! TO.N,Net-(U1-Pad5)*
X83566000Y-123494800D03*
D18*
G04 #@! TO.P,U1,1*
G04 #@! TO.N,Net-(U1-Pad1)*
X91186000Y-131114800D03*
G04 #@! TD*
G04 #@! TO.P,U2,1*
G04 #@! TO.N,Net-(U2-Pad1)*
X158318200Y-132816600D03*
D17*
G04 #@! TO.P,U2,5*
G04 #@! TO.N,Net-(U2-Pad5)*
X150698200Y-125196600D03*
G04 #@! TO.P,U2,2*
G04 #@! TO.N,/Fan_On*
X158318200Y-130276600D03*
G04 #@! TO.P,U2,6*
G04 #@! TO.N,/HV_FAN*
X150698200Y-127736600D03*
G04 #@! TO.P,U2,3*
G04 #@! TO.N,Net-(R4-Pad2)*
X158318200Y-127736600D03*
G04 #@! TO.P,U2,7*
G04 #@! TO.N,+7.5V*
X150698200Y-130276600D03*
G04 #@! TO.P,U2,4*
G04 #@! TO.N,GND*
X158318200Y-125196600D03*
G04 #@! TO.P,U2,8*
G04 #@! TO.N,Net-(U2-Pad8)*
X150698200Y-132816600D03*
G04 #@! TD*
D19*
G04 #@! TO.P,U3,2*
G04 #@! TO.N,Net-(J8-Pad1)*
X77139800Y-117703200D03*
D20*
X77139800Y-124003200D03*
G04 #@! TO.P,U3,3*
G04 #@! TO.N,+7.5V*
X74839800Y-124003200D03*
G04 #@! TO.P,U3,1*
G04 #@! TO.N,GND*
X79439800Y-124003200D03*
G04 #@! TD*
D21*
G04 #@! TO.P,SW1,1*
G04 #@! TO.N,Net-(BT1-Pad1)*
X70408800Y-95554800D03*
D22*
G04 #@! TO.P,SW1,2*
G04 #@! TO.N,+7.5V*
X70408800Y-103174800D03*
G04 #@! TD*
D23*
G04 #@! TO.N,+7.5V*
X70281800Y-121716800D03*
D24*
G04 #@! TO.N,+3V3*
X98933000Y-121234200D03*
X108051600Y-83642200D03*
G04 #@! TO.N,/PWM0*
X104724200Y-78105000D03*
X104749600Y-83794600D03*
G04 #@! TD*
D25*
G04 #@! TO.N,GND*
X158310800Y-125204000D02*
X158318200Y-125196600D01*
X155346400Y-125204000D02*
X158310800Y-125204000D01*
D26*
G04 #@! TO.N,+7.5V*
X72568200Y-124003200D02*
X70281800Y-121716800D01*
X74839800Y-124003200D02*
X72568200Y-124003200D01*
D25*
G04 #@! TO.N,+3V3*
X103124000Y-107746800D02*
X108051600Y-102819200D01*
X108051600Y-102819200D02*
X108051600Y-83642200D01*
X150215600Y-120167400D02*
X150215600Y-119049800D01*
X150215600Y-119049800D02*
X147777200Y-116611400D01*
X121843800Y-116611400D02*
X108051600Y-102819200D01*
X147777200Y-116611400D02*
X121843800Y-116611400D01*
X98533001Y-112337799D02*
X103124000Y-107746800D01*
X98533001Y-120834201D02*
X98533001Y-112337799D01*
X98933000Y-121234200D02*
X98533001Y-120834201D01*
G04 #@! TO.N,+5V*
X92895200Y-76029600D02*
X92887800Y-76022200D01*
X92895200Y-78892400D02*
X92895200Y-76029600D01*
G04 #@! TO.N,/PWM0*
X120751600Y-73914000D02*
X120751600Y-68707000D01*
X120751600Y-68707000D02*
X119329200Y-67284600D01*
X119329200Y-67284600D02*
X106578400Y-67284600D01*
X106578400Y-67284600D02*
X104724200Y-69138800D01*
X104724200Y-69138800D02*
X104724200Y-78105000D01*
X104749600Y-103276400D02*
X104749600Y-83794600D01*
X96672400Y-127025400D02*
X96672400Y-111353600D01*
X91186000Y-128574800D02*
X95123000Y-128574800D01*
X96672400Y-111353600D02*
X104749600Y-103276400D01*
X95123000Y-128574800D02*
X96672400Y-127025400D01*
G04 #@! TO.N,/Smoke_D*
X125831600Y-76454000D02*
X120472200Y-81813400D01*
X83616800Y-75946000D02*
X83616800Y-80264000D01*
X85166200Y-81813400D02*
X120472200Y-81813400D01*
X83616800Y-80264000D02*
X85166200Y-81813400D01*
G04 #@! TO.N,/Temp_D*
X95427800Y-78409800D02*
X94945200Y-78892400D01*
X95427800Y-76022200D02*
X95427800Y-78409800D01*
X94945200Y-78892400D02*
X100990400Y-78892400D01*
X100990400Y-78892400D02*
X102336600Y-80238600D01*
X119507000Y-80238600D02*
X123291600Y-76454000D01*
X102336600Y-80238600D02*
X119507000Y-80238600D01*
D26*
G04 #@! TO.N,Net-(J8-Pad1)*
X77139800Y-124003200D02*
X77139800Y-117703200D01*
X74396600Y-129346400D02*
X74396600Y-132943600D01*
X77139800Y-124003200D02*
X77139800Y-126603200D01*
X77139800Y-126603200D02*
X74396600Y-129346400D01*
D25*
G04 #@! TO.N,Net-(R4-Pad2)*
X155829000Y-127736600D02*
X155346400Y-127254000D01*
X158318200Y-127736600D02*
X155829000Y-127736600D01*
X150838972Y-122840772D02*
X152812772Y-122840772D01*
X150215600Y-122217400D02*
X150838972Y-122840772D01*
X152812772Y-122840772D02*
X153416000Y-123444000D01*
X154546400Y-127254000D02*
X155346400Y-127254000D01*
X153416000Y-126123600D02*
X154546400Y-127254000D01*
X153416000Y-123444000D02*
X153416000Y-126123600D01*
G04 #@! TD*
D27*
G04 #@! TO.N,GND*
G36*
X161520527Y-65161730D02*
X161898773Y-65325412D01*
X162219069Y-65584782D01*
X162457815Y-65920730D01*
X162601127Y-66318795D01*
X162637000Y-66660104D01*
X162637001Y-143056897D01*
X162574670Y-143511926D01*
X162410988Y-143890173D01*
X162151617Y-144210470D01*
X161815671Y-144449215D01*
X161417605Y-144592527D01*
X161076297Y-144628400D01*
X68779095Y-144628400D01*
X68324074Y-144566070D01*
X67945827Y-144402388D01*
X67625530Y-144143017D01*
X67386785Y-143807071D01*
X67243473Y-143409005D01*
X67207600Y-143067697D01*
X67207600Y-135983900D01*
X69676572Y-135983900D01*
X69676572Y-141303900D01*
X121839429Y-141303900D01*
X121839429Y-140436600D01*
X123707908Y-140436600D01*
X123823161Y-141016018D01*
X124151375Y-141507225D01*
X124642582Y-141835439D01*
X125075744Y-141921600D01*
X125368256Y-141921600D01*
X125801418Y-141835439D01*
X126292625Y-141507225D01*
X126492000Y-141208839D01*
X126691375Y-141507225D01*
X127182582Y-141835439D01*
X127615744Y-141921600D01*
X127908256Y-141921600D01*
X128341418Y-141835439D01*
X128832625Y-141507225D01*
X129045843Y-141188122D01*
X129106817Y-141317958D01*
X129535076Y-141708245D01*
X129945110Y-141878076D01*
X130175000Y-141756755D01*
X130175000Y-140563600D01*
X130429000Y-140563600D01*
X130429000Y-141756755D01*
X130658890Y-141878076D01*
X131068924Y-141708245D01*
X131366864Y-141436722D01*
X131453673Y-141646298D01*
X131632301Y-141824927D01*
X131865690Y-141921600D01*
X132556250Y-141921600D01*
X132715000Y-141762850D01*
X132715000Y-140563600D01*
X132969000Y-140563600D01*
X132969000Y-141762850D01*
X133127750Y-141921600D01*
X133818310Y-141921600D01*
X134051699Y-141824927D01*
X134230327Y-141646298D01*
X134327000Y-141412909D01*
X134327000Y-140768092D01*
X139604714Y-140768092D01*
X139851017Y-141292558D01*
X140279276Y-141682845D01*
X140689310Y-141852676D01*
X140919200Y-141731355D01*
X140919200Y-140538200D01*
X139725381Y-140538200D01*
X139604714Y-140768092D01*
X134327000Y-140768092D01*
X134327000Y-140722350D01*
X134168250Y-140563600D01*
X132969000Y-140563600D01*
X132715000Y-140563600D01*
X130429000Y-140563600D01*
X130175000Y-140563600D01*
X130155000Y-140563600D01*
X130155000Y-140309600D01*
X130175000Y-140309600D01*
X130175000Y-139116445D01*
X130429000Y-139116445D01*
X130429000Y-140309600D01*
X132715000Y-140309600D01*
X132715000Y-139110350D01*
X132969000Y-139110350D01*
X132969000Y-140309600D01*
X134168250Y-140309600D01*
X134327000Y-140150850D01*
X134327000Y-140054308D01*
X139604714Y-140054308D01*
X139725381Y-140284200D01*
X140919200Y-140284200D01*
X140919200Y-139091045D01*
X141173200Y-139091045D01*
X141173200Y-140284200D01*
X141193200Y-140284200D01*
X141193200Y-140538200D01*
X141173200Y-140538200D01*
X141173200Y-141731355D01*
X141403090Y-141852676D01*
X141813124Y-141682845D01*
X142117461Y-141405492D01*
X142138043Y-141508965D01*
X142278391Y-141719009D01*
X142488435Y-141859357D01*
X142736200Y-141908640D01*
X144436200Y-141908640D01*
X144683965Y-141859357D01*
X144894009Y-141719009D01*
X145034357Y-141508965D01*
X145083640Y-141261200D01*
X145083640Y-139561200D01*
X145034357Y-139313435D01*
X144894009Y-139103391D01*
X144683965Y-138963043D01*
X144436200Y-138913760D01*
X142736200Y-138913760D01*
X142488435Y-138963043D01*
X142278391Y-139103391D01*
X142138043Y-139313435D01*
X142117461Y-139416908D01*
X141813124Y-139139555D01*
X141403090Y-138969724D01*
X141173200Y-139091045D01*
X140919200Y-139091045D01*
X140689310Y-138969724D01*
X140279276Y-139139555D01*
X139851017Y-139529842D01*
X139604714Y-140054308D01*
X134327000Y-140054308D01*
X134327000Y-139460291D01*
X134230327Y-139226902D01*
X134051699Y-139048273D01*
X133818310Y-138951600D01*
X133127750Y-138951600D01*
X132969000Y-139110350D01*
X132715000Y-139110350D01*
X132556250Y-138951600D01*
X131865690Y-138951600D01*
X131632301Y-139048273D01*
X131453673Y-139226902D01*
X131366864Y-139436478D01*
X131068924Y-139164955D01*
X130658890Y-138995124D01*
X130429000Y-139116445D01*
X130175000Y-139116445D01*
X129945110Y-138995124D01*
X129535076Y-139164955D01*
X129106817Y-139555242D01*
X129045843Y-139685078D01*
X128832625Y-139365975D01*
X128341418Y-139037761D01*
X127908256Y-138951600D01*
X127615744Y-138951600D01*
X127182582Y-139037761D01*
X126691375Y-139365975D01*
X126492000Y-139664361D01*
X126292625Y-139365975D01*
X125801418Y-139037761D01*
X125368256Y-138951600D01*
X125075744Y-138951600D01*
X124642582Y-139037761D01*
X124151375Y-139365975D01*
X123823161Y-139857182D01*
X123707908Y-140436600D01*
X121839429Y-140436600D01*
X121839429Y-135983900D01*
X69676572Y-135983900D01*
X67207600Y-135983900D01*
X67207600Y-121716800D01*
X68818688Y-121716800D01*
X68930061Y-122276709D01*
X69167165Y-122631560D01*
X71453563Y-124917959D01*
X71533623Y-125037777D01*
X72008291Y-125354940D01*
X72426867Y-125438200D01*
X72426870Y-125438200D01*
X72568200Y-125466312D01*
X72709530Y-125438200D01*
X73616750Y-125438200D01*
X73631991Y-125461009D01*
X73842035Y-125601357D01*
X74089800Y-125650640D01*
X75589800Y-125650640D01*
X75704801Y-125627765D01*
X75704801Y-126008803D01*
X73481841Y-128231764D01*
X73362023Y-128311824D01*
X73044860Y-128786492D01*
X72961600Y-129205068D01*
X72961600Y-129205072D01*
X72933488Y-129346400D01*
X72961600Y-129487729D01*
X72961601Y-131826143D01*
X72948443Y-131845835D01*
X72899160Y-132093600D01*
X72899160Y-133793600D01*
X72948443Y-134041365D01*
X73088791Y-134251409D01*
X73298835Y-134391757D01*
X73546600Y-134441040D01*
X75246600Y-134441040D01*
X75494365Y-134391757D01*
X75704409Y-134251409D01*
X75844757Y-134041365D01*
X75865339Y-133937892D01*
X76169676Y-134215245D01*
X76579710Y-134385076D01*
X76809600Y-134263755D01*
X76809600Y-133070600D01*
X77063600Y-133070600D01*
X77063600Y-134263755D01*
X77293490Y-134385076D01*
X77703524Y-134215245D01*
X78131783Y-133824958D01*
X78378086Y-133300492D01*
X78257419Y-133070600D01*
X77063600Y-133070600D01*
X76809600Y-133070600D01*
X76789600Y-133070600D01*
X76789600Y-132816600D01*
X76809600Y-132816600D01*
X76809600Y-131623445D01*
X77063600Y-131623445D01*
X77063600Y-132816600D01*
X78257419Y-132816600D01*
X78378086Y-132586708D01*
X78131783Y-132062242D01*
X77703524Y-131671955D01*
X77293490Y-131502124D01*
X77063600Y-131623445D01*
X76809600Y-131623445D01*
X76579710Y-131502124D01*
X76169676Y-131671955D01*
X75865339Y-131949308D01*
X75844757Y-131845835D01*
X75831600Y-131826144D01*
X75831600Y-129940795D01*
X78054562Y-127717835D01*
X78174377Y-127637777D01*
X78254434Y-127517963D01*
X78254436Y-127517961D01*
X78491540Y-127163109D01*
X78602913Y-126603200D01*
X78574800Y-126461867D01*
X78574800Y-125638200D01*
X79154050Y-125638200D01*
X79312800Y-125479450D01*
X79312800Y-124130200D01*
X79566800Y-124130200D01*
X79566800Y-125479450D01*
X79725550Y-125638200D01*
X80316110Y-125638200D01*
X80549499Y-125541527D01*
X80728127Y-125362898D01*
X80824800Y-125129509D01*
X80824800Y-124288950D01*
X80666050Y-124130200D01*
X79566800Y-124130200D01*
X79312800Y-124130200D01*
X79292800Y-124130200D01*
X79292800Y-123876200D01*
X79312800Y-123876200D01*
X79312800Y-122526950D01*
X79566800Y-122526950D01*
X79566800Y-123876200D01*
X80666050Y-123876200D01*
X80824800Y-123717450D01*
X80824800Y-123494800D01*
X81702887Y-123494800D01*
X81814260Y-124054709D01*
X82131423Y-124529377D01*
X82483758Y-124764800D01*
X82131423Y-125000223D01*
X81814260Y-125474891D01*
X81702887Y-126034800D01*
X81814260Y-126594709D01*
X82131423Y-127069377D01*
X82483758Y-127304800D01*
X82131423Y-127540223D01*
X81814260Y-128014891D01*
X81702887Y-128574800D01*
X81814260Y-129134709D01*
X82131423Y-129609377D01*
X82483758Y-129844800D01*
X82131423Y-130080223D01*
X81814260Y-130554891D01*
X81702887Y-131114800D01*
X81814260Y-131674709D01*
X82131423Y-132149377D01*
X82606091Y-132466540D01*
X83024667Y-132549800D01*
X84107333Y-132549800D01*
X84525909Y-132466540D01*
X85000577Y-132149377D01*
X85317740Y-131674709D01*
X85429113Y-131114800D01*
X85317740Y-130554891D01*
X85000577Y-130080223D01*
X84648242Y-129844800D01*
X85000577Y-129609377D01*
X85317740Y-129134709D01*
X85429113Y-128574800D01*
X85317740Y-128014891D01*
X85000577Y-127540223D01*
X84648242Y-127304800D01*
X85000577Y-127069377D01*
X85317740Y-126594709D01*
X85429113Y-126034800D01*
X85317740Y-125474891D01*
X85000577Y-125000223D01*
X84648242Y-124764800D01*
X85000577Y-124529377D01*
X85317740Y-124054709D01*
X85429113Y-123494800D01*
X85359685Y-123145761D01*
X89394096Y-123145761D01*
X89516085Y-123367800D01*
X91059000Y-123367800D01*
X91059000Y-122059800D01*
X91313000Y-122059800D01*
X91313000Y-123367800D01*
X92855915Y-123367800D01*
X92977904Y-123145761D01*
X92960367Y-123062981D01*
X92690500Y-122569904D01*
X92252483Y-122217634D01*
X91713000Y-122059800D01*
X91313000Y-122059800D01*
X91059000Y-122059800D01*
X90659000Y-122059800D01*
X90119517Y-122217634D01*
X89681500Y-122569904D01*
X89411633Y-123062981D01*
X89394096Y-123145761D01*
X85359685Y-123145761D01*
X85317740Y-122934891D01*
X85000577Y-122460223D01*
X84525909Y-122143060D01*
X84107333Y-122059800D01*
X83024667Y-122059800D01*
X82606091Y-122143060D01*
X82131423Y-122460223D01*
X81814260Y-122934891D01*
X81702887Y-123494800D01*
X80824800Y-123494800D01*
X80824800Y-122876891D01*
X80728127Y-122643502D01*
X80549499Y-122464873D01*
X80316110Y-122368200D01*
X79725550Y-122368200D01*
X79566800Y-122526950D01*
X79312800Y-122526950D01*
X79154050Y-122368200D01*
X78574800Y-122368200D01*
X78574800Y-119350640D01*
X79039800Y-119350640D01*
X79287565Y-119301357D01*
X79497609Y-119161009D01*
X79637957Y-118950965D01*
X79687240Y-118703200D01*
X79687240Y-116915667D01*
X87642000Y-116915667D01*
X87642000Y-117854533D01*
X88001289Y-118721933D01*
X88665167Y-119385811D01*
X89532567Y-119745100D01*
X90471433Y-119745100D01*
X91338833Y-119385811D01*
X92002711Y-118721933D01*
X92362000Y-117854533D01*
X92362000Y-116915667D01*
X92002711Y-116048267D01*
X91338833Y-115384389D01*
X90471433Y-115025100D01*
X89532567Y-115025100D01*
X88665167Y-115384389D01*
X88001289Y-116048267D01*
X87642000Y-116915667D01*
X79687240Y-116915667D01*
X79687240Y-116703200D01*
X79637957Y-116455435D01*
X79497609Y-116245391D01*
X79287565Y-116105043D01*
X79039800Y-116055760D01*
X75239800Y-116055760D01*
X74992035Y-116105043D01*
X74781991Y-116245391D01*
X74641643Y-116455435D01*
X74592360Y-116703200D01*
X74592360Y-118703200D01*
X74641643Y-118950965D01*
X74781991Y-119161009D01*
X74992035Y-119301357D01*
X75239800Y-119350640D01*
X75704801Y-119350640D01*
X75704800Y-122378635D01*
X75589800Y-122355760D01*
X74089800Y-122355760D01*
X73842035Y-122405043D01*
X73631991Y-122545391D01*
X73616750Y-122568200D01*
X73162596Y-122568200D01*
X71196560Y-120602165D01*
X70841709Y-120365061D01*
X70281800Y-120253688D01*
X69721891Y-120365061D01*
X69247223Y-120682223D01*
X68930061Y-121156891D01*
X68818688Y-121716800D01*
X67207600Y-121716800D01*
X67207600Y-103174800D01*
X68945687Y-103174800D01*
X69057060Y-103734709D01*
X69374223Y-104209377D01*
X69848891Y-104526540D01*
X70267467Y-104609800D01*
X70550133Y-104609800D01*
X70968709Y-104526540D01*
X71443377Y-104209377D01*
X71760540Y-103734709D01*
X71871913Y-103174800D01*
X71760540Y-102614891D01*
X71443377Y-102140223D01*
X70968709Y-101823060D01*
X70550133Y-101739800D01*
X70267467Y-101739800D01*
X69848891Y-101823060D01*
X69374223Y-102140223D01*
X69057060Y-102614891D01*
X68945687Y-103174800D01*
X67207600Y-103174800D01*
X67207600Y-94754800D01*
X68961360Y-94754800D01*
X68961360Y-96354800D01*
X69010643Y-96602565D01*
X69150991Y-96812609D01*
X69361035Y-96952957D01*
X69608800Y-97002240D01*
X71208800Y-97002240D01*
X71456565Y-96952957D01*
X71666609Y-96812609D01*
X71806957Y-96602565D01*
X71856240Y-96354800D01*
X71856240Y-94754800D01*
X71806957Y-94507035D01*
X71666609Y-94296991D01*
X71456565Y-94156643D01*
X71208800Y-94107360D01*
X69608800Y-94107360D01*
X69361035Y-94156643D01*
X69150991Y-94296991D01*
X69010643Y-94507035D01*
X68961360Y-94754800D01*
X67207600Y-94754800D01*
X67207600Y-81894890D01*
X79842000Y-81894890D01*
X79842000Y-82622910D01*
X80120601Y-83295512D01*
X80635388Y-83810299D01*
X81307990Y-84088900D01*
X82036010Y-84088900D01*
X82708612Y-83810299D01*
X83223399Y-83295512D01*
X83502000Y-82622910D01*
X83502000Y-81894890D01*
X83223399Y-81222288D01*
X82708612Y-80707501D01*
X82036010Y-80428900D01*
X81307990Y-80428900D01*
X80635388Y-80707501D01*
X80120601Y-81222288D01*
X79842000Y-81894890D01*
X67207600Y-81894890D01*
X67207600Y-75096000D01*
X77039360Y-75096000D01*
X77039360Y-76796000D01*
X77088643Y-77043765D01*
X77228991Y-77253809D01*
X77439035Y-77394157D01*
X77686800Y-77443440D01*
X79386800Y-77443440D01*
X79634565Y-77394157D01*
X79844609Y-77253809D01*
X79984957Y-77043765D01*
X80005539Y-76940292D01*
X80309876Y-77217645D01*
X80719910Y-77387476D01*
X80949800Y-77266155D01*
X80949800Y-76073000D01*
X80929800Y-76073000D01*
X80929800Y-75819000D01*
X80949800Y-75819000D01*
X80949800Y-74625845D01*
X81203800Y-74625845D01*
X81203800Y-75819000D01*
X81223800Y-75819000D01*
X81223800Y-76073000D01*
X81203800Y-76073000D01*
X81203800Y-77266155D01*
X81433690Y-77387476D01*
X81843724Y-77217645D01*
X82271983Y-76827358D01*
X82332957Y-76697522D01*
X82546175Y-77016625D01*
X82681800Y-77107247D01*
X82681801Y-80171910D01*
X82663483Y-80264000D01*
X82736050Y-80628818D01*
X82890541Y-80860030D01*
X82942704Y-80938097D01*
X83020770Y-80990259D01*
X84439941Y-82409431D01*
X84492103Y-82487497D01*
X84801381Y-82694150D01*
X85074114Y-82748400D01*
X85074118Y-82748400D01*
X85166199Y-82766716D01*
X85258280Y-82748400D01*
X107504838Y-82748400D01*
X107465320Y-82764769D01*
X107174169Y-83055920D01*
X107016600Y-83436326D01*
X107016600Y-83848074D01*
X107116601Y-84089498D01*
X107116600Y-102431910D01*
X102527972Y-107020539D01*
X102527969Y-107020541D01*
X97936971Y-111611540D01*
X97858905Y-111663702D01*
X97806743Y-111741768D01*
X97806742Y-111741769D01*
X97652251Y-111972981D01*
X97607400Y-112198462D01*
X97607400Y-111740889D01*
X105345631Y-104002659D01*
X105423697Y-103950497D01*
X105630350Y-103641219D01*
X105684600Y-103368486D01*
X105684600Y-103368485D01*
X105702917Y-103276400D01*
X105684600Y-103184314D01*
X105684600Y-84241896D01*
X105784600Y-84000474D01*
X105784600Y-83588726D01*
X105627031Y-83208320D01*
X105335880Y-82917169D01*
X104955474Y-82759600D01*
X104543726Y-82759600D01*
X104163320Y-82917169D01*
X103872169Y-83208320D01*
X103714600Y-83588726D01*
X103714600Y-84000474D01*
X103814601Y-84241898D01*
X103814600Y-102889110D01*
X96076370Y-110627341D01*
X95998304Y-110679503D01*
X95946142Y-110757569D01*
X95946141Y-110757570D01*
X95791650Y-110988782D01*
X95719083Y-111353600D01*
X95737401Y-111445691D01*
X95737400Y-126638110D01*
X94735711Y-127639800D01*
X92687112Y-127639800D01*
X92620577Y-127540223D01*
X92268242Y-127304800D01*
X92620577Y-127069377D01*
X92937740Y-126594709D01*
X93049113Y-126034800D01*
X92937740Y-125474891D01*
X92620577Y-125000223D01*
X92264501Y-124762301D01*
X92690500Y-124419696D01*
X92960367Y-123926619D01*
X92977904Y-123843839D01*
X92855915Y-123621800D01*
X91313000Y-123621800D01*
X91313000Y-123641800D01*
X91059000Y-123641800D01*
X91059000Y-123621800D01*
X89516085Y-123621800D01*
X89394096Y-123843839D01*
X89411633Y-123926619D01*
X89681500Y-124419696D01*
X90107499Y-124762301D01*
X89751423Y-125000223D01*
X89434260Y-125474891D01*
X89322887Y-126034800D01*
X89434260Y-126594709D01*
X89751423Y-127069377D01*
X90103758Y-127304800D01*
X89751423Y-127540223D01*
X89434260Y-128014891D01*
X89322887Y-128574800D01*
X89434260Y-129134709D01*
X89751423Y-129609377D01*
X89872106Y-129690015D01*
X89738235Y-129716643D01*
X89528191Y-129856991D01*
X89387843Y-130067035D01*
X89338560Y-130314800D01*
X89338560Y-131914800D01*
X89387843Y-132162565D01*
X89528191Y-132372609D01*
X89738235Y-132512957D01*
X89986000Y-132562240D01*
X92386000Y-132562240D01*
X92633765Y-132512957D01*
X92843809Y-132372609D01*
X92984157Y-132162565D01*
X93033440Y-131914800D01*
X93033440Y-130314800D01*
X92984157Y-130067035D01*
X92843809Y-129856991D01*
X92633765Y-129716643D01*
X92600368Y-129710000D01*
X107320160Y-129710000D01*
X107320160Y-131910000D01*
X107369443Y-132157765D01*
X107509791Y-132367809D01*
X107719835Y-132508157D01*
X107967600Y-132557440D01*
X110167600Y-132557440D01*
X110415365Y-132508157D01*
X110625409Y-132367809D01*
X110765757Y-132157765D01*
X110815040Y-131910000D01*
X110815040Y-129710000D01*
X110765757Y-129462235D01*
X110625409Y-129252191D01*
X110415365Y-129111843D01*
X110167600Y-129062560D01*
X107967600Y-129062560D01*
X107719835Y-129111843D01*
X107509791Y-129252191D01*
X107369443Y-129462235D01*
X107320160Y-129710000D01*
X92600368Y-129710000D01*
X92499894Y-129690015D01*
X92620577Y-129609377D01*
X92687112Y-129509800D01*
X95030914Y-129509800D01*
X95123000Y-129528117D01*
X95215086Y-129509800D01*
X95487819Y-129455550D01*
X95797097Y-129248897D01*
X95849261Y-129170828D01*
X97268431Y-127751659D01*
X97346497Y-127699497D01*
X97553150Y-127390219D01*
X97607400Y-127117486D01*
X97607400Y-127117482D01*
X97625716Y-127025401D01*
X97607400Y-126933320D01*
X97607400Y-123586123D01*
X107378417Y-123586123D01*
X107658588Y-124202392D01*
X108153268Y-124664534D01*
X108671478Y-124879175D01*
X108940600Y-124761125D01*
X108940600Y-123317000D01*
X109194600Y-123317000D01*
X109194600Y-124761125D01*
X109463722Y-124879175D01*
X109981932Y-124664534D01*
X110476612Y-124202392D01*
X110756783Y-123586123D01*
X110639204Y-123317000D01*
X109194600Y-123317000D01*
X108940600Y-123317000D01*
X107495996Y-123317000D01*
X107378417Y-123586123D01*
X97607400Y-123586123D01*
X97607400Y-122793877D01*
X107378417Y-122793877D01*
X107495996Y-123063000D01*
X108940600Y-123063000D01*
X108940600Y-121618875D01*
X109194600Y-121618875D01*
X109194600Y-123063000D01*
X110639204Y-123063000D01*
X110756783Y-122793877D01*
X110476612Y-122177608D01*
X109981932Y-121715466D01*
X109463722Y-121500825D01*
X109194600Y-121618875D01*
X108940600Y-121618875D01*
X108671478Y-121500825D01*
X108153268Y-121715466D01*
X107658588Y-122177608D01*
X107378417Y-122793877D01*
X97607400Y-122793877D01*
X97607400Y-120973538D01*
X97652251Y-121199019D01*
X97858904Y-121508298D01*
X97936973Y-121560462D01*
X97955569Y-121579058D01*
X98055569Y-121820480D01*
X98346720Y-122111631D01*
X98727126Y-122269200D01*
X99138874Y-122269200D01*
X99519280Y-122111631D01*
X99810431Y-121820480D01*
X99968000Y-121440074D01*
X99968000Y-121028326D01*
X99810431Y-120647920D01*
X99519280Y-120356769D01*
X99468001Y-120335529D01*
X99468001Y-112725088D01*
X103850259Y-108342831D01*
X103850261Y-108342828D01*
X108051600Y-104141489D01*
X121117540Y-117207430D01*
X121169703Y-117285497D01*
X121478981Y-117492150D01*
X121751714Y-117546400D01*
X121751717Y-117546400D01*
X121843799Y-117564716D01*
X121935881Y-117546400D01*
X147389911Y-117546400D01*
X149099095Y-119255584D01*
X148936473Y-119498964D01*
X148868160Y-119842399D01*
X148868160Y-120492401D01*
X148936473Y-120835836D01*
X149131014Y-121126986D01*
X149228913Y-121192400D01*
X149131014Y-121257814D01*
X148936473Y-121548964D01*
X148868160Y-121892399D01*
X148868160Y-122542401D01*
X148936473Y-122885836D01*
X149131014Y-123176986D01*
X149422164Y-123371527D01*
X149765599Y-123439840D01*
X150114742Y-123439840D01*
X150164875Y-123514869D01*
X150242941Y-123567031D01*
X150474153Y-123721522D01*
X150675638Y-123761600D01*
X150156867Y-123761600D01*
X149738291Y-123844860D01*
X149263623Y-124162023D01*
X148946460Y-124636691D01*
X148835087Y-125196600D01*
X148946460Y-125756509D01*
X149263623Y-126231177D01*
X149615958Y-126466600D01*
X149263623Y-126702023D01*
X148946460Y-127176691D01*
X148835087Y-127736600D01*
X148946460Y-128296509D01*
X149263623Y-128771177D01*
X149615958Y-129006600D01*
X149263623Y-129242023D01*
X148946460Y-129716691D01*
X148835087Y-130276600D01*
X148946460Y-130836509D01*
X149263623Y-131311177D01*
X149615958Y-131546600D01*
X149263623Y-131782023D01*
X148946460Y-132256691D01*
X148835087Y-132816600D01*
X148946460Y-133376509D01*
X149263623Y-133851177D01*
X149738291Y-134168340D01*
X150156867Y-134251600D01*
X151239533Y-134251600D01*
X151658109Y-134168340D01*
X152132777Y-133851177D01*
X152449940Y-133376509D01*
X152561313Y-132816600D01*
X152449940Y-132256691D01*
X152132777Y-131782023D01*
X151780442Y-131546600D01*
X152132777Y-131311177D01*
X152449940Y-130836509D01*
X152561313Y-130276600D01*
X152449940Y-129716691D01*
X152132777Y-129242023D01*
X151780442Y-129006600D01*
X152132777Y-128771177D01*
X152449940Y-128296509D01*
X152561313Y-127736600D01*
X152449940Y-127176691D01*
X152132777Y-126702023D01*
X151780442Y-126466600D01*
X152132777Y-126231177D01*
X152449940Y-125756509D01*
X152481001Y-125600356D01*
X152481001Y-126031510D01*
X152462683Y-126123600D01*
X152535250Y-126488418D01*
X152689741Y-126719630D01*
X152741904Y-126797697D01*
X152819970Y-126849859D01*
X153820140Y-127850030D01*
X153872303Y-127928097D01*
X153950369Y-127980259D01*
X154181581Y-128134750D01*
X154213361Y-128141071D01*
X154261814Y-128213586D01*
X154552964Y-128408127D01*
X154896399Y-128476440D01*
X155253294Y-128476440D01*
X155464181Y-128617350D01*
X155736914Y-128671600D01*
X155736918Y-128671600D01*
X155828999Y-128689916D01*
X155921080Y-128671600D01*
X156817088Y-128671600D01*
X156883623Y-128771177D01*
X157235958Y-129006600D01*
X156883623Y-129242023D01*
X156566460Y-129716691D01*
X156455087Y-130276600D01*
X156566460Y-130836509D01*
X156883623Y-131311177D01*
X157004306Y-131391815D01*
X156870435Y-131418443D01*
X156660391Y-131558791D01*
X156520043Y-131768835D01*
X156470760Y-132016600D01*
X156470760Y-133616600D01*
X156520043Y-133864365D01*
X156660391Y-134074409D01*
X156870435Y-134214757D01*
X157118200Y-134264040D01*
X159518200Y-134264040D01*
X159765965Y-134214757D01*
X159976009Y-134074409D01*
X160116357Y-133864365D01*
X160165640Y-133616600D01*
X160165640Y-132016600D01*
X160116357Y-131768835D01*
X159976009Y-131558791D01*
X159765965Y-131418443D01*
X159632094Y-131391815D01*
X159752777Y-131311177D01*
X160069940Y-130836509D01*
X160181313Y-130276600D01*
X160069940Y-129716691D01*
X159752777Y-129242023D01*
X159400442Y-129006600D01*
X159752777Y-128771177D01*
X160069940Y-128296509D01*
X160181313Y-127736600D01*
X160069940Y-127176691D01*
X159752777Y-126702023D01*
X159396701Y-126464101D01*
X159822700Y-126121496D01*
X160092567Y-125628419D01*
X160110104Y-125545639D01*
X159988115Y-125323600D01*
X158445200Y-125323600D01*
X158445200Y-125343600D01*
X158191200Y-125343600D01*
X158191200Y-125323600D01*
X156648285Y-125323600D01*
X156601112Y-125409462D01*
X156522650Y-125331000D01*
X155473400Y-125331000D01*
X155473400Y-125351000D01*
X155219400Y-125351000D01*
X155219400Y-125331000D01*
X155199400Y-125331000D01*
X155199400Y-125077000D01*
X155219400Y-125077000D01*
X155219400Y-124152750D01*
X155473400Y-124152750D01*
X155473400Y-125077000D01*
X156522650Y-125077000D01*
X156606360Y-124993290D01*
X156648285Y-125069600D01*
X158191200Y-125069600D01*
X158191200Y-123761600D01*
X158445200Y-123761600D01*
X158445200Y-125069600D01*
X159988115Y-125069600D01*
X160110104Y-124847561D01*
X160092567Y-124764781D01*
X159822700Y-124271704D01*
X159384683Y-123919434D01*
X158845200Y-123761600D01*
X158445200Y-123761600D01*
X158191200Y-123761600D01*
X157791200Y-123761600D01*
X157251717Y-123919434D01*
X156813700Y-124271704D01*
X156681400Y-124513431D01*
X156681400Y-124502691D01*
X156584727Y-124269302D01*
X156406099Y-124090673D01*
X156172710Y-123994000D01*
X155632150Y-123994000D01*
X155473400Y-124152750D01*
X155219400Y-124152750D01*
X155060650Y-123994000D01*
X154520090Y-123994000D01*
X154351000Y-124064039D01*
X154351000Y-123536081D01*
X154369316Y-123443999D01*
X154351000Y-123351915D01*
X154351000Y-123351914D01*
X154296750Y-123079181D01*
X154090097Y-122769903D01*
X154012031Y-122717741D01*
X153539033Y-122244744D01*
X153486869Y-122166675D01*
X153177591Y-121960022D01*
X152904858Y-121905772D01*
X152812772Y-121887455D01*
X152720686Y-121905772D01*
X151563040Y-121905772D01*
X151563040Y-121892399D01*
X151494727Y-121548964D01*
X151300186Y-121257814D01*
X151202287Y-121192400D01*
X151300186Y-121126986D01*
X151494727Y-120835836D01*
X151563040Y-120492401D01*
X151563040Y-119842399D01*
X151494727Y-119498964D01*
X151300186Y-119207814D01*
X151156573Y-119111854D01*
X151168916Y-119049799D01*
X151150600Y-118957717D01*
X151150600Y-118957714D01*
X151096350Y-118684981D01*
X150889697Y-118375703D01*
X150811631Y-118323541D01*
X148503461Y-116015372D01*
X148451297Y-115937303D01*
X148142019Y-115730650D01*
X147869286Y-115676400D01*
X147777200Y-115658083D01*
X147685114Y-115676400D01*
X122231090Y-115676400D01*
X108986600Y-102431911D01*
X108986600Y-84089496D01*
X109086600Y-83848074D01*
X109086600Y-83436326D01*
X108929031Y-83055920D01*
X108637880Y-82764769D01*
X108598362Y-82748400D01*
X120380114Y-82748400D01*
X120472200Y-82766717D01*
X120564286Y-82748400D01*
X120837019Y-82694150D01*
X121146297Y-82487497D01*
X121198461Y-82409428D01*
X121818422Y-81789467D01*
X142842000Y-81789467D01*
X142842000Y-82728333D01*
X143201289Y-83595733D01*
X143865167Y-84259611D01*
X144732567Y-84618900D01*
X145671433Y-84618900D01*
X146538833Y-84259611D01*
X147202711Y-83595733D01*
X147562000Y-82728333D01*
X147562000Y-81789467D01*
X147202711Y-80922067D01*
X146538833Y-80258189D01*
X145671433Y-79898900D01*
X144732567Y-79898900D01*
X143865167Y-80258189D01*
X143201289Y-80922067D01*
X142842000Y-81789467D01*
X121818422Y-81789467D01*
X125671620Y-77936270D01*
X125685344Y-77939000D01*
X125977856Y-77939000D01*
X126411018Y-77852839D01*
X126902225Y-77524625D01*
X127101600Y-77226239D01*
X127300975Y-77524625D01*
X127792182Y-77852839D01*
X128225344Y-77939000D01*
X128517856Y-77939000D01*
X128951018Y-77852839D01*
X129442225Y-77524625D01*
X129641600Y-77226239D01*
X129840975Y-77524625D01*
X130332182Y-77852839D01*
X130765344Y-77939000D01*
X131057856Y-77939000D01*
X131491018Y-77852839D01*
X131982225Y-77524625D01*
X132181600Y-77226239D01*
X132380975Y-77524625D01*
X132872182Y-77852839D01*
X133305344Y-77939000D01*
X133597856Y-77939000D01*
X134031018Y-77852839D01*
X134522225Y-77524625D01*
X134721600Y-77226239D01*
X134920975Y-77524625D01*
X135412182Y-77852839D01*
X135845344Y-77939000D01*
X136137856Y-77939000D01*
X136571018Y-77852839D01*
X137062225Y-77524625D01*
X137261600Y-77226239D01*
X137460975Y-77524625D01*
X137952182Y-77852839D01*
X138385344Y-77939000D01*
X138677856Y-77939000D01*
X139111018Y-77852839D01*
X139602225Y-77524625D01*
X139801600Y-77226239D01*
X140000975Y-77524625D01*
X140492182Y-77852839D01*
X140925344Y-77939000D01*
X141217856Y-77939000D01*
X141651018Y-77852839D01*
X142142225Y-77524625D01*
X142341600Y-77226239D01*
X142540975Y-77524625D01*
X143032182Y-77852839D01*
X143465344Y-77939000D01*
X143757856Y-77939000D01*
X144191018Y-77852839D01*
X144682225Y-77524625D01*
X144881600Y-77226239D01*
X145080975Y-77524625D01*
X145572182Y-77852839D01*
X146005344Y-77939000D01*
X146297856Y-77939000D01*
X146731018Y-77852839D01*
X147222225Y-77524625D01*
X147421600Y-77226239D01*
X147620975Y-77524625D01*
X148112182Y-77852839D01*
X148545344Y-77939000D01*
X148837856Y-77939000D01*
X149271018Y-77852839D01*
X149762225Y-77524625D01*
X149961600Y-77226239D01*
X150160975Y-77524625D01*
X150652182Y-77852839D01*
X151085344Y-77939000D01*
X151377856Y-77939000D01*
X151811018Y-77852839D01*
X152302225Y-77524625D01*
X152501600Y-77226239D01*
X152700975Y-77524625D01*
X153192182Y-77852839D01*
X153625344Y-77939000D01*
X153917856Y-77939000D01*
X154351018Y-77852839D01*
X154842225Y-77524625D01*
X155041600Y-77226239D01*
X155240975Y-77524625D01*
X155732182Y-77852839D01*
X156165344Y-77939000D01*
X156457856Y-77939000D01*
X156891018Y-77852839D01*
X157382225Y-77524625D01*
X157710439Y-77033418D01*
X157825692Y-76454000D01*
X157710439Y-75874582D01*
X157382225Y-75383375D01*
X157083839Y-75184000D01*
X157382225Y-74984625D01*
X157710439Y-74493418D01*
X157825692Y-73914000D01*
X157710439Y-73334582D01*
X157382225Y-72843375D01*
X156891018Y-72515161D01*
X156457856Y-72429000D01*
X156165344Y-72429000D01*
X155732182Y-72515161D01*
X155240975Y-72843375D01*
X155041600Y-73141761D01*
X154842225Y-72843375D01*
X154351018Y-72515161D01*
X153917856Y-72429000D01*
X153625344Y-72429000D01*
X153192182Y-72515161D01*
X152700975Y-72843375D01*
X152501600Y-73141761D01*
X152302225Y-72843375D01*
X151811018Y-72515161D01*
X151377856Y-72429000D01*
X151085344Y-72429000D01*
X150652182Y-72515161D01*
X150160975Y-72843375D01*
X149961600Y-73141761D01*
X149762225Y-72843375D01*
X149271018Y-72515161D01*
X148837856Y-72429000D01*
X148545344Y-72429000D01*
X148112182Y-72515161D01*
X147620975Y-72843375D01*
X147421600Y-73141761D01*
X147222225Y-72843375D01*
X146731018Y-72515161D01*
X146297856Y-72429000D01*
X146005344Y-72429000D01*
X145572182Y-72515161D01*
X145080975Y-72843375D01*
X144881600Y-73141761D01*
X144682225Y-72843375D01*
X144191018Y-72515161D01*
X143757856Y-72429000D01*
X143465344Y-72429000D01*
X143032182Y-72515161D01*
X142540975Y-72843375D01*
X142341600Y-73141761D01*
X142142225Y-72843375D01*
X141651018Y-72515161D01*
X141217856Y-72429000D01*
X140925344Y-72429000D01*
X140492182Y-72515161D01*
X140000975Y-72843375D01*
X139801600Y-73141761D01*
X139602225Y-72843375D01*
X139111018Y-72515161D01*
X138677856Y-72429000D01*
X138385344Y-72429000D01*
X137952182Y-72515161D01*
X137460975Y-72843375D01*
X137261600Y-73141761D01*
X137062225Y-72843375D01*
X136571018Y-72515161D01*
X136137856Y-72429000D01*
X135845344Y-72429000D01*
X135412182Y-72515161D01*
X134920975Y-72843375D01*
X134721600Y-73141761D01*
X134522225Y-72843375D01*
X134031018Y-72515161D01*
X133597856Y-72429000D01*
X133305344Y-72429000D01*
X132872182Y-72515161D01*
X132380975Y-72843375D01*
X132167757Y-73162478D01*
X132106783Y-73032642D01*
X131678524Y-72642355D01*
X131268490Y-72472524D01*
X131038600Y-72593845D01*
X131038600Y-73787000D01*
X131058600Y-73787000D01*
X131058600Y-74041000D01*
X131038600Y-74041000D01*
X131038600Y-74061000D01*
X130784600Y-74061000D01*
X130784600Y-74041000D01*
X130764600Y-74041000D01*
X130764600Y-73787000D01*
X130784600Y-73787000D01*
X130784600Y-72593845D01*
X130554710Y-72472524D01*
X130144676Y-72642355D01*
X129716417Y-73032642D01*
X129655443Y-73162478D01*
X129442225Y-72843375D01*
X128951018Y-72515161D01*
X128517856Y-72429000D01*
X128225344Y-72429000D01*
X127792182Y-72515161D01*
X127300975Y-72843375D01*
X127101600Y-73141761D01*
X126902225Y-72843375D01*
X126411018Y-72515161D01*
X125977856Y-72429000D01*
X125685344Y-72429000D01*
X125252182Y-72515161D01*
X124760975Y-72843375D01*
X124547757Y-73162478D01*
X124486783Y-73032642D01*
X124058524Y-72642355D01*
X123648490Y-72472524D01*
X123418600Y-72593845D01*
X123418600Y-73787000D01*
X123438600Y-73787000D01*
X123438600Y-74041000D01*
X123418600Y-74041000D01*
X123418600Y-74061000D01*
X123164600Y-74061000D01*
X123164600Y-74041000D01*
X123144600Y-74041000D01*
X123144600Y-73787000D01*
X123164600Y-73787000D01*
X123164600Y-72593845D01*
X122934710Y-72472524D01*
X122524676Y-72642355D01*
X122096417Y-73032642D01*
X122035443Y-73162478D01*
X121822225Y-72843375D01*
X121686600Y-72752753D01*
X121686600Y-69431800D01*
X126874160Y-69431800D01*
X126874160Y-71131800D01*
X126923443Y-71379565D01*
X127063791Y-71589609D01*
X127273835Y-71729957D01*
X127521600Y-71779240D01*
X129221600Y-71779240D01*
X129469365Y-71729957D01*
X129679409Y-71589609D01*
X129819757Y-71379565D01*
X129840339Y-71276092D01*
X130144676Y-71553445D01*
X130554710Y-71723276D01*
X130784600Y-71601955D01*
X130784600Y-70408800D01*
X131038600Y-70408800D01*
X131038600Y-71601955D01*
X131268490Y-71723276D01*
X131678524Y-71553445D01*
X132106783Y-71163158D01*
X132353086Y-70638692D01*
X132232419Y-70408800D01*
X131038600Y-70408800D01*
X130784600Y-70408800D01*
X130764600Y-70408800D01*
X130764600Y-70154800D01*
X130784600Y-70154800D01*
X130784600Y-68961645D01*
X131038600Y-68961645D01*
X131038600Y-70154800D01*
X132232419Y-70154800D01*
X132353086Y-69924908D01*
X132121510Y-69431800D01*
X134494160Y-69431800D01*
X134494160Y-71131800D01*
X134543443Y-71379565D01*
X134683791Y-71589609D01*
X134893835Y-71729957D01*
X135141600Y-71779240D01*
X136841600Y-71779240D01*
X137089365Y-71729957D01*
X137299409Y-71589609D01*
X137439757Y-71379565D01*
X137460339Y-71276092D01*
X137764676Y-71553445D01*
X138174710Y-71723276D01*
X138404600Y-71601955D01*
X138404600Y-70408800D01*
X138658600Y-70408800D01*
X138658600Y-71601955D01*
X138888490Y-71723276D01*
X139298524Y-71553445D01*
X139726783Y-71163158D01*
X139973086Y-70638692D01*
X139852419Y-70408800D01*
X138658600Y-70408800D01*
X138404600Y-70408800D01*
X138384600Y-70408800D01*
X138384600Y-70154800D01*
X138404600Y-70154800D01*
X138404600Y-68961645D01*
X138658600Y-68961645D01*
X138658600Y-70154800D01*
X139852419Y-70154800D01*
X139973086Y-69924908D01*
X139726783Y-69400442D01*
X139298524Y-69010155D01*
X138888490Y-68840324D01*
X138658600Y-68961645D01*
X138404600Y-68961645D01*
X138174710Y-68840324D01*
X137764676Y-69010155D01*
X137460339Y-69287508D01*
X137439757Y-69184035D01*
X137299409Y-68973991D01*
X137089365Y-68833643D01*
X136841600Y-68784360D01*
X135141600Y-68784360D01*
X134893835Y-68833643D01*
X134683791Y-68973991D01*
X134543443Y-69184035D01*
X134494160Y-69431800D01*
X132121510Y-69431800D01*
X132106783Y-69400442D01*
X131678524Y-69010155D01*
X131268490Y-68840324D01*
X131038600Y-68961645D01*
X130784600Y-68961645D01*
X130554710Y-68840324D01*
X130144676Y-69010155D01*
X129840339Y-69287508D01*
X129819757Y-69184035D01*
X129679409Y-68973991D01*
X129469365Y-68833643D01*
X129221600Y-68784360D01*
X127521600Y-68784360D01*
X127273835Y-68833643D01*
X127063791Y-68973991D01*
X126923443Y-69184035D01*
X126874160Y-69431800D01*
X121686600Y-69431800D01*
X121686600Y-68799081D01*
X121704916Y-68706999D01*
X121686600Y-68614917D01*
X121686600Y-68614914D01*
X121632350Y-68342181D01*
X121425697Y-68032903D01*
X121347631Y-67980741D01*
X120055461Y-66688572D01*
X120003297Y-66610503D01*
X119694019Y-66403850D01*
X119421286Y-66349600D01*
X119329200Y-66331283D01*
X119237114Y-66349600D01*
X106670486Y-66349600D01*
X106578400Y-66331283D01*
X106486314Y-66349600D01*
X106213581Y-66403850D01*
X105904303Y-66610503D01*
X105852141Y-66688569D01*
X104128172Y-68412539D01*
X104050103Y-68464703D01*
X103845175Y-68771400D01*
X103843450Y-68773982D01*
X103770883Y-69138800D01*
X103789200Y-69230886D01*
X103789201Y-77657702D01*
X103689200Y-77899126D01*
X103689200Y-78310874D01*
X103846769Y-78691280D01*
X104137920Y-78982431D01*
X104518326Y-79140000D01*
X104930074Y-79140000D01*
X105310480Y-78982431D01*
X105601631Y-78691280D01*
X105759200Y-78310874D01*
X105759200Y-77899126D01*
X105659200Y-77657704D01*
X105659200Y-70542150D01*
X111646600Y-70542150D01*
X111646600Y-71232709D01*
X111743273Y-71466098D01*
X111921901Y-71644727D01*
X112155290Y-71741400D01*
X112845850Y-71741400D01*
X113004600Y-71582650D01*
X113004600Y-70383400D01*
X111805350Y-70383400D01*
X111646600Y-70542150D01*
X105659200Y-70542150D01*
X105659200Y-69526089D01*
X105905198Y-69280091D01*
X111646600Y-69280091D01*
X111646600Y-69970650D01*
X111805350Y-70129400D01*
X113004600Y-70129400D01*
X113004600Y-68930150D01*
X113258600Y-68930150D01*
X113258600Y-70129400D01*
X113278600Y-70129400D01*
X113278600Y-70383400D01*
X113258600Y-70383400D01*
X113258600Y-71582650D01*
X113417350Y-71741400D01*
X114107910Y-71741400D01*
X114341299Y-71644727D01*
X114519927Y-71466098D01*
X114586504Y-71305367D01*
X114600975Y-71327025D01*
X115092182Y-71655239D01*
X115525344Y-71741400D01*
X115817856Y-71741400D01*
X116251018Y-71655239D01*
X116742225Y-71327025D01*
X116941600Y-71028639D01*
X117140975Y-71327025D01*
X117632182Y-71655239D01*
X118065344Y-71741400D01*
X118357856Y-71741400D01*
X118791018Y-71655239D01*
X119282225Y-71327025D01*
X119610439Y-70835818D01*
X119725692Y-70256400D01*
X119610439Y-69676982D01*
X119282225Y-69185775D01*
X118791018Y-68857561D01*
X118357856Y-68771400D01*
X118065344Y-68771400D01*
X117632182Y-68857561D01*
X117140975Y-69185775D01*
X116941600Y-69484161D01*
X116742225Y-69185775D01*
X116251018Y-68857561D01*
X115817856Y-68771400D01*
X115525344Y-68771400D01*
X115092182Y-68857561D01*
X114600975Y-69185775D01*
X114586504Y-69207433D01*
X114519927Y-69046702D01*
X114341299Y-68868073D01*
X114107910Y-68771400D01*
X113417350Y-68771400D01*
X113258600Y-68930150D01*
X113004600Y-68930150D01*
X112845850Y-68771400D01*
X112155290Y-68771400D01*
X111921901Y-68868073D01*
X111743273Y-69046702D01*
X111646600Y-69280091D01*
X105905198Y-69280091D01*
X106965690Y-68219600D01*
X118941911Y-68219600D01*
X119816601Y-69094291D01*
X119816600Y-72752753D01*
X119680975Y-72843375D01*
X119481600Y-73141761D01*
X119282225Y-72843375D01*
X118791018Y-72515161D01*
X118357856Y-72429000D01*
X118065344Y-72429000D01*
X117632182Y-72515161D01*
X117140975Y-72843375D01*
X116941600Y-73141761D01*
X116742225Y-72843375D01*
X116251018Y-72515161D01*
X115817856Y-72429000D01*
X115525344Y-72429000D01*
X115092182Y-72515161D01*
X114600975Y-72843375D01*
X114387757Y-73162478D01*
X114326783Y-73032642D01*
X113898524Y-72642355D01*
X113488490Y-72472524D01*
X113258600Y-72593845D01*
X113258600Y-73787000D01*
X113278600Y-73787000D01*
X113278600Y-74041000D01*
X113258600Y-74041000D01*
X113258600Y-74061000D01*
X113004600Y-74061000D01*
X113004600Y-74041000D01*
X112984600Y-74041000D01*
X112984600Y-73787000D01*
X113004600Y-73787000D01*
X113004600Y-72593845D01*
X112774710Y-72472524D01*
X112364676Y-72642355D01*
X111936417Y-73032642D01*
X111875443Y-73162478D01*
X111662225Y-72843375D01*
X111171018Y-72515161D01*
X110737856Y-72429000D01*
X110445344Y-72429000D01*
X110012182Y-72515161D01*
X109520975Y-72843375D01*
X109321600Y-73141761D01*
X109122225Y-72843375D01*
X108631018Y-72515161D01*
X108197856Y-72429000D01*
X107905344Y-72429000D01*
X107472182Y-72515161D01*
X106980975Y-72843375D01*
X106652761Y-73334582D01*
X106537508Y-73914000D01*
X106652761Y-74493418D01*
X106980975Y-74984625D01*
X106999219Y-74996816D01*
X106953835Y-75005843D01*
X106743791Y-75146191D01*
X106603443Y-75356235D01*
X106554160Y-75604000D01*
X106554160Y-77304000D01*
X106603443Y-77551765D01*
X106743791Y-77761809D01*
X106953835Y-77902157D01*
X107201600Y-77951440D01*
X108901600Y-77951440D01*
X109149365Y-77902157D01*
X109359409Y-77761809D01*
X109499757Y-77551765D01*
X109508784Y-77506381D01*
X109520975Y-77524625D01*
X110012182Y-77852839D01*
X110445344Y-77939000D01*
X110737856Y-77939000D01*
X111171018Y-77852839D01*
X111662225Y-77524625D01*
X111861600Y-77226239D01*
X112060975Y-77524625D01*
X112552182Y-77852839D01*
X112985344Y-77939000D01*
X113277856Y-77939000D01*
X113711018Y-77852839D01*
X114202225Y-77524625D01*
X114401600Y-77226239D01*
X114600975Y-77524625D01*
X115092182Y-77852839D01*
X115525344Y-77939000D01*
X115817856Y-77939000D01*
X116251018Y-77852839D01*
X116742225Y-77524625D01*
X116955443Y-77205522D01*
X117016417Y-77335358D01*
X117444676Y-77725645D01*
X117854710Y-77895476D01*
X118084600Y-77774155D01*
X118084600Y-76581000D01*
X118064600Y-76581000D01*
X118064600Y-76327000D01*
X118084600Y-76327000D01*
X118084600Y-76307000D01*
X118338600Y-76307000D01*
X118338600Y-76327000D01*
X118358600Y-76327000D01*
X118358600Y-76581000D01*
X118338600Y-76581000D01*
X118338600Y-77774155D01*
X118568490Y-77895476D01*
X118978524Y-77725645D01*
X119406783Y-77335358D01*
X119467757Y-77205522D01*
X119680975Y-77524625D01*
X120172182Y-77852839D01*
X120504392Y-77918919D01*
X119119711Y-79303600D01*
X102723890Y-79303600D01*
X101716661Y-78296372D01*
X101664497Y-78218303D01*
X101355219Y-78011650D01*
X101082486Y-77957400D01*
X100990400Y-77939083D01*
X100898314Y-77957400D01*
X96362800Y-77957400D01*
X96362800Y-77183447D01*
X96498425Y-77092825D01*
X96697800Y-76794439D01*
X96897175Y-77092825D01*
X97388382Y-77421039D01*
X97821544Y-77507200D01*
X98114056Y-77507200D01*
X98547218Y-77421039D01*
X99038425Y-77092825D01*
X99251643Y-76773722D01*
X99312617Y-76903558D01*
X99740876Y-77293845D01*
X100150910Y-77463676D01*
X100380800Y-77342355D01*
X100380800Y-76149200D01*
X100634800Y-76149200D01*
X100634800Y-77342355D01*
X100864690Y-77463676D01*
X101274724Y-77293845D01*
X101702983Y-76903558D01*
X101949286Y-76379092D01*
X101828619Y-76149200D01*
X100634800Y-76149200D01*
X100380800Y-76149200D01*
X100360800Y-76149200D01*
X100360800Y-75895200D01*
X100380800Y-75895200D01*
X100380800Y-74702045D01*
X100634800Y-74702045D01*
X100634800Y-75895200D01*
X101828619Y-75895200D01*
X101949286Y-75665308D01*
X101702983Y-75140842D01*
X101274724Y-74750555D01*
X100864690Y-74580724D01*
X100634800Y-74702045D01*
X100380800Y-74702045D01*
X100150910Y-74580724D01*
X99740876Y-74750555D01*
X99312617Y-75140842D01*
X99251643Y-75270678D01*
X99038425Y-74951575D01*
X98547218Y-74623361D01*
X98114056Y-74537200D01*
X97821544Y-74537200D01*
X97388382Y-74623361D01*
X96897175Y-74951575D01*
X96697800Y-75249961D01*
X96498425Y-74951575D01*
X96007218Y-74623361D01*
X95574056Y-74537200D01*
X95281544Y-74537200D01*
X94848382Y-74623361D01*
X94357175Y-74951575D01*
X94344984Y-74969819D01*
X94335957Y-74924435D01*
X94195609Y-74714391D01*
X93985565Y-74574043D01*
X93737800Y-74524760D01*
X92037800Y-74524760D01*
X91790035Y-74574043D01*
X91579991Y-74714391D01*
X91439643Y-74924435D01*
X91390360Y-75172200D01*
X91390360Y-76872200D01*
X91439643Y-77119965D01*
X91579991Y-77330009D01*
X91790035Y-77470357D01*
X91960200Y-77504205D01*
X91960200Y-77791386D01*
X91935614Y-77807814D01*
X91741073Y-78098964D01*
X91672760Y-78442399D01*
X91672760Y-79342401D01*
X91741073Y-79685836D01*
X91935614Y-79976986D01*
X92226764Y-80171527D01*
X92570199Y-80239840D01*
X93220201Y-80239840D01*
X93563636Y-80171527D01*
X93854786Y-79976986D01*
X93920200Y-79879087D01*
X93985614Y-79976986D01*
X94276764Y-80171527D01*
X94620199Y-80239840D01*
X95270201Y-80239840D01*
X95613636Y-80171527D01*
X95904786Y-79976986D01*
X96004737Y-79827400D01*
X100603111Y-79827400D01*
X101610341Y-80834631D01*
X101639586Y-80878400D01*
X85553490Y-80878400D01*
X84551800Y-79876711D01*
X84551800Y-77107247D01*
X84687425Y-77016625D01*
X84886800Y-76718239D01*
X85086175Y-77016625D01*
X85577382Y-77344839D01*
X86010544Y-77431000D01*
X86303056Y-77431000D01*
X86736218Y-77344839D01*
X87227425Y-77016625D01*
X87555639Y-76525418D01*
X87670892Y-75946000D01*
X87555639Y-75366582D01*
X87227425Y-74875375D01*
X86736218Y-74547161D01*
X86303056Y-74461000D01*
X86010544Y-74461000D01*
X85577382Y-74547161D01*
X85086175Y-74875375D01*
X84886800Y-75173761D01*
X84687425Y-74875375D01*
X84196218Y-74547161D01*
X83763056Y-74461000D01*
X83470544Y-74461000D01*
X83037382Y-74547161D01*
X82546175Y-74875375D01*
X82332957Y-75194478D01*
X82271983Y-75064642D01*
X81843724Y-74674355D01*
X81433690Y-74504524D01*
X81203800Y-74625845D01*
X80949800Y-74625845D01*
X80719910Y-74504524D01*
X80309876Y-74674355D01*
X80005539Y-74951708D01*
X79984957Y-74848235D01*
X79844609Y-74638191D01*
X79634565Y-74497843D01*
X79386800Y-74448560D01*
X77686800Y-74448560D01*
X77439035Y-74497843D01*
X77228991Y-74638191D01*
X77088643Y-74848235D01*
X77039360Y-75096000D01*
X67207600Y-75096000D01*
X67207600Y-66670896D01*
X67269930Y-66215873D01*
X67433612Y-65837627D01*
X67692982Y-65517331D01*
X68028930Y-65278585D01*
X68426995Y-65135273D01*
X68768304Y-65099400D01*
X161065504Y-65099400D01*
X161520527Y-65161730D01*
X161520527Y-65161730D01*
G37*
X161520527Y-65161730D02*
X161898773Y-65325412D01*
X162219069Y-65584782D01*
X162457815Y-65920730D01*
X162601127Y-66318795D01*
X162637000Y-66660104D01*
X162637001Y-143056897D01*
X162574670Y-143511926D01*
X162410988Y-143890173D01*
X162151617Y-144210470D01*
X161815671Y-144449215D01*
X161417605Y-144592527D01*
X161076297Y-144628400D01*
X68779095Y-144628400D01*
X68324074Y-144566070D01*
X67945827Y-144402388D01*
X67625530Y-144143017D01*
X67386785Y-143807071D01*
X67243473Y-143409005D01*
X67207600Y-143067697D01*
X67207600Y-135983900D01*
X69676572Y-135983900D01*
X69676572Y-141303900D01*
X121839429Y-141303900D01*
X121839429Y-140436600D01*
X123707908Y-140436600D01*
X123823161Y-141016018D01*
X124151375Y-141507225D01*
X124642582Y-141835439D01*
X125075744Y-141921600D01*
X125368256Y-141921600D01*
X125801418Y-141835439D01*
X126292625Y-141507225D01*
X126492000Y-141208839D01*
X126691375Y-141507225D01*
X127182582Y-141835439D01*
X127615744Y-141921600D01*
X127908256Y-141921600D01*
X128341418Y-141835439D01*
X128832625Y-141507225D01*
X129045843Y-141188122D01*
X129106817Y-141317958D01*
X129535076Y-141708245D01*
X129945110Y-141878076D01*
X130175000Y-141756755D01*
X130175000Y-140563600D01*
X130429000Y-140563600D01*
X130429000Y-141756755D01*
X130658890Y-141878076D01*
X131068924Y-141708245D01*
X131366864Y-141436722D01*
X131453673Y-141646298D01*
X131632301Y-141824927D01*
X131865690Y-141921600D01*
X132556250Y-141921600D01*
X132715000Y-141762850D01*
X132715000Y-140563600D01*
X132969000Y-140563600D01*
X132969000Y-141762850D01*
X133127750Y-141921600D01*
X133818310Y-141921600D01*
X134051699Y-141824927D01*
X134230327Y-141646298D01*
X134327000Y-141412909D01*
X134327000Y-140768092D01*
X139604714Y-140768092D01*
X139851017Y-141292558D01*
X140279276Y-141682845D01*
X140689310Y-141852676D01*
X140919200Y-141731355D01*
X140919200Y-140538200D01*
X139725381Y-140538200D01*
X139604714Y-140768092D01*
X134327000Y-140768092D01*
X134327000Y-140722350D01*
X134168250Y-140563600D01*
X132969000Y-140563600D01*
X132715000Y-140563600D01*
X130429000Y-140563600D01*
X130175000Y-140563600D01*
X130155000Y-140563600D01*
X130155000Y-140309600D01*
X130175000Y-140309600D01*
X130175000Y-139116445D01*
X130429000Y-139116445D01*
X130429000Y-140309600D01*
X132715000Y-140309600D01*
X132715000Y-139110350D01*
X132969000Y-139110350D01*
X132969000Y-140309600D01*
X134168250Y-140309600D01*
X134327000Y-140150850D01*
X134327000Y-140054308D01*
X139604714Y-140054308D01*
X139725381Y-140284200D01*
X140919200Y-140284200D01*
X140919200Y-139091045D01*
X141173200Y-139091045D01*
X141173200Y-140284200D01*
X141193200Y-140284200D01*
X141193200Y-140538200D01*
X141173200Y-140538200D01*
X141173200Y-141731355D01*
X141403090Y-141852676D01*
X141813124Y-141682845D01*
X142117461Y-141405492D01*
X142138043Y-141508965D01*
X142278391Y-141719009D01*
X142488435Y-141859357D01*
X142736200Y-141908640D01*
X144436200Y-141908640D01*
X144683965Y-141859357D01*
X144894009Y-141719009D01*
X145034357Y-141508965D01*
X145083640Y-141261200D01*
X145083640Y-139561200D01*
X145034357Y-139313435D01*
X144894009Y-139103391D01*
X144683965Y-138963043D01*
X144436200Y-138913760D01*
X142736200Y-138913760D01*
X142488435Y-138963043D01*
X142278391Y-139103391D01*
X142138043Y-139313435D01*
X142117461Y-139416908D01*
X141813124Y-139139555D01*
X141403090Y-138969724D01*
X141173200Y-139091045D01*
X140919200Y-139091045D01*
X140689310Y-138969724D01*
X140279276Y-139139555D01*
X139851017Y-139529842D01*
X139604714Y-140054308D01*
X134327000Y-140054308D01*
X134327000Y-139460291D01*
X134230327Y-139226902D01*
X134051699Y-139048273D01*
X133818310Y-138951600D01*
X133127750Y-138951600D01*
X132969000Y-139110350D01*
X132715000Y-139110350D01*
X132556250Y-138951600D01*
X131865690Y-138951600D01*
X131632301Y-139048273D01*
X131453673Y-139226902D01*
X131366864Y-139436478D01*
X131068924Y-139164955D01*
X130658890Y-138995124D01*
X130429000Y-139116445D01*
X130175000Y-139116445D01*
X129945110Y-138995124D01*
X129535076Y-139164955D01*
X129106817Y-139555242D01*
X129045843Y-139685078D01*
X128832625Y-139365975D01*
X128341418Y-139037761D01*
X127908256Y-138951600D01*
X127615744Y-138951600D01*
X127182582Y-139037761D01*
X126691375Y-139365975D01*
X126492000Y-139664361D01*
X126292625Y-139365975D01*
X125801418Y-139037761D01*
X125368256Y-138951600D01*
X125075744Y-138951600D01*
X124642582Y-139037761D01*
X124151375Y-139365975D01*
X123823161Y-139857182D01*
X123707908Y-140436600D01*
X121839429Y-140436600D01*
X121839429Y-135983900D01*
X69676572Y-135983900D01*
X67207600Y-135983900D01*
X67207600Y-121716800D01*
X68818688Y-121716800D01*
X68930061Y-122276709D01*
X69167165Y-122631560D01*
X71453563Y-124917959D01*
X71533623Y-125037777D01*
X72008291Y-125354940D01*
X72426867Y-125438200D01*
X72426870Y-125438200D01*
X72568200Y-125466312D01*
X72709530Y-125438200D01*
X73616750Y-125438200D01*
X73631991Y-125461009D01*
X73842035Y-125601357D01*
X74089800Y-125650640D01*
X75589800Y-125650640D01*
X75704801Y-125627765D01*
X75704801Y-126008803D01*
X73481841Y-128231764D01*
X73362023Y-128311824D01*
X73044860Y-128786492D01*
X72961600Y-129205068D01*
X72961600Y-129205072D01*
X72933488Y-129346400D01*
X72961600Y-129487729D01*
X72961601Y-131826143D01*
X72948443Y-131845835D01*
X72899160Y-132093600D01*
X72899160Y-133793600D01*
X72948443Y-134041365D01*
X73088791Y-134251409D01*
X73298835Y-134391757D01*
X73546600Y-134441040D01*
X75246600Y-134441040D01*
X75494365Y-134391757D01*
X75704409Y-134251409D01*
X75844757Y-134041365D01*
X75865339Y-133937892D01*
X76169676Y-134215245D01*
X76579710Y-134385076D01*
X76809600Y-134263755D01*
X76809600Y-133070600D01*
X77063600Y-133070600D01*
X77063600Y-134263755D01*
X77293490Y-134385076D01*
X77703524Y-134215245D01*
X78131783Y-133824958D01*
X78378086Y-133300492D01*
X78257419Y-133070600D01*
X77063600Y-133070600D01*
X76809600Y-133070600D01*
X76789600Y-133070600D01*
X76789600Y-132816600D01*
X76809600Y-132816600D01*
X76809600Y-131623445D01*
X77063600Y-131623445D01*
X77063600Y-132816600D01*
X78257419Y-132816600D01*
X78378086Y-132586708D01*
X78131783Y-132062242D01*
X77703524Y-131671955D01*
X77293490Y-131502124D01*
X77063600Y-131623445D01*
X76809600Y-131623445D01*
X76579710Y-131502124D01*
X76169676Y-131671955D01*
X75865339Y-131949308D01*
X75844757Y-131845835D01*
X75831600Y-131826144D01*
X75831600Y-129940795D01*
X78054562Y-127717835D01*
X78174377Y-127637777D01*
X78254434Y-127517963D01*
X78254436Y-127517961D01*
X78491540Y-127163109D01*
X78602913Y-126603200D01*
X78574800Y-126461867D01*
X78574800Y-125638200D01*
X79154050Y-125638200D01*
X79312800Y-125479450D01*
X79312800Y-124130200D01*
X79566800Y-124130200D01*
X79566800Y-125479450D01*
X79725550Y-125638200D01*
X80316110Y-125638200D01*
X80549499Y-125541527D01*
X80728127Y-125362898D01*
X80824800Y-125129509D01*
X80824800Y-124288950D01*
X80666050Y-124130200D01*
X79566800Y-124130200D01*
X79312800Y-124130200D01*
X79292800Y-124130200D01*
X79292800Y-123876200D01*
X79312800Y-123876200D01*
X79312800Y-122526950D01*
X79566800Y-122526950D01*
X79566800Y-123876200D01*
X80666050Y-123876200D01*
X80824800Y-123717450D01*
X80824800Y-123494800D01*
X81702887Y-123494800D01*
X81814260Y-124054709D01*
X82131423Y-124529377D01*
X82483758Y-124764800D01*
X82131423Y-125000223D01*
X81814260Y-125474891D01*
X81702887Y-126034800D01*
X81814260Y-126594709D01*
X82131423Y-127069377D01*
X82483758Y-127304800D01*
X82131423Y-127540223D01*
X81814260Y-128014891D01*
X81702887Y-128574800D01*
X81814260Y-129134709D01*
X82131423Y-129609377D01*
X82483758Y-129844800D01*
X82131423Y-130080223D01*
X81814260Y-130554891D01*
X81702887Y-131114800D01*
X81814260Y-131674709D01*
X82131423Y-132149377D01*
X82606091Y-132466540D01*
X83024667Y-132549800D01*
X84107333Y-132549800D01*
X84525909Y-132466540D01*
X85000577Y-132149377D01*
X85317740Y-131674709D01*
X85429113Y-131114800D01*
X85317740Y-130554891D01*
X85000577Y-130080223D01*
X84648242Y-129844800D01*
X85000577Y-129609377D01*
X85317740Y-129134709D01*
X85429113Y-128574800D01*
X85317740Y-128014891D01*
X85000577Y-127540223D01*
X84648242Y-127304800D01*
X85000577Y-127069377D01*
X85317740Y-126594709D01*
X85429113Y-126034800D01*
X85317740Y-125474891D01*
X85000577Y-125000223D01*
X84648242Y-124764800D01*
X85000577Y-124529377D01*
X85317740Y-124054709D01*
X85429113Y-123494800D01*
X85359685Y-123145761D01*
X89394096Y-123145761D01*
X89516085Y-123367800D01*
X91059000Y-123367800D01*
X91059000Y-122059800D01*
X91313000Y-122059800D01*
X91313000Y-123367800D01*
X92855915Y-123367800D01*
X92977904Y-123145761D01*
X92960367Y-123062981D01*
X92690500Y-122569904D01*
X92252483Y-122217634D01*
X91713000Y-122059800D01*
X91313000Y-122059800D01*
X91059000Y-122059800D01*
X90659000Y-122059800D01*
X90119517Y-122217634D01*
X89681500Y-122569904D01*
X89411633Y-123062981D01*
X89394096Y-123145761D01*
X85359685Y-123145761D01*
X85317740Y-122934891D01*
X85000577Y-122460223D01*
X84525909Y-122143060D01*
X84107333Y-122059800D01*
X83024667Y-122059800D01*
X82606091Y-122143060D01*
X82131423Y-122460223D01*
X81814260Y-122934891D01*
X81702887Y-123494800D01*
X80824800Y-123494800D01*
X80824800Y-122876891D01*
X80728127Y-122643502D01*
X80549499Y-122464873D01*
X80316110Y-122368200D01*
X79725550Y-122368200D01*
X79566800Y-122526950D01*
X79312800Y-122526950D01*
X79154050Y-122368200D01*
X78574800Y-122368200D01*
X78574800Y-119350640D01*
X79039800Y-119350640D01*
X79287565Y-119301357D01*
X79497609Y-119161009D01*
X79637957Y-118950965D01*
X79687240Y-118703200D01*
X79687240Y-116915667D01*
X87642000Y-116915667D01*
X87642000Y-117854533D01*
X88001289Y-118721933D01*
X88665167Y-119385811D01*
X89532567Y-119745100D01*
X90471433Y-119745100D01*
X91338833Y-119385811D01*
X92002711Y-118721933D01*
X92362000Y-117854533D01*
X92362000Y-116915667D01*
X92002711Y-116048267D01*
X91338833Y-115384389D01*
X90471433Y-115025100D01*
X89532567Y-115025100D01*
X88665167Y-115384389D01*
X88001289Y-116048267D01*
X87642000Y-116915667D01*
X79687240Y-116915667D01*
X79687240Y-116703200D01*
X79637957Y-116455435D01*
X79497609Y-116245391D01*
X79287565Y-116105043D01*
X79039800Y-116055760D01*
X75239800Y-116055760D01*
X74992035Y-116105043D01*
X74781991Y-116245391D01*
X74641643Y-116455435D01*
X74592360Y-116703200D01*
X74592360Y-118703200D01*
X74641643Y-118950965D01*
X74781991Y-119161009D01*
X74992035Y-119301357D01*
X75239800Y-119350640D01*
X75704801Y-119350640D01*
X75704800Y-122378635D01*
X75589800Y-122355760D01*
X74089800Y-122355760D01*
X73842035Y-122405043D01*
X73631991Y-122545391D01*
X73616750Y-122568200D01*
X73162596Y-122568200D01*
X71196560Y-120602165D01*
X70841709Y-120365061D01*
X70281800Y-120253688D01*
X69721891Y-120365061D01*
X69247223Y-120682223D01*
X68930061Y-121156891D01*
X68818688Y-121716800D01*
X67207600Y-121716800D01*
X67207600Y-103174800D01*
X68945687Y-103174800D01*
X69057060Y-103734709D01*
X69374223Y-104209377D01*
X69848891Y-104526540D01*
X70267467Y-104609800D01*
X70550133Y-104609800D01*
X70968709Y-104526540D01*
X71443377Y-104209377D01*
X71760540Y-103734709D01*
X71871913Y-103174800D01*
X71760540Y-102614891D01*
X71443377Y-102140223D01*
X70968709Y-101823060D01*
X70550133Y-101739800D01*
X70267467Y-101739800D01*
X69848891Y-101823060D01*
X69374223Y-102140223D01*
X69057060Y-102614891D01*
X68945687Y-103174800D01*
X67207600Y-103174800D01*
X67207600Y-94754800D01*
X68961360Y-94754800D01*
X68961360Y-96354800D01*
X69010643Y-96602565D01*
X69150991Y-96812609D01*
X69361035Y-96952957D01*
X69608800Y-97002240D01*
X71208800Y-97002240D01*
X71456565Y-96952957D01*
X71666609Y-96812609D01*
X71806957Y-96602565D01*
X71856240Y-96354800D01*
X71856240Y-94754800D01*
X71806957Y-94507035D01*
X71666609Y-94296991D01*
X71456565Y-94156643D01*
X71208800Y-94107360D01*
X69608800Y-94107360D01*
X69361035Y-94156643D01*
X69150991Y-94296991D01*
X69010643Y-94507035D01*
X68961360Y-94754800D01*
X67207600Y-94754800D01*
X67207600Y-81894890D01*
X79842000Y-81894890D01*
X79842000Y-82622910D01*
X80120601Y-83295512D01*
X80635388Y-83810299D01*
X81307990Y-84088900D01*
X82036010Y-84088900D01*
X82708612Y-83810299D01*
X83223399Y-83295512D01*
X83502000Y-82622910D01*
X83502000Y-81894890D01*
X83223399Y-81222288D01*
X82708612Y-80707501D01*
X82036010Y-80428900D01*
X81307990Y-80428900D01*
X80635388Y-80707501D01*
X80120601Y-81222288D01*
X79842000Y-81894890D01*
X67207600Y-81894890D01*
X67207600Y-75096000D01*
X77039360Y-75096000D01*
X77039360Y-76796000D01*
X77088643Y-77043765D01*
X77228991Y-77253809D01*
X77439035Y-77394157D01*
X77686800Y-77443440D01*
X79386800Y-77443440D01*
X79634565Y-77394157D01*
X79844609Y-77253809D01*
X79984957Y-77043765D01*
X80005539Y-76940292D01*
X80309876Y-77217645D01*
X80719910Y-77387476D01*
X80949800Y-77266155D01*
X80949800Y-76073000D01*
X80929800Y-76073000D01*
X80929800Y-75819000D01*
X80949800Y-75819000D01*
X80949800Y-74625845D01*
X81203800Y-74625845D01*
X81203800Y-75819000D01*
X81223800Y-75819000D01*
X81223800Y-76073000D01*
X81203800Y-76073000D01*
X81203800Y-77266155D01*
X81433690Y-77387476D01*
X81843724Y-77217645D01*
X82271983Y-76827358D01*
X82332957Y-76697522D01*
X82546175Y-77016625D01*
X82681800Y-77107247D01*
X82681801Y-80171910D01*
X82663483Y-80264000D01*
X82736050Y-80628818D01*
X82890541Y-80860030D01*
X82942704Y-80938097D01*
X83020770Y-80990259D01*
X84439941Y-82409431D01*
X84492103Y-82487497D01*
X84801381Y-82694150D01*
X85074114Y-82748400D01*
X85074118Y-82748400D01*
X85166199Y-82766716D01*
X85258280Y-82748400D01*
X107504838Y-82748400D01*
X107465320Y-82764769D01*
X107174169Y-83055920D01*
X107016600Y-83436326D01*
X107016600Y-83848074D01*
X107116601Y-84089498D01*
X107116600Y-102431910D01*
X102527972Y-107020539D01*
X102527969Y-107020541D01*
X97936971Y-111611540D01*
X97858905Y-111663702D01*
X97806743Y-111741768D01*
X97806742Y-111741769D01*
X97652251Y-111972981D01*
X97607400Y-112198462D01*
X97607400Y-111740889D01*
X105345631Y-104002659D01*
X105423697Y-103950497D01*
X105630350Y-103641219D01*
X105684600Y-103368486D01*
X105684600Y-103368485D01*
X105702917Y-103276400D01*
X105684600Y-103184314D01*
X105684600Y-84241896D01*
X105784600Y-84000474D01*
X105784600Y-83588726D01*
X105627031Y-83208320D01*
X105335880Y-82917169D01*
X104955474Y-82759600D01*
X104543726Y-82759600D01*
X104163320Y-82917169D01*
X103872169Y-83208320D01*
X103714600Y-83588726D01*
X103714600Y-84000474D01*
X103814601Y-84241898D01*
X103814600Y-102889110D01*
X96076370Y-110627341D01*
X95998304Y-110679503D01*
X95946142Y-110757569D01*
X95946141Y-110757570D01*
X95791650Y-110988782D01*
X95719083Y-111353600D01*
X95737401Y-111445691D01*
X95737400Y-126638110D01*
X94735711Y-127639800D01*
X92687112Y-127639800D01*
X92620577Y-127540223D01*
X92268242Y-127304800D01*
X92620577Y-127069377D01*
X92937740Y-126594709D01*
X93049113Y-126034800D01*
X92937740Y-125474891D01*
X92620577Y-125000223D01*
X92264501Y-124762301D01*
X92690500Y-124419696D01*
X92960367Y-123926619D01*
X92977904Y-123843839D01*
X92855915Y-123621800D01*
X91313000Y-123621800D01*
X91313000Y-123641800D01*
X91059000Y-123641800D01*
X91059000Y-123621800D01*
X89516085Y-123621800D01*
X89394096Y-123843839D01*
X89411633Y-123926619D01*
X89681500Y-124419696D01*
X90107499Y-124762301D01*
X89751423Y-125000223D01*
X89434260Y-125474891D01*
X89322887Y-126034800D01*
X89434260Y-126594709D01*
X89751423Y-127069377D01*
X90103758Y-127304800D01*
X89751423Y-127540223D01*
X89434260Y-128014891D01*
X89322887Y-128574800D01*
X89434260Y-129134709D01*
X89751423Y-129609377D01*
X89872106Y-129690015D01*
X89738235Y-129716643D01*
X89528191Y-129856991D01*
X89387843Y-130067035D01*
X89338560Y-130314800D01*
X89338560Y-131914800D01*
X89387843Y-132162565D01*
X89528191Y-132372609D01*
X89738235Y-132512957D01*
X89986000Y-132562240D01*
X92386000Y-132562240D01*
X92633765Y-132512957D01*
X92843809Y-132372609D01*
X92984157Y-132162565D01*
X93033440Y-131914800D01*
X93033440Y-130314800D01*
X92984157Y-130067035D01*
X92843809Y-129856991D01*
X92633765Y-129716643D01*
X92600368Y-129710000D01*
X107320160Y-129710000D01*
X107320160Y-131910000D01*
X107369443Y-132157765D01*
X107509791Y-132367809D01*
X107719835Y-132508157D01*
X107967600Y-132557440D01*
X110167600Y-132557440D01*
X110415365Y-132508157D01*
X110625409Y-132367809D01*
X110765757Y-132157765D01*
X110815040Y-131910000D01*
X110815040Y-129710000D01*
X110765757Y-129462235D01*
X110625409Y-129252191D01*
X110415365Y-129111843D01*
X110167600Y-129062560D01*
X107967600Y-129062560D01*
X107719835Y-129111843D01*
X107509791Y-129252191D01*
X107369443Y-129462235D01*
X107320160Y-129710000D01*
X92600368Y-129710000D01*
X92499894Y-129690015D01*
X92620577Y-129609377D01*
X92687112Y-129509800D01*
X95030914Y-129509800D01*
X95123000Y-129528117D01*
X95215086Y-129509800D01*
X95487819Y-129455550D01*
X95797097Y-129248897D01*
X95849261Y-129170828D01*
X97268431Y-127751659D01*
X97346497Y-127699497D01*
X97553150Y-127390219D01*
X97607400Y-127117486D01*
X97607400Y-127117482D01*
X97625716Y-127025401D01*
X97607400Y-126933320D01*
X97607400Y-123586123D01*
X107378417Y-123586123D01*
X107658588Y-124202392D01*
X108153268Y-124664534D01*
X108671478Y-124879175D01*
X108940600Y-124761125D01*
X108940600Y-123317000D01*
X109194600Y-123317000D01*
X109194600Y-124761125D01*
X109463722Y-124879175D01*
X109981932Y-124664534D01*
X110476612Y-124202392D01*
X110756783Y-123586123D01*
X110639204Y-123317000D01*
X109194600Y-123317000D01*
X108940600Y-123317000D01*
X107495996Y-123317000D01*
X107378417Y-123586123D01*
X97607400Y-123586123D01*
X97607400Y-122793877D01*
X107378417Y-122793877D01*
X107495996Y-123063000D01*
X108940600Y-123063000D01*
X108940600Y-121618875D01*
X109194600Y-121618875D01*
X109194600Y-123063000D01*
X110639204Y-123063000D01*
X110756783Y-122793877D01*
X110476612Y-122177608D01*
X109981932Y-121715466D01*
X109463722Y-121500825D01*
X109194600Y-121618875D01*
X108940600Y-121618875D01*
X108671478Y-121500825D01*
X108153268Y-121715466D01*
X107658588Y-122177608D01*
X107378417Y-122793877D01*
X97607400Y-122793877D01*
X97607400Y-120973538D01*
X97652251Y-121199019D01*
X97858904Y-121508298D01*
X97936973Y-121560462D01*
X97955569Y-121579058D01*
X98055569Y-121820480D01*
X98346720Y-122111631D01*
X98727126Y-122269200D01*
X99138874Y-122269200D01*
X99519280Y-122111631D01*
X99810431Y-121820480D01*
X99968000Y-121440074D01*
X99968000Y-121028326D01*
X99810431Y-120647920D01*
X99519280Y-120356769D01*
X99468001Y-120335529D01*
X99468001Y-112725088D01*
X103850259Y-108342831D01*
X103850261Y-108342828D01*
X108051600Y-104141489D01*
X121117540Y-117207430D01*
X121169703Y-117285497D01*
X121478981Y-117492150D01*
X121751714Y-117546400D01*
X121751717Y-117546400D01*
X121843799Y-117564716D01*
X121935881Y-117546400D01*
X147389911Y-117546400D01*
X149099095Y-119255584D01*
X148936473Y-119498964D01*
X148868160Y-119842399D01*
X148868160Y-120492401D01*
X148936473Y-120835836D01*
X149131014Y-121126986D01*
X149228913Y-121192400D01*
X149131014Y-121257814D01*
X148936473Y-121548964D01*
X148868160Y-121892399D01*
X148868160Y-122542401D01*
X148936473Y-122885836D01*
X149131014Y-123176986D01*
X149422164Y-123371527D01*
X149765599Y-123439840D01*
X150114742Y-123439840D01*
X150164875Y-123514869D01*
X150242941Y-123567031D01*
X150474153Y-123721522D01*
X150675638Y-123761600D01*
X150156867Y-123761600D01*
X149738291Y-123844860D01*
X149263623Y-124162023D01*
X148946460Y-124636691D01*
X148835087Y-125196600D01*
X148946460Y-125756509D01*
X149263623Y-126231177D01*
X149615958Y-126466600D01*
X149263623Y-126702023D01*
X148946460Y-127176691D01*
X148835087Y-127736600D01*
X148946460Y-128296509D01*
X149263623Y-128771177D01*
X149615958Y-129006600D01*
X149263623Y-129242023D01*
X148946460Y-129716691D01*
X148835087Y-130276600D01*
X148946460Y-130836509D01*
X149263623Y-131311177D01*
X149615958Y-131546600D01*
X149263623Y-131782023D01*
X148946460Y-132256691D01*
X148835087Y-132816600D01*
X148946460Y-133376509D01*
X149263623Y-133851177D01*
X149738291Y-134168340D01*
X150156867Y-134251600D01*
X151239533Y-134251600D01*
X151658109Y-134168340D01*
X152132777Y-133851177D01*
X152449940Y-133376509D01*
X152561313Y-132816600D01*
X152449940Y-132256691D01*
X152132777Y-131782023D01*
X151780442Y-131546600D01*
X152132777Y-131311177D01*
X152449940Y-130836509D01*
X152561313Y-130276600D01*
X152449940Y-129716691D01*
X152132777Y-129242023D01*
X151780442Y-129006600D01*
X152132777Y-128771177D01*
X152449940Y-128296509D01*
X152561313Y-127736600D01*
X152449940Y-127176691D01*
X152132777Y-126702023D01*
X151780442Y-126466600D01*
X152132777Y-126231177D01*
X152449940Y-125756509D01*
X152481001Y-125600356D01*
X152481001Y-126031510D01*
X152462683Y-126123600D01*
X152535250Y-126488418D01*
X152689741Y-126719630D01*
X152741904Y-126797697D01*
X152819970Y-126849859D01*
X153820140Y-127850030D01*
X153872303Y-127928097D01*
X153950369Y-127980259D01*
X154181581Y-128134750D01*
X154213361Y-128141071D01*
X154261814Y-128213586D01*
X154552964Y-128408127D01*
X154896399Y-128476440D01*
X155253294Y-128476440D01*
X155464181Y-128617350D01*
X155736914Y-128671600D01*
X155736918Y-128671600D01*
X155828999Y-128689916D01*
X155921080Y-128671600D01*
X156817088Y-128671600D01*
X156883623Y-128771177D01*
X157235958Y-129006600D01*
X156883623Y-129242023D01*
X156566460Y-129716691D01*
X156455087Y-130276600D01*
X156566460Y-130836509D01*
X156883623Y-131311177D01*
X157004306Y-131391815D01*
X156870435Y-131418443D01*
X156660391Y-131558791D01*
X156520043Y-131768835D01*
X156470760Y-132016600D01*
X156470760Y-133616600D01*
X156520043Y-133864365D01*
X156660391Y-134074409D01*
X156870435Y-134214757D01*
X157118200Y-134264040D01*
X159518200Y-134264040D01*
X159765965Y-134214757D01*
X159976009Y-134074409D01*
X160116357Y-133864365D01*
X160165640Y-133616600D01*
X160165640Y-132016600D01*
X160116357Y-131768835D01*
X159976009Y-131558791D01*
X159765965Y-131418443D01*
X159632094Y-131391815D01*
X159752777Y-131311177D01*
X160069940Y-130836509D01*
X160181313Y-130276600D01*
X160069940Y-129716691D01*
X159752777Y-129242023D01*
X159400442Y-129006600D01*
X159752777Y-128771177D01*
X160069940Y-128296509D01*
X160181313Y-127736600D01*
X160069940Y-127176691D01*
X159752777Y-126702023D01*
X159396701Y-126464101D01*
X159822700Y-126121496D01*
X160092567Y-125628419D01*
X160110104Y-125545639D01*
X159988115Y-125323600D01*
X158445200Y-125323600D01*
X158445200Y-125343600D01*
X158191200Y-125343600D01*
X158191200Y-125323600D01*
X156648285Y-125323600D01*
X156601112Y-125409462D01*
X156522650Y-125331000D01*
X155473400Y-125331000D01*
X155473400Y-125351000D01*
X155219400Y-125351000D01*
X155219400Y-125331000D01*
X155199400Y-125331000D01*
X155199400Y-125077000D01*
X155219400Y-125077000D01*
X155219400Y-124152750D01*
X155473400Y-124152750D01*
X155473400Y-125077000D01*
X156522650Y-125077000D01*
X156606360Y-124993290D01*
X156648285Y-125069600D01*
X158191200Y-125069600D01*
X158191200Y-123761600D01*
X158445200Y-123761600D01*
X158445200Y-125069600D01*
X159988115Y-125069600D01*
X160110104Y-124847561D01*
X160092567Y-124764781D01*
X159822700Y-124271704D01*
X159384683Y-123919434D01*
X158845200Y-123761600D01*
X158445200Y-123761600D01*
X158191200Y-123761600D01*
X157791200Y-123761600D01*
X157251717Y-123919434D01*
X156813700Y-124271704D01*
X156681400Y-124513431D01*
X156681400Y-124502691D01*
X156584727Y-124269302D01*
X156406099Y-124090673D01*
X156172710Y-123994000D01*
X155632150Y-123994000D01*
X155473400Y-124152750D01*
X155219400Y-124152750D01*
X155060650Y-123994000D01*
X154520090Y-123994000D01*
X154351000Y-124064039D01*
X154351000Y-123536081D01*
X154369316Y-123443999D01*
X154351000Y-123351915D01*
X154351000Y-123351914D01*
X154296750Y-123079181D01*
X154090097Y-122769903D01*
X154012031Y-122717741D01*
X153539033Y-122244744D01*
X153486869Y-122166675D01*
X153177591Y-121960022D01*
X152904858Y-121905772D01*
X152812772Y-121887455D01*
X152720686Y-121905772D01*
X151563040Y-121905772D01*
X151563040Y-121892399D01*
X151494727Y-121548964D01*
X151300186Y-121257814D01*
X151202287Y-121192400D01*
X151300186Y-121126986D01*
X151494727Y-120835836D01*
X151563040Y-120492401D01*
X151563040Y-119842399D01*
X151494727Y-119498964D01*
X151300186Y-119207814D01*
X151156573Y-119111854D01*
X151168916Y-119049799D01*
X151150600Y-118957717D01*
X151150600Y-118957714D01*
X151096350Y-118684981D01*
X150889697Y-118375703D01*
X150811631Y-118323541D01*
X148503461Y-116015372D01*
X148451297Y-115937303D01*
X148142019Y-115730650D01*
X147869286Y-115676400D01*
X147777200Y-115658083D01*
X147685114Y-115676400D01*
X122231090Y-115676400D01*
X108986600Y-102431911D01*
X108986600Y-84089496D01*
X109086600Y-83848074D01*
X109086600Y-83436326D01*
X108929031Y-83055920D01*
X108637880Y-82764769D01*
X108598362Y-82748400D01*
X120380114Y-82748400D01*
X120472200Y-82766717D01*
X120564286Y-82748400D01*
X120837019Y-82694150D01*
X121146297Y-82487497D01*
X121198461Y-82409428D01*
X121818422Y-81789467D01*
X142842000Y-81789467D01*
X142842000Y-82728333D01*
X143201289Y-83595733D01*
X143865167Y-84259611D01*
X144732567Y-84618900D01*
X145671433Y-84618900D01*
X146538833Y-84259611D01*
X147202711Y-83595733D01*
X147562000Y-82728333D01*
X147562000Y-81789467D01*
X147202711Y-80922067D01*
X146538833Y-80258189D01*
X145671433Y-79898900D01*
X144732567Y-79898900D01*
X143865167Y-80258189D01*
X143201289Y-80922067D01*
X142842000Y-81789467D01*
X121818422Y-81789467D01*
X125671620Y-77936270D01*
X125685344Y-77939000D01*
X125977856Y-77939000D01*
X126411018Y-77852839D01*
X126902225Y-77524625D01*
X127101600Y-77226239D01*
X127300975Y-77524625D01*
X127792182Y-77852839D01*
X128225344Y-77939000D01*
X128517856Y-77939000D01*
X128951018Y-77852839D01*
X129442225Y-77524625D01*
X129641600Y-77226239D01*
X129840975Y-77524625D01*
X130332182Y-77852839D01*
X130765344Y-77939000D01*
X131057856Y-77939000D01*
X131491018Y-77852839D01*
X131982225Y-77524625D01*
X132181600Y-77226239D01*
X132380975Y-77524625D01*
X132872182Y-77852839D01*
X133305344Y-77939000D01*
X133597856Y-77939000D01*
X134031018Y-77852839D01*
X134522225Y-77524625D01*
X134721600Y-77226239D01*
X134920975Y-77524625D01*
X135412182Y-77852839D01*
X135845344Y-77939000D01*
X136137856Y-77939000D01*
X136571018Y-77852839D01*
X137062225Y-77524625D01*
X137261600Y-77226239D01*
X137460975Y-77524625D01*
X137952182Y-77852839D01*
X138385344Y-77939000D01*
X138677856Y-77939000D01*
X139111018Y-77852839D01*
X139602225Y-77524625D01*
X139801600Y-77226239D01*
X140000975Y-77524625D01*
X140492182Y-77852839D01*
X140925344Y-77939000D01*
X141217856Y-77939000D01*
X141651018Y-77852839D01*
X142142225Y-77524625D01*
X142341600Y-77226239D01*
X142540975Y-77524625D01*
X143032182Y-77852839D01*
X143465344Y-77939000D01*
X143757856Y-77939000D01*
X144191018Y-77852839D01*
X144682225Y-77524625D01*
X144881600Y-77226239D01*
X145080975Y-77524625D01*
X145572182Y-77852839D01*
X146005344Y-77939000D01*
X146297856Y-77939000D01*
X146731018Y-77852839D01*
X147222225Y-77524625D01*
X147421600Y-77226239D01*
X147620975Y-77524625D01*
X148112182Y-77852839D01*
X148545344Y-77939000D01*
X148837856Y-77939000D01*
X149271018Y-77852839D01*
X149762225Y-77524625D01*
X149961600Y-77226239D01*
X150160975Y-77524625D01*
X150652182Y-77852839D01*
X151085344Y-77939000D01*
X151377856Y-77939000D01*
X151811018Y-77852839D01*
X152302225Y-77524625D01*
X152501600Y-77226239D01*
X152700975Y-77524625D01*
X153192182Y-77852839D01*
X153625344Y-77939000D01*
X153917856Y-77939000D01*
X154351018Y-77852839D01*
X154842225Y-77524625D01*
X155041600Y-77226239D01*
X155240975Y-77524625D01*
X155732182Y-77852839D01*
X156165344Y-77939000D01*
X156457856Y-77939000D01*
X156891018Y-77852839D01*
X157382225Y-77524625D01*
X157710439Y-77033418D01*
X157825692Y-76454000D01*
X157710439Y-75874582D01*
X157382225Y-75383375D01*
X157083839Y-75184000D01*
X157382225Y-74984625D01*
X157710439Y-74493418D01*
X157825692Y-73914000D01*
X157710439Y-73334582D01*
X157382225Y-72843375D01*
X156891018Y-72515161D01*
X156457856Y-72429000D01*
X156165344Y-72429000D01*
X155732182Y-72515161D01*
X155240975Y-72843375D01*
X155041600Y-73141761D01*
X154842225Y-72843375D01*
X154351018Y-72515161D01*
X153917856Y-72429000D01*
X153625344Y-72429000D01*
X153192182Y-72515161D01*
X152700975Y-72843375D01*
X152501600Y-73141761D01*
X152302225Y-72843375D01*
X151811018Y-72515161D01*
X151377856Y-72429000D01*
X151085344Y-72429000D01*
X150652182Y-72515161D01*
X150160975Y-72843375D01*
X149961600Y-73141761D01*
X149762225Y-72843375D01*
X149271018Y-72515161D01*
X148837856Y-72429000D01*
X148545344Y-72429000D01*
X148112182Y-72515161D01*
X147620975Y-72843375D01*
X147421600Y-73141761D01*
X147222225Y-72843375D01*
X146731018Y-72515161D01*
X146297856Y-72429000D01*
X146005344Y-72429000D01*
X145572182Y-72515161D01*
X145080975Y-72843375D01*
X144881600Y-73141761D01*
X144682225Y-72843375D01*
X144191018Y-72515161D01*
X143757856Y-72429000D01*
X143465344Y-72429000D01*
X143032182Y-72515161D01*
X142540975Y-72843375D01*
X142341600Y-73141761D01*
X142142225Y-72843375D01*
X141651018Y-72515161D01*
X141217856Y-72429000D01*
X140925344Y-72429000D01*
X140492182Y-72515161D01*
X140000975Y-72843375D01*
X139801600Y-73141761D01*
X139602225Y-72843375D01*
X139111018Y-72515161D01*
X138677856Y-72429000D01*
X138385344Y-72429000D01*
X137952182Y-72515161D01*
X137460975Y-72843375D01*
X137261600Y-73141761D01*
X137062225Y-72843375D01*
X136571018Y-72515161D01*
X136137856Y-72429000D01*
X135845344Y-72429000D01*
X135412182Y-72515161D01*
X134920975Y-72843375D01*
X134721600Y-73141761D01*
X134522225Y-72843375D01*
X134031018Y-72515161D01*
X133597856Y-72429000D01*
X133305344Y-72429000D01*
X132872182Y-72515161D01*
X132380975Y-72843375D01*
X132167757Y-73162478D01*
X132106783Y-73032642D01*
X131678524Y-72642355D01*
X131268490Y-72472524D01*
X131038600Y-72593845D01*
X131038600Y-73787000D01*
X131058600Y-73787000D01*
X131058600Y-74041000D01*
X131038600Y-74041000D01*
X131038600Y-74061000D01*
X130784600Y-74061000D01*
X130784600Y-74041000D01*
X130764600Y-74041000D01*
X130764600Y-73787000D01*
X130784600Y-73787000D01*
X130784600Y-72593845D01*
X130554710Y-72472524D01*
X130144676Y-72642355D01*
X129716417Y-73032642D01*
X129655443Y-73162478D01*
X129442225Y-72843375D01*
X128951018Y-72515161D01*
X128517856Y-72429000D01*
X128225344Y-72429000D01*
X127792182Y-72515161D01*
X127300975Y-72843375D01*
X127101600Y-73141761D01*
X126902225Y-72843375D01*
X126411018Y-72515161D01*
X125977856Y-72429000D01*
X125685344Y-72429000D01*
X125252182Y-72515161D01*
X124760975Y-72843375D01*
X124547757Y-73162478D01*
X124486783Y-73032642D01*
X124058524Y-72642355D01*
X123648490Y-72472524D01*
X123418600Y-72593845D01*
X123418600Y-73787000D01*
X123438600Y-73787000D01*
X123438600Y-74041000D01*
X123418600Y-74041000D01*
X123418600Y-74061000D01*
X123164600Y-74061000D01*
X123164600Y-74041000D01*
X123144600Y-74041000D01*
X123144600Y-73787000D01*
X123164600Y-73787000D01*
X123164600Y-72593845D01*
X122934710Y-72472524D01*
X122524676Y-72642355D01*
X122096417Y-73032642D01*
X122035443Y-73162478D01*
X121822225Y-72843375D01*
X121686600Y-72752753D01*
X121686600Y-69431800D01*
X126874160Y-69431800D01*
X126874160Y-71131800D01*
X126923443Y-71379565D01*
X127063791Y-71589609D01*
X127273835Y-71729957D01*
X127521600Y-71779240D01*
X129221600Y-71779240D01*
X129469365Y-71729957D01*
X129679409Y-71589609D01*
X129819757Y-71379565D01*
X129840339Y-71276092D01*
X130144676Y-71553445D01*
X130554710Y-71723276D01*
X130784600Y-71601955D01*
X130784600Y-70408800D01*
X131038600Y-70408800D01*
X131038600Y-71601955D01*
X131268490Y-71723276D01*
X131678524Y-71553445D01*
X132106783Y-71163158D01*
X132353086Y-70638692D01*
X132232419Y-70408800D01*
X131038600Y-70408800D01*
X130784600Y-70408800D01*
X130764600Y-70408800D01*
X130764600Y-70154800D01*
X130784600Y-70154800D01*
X130784600Y-68961645D01*
X131038600Y-68961645D01*
X131038600Y-70154800D01*
X132232419Y-70154800D01*
X132353086Y-69924908D01*
X132121510Y-69431800D01*
X134494160Y-69431800D01*
X134494160Y-71131800D01*
X134543443Y-71379565D01*
X134683791Y-71589609D01*
X134893835Y-71729957D01*
X135141600Y-71779240D01*
X136841600Y-71779240D01*
X137089365Y-71729957D01*
X137299409Y-71589609D01*
X137439757Y-71379565D01*
X137460339Y-71276092D01*
X137764676Y-71553445D01*
X138174710Y-71723276D01*
X138404600Y-71601955D01*
X138404600Y-70408800D01*
X138658600Y-70408800D01*
X138658600Y-71601955D01*
X138888490Y-71723276D01*
X139298524Y-71553445D01*
X139726783Y-71163158D01*
X139973086Y-70638692D01*
X139852419Y-70408800D01*
X138658600Y-70408800D01*
X138404600Y-70408800D01*
X138384600Y-70408800D01*
X138384600Y-70154800D01*
X138404600Y-70154800D01*
X138404600Y-68961645D01*
X138658600Y-68961645D01*
X138658600Y-70154800D01*
X139852419Y-70154800D01*
X139973086Y-69924908D01*
X139726783Y-69400442D01*
X139298524Y-69010155D01*
X138888490Y-68840324D01*
X138658600Y-68961645D01*
X138404600Y-68961645D01*
X138174710Y-68840324D01*
X137764676Y-69010155D01*
X137460339Y-69287508D01*
X137439757Y-69184035D01*
X137299409Y-68973991D01*
X137089365Y-68833643D01*
X136841600Y-68784360D01*
X135141600Y-68784360D01*
X134893835Y-68833643D01*
X134683791Y-68973991D01*
X134543443Y-69184035D01*
X134494160Y-69431800D01*
X132121510Y-69431800D01*
X132106783Y-69400442D01*
X131678524Y-69010155D01*
X131268490Y-68840324D01*
X131038600Y-68961645D01*
X130784600Y-68961645D01*
X130554710Y-68840324D01*
X130144676Y-69010155D01*
X129840339Y-69287508D01*
X129819757Y-69184035D01*
X129679409Y-68973991D01*
X129469365Y-68833643D01*
X129221600Y-68784360D01*
X127521600Y-68784360D01*
X127273835Y-68833643D01*
X127063791Y-68973991D01*
X126923443Y-69184035D01*
X126874160Y-69431800D01*
X121686600Y-69431800D01*
X121686600Y-68799081D01*
X121704916Y-68706999D01*
X121686600Y-68614917D01*
X121686600Y-68614914D01*
X121632350Y-68342181D01*
X121425697Y-68032903D01*
X121347631Y-67980741D01*
X120055461Y-66688572D01*
X120003297Y-66610503D01*
X119694019Y-66403850D01*
X119421286Y-66349600D01*
X119329200Y-66331283D01*
X119237114Y-66349600D01*
X106670486Y-66349600D01*
X106578400Y-66331283D01*
X106486314Y-66349600D01*
X106213581Y-66403850D01*
X105904303Y-66610503D01*
X105852141Y-66688569D01*
X104128172Y-68412539D01*
X104050103Y-68464703D01*
X103845175Y-68771400D01*
X103843450Y-68773982D01*
X103770883Y-69138800D01*
X103789200Y-69230886D01*
X103789201Y-77657702D01*
X103689200Y-77899126D01*
X103689200Y-78310874D01*
X103846769Y-78691280D01*
X104137920Y-78982431D01*
X104518326Y-79140000D01*
X104930074Y-79140000D01*
X105310480Y-78982431D01*
X105601631Y-78691280D01*
X105759200Y-78310874D01*
X105759200Y-77899126D01*
X105659200Y-77657704D01*
X105659200Y-70542150D01*
X111646600Y-70542150D01*
X111646600Y-71232709D01*
X111743273Y-71466098D01*
X111921901Y-71644727D01*
X112155290Y-71741400D01*
X112845850Y-71741400D01*
X113004600Y-71582650D01*
X113004600Y-70383400D01*
X111805350Y-70383400D01*
X111646600Y-70542150D01*
X105659200Y-70542150D01*
X105659200Y-69526089D01*
X105905198Y-69280091D01*
X111646600Y-69280091D01*
X111646600Y-69970650D01*
X111805350Y-70129400D01*
X113004600Y-70129400D01*
X113004600Y-68930150D01*
X113258600Y-68930150D01*
X113258600Y-70129400D01*
X113278600Y-70129400D01*
X113278600Y-70383400D01*
X113258600Y-70383400D01*
X113258600Y-71582650D01*
X113417350Y-71741400D01*
X114107910Y-71741400D01*
X114341299Y-71644727D01*
X114519927Y-71466098D01*
X114586504Y-71305367D01*
X114600975Y-71327025D01*
X115092182Y-71655239D01*
X115525344Y-71741400D01*
X115817856Y-71741400D01*
X116251018Y-71655239D01*
X116742225Y-71327025D01*
X116941600Y-71028639D01*
X117140975Y-71327025D01*
X117632182Y-71655239D01*
X118065344Y-71741400D01*
X118357856Y-71741400D01*
X118791018Y-71655239D01*
X119282225Y-71327025D01*
X119610439Y-70835818D01*
X119725692Y-70256400D01*
X119610439Y-69676982D01*
X119282225Y-69185775D01*
X118791018Y-68857561D01*
X118357856Y-68771400D01*
X118065344Y-68771400D01*
X117632182Y-68857561D01*
X117140975Y-69185775D01*
X116941600Y-69484161D01*
X116742225Y-69185775D01*
X116251018Y-68857561D01*
X115817856Y-68771400D01*
X115525344Y-68771400D01*
X115092182Y-68857561D01*
X114600975Y-69185775D01*
X114586504Y-69207433D01*
X114519927Y-69046702D01*
X114341299Y-68868073D01*
X114107910Y-68771400D01*
X113417350Y-68771400D01*
X113258600Y-68930150D01*
X113004600Y-68930150D01*
X112845850Y-68771400D01*
X112155290Y-68771400D01*
X111921901Y-68868073D01*
X111743273Y-69046702D01*
X111646600Y-69280091D01*
X105905198Y-69280091D01*
X106965690Y-68219600D01*
X118941911Y-68219600D01*
X119816601Y-69094291D01*
X119816600Y-72752753D01*
X119680975Y-72843375D01*
X119481600Y-73141761D01*
X119282225Y-72843375D01*
X118791018Y-72515161D01*
X118357856Y-72429000D01*
X118065344Y-72429000D01*
X117632182Y-72515161D01*
X117140975Y-72843375D01*
X116941600Y-73141761D01*
X116742225Y-72843375D01*
X116251018Y-72515161D01*
X115817856Y-72429000D01*
X115525344Y-72429000D01*
X115092182Y-72515161D01*
X114600975Y-72843375D01*
X114387757Y-73162478D01*
X114326783Y-73032642D01*
X113898524Y-72642355D01*
X113488490Y-72472524D01*
X113258600Y-72593845D01*
X113258600Y-73787000D01*
X113278600Y-73787000D01*
X113278600Y-74041000D01*
X113258600Y-74041000D01*
X113258600Y-74061000D01*
X113004600Y-74061000D01*
X113004600Y-74041000D01*
X112984600Y-74041000D01*
X112984600Y-73787000D01*
X113004600Y-73787000D01*
X113004600Y-72593845D01*
X112774710Y-72472524D01*
X112364676Y-72642355D01*
X111936417Y-73032642D01*
X111875443Y-73162478D01*
X111662225Y-72843375D01*
X111171018Y-72515161D01*
X110737856Y-72429000D01*
X110445344Y-72429000D01*
X110012182Y-72515161D01*
X109520975Y-72843375D01*
X109321600Y-73141761D01*
X109122225Y-72843375D01*
X108631018Y-72515161D01*
X108197856Y-72429000D01*
X107905344Y-72429000D01*
X107472182Y-72515161D01*
X106980975Y-72843375D01*
X106652761Y-73334582D01*
X106537508Y-73914000D01*
X106652761Y-74493418D01*
X106980975Y-74984625D01*
X106999219Y-74996816D01*
X106953835Y-75005843D01*
X106743791Y-75146191D01*
X106603443Y-75356235D01*
X106554160Y-75604000D01*
X106554160Y-77304000D01*
X106603443Y-77551765D01*
X106743791Y-77761809D01*
X106953835Y-77902157D01*
X107201600Y-77951440D01*
X108901600Y-77951440D01*
X109149365Y-77902157D01*
X109359409Y-77761809D01*
X109499757Y-77551765D01*
X109508784Y-77506381D01*
X109520975Y-77524625D01*
X110012182Y-77852839D01*
X110445344Y-77939000D01*
X110737856Y-77939000D01*
X111171018Y-77852839D01*
X111662225Y-77524625D01*
X111861600Y-77226239D01*
X112060975Y-77524625D01*
X112552182Y-77852839D01*
X112985344Y-77939000D01*
X113277856Y-77939000D01*
X113711018Y-77852839D01*
X114202225Y-77524625D01*
X114401600Y-77226239D01*
X114600975Y-77524625D01*
X115092182Y-77852839D01*
X115525344Y-77939000D01*
X115817856Y-77939000D01*
X116251018Y-77852839D01*
X116742225Y-77524625D01*
X116955443Y-77205522D01*
X117016417Y-77335358D01*
X117444676Y-77725645D01*
X117854710Y-77895476D01*
X118084600Y-77774155D01*
X118084600Y-76581000D01*
X118064600Y-76581000D01*
X118064600Y-76327000D01*
X118084600Y-76327000D01*
X118084600Y-76307000D01*
X118338600Y-76307000D01*
X118338600Y-76327000D01*
X118358600Y-76327000D01*
X118358600Y-76581000D01*
X118338600Y-76581000D01*
X118338600Y-77774155D01*
X118568490Y-77895476D01*
X118978524Y-77725645D01*
X119406783Y-77335358D01*
X119467757Y-77205522D01*
X119680975Y-77524625D01*
X120172182Y-77852839D01*
X120504392Y-77918919D01*
X119119711Y-79303600D01*
X102723890Y-79303600D01*
X101716661Y-78296372D01*
X101664497Y-78218303D01*
X101355219Y-78011650D01*
X101082486Y-77957400D01*
X100990400Y-77939083D01*
X100898314Y-77957400D01*
X96362800Y-77957400D01*
X96362800Y-77183447D01*
X96498425Y-77092825D01*
X96697800Y-76794439D01*
X96897175Y-77092825D01*
X97388382Y-77421039D01*
X97821544Y-77507200D01*
X98114056Y-77507200D01*
X98547218Y-77421039D01*
X99038425Y-77092825D01*
X99251643Y-76773722D01*
X99312617Y-76903558D01*
X99740876Y-77293845D01*
X100150910Y-77463676D01*
X100380800Y-77342355D01*
X100380800Y-76149200D01*
X100634800Y-76149200D01*
X100634800Y-77342355D01*
X100864690Y-77463676D01*
X101274724Y-77293845D01*
X101702983Y-76903558D01*
X101949286Y-76379092D01*
X101828619Y-76149200D01*
X100634800Y-76149200D01*
X100380800Y-76149200D01*
X100360800Y-76149200D01*
X100360800Y-75895200D01*
X100380800Y-75895200D01*
X100380800Y-74702045D01*
X100634800Y-74702045D01*
X100634800Y-75895200D01*
X101828619Y-75895200D01*
X101949286Y-75665308D01*
X101702983Y-75140842D01*
X101274724Y-74750555D01*
X100864690Y-74580724D01*
X100634800Y-74702045D01*
X100380800Y-74702045D01*
X100150910Y-74580724D01*
X99740876Y-74750555D01*
X99312617Y-75140842D01*
X99251643Y-75270678D01*
X99038425Y-74951575D01*
X98547218Y-74623361D01*
X98114056Y-74537200D01*
X97821544Y-74537200D01*
X97388382Y-74623361D01*
X96897175Y-74951575D01*
X96697800Y-75249961D01*
X96498425Y-74951575D01*
X96007218Y-74623361D01*
X95574056Y-74537200D01*
X95281544Y-74537200D01*
X94848382Y-74623361D01*
X94357175Y-74951575D01*
X94344984Y-74969819D01*
X94335957Y-74924435D01*
X94195609Y-74714391D01*
X93985565Y-74574043D01*
X93737800Y-74524760D01*
X92037800Y-74524760D01*
X91790035Y-74574043D01*
X91579991Y-74714391D01*
X91439643Y-74924435D01*
X91390360Y-75172200D01*
X91390360Y-76872200D01*
X91439643Y-77119965D01*
X91579991Y-77330009D01*
X91790035Y-77470357D01*
X91960200Y-77504205D01*
X91960200Y-77791386D01*
X91935614Y-77807814D01*
X91741073Y-78098964D01*
X91672760Y-78442399D01*
X91672760Y-79342401D01*
X91741073Y-79685836D01*
X91935614Y-79976986D01*
X92226764Y-80171527D01*
X92570199Y-80239840D01*
X93220201Y-80239840D01*
X93563636Y-80171527D01*
X93854786Y-79976986D01*
X93920200Y-79879087D01*
X93985614Y-79976986D01*
X94276764Y-80171527D01*
X94620199Y-80239840D01*
X95270201Y-80239840D01*
X95613636Y-80171527D01*
X95904786Y-79976986D01*
X96004737Y-79827400D01*
X100603111Y-79827400D01*
X101610341Y-80834631D01*
X101639586Y-80878400D01*
X85553490Y-80878400D01*
X84551800Y-79876711D01*
X84551800Y-77107247D01*
X84687425Y-77016625D01*
X84886800Y-76718239D01*
X85086175Y-77016625D01*
X85577382Y-77344839D01*
X86010544Y-77431000D01*
X86303056Y-77431000D01*
X86736218Y-77344839D01*
X87227425Y-77016625D01*
X87555639Y-76525418D01*
X87670892Y-75946000D01*
X87555639Y-75366582D01*
X87227425Y-74875375D01*
X86736218Y-74547161D01*
X86303056Y-74461000D01*
X86010544Y-74461000D01*
X85577382Y-74547161D01*
X85086175Y-74875375D01*
X84886800Y-75173761D01*
X84687425Y-74875375D01*
X84196218Y-74547161D01*
X83763056Y-74461000D01*
X83470544Y-74461000D01*
X83037382Y-74547161D01*
X82546175Y-74875375D01*
X82332957Y-75194478D01*
X82271983Y-75064642D01*
X81843724Y-74674355D01*
X81433690Y-74504524D01*
X81203800Y-74625845D01*
X80949800Y-74625845D01*
X80719910Y-74504524D01*
X80309876Y-74674355D01*
X80005539Y-74951708D01*
X79984957Y-74848235D01*
X79844609Y-74638191D01*
X79634565Y-74497843D01*
X79386800Y-74448560D01*
X77686800Y-74448560D01*
X77439035Y-74497843D01*
X77228991Y-74638191D01*
X77088643Y-74848235D01*
X77039360Y-75096000D01*
X67207600Y-75096000D01*
X67207600Y-66670896D01*
X67269930Y-66215873D01*
X67433612Y-65837627D01*
X67692982Y-65517331D01*
X68028930Y-65278585D01*
X68426995Y-65135273D01*
X68768304Y-65099400D01*
X161065504Y-65099400D01*
X161520527Y-65161730D01*
G04 #@! TD*
M02*
