G04 #@! TF.GenerationSoftware,KiCad,Pcbnew,5.0.2-bee76a0~70~ubuntu18.04.1*
G04 #@! TF.CreationDate,2019-08-23T13:18:47-04:00*
G04 #@! TF.ProjectId,board,626f6172-642e-46b6-9963-61645f706362,rev?*
G04 #@! TF.SameCoordinates,Original*
G04 #@! TF.FileFunction,Legend,Top*
G04 #@! TF.FilePolarity,Positive*
%FSLAX46Y46*%
G04 Gerber Fmt 4.6, Leading zero omitted, Abs format (unit mm)*
G04 Created by KiCad (PCBNEW 5.0.2-bee76a0~70~ubuntu18.04.1) date Fri 23 Aug 2019 01:18:47 PM EDT*
%MOMM*%
%LPD*%
G01*
G04 APERTURE LIST*
%ADD10C,0.300000*%
%ADD11C,0.250000*%
%ADD12C,0.120000*%
%ADD13C,0.150000*%
G04 APERTURE END LIST*
D10*
X73650257Y-135373371D02*
X73650257Y-136587657D01*
X73721685Y-136730514D01*
X73793114Y-136801942D01*
X73935971Y-136873371D01*
X74221685Y-136873371D01*
X74364542Y-136801942D01*
X74435971Y-136730514D01*
X74507400Y-136587657D01*
X74507400Y-135373371D01*
X75150257Y-136801942D02*
X75364542Y-136873371D01*
X75721685Y-136873371D01*
X75864542Y-136801942D01*
X75935971Y-136730514D01*
X76007400Y-136587657D01*
X76007400Y-136444800D01*
X75935971Y-136301942D01*
X75864542Y-136230514D01*
X75721685Y-136159085D01*
X75435971Y-136087657D01*
X75293114Y-136016228D01*
X75221685Y-135944800D01*
X75150257Y-135801942D01*
X75150257Y-135659085D01*
X75221685Y-135516228D01*
X75293114Y-135444800D01*
X75435971Y-135373371D01*
X75793114Y-135373371D01*
X76007400Y-135444800D01*
X77150257Y-136087657D02*
X77364542Y-136159085D01*
X77435971Y-136230514D01*
X77507400Y-136373371D01*
X77507400Y-136587657D01*
X77435971Y-136730514D01*
X77364542Y-136801942D01*
X77221685Y-136873371D01*
X76650257Y-136873371D01*
X76650257Y-135373371D01*
X77150257Y-135373371D01*
X77293114Y-135444800D01*
X77364542Y-135516228D01*
X77435971Y-135659085D01*
X77435971Y-135801942D01*
X77364542Y-135944800D01*
X77293114Y-136016228D01*
X77150257Y-136087657D01*
X76650257Y-136087657D01*
X77793114Y-137016228D02*
X78935971Y-137016228D01*
X79578828Y-135373371D02*
X79864542Y-135373371D01*
X80007400Y-135444800D01*
X80150257Y-135587657D01*
X80221685Y-135873371D01*
X80221685Y-136373371D01*
X80150257Y-136659085D01*
X80007400Y-136801942D01*
X79864542Y-136873371D01*
X79578828Y-136873371D01*
X79435971Y-136801942D01*
X79293114Y-136659085D01*
X79221685Y-136373371D01*
X79221685Y-135873371D01*
X79293114Y-135587657D01*
X79435971Y-135444800D01*
X79578828Y-135373371D01*
X80864542Y-135373371D02*
X80864542Y-136587657D01*
X80935971Y-136730514D01*
X81007400Y-136801942D01*
X81150257Y-136873371D01*
X81435971Y-136873371D01*
X81578828Y-136801942D01*
X81650257Y-136730514D01*
X81721685Y-136587657D01*
X81721685Y-135373371D01*
X82221685Y-135373371D02*
X83078828Y-135373371D01*
X82650257Y-136873371D02*
X82650257Y-135373371D01*
X141184714Y-68830000D02*
X141899000Y-68830000D01*
X141041857Y-69258571D02*
X141541857Y-67758571D01*
X142041857Y-69258571D01*
X143256142Y-69258571D02*
X142541857Y-69258571D01*
X142541857Y-67758571D01*
X143684714Y-68830000D02*
X144399000Y-68830000D01*
X143541857Y-69258571D02*
X144041857Y-67758571D01*
X144541857Y-69258571D01*
X145899000Y-69258571D02*
X145399000Y-68544285D01*
X145041857Y-69258571D02*
X145041857Y-67758571D01*
X145613285Y-67758571D01*
X145756142Y-67830000D01*
X145827571Y-67901428D01*
X145899000Y-68044285D01*
X145899000Y-68258571D01*
X145827571Y-68401428D01*
X145756142Y-68472857D01*
X145613285Y-68544285D01*
X145041857Y-68544285D01*
X146541857Y-69258571D02*
X146541857Y-67758571D01*
X147041857Y-68830000D01*
X147541857Y-67758571D01*
X147541857Y-69258571D01*
X121593171Y-70884171D02*
X120878885Y-70884171D01*
X120878885Y-69384171D01*
X122093171Y-70098457D02*
X122593171Y-70098457D01*
X122807457Y-70884171D02*
X122093171Y-70884171D01*
X122093171Y-69384171D01*
X122807457Y-69384171D01*
X123450314Y-70884171D02*
X123450314Y-69384171D01*
X123807457Y-69384171D01*
X124021742Y-69455600D01*
X124164600Y-69598457D01*
X124236028Y-69741314D01*
X124307457Y-70027028D01*
X124307457Y-70241314D01*
X124236028Y-70527028D01*
X124164600Y-70669885D01*
X124021742Y-70812742D01*
X123807457Y-70884171D01*
X123450314Y-70884171D01*
X124878885Y-70812742D02*
X125021742Y-70884171D01*
X125307457Y-70884171D01*
X125450314Y-70812742D01*
X125521742Y-70669885D01*
X125521742Y-70598457D01*
X125450314Y-70455600D01*
X125307457Y-70384171D01*
X125093171Y-70384171D01*
X124950314Y-70312742D01*
X124878885Y-70169885D01*
X124878885Y-70098457D01*
X124950314Y-69955600D01*
X125093171Y-69884171D01*
X125307457Y-69884171D01*
X125450314Y-69955600D01*
X93653314Y-77969371D02*
X94510457Y-77969371D01*
X94081885Y-79469371D02*
X94081885Y-77969371D01*
X95010457Y-78683657D02*
X95510457Y-78683657D01*
X95724742Y-79469371D02*
X95010457Y-79469371D01*
X95010457Y-77969371D01*
X95724742Y-77969371D01*
X96367600Y-79469371D02*
X96367600Y-77969371D01*
X96867600Y-79040800D01*
X97367600Y-77969371D01*
X97367600Y-79469371D01*
X98081885Y-79469371D02*
X98081885Y-77969371D01*
X98653314Y-77969371D01*
X98796171Y-78040800D01*
X98867600Y-78112228D01*
X98939028Y-78255085D01*
X98939028Y-78469371D01*
X98867600Y-78612228D01*
X98796171Y-78683657D01*
X98653314Y-78755085D01*
X98081885Y-78755085D01*
X79050000Y-79270942D02*
X79264285Y-79342371D01*
X79621428Y-79342371D01*
X79764285Y-79270942D01*
X79835714Y-79199514D01*
X79907142Y-79056657D01*
X79907142Y-78913800D01*
X79835714Y-78770942D01*
X79764285Y-78699514D01*
X79621428Y-78628085D01*
X79335714Y-78556657D01*
X79192857Y-78485228D01*
X79121428Y-78413800D01*
X79050000Y-78270942D01*
X79050000Y-78128085D01*
X79121428Y-77985228D01*
X79192857Y-77913800D01*
X79335714Y-77842371D01*
X79692857Y-77842371D01*
X79907142Y-77913800D01*
X80550000Y-79342371D02*
X80550000Y-77842371D01*
X81050000Y-78913800D01*
X81550000Y-77842371D01*
X81550000Y-79342371D01*
X82550000Y-77842371D02*
X82835714Y-77842371D01*
X82978571Y-77913800D01*
X83121428Y-78056657D01*
X83192857Y-78342371D01*
X83192857Y-78842371D01*
X83121428Y-79128085D01*
X82978571Y-79270942D01*
X82835714Y-79342371D01*
X82550000Y-79342371D01*
X82407142Y-79270942D01*
X82264285Y-79128085D01*
X82192857Y-78842371D01*
X82192857Y-78342371D01*
X82264285Y-78056657D01*
X82407142Y-77913800D01*
X82550000Y-77842371D01*
X83835714Y-79342371D02*
X83835714Y-77842371D01*
X84692857Y-79342371D02*
X84050000Y-78485228D01*
X84692857Y-77842371D02*
X83835714Y-78699514D01*
X85335714Y-78556657D02*
X85835714Y-78556657D01*
X86050000Y-79342371D02*
X85335714Y-79342371D01*
X85335714Y-77842371D01*
X86050000Y-77842371D01*
X138765114Y-137484657D02*
X138265114Y-137484657D01*
X138265114Y-138270371D02*
X138265114Y-136770371D01*
X138979400Y-136770371D01*
X139479400Y-137841800D02*
X140193685Y-137841800D01*
X139336542Y-138270371D02*
X139836542Y-136770371D01*
X140336542Y-138270371D01*
X140836542Y-138270371D02*
X140836542Y-136770371D01*
X141693685Y-138270371D01*
X141693685Y-136770371D01*
X130692685Y-137898914D02*
X130621257Y-137970342D01*
X130406971Y-138041771D01*
X130264114Y-138041771D01*
X130049828Y-137970342D01*
X129906971Y-137827485D01*
X129835542Y-137684628D01*
X129764114Y-137398914D01*
X129764114Y-137184628D01*
X129835542Y-136898914D01*
X129906971Y-136756057D01*
X130049828Y-136613200D01*
X130264114Y-136541771D01*
X130406971Y-136541771D01*
X130621257Y-136613200D01*
X130692685Y-136684628D01*
X131621257Y-136541771D02*
X131906971Y-136541771D01*
X132049828Y-136613200D01*
X132192685Y-136756057D01*
X132264114Y-137041771D01*
X132264114Y-137541771D01*
X132192685Y-137827485D01*
X132049828Y-137970342D01*
X131906971Y-138041771D01*
X131621257Y-138041771D01*
X131478400Y-137970342D01*
X131335542Y-137827485D01*
X131264114Y-137541771D01*
X131264114Y-137041771D01*
X131335542Y-136756057D01*
X131478400Y-136613200D01*
X131621257Y-136541771D01*
X132906971Y-138041771D02*
X132906971Y-136541771D01*
X134335542Y-138041771D02*
X133621257Y-138041771D01*
X133621257Y-136541771D01*
X105557142Y-67275971D02*
X105557142Y-68490257D01*
X105628571Y-68633114D01*
X105700000Y-68704542D01*
X105842857Y-68775971D01*
X106128571Y-68775971D01*
X106271428Y-68704542D01*
X106342857Y-68633114D01*
X106414285Y-68490257D01*
X106414285Y-67275971D01*
X107057142Y-68347400D02*
X107771428Y-68347400D01*
X106914285Y-68775971D02*
X107414285Y-67275971D01*
X107914285Y-68775971D01*
X109271428Y-68775971D02*
X108771428Y-68061685D01*
X108414285Y-68775971D02*
X108414285Y-67275971D01*
X108985714Y-67275971D01*
X109128571Y-67347400D01*
X109200000Y-67418828D01*
X109271428Y-67561685D01*
X109271428Y-67775971D01*
X109200000Y-67918828D01*
X109128571Y-67990257D01*
X108985714Y-68061685D01*
X108414285Y-68061685D01*
X109700000Y-67275971D02*
X110557142Y-67275971D01*
X110128571Y-68775971D02*
X110128571Y-67275971D01*
X136922142Y-108822371D02*
X137279285Y-109822371D01*
X137636428Y-108822371D01*
X138993571Y-109822371D02*
X138136428Y-109822371D01*
X138565000Y-109822371D02*
X138565000Y-108322371D01*
X138422142Y-108536657D01*
X138279285Y-108679514D01*
X138136428Y-108750942D01*
X139636428Y-109679514D02*
X139707857Y-109750942D01*
X139636428Y-109822371D01*
X139565000Y-109750942D01*
X139636428Y-109679514D01*
X139636428Y-109822371D01*
X140636428Y-108322371D02*
X140779285Y-108322371D01*
X140922142Y-108393800D01*
X140993571Y-108465228D01*
X141065000Y-108608085D01*
X141136428Y-108893800D01*
X141136428Y-109250942D01*
X141065000Y-109536657D01*
X140993571Y-109679514D01*
X140922142Y-109750942D01*
X140779285Y-109822371D01*
X140636428Y-109822371D01*
X140493571Y-109750942D01*
X140422142Y-109679514D01*
X140350714Y-109536657D01*
X140279285Y-109250942D01*
X140279285Y-108893800D01*
X140350714Y-108608085D01*
X140422142Y-108465228D01*
X140493571Y-108393800D01*
X140636428Y-108322371D01*
X90289342Y-90823171D02*
X90289342Y-89323171D01*
X90932200Y-90823171D02*
X90932200Y-90037457D01*
X90860771Y-89894600D01*
X90717914Y-89823171D01*
X90503628Y-89823171D01*
X90360771Y-89894600D01*
X90289342Y-89966028D01*
X91432200Y-89823171D02*
X92003628Y-89823171D01*
X91646485Y-89323171D02*
X91646485Y-90608885D01*
X91717914Y-90751742D01*
X91860771Y-90823171D01*
X92003628Y-90823171D01*
X92289342Y-89823171D02*
X92860771Y-89823171D01*
X92503628Y-89323171D02*
X92503628Y-90608885D01*
X92575057Y-90751742D01*
X92717914Y-90823171D01*
X92860771Y-90823171D01*
X93360771Y-89823171D02*
X93360771Y-91323171D01*
X93360771Y-89894600D02*
X93503628Y-89823171D01*
X93789342Y-89823171D01*
X93932200Y-89894600D01*
X94003628Y-89966028D01*
X94075057Y-90108885D01*
X94075057Y-90537457D01*
X94003628Y-90680314D01*
X93932200Y-90751742D01*
X93789342Y-90823171D01*
X93503628Y-90823171D01*
X93360771Y-90751742D01*
X94646485Y-90751742D02*
X94789342Y-90823171D01*
X95075057Y-90823171D01*
X95217914Y-90751742D01*
X95289342Y-90608885D01*
X95289342Y-90537457D01*
X95217914Y-90394600D01*
X95075057Y-90323171D01*
X94860771Y-90323171D01*
X94717914Y-90251742D01*
X94646485Y-90108885D01*
X94646485Y-90037457D01*
X94717914Y-89894600D01*
X94860771Y-89823171D01*
X95075057Y-89823171D01*
X95217914Y-89894600D01*
X95932200Y-90680314D02*
X96003628Y-90751742D01*
X95932200Y-90823171D01*
X95860771Y-90751742D01*
X95932200Y-90680314D01*
X95932200Y-90823171D01*
X95932200Y-89894600D02*
X96003628Y-89966028D01*
X95932200Y-90037457D01*
X95860771Y-89966028D01*
X95932200Y-89894600D01*
X95932200Y-90037457D01*
X97717914Y-89251742D02*
X96432200Y-91180314D01*
X99289342Y-89251742D02*
X98003628Y-91180314D01*
X100432200Y-89823171D02*
X100432200Y-91037457D01*
X100360771Y-91180314D01*
X100289342Y-91251742D01*
X100146485Y-91323171D01*
X99932200Y-91323171D01*
X99789342Y-91251742D01*
X100432200Y-90751742D02*
X100289342Y-90823171D01*
X100003628Y-90823171D01*
X99860771Y-90751742D01*
X99789342Y-90680314D01*
X99717914Y-90537457D01*
X99717914Y-90108885D01*
X99789342Y-89966028D01*
X99860771Y-89894600D01*
X100003628Y-89823171D01*
X100289342Y-89823171D01*
X100432200Y-89894600D01*
X101146485Y-90823171D02*
X101146485Y-89823171D01*
X101146485Y-89323171D02*
X101075057Y-89394600D01*
X101146485Y-89466028D01*
X101217914Y-89394600D01*
X101146485Y-89323171D01*
X101146485Y-89466028D01*
X101646485Y-89823171D02*
X102217914Y-89823171D01*
X101860771Y-89323171D02*
X101860771Y-90608885D01*
X101932200Y-90751742D01*
X102075057Y-90823171D01*
X102217914Y-90823171D01*
X102717914Y-90823171D02*
X102717914Y-89323171D01*
X103360771Y-90823171D02*
X103360771Y-90037457D01*
X103289342Y-89894600D01*
X103146485Y-89823171D01*
X102932200Y-89823171D01*
X102789342Y-89894600D01*
X102717914Y-89966028D01*
X104717914Y-89823171D02*
X104717914Y-90823171D01*
X104075057Y-89823171D02*
X104075057Y-90608885D01*
X104146485Y-90751742D01*
X104289342Y-90823171D01*
X104503628Y-90823171D01*
X104646485Y-90751742D01*
X104717914Y-90680314D01*
X105432200Y-90823171D02*
X105432200Y-89323171D01*
X105432200Y-89894600D02*
X105575057Y-89823171D01*
X105860771Y-89823171D01*
X106003628Y-89894600D01*
X106075057Y-89966028D01*
X106146485Y-90108885D01*
X106146485Y-90537457D01*
X106075057Y-90680314D01*
X106003628Y-90751742D01*
X105860771Y-90823171D01*
X105575057Y-90823171D01*
X105432200Y-90751742D01*
X106789342Y-90680314D02*
X106860771Y-90751742D01*
X106789342Y-90823171D01*
X106717914Y-90751742D01*
X106789342Y-90680314D01*
X106789342Y-90823171D01*
X108146485Y-90751742D02*
X108003628Y-90823171D01*
X107717914Y-90823171D01*
X107575057Y-90751742D01*
X107503628Y-90680314D01*
X107432200Y-90537457D01*
X107432200Y-90108885D01*
X107503628Y-89966028D01*
X107575057Y-89894600D01*
X107717914Y-89823171D01*
X108003628Y-89823171D01*
X108146485Y-89894600D01*
X109003628Y-90823171D02*
X108860771Y-90751742D01*
X108789342Y-90680314D01*
X108717914Y-90537457D01*
X108717914Y-90108885D01*
X108789342Y-89966028D01*
X108860771Y-89894600D01*
X109003628Y-89823171D01*
X109217914Y-89823171D01*
X109360771Y-89894600D01*
X109432200Y-89966028D01*
X109503628Y-90108885D01*
X109503628Y-90537457D01*
X109432200Y-90680314D01*
X109360771Y-90751742D01*
X109217914Y-90823171D01*
X109003628Y-90823171D01*
X110146485Y-90823171D02*
X110146485Y-89823171D01*
X110146485Y-89966028D02*
X110217914Y-89894600D01*
X110360771Y-89823171D01*
X110575057Y-89823171D01*
X110717914Y-89894600D01*
X110789342Y-90037457D01*
X110789342Y-90823171D01*
X110789342Y-90037457D02*
X110860771Y-89894600D01*
X111003628Y-89823171D01*
X111217914Y-89823171D01*
X111360771Y-89894600D01*
X111432200Y-90037457D01*
X111432200Y-90823171D01*
X113217914Y-89251742D02*
X111932200Y-91180314D01*
X114360771Y-90823171D02*
X114360771Y-90037457D01*
X114289342Y-89894600D01*
X114146485Y-89823171D01*
X113860771Y-89823171D01*
X113717914Y-89894600D01*
X114360771Y-90751742D02*
X114217914Y-90823171D01*
X113860771Y-90823171D01*
X113717914Y-90751742D01*
X113646485Y-90608885D01*
X113646485Y-90466028D01*
X113717914Y-90323171D01*
X113860771Y-90251742D01*
X114217914Y-90251742D01*
X114360771Y-90180314D01*
X114932200Y-89823171D02*
X115217914Y-90823171D01*
X115503628Y-90108885D01*
X115789342Y-90823171D01*
X116075057Y-89823171D01*
X116646485Y-90823171D02*
X116646485Y-89323171D01*
X116789342Y-90251742D02*
X117217914Y-90823171D01*
X117217914Y-89823171D02*
X116646485Y-90394600D01*
X117717914Y-89823171D02*
X118003628Y-90823171D01*
X118289342Y-90108885D01*
X118575057Y-90823171D01*
X118860771Y-89823171D01*
X120075057Y-90823171D02*
X120075057Y-90037457D01*
X120003628Y-89894600D01*
X119860771Y-89823171D01*
X119575057Y-89823171D01*
X119432200Y-89894600D01*
X120075057Y-90751742D02*
X119932200Y-90823171D01*
X119575057Y-90823171D01*
X119432200Y-90751742D01*
X119360771Y-90608885D01*
X119360771Y-90466028D01*
X119432200Y-90323171D01*
X119575057Y-90251742D01*
X119932200Y-90251742D01*
X120075057Y-90180314D01*
X120789342Y-90823171D02*
X120789342Y-89823171D01*
X120789342Y-90108885D02*
X120860771Y-89966028D01*
X120932200Y-89894600D01*
X121075057Y-89823171D01*
X121217914Y-89823171D01*
X122360771Y-90823171D02*
X122360771Y-89323171D01*
X122360771Y-90751742D02*
X122217914Y-90823171D01*
X121932200Y-90823171D01*
X121789342Y-90751742D01*
X121717914Y-90680314D01*
X121646485Y-90537457D01*
X121646485Y-90108885D01*
X121717914Y-89966028D01*
X121789342Y-89894600D01*
X121932200Y-89823171D01*
X122217914Y-89823171D01*
X122360771Y-89894600D01*
X123075057Y-90823171D02*
X123075057Y-89323171D01*
X123075057Y-89894600D02*
X123217914Y-89823171D01*
X123503628Y-89823171D01*
X123646485Y-89894600D01*
X123717914Y-89966028D01*
X123789342Y-90108885D01*
X123789342Y-90537457D01*
X123717914Y-90680314D01*
X123646485Y-90751742D01*
X123503628Y-90823171D01*
X123217914Y-90823171D01*
X123075057Y-90751742D01*
X125075057Y-89823171D02*
X125075057Y-90823171D01*
X124432200Y-89823171D02*
X124432200Y-90608885D01*
X124503628Y-90751742D01*
X124646485Y-90823171D01*
X124860771Y-90823171D01*
X125003628Y-90751742D01*
X125075057Y-90680314D01*
X125789342Y-89823171D02*
X125789342Y-90823171D01*
X125789342Y-89966028D02*
X125860771Y-89894600D01*
X126003628Y-89823171D01*
X126217914Y-89823171D01*
X126360771Y-89894600D01*
X126432200Y-90037457D01*
X126432200Y-90823171D01*
X127146485Y-89823171D02*
X127146485Y-90823171D01*
X127146485Y-89966028D02*
X127217914Y-89894600D01*
X127360771Y-89823171D01*
X127575057Y-89823171D01*
X127717914Y-89894600D01*
X127789342Y-90037457D01*
X127789342Y-90823171D01*
X128360771Y-89823171D02*
X128717914Y-90823171D01*
X129075057Y-89823171D02*
X128717914Y-90823171D01*
X128575057Y-91180314D01*
X128503628Y-91251742D01*
X128360771Y-91323171D01*
X130717914Y-89251742D02*
X129432200Y-91180314D01*
X132075057Y-90823171D02*
X131575057Y-90108885D01*
X131217914Y-90823171D02*
X131217914Y-89323171D01*
X131789342Y-89323171D01*
X131932200Y-89394600D01*
X132003628Y-89466028D01*
X132075057Y-89608885D01*
X132075057Y-89823171D01*
X132003628Y-89966028D01*
X131932200Y-90037457D01*
X131789342Y-90108885D01*
X131217914Y-90108885D01*
X133217914Y-90037457D02*
X133432200Y-90108885D01*
X133503628Y-90180314D01*
X133575057Y-90323171D01*
X133575057Y-90537457D01*
X133503628Y-90680314D01*
X133432200Y-90751742D01*
X133289342Y-90823171D01*
X132717914Y-90823171D01*
X132717914Y-89323171D01*
X133217914Y-89323171D01*
X133360771Y-89394600D01*
X133432200Y-89466028D01*
X133503628Y-89608885D01*
X133503628Y-89751742D01*
X133432200Y-89894600D01*
X133360771Y-89966028D01*
X133217914Y-90037457D01*
X132717914Y-90037457D01*
X134146485Y-90751742D02*
X134360771Y-90823171D01*
X134717914Y-90823171D01*
X134860771Y-90751742D01*
X134932200Y-90680314D01*
X135003628Y-90537457D01*
X135003628Y-90394600D01*
X134932200Y-90251742D01*
X134860771Y-90180314D01*
X134717914Y-90108885D01*
X134432200Y-90037457D01*
X134289342Y-89966028D01*
X134217914Y-89894600D01*
X134146485Y-89751742D01*
X134146485Y-89608885D01*
X134217914Y-89466028D01*
X134289342Y-89394600D01*
X134432200Y-89323171D01*
X134789342Y-89323171D01*
X135003628Y-89394600D01*
X135646485Y-90251742D02*
X136789342Y-90251742D01*
X137503628Y-90823171D02*
X137503628Y-89323171D01*
X137503628Y-90037457D02*
X138360771Y-90037457D01*
X138360771Y-90823171D02*
X138360771Y-89323171D01*
X139932200Y-90680314D02*
X139860771Y-90751742D01*
X139646485Y-90823171D01*
X139503628Y-90823171D01*
X139289342Y-90751742D01*
X139146485Y-90608885D01*
X139075057Y-90466028D01*
X139003628Y-90180314D01*
X139003628Y-89966028D01*
X139075057Y-89680314D01*
X139146485Y-89537457D01*
X139289342Y-89394600D01*
X139503628Y-89323171D01*
X139646485Y-89323171D01*
X139860771Y-89394600D01*
X139932200Y-89466028D01*
X140503628Y-89466028D02*
X140575057Y-89394600D01*
X140717914Y-89323171D01*
X141075057Y-89323171D01*
X141217914Y-89394600D01*
X141289342Y-89466028D01*
X141360771Y-89608885D01*
X141360771Y-89751742D01*
X141289342Y-89966028D01*
X140432200Y-90823171D01*
X141360771Y-90823171D01*
X142289342Y-89323171D02*
X142432200Y-89323171D01*
X142575057Y-89394600D01*
X142646485Y-89466028D01*
X142717914Y-89608885D01*
X142789342Y-89894600D01*
X142789342Y-90251742D01*
X142717914Y-90537457D01*
X142646485Y-90680314D01*
X142575057Y-90751742D01*
X142432200Y-90823171D01*
X142289342Y-90823171D01*
X142146485Y-90751742D01*
X142075057Y-90680314D01*
X142003628Y-90537457D01*
X141932200Y-90251742D01*
X141932200Y-89894600D01*
X142003628Y-89608885D01*
X142075057Y-89466028D01*
X142146485Y-89394600D01*
X142289342Y-89323171D01*
X144217914Y-90823171D02*
X143360771Y-90823171D01*
X143789342Y-90823171D02*
X143789342Y-89323171D01*
X143646485Y-89537457D01*
X143503628Y-89680314D01*
X143360771Y-89751742D01*
X144932200Y-90823171D02*
X145217914Y-90823171D01*
X145360771Y-90751742D01*
X145432200Y-90680314D01*
X145575057Y-90466028D01*
X145646485Y-90180314D01*
X145646485Y-89608885D01*
X145575057Y-89466028D01*
X145503628Y-89394600D01*
X145360771Y-89323171D01*
X145075057Y-89323171D01*
X144932200Y-89394600D01*
X144860771Y-89466028D01*
X144789342Y-89608885D01*
X144789342Y-89966028D01*
X144860771Y-90108885D01*
X144932200Y-90180314D01*
X145075057Y-90251742D01*
X145360771Y-90251742D01*
X145503628Y-90180314D01*
X145575057Y-90108885D01*
X145646485Y-89966028D01*
X96286799Y-109974771D02*
X96286799Y-108474771D01*
X96929657Y-109974771D02*
X96929657Y-109189057D01*
X96858228Y-109046200D01*
X96715371Y-108974771D01*
X96501085Y-108974771D01*
X96358228Y-109046200D01*
X96286799Y-109117628D01*
X97429657Y-108974771D02*
X98001085Y-108974771D01*
X97643942Y-108474771D02*
X97643942Y-109760485D01*
X97715371Y-109903342D01*
X97858228Y-109974771D01*
X98001085Y-109974771D01*
X98286799Y-108974771D02*
X98858228Y-108974771D01*
X98501085Y-108474771D02*
X98501085Y-109760485D01*
X98572514Y-109903342D01*
X98715371Y-109974771D01*
X98858228Y-109974771D01*
X99358228Y-108974771D02*
X99358228Y-110474771D01*
X99358228Y-109046200D02*
X99501085Y-108974771D01*
X99786799Y-108974771D01*
X99929657Y-109046200D01*
X100001085Y-109117628D01*
X100072514Y-109260485D01*
X100072514Y-109689057D01*
X100001085Y-109831914D01*
X99929657Y-109903342D01*
X99786799Y-109974771D01*
X99501085Y-109974771D01*
X99358228Y-109903342D01*
X100715371Y-109831914D02*
X100786799Y-109903342D01*
X100715371Y-109974771D01*
X100643942Y-109903342D01*
X100715371Y-109831914D01*
X100715371Y-109974771D01*
X100715371Y-109046200D02*
X100786799Y-109117628D01*
X100715371Y-109189057D01*
X100643942Y-109117628D01*
X100715371Y-109046200D01*
X100715371Y-109189057D01*
X102501085Y-108403342D02*
X101215371Y-110331914D01*
X104072514Y-108403342D02*
X102786799Y-110331914D01*
X104572514Y-109974771D02*
X104572514Y-108474771D01*
X104572514Y-109046200D02*
X104715371Y-108974771D01*
X105001085Y-108974771D01*
X105143942Y-109046200D01*
X105215371Y-109117628D01*
X105286799Y-109260485D01*
X105286799Y-109689057D01*
X105215371Y-109831914D01*
X105143942Y-109903342D01*
X105001085Y-109974771D01*
X104715371Y-109974771D01*
X104572514Y-109903342D01*
X105929657Y-109974771D02*
X105929657Y-108974771D01*
X105929657Y-108474771D02*
X105858228Y-108546200D01*
X105929657Y-108617628D01*
X106001085Y-108546200D01*
X105929657Y-108474771D01*
X105929657Y-108617628D01*
X106429657Y-108974771D02*
X107001085Y-108974771D01*
X106643942Y-108474771D02*
X106643942Y-109760485D01*
X106715371Y-109903342D01*
X106858228Y-109974771D01*
X107001085Y-109974771D01*
X107715371Y-109974771D02*
X107572514Y-109903342D01*
X107501085Y-109760485D01*
X107501085Y-108474771D01*
X108143942Y-108974771D02*
X108501085Y-109974771D01*
X108858228Y-108974771D02*
X108501085Y-109974771D01*
X108358228Y-110331914D01*
X108286799Y-110403342D01*
X108143942Y-110474771D01*
X109429657Y-109831914D02*
X109501085Y-109903342D01*
X109429657Y-109974771D01*
X109358228Y-109903342D01*
X109429657Y-109831914D01*
X109429657Y-109974771D01*
X110786799Y-109903342D02*
X110643942Y-109974771D01*
X110358228Y-109974771D01*
X110215371Y-109903342D01*
X110143942Y-109831914D01*
X110072514Y-109689057D01*
X110072514Y-109260485D01*
X110143942Y-109117628D01*
X110215371Y-109046200D01*
X110358228Y-108974771D01*
X110643942Y-108974771D01*
X110786799Y-109046200D01*
X111643942Y-109974771D02*
X111501085Y-109903342D01*
X111429657Y-109831914D01*
X111358228Y-109689057D01*
X111358228Y-109260485D01*
X111429657Y-109117628D01*
X111501085Y-109046200D01*
X111643942Y-108974771D01*
X111858228Y-108974771D01*
X112001085Y-109046200D01*
X112072514Y-109117628D01*
X112143942Y-109260485D01*
X112143942Y-109689057D01*
X112072514Y-109831914D01*
X112001085Y-109903342D01*
X111858228Y-109974771D01*
X111643942Y-109974771D01*
X112786799Y-109974771D02*
X112786799Y-108974771D01*
X112786799Y-109117628D02*
X112858228Y-109046200D01*
X113001085Y-108974771D01*
X113215371Y-108974771D01*
X113358228Y-109046200D01*
X113429657Y-109189057D01*
X113429657Y-109974771D01*
X113429657Y-109189057D02*
X113501085Y-109046200D01*
X113643942Y-108974771D01*
X113858228Y-108974771D01*
X114001085Y-109046200D01*
X114072514Y-109189057D01*
X114072514Y-109974771D01*
X115858228Y-108403342D02*
X114572514Y-110331914D01*
X116429657Y-109974771D02*
X116715371Y-109974771D01*
X116858228Y-109903342D01*
X116929657Y-109831914D01*
X117072514Y-109617628D01*
X117143942Y-109331914D01*
X117143942Y-108760485D01*
X117072514Y-108617628D01*
X117001085Y-108546200D01*
X116858228Y-108474771D01*
X116572514Y-108474771D01*
X116429657Y-108546200D01*
X116358228Y-108617628D01*
X116286800Y-108760485D01*
X116286800Y-109117628D01*
X116358228Y-109260485D01*
X116429657Y-109331914D01*
X116572514Y-109403342D01*
X116858228Y-109403342D01*
X117001085Y-109331914D01*
X117072514Y-109260485D01*
X117143942Y-109117628D01*
X118001085Y-109117628D02*
X117858228Y-109046200D01*
X117786800Y-108974771D01*
X117715371Y-108831914D01*
X117715371Y-108760485D01*
X117786800Y-108617628D01*
X117858228Y-108546200D01*
X118001085Y-108474771D01*
X118286800Y-108474771D01*
X118429657Y-108546200D01*
X118501085Y-108617628D01*
X118572514Y-108760485D01*
X118572514Y-108831914D01*
X118501085Y-108974771D01*
X118429657Y-109046200D01*
X118286800Y-109117628D01*
X118001085Y-109117628D01*
X117858228Y-109189057D01*
X117786800Y-109260485D01*
X117715371Y-109403342D01*
X117715371Y-109689057D01*
X117786800Y-109831914D01*
X117858228Y-109903342D01*
X118001085Y-109974771D01*
X118286800Y-109974771D01*
X118429657Y-109903342D01*
X118501085Y-109831914D01*
X118572514Y-109689057D01*
X118572514Y-109403342D01*
X118501085Y-109260485D01*
X118429657Y-109189057D01*
X118286800Y-109117628D01*
X119215371Y-109974771D02*
X119215371Y-108474771D01*
X120072514Y-109974771D02*
X119429657Y-109117628D01*
X120072514Y-108474771D02*
X119215371Y-109331914D01*
X120929657Y-109117628D02*
X120786800Y-109046200D01*
X120715371Y-108974771D01*
X120643942Y-108831914D01*
X120643942Y-108760485D01*
X120715371Y-108617628D01*
X120786800Y-108546200D01*
X120929657Y-108474771D01*
X121215371Y-108474771D01*
X121358228Y-108546200D01*
X121429657Y-108617628D01*
X121501085Y-108760485D01*
X121501085Y-108831914D01*
X121429657Y-108974771D01*
X121358228Y-109046200D01*
X121215371Y-109117628D01*
X120929657Y-109117628D01*
X120786800Y-109189057D01*
X120715371Y-109260485D01*
X120643942Y-109403342D01*
X120643942Y-109689057D01*
X120715371Y-109831914D01*
X120786800Y-109903342D01*
X120929657Y-109974771D01*
X121215371Y-109974771D01*
X121358228Y-109903342D01*
X121429657Y-109831914D01*
X121501085Y-109689057D01*
X121501085Y-109403342D01*
X121429657Y-109260485D01*
X121358228Y-109189057D01*
X121215371Y-109117628D01*
X122715371Y-109903342D02*
X122572514Y-109974771D01*
X122286800Y-109974771D01*
X122143942Y-109903342D01*
X122072514Y-109760485D01*
X122072514Y-109189057D01*
X122143942Y-109046200D01*
X122286800Y-108974771D01*
X122572514Y-108974771D01*
X122715371Y-109046200D01*
X122786800Y-109189057D01*
X122786800Y-109331914D01*
X122072514Y-109474771D01*
X123429657Y-109974771D02*
X123429657Y-108474771D01*
X123429657Y-109189057D02*
X124286800Y-109189057D01*
X124286800Y-109974771D02*
X124286800Y-108474771D01*
D11*
X154268942Y-137700771D02*
X154411800Y-137748390D01*
X154459419Y-137796009D01*
X154507038Y-137891247D01*
X154507038Y-138034104D01*
X154459419Y-138129342D01*
X154411800Y-138176961D01*
X154316561Y-138224580D01*
X153935609Y-138224580D01*
X153935609Y-137224580D01*
X154268942Y-137224580D01*
X154364180Y-137272200D01*
X154411800Y-137319819D01*
X154459419Y-137415057D01*
X154459419Y-137510295D01*
X154411800Y-137605533D01*
X154364180Y-137653152D01*
X154268942Y-137700771D01*
X153935609Y-137700771D01*
X154935609Y-138224580D02*
X154935609Y-137557914D01*
X154935609Y-137748390D02*
X154983228Y-137653152D01*
X155030847Y-137605533D01*
X155126085Y-137557914D01*
X155221323Y-137557914D01*
X155554657Y-138224580D02*
X155554657Y-137557914D01*
X155554657Y-137224580D02*
X155507038Y-137272200D01*
X155554657Y-137319819D01*
X155602276Y-137272200D01*
X155554657Y-137224580D01*
X155554657Y-137319819D01*
X156459419Y-138224580D02*
X156459419Y-137700771D01*
X156411800Y-137605533D01*
X156316561Y-137557914D01*
X156126085Y-137557914D01*
X156030847Y-137605533D01*
X156459419Y-138176961D02*
X156364180Y-138224580D01*
X156126085Y-138224580D01*
X156030847Y-138176961D01*
X155983228Y-138081723D01*
X155983228Y-137986485D01*
X156030847Y-137891247D01*
X156126085Y-137843628D01*
X156364180Y-137843628D01*
X156459419Y-137796009D01*
X156935609Y-137557914D02*
X156935609Y-138224580D01*
X156935609Y-137653152D02*
X156983228Y-137605533D01*
X157078466Y-137557914D01*
X157221323Y-137557914D01*
X157316561Y-137605533D01*
X157364180Y-137700771D01*
X157364180Y-138224580D01*
X158602276Y-138224580D02*
X158602276Y-137224580D01*
X158602276Y-137700771D02*
X159173704Y-137700771D01*
X159173704Y-138224580D02*
X159173704Y-137224580D01*
X159792752Y-138224580D02*
X159697514Y-138176961D01*
X159649895Y-138129342D01*
X159602276Y-138034104D01*
X159602276Y-137748390D01*
X159649895Y-137653152D01*
X159697514Y-137605533D01*
X159792752Y-137557914D01*
X159935609Y-137557914D01*
X160030847Y-137605533D01*
X160078466Y-137653152D01*
X160126085Y-137748390D01*
X160126085Y-138034104D01*
X160078466Y-138129342D01*
X160030847Y-138176961D01*
X159935609Y-138224580D01*
X159792752Y-138224580D01*
X160554657Y-137557914D02*
X160554657Y-138224580D01*
X160554657Y-137653152D02*
X160602276Y-137605533D01*
X160697514Y-137557914D01*
X160840371Y-137557914D01*
X160935609Y-137605533D01*
X160983228Y-137700771D01*
X160983228Y-138224580D01*
X161887990Y-137557914D02*
X161887990Y-138367438D01*
X161840371Y-138462676D01*
X161792752Y-138510295D01*
X161697514Y-138557914D01*
X161554657Y-138557914D01*
X161459419Y-138510295D01*
X161887990Y-138176961D02*
X161792752Y-138224580D01*
X161602276Y-138224580D01*
X161507038Y-138176961D01*
X161459419Y-138129342D01*
X161411800Y-138034104D01*
X161411800Y-137748390D01*
X161459419Y-137653152D01*
X161507038Y-137605533D01*
X161602276Y-137557914D01*
X161792752Y-137557914D01*
X161887990Y-137605533D01*
X154578466Y-139450771D02*
X154721323Y-139498390D01*
X154768942Y-139546009D01*
X154816561Y-139641247D01*
X154816561Y-139784104D01*
X154768942Y-139879342D01*
X154721323Y-139926961D01*
X154626085Y-139974580D01*
X154245133Y-139974580D01*
X154245133Y-138974580D01*
X154578466Y-138974580D01*
X154673704Y-139022200D01*
X154721323Y-139069819D01*
X154768942Y-139165057D01*
X154768942Y-139260295D01*
X154721323Y-139355533D01*
X154673704Y-139403152D01*
X154578466Y-139450771D01*
X154245133Y-139450771D01*
X155245133Y-139974580D02*
X155245133Y-139307914D01*
X155245133Y-139498390D02*
X155292752Y-139403152D01*
X155340371Y-139355533D01*
X155435609Y-139307914D01*
X155530847Y-139307914D01*
X156245133Y-139926961D02*
X156149895Y-139974580D01*
X155959419Y-139974580D01*
X155864180Y-139926961D01*
X155816561Y-139831723D01*
X155816561Y-139450771D01*
X155864180Y-139355533D01*
X155959419Y-139307914D01*
X156149895Y-139307914D01*
X156245133Y-139355533D01*
X156292752Y-139450771D01*
X156292752Y-139546009D01*
X155816561Y-139641247D01*
X156721323Y-139307914D02*
X156721323Y-139974580D01*
X156721323Y-139403152D02*
X156768942Y-139355533D01*
X156864180Y-139307914D01*
X157007038Y-139307914D01*
X157102276Y-139355533D01*
X157149895Y-139450771D01*
X157149895Y-139974580D01*
X158054657Y-139974580D02*
X158054657Y-138974580D01*
X158054657Y-139926961D02*
X157959419Y-139974580D01*
X157768942Y-139974580D01*
X157673704Y-139926961D01*
X157626085Y-139879342D01*
X157578466Y-139784104D01*
X157578466Y-139498390D01*
X157626085Y-139403152D01*
X157673704Y-139355533D01*
X157768942Y-139307914D01*
X157959419Y-139307914D01*
X158054657Y-139355533D01*
X158959419Y-139974580D02*
X158959419Y-139450771D01*
X158911800Y-139355533D01*
X158816561Y-139307914D01*
X158626085Y-139307914D01*
X158530847Y-139355533D01*
X158959419Y-139926961D02*
X158864180Y-139974580D01*
X158626085Y-139974580D01*
X158530847Y-139926961D01*
X158483228Y-139831723D01*
X158483228Y-139736485D01*
X158530847Y-139641247D01*
X158626085Y-139593628D01*
X158864180Y-139593628D01*
X158959419Y-139546009D01*
X160149895Y-139926961D02*
X160292752Y-139974580D01*
X160530847Y-139974580D01*
X160626085Y-139926961D01*
X160673704Y-139879342D01*
X160721323Y-139784104D01*
X160721323Y-139688866D01*
X160673704Y-139593628D01*
X160626085Y-139546009D01*
X160530847Y-139498390D01*
X160340371Y-139450771D01*
X160245133Y-139403152D01*
X160197514Y-139355533D01*
X160149895Y-139260295D01*
X160149895Y-139165057D01*
X160197514Y-139069819D01*
X160245133Y-139022200D01*
X160340371Y-138974580D01*
X160578466Y-138974580D01*
X160721323Y-139022200D01*
X161292752Y-139974580D02*
X161197514Y-139926961D01*
X161149895Y-139879342D01*
X161102276Y-139784104D01*
X161102276Y-139498390D01*
X161149895Y-139403152D01*
X161197514Y-139355533D01*
X161292752Y-139307914D01*
X161435609Y-139307914D01*
X161530847Y-139355533D01*
X161578466Y-139403152D01*
X161626085Y-139498390D01*
X161626085Y-139784104D01*
X161578466Y-139879342D01*
X161530847Y-139926961D01*
X161435609Y-139974580D01*
X161292752Y-139974580D01*
X154530847Y-141724580D02*
X154197514Y-141248390D01*
X153959419Y-141724580D02*
X153959419Y-140724580D01*
X154340371Y-140724580D01*
X154435609Y-140772200D01*
X154483228Y-140819819D01*
X154530847Y-140915057D01*
X154530847Y-141057914D01*
X154483228Y-141153152D01*
X154435609Y-141200771D01*
X154340371Y-141248390D01*
X153959419Y-141248390D01*
X155387990Y-141724580D02*
X155387990Y-141200771D01*
X155340371Y-141105533D01*
X155245133Y-141057914D01*
X155054657Y-141057914D01*
X154959419Y-141105533D01*
X155387990Y-141676961D02*
X155292752Y-141724580D01*
X155054657Y-141724580D01*
X154959419Y-141676961D01*
X154911800Y-141581723D01*
X154911800Y-141486485D01*
X154959419Y-141391247D01*
X155054657Y-141343628D01*
X155292752Y-141343628D01*
X155387990Y-141296009D01*
X155721323Y-141057914D02*
X156102276Y-141057914D01*
X155864180Y-141724580D02*
X155864180Y-140867438D01*
X155911800Y-140772200D01*
X156007038Y-140724580D01*
X156102276Y-140724580D01*
X156435609Y-141724580D02*
X156435609Y-141057914D01*
X156435609Y-140724580D02*
X156387990Y-140772200D01*
X156435609Y-140819819D01*
X156483228Y-140772200D01*
X156435609Y-140724580D01*
X156435609Y-140819819D01*
X157673704Y-141724580D02*
X157673704Y-140724580D01*
X158007038Y-141438866D01*
X158340371Y-140724580D01*
X158340371Y-141724580D01*
X159245133Y-141057914D02*
X159245133Y-141724580D01*
X158816561Y-141057914D02*
X158816561Y-141581723D01*
X158864180Y-141676961D01*
X158959419Y-141724580D01*
X159102276Y-141724580D01*
X159197514Y-141676961D01*
X159245133Y-141629342D01*
X160102276Y-141676961D02*
X160007038Y-141724580D01*
X159816561Y-141724580D01*
X159721323Y-141676961D01*
X159673704Y-141581723D01*
X159673704Y-141200771D01*
X159721323Y-141105533D01*
X159816561Y-141057914D01*
X160007038Y-141057914D01*
X160102276Y-141105533D01*
X160149895Y-141200771D01*
X160149895Y-141296009D01*
X159673704Y-141391247D01*
X160959419Y-141676961D02*
X160864180Y-141724580D01*
X160673704Y-141724580D01*
X160578466Y-141676961D01*
X160530847Y-141581723D01*
X160530847Y-141200771D01*
X160578466Y-141105533D01*
X160673704Y-141057914D01*
X160864180Y-141057914D01*
X160959419Y-141105533D01*
X161007038Y-141200771D01*
X161007038Y-141296009D01*
X160530847Y-141391247D01*
X161435609Y-141057914D02*
X161435609Y-141724580D01*
X161435609Y-141153152D02*
X161483228Y-141105533D01*
X161578466Y-141057914D01*
X161721323Y-141057914D01*
X161816561Y-141105533D01*
X161864180Y-141200771D01*
X161864180Y-141724580D01*
D10*
X69736171Y-89083600D02*
X69021885Y-89583600D01*
X69736171Y-89940742D02*
X68236171Y-89940742D01*
X68236171Y-89369314D01*
X68307600Y-89226457D01*
X68379028Y-89155028D01*
X68521885Y-89083600D01*
X68736171Y-89083600D01*
X68879028Y-89155028D01*
X68950457Y-89226457D01*
X69021885Y-89369314D01*
X69021885Y-89940742D01*
X69664742Y-87869314D02*
X69736171Y-88012171D01*
X69736171Y-88297885D01*
X69664742Y-88440742D01*
X69521885Y-88512171D01*
X68950457Y-88512171D01*
X68807600Y-88440742D01*
X68736171Y-88297885D01*
X68736171Y-88012171D01*
X68807600Y-87869314D01*
X68950457Y-87797885D01*
X69093314Y-87797885D01*
X69236171Y-88512171D01*
X69736171Y-86512171D02*
X68236171Y-86512171D01*
X69664742Y-86512171D02*
X69736171Y-86655028D01*
X69736171Y-86940742D01*
X69664742Y-87083600D01*
X69593314Y-87155028D01*
X69450457Y-87226457D01*
X69021885Y-87226457D01*
X68879028Y-87155028D01*
X68807600Y-87083600D01*
X68736171Y-86940742D01*
X68736171Y-86655028D01*
X68807600Y-86512171D01*
X68950457Y-84155028D02*
X69021885Y-83940742D01*
X69093314Y-83869314D01*
X69236171Y-83797885D01*
X69450457Y-83797885D01*
X69593314Y-83869314D01*
X69664742Y-83940742D01*
X69736171Y-84083600D01*
X69736171Y-84655028D01*
X68236171Y-84655028D01*
X68236171Y-84155028D01*
X68307600Y-84012171D01*
X68379028Y-83940742D01*
X68521885Y-83869314D01*
X68664742Y-83869314D01*
X68807600Y-83940742D01*
X68879028Y-84012171D01*
X68950457Y-84155028D01*
X68950457Y-84655028D01*
X69736171Y-82512171D02*
X68950457Y-82512171D01*
X68807600Y-82583600D01*
X68736171Y-82726457D01*
X68736171Y-83012171D01*
X68807600Y-83155028D01*
X69664742Y-82512171D02*
X69736171Y-82655028D01*
X69736171Y-83012171D01*
X69664742Y-83155028D01*
X69521885Y-83226457D01*
X69379028Y-83226457D01*
X69236171Y-83155028D01*
X69164742Y-83012171D01*
X69164742Y-82655028D01*
X69093314Y-82512171D01*
X69736171Y-81583600D02*
X69664742Y-81726457D01*
X69521885Y-81797885D01*
X68236171Y-81797885D01*
X69736171Y-80797885D02*
X69664742Y-80940742D01*
X69521885Y-81012171D01*
X68236171Y-81012171D01*
X69736171Y-80012171D02*
X69664742Y-80155028D01*
X69593314Y-80226457D01*
X69450457Y-80297885D01*
X69021885Y-80297885D01*
X68879028Y-80226457D01*
X68807600Y-80155028D01*
X68736171Y-80012171D01*
X68736171Y-79797885D01*
X68807600Y-79655028D01*
X68879028Y-79583600D01*
X69021885Y-79512171D01*
X69450457Y-79512171D01*
X69593314Y-79583600D01*
X69664742Y-79655028D01*
X69736171Y-79797885D01*
X69736171Y-80012171D01*
X69736171Y-78655028D02*
X69664742Y-78797885D01*
X69593314Y-78869314D01*
X69450457Y-78940742D01*
X69021885Y-78940742D01*
X68879028Y-78869314D01*
X68807600Y-78797885D01*
X68736171Y-78655028D01*
X68736171Y-78440742D01*
X68807600Y-78297885D01*
X68879028Y-78226457D01*
X69021885Y-78155028D01*
X69450457Y-78155028D01*
X69593314Y-78226457D01*
X69664742Y-78297885D01*
X69736171Y-78440742D01*
X69736171Y-78655028D01*
X68736171Y-77512171D02*
X69736171Y-77512171D01*
X68879028Y-77512171D02*
X68807600Y-77440742D01*
X68736171Y-77297885D01*
X68736171Y-77083600D01*
X68807600Y-76940742D01*
X68950457Y-76869314D01*
X69736171Y-76869314D01*
X69664742Y-75083600D02*
X69736171Y-74869314D01*
X69736171Y-74512171D01*
X69664742Y-74369314D01*
X69593314Y-74297885D01*
X69450457Y-74226457D01*
X69307600Y-74226457D01*
X69164742Y-74297885D01*
X69093314Y-74369314D01*
X69021885Y-74512171D01*
X68950457Y-74797885D01*
X68879028Y-74940742D01*
X68807600Y-75012171D01*
X68664742Y-75083600D01*
X68521885Y-75083600D01*
X68379028Y-75012171D01*
X68307600Y-74940742D01*
X68236171Y-74797885D01*
X68236171Y-74440742D01*
X68307600Y-74226457D01*
X69664742Y-73012171D02*
X69736171Y-73155028D01*
X69736171Y-73440742D01*
X69664742Y-73583600D01*
X69521885Y-73655028D01*
X68950457Y-73655028D01*
X68807600Y-73583600D01*
X68736171Y-73440742D01*
X68736171Y-73155028D01*
X68807600Y-73012171D01*
X68950457Y-72940742D01*
X69093314Y-72940742D01*
X69236171Y-73655028D01*
X69664742Y-71655028D02*
X69736171Y-71797885D01*
X69736171Y-72083600D01*
X69664742Y-72226457D01*
X69593314Y-72297885D01*
X69450457Y-72369314D01*
X69021885Y-72369314D01*
X68879028Y-72297885D01*
X68807600Y-72226457D01*
X68736171Y-72083600D01*
X68736171Y-71797885D01*
X68807600Y-71655028D01*
X68736171Y-70369314D02*
X69736171Y-70369314D01*
X68736171Y-71012171D02*
X69521885Y-71012171D01*
X69664742Y-70940742D01*
X69736171Y-70797885D01*
X69736171Y-70583600D01*
X69664742Y-70440742D01*
X69593314Y-70369314D01*
X69736171Y-69655028D02*
X68736171Y-69655028D01*
X69021885Y-69655028D02*
X68879028Y-69583600D01*
X68807600Y-69512171D01*
X68736171Y-69369314D01*
X68736171Y-69226457D01*
X69736171Y-68726457D02*
X68736171Y-68726457D01*
X68236171Y-68726457D02*
X68307600Y-68797885D01*
X68379028Y-68726457D01*
X68307600Y-68655028D01*
X68236171Y-68726457D01*
X68379028Y-68726457D01*
X68736171Y-68226457D02*
X68736171Y-67655028D01*
X68236171Y-68012171D02*
X69521885Y-68012171D01*
X69664742Y-67940742D01*
X69736171Y-67797885D01*
X69736171Y-67655028D01*
X68736171Y-67297885D02*
X69736171Y-66940742D01*
X68736171Y-66583600D02*
X69736171Y-66940742D01*
X70093314Y-67083600D01*
X70164742Y-67155028D01*
X70236171Y-67297885D01*
X72286171Y-88012171D02*
X70786171Y-88012171D01*
X71500457Y-88012171D02*
X71500457Y-87155028D01*
X72286171Y-87155028D02*
X70786171Y-87155028D01*
X72286171Y-85797885D02*
X71500457Y-85797885D01*
X71357600Y-85869314D01*
X71286171Y-86012171D01*
X71286171Y-86297885D01*
X71357600Y-86440742D01*
X72214742Y-85797885D02*
X72286171Y-85940742D01*
X72286171Y-86297885D01*
X72214742Y-86440742D01*
X72071885Y-86512171D01*
X71929028Y-86512171D01*
X71786171Y-86440742D01*
X71714742Y-86297885D01*
X71714742Y-85940742D01*
X71643314Y-85797885D01*
X72214742Y-84440742D02*
X72286171Y-84583600D01*
X72286171Y-84869314D01*
X72214742Y-85012171D01*
X72143314Y-85083600D01*
X72000457Y-85155028D01*
X71571885Y-85155028D01*
X71429028Y-85083600D01*
X71357600Y-85012171D01*
X71286171Y-84869314D01*
X71286171Y-84583600D01*
X71357600Y-84440742D01*
X72286171Y-83797885D02*
X70786171Y-83797885D01*
X71714742Y-83655028D02*
X72286171Y-83226457D01*
X71286171Y-83226457D02*
X71857600Y-83797885D01*
X72143314Y-81726457D02*
X72214742Y-81797885D01*
X72286171Y-82012171D01*
X72286171Y-82155028D01*
X72214742Y-82369314D01*
X72071885Y-82512171D01*
X71929028Y-82583600D01*
X71643314Y-82655028D01*
X71429028Y-82655028D01*
X71143314Y-82583600D01*
X71000457Y-82512171D01*
X70857600Y-82369314D01*
X70786171Y-82155028D01*
X70786171Y-82012171D01*
X70857600Y-81797885D01*
X70929028Y-81726457D01*
X72286171Y-80869314D02*
X72214742Y-81012171D01*
X72143314Y-81083600D01*
X72000457Y-81155028D01*
X71571885Y-81155028D01*
X71429028Y-81083600D01*
X71357600Y-81012171D01*
X71286171Y-80869314D01*
X71286171Y-80655028D01*
X71357600Y-80512171D01*
X71429028Y-80440742D01*
X71571885Y-80369314D01*
X72000457Y-80369314D01*
X72143314Y-80440742D01*
X72214742Y-80512171D01*
X72286171Y-80655028D01*
X72286171Y-80869314D01*
X72286171Y-79512171D02*
X72214742Y-79655028D01*
X72143314Y-79726457D01*
X72000457Y-79797885D01*
X71571885Y-79797885D01*
X71429028Y-79726457D01*
X71357600Y-79655028D01*
X71286171Y-79512171D01*
X71286171Y-79297885D01*
X71357600Y-79155028D01*
X71429028Y-79083600D01*
X71571885Y-79012171D01*
X72000457Y-79012171D01*
X72143314Y-79083600D01*
X72214742Y-79155028D01*
X72286171Y-79297885D01*
X72286171Y-79512171D01*
X71286171Y-78369314D02*
X72786171Y-78369314D01*
X71357600Y-78369314D02*
X71286171Y-78226457D01*
X71286171Y-77940742D01*
X71357600Y-77797885D01*
X71429028Y-77726457D01*
X71571885Y-77655028D01*
X72000457Y-77655028D01*
X72143314Y-77726457D01*
X72214742Y-77797885D01*
X72286171Y-77940742D01*
X72286171Y-78226457D01*
X72214742Y-78369314D01*
X72214742Y-76440742D02*
X72286171Y-76583600D01*
X72286171Y-76869314D01*
X72214742Y-77012171D01*
X72071885Y-77083600D01*
X71500457Y-77083600D01*
X71357600Y-77012171D01*
X71286171Y-76869314D01*
X71286171Y-76583600D01*
X71357600Y-76440742D01*
X71500457Y-76369314D01*
X71643314Y-76369314D01*
X71786171Y-77083600D01*
X72286171Y-75726457D02*
X71286171Y-75726457D01*
X71571885Y-75726457D02*
X71429028Y-75655028D01*
X71357600Y-75583600D01*
X71286171Y-75440742D01*
X71286171Y-75297885D01*
X70929028Y-73726457D02*
X70857600Y-73655028D01*
X70786171Y-73512171D01*
X70786171Y-73155028D01*
X70857600Y-73012171D01*
X70929028Y-72940742D01*
X71071885Y-72869314D01*
X71214742Y-72869314D01*
X71429028Y-72940742D01*
X72286171Y-73797885D01*
X72286171Y-72869314D01*
X70786171Y-71940742D02*
X70786171Y-71797885D01*
X70857600Y-71655028D01*
X70929028Y-71583600D01*
X71071885Y-71512171D01*
X71357600Y-71440742D01*
X71714742Y-71440742D01*
X72000457Y-71512171D01*
X72143314Y-71583600D01*
X72214742Y-71655028D01*
X72286171Y-71797885D01*
X72286171Y-71940742D01*
X72214742Y-72083600D01*
X72143314Y-72155028D01*
X72000457Y-72226457D01*
X71714742Y-72297885D01*
X71357600Y-72297885D01*
X71071885Y-72226457D01*
X70929028Y-72155028D01*
X70857600Y-72083600D01*
X70786171Y-71940742D01*
X72286171Y-70012171D02*
X72286171Y-70869314D01*
X72286171Y-70440742D02*
X70786171Y-70440742D01*
X71000457Y-70583600D01*
X71143314Y-70726457D01*
X71214742Y-70869314D01*
X72286171Y-69297885D02*
X72286171Y-69012171D01*
X72214742Y-68869314D01*
X72143314Y-68797885D01*
X71929028Y-68655028D01*
X71643314Y-68583600D01*
X71071885Y-68583600D01*
X70929028Y-68655028D01*
X70857600Y-68726457D01*
X70786171Y-68869314D01*
X70786171Y-69155028D01*
X70857600Y-69297885D01*
X70929028Y-69369314D01*
X71071885Y-69440742D01*
X71429028Y-69440742D01*
X71571885Y-69369314D01*
X71643314Y-69297885D01*
X71714742Y-69155028D01*
X71714742Y-68869314D01*
X71643314Y-68726457D01*
X71571885Y-68655028D01*
X71429028Y-68583600D01*
D12*
G04 #@! TO.C,BT1*
X78962000Y-98945100D02*
X78962000Y-105945100D01*
X160102000Y-104822000D02*
X160102000Y-102322000D01*
X73852000Y-103385100D02*
X76352000Y-103385100D01*
X156242000Y-119825100D02*
X78962000Y-119825100D01*
X78962000Y-105945100D02*
X74602000Y-105945100D01*
X156242000Y-112825100D02*
X156242000Y-119825100D01*
X78962000Y-119825100D02*
X78962000Y-112825100D01*
X156242000Y-105945100D02*
X156242000Y-98965100D01*
X161352000Y-103385100D02*
X158852000Y-103385100D01*
X78962000Y-86818900D02*
X74602000Y-86818900D01*
X78962000Y-100698900D02*
X78962000Y-93698900D01*
X156242000Y-93698900D02*
X156242000Y-100698900D01*
X78962000Y-79818900D02*
X78962000Y-86818900D01*
X156242000Y-79818900D02*
X78962000Y-79818900D01*
X156242000Y-86818900D02*
X156242000Y-79838900D01*
X161352000Y-84258900D02*
X158852000Y-84258900D01*
X73852000Y-84258900D02*
X76352000Y-84258900D01*
X75102000Y-85508900D02*
X75102000Y-83008900D01*
G04 #@! TO.C,C1*
X109955400Y-138370052D02*
X109955400Y-137847548D01*
X108535400Y-138370052D02*
X108535400Y-137847548D01*
G04 #@! TO.C,C2*
X110694400Y-138361052D02*
X110694400Y-137838548D01*
X112114400Y-138361052D02*
X112114400Y-137838548D01*
G04 #@! TO.C,C3*
X114248000Y-138370052D02*
X114248000Y-137847548D01*
X112828000Y-138370052D02*
X112828000Y-137847548D01*
G04 #@! TO.C,C4*
X114961600Y-138344652D02*
X114961600Y-137822148D01*
X116381600Y-138344652D02*
X116381600Y-137822148D01*
G04 #@! TO.C,C5*
X128576000Y-125550452D02*
X128576000Y-125027948D01*
X129996000Y-125550452D02*
X129996000Y-125027948D01*
G04 #@! TO.C,C6*
X132383600Y-125550452D02*
X132383600Y-125027948D01*
X130963600Y-125550452D02*
X130963600Y-125027948D01*
G04 #@! TO.C,C7*
X133351200Y-125568452D02*
X133351200Y-125045948D01*
X134771200Y-125568452D02*
X134771200Y-125045948D01*
G04 #@! TO.C,D1*
X107727600Y-129720000D02*
X107597600Y-129720000D01*
X107597600Y-129720000D02*
X107597600Y-124280000D01*
X107597600Y-124280000D02*
X107727600Y-124280000D01*
X110407600Y-129720000D02*
X110537600Y-129720000D01*
X110537600Y-129720000D02*
X110537600Y-124280000D01*
X110537600Y-124280000D02*
X110407600Y-124280000D01*
X107597600Y-128820000D02*
X110537600Y-128820000D01*
X107597600Y-128700000D02*
X110537600Y-128700000D01*
X107597600Y-128940000D02*
X110537600Y-128940000D01*
G04 #@! TO.C,J1*
X157641600Y-77784000D02*
X157641600Y-72584000D01*
X109321600Y-77784000D02*
X157641600Y-77784000D01*
X106721600Y-72584000D02*
X157641600Y-72584000D01*
X109321600Y-77784000D02*
X109321600Y-75184000D01*
X109321600Y-75184000D02*
X106721600Y-75184000D01*
X106721600Y-75184000D02*
X106721600Y-72584000D01*
X108051600Y-77784000D02*
X106721600Y-77784000D01*
X106721600Y-77784000D02*
X106721600Y-76454000D01*
G04 #@! TO.C,J2*
X77206800Y-74506000D02*
X87486800Y-74506000D01*
X87486800Y-74506000D02*
X87486800Y-71846000D01*
X87486800Y-71846000D02*
X77206800Y-71846000D01*
X77206800Y-71846000D02*
X77206800Y-74506000D01*
X78156800Y-71846000D02*
X78156800Y-65846000D01*
X78156800Y-65846000D02*
X78916800Y-65846000D01*
X78916800Y-65846000D02*
X78916800Y-71846000D01*
X78216800Y-71846000D02*
X78216800Y-65846000D01*
X78336800Y-71846000D02*
X78336800Y-65846000D01*
X78456800Y-71846000D02*
X78456800Y-65846000D01*
X78576800Y-71846000D02*
X78576800Y-65846000D01*
X78696800Y-71846000D02*
X78696800Y-65846000D01*
X78816800Y-71846000D02*
X78816800Y-65846000D01*
X78156800Y-74836000D02*
X78156800Y-74506000D01*
X78916800Y-74836000D02*
X78916800Y-74506000D01*
X79806800Y-74506000D02*
X79806800Y-71846000D01*
X80696800Y-71846000D02*
X80696800Y-65846000D01*
X80696800Y-65846000D02*
X81456800Y-65846000D01*
X81456800Y-65846000D02*
X81456800Y-71846000D01*
X80696800Y-74903071D02*
X80696800Y-74506000D01*
X81456800Y-74903071D02*
X81456800Y-74506000D01*
X82346800Y-74506000D02*
X82346800Y-71846000D01*
X83236800Y-71846000D02*
X83236800Y-65846000D01*
X83236800Y-65846000D02*
X83996800Y-65846000D01*
X83996800Y-65846000D02*
X83996800Y-71846000D01*
X83236800Y-74903071D02*
X83236800Y-74506000D01*
X83996800Y-74903071D02*
X83996800Y-74506000D01*
X84886800Y-74506000D02*
X84886800Y-71846000D01*
X85776800Y-71846000D02*
X85776800Y-65846000D01*
X85776800Y-65846000D02*
X86536800Y-65846000D01*
X86536800Y-65846000D02*
X86536800Y-71846000D01*
X85776800Y-74903071D02*
X85776800Y-74506000D01*
X86536800Y-74903071D02*
X86536800Y-74506000D01*
X78536800Y-77216000D02*
X77266800Y-77216000D01*
X77266800Y-77216000D02*
X77266800Y-75946000D01*
G04 #@! TO.C,J3*
X127101600Y-71551800D02*
X127101600Y-70281800D01*
X128371600Y-71551800D02*
X127101600Y-71551800D01*
X131291600Y-69238871D02*
X131291600Y-68841800D01*
X130531600Y-69238871D02*
X130531600Y-68841800D01*
X131291600Y-60181800D02*
X131291600Y-66181800D01*
X130531600Y-60181800D02*
X131291600Y-60181800D01*
X130531600Y-66181800D02*
X130531600Y-60181800D01*
X129641600Y-68841800D02*
X129641600Y-66181800D01*
X128751600Y-69171800D02*
X128751600Y-68841800D01*
X127991600Y-69171800D02*
X127991600Y-68841800D01*
X128651600Y-66181800D02*
X128651600Y-60181800D01*
X128531600Y-66181800D02*
X128531600Y-60181800D01*
X128411600Y-66181800D02*
X128411600Y-60181800D01*
X128291600Y-66181800D02*
X128291600Y-60181800D01*
X128171600Y-66181800D02*
X128171600Y-60181800D01*
X128051600Y-66181800D02*
X128051600Y-60181800D01*
X128751600Y-60181800D02*
X128751600Y-66181800D01*
X127991600Y-60181800D02*
X128751600Y-60181800D01*
X127991600Y-66181800D02*
X127991600Y-60181800D01*
X127041600Y-66181800D02*
X127041600Y-68841800D01*
X132241600Y-66181800D02*
X127041600Y-66181800D01*
X132241600Y-68841800D02*
X132241600Y-66181800D01*
X127041600Y-68841800D02*
X132241600Y-68841800D01*
G04 #@! TO.C,J4*
X91557800Y-74582200D02*
X101837800Y-74582200D01*
X101837800Y-74582200D02*
X101837800Y-71922200D01*
X101837800Y-71922200D02*
X91557800Y-71922200D01*
X91557800Y-71922200D02*
X91557800Y-74582200D01*
X92507800Y-71922200D02*
X92507800Y-65922200D01*
X92507800Y-65922200D02*
X93267800Y-65922200D01*
X93267800Y-65922200D02*
X93267800Y-71922200D01*
X92567800Y-71922200D02*
X92567800Y-65922200D01*
X92687800Y-71922200D02*
X92687800Y-65922200D01*
X92807800Y-71922200D02*
X92807800Y-65922200D01*
X92927800Y-71922200D02*
X92927800Y-65922200D01*
X93047800Y-71922200D02*
X93047800Y-65922200D01*
X93167800Y-71922200D02*
X93167800Y-65922200D01*
X92507800Y-74912200D02*
X92507800Y-74582200D01*
X93267800Y-74912200D02*
X93267800Y-74582200D01*
X94157800Y-74582200D02*
X94157800Y-71922200D01*
X95047800Y-71922200D02*
X95047800Y-65922200D01*
X95047800Y-65922200D02*
X95807800Y-65922200D01*
X95807800Y-65922200D02*
X95807800Y-71922200D01*
X95047800Y-74979271D02*
X95047800Y-74582200D01*
X95807800Y-74979271D02*
X95807800Y-74582200D01*
X96697800Y-74582200D02*
X96697800Y-71922200D01*
X97587800Y-71922200D02*
X97587800Y-65922200D01*
X97587800Y-65922200D02*
X98347800Y-65922200D01*
X98347800Y-65922200D02*
X98347800Y-71922200D01*
X97587800Y-74979271D02*
X97587800Y-74582200D01*
X98347800Y-74979271D02*
X98347800Y-74582200D01*
X99237800Y-74582200D02*
X99237800Y-71922200D01*
X100127800Y-71922200D02*
X100127800Y-65922200D01*
X100127800Y-65922200D02*
X100887800Y-65922200D01*
X100887800Y-65922200D02*
X100887800Y-71922200D01*
X100127800Y-74979271D02*
X100127800Y-74582200D01*
X100887800Y-74979271D02*
X100887800Y-74582200D01*
X92887800Y-77292200D02*
X91617800Y-77292200D01*
X91617800Y-77292200D02*
X91617800Y-76022200D01*
G04 #@! TO.C,J5*
X134661600Y-68841800D02*
X139861600Y-68841800D01*
X139861600Y-68841800D02*
X139861600Y-66181800D01*
X139861600Y-66181800D02*
X134661600Y-66181800D01*
X134661600Y-66181800D02*
X134661600Y-68841800D01*
X135611600Y-66181800D02*
X135611600Y-60181800D01*
X135611600Y-60181800D02*
X136371600Y-60181800D01*
X136371600Y-60181800D02*
X136371600Y-66181800D01*
X135671600Y-66181800D02*
X135671600Y-60181800D01*
X135791600Y-66181800D02*
X135791600Y-60181800D01*
X135911600Y-66181800D02*
X135911600Y-60181800D01*
X136031600Y-66181800D02*
X136031600Y-60181800D01*
X136151600Y-66181800D02*
X136151600Y-60181800D01*
X136271600Y-66181800D02*
X136271600Y-60181800D01*
X135611600Y-69171800D02*
X135611600Y-68841800D01*
X136371600Y-69171800D02*
X136371600Y-68841800D01*
X137261600Y-68841800D02*
X137261600Y-66181800D01*
X138151600Y-66181800D02*
X138151600Y-60181800D01*
X138151600Y-60181800D02*
X138911600Y-60181800D01*
X138911600Y-60181800D02*
X138911600Y-66181800D01*
X138151600Y-69238871D02*
X138151600Y-68841800D01*
X138911600Y-69238871D02*
X138911600Y-68841800D01*
X135991600Y-71551800D02*
X134721600Y-71551800D01*
X134721600Y-71551800D02*
X134721600Y-70281800D01*
G04 #@! TO.C,J6*
X111801600Y-68816400D02*
X119541600Y-68816400D01*
X119541600Y-68816400D02*
X119541600Y-66156400D01*
X119541600Y-66156400D02*
X111801600Y-66156400D01*
X111801600Y-66156400D02*
X111801600Y-68816400D01*
X112751600Y-66156400D02*
X112751600Y-60156400D01*
X112751600Y-60156400D02*
X113511600Y-60156400D01*
X113511600Y-60156400D02*
X113511600Y-66156400D01*
X112811600Y-66156400D02*
X112811600Y-60156400D01*
X112931600Y-66156400D02*
X112931600Y-60156400D01*
X113051600Y-66156400D02*
X113051600Y-60156400D01*
X113171600Y-66156400D02*
X113171600Y-60156400D01*
X113291600Y-66156400D02*
X113291600Y-60156400D01*
X113411600Y-66156400D02*
X113411600Y-60156400D01*
X112751600Y-69146400D02*
X112751600Y-68816400D01*
X113511600Y-69146400D02*
X113511600Y-68816400D01*
X114401600Y-68816400D02*
X114401600Y-66156400D01*
X115291600Y-66156400D02*
X115291600Y-60156400D01*
X115291600Y-60156400D02*
X116051600Y-60156400D01*
X116051600Y-60156400D02*
X116051600Y-66156400D01*
X115291600Y-69213471D02*
X115291600Y-68816400D01*
X116051600Y-69213471D02*
X116051600Y-68816400D01*
X116941600Y-68816400D02*
X116941600Y-66156400D01*
X117831600Y-66156400D02*
X117831600Y-60156400D01*
X117831600Y-60156400D02*
X118591600Y-60156400D01*
X118591600Y-60156400D02*
X118591600Y-66156400D01*
X117831600Y-69213471D02*
X117831600Y-68816400D01*
X118591600Y-69213471D02*
X118591600Y-68816400D01*
X113131600Y-71526400D02*
X111861600Y-71526400D01*
X111861600Y-71526400D02*
X111861600Y-70256400D01*
G04 #@! TO.C,J7*
X144916200Y-141851200D02*
X139716200Y-141851200D01*
X139716200Y-141851200D02*
X139716200Y-144511200D01*
X139716200Y-144511200D02*
X144916200Y-144511200D01*
X144916200Y-144511200D02*
X144916200Y-141851200D01*
X143966200Y-144511200D02*
X143966200Y-150511200D01*
X143966200Y-150511200D02*
X143206200Y-150511200D01*
X143206200Y-150511200D02*
X143206200Y-144511200D01*
X143906200Y-144511200D02*
X143906200Y-150511200D01*
X143786200Y-144511200D02*
X143786200Y-150511200D01*
X143666200Y-144511200D02*
X143666200Y-150511200D01*
X143546200Y-144511200D02*
X143546200Y-150511200D01*
X143426200Y-144511200D02*
X143426200Y-150511200D01*
X143306200Y-144511200D02*
X143306200Y-150511200D01*
X143966200Y-141521200D02*
X143966200Y-141851200D01*
X143206200Y-141521200D02*
X143206200Y-141851200D01*
X142316200Y-141851200D02*
X142316200Y-144511200D01*
X141426200Y-144511200D02*
X141426200Y-150511200D01*
X141426200Y-150511200D02*
X140666200Y-150511200D01*
X140666200Y-150511200D02*
X140666200Y-144511200D01*
X141426200Y-141454129D02*
X141426200Y-141851200D01*
X140666200Y-141454129D02*
X140666200Y-141851200D01*
X143586200Y-139141200D02*
X144856200Y-139141200D01*
X144856200Y-139141200D02*
X144856200Y-140411200D01*
G04 #@! TO.C,J8*
X78266600Y-134273600D02*
X78266600Y-131613600D01*
X75666600Y-134273600D02*
X78266600Y-134273600D01*
X75666600Y-131613600D02*
X78266600Y-131613600D01*
X75666600Y-134273600D02*
X75666600Y-131613600D01*
X74396600Y-134273600D02*
X73066600Y-134273600D01*
X73066600Y-134273600D02*
X73066600Y-132943600D01*
G04 #@! TO.C,J9*
X134112000Y-139166600D02*
X134112000Y-140436600D01*
X132842000Y-139166600D02*
X134112000Y-139166600D01*
X124842000Y-141479529D02*
X124842000Y-141876600D01*
X125602000Y-141479529D02*
X125602000Y-141876600D01*
X124842000Y-150536600D02*
X124842000Y-144536600D01*
X125602000Y-150536600D02*
X124842000Y-150536600D01*
X125602000Y-144536600D02*
X125602000Y-150536600D01*
X126492000Y-141876600D02*
X126492000Y-144536600D01*
X127382000Y-141479529D02*
X127382000Y-141876600D01*
X128142000Y-141479529D02*
X128142000Y-141876600D01*
X127382000Y-150536600D02*
X127382000Y-144536600D01*
X128142000Y-150536600D02*
X127382000Y-150536600D01*
X128142000Y-144536600D02*
X128142000Y-150536600D01*
X129032000Y-141876600D02*
X129032000Y-144536600D01*
X129922000Y-141479529D02*
X129922000Y-141876600D01*
X130682000Y-141479529D02*
X130682000Y-141876600D01*
X129922000Y-150536600D02*
X129922000Y-144536600D01*
X130682000Y-150536600D02*
X129922000Y-150536600D01*
X130682000Y-144536600D02*
X130682000Y-150536600D01*
X131572000Y-141876600D02*
X131572000Y-144536600D01*
X132462000Y-141546600D02*
X132462000Y-141876600D01*
X133222000Y-141546600D02*
X133222000Y-141876600D01*
X132562000Y-144536600D02*
X132562000Y-150536600D01*
X132682000Y-144536600D02*
X132682000Y-150536600D01*
X132802000Y-144536600D02*
X132802000Y-150536600D01*
X132922000Y-144536600D02*
X132922000Y-150536600D01*
X133042000Y-144536600D02*
X133042000Y-150536600D01*
X133162000Y-144536600D02*
X133162000Y-150536600D01*
X132462000Y-150536600D02*
X132462000Y-144536600D01*
X133222000Y-150536600D02*
X132462000Y-150536600D01*
X133222000Y-144536600D02*
X133222000Y-150536600D01*
X134172000Y-144536600D02*
X134172000Y-141876600D01*
X123892000Y-144536600D02*
X134172000Y-144536600D01*
X123892000Y-141876600D02*
X123892000Y-144536600D01*
X134172000Y-141876600D02*
X123892000Y-141876600D01*
G04 #@! TO.C,L1*
X113489600Y-131703400D02*
X113489600Y-135303400D01*
X113489600Y-135303400D02*
X126489600Y-135303400D01*
X126489600Y-135303400D02*
X126489600Y-131703400D01*
X113489600Y-125903400D02*
X113489600Y-122303400D01*
X113489600Y-122303400D02*
X126489600Y-122303400D01*
X126489600Y-122303400D02*
X126489600Y-125903400D01*
G04 #@! TO.C,Q1*
X97489600Y-135234400D02*
X97489600Y-136734400D01*
X97489600Y-136734400D02*
X97759600Y-136734400D01*
X97759600Y-136734400D02*
X97759600Y-139564400D01*
X104389600Y-135234400D02*
X104389600Y-136734400D01*
X104389600Y-136734400D02*
X104119600Y-136734400D01*
X104119600Y-136734400D02*
X104119600Y-137834400D01*
G04 #@! TO.C,Q2*
X140330000Y-126384200D02*
X140330000Y-125284200D01*
X140060000Y-126384200D02*
X140330000Y-126384200D01*
X140060000Y-127884200D02*
X140060000Y-126384200D01*
X146690000Y-126384200D02*
X146690000Y-123554200D01*
X146960000Y-126384200D02*
X146690000Y-126384200D01*
X146960000Y-127884200D02*
X146960000Y-126384200D01*
G04 #@! TO.C,R2*
X98042800Y-124316748D02*
X98042800Y-124839252D01*
X96622800Y-124316748D02*
X96622800Y-124839252D01*
G04 #@! TO.C,R3*
X95604400Y-124763052D02*
X95604400Y-124240548D01*
X94184400Y-124763052D02*
X94184400Y-124240548D01*
G04 #@! TO.C,U1*
X82126000Y-132504800D02*
X92626000Y-132504800D01*
X82126000Y-122104800D02*
X82126000Y-132504800D01*
X92626000Y-122104800D02*
X82126000Y-122104800D01*
X92626000Y-132504800D02*
X92626000Y-122104800D01*
X85126000Y-132444800D02*
X86376000Y-132444800D01*
X85126000Y-122164800D02*
X85126000Y-132444800D01*
X89626000Y-122164800D02*
X85126000Y-122164800D01*
X89626000Y-132444800D02*
X89626000Y-122164800D01*
X88376000Y-132444800D02*
X89626000Y-132444800D01*
X86376000Y-132444800D02*
G75*
G02X88376000Y-132444800I1000000J0D01*
G01*
G04 #@! TO.C,U2*
X153508200Y-134146600D02*
G75*
G02X155508200Y-134146600I1000000J0D01*
G01*
X155508200Y-134146600D02*
X156758200Y-134146600D01*
X156758200Y-134146600D02*
X156758200Y-123866600D01*
X156758200Y-123866600D02*
X152258200Y-123866600D01*
X152258200Y-123866600D02*
X152258200Y-134146600D01*
X152258200Y-134146600D02*
X153508200Y-134146600D01*
X159758200Y-134206600D02*
X159758200Y-123806600D01*
X159758200Y-123806600D02*
X149258200Y-123806600D01*
X149258200Y-123806600D02*
X149258200Y-134206600D01*
X149258200Y-134206600D02*
X159758200Y-134206600D01*
G04 #@! TO.C,SW1*
X72518800Y-95954800D02*
X72518800Y-102775800D01*
X68298800Y-95954800D02*
X68298800Y-102775800D01*
X72518800Y-95954800D02*
X71448800Y-95954800D01*
X69368800Y-95954800D02*
X68298800Y-95954800D01*
X72518800Y-102775800D02*
X71398800Y-102775800D01*
X69418800Y-102775800D02*
X68298800Y-102775800D01*
X72758800Y-95714800D02*
X72758800Y-97097800D01*
X72758800Y-95714800D02*
X71448800Y-95714800D01*
X71043800Y-97554800D02*
X69773800Y-97554800D01*
X69773800Y-97554800D02*
X69773800Y-101174800D01*
X69773800Y-101174800D02*
X71043800Y-101174800D01*
X71043800Y-101174800D02*
X71043800Y-97554800D01*
X70923800Y-97554800D02*
X70923800Y-98761467D01*
X70803800Y-97554800D02*
X70803800Y-98761467D01*
X70683800Y-97554800D02*
X70683800Y-98761467D01*
X70563800Y-97554800D02*
X70563800Y-98761467D01*
X70443800Y-97554800D02*
X70443800Y-98761467D01*
X70323800Y-97554800D02*
X70323800Y-98761467D01*
X70203800Y-97554800D02*
X70203800Y-98761467D01*
X70083800Y-97554800D02*
X70083800Y-98761467D01*
X69963800Y-97554800D02*
X69963800Y-98761467D01*
X69843800Y-97554800D02*
X69843800Y-98761467D01*
X71043800Y-98761467D02*
X69773800Y-98761467D01*
G04 #@! TO.C,BT1*
D13*
X116816285Y-78687471D02*
X116959142Y-78735090D01*
X117006761Y-78782709D01*
X117054380Y-78877947D01*
X117054380Y-79020804D01*
X117006761Y-79116042D01*
X116959142Y-79163661D01*
X116863904Y-79211280D01*
X116482952Y-79211280D01*
X116482952Y-78211280D01*
X116816285Y-78211280D01*
X116911523Y-78258900D01*
X116959142Y-78306519D01*
X117006761Y-78401757D01*
X117006761Y-78496995D01*
X116959142Y-78592233D01*
X116911523Y-78639852D01*
X116816285Y-78687471D01*
X116482952Y-78687471D01*
X117340095Y-78211280D02*
X117911523Y-78211280D01*
X117625809Y-79211280D02*
X117625809Y-78211280D01*
X118768666Y-79211280D02*
X118197238Y-79211280D01*
X118482952Y-79211280D02*
X118482952Y-78211280D01*
X118387714Y-78354138D01*
X118292476Y-78449376D01*
X118197238Y-78496995D01*
G04 #@! TO.C,C1*
X107952542Y-138275466D02*
X108000161Y-138323085D01*
X108047780Y-138465942D01*
X108047780Y-138561180D01*
X108000161Y-138704038D01*
X107904923Y-138799276D01*
X107809685Y-138846895D01*
X107619209Y-138894514D01*
X107476352Y-138894514D01*
X107285876Y-138846895D01*
X107190638Y-138799276D01*
X107095400Y-138704038D01*
X107047780Y-138561180D01*
X107047780Y-138465942D01*
X107095400Y-138323085D01*
X107143019Y-138275466D01*
X108047780Y-137323085D02*
X108047780Y-137894514D01*
X108047780Y-137608800D02*
X107047780Y-137608800D01*
X107190638Y-137704038D01*
X107285876Y-137799276D01*
X107333495Y-137894514D01*
G04 #@! TO.C,C2*
X110111542Y-138266466D02*
X110159161Y-138314085D01*
X110206780Y-138456942D01*
X110206780Y-138552180D01*
X110159161Y-138695038D01*
X110063923Y-138790276D01*
X109968685Y-138837895D01*
X109778209Y-138885514D01*
X109635352Y-138885514D01*
X109444876Y-138837895D01*
X109349638Y-138790276D01*
X109254400Y-138695038D01*
X109206780Y-138552180D01*
X109206780Y-138456942D01*
X109254400Y-138314085D01*
X109302019Y-138266466D01*
X109302019Y-137885514D02*
X109254400Y-137837895D01*
X109206780Y-137742657D01*
X109206780Y-137504561D01*
X109254400Y-137409323D01*
X109302019Y-137361704D01*
X109397257Y-137314085D01*
X109492495Y-137314085D01*
X109635352Y-137361704D01*
X110206780Y-137933133D01*
X110206780Y-137314085D01*
G04 #@! TO.C,C3*
X112245142Y-138275466D02*
X112292761Y-138323085D01*
X112340380Y-138465942D01*
X112340380Y-138561180D01*
X112292761Y-138704038D01*
X112197523Y-138799276D01*
X112102285Y-138846895D01*
X111911809Y-138894514D01*
X111768952Y-138894514D01*
X111578476Y-138846895D01*
X111483238Y-138799276D01*
X111388000Y-138704038D01*
X111340380Y-138561180D01*
X111340380Y-138465942D01*
X111388000Y-138323085D01*
X111435619Y-138275466D01*
X111340380Y-137942133D02*
X111340380Y-137323085D01*
X111721333Y-137656419D01*
X111721333Y-137513561D01*
X111768952Y-137418323D01*
X111816571Y-137370704D01*
X111911809Y-137323085D01*
X112149904Y-137323085D01*
X112245142Y-137370704D01*
X112292761Y-137418323D01*
X112340380Y-137513561D01*
X112340380Y-137799276D01*
X112292761Y-137894514D01*
X112245142Y-137942133D01*
G04 #@! TO.C,C4*
X114378742Y-138250066D02*
X114426361Y-138297685D01*
X114473980Y-138440542D01*
X114473980Y-138535780D01*
X114426361Y-138678638D01*
X114331123Y-138773876D01*
X114235885Y-138821495D01*
X114045409Y-138869114D01*
X113902552Y-138869114D01*
X113712076Y-138821495D01*
X113616838Y-138773876D01*
X113521600Y-138678638D01*
X113473980Y-138535780D01*
X113473980Y-138440542D01*
X113521600Y-138297685D01*
X113569219Y-138250066D01*
X113807314Y-137392923D02*
X114473980Y-137392923D01*
X113426361Y-137631019D02*
X114140647Y-137869114D01*
X114140647Y-137250066D01*
G04 #@! TO.C,C5*
X127993142Y-125455866D02*
X128040761Y-125503485D01*
X128088380Y-125646342D01*
X128088380Y-125741580D01*
X128040761Y-125884438D01*
X127945523Y-125979676D01*
X127850285Y-126027295D01*
X127659809Y-126074914D01*
X127516952Y-126074914D01*
X127326476Y-126027295D01*
X127231238Y-125979676D01*
X127136000Y-125884438D01*
X127088380Y-125741580D01*
X127088380Y-125646342D01*
X127136000Y-125503485D01*
X127183619Y-125455866D01*
X127088380Y-124551104D02*
X127088380Y-125027295D01*
X127564571Y-125074914D01*
X127516952Y-125027295D01*
X127469333Y-124932057D01*
X127469333Y-124693961D01*
X127516952Y-124598723D01*
X127564571Y-124551104D01*
X127659809Y-124503485D01*
X127897904Y-124503485D01*
X127993142Y-124551104D01*
X128040761Y-124598723D01*
X128088380Y-124693961D01*
X128088380Y-124932057D01*
X128040761Y-125027295D01*
X127993142Y-125074914D01*
G04 #@! TO.C,C6*
X130380742Y-125455866D02*
X130428361Y-125503485D01*
X130475980Y-125646342D01*
X130475980Y-125741580D01*
X130428361Y-125884438D01*
X130333123Y-125979676D01*
X130237885Y-126027295D01*
X130047409Y-126074914D01*
X129904552Y-126074914D01*
X129714076Y-126027295D01*
X129618838Y-125979676D01*
X129523600Y-125884438D01*
X129475980Y-125741580D01*
X129475980Y-125646342D01*
X129523600Y-125503485D01*
X129571219Y-125455866D01*
X129475980Y-124598723D02*
X129475980Y-124789200D01*
X129523600Y-124884438D01*
X129571219Y-124932057D01*
X129714076Y-125027295D01*
X129904552Y-125074914D01*
X130285504Y-125074914D01*
X130380742Y-125027295D01*
X130428361Y-124979676D01*
X130475980Y-124884438D01*
X130475980Y-124693961D01*
X130428361Y-124598723D01*
X130380742Y-124551104D01*
X130285504Y-124503485D01*
X130047409Y-124503485D01*
X129952171Y-124551104D01*
X129904552Y-124598723D01*
X129856933Y-124693961D01*
X129856933Y-124884438D01*
X129904552Y-124979676D01*
X129952171Y-125027295D01*
X130047409Y-125074914D01*
G04 #@! TO.C,C7*
X132768342Y-125473866D02*
X132815961Y-125521485D01*
X132863580Y-125664342D01*
X132863580Y-125759580D01*
X132815961Y-125902438D01*
X132720723Y-125997676D01*
X132625485Y-126045295D01*
X132435009Y-126092914D01*
X132292152Y-126092914D01*
X132101676Y-126045295D01*
X132006438Y-125997676D01*
X131911200Y-125902438D01*
X131863580Y-125759580D01*
X131863580Y-125664342D01*
X131911200Y-125521485D01*
X131958819Y-125473866D01*
X131863580Y-125140533D02*
X131863580Y-124473866D01*
X132863580Y-124902438D01*
G04 #@! TO.C,D1*
X107049980Y-127738095D02*
X106049980Y-127738095D01*
X106049980Y-127500000D01*
X106097600Y-127357142D01*
X106192838Y-127261904D01*
X106288076Y-127214285D01*
X106478552Y-127166666D01*
X106621409Y-127166666D01*
X106811885Y-127214285D01*
X106907123Y-127261904D01*
X107002361Y-127357142D01*
X107049980Y-127500000D01*
X107049980Y-127738095D01*
X107049980Y-126214285D02*
X107049980Y-126785714D01*
X107049980Y-126500000D02*
X106049980Y-126500000D01*
X106192838Y-126595238D01*
X106288076Y-126690476D01*
X106335695Y-126785714D01*
X107419980Y-131071904D02*
X106419980Y-131071904D01*
X107419980Y-130500476D02*
X106848552Y-130929047D01*
X106419980Y-130500476D02*
X106991409Y-131071904D01*
G04 #@! TO.C,J1*
X105173980Y-75517333D02*
X105888266Y-75517333D01*
X106031123Y-75564952D01*
X106126361Y-75660190D01*
X106173980Y-75803047D01*
X106173980Y-75898285D01*
X106173980Y-74517333D02*
X106173980Y-75088761D01*
X106173980Y-74803047D02*
X105173980Y-74803047D01*
X105316838Y-74898285D01*
X105412076Y-74993523D01*
X105459695Y-75088761D01*
G04 #@! TO.C,J2*
X75719180Y-71894333D02*
X76433466Y-71894333D01*
X76576323Y-71941952D01*
X76671561Y-72037190D01*
X76719180Y-72180047D01*
X76719180Y-72275285D01*
X75814419Y-71465761D02*
X75766800Y-71418142D01*
X75719180Y-71322904D01*
X75719180Y-71084809D01*
X75766800Y-70989571D01*
X75814419Y-70941952D01*
X75909657Y-70894333D01*
X76004895Y-70894333D01*
X76147752Y-70941952D01*
X76719180Y-71513380D01*
X76719180Y-70894333D01*
G04 #@! TO.C,J3*
X125553980Y-66230133D02*
X126268266Y-66230133D01*
X126411123Y-66277752D01*
X126506361Y-66372990D01*
X126553980Y-66515847D01*
X126553980Y-66611085D01*
X125553980Y-65849180D02*
X125553980Y-65230133D01*
X125934933Y-65563466D01*
X125934933Y-65420609D01*
X125982552Y-65325371D01*
X126030171Y-65277752D01*
X126125409Y-65230133D01*
X126363504Y-65230133D01*
X126458742Y-65277752D01*
X126506361Y-65325371D01*
X126553980Y-65420609D01*
X126553980Y-65706323D01*
X126506361Y-65801561D01*
X126458742Y-65849180D01*
G04 #@! TO.C,J4*
X90070180Y-71970533D02*
X90784466Y-71970533D01*
X90927323Y-72018152D01*
X91022561Y-72113390D01*
X91070180Y-72256247D01*
X91070180Y-72351485D01*
X90403514Y-71065771D02*
X91070180Y-71065771D01*
X90022561Y-71303866D02*
X90736847Y-71541961D01*
X90736847Y-70922914D01*
G04 #@! TO.C,J5*
X133173980Y-66230133D02*
X133888266Y-66230133D01*
X134031123Y-66277752D01*
X134126361Y-66372990D01*
X134173980Y-66515847D01*
X134173980Y-66611085D01*
X133173980Y-65277752D02*
X133173980Y-65753942D01*
X133650171Y-65801561D01*
X133602552Y-65753942D01*
X133554933Y-65658704D01*
X133554933Y-65420609D01*
X133602552Y-65325371D01*
X133650171Y-65277752D01*
X133745409Y-65230133D01*
X133983504Y-65230133D01*
X134078742Y-65277752D01*
X134126361Y-65325371D01*
X134173980Y-65420609D01*
X134173980Y-65658704D01*
X134126361Y-65753942D01*
X134078742Y-65801561D01*
G04 #@! TO.C,J6*
X110313980Y-66204733D02*
X111028266Y-66204733D01*
X111171123Y-66252352D01*
X111266361Y-66347590D01*
X111313980Y-66490447D01*
X111313980Y-66585685D01*
X110313980Y-65299971D02*
X110313980Y-65490447D01*
X110361600Y-65585685D01*
X110409219Y-65633304D01*
X110552076Y-65728542D01*
X110742552Y-65776161D01*
X111123504Y-65776161D01*
X111218742Y-65728542D01*
X111266361Y-65680923D01*
X111313980Y-65585685D01*
X111313980Y-65395209D01*
X111266361Y-65299971D01*
X111218742Y-65252352D01*
X111123504Y-65204733D01*
X110885409Y-65204733D01*
X110790171Y-65252352D01*
X110742552Y-65299971D01*
X110694933Y-65395209D01*
X110694933Y-65585685D01*
X110742552Y-65680923D01*
X110790171Y-65728542D01*
X110885409Y-65776161D01*
G04 #@! TO.C,J7*
X145308580Y-145129533D02*
X146022866Y-145129533D01*
X146165723Y-145177152D01*
X146260961Y-145272390D01*
X146308580Y-145415247D01*
X146308580Y-145510485D01*
X145308580Y-144748580D02*
X145308580Y-144081914D01*
X146308580Y-144510485D01*
G04 #@! TO.C,J8*
X71518980Y-133276933D02*
X72233266Y-133276933D01*
X72376123Y-133324552D01*
X72471361Y-133419790D01*
X72518980Y-133562647D01*
X72518980Y-133657885D01*
X71947552Y-132657885D02*
X71899933Y-132753123D01*
X71852314Y-132800742D01*
X71757076Y-132848361D01*
X71709457Y-132848361D01*
X71614219Y-132800742D01*
X71566600Y-132753123D01*
X71518980Y-132657885D01*
X71518980Y-132467409D01*
X71566600Y-132372171D01*
X71614219Y-132324552D01*
X71709457Y-132276933D01*
X71757076Y-132276933D01*
X71852314Y-132324552D01*
X71899933Y-132372171D01*
X71947552Y-132467409D01*
X71947552Y-132657885D01*
X71995171Y-132753123D01*
X72042790Y-132800742D01*
X72138028Y-132848361D01*
X72328504Y-132848361D01*
X72423742Y-132800742D01*
X72471361Y-132753123D01*
X72518980Y-132657885D01*
X72518980Y-132467409D01*
X72471361Y-132372171D01*
X72423742Y-132324552D01*
X72328504Y-132276933D01*
X72138028Y-132276933D01*
X72042790Y-132324552D01*
X71995171Y-132372171D01*
X71947552Y-132467409D01*
G04 #@! TO.C,J9*
X134564380Y-145154933D02*
X135278666Y-145154933D01*
X135421523Y-145202552D01*
X135516761Y-145297790D01*
X135564380Y-145440647D01*
X135564380Y-145535885D01*
X135564380Y-144631123D02*
X135564380Y-144440647D01*
X135516761Y-144345409D01*
X135469142Y-144297790D01*
X135326285Y-144202552D01*
X135135809Y-144154933D01*
X134754857Y-144154933D01*
X134659619Y-144202552D01*
X134612000Y-144250171D01*
X134564380Y-144345409D01*
X134564380Y-144535885D01*
X134612000Y-144631123D01*
X134659619Y-144678742D01*
X134754857Y-144726361D01*
X134992952Y-144726361D01*
X135088190Y-144678742D01*
X135135809Y-144631123D01*
X135183428Y-144535885D01*
X135183428Y-144345409D01*
X135135809Y-144250171D01*
X135088190Y-144202552D01*
X134992952Y-144154933D01*
G04 #@! TO.C,L1*
X119822933Y-121855780D02*
X119346742Y-121855780D01*
X119346742Y-120855780D01*
X120680076Y-121855780D02*
X120108647Y-121855780D01*
X120394361Y-121855780D02*
X120394361Y-120855780D01*
X120299123Y-120998638D01*
X120203885Y-121093876D01*
X120108647Y-121141495D01*
G04 #@! TO.C,Q1*
X96987219Y-134359638D02*
X96939600Y-134454876D01*
X96844361Y-134550114D01*
X96701504Y-134692971D01*
X96653885Y-134788209D01*
X96653885Y-134883447D01*
X96891980Y-134835828D02*
X96844361Y-134931066D01*
X96749123Y-135026304D01*
X96558647Y-135073923D01*
X96225314Y-135073923D01*
X96034838Y-135026304D01*
X95939600Y-134931066D01*
X95891980Y-134835828D01*
X95891980Y-134645352D01*
X95939600Y-134550114D01*
X96034838Y-134454876D01*
X96225314Y-134407257D01*
X96558647Y-134407257D01*
X96749123Y-134454876D01*
X96844361Y-134550114D01*
X96891980Y-134645352D01*
X96891980Y-134835828D01*
X96891980Y-133454876D02*
X96891980Y-134026304D01*
X96891980Y-133740590D02*
X95891980Y-133740590D01*
X96034838Y-133835828D01*
X96130076Y-133931066D01*
X96177695Y-134026304D01*
G04 #@! TO.C,Q2*
X148557619Y-128949438D02*
X148510000Y-129044676D01*
X148414761Y-129139914D01*
X148271904Y-129282771D01*
X148224285Y-129378009D01*
X148224285Y-129473247D01*
X148462380Y-129425628D02*
X148414761Y-129520866D01*
X148319523Y-129616104D01*
X148129047Y-129663723D01*
X147795714Y-129663723D01*
X147605238Y-129616104D01*
X147510000Y-129520866D01*
X147462380Y-129425628D01*
X147462380Y-129235152D01*
X147510000Y-129139914D01*
X147605238Y-129044676D01*
X147795714Y-128997057D01*
X148129047Y-128997057D01*
X148319523Y-129044676D01*
X148414761Y-129139914D01*
X148462380Y-129235152D01*
X148462380Y-129425628D01*
X147557619Y-128616104D02*
X147510000Y-128568485D01*
X147462380Y-128473247D01*
X147462380Y-128235152D01*
X147510000Y-128139914D01*
X147557619Y-128092295D01*
X147652857Y-128044676D01*
X147748095Y-128044676D01*
X147890952Y-128092295D01*
X148462380Y-128663723D01*
X148462380Y-128044676D01*
G04 #@! TO.C,R2*
X99435180Y-124744666D02*
X98958990Y-125078000D01*
X99435180Y-125316095D02*
X98435180Y-125316095D01*
X98435180Y-124935142D01*
X98482800Y-124839904D01*
X98530419Y-124792285D01*
X98625657Y-124744666D01*
X98768514Y-124744666D01*
X98863752Y-124792285D01*
X98911371Y-124839904D01*
X98958990Y-124935142D01*
X98958990Y-125316095D01*
X98530419Y-124363714D02*
X98482800Y-124316095D01*
X98435180Y-124220857D01*
X98435180Y-123982761D01*
X98482800Y-123887523D01*
X98530419Y-123839904D01*
X98625657Y-123792285D01*
X98720895Y-123792285D01*
X98863752Y-123839904D01*
X99435180Y-124411333D01*
X99435180Y-123792285D01*
G04 #@! TO.C,R3*
X93696780Y-124668466D02*
X93220590Y-125001800D01*
X93696780Y-125239895D02*
X92696780Y-125239895D01*
X92696780Y-124858942D01*
X92744400Y-124763704D01*
X92792019Y-124716085D01*
X92887257Y-124668466D01*
X93030114Y-124668466D01*
X93125352Y-124716085D01*
X93172971Y-124763704D01*
X93220590Y-124858942D01*
X93220590Y-125239895D01*
X92696780Y-124335133D02*
X92696780Y-123716085D01*
X93077733Y-124049419D01*
X93077733Y-123906561D01*
X93125352Y-123811323D01*
X93172971Y-123763704D01*
X93268209Y-123716085D01*
X93506304Y-123716085D01*
X93601542Y-123763704D01*
X93649161Y-123811323D01*
X93696780Y-123906561D01*
X93696780Y-124192276D01*
X93649161Y-124287514D01*
X93601542Y-124335133D01*
G04 #@! TO.C,U1*
X86614095Y-132897180D02*
X86614095Y-133706704D01*
X86661714Y-133801942D01*
X86709333Y-133849561D01*
X86804571Y-133897180D01*
X86995047Y-133897180D01*
X87090285Y-133849561D01*
X87137904Y-133801942D01*
X87185523Y-133706704D01*
X87185523Y-132897180D01*
X88185523Y-133897180D02*
X87614095Y-133897180D01*
X87899809Y-133897180D02*
X87899809Y-132897180D01*
X87804571Y-133040038D01*
X87709333Y-133135276D01*
X87614095Y-133182895D01*
G04 #@! TO.C,U2*
X153746295Y-134598980D02*
X153746295Y-135408504D01*
X153793914Y-135503742D01*
X153841533Y-135551361D01*
X153936771Y-135598980D01*
X154127247Y-135598980D01*
X154222485Y-135551361D01*
X154270104Y-135503742D01*
X154317723Y-135408504D01*
X154317723Y-134598980D01*
X154746295Y-134694219D02*
X154793914Y-134646600D01*
X154889152Y-134598980D01*
X155127247Y-134598980D01*
X155222485Y-134646600D01*
X155270104Y-134694219D01*
X155317723Y-134789457D01*
X155317723Y-134884695D01*
X155270104Y-135027552D01*
X154698676Y-135598980D01*
X155317723Y-135598980D01*
G04 #@! TO.C,SW1*
X73923561Y-100698133D02*
X73971180Y-100555276D01*
X73971180Y-100317180D01*
X73923561Y-100221942D01*
X73875942Y-100174323D01*
X73780704Y-100126704D01*
X73685466Y-100126704D01*
X73590228Y-100174323D01*
X73542609Y-100221942D01*
X73494990Y-100317180D01*
X73447371Y-100507657D01*
X73399752Y-100602895D01*
X73352133Y-100650514D01*
X73256895Y-100698133D01*
X73161657Y-100698133D01*
X73066419Y-100650514D01*
X73018800Y-100602895D01*
X72971180Y-100507657D01*
X72971180Y-100269561D01*
X73018800Y-100126704D01*
X72971180Y-99793371D02*
X73971180Y-99555276D01*
X73256895Y-99364800D01*
X73971180Y-99174323D01*
X72971180Y-98936228D01*
X73971180Y-98031466D02*
X73971180Y-98602895D01*
X73971180Y-98317180D02*
X72971180Y-98317180D01*
X73114038Y-98412419D01*
X73209276Y-98507657D01*
X73256895Y-98602895D01*
G04 #@! TD*
M02*
