M48
;DRILL file {KiCad 5.0.2-bee76a0~70~ubuntu18.04.1} date Fri 23 Aug 2019 01:18:51 PM EDT
;FORMAT={-:-/ absolute / inch / decimal}
FMAT,2
INCH,TZ
T1C0.0157
T2C0.0315
T3C0.0394
T4C0.0433
T5C0.0941
T6C0.1358
%
G90
G05
T1
X3.895Y-4.773
X4.123Y-3.075
X4.124Y-3.299
X4.254Y-3.293
T2
X2.767Y-4.792
X3.29Y-4.862
X3.29Y-4.962
X3.29Y-5.062
X3.29Y-5.162
X3.59Y-4.862
X3.59Y-4.962
X3.59Y-5.062
X3.59Y-5.162
X2.772Y-3.762
X2.772Y-4.062
X5.933Y-4.929
X5.933Y-5.029
X5.933Y-5.129
X5.933Y-5.229
X6.233Y-4.929
X6.233Y-5.029
X6.233Y-5.129
X6.233Y-5.229
T3
X3.657Y-2.993
X3.757Y-2.993
X3.857Y-2.993
X3.957Y-2.993
X5.354Y-2.767
X5.454Y-2.767
X2.929Y-5.234
X3.029Y-5.234
X3.092Y-2.99
X3.192Y-2.99
X3.292Y-2.99
X3.392Y-2.99
X4.254Y-2.91
X4.254Y-3.01
X4.354Y-2.91
X4.354Y-3.01
X4.454Y-2.91
X4.454Y-3.01
X4.554Y-2.91
X4.554Y-3.01
X4.654Y-2.91
X4.654Y-3.01
X4.754Y-2.91
X4.754Y-3.01
X4.854Y-2.91
X4.854Y-3.01
X4.954Y-2.91
X4.954Y-3.01
X5.054Y-2.91
X5.054Y-3.01
X5.154Y-2.91
X5.154Y-3.01
X5.254Y-2.91
X5.254Y-3.01
X5.354Y-2.91
X5.354Y-3.01
X5.454Y-2.91
X5.454Y-3.01
X5.554Y-2.91
X5.554Y-3.01
X5.654Y-2.91
X5.654Y-3.01
X5.754Y-2.91
X5.754Y-3.01
X5.854Y-2.91
X5.854Y-3.01
X5.954Y-2.91
X5.954Y-3.01
X6.054Y-2.91
X6.054Y-3.01
X6.154Y-2.91
X6.154Y-3.01
X4.93Y-5.529
X5.03Y-5.529
X5.13Y-5.529
X5.23Y-5.529
X5.054Y-2.767
X5.154Y-2.767
X5.553Y-5.528
X5.653Y-5.528
X4.454Y-2.766
X4.554Y-2.766
X4.654Y-2.766
T4
X4.294Y-4.85
X4.294Y-5.15
T5
X3.2154Y-3.2385
T6
X3.5434Y-4.6215
X5.7166Y-3.2385
T0
M30
