G04 #@! TF.GenerationSoftware,KiCad,Pcbnew,5.0.2-bee76a0~70~ubuntu18.04.1*
G04 #@! TF.CreationDate,2019-08-22T14:53:53-04:00*
G04 #@! TF.ProjectId,output.pcb,6f757470-7574-42e7-9063-622e6b696361,rev?*
G04 #@! TF.SameCoordinates,Original*
G04 #@! TF.FileFunction,Profile,NP*
%FSLAX46Y46*%
G04 Gerber Fmt 4.6, Leading zero omitted, Abs format (unit mm)*
G04 Created by KiCad (PCBNEW 5.0.2-bee76a0~70~ubuntu18.04.1) date Thu 22 Aug 2019 02:53:53 PM EDT*
%MOMM*%
%LPD*%
G01*
G04 APERTURE LIST*
%ADD10C,0.150000*%
%ADD11C,0.200000*%
%ADD12C,0.100000*%
G04 APERTURE END LIST*
D10*
X238338600Y-120370600D02*
G75*
G03X238338600Y-120370600I-2000000J0D01*
G01*
D11*
X190946886Y-127079073D02*
G75*
G03X190030000Y-120370600I24083114J6708473D01*
G01*
D10*
X238160800Y-63500000D02*
G75*
G03X238160800Y-63500000I-2000000J0D01*
G01*
D11*
X190769086Y-70208473D02*
G75*
G03X189852200Y-63500000I24083114J6708473D01*
G01*
D12*
X91643200Y-53314600D02*
G75*
G03X89433400Y-55524400I0J-2209800D01*
G01*
X89433400Y-132003800D02*
G75*
G03X91643200Y-134213600I2209800J0D01*
G01*
X184023000Y-134213600D02*
G75*
G03X186232800Y-132003800I0J2209800D01*
G01*
X184023000Y-53314600D02*
G75*
G02X186232800Y-55524400I0J-2209800D01*
G01*
X91643200Y-53314600D02*
X184023000Y-53314600D01*
X184023000Y-134213600D02*
X91643200Y-134213600D01*
D11*
X84973314Y-80184927D02*
G75*
G03X85890200Y-86893400I-24083114J-6708473D01*
G01*
D10*
X41581600Y-86893400D02*
G75*
G03X41581600Y-86893400I-2000000J0D01*
G01*
D12*
X190030000Y-120968002D02*
X190030000Y-120370600D01*
X190421798Y-127077428D02*
X190946886Y-127079073D01*
X186232800Y-127467995D02*
X186232800Y-132003800D01*
X190030000Y-120968002D02*
X190030785Y-121067999D01*
X190030785Y-121067999D02*
X190023881Y-121167760D01*
X190023881Y-121167760D02*
X190009329Y-121266695D01*
X190009329Y-121266695D02*
X189987215Y-121364219D01*
X186232800Y-120968030D02*
X186240487Y-121067734D01*
X189987215Y-121364219D02*
X189957670Y-121459755D01*
X186240487Y-121067734D02*
X186255815Y-121166552D01*
X189957670Y-121459755D02*
X189920869Y-121552737D01*
X186255815Y-121166552D02*
X186278693Y-121263899D01*
X189920869Y-121552737D02*
X189877030Y-121642615D01*
X186278693Y-121263899D02*
X186308986Y-121359199D01*
X189877030Y-121642615D02*
X189826412Y-121728857D01*
X186308986Y-121359199D02*
X186346515Y-121451889D01*
X189826412Y-121728857D02*
X189769315Y-121810953D01*
X186346515Y-121451889D02*
X186391058Y-121541420D01*
X189769315Y-121810953D02*
X189706077Y-121888417D01*
X186391058Y-121541420D02*
X186442351Y-121627262D01*
X189706077Y-121888417D02*
X189637072Y-121960791D01*
X186442351Y-121627262D02*
X186500091Y-121708907D01*
X189637072Y-121960791D02*
X189562708Y-122027647D01*
X186500091Y-121708907D02*
X186563936Y-121785872D01*
X189562708Y-122027647D02*
X189483425Y-122088589D01*
X186563936Y-121785872D02*
X186633508Y-121857702D01*
X189483425Y-122088589D02*
X189399692Y-122143257D01*
X186633508Y-121857702D02*
X186708395Y-121923972D01*
X189399692Y-122143257D02*
X189312005Y-122191327D01*
X186708395Y-121923972D02*
X186788154Y-121984290D01*
X189312005Y-122191327D02*
X189220882Y-122232515D01*
X186788154Y-121984290D02*
X186872313Y-122038299D01*
X189220882Y-122232515D02*
X189126863Y-122266577D01*
X186872313Y-122038299D02*
X186960374Y-122085679D01*
X189126863Y-122266577D02*
X189030504Y-122293311D01*
X186960374Y-122085679D02*
X187051816Y-122126150D01*
X189030504Y-122293311D02*
X188932375Y-122312559D01*
X187051816Y-122126150D02*
X187146098Y-122159472D01*
X188932375Y-122312559D02*
X188833057Y-122324207D01*
X187146098Y-122159472D02*
X187242662Y-122185448D01*
X188833057Y-122324207D02*
X188733138Y-122328186D01*
X187242662Y-122185448D02*
X187340937Y-122203925D01*
X188733138Y-122328186D02*
X188633209Y-122324473D01*
X187340937Y-122203925D02*
X187440342Y-122214793D01*
X188633209Y-122324473D02*
X187440342Y-122214793D01*
X190421798Y-127077428D02*
X190405695Y-126978733D01*
X190405695Y-126978733D02*
X190382053Y-126881568D01*
X190382053Y-126881568D02*
X190351012Y-126786508D01*
X190351012Y-126786508D02*
X190312756Y-126694115D01*
X186232800Y-127467995D02*
X186240487Y-127368291D01*
X190312756Y-126694115D02*
X190267511Y-126604936D01*
X186240487Y-127368291D02*
X186255815Y-127269473D01*
X190267511Y-126604936D02*
X190215545Y-126519499D01*
X186255815Y-127269473D02*
X186278693Y-127172126D01*
X190215545Y-126519499D02*
X190157166Y-126438309D01*
X186278693Y-127172126D02*
X186308986Y-127076826D01*
X190157166Y-126438309D02*
X190092719Y-126361847D01*
X186308986Y-127076826D02*
X186346515Y-126984136D01*
X190092719Y-126361847D02*
X190022585Y-126290565D01*
X186346515Y-126984136D02*
X186391058Y-126894605D01*
X190022585Y-126290565D02*
X189947179Y-126224885D01*
X186391058Y-126894605D02*
X186442351Y-126808763D01*
X189947179Y-126224885D02*
X189866948Y-126165195D01*
X186442351Y-126808763D02*
X186500091Y-126727118D01*
X189866948Y-126165195D02*
X189782366Y-126111849D01*
X186500091Y-126727118D02*
X186563936Y-126650153D01*
X189782366Y-126111849D02*
X189693934Y-126065162D01*
X186563936Y-126650153D02*
X186633508Y-126578323D01*
X189693934Y-126065162D02*
X189602175Y-126025411D01*
X186633508Y-126578323D02*
X186708395Y-126512053D01*
X189602175Y-126025411D02*
X189507632Y-125992831D01*
X186708395Y-126512053D02*
X186788154Y-126451735D01*
X189507632Y-125992831D02*
X189410864Y-125967615D01*
X186788154Y-126451735D02*
X186872313Y-126397726D01*
X189410864Y-125967615D02*
X189312444Y-125949912D01*
X186872313Y-126397726D02*
X186960374Y-126350346D01*
X189312444Y-125949912D02*
X189212954Y-125939827D01*
X186960374Y-126350346D02*
X187051816Y-126309875D01*
X189212954Y-125939827D02*
X189112983Y-125937419D01*
X187051816Y-126309875D02*
X187146098Y-126276553D01*
X189112983Y-125937419D02*
X189013123Y-125942703D01*
X187146098Y-126276553D02*
X187242662Y-126250577D01*
X189013123Y-125942703D02*
X188913965Y-125955647D01*
X187242662Y-126250577D02*
X187340937Y-126232100D01*
X188913965Y-125955647D02*
X187340937Y-126232100D01*
X189852200Y-63817997D02*
X189852200Y-63500000D01*
X189964599Y-70205952D02*
X190769086Y-70208473D01*
X186232800Y-70317965D02*
X186232800Y-120968030D01*
X186232800Y-63818005D02*
X186232800Y-55524400D01*
X189852200Y-63817997D02*
X189846808Y-63917852D01*
X189846808Y-63917852D02*
X189833756Y-64016997D01*
X186232800Y-63818005D02*
X186240487Y-63917709D01*
X189833756Y-64016997D02*
X189813122Y-64114845D01*
X186240487Y-63917709D02*
X186255815Y-64016527D01*
X189813122Y-64114845D02*
X189785028Y-64210817D01*
X186255815Y-64016527D02*
X186278693Y-64113874D01*
X189785028Y-64210817D02*
X189749640Y-64304346D01*
X186278693Y-64113874D02*
X186308986Y-64209174D01*
X189749640Y-64304346D02*
X189707167Y-64394878D01*
X186308986Y-64209174D02*
X186346515Y-64301864D01*
X189707167Y-64394878D02*
X189657861Y-64481877D01*
X186346515Y-64301864D02*
X186391058Y-64391395D01*
X189657861Y-64481877D02*
X189602014Y-64564829D01*
X186391058Y-64391395D02*
X186442351Y-64477237D01*
X189602014Y-64564829D02*
X189539956Y-64643243D01*
X186442351Y-64477237D02*
X186500091Y-64558882D01*
X189539956Y-64643243D02*
X189472054Y-64716655D01*
X186500091Y-64558882D02*
X186563936Y-64635847D01*
X189472054Y-64716655D02*
X189398710Y-64784630D01*
X186563936Y-64635847D02*
X186633508Y-64707677D01*
X189398710Y-64784630D02*
X189320358Y-64846766D01*
X186633508Y-64707677D02*
X186708395Y-64773947D01*
X189320358Y-64846766D02*
X189237462Y-64902696D01*
X186708395Y-64773947D02*
X186788154Y-64834265D01*
X189237462Y-64902696D02*
X189150512Y-64952089D01*
X186788154Y-64834265D02*
X186872313Y-64888274D01*
X189150512Y-64952089D02*
X189060023Y-64994652D01*
X186872313Y-64888274D02*
X186960374Y-64935654D01*
X189060023Y-64994652D02*
X188966530Y-65030134D01*
X186960374Y-64935654D02*
X187051816Y-64976125D01*
X188966530Y-65030134D02*
X188870586Y-65058325D01*
X187051816Y-64976125D02*
X187146098Y-65009447D01*
X188870586Y-65058325D02*
X188772759Y-65079058D01*
X187146098Y-65009447D02*
X187242662Y-65035423D01*
X188772759Y-65079058D02*
X188673628Y-65092210D01*
X187242662Y-65035423D02*
X187340937Y-65053900D01*
X188673628Y-65092210D02*
X188573779Y-65097703D01*
X187340937Y-65053900D02*
X187440342Y-65064768D01*
X188573779Y-65097703D02*
X188473803Y-65095505D01*
X187440342Y-65064768D02*
X187540288Y-65067963D01*
X188473803Y-65095505D02*
X187540288Y-65067963D01*
X189964599Y-70205952D02*
X189954622Y-70106450D01*
X189954622Y-70106450D02*
X189937026Y-70008009D01*
X186232800Y-70317965D02*
X186240487Y-70218261D01*
X189937026Y-70008009D02*
X189911915Y-69911212D01*
X186240487Y-70218261D02*
X186255815Y-70119443D01*
X189911915Y-69911212D02*
X189879438Y-69816632D01*
X186255815Y-70119443D02*
X186278693Y-70022096D01*
X189879438Y-69816632D02*
X189839787Y-69724828D01*
X186278693Y-70022096D02*
X186308986Y-69926796D01*
X189839787Y-69724828D02*
X189793197Y-69636343D01*
X186308986Y-69926796D02*
X186346515Y-69834106D01*
X189793197Y-69636343D02*
X189739943Y-69551701D01*
X186346515Y-69834106D02*
X186391058Y-69744575D01*
X189739943Y-69551701D02*
X189680340Y-69471403D01*
X186391058Y-69744575D02*
X186442351Y-69658733D01*
X189680340Y-69471403D02*
X189614741Y-69395924D01*
X186442351Y-69658733D02*
X186500091Y-69577088D01*
X189614741Y-69395924D02*
X189543534Y-69325711D01*
X186500091Y-69577088D02*
X186563936Y-69500123D01*
X189543534Y-69325711D02*
X189467141Y-69261179D01*
X186563936Y-69500123D02*
X186633508Y-69428293D01*
X189467141Y-69261179D02*
X189386014Y-69202710D01*
X186633508Y-69428293D02*
X186708395Y-69362023D01*
X189386014Y-69202710D02*
X189300633Y-69150650D01*
X186708395Y-69362023D02*
X186788154Y-69301705D01*
X189300633Y-69150650D02*
X189211503Y-69105307D01*
X186788154Y-69301705D02*
X186872313Y-69247696D01*
X189211503Y-69105307D02*
X189119151Y-69066949D01*
X186872313Y-69247696D02*
X186960374Y-69200316D01*
X189119151Y-69066949D02*
X189024124Y-69035803D01*
X186960374Y-69200316D02*
X187051816Y-69159845D01*
X189024124Y-69035803D02*
X188926984Y-69012054D01*
X187051816Y-69159845D02*
X187146098Y-69126523D01*
X188926984Y-69012054D02*
X188828306Y-68995842D01*
X187146098Y-69126523D02*
X187242662Y-69100547D01*
X188828306Y-68995842D02*
X188728674Y-68987263D01*
X187242662Y-69100547D02*
X187340937Y-69082070D01*
X188728674Y-68987263D02*
X188628677Y-68986368D01*
X187340937Y-69082070D02*
X187440342Y-69071202D01*
X188628677Y-68986368D02*
X188528907Y-68993162D01*
X188528907Y-68993162D02*
X187440342Y-69071202D01*
X85890200Y-86626203D02*
X85890200Y-86893400D01*
X85828600Y-80187607D02*
X84973314Y-80184927D01*
X89433400Y-86626188D02*
X89433400Y-132003800D01*
X89433400Y-80126195D02*
X89433400Y-55524400D01*
X85890200Y-86626203D02*
X85896643Y-86526411D01*
X89433400Y-86626188D02*
X89425713Y-86526484D01*
X85896643Y-86526411D02*
X85910738Y-86427409D01*
X89425713Y-86526484D02*
X89410385Y-86427666D01*
X85910738Y-86427409D02*
X85932401Y-86329783D01*
X89410385Y-86427666D02*
X89387507Y-86330319D01*
X85932401Y-86329783D02*
X85961504Y-86234111D01*
X89387507Y-86330319D02*
X89357214Y-86235019D01*
X85961504Y-86234111D02*
X85997875Y-86140959D01*
X89357214Y-86235019D02*
X89319685Y-86142329D01*
X85997875Y-86140959D02*
X86041299Y-86050878D01*
X89319685Y-86142329D02*
X89275142Y-86052798D01*
X86041299Y-86050878D02*
X86091519Y-85964401D01*
X89275142Y-86052798D02*
X89223849Y-85966956D01*
X86091519Y-85964401D02*
X86148238Y-85882040D01*
X89223849Y-85966956D02*
X89166109Y-85885311D01*
X86148238Y-85882040D02*
X86211120Y-85804282D01*
X89166109Y-85885311D02*
X89102264Y-85808346D01*
X86211120Y-85804282D02*
X86279793Y-85731588D01*
X89102264Y-85808346D02*
X89032692Y-85736516D01*
X86279793Y-85731588D02*
X86353851Y-85664388D01*
X89032692Y-85736516D02*
X88957805Y-85670246D01*
X86353851Y-85664388D02*
X86432855Y-85603079D01*
X88957805Y-85670246D02*
X88878046Y-85609928D01*
X86432855Y-85603079D02*
X86516338Y-85548024D01*
X88878046Y-85609928D02*
X88793887Y-85555919D01*
X86516338Y-85548024D02*
X86603806Y-85499549D01*
X88793887Y-85555919D02*
X88705826Y-85508539D01*
X86603806Y-85499549D02*
X86694741Y-85457941D01*
X88705826Y-85508539D02*
X88614384Y-85468068D01*
X86694741Y-85457941D02*
X86788605Y-85423446D01*
X88614384Y-85468068D02*
X88520102Y-85434746D01*
X86788605Y-85423446D02*
X86884843Y-85396268D01*
X88520102Y-85434746D02*
X88423538Y-85408770D01*
X86884843Y-85396268D02*
X86982885Y-85376568D01*
X88423538Y-85408770D02*
X88325263Y-85390293D01*
X86982885Y-85376568D02*
X87082151Y-85364462D01*
X88325263Y-85390293D02*
X88225858Y-85379425D01*
X87082151Y-85364462D02*
X87182054Y-85360022D01*
X88225858Y-85379425D02*
X88125912Y-85376230D01*
X87182054Y-85360022D02*
X88125912Y-85376230D01*
X85828600Y-80187607D02*
X85837529Y-80287207D01*
X85837529Y-80287207D02*
X85854087Y-80385826D01*
X89433400Y-80126195D02*
X89425713Y-80225899D01*
X85854087Y-80385826D02*
X85878176Y-80482880D01*
X89425713Y-80225899D02*
X89410385Y-80324717D01*
X85878176Y-80482880D02*
X85909654Y-80577795D01*
X89410385Y-80324717D02*
X89387507Y-80422064D01*
X85909654Y-80577795D02*
X85948335Y-80670010D01*
X89387507Y-80422064D02*
X89357214Y-80517364D01*
X85948335Y-80670010D02*
X85993990Y-80758979D01*
X89357214Y-80517364D02*
X89319685Y-80610054D01*
X85993990Y-80758979D02*
X86046349Y-80844175D01*
X89319685Y-80610054D02*
X89275142Y-80699585D01*
X86046349Y-80844175D02*
X86105102Y-80925094D01*
X89275142Y-80699585D02*
X89223849Y-80785427D01*
X86105102Y-80925094D02*
X86169901Y-81001257D01*
X89223849Y-80785427D02*
X89166109Y-80867072D01*
X86169901Y-81001257D02*
X86240363Y-81072214D01*
X89166109Y-80867072D02*
X89102264Y-80944037D01*
X86240363Y-81072214D02*
X86316071Y-81137545D01*
X89102264Y-80944037D02*
X89032692Y-81015867D01*
X86316071Y-81137545D02*
X86396577Y-81196863D01*
X89032692Y-81015867D02*
X88957805Y-81082137D01*
X86396577Y-81196863D02*
X86481404Y-81249817D01*
X88957805Y-81082137D02*
X88878046Y-81142455D01*
X86481404Y-81249817D02*
X86570050Y-81296094D01*
X88878046Y-81142455D02*
X88793887Y-81196464D01*
X86570050Y-81296094D02*
X86661991Y-81335420D01*
X88793887Y-81196464D02*
X88705826Y-81243844D01*
X86661991Y-81335420D02*
X86756683Y-81367562D01*
X88705826Y-81243844D02*
X88614384Y-81284315D01*
X86756683Y-81367562D02*
X86853565Y-81392330D01*
X88614384Y-81284315D02*
X88520102Y-81317637D01*
X86853565Y-81392330D02*
X86952064Y-81409578D01*
X88520102Y-81317637D02*
X88423538Y-81343613D01*
X88423538Y-81343613D02*
X88325263Y-81362090D01*
X86952064Y-81409578D02*
X87051597Y-81419204D01*
X87051597Y-81419204D02*
X87151575Y-81421151D01*
X88325263Y-81362090D02*
X88225858Y-81372958D01*
X87151575Y-81421151D02*
X88225858Y-81372958D01*
M02*
