M48
;DRILL file {KiCad 5.0.2-bee76a0~70~ubuntu18.04.1} date Wed 21 Aug 2019 04:40:57 PM EDT
;FORMAT={-:-/ absolute / inch / decimal}
FMAT,2
INCH,TZ
T1C0.0157
T2C0.0256
T3C0.0276
T4C0.0315
T5C0.0394
T6C0.0433
T7C0.0315
T8C0.0941
T9C0.1358
%
G90
G05
T1
X1.956Y-3.443
X2.116Y-3.752
X2.291Y-3.748
X2.3Y-3.688
X2.303Y-2.883
X2.413Y-3.481
X2.415Y-3.196
X2.48Y-3.114
X2.49Y-3.735
X2.519Y-3.631
X2.621Y-3.187
X2.644Y-3.336
X2.679Y-3.434
X4.797Y-4.336
X5.025Y-2.638
X5.026Y-2.862
X5.156Y-2.856
X8.177Y-2.487
X8.184Y-4.726
X8.212Y-2.585
X8.219Y-4.824
X8.235Y-2.734
X8.242Y-4.973
X8.337Y-2.29
X8.344Y-4.529
X8.366Y-2.186
X8.373Y-4.425
X8.376Y-2.807
X8.383Y-5.046
X8.441Y-2.725
X8.443Y-2.44
X8.448Y-4.964
X8.45Y-4.679
X8.553Y-3.038
X8.556Y-2.233
X8.56Y-5.277
X8.563Y-4.472
X8.565Y-2.173
X8.572Y-4.412
X8.74Y-2.169
X8.747Y-4.408
X8.9Y-2.478
X8.907Y-4.717
T4
X3.669Y-4.355
X4.192Y-4.425
X4.192Y-4.525
X4.192Y-4.625
X4.192Y-4.725
X4.492Y-4.425
X4.492Y-4.525
X4.492Y-4.625
X4.492Y-4.725
X3.674Y-3.325
X3.674Y-3.625
X6.835Y-4.492
X6.835Y-4.592
X6.835Y-4.692
X6.835Y-4.792
X7.135Y-4.492
X7.135Y-4.592
X7.135Y-4.692
X7.135Y-4.792
T5
X5.832Y-5.092
X5.932Y-5.092
X6.032Y-5.092
X6.132Y-5.092
X5.956Y-2.33
X6.056Y-2.33
X4.559Y-2.556
X4.659Y-2.556
X4.759Y-2.556
X4.859Y-2.556
X3.994Y-2.553
X4.094Y-2.553
X4.194Y-2.553
X4.294Y-2.553
X5.356Y-2.329
X5.456Y-2.329
X5.556Y-2.329
X3.831Y-4.797
X3.931Y-4.797
X5.156Y-2.473
X5.156Y-2.573
X5.256Y-2.473
X5.256Y-2.573
X5.356Y-2.473
X5.356Y-2.573
X5.456Y-2.473
X5.456Y-2.573
X5.556Y-2.473
X5.556Y-2.573
X5.656Y-2.473
X5.656Y-2.573
X5.756Y-2.473
X5.756Y-2.573
X5.856Y-2.473
X5.856Y-2.573
X5.956Y-2.473
X5.956Y-2.573
X6.056Y-2.473
X6.056Y-2.573
X6.156Y-2.473
X6.156Y-2.573
X6.256Y-2.473
X6.256Y-2.573
X6.356Y-2.473
X6.356Y-2.573
X6.456Y-2.473
X6.456Y-2.573
X6.556Y-2.473
X6.556Y-2.573
X6.656Y-2.473
X6.656Y-2.573
X6.756Y-2.473
X6.756Y-2.573
X6.856Y-2.473
X6.856Y-2.573
X6.956Y-2.473
X6.956Y-2.573
X7.056Y-2.473
X7.056Y-2.573
X8.26Y-5.422
X8.36Y-5.422
X8.46Y-5.422
X8.56Y-5.422
X8.66Y-5.422
X6.455Y-5.091
X6.555Y-5.091
X8.253Y-3.183
X8.353Y-3.183
X8.453Y-3.183
X8.553Y-3.183
X8.653Y-3.183
X2.203Y-2.738
X2.303Y-2.738
X2.403Y-2.738
X2.503Y-2.738
X2.603Y-2.738
X6.256Y-2.33
X6.356Y-2.33
T6
X5.196Y-4.413
X5.196Y-4.713
T7
X7.4923Y-4.833
X7.4968Y-4.8853
X7.5012Y-4.9376
X7.5057Y-4.99
X7.3222Y-4.8339
X7.3222Y-4.8913
X7.3222Y-4.9487
X7.3222Y-5.0061
X3.3694Y-3.1694
X3.3701Y-3.226
X3.3708Y-3.2826
X3.3715Y-3.3393
X7.3222Y-2.5839
X7.3222Y-2.6413
X7.3222Y-2.6987
X7.3222Y-2.7561
X7.4846Y-2.5836
X7.4859Y-2.6396
X7.4872Y-2.6955
X7.4885Y-2.7515
X3.5308Y-3.1669
X3.5308Y-3.2243
X3.5308Y-3.2817
X3.5308Y-3.3391
T8
X4.1174Y-2.8015
T9
X4.4454Y-4.1845
X6.6186Y-2.8015
T2
X8.3645Y-1.7273G85X8.3645Y-1.7431
G05
X8.555Y-1.7273G85X8.555Y-1.7431
G05
X8.3715Y-3.9663G85X8.3715Y-3.9821
G05
X8.562Y-3.9663G85X8.562Y-3.9821
G05
X2.301Y-4.1937G85X2.301Y-4.1779
G05
X2.4915Y-4.1937G85X2.4915Y-4.1779
G05
T3
X8.3523Y-1.6073G85X8.3523Y-1.6269
G05
X8.5672Y-1.6073G85X8.5672Y-1.6269
G05
X8.3593Y-3.8463G85X8.3593Y-3.8659
G05
X8.5742Y-3.8463G85X8.5742Y-3.8659
G05
X2.2888Y-4.3137G85X2.2888Y-4.2941
G05
X2.5037Y-4.3137G85X2.5037Y-4.2941
G05
T0
M30
