G04 #@! TF.GenerationSoftware,KiCad,Pcbnew,5.0.2-bee76a0~70~ubuntu18.04.1*
G04 #@! TF.CreationDate,2019-08-22T14:53:53-04:00*
G04 #@! TF.ProjectId,output.pcb,6f757470-7574-42e7-9063-622e6b696361,rev?*
G04 #@! TF.SameCoordinates,Original*
G04 #@! TF.FileFunction,Legend,Bot*
G04 #@! TF.FilePolarity,Positive*
%FSLAX46Y46*%
G04 Gerber Fmt 4.6, Leading zero omitted, Abs format (unit mm)*
G04 Created by KiCad (PCBNEW 5.0.2-bee76a0~70~ubuntu18.04.1) date Thu 22 Aug 2019 02:53:53 PM EDT*
%MOMM*%
%LPD*%
G01*
G04 APERTURE LIST*
%ADD10C,0.300000*%
%ADD11C,0.010000*%
%ADD12C,0.120000*%
%ADD13C,0.150000*%
G04 APERTURE END LIST*
D10*
X181644657Y-131047371D02*
X181287514Y-132047371D01*
X180930371Y-131047371D01*
X179573228Y-132047371D02*
X180430371Y-132047371D01*
X180001800Y-132047371D02*
X180001800Y-130547371D01*
X180144657Y-130761657D01*
X180287514Y-130904514D01*
X180430371Y-130975942D01*
X178930371Y-131904514D02*
X178858942Y-131975942D01*
X178930371Y-132047371D01*
X179001800Y-131975942D01*
X178930371Y-131904514D01*
X178930371Y-132047371D01*
X177930371Y-130547371D02*
X177787514Y-130547371D01*
X177644657Y-130618800D01*
X177573228Y-130690228D01*
X177501800Y-130833085D01*
X177430371Y-131118800D01*
X177430371Y-131475942D01*
X177501800Y-131761657D01*
X177573228Y-131904514D01*
X177644657Y-131975942D01*
X177787514Y-132047371D01*
X177930371Y-132047371D01*
X178073228Y-131975942D01*
X178144657Y-131904514D01*
X178216085Y-131761657D01*
X178287514Y-131475942D01*
X178287514Y-131118800D01*
X178216085Y-130833085D01*
X178144657Y-130690228D01*
X178073228Y-130618800D01*
X177930371Y-130547371D01*
D11*
G04 #@! TO.C,G\002A\002A\002A*
G36*
X234396322Y-118500436D02*
X234336928Y-117963564D01*
X234016415Y-116172740D01*
X233541158Y-114439891D01*
X232914793Y-112773389D01*
X232140956Y-111181608D01*
X231223284Y-109672922D01*
X230165411Y-108255704D01*
X230073333Y-108144734D01*
X228865408Y-106829798D01*
X227552805Y-105642314D01*
X226146129Y-104585705D01*
X224655984Y-103663391D01*
X223092977Y-102878795D01*
X221467710Y-102235339D01*
X219790791Y-101736445D01*
X218072824Y-101385533D01*
X216324413Y-101186028D01*
X214556164Y-101141349D01*
X212778683Y-101254920D01*
X211002573Y-101530162D01*
X210159600Y-101719235D01*
X208445486Y-102227276D01*
X206807126Y-102880917D01*
X205251333Y-103672003D01*
X203784918Y-104592380D01*
X202414693Y-105633893D01*
X201147469Y-106788387D01*
X199990058Y-108047710D01*
X198949271Y-109403705D01*
X198031920Y-110848219D01*
X197244817Y-112373097D01*
X196594773Y-113970185D01*
X196088599Y-115631328D01*
X195733107Y-117348372D01*
X195535109Y-119113162D01*
X195527454Y-119236067D01*
X195469934Y-120209734D01*
X193945934Y-120262667D01*
X193457390Y-120280154D01*
X193031405Y-120296390D01*
X192695171Y-120310259D01*
X192475880Y-120320642D01*
X192400767Y-120326167D01*
X192380052Y-120403790D01*
X192379600Y-120421400D01*
X192459738Y-120461528D01*
X192682461Y-120490290D01*
X193021237Y-120504849D01*
X193170927Y-120506067D01*
X193650712Y-120512968D01*
X194188320Y-120531189D01*
X194677728Y-120557006D01*
X194737260Y-120561079D01*
X195512267Y-120616090D01*
X195512267Y-121093463D01*
X195527610Y-121465926D01*
X195569735Y-121957063D01*
X195632785Y-122519387D01*
X195710901Y-123105416D01*
X195798228Y-123667663D01*
X195888906Y-124158643D01*
X195892510Y-124176081D01*
X196337022Y-125909602D01*
X196935568Y-127586542D01*
X197681208Y-129196029D01*
X198567003Y-130727192D01*
X199586014Y-132169158D01*
X200731300Y-133511055D01*
X201995922Y-134742012D01*
X203319695Y-135812138D01*
X203951981Y-136264879D01*
X204531040Y-136649071D01*
X205110192Y-136996767D01*
X205742759Y-137340017D01*
X206462511Y-137701333D01*
X208092193Y-138403853D01*
X209777672Y-138949945D01*
X211507411Y-139338551D01*
X213269873Y-139568614D01*
X214136069Y-139602832D01*
X214136069Y-138365763D01*
X212394532Y-138221384D01*
X211175600Y-138021290D01*
X210107768Y-137763338D01*
X208970899Y-137404649D01*
X207814955Y-136964956D01*
X206689899Y-136463994D01*
X205645692Y-135921496D01*
X205206600Y-135663640D01*
X203880504Y-134757783D01*
X202617460Y-133709696D01*
X201437421Y-132540906D01*
X200360344Y-131272940D01*
X199406184Y-129927325D01*
X198601204Y-128537818D01*
X198056977Y-127375012D01*
X197579520Y-126135255D01*
X197179231Y-124856580D01*
X196866510Y-123577021D01*
X196651755Y-122334611D01*
X196545363Y-121167385D01*
X196539251Y-120996005D01*
X196528267Y-120596944D01*
X197480767Y-120638378D01*
X198447426Y-120676086D01*
X199550616Y-120711578D01*
X200757540Y-120744218D01*
X202035403Y-120773372D01*
X203351409Y-120798403D01*
X204672763Y-120818678D01*
X205966668Y-120833560D01*
X207200330Y-120842415D01*
X208136792Y-120844734D01*
X211765041Y-120844734D01*
X211822719Y-121074540D01*
X211837531Y-121239936D01*
X211838680Y-121536656D01*
X211826946Y-121927305D01*
X211803112Y-122374491D01*
X211792227Y-122535040D01*
X211761802Y-122970490D01*
X211737441Y-123340133D01*
X211721009Y-123613922D01*
X211714372Y-123761814D01*
X211714996Y-123779220D01*
X211764726Y-123719325D01*
X211893078Y-123545873D01*
X212081701Y-123284124D01*
X212312243Y-122959336D01*
X212360934Y-122890220D01*
X212640532Y-122512857D01*
X212911267Y-122175704D01*
X212911267Y-120920136D01*
X212861069Y-120522602D01*
X212825651Y-120178657D01*
X212800780Y-119824335D01*
X212797569Y-119750475D01*
X212784267Y-119375883D01*
X212974767Y-119542711D01*
X213149612Y-119695487D01*
X213384872Y-119900641D01*
X213520753Y-120018987D01*
X213876238Y-120328437D01*
X213393753Y-120624287D01*
X212911267Y-120920136D01*
X212911267Y-122175704D01*
X212954218Y-122122216D01*
X213280702Y-121741275D01*
X213598691Y-121393014D01*
X213886894Y-121100410D01*
X214124019Y-120886443D01*
X214288774Y-120774092D01*
X214332208Y-120762749D01*
X214424270Y-120830182D01*
X214577119Y-121006859D01*
X214761830Y-121258405D01*
X214813113Y-121334249D01*
X215109637Y-121729155D01*
X215510880Y-122190143D01*
X215983882Y-122684714D01*
X216495681Y-123180366D01*
X217013318Y-123644601D01*
X217503833Y-124044920D01*
X217735534Y-124215835D01*
X218502700Y-124710693D01*
X219293200Y-125136668D01*
X220062602Y-125471852D01*
X220700600Y-125677861D01*
X221287785Y-125792581D01*
X221983769Y-125870345D01*
X222597977Y-125902370D01*
X222597977Y-124145622D01*
X221863283Y-124130345D01*
X221241033Y-124076262D01*
X220676774Y-123973176D01*
X220116051Y-123810892D01*
X219504409Y-123579215D01*
X219447969Y-123555847D01*
X218867589Y-123282916D01*
X218202814Y-122918287D01*
X217491913Y-122486997D01*
X216773155Y-122014083D01*
X216084810Y-121524582D01*
X215465147Y-121043532D01*
X215019338Y-120658437D01*
X214644950Y-120313339D01*
X215005775Y-119921390D01*
X215226777Y-119696975D01*
X215531100Y-119408548D01*
X215871631Y-119100081D01*
X216086267Y-118912923D01*
X217082197Y-118124701D01*
X218093323Y-117449277D01*
X219097479Y-116899475D01*
X220072501Y-116488116D01*
X220531267Y-116341441D01*
X221045255Y-116236139D01*
X221674639Y-116169707D01*
X222370015Y-116142086D01*
X223081981Y-116153219D01*
X223761134Y-116203048D01*
X224358071Y-116291515D01*
X224595267Y-116346183D01*
X225493734Y-116650070D01*
X226264294Y-117046257D01*
X226901573Y-117529194D01*
X227400197Y-118093330D01*
X227754791Y-118733114D01*
X227959981Y-119442995D01*
X228007707Y-119870648D01*
X227986505Y-120724427D01*
X227826640Y-121481850D01*
X227525950Y-122146768D01*
X227082273Y-122723033D01*
X226493448Y-123214495D01*
X225952543Y-123531136D01*
X225341328Y-123788141D01*
X224659566Y-123972258D01*
X223880912Y-124088312D01*
X222979023Y-124141128D01*
X222597977Y-124145622D01*
X222597977Y-125902370D01*
X222731707Y-125909343D01*
X223474753Y-125907766D01*
X224156060Y-125863804D01*
X224593183Y-125801768D01*
X225592622Y-125544280D01*
X226500290Y-125171730D01*
X227304960Y-124693323D01*
X227995403Y-124118267D01*
X228560391Y-123455766D01*
X228988695Y-122715028D01*
X229249293Y-121984216D01*
X229320654Y-121582240D01*
X229363656Y-121070088D01*
X229378232Y-120503450D01*
X229364315Y-119938017D01*
X229321837Y-119429479D01*
X229252858Y-119041604D01*
X228958786Y-118241204D01*
X228517689Y-117506687D01*
X227943643Y-116851793D01*
X227250729Y-116290264D01*
X226453025Y-115835841D01*
X225653600Y-115528714D01*
X224859166Y-115343094D01*
X223963982Y-115231115D01*
X223020591Y-115194477D01*
X222081536Y-115234885D01*
X221199359Y-115354041D01*
X221068772Y-115380155D01*
X220139046Y-115643496D01*
X219202664Y-116046695D01*
X218251775Y-116594710D01*
X217278525Y-117292496D01*
X216275062Y-118145008D01*
X215478637Y-118908224D01*
X214320673Y-120069408D01*
X212654769Y-118419661D01*
X212220026Y-117991311D01*
X211825334Y-117606591D01*
X211486288Y-117280367D01*
X211218485Y-117027505D01*
X211037521Y-116862874D01*
X210958993Y-116801339D01*
X210957242Y-116801537D01*
X210967134Y-116891202D01*
X211026190Y-117088331D01*
X211088155Y-117260920D01*
X211236344Y-117701882D01*
X211386392Y-118233639D01*
X211520044Y-118784129D01*
X211619043Y-119281291D01*
X211647488Y-119468900D01*
X211705416Y-119913400D01*
X208456008Y-119913541D01*
X207580708Y-119916052D01*
X206629076Y-119923102D01*
X205645615Y-119934075D01*
X204674827Y-119948355D01*
X203761216Y-119965325D01*
X202949283Y-119984369D01*
X202581934Y-119994890D01*
X201822481Y-120018415D01*
X201020247Y-120043313D01*
X200217786Y-120068260D01*
X199457652Y-120091933D01*
X198782401Y-120113006D01*
X198242767Y-120129900D01*
X196528267Y-120183702D01*
X196528267Y-119460221D01*
X196587878Y-118277212D01*
X196760679Y-117013386D01*
X197037624Y-115705110D01*
X197409667Y-114388750D01*
X197867761Y-113100674D01*
X198402859Y-111877247D01*
X198426925Y-111827734D01*
X199127200Y-110517824D01*
X199903602Y-109314040D01*
X200785953Y-108174539D01*
X201804077Y-107057478D01*
X201886567Y-106973613D01*
X203195140Y-105766704D01*
X204589626Y-104704894D01*
X206064818Y-103790685D01*
X207615509Y-103026580D01*
X209236490Y-102415082D01*
X210922556Y-101958694D01*
X212668498Y-101659918D01*
X213027614Y-101618961D01*
X213614723Y-101576419D01*
X214304476Y-101556844D01*
X215051038Y-101558927D01*
X215808573Y-101581361D01*
X216531245Y-101622837D01*
X217173217Y-101682047D01*
X217652600Y-101750957D01*
X219419335Y-102151495D01*
X221092361Y-102692526D01*
X222674978Y-103375750D01*
X224170484Y-104202867D01*
X225582179Y-105175579D01*
X226913362Y-106295586D01*
X227428914Y-106790067D01*
X228557908Y-108027628D01*
X229571977Y-109373137D01*
X230464698Y-110810251D01*
X231229646Y-112322624D01*
X231860398Y-113893912D01*
X232350531Y-115507769D01*
X232693619Y-117147852D01*
X232883241Y-118797814D01*
X232912972Y-120441311D01*
X232901825Y-120715596D01*
X232735919Y-122515494D01*
X232417586Y-124246046D01*
X231944265Y-125914288D01*
X231313392Y-127527254D01*
X230522405Y-129091980D01*
X229568741Y-130615501D01*
X229016582Y-131381988D01*
X228639502Y-131844728D01*
X228160403Y-132374746D01*
X227613437Y-132938666D01*
X227032758Y-133503112D01*
X226452517Y-134034709D01*
X225906866Y-134500082D01*
X225512214Y-134806656D01*
X224025987Y-135793134D01*
X222481149Y-136623026D01*
X220885079Y-137294676D01*
X219245156Y-137806429D01*
X217568761Y-138156631D01*
X215863272Y-138343628D01*
X214136069Y-138365763D01*
X214136069Y-139602832D01*
X215053521Y-139639076D01*
X216846818Y-139548879D01*
X218638227Y-139296965D01*
X220146885Y-138955948D01*
X221817024Y-138425906D01*
X223421813Y-137746934D01*
X224952550Y-136928108D01*
X226400533Y-135978504D01*
X227757059Y-134907199D01*
X229013429Y-133723268D01*
X230160939Y-132435787D01*
X231190888Y-131053832D01*
X232094575Y-129586480D01*
X232863297Y-128042806D01*
X233488353Y-126431885D01*
X233961042Y-124762796D01*
X234023869Y-124482056D01*
X234229724Y-123330533D01*
X234372287Y-122106851D01*
X234449167Y-120860767D01*
X234457976Y-119642043D01*
X234396322Y-118500436D01*
X234396322Y-118500436D01*
G37*
X234396322Y-118500436D02*
X234336928Y-117963564D01*
X234016415Y-116172740D01*
X233541158Y-114439891D01*
X232914793Y-112773389D01*
X232140956Y-111181608D01*
X231223284Y-109672922D01*
X230165411Y-108255704D01*
X230073333Y-108144734D01*
X228865408Y-106829798D01*
X227552805Y-105642314D01*
X226146129Y-104585705D01*
X224655984Y-103663391D01*
X223092977Y-102878795D01*
X221467710Y-102235339D01*
X219790791Y-101736445D01*
X218072824Y-101385533D01*
X216324413Y-101186028D01*
X214556164Y-101141349D01*
X212778683Y-101254920D01*
X211002573Y-101530162D01*
X210159600Y-101719235D01*
X208445486Y-102227276D01*
X206807126Y-102880917D01*
X205251333Y-103672003D01*
X203784918Y-104592380D01*
X202414693Y-105633893D01*
X201147469Y-106788387D01*
X199990058Y-108047710D01*
X198949271Y-109403705D01*
X198031920Y-110848219D01*
X197244817Y-112373097D01*
X196594773Y-113970185D01*
X196088599Y-115631328D01*
X195733107Y-117348372D01*
X195535109Y-119113162D01*
X195527454Y-119236067D01*
X195469934Y-120209734D01*
X193945934Y-120262667D01*
X193457390Y-120280154D01*
X193031405Y-120296390D01*
X192695171Y-120310259D01*
X192475880Y-120320642D01*
X192400767Y-120326167D01*
X192380052Y-120403790D01*
X192379600Y-120421400D01*
X192459738Y-120461528D01*
X192682461Y-120490290D01*
X193021237Y-120504849D01*
X193170927Y-120506067D01*
X193650712Y-120512968D01*
X194188320Y-120531189D01*
X194677728Y-120557006D01*
X194737260Y-120561079D01*
X195512267Y-120616090D01*
X195512267Y-121093463D01*
X195527610Y-121465926D01*
X195569735Y-121957063D01*
X195632785Y-122519387D01*
X195710901Y-123105416D01*
X195798228Y-123667663D01*
X195888906Y-124158643D01*
X195892510Y-124176081D01*
X196337022Y-125909602D01*
X196935568Y-127586542D01*
X197681208Y-129196029D01*
X198567003Y-130727192D01*
X199586014Y-132169158D01*
X200731300Y-133511055D01*
X201995922Y-134742012D01*
X203319695Y-135812138D01*
X203951981Y-136264879D01*
X204531040Y-136649071D01*
X205110192Y-136996767D01*
X205742759Y-137340017D01*
X206462511Y-137701333D01*
X208092193Y-138403853D01*
X209777672Y-138949945D01*
X211507411Y-139338551D01*
X213269873Y-139568614D01*
X214136069Y-139602832D01*
X214136069Y-138365763D01*
X212394532Y-138221384D01*
X211175600Y-138021290D01*
X210107768Y-137763338D01*
X208970899Y-137404649D01*
X207814955Y-136964956D01*
X206689899Y-136463994D01*
X205645692Y-135921496D01*
X205206600Y-135663640D01*
X203880504Y-134757783D01*
X202617460Y-133709696D01*
X201437421Y-132540906D01*
X200360344Y-131272940D01*
X199406184Y-129927325D01*
X198601204Y-128537818D01*
X198056977Y-127375012D01*
X197579520Y-126135255D01*
X197179231Y-124856580D01*
X196866510Y-123577021D01*
X196651755Y-122334611D01*
X196545363Y-121167385D01*
X196539251Y-120996005D01*
X196528267Y-120596944D01*
X197480767Y-120638378D01*
X198447426Y-120676086D01*
X199550616Y-120711578D01*
X200757540Y-120744218D01*
X202035403Y-120773372D01*
X203351409Y-120798403D01*
X204672763Y-120818678D01*
X205966668Y-120833560D01*
X207200330Y-120842415D01*
X208136792Y-120844734D01*
X211765041Y-120844734D01*
X211822719Y-121074540D01*
X211837531Y-121239936D01*
X211838680Y-121536656D01*
X211826946Y-121927305D01*
X211803112Y-122374491D01*
X211792227Y-122535040D01*
X211761802Y-122970490D01*
X211737441Y-123340133D01*
X211721009Y-123613922D01*
X211714372Y-123761814D01*
X211714996Y-123779220D01*
X211764726Y-123719325D01*
X211893078Y-123545873D01*
X212081701Y-123284124D01*
X212312243Y-122959336D01*
X212360934Y-122890220D01*
X212640532Y-122512857D01*
X212911267Y-122175704D01*
X212911267Y-120920136D01*
X212861069Y-120522602D01*
X212825651Y-120178657D01*
X212800780Y-119824335D01*
X212797569Y-119750475D01*
X212784267Y-119375883D01*
X212974767Y-119542711D01*
X213149612Y-119695487D01*
X213384872Y-119900641D01*
X213520753Y-120018987D01*
X213876238Y-120328437D01*
X213393753Y-120624287D01*
X212911267Y-120920136D01*
X212911267Y-122175704D01*
X212954218Y-122122216D01*
X213280702Y-121741275D01*
X213598691Y-121393014D01*
X213886894Y-121100410D01*
X214124019Y-120886443D01*
X214288774Y-120774092D01*
X214332208Y-120762749D01*
X214424270Y-120830182D01*
X214577119Y-121006859D01*
X214761830Y-121258405D01*
X214813113Y-121334249D01*
X215109637Y-121729155D01*
X215510880Y-122190143D01*
X215983882Y-122684714D01*
X216495681Y-123180366D01*
X217013318Y-123644601D01*
X217503833Y-124044920D01*
X217735534Y-124215835D01*
X218502700Y-124710693D01*
X219293200Y-125136668D01*
X220062602Y-125471852D01*
X220700600Y-125677861D01*
X221287785Y-125792581D01*
X221983769Y-125870345D01*
X222597977Y-125902370D01*
X222597977Y-124145622D01*
X221863283Y-124130345D01*
X221241033Y-124076262D01*
X220676774Y-123973176D01*
X220116051Y-123810892D01*
X219504409Y-123579215D01*
X219447969Y-123555847D01*
X218867589Y-123282916D01*
X218202814Y-122918287D01*
X217491913Y-122486997D01*
X216773155Y-122014083D01*
X216084810Y-121524582D01*
X215465147Y-121043532D01*
X215019338Y-120658437D01*
X214644950Y-120313339D01*
X215005775Y-119921390D01*
X215226777Y-119696975D01*
X215531100Y-119408548D01*
X215871631Y-119100081D01*
X216086267Y-118912923D01*
X217082197Y-118124701D01*
X218093323Y-117449277D01*
X219097479Y-116899475D01*
X220072501Y-116488116D01*
X220531267Y-116341441D01*
X221045255Y-116236139D01*
X221674639Y-116169707D01*
X222370015Y-116142086D01*
X223081981Y-116153219D01*
X223761134Y-116203048D01*
X224358071Y-116291515D01*
X224595267Y-116346183D01*
X225493734Y-116650070D01*
X226264294Y-117046257D01*
X226901573Y-117529194D01*
X227400197Y-118093330D01*
X227754791Y-118733114D01*
X227959981Y-119442995D01*
X228007707Y-119870648D01*
X227986505Y-120724427D01*
X227826640Y-121481850D01*
X227525950Y-122146768D01*
X227082273Y-122723033D01*
X226493448Y-123214495D01*
X225952543Y-123531136D01*
X225341328Y-123788141D01*
X224659566Y-123972258D01*
X223880912Y-124088312D01*
X222979023Y-124141128D01*
X222597977Y-124145622D01*
X222597977Y-125902370D01*
X222731707Y-125909343D01*
X223474753Y-125907766D01*
X224156060Y-125863804D01*
X224593183Y-125801768D01*
X225592622Y-125544280D01*
X226500290Y-125171730D01*
X227304960Y-124693323D01*
X227995403Y-124118267D01*
X228560391Y-123455766D01*
X228988695Y-122715028D01*
X229249293Y-121984216D01*
X229320654Y-121582240D01*
X229363656Y-121070088D01*
X229378232Y-120503450D01*
X229364315Y-119938017D01*
X229321837Y-119429479D01*
X229252858Y-119041604D01*
X228958786Y-118241204D01*
X228517689Y-117506687D01*
X227943643Y-116851793D01*
X227250729Y-116290264D01*
X226453025Y-115835841D01*
X225653600Y-115528714D01*
X224859166Y-115343094D01*
X223963982Y-115231115D01*
X223020591Y-115194477D01*
X222081536Y-115234885D01*
X221199359Y-115354041D01*
X221068772Y-115380155D01*
X220139046Y-115643496D01*
X219202664Y-116046695D01*
X218251775Y-116594710D01*
X217278525Y-117292496D01*
X216275062Y-118145008D01*
X215478637Y-118908224D01*
X214320673Y-120069408D01*
X212654769Y-118419661D01*
X212220026Y-117991311D01*
X211825334Y-117606591D01*
X211486288Y-117280367D01*
X211218485Y-117027505D01*
X211037521Y-116862874D01*
X210958993Y-116801339D01*
X210957242Y-116801537D01*
X210967134Y-116891202D01*
X211026190Y-117088331D01*
X211088155Y-117260920D01*
X211236344Y-117701882D01*
X211386392Y-118233639D01*
X211520044Y-118784129D01*
X211619043Y-119281291D01*
X211647488Y-119468900D01*
X211705416Y-119913400D01*
X208456008Y-119913541D01*
X207580708Y-119916052D01*
X206629076Y-119923102D01*
X205645615Y-119934075D01*
X204674827Y-119948355D01*
X203761216Y-119965325D01*
X202949283Y-119984369D01*
X202581934Y-119994890D01*
X201822481Y-120018415D01*
X201020247Y-120043313D01*
X200217786Y-120068260D01*
X199457652Y-120091933D01*
X198782401Y-120113006D01*
X198242767Y-120129900D01*
X196528267Y-120183702D01*
X196528267Y-119460221D01*
X196587878Y-118277212D01*
X196760679Y-117013386D01*
X197037624Y-115705110D01*
X197409667Y-114388750D01*
X197867761Y-113100674D01*
X198402859Y-111877247D01*
X198426925Y-111827734D01*
X199127200Y-110517824D01*
X199903602Y-109314040D01*
X200785953Y-108174539D01*
X201804077Y-107057478D01*
X201886567Y-106973613D01*
X203195140Y-105766704D01*
X204589626Y-104704894D01*
X206064818Y-103790685D01*
X207615509Y-103026580D01*
X209236490Y-102415082D01*
X210922556Y-101958694D01*
X212668498Y-101659918D01*
X213027614Y-101618961D01*
X213614723Y-101576419D01*
X214304476Y-101556844D01*
X215051038Y-101558927D01*
X215808573Y-101581361D01*
X216531245Y-101622837D01*
X217173217Y-101682047D01*
X217652600Y-101750957D01*
X219419335Y-102151495D01*
X221092361Y-102692526D01*
X222674978Y-103375750D01*
X224170484Y-104202867D01*
X225582179Y-105175579D01*
X226913362Y-106295586D01*
X227428914Y-106790067D01*
X228557908Y-108027628D01*
X229571977Y-109373137D01*
X230464698Y-110810251D01*
X231229646Y-112322624D01*
X231860398Y-113893912D01*
X232350531Y-115507769D01*
X232693619Y-117147852D01*
X232883241Y-118797814D01*
X232912972Y-120441311D01*
X232901825Y-120715596D01*
X232735919Y-122515494D01*
X232417586Y-124246046D01*
X231944265Y-125914288D01*
X231313392Y-127527254D01*
X230522405Y-129091980D01*
X229568741Y-130615501D01*
X229016582Y-131381988D01*
X228639502Y-131844728D01*
X228160403Y-132374746D01*
X227613437Y-132938666D01*
X227032758Y-133503112D01*
X226452517Y-134034709D01*
X225906866Y-134500082D01*
X225512214Y-134806656D01*
X224025987Y-135793134D01*
X222481149Y-136623026D01*
X220885079Y-137294676D01*
X219245156Y-137806429D01*
X217568761Y-138156631D01*
X215863272Y-138343628D01*
X214136069Y-138365763D01*
X214136069Y-139602832D01*
X215053521Y-139639076D01*
X216846818Y-139548879D01*
X218638227Y-139296965D01*
X220146885Y-138955948D01*
X221817024Y-138425906D01*
X223421813Y-137746934D01*
X224952550Y-136928108D01*
X226400533Y-135978504D01*
X227757059Y-134907199D01*
X229013429Y-133723268D01*
X230160939Y-132435787D01*
X231190888Y-131053832D01*
X232094575Y-129586480D01*
X232863297Y-128042806D01*
X233488353Y-126431885D01*
X233961042Y-124762796D01*
X234023869Y-124482056D01*
X234229724Y-123330533D01*
X234372287Y-122106851D01*
X234449167Y-120860767D01*
X234457976Y-119642043D01*
X234396322Y-118500436D01*
G36*
X234218522Y-61629836D02*
X234159128Y-61092964D01*
X233838615Y-59302140D01*
X233363358Y-57569291D01*
X232736993Y-55902789D01*
X231963156Y-54311008D01*
X231045484Y-52802322D01*
X229987611Y-51385104D01*
X229895533Y-51274134D01*
X228687608Y-49959198D01*
X227375005Y-48771714D01*
X225968329Y-47715105D01*
X224478184Y-46792791D01*
X222915177Y-46008195D01*
X221289910Y-45364739D01*
X219612991Y-44865845D01*
X217895024Y-44514933D01*
X216146613Y-44315428D01*
X214378364Y-44270749D01*
X212600883Y-44384320D01*
X210824773Y-44659562D01*
X209981800Y-44848635D01*
X208267686Y-45356676D01*
X206629326Y-46010317D01*
X205073533Y-46801403D01*
X203607118Y-47721780D01*
X202236893Y-48763293D01*
X200969669Y-49917787D01*
X199812258Y-51177110D01*
X198771471Y-52533105D01*
X197854120Y-53977619D01*
X197067017Y-55502497D01*
X196416973Y-57099585D01*
X195910799Y-58760728D01*
X195555307Y-60477772D01*
X195357309Y-62242562D01*
X195349654Y-62365467D01*
X195292134Y-63339134D01*
X193768134Y-63392067D01*
X193279590Y-63409554D01*
X192853605Y-63425790D01*
X192517371Y-63439659D01*
X192298080Y-63450042D01*
X192222967Y-63455567D01*
X192202252Y-63533190D01*
X192201800Y-63550800D01*
X192281938Y-63590928D01*
X192504661Y-63619690D01*
X192843437Y-63634249D01*
X192993127Y-63635467D01*
X193472912Y-63642368D01*
X194010520Y-63660589D01*
X194499928Y-63686406D01*
X194559460Y-63690479D01*
X195334467Y-63745490D01*
X195334467Y-64222863D01*
X195349810Y-64595326D01*
X195391935Y-65086463D01*
X195454985Y-65648787D01*
X195533101Y-66234816D01*
X195620428Y-66797063D01*
X195711106Y-67288043D01*
X195714710Y-67305481D01*
X196159222Y-69039002D01*
X196757768Y-70715942D01*
X197503408Y-72325429D01*
X198389203Y-73856592D01*
X199408214Y-75298558D01*
X200553500Y-76640455D01*
X201818122Y-77871412D01*
X203141895Y-78941538D01*
X203774181Y-79394279D01*
X204353240Y-79778471D01*
X204932392Y-80126167D01*
X205564959Y-80469417D01*
X206284711Y-80830733D01*
X207914393Y-81533253D01*
X209599872Y-82079345D01*
X211329611Y-82467951D01*
X213092073Y-82698014D01*
X213958269Y-82732232D01*
X213958269Y-81495163D01*
X212216732Y-81350784D01*
X210997800Y-81150690D01*
X209929968Y-80892738D01*
X208793099Y-80534049D01*
X207637155Y-80094356D01*
X206512099Y-79593394D01*
X205467892Y-79050896D01*
X205028800Y-78793040D01*
X203702704Y-77887183D01*
X202439660Y-76839096D01*
X201259621Y-75670306D01*
X200182544Y-74402340D01*
X199228384Y-73056725D01*
X198423404Y-71667218D01*
X197879177Y-70504412D01*
X197401720Y-69264655D01*
X197001431Y-67985980D01*
X196688710Y-66706421D01*
X196473955Y-65464011D01*
X196367563Y-64296785D01*
X196361451Y-64125405D01*
X196350467Y-63726344D01*
X197302967Y-63767778D01*
X198269626Y-63805486D01*
X199372816Y-63840978D01*
X200579740Y-63873618D01*
X201857603Y-63902772D01*
X203173609Y-63927803D01*
X204494963Y-63948078D01*
X205788868Y-63962960D01*
X207022530Y-63971815D01*
X207958992Y-63974134D01*
X211587241Y-63974134D01*
X211644919Y-64203940D01*
X211659731Y-64369336D01*
X211660880Y-64666056D01*
X211649146Y-65056705D01*
X211625312Y-65503891D01*
X211614427Y-65664440D01*
X211584002Y-66099890D01*
X211559641Y-66469533D01*
X211543209Y-66743322D01*
X211536572Y-66891214D01*
X211537196Y-66908620D01*
X211586926Y-66848725D01*
X211715278Y-66675273D01*
X211903901Y-66413524D01*
X212134443Y-66088736D01*
X212183134Y-66019620D01*
X212462732Y-65642257D01*
X212733467Y-65305104D01*
X212733467Y-64049536D01*
X212683269Y-63652002D01*
X212647851Y-63308057D01*
X212622980Y-62953735D01*
X212619769Y-62879875D01*
X212606467Y-62505283D01*
X212796967Y-62672111D01*
X212971812Y-62824887D01*
X213207072Y-63030041D01*
X213342953Y-63148387D01*
X213698438Y-63457837D01*
X213215953Y-63753687D01*
X212733467Y-64049536D01*
X212733467Y-65305104D01*
X212776418Y-65251616D01*
X213102902Y-64870675D01*
X213420891Y-64522414D01*
X213709094Y-64229810D01*
X213946219Y-64015843D01*
X214110974Y-63903492D01*
X214154408Y-63892149D01*
X214246470Y-63959582D01*
X214399319Y-64136259D01*
X214584030Y-64387805D01*
X214635313Y-64463649D01*
X214931837Y-64858555D01*
X215333080Y-65319543D01*
X215806082Y-65814114D01*
X216317881Y-66309766D01*
X216835518Y-66774001D01*
X217326033Y-67174320D01*
X217557734Y-67345235D01*
X218324900Y-67840093D01*
X219115400Y-68266068D01*
X219884802Y-68601252D01*
X220522800Y-68807261D01*
X221109985Y-68921981D01*
X221805969Y-68999745D01*
X222420177Y-69031770D01*
X222420177Y-67275022D01*
X221685483Y-67259745D01*
X221063233Y-67205662D01*
X220498974Y-67102576D01*
X219938251Y-66940292D01*
X219326609Y-66708615D01*
X219270169Y-66685247D01*
X218689789Y-66412316D01*
X218025014Y-66047687D01*
X217314113Y-65616397D01*
X216595355Y-65143483D01*
X215907010Y-64653982D01*
X215287347Y-64172932D01*
X214841538Y-63787837D01*
X214467150Y-63442739D01*
X214827975Y-63050790D01*
X215048977Y-62826375D01*
X215353300Y-62537948D01*
X215693831Y-62229481D01*
X215908467Y-62042323D01*
X216904397Y-61254101D01*
X217915523Y-60578677D01*
X218919679Y-60028875D01*
X219894701Y-59617516D01*
X220353467Y-59470841D01*
X220867455Y-59365539D01*
X221496839Y-59299107D01*
X222192215Y-59271486D01*
X222904181Y-59282619D01*
X223583334Y-59332448D01*
X224180271Y-59420915D01*
X224417467Y-59475583D01*
X225315934Y-59779470D01*
X226086494Y-60175657D01*
X226723773Y-60658594D01*
X227222397Y-61222730D01*
X227576991Y-61862514D01*
X227782181Y-62572395D01*
X227829907Y-63000048D01*
X227808705Y-63853827D01*
X227648840Y-64611250D01*
X227348150Y-65276168D01*
X226904473Y-65852433D01*
X226315648Y-66343895D01*
X225774743Y-66660536D01*
X225163528Y-66917541D01*
X224481766Y-67101658D01*
X223703112Y-67217712D01*
X222801223Y-67270528D01*
X222420177Y-67275022D01*
X222420177Y-69031770D01*
X222553907Y-69038743D01*
X223296953Y-69037166D01*
X223978260Y-68993204D01*
X224415383Y-68931168D01*
X225414822Y-68673680D01*
X226322490Y-68301130D01*
X227127160Y-67822723D01*
X227817603Y-67247667D01*
X228382591Y-66585166D01*
X228810895Y-65844428D01*
X229071493Y-65113616D01*
X229142854Y-64711640D01*
X229185856Y-64199488D01*
X229200432Y-63632850D01*
X229186515Y-63067417D01*
X229144037Y-62558879D01*
X229075058Y-62171004D01*
X228780986Y-61370604D01*
X228339889Y-60636087D01*
X227765843Y-59981193D01*
X227072929Y-59419664D01*
X226275225Y-58965241D01*
X225475800Y-58658114D01*
X224681366Y-58472494D01*
X223786182Y-58360515D01*
X222842791Y-58323877D01*
X221903736Y-58364285D01*
X221021559Y-58483441D01*
X220890972Y-58509555D01*
X219961246Y-58772896D01*
X219024864Y-59176095D01*
X218073975Y-59724110D01*
X217100725Y-60421896D01*
X216097262Y-61274408D01*
X215300837Y-62037624D01*
X214142873Y-63198808D01*
X212476969Y-61549061D01*
X212042226Y-61120711D01*
X211647534Y-60735991D01*
X211308488Y-60409767D01*
X211040685Y-60156905D01*
X210859721Y-59992274D01*
X210781193Y-59930739D01*
X210779442Y-59930937D01*
X210789334Y-60020602D01*
X210848390Y-60217731D01*
X210910355Y-60390320D01*
X211058544Y-60831282D01*
X211208592Y-61363039D01*
X211342244Y-61913529D01*
X211441243Y-62410691D01*
X211469688Y-62598300D01*
X211527616Y-63042800D01*
X208278208Y-63042941D01*
X207402908Y-63045452D01*
X206451276Y-63052502D01*
X205467815Y-63063475D01*
X204497027Y-63077755D01*
X203583416Y-63094725D01*
X202771483Y-63113769D01*
X202404134Y-63124290D01*
X201644681Y-63147815D01*
X200842447Y-63172713D01*
X200039986Y-63197660D01*
X199279852Y-63221333D01*
X198604601Y-63242406D01*
X198064967Y-63259300D01*
X196350467Y-63313102D01*
X196350467Y-62589621D01*
X196410078Y-61406612D01*
X196582879Y-60142786D01*
X196859824Y-58834510D01*
X197231867Y-57518150D01*
X197689961Y-56230074D01*
X198225059Y-55006647D01*
X198249125Y-54957134D01*
X198949400Y-53647224D01*
X199725802Y-52443440D01*
X200608153Y-51303939D01*
X201626277Y-50186878D01*
X201708767Y-50103013D01*
X203017340Y-48896104D01*
X204411826Y-47834294D01*
X205887018Y-46920085D01*
X207437709Y-46155980D01*
X209058690Y-45544482D01*
X210744756Y-45088094D01*
X212490698Y-44789318D01*
X212849814Y-44748361D01*
X213436923Y-44705819D01*
X214126676Y-44686244D01*
X214873238Y-44688327D01*
X215630773Y-44710761D01*
X216353445Y-44752237D01*
X216995417Y-44811447D01*
X217474800Y-44880357D01*
X219241535Y-45280895D01*
X220914561Y-45821926D01*
X222497178Y-46505150D01*
X223992684Y-47332267D01*
X225404379Y-48304979D01*
X226735562Y-49424986D01*
X227251114Y-49919467D01*
X228380108Y-51157028D01*
X229394177Y-52502537D01*
X230286898Y-53939651D01*
X231051846Y-55452024D01*
X231682598Y-57023312D01*
X232172731Y-58637169D01*
X232515819Y-60277252D01*
X232705441Y-61927214D01*
X232735172Y-63570711D01*
X232724025Y-63844996D01*
X232558119Y-65644894D01*
X232239786Y-67375446D01*
X231766465Y-69043688D01*
X231135592Y-70656654D01*
X230344605Y-72221380D01*
X229390941Y-73744901D01*
X228838782Y-74511388D01*
X228461702Y-74974128D01*
X227982603Y-75504146D01*
X227435637Y-76068066D01*
X226854958Y-76632512D01*
X226274717Y-77164109D01*
X225729066Y-77629482D01*
X225334414Y-77936056D01*
X223848187Y-78922534D01*
X222303349Y-79752426D01*
X220707279Y-80424076D01*
X219067356Y-80935829D01*
X217390961Y-81286031D01*
X215685472Y-81473028D01*
X213958269Y-81495163D01*
X213958269Y-82732232D01*
X214875721Y-82768476D01*
X216669018Y-82678279D01*
X218460427Y-82426365D01*
X219969085Y-82085348D01*
X221639224Y-81555306D01*
X223244013Y-80876334D01*
X224774750Y-80057508D01*
X226222733Y-79107904D01*
X227579259Y-78036599D01*
X228835629Y-76852668D01*
X229983139Y-75565187D01*
X231013088Y-74183232D01*
X231916775Y-72715880D01*
X232685497Y-71172206D01*
X233310553Y-69561285D01*
X233783242Y-67892196D01*
X233846069Y-67611456D01*
X234051924Y-66459933D01*
X234194487Y-65236251D01*
X234271367Y-63990167D01*
X234280176Y-62771443D01*
X234218522Y-61629836D01*
X234218522Y-61629836D01*
G37*
X234218522Y-61629836D02*
X234159128Y-61092964D01*
X233838615Y-59302140D01*
X233363358Y-57569291D01*
X232736993Y-55902789D01*
X231963156Y-54311008D01*
X231045484Y-52802322D01*
X229987611Y-51385104D01*
X229895533Y-51274134D01*
X228687608Y-49959198D01*
X227375005Y-48771714D01*
X225968329Y-47715105D01*
X224478184Y-46792791D01*
X222915177Y-46008195D01*
X221289910Y-45364739D01*
X219612991Y-44865845D01*
X217895024Y-44514933D01*
X216146613Y-44315428D01*
X214378364Y-44270749D01*
X212600883Y-44384320D01*
X210824773Y-44659562D01*
X209981800Y-44848635D01*
X208267686Y-45356676D01*
X206629326Y-46010317D01*
X205073533Y-46801403D01*
X203607118Y-47721780D01*
X202236893Y-48763293D01*
X200969669Y-49917787D01*
X199812258Y-51177110D01*
X198771471Y-52533105D01*
X197854120Y-53977619D01*
X197067017Y-55502497D01*
X196416973Y-57099585D01*
X195910799Y-58760728D01*
X195555307Y-60477772D01*
X195357309Y-62242562D01*
X195349654Y-62365467D01*
X195292134Y-63339134D01*
X193768134Y-63392067D01*
X193279590Y-63409554D01*
X192853605Y-63425790D01*
X192517371Y-63439659D01*
X192298080Y-63450042D01*
X192222967Y-63455567D01*
X192202252Y-63533190D01*
X192201800Y-63550800D01*
X192281938Y-63590928D01*
X192504661Y-63619690D01*
X192843437Y-63634249D01*
X192993127Y-63635467D01*
X193472912Y-63642368D01*
X194010520Y-63660589D01*
X194499928Y-63686406D01*
X194559460Y-63690479D01*
X195334467Y-63745490D01*
X195334467Y-64222863D01*
X195349810Y-64595326D01*
X195391935Y-65086463D01*
X195454985Y-65648787D01*
X195533101Y-66234816D01*
X195620428Y-66797063D01*
X195711106Y-67288043D01*
X195714710Y-67305481D01*
X196159222Y-69039002D01*
X196757768Y-70715942D01*
X197503408Y-72325429D01*
X198389203Y-73856592D01*
X199408214Y-75298558D01*
X200553500Y-76640455D01*
X201818122Y-77871412D01*
X203141895Y-78941538D01*
X203774181Y-79394279D01*
X204353240Y-79778471D01*
X204932392Y-80126167D01*
X205564959Y-80469417D01*
X206284711Y-80830733D01*
X207914393Y-81533253D01*
X209599872Y-82079345D01*
X211329611Y-82467951D01*
X213092073Y-82698014D01*
X213958269Y-82732232D01*
X213958269Y-81495163D01*
X212216732Y-81350784D01*
X210997800Y-81150690D01*
X209929968Y-80892738D01*
X208793099Y-80534049D01*
X207637155Y-80094356D01*
X206512099Y-79593394D01*
X205467892Y-79050896D01*
X205028800Y-78793040D01*
X203702704Y-77887183D01*
X202439660Y-76839096D01*
X201259621Y-75670306D01*
X200182544Y-74402340D01*
X199228384Y-73056725D01*
X198423404Y-71667218D01*
X197879177Y-70504412D01*
X197401720Y-69264655D01*
X197001431Y-67985980D01*
X196688710Y-66706421D01*
X196473955Y-65464011D01*
X196367563Y-64296785D01*
X196361451Y-64125405D01*
X196350467Y-63726344D01*
X197302967Y-63767778D01*
X198269626Y-63805486D01*
X199372816Y-63840978D01*
X200579740Y-63873618D01*
X201857603Y-63902772D01*
X203173609Y-63927803D01*
X204494963Y-63948078D01*
X205788868Y-63962960D01*
X207022530Y-63971815D01*
X207958992Y-63974134D01*
X211587241Y-63974134D01*
X211644919Y-64203940D01*
X211659731Y-64369336D01*
X211660880Y-64666056D01*
X211649146Y-65056705D01*
X211625312Y-65503891D01*
X211614427Y-65664440D01*
X211584002Y-66099890D01*
X211559641Y-66469533D01*
X211543209Y-66743322D01*
X211536572Y-66891214D01*
X211537196Y-66908620D01*
X211586926Y-66848725D01*
X211715278Y-66675273D01*
X211903901Y-66413524D01*
X212134443Y-66088736D01*
X212183134Y-66019620D01*
X212462732Y-65642257D01*
X212733467Y-65305104D01*
X212733467Y-64049536D01*
X212683269Y-63652002D01*
X212647851Y-63308057D01*
X212622980Y-62953735D01*
X212619769Y-62879875D01*
X212606467Y-62505283D01*
X212796967Y-62672111D01*
X212971812Y-62824887D01*
X213207072Y-63030041D01*
X213342953Y-63148387D01*
X213698438Y-63457837D01*
X213215953Y-63753687D01*
X212733467Y-64049536D01*
X212733467Y-65305104D01*
X212776418Y-65251616D01*
X213102902Y-64870675D01*
X213420891Y-64522414D01*
X213709094Y-64229810D01*
X213946219Y-64015843D01*
X214110974Y-63903492D01*
X214154408Y-63892149D01*
X214246470Y-63959582D01*
X214399319Y-64136259D01*
X214584030Y-64387805D01*
X214635313Y-64463649D01*
X214931837Y-64858555D01*
X215333080Y-65319543D01*
X215806082Y-65814114D01*
X216317881Y-66309766D01*
X216835518Y-66774001D01*
X217326033Y-67174320D01*
X217557734Y-67345235D01*
X218324900Y-67840093D01*
X219115400Y-68266068D01*
X219884802Y-68601252D01*
X220522800Y-68807261D01*
X221109985Y-68921981D01*
X221805969Y-68999745D01*
X222420177Y-69031770D01*
X222420177Y-67275022D01*
X221685483Y-67259745D01*
X221063233Y-67205662D01*
X220498974Y-67102576D01*
X219938251Y-66940292D01*
X219326609Y-66708615D01*
X219270169Y-66685247D01*
X218689789Y-66412316D01*
X218025014Y-66047687D01*
X217314113Y-65616397D01*
X216595355Y-65143483D01*
X215907010Y-64653982D01*
X215287347Y-64172932D01*
X214841538Y-63787837D01*
X214467150Y-63442739D01*
X214827975Y-63050790D01*
X215048977Y-62826375D01*
X215353300Y-62537948D01*
X215693831Y-62229481D01*
X215908467Y-62042323D01*
X216904397Y-61254101D01*
X217915523Y-60578677D01*
X218919679Y-60028875D01*
X219894701Y-59617516D01*
X220353467Y-59470841D01*
X220867455Y-59365539D01*
X221496839Y-59299107D01*
X222192215Y-59271486D01*
X222904181Y-59282619D01*
X223583334Y-59332448D01*
X224180271Y-59420915D01*
X224417467Y-59475583D01*
X225315934Y-59779470D01*
X226086494Y-60175657D01*
X226723773Y-60658594D01*
X227222397Y-61222730D01*
X227576991Y-61862514D01*
X227782181Y-62572395D01*
X227829907Y-63000048D01*
X227808705Y-63853827D01*
X227648840Y-64611250D01*
X227348150Y-65276168D01*
X226904473Y-65852433D01*
X226315648Y-66343895D01*
X225774743Y-66660536D01*
X225163528Y-66917541D01*
X224481766Y-67101658D01*
X223703112Y-67217712D01*
X222801223Y-67270528D01*
X222420177Y-67275022D01*
X222420177Y-69031770D01*
X222553907Y-69038743D01*
X223296953Y-69037166D01*
X223978260Y-68993204D01*
X224415383Y-68931168D01*
X225414822Y-68673680D01*
X226322490Y-68301130D01*
X227127160Y-67822723D01*
X227817603Y-67247667D01*
X228382591Y-66585166D01*
X228810895Y-65844428D01*
X229071493Y-65113616D01*
X229142854Y-64711640D01*
X229185856Y-64199488D01*
X229200432Y-63632850D01*
X229186515Y-63067417D01*
X229144037Y-62558879D01*
X229075058Y-62171004D01*
X228780986Y-61370604D01*
X228339889Y-60636087D01*
X227765843Y-59981193D01*
X227072929Y-59419664D01*
X226275225Y-58965241D01*
X225475800Y-58658114D01*
X224681366Y-58472494D01*
X223786182Y-58360515D01*
X222842791Y-58323877D01*
X221903736Y-58364285D01*
X221021559Y-58483441D01*
X220890972Y-58509555D01*
X219961246Y-58772896D01*
X219024864Y-59176095D01*
X218073975Y-59724110D01*
X217100725Y-60421896D01*
X216097262Y-61274408D01*
X215300837Y-62037624D01*
X214142873Y-63198808D01*
X212476969Y-61549061D01*
X212042226Y-61120711D01*
X211647534Y-60735991D01*
X211308488Y-60409767D01*
X211040685Y-60156905D01*
X210859721Y-59992274D01*
X210781193Y-59930739D01*
X210779442Y-59930937D01*
X210789334Y-60020602D01*
X210848390Y-60217731D01*
X210910355Y-60390320D01*
X211058544Y-60831282D01*
X211208592Y-61363039D01*
X211342244Y-61913529D01*
X211441243Y-62410691D01*
X211469688Y-62598300D01*
X211527616Y-63042800D01*
X208278208Y-63042941D01*
X207402908Y-63045452D01*
X206451276Y-63052502D01*
X205467815Y-63063475D01*
X204497027Y-63077755D01*
X203583416Y-63094725D01*
X202771483Y-63113769D01*
X202404134Y-63124290D01*
X201644681Y-63147815D01*
X200842447Y-63172713D01*
X200039986Y-63197660D01*
X199279852Y-63221333D01*
X198604601Y-63242406D01*
X198064967Y-63259300D01*
X196350467Y-63313102D01*
X196350467Y-62589621D01*
X196410078Y-61406612D01*
X196582879Y-60142786D01*
X196859824Y-58834510D01*
X197231867Y-57518150D01*
X197689961Y-56230074D01*
X198225059Y-55006647D01*
X198249125Y-54957134D01*
X198949400Y-53647224D01*
X199725802Y-52443440D01*
X200608153Y-51303939D01*
X201626277Y-50186878D01*
X201708767Y-50103013D01*
X203017340Y-48896104D01*
X204411826Y-47834294D01*
X205887018Y-46920085D01*
X207437709Y-46155980D01*
X209058690Y-45544482D01*
X210744756Y-45088094D01*
X212490698Y-44789318D01*
X212849814Y-44748361D01*
X213436923Y-44705819D01*
X214126676Y-44686244D01*
X214873238Y-44688327D01*
X215630773Y-44710761D01*
X216353445Y-44752237D01*
X216995417Y-44811447D01*
X217474800Y-44880357D01*
X219241535Y-45280895D01*
X220914561Y-45821926D01*
X222497178Y-46505150D01*
X223992684Y-47332267D01*
X225404379Y-48304979D01*
X226735562Y-49424986D01*
X227251114Y-49919467D01*
X228380108Y-51157028D01*
X229394177Y-52502537D01*
X230286898Y-53939651D01*
X231051846Y-55452024D01*
X231682598Y-57023312D01*
X232172731Y-58637169D01*
X232515819Y-60277252D01*
X232705441Y-61927214D01*
X232735172Y-63570711D01*
X232724025Y-63844996D01*
X232558119Y-65644894D01*
X232239786Y-67375446D01*
X231766465Y-69043688D01*
X231135592Y-70656654D01*
X230344605Y-72221380D01*
X229390941Y-73744901D01*
X228838782Y-74511388D01*
X228461702Y-74974128D01*
X227982603Y-75504146D01*
X227435637Y-76068066D01*
X226854958Y-76632512D01*
X226274717Y-77164109D01*
X225729066Y-77629482D01*
X225334414Y-77936056D01*
X223848187Y-78922534D01*
X222303349Y-79752426D01*
X220707279Y-80424076D01*
X219067356Y-80935829D01*
X217390961Y-81286031D01*
X215685472Y-81473028D01*
X213958269Y-81495163D01*
X213958269Y-82732232D01*
X214875721Y-82768476D01*
X216669018Y-82678279D01*
X218460427Y-82426365D01*
X219969085Y-82085348D01*
X221639224Y-81555306D01*
X223244013Y-80876334D01*
X224774750Y-80057508D01*
X226222733Y-79107904D01*
X227579259Y-78036599D01*
X228835629Y-76852668D01*
X229983139Y-75565187D01*
X231013088Y-74183232D01*
X231916775Y-72715880D01*
X232685497Y-71172206D01*
X233310553Y-69561285D01*
X233783242Y-67892196D01*
X233846069Y-67611456D01*
X234051924Y-66459933D01*
X234194487Y-65236251D01*
X234271367Y-63990167D01*
X234280176Y-62771443D01*
X234218522Y-61629836D01*
D12*
G04 #@! TO.C,R1*
X116569748Y-67082600D02*
X117092252Y-67082600D01*
X116569748Y-68502600D02*
X117092252Y-68502600D01*
G04 #@! TO.C,R4*
X172416400Y-109831348D02*
X172416400Y-110353852D01*
X173836400Y-109831348D02*
X173836400Y-110353852D01*
G04 #@! TO.C,R5*
X178967200Y-115390452D02*
X178967200Y-114867948D01*
X177547200Y-115390452D02*
X177547200Y-114867948D01*
G04 #@! TO.C,U3*
X96640600Y-107843400D02*
X97900600Y-107843400D01*
X103460600Y-107843400D02*
X102200600Y-107843400D01*
X96640600Y-111603400D02*
X96640600Y-107843400D01*
X103460600Y-113853400D02*
X103460600Y-107843400D01*
D11*
G04 #@! TO.C,G\002A\002A\002A*
G36*
X111312236Y-73096078D02*
X110775364Y-73155472D01*
X108984540Y-73475985D01*
X107251691Y-73951242D01*
X105585189Y-74577607D01*
X103993408Y-75351444D01*
X102484722Y-76269116D01*
X101067504Y-77326989D01*
X100956534Y-77419067D01*
X99641598Y-78626992D01*
X98454114Y-79939595D01*
X97397505Y-81346271D01*
X96475191Y-82836416D01*
X95690595Y-84399423D01*
X95047139Y-86024690D01*
X94548245Y-87701609D01*
X94197333Y-89419576D01*
X93997828Y-91167987D01*
X93953149Y-92936236D01*
X94066720Y-94713717D01*
X94341962Y-96489827D01*
X94531035Y-97332800D01*
X95039076Y-99046914D01*
X95692717Y-100685274D01*
X96483803Y-102241067D01*
X97404180Y-103707482D01*
X98445693Y-105077707D01*
X99600187Y-106344931D01*
X100859510Y-107502342D01*
X102215505Y-108543129D01*
X103660019Y-109460480D01*
X105184897Y-110247583D01*
X106781985Y-110897627D01*
X108443128Y-111403801D01*
X110160172Y-111759293D01*
X111924962Y-111957291D01*
X112047867Y-111964946D01*
X113021534Y-112022466D01*
X113074467Y-113546466D01*
X113091954Y-114035010D01*
X113108190Y-114460995D01*
X113122059Y-114797229D01*
X113132442Y-115016520D01*
X113137967Y-115091633D01*
X113215590Y-115112348D01*
X113233200Y-115112800D01*
X113273328Y-115032662D01*
X113302090Y-114809939D01*
X113316649Y-114471163D01*
X113317867Y-114321473D01*
X113324768Y-113841688D01*
X113342989Y-113304080D01*
X113368806Y-112814672D01*
X113372879Y-112755140D01*
X113427890Y-111980133D01*
X113905263Y-111980133D01*
X114277726Y-111964790D01*
X114768863Y-111922665D01*
X115331187Y-111859615D01*
X115917216Y-111781499D01*
X116479463Y-111694172D01*
X116970443Y-111603494D01*
X116987881Y-111599890D01*
X118721402Y-111155378D01*
X120398342Y-110556832D01*
X122007829Y-109811192D01*
X123538992Y-108925397D01*
X124980958Y-107906386D01*
X126322855Y-106761100D01*
X127553812Y-105496478D01*
X128623938Y-104172705D01*
X129076679Y-103540419D01*
X129460871Y-102961360D01*
X129808567Y-102382208D01*
X130151817Y-101749641D01*
X130513133Y-101029889D01*
X131215653Y-99400207D01*
X131761745Y-97714728D01*
X132150351Y-95984989D01*
X132380414Y-94222527D01*
X132414632Y-93356331D01*
X131177563Y-93356331D01*
X131033184Y-95097868D01*
X130833090Y-96316800D01*
X130575138Y-97384632D01*
X130216449Y-98521501D01*
X129776756Y-99677445D01*
X129275794Y-100802501D01*
X128733296Y-101846708D01*
X128475440Y-102285800D01*
X127569583Y-103611896D01*
X126521496Y-104874940D01*
X125352706Y-106054979D01*
X124084740Y-107132056D01*
X122739125Y-108086216D01*
X121349618Y-108891196D01*
X120186812Y-109435423D01*
X118947055Y-109912880D01*
X117668380Y-110313169D01*
X116388821Y-110625890D01*
X115146411Y-110840645D01*
X113979185Y-110947037D01*
X113807805Y-110953149D01*
X113408744Y-110964133D01*
X113450178Y-110011633D01*
X113487886Y-109044974D01*
X113523378Y-107941784D01*
X113556018Y-106734860D01*
X113585172Y-105456997D01*
X113610203Y-104140991D01*
X113630478Y-102819637D01*
X113645360Y-101525732D01*
X113654215Y-100292070D01*
X113656534Y-99355608D01*
X113656534Y-95727359D01*
X113886340Y-95669681D01*
X114051736Y-95654869D01*
X114348456Y-95653720D01*
X114739105Y-95665454D01*
X115186291Y-95689288D01*
X115346840Y-95700173D01*
X115782290Y-95730598D01*
X116151933Y-95754959D01*
X116425722Y-95771391D01*
X116573614Y-95778028D01*
X116591020Y-95777404D01*
X116531125Y-95727674D01*
X116357673Y-95599322D01*
X116095924Y-95410699D01*
X115771136Y-95180157D01*
X115702020Y-95131466D01*
X115324657Y-94851868D01*
X114987504Y-94581133D01*
X113731936Y-94581133D01*
X113334402Y-94631331D01*
X112990457Y-94666749D01*
X112636135Y-94691620D01*
X112562275Y-94694831D01*
X112187683Y-94708133D01*
X112354511Y-94517633D01*
X112507287Y-94342788D01*
X112712441Y-94107528D01*
X112830787Y-93971647D01*
X113140237Y-93616162D01*
X113436087Y-94098647D01*
X113731936Y-94581133D01*
X114987504Y-94581133D01*
X114934016Y-94538182D01*
X114553075Y-94211698D01*
X114204814Y-93893709D01*
X113912210Y-93605506D01*
X113698243Y-93368381D01*
X113585892Y-93203626D01*
X113574549Y-93160192D01*
X113641982Y-93068130D01*
X113818659Y-92915281D01*
X114070205Y-92730570D01*
X114146049Y-92679287D01*
X114540955Y-92382763D01*
X115001943Y-91981520D01*
X115496514Y-91508518D01*
X115992166Y-90996719D01*
X116456401Y-90479082D01*
X116856720Y-89988567D01*
X117027635Y-89756866D01*
X117522493Y-88989700D01*
X117948468Y-88199200D01*
X118283652Y-87429798D01*
X118489661Y-86791800D01*
X118604381Y-86204615D01*
X118682145Y-85508631D01*
X118714170Y-84894423D01*
X116957422Y-84894423D01*
X116942145Y-85629117D01*
X116888062Y-86251367D01*
X116784976Y-86815626D01*
X116622692Y-87376349D01*
X116391015Y-87987991D01*
X116367647Y-88044431D01*
X116094716Y-88624811D01*
X115730087Y-89289586D01*
X115298797Y-90000487D01*
X114825883Y-90719245D01*
X114336382Y-91407590D01*
X113855332Y-92027253D01*
X113470237Y-92473062D01*
X113125139Y-92847450D01*
X112733190Y-92486625D01*
X112508775Y-92265623D01*
X112220348Y-91961300D01*
X111911881Y-91620769D01*
X111724723Y-91406133D01*
X110936501Y-90410203D01*
X110261077Y-89399077D01*
X109711275Y-88394921D01*
X109299916Y-87419899D01*
X109153241Y-86961133D01*
X109047939Y-86447145D01*
X108981507Y-85817761D01*
X108953886Y-85122385D01*
X108965019Y-84410419D01*
X109014848Y-83731266D01*
X109103315Y-83134329D01*
X109157983Y-82897133D01*
X109461870Y-81998666D01*
X109858057Y-81228106D01*
X110340994Y-80590827D01*
X110905130Y-80092203D01*
X111544914Y-79737609D01*
X112254795Y-79532419D01*
X112682448Y-79484693D01*
X113536227Y-79505895D01*
X114293650Y-79665760D01*
X114958568Y-79966450D01*
X115534833Y-80410127D01*
X116026295Y-80998952D01*
X116342936Y-81539857D01*
X116599941Y-82151072D01*
X116784058Y-82832834D01*
X116900112Y-83611488D01*
X116952928Y-84513377D01*
X116957422Y-84894423D01*
X118714170Y-84894423D01*
X118721143Y-84760693D01*
X118719566Y-84017647D01*
X118675604Y-83336340D01*
X118613568Y-82899217D01*
X118356080Y-81899778D01*
X117983530Y-80992110D01*
X117505123Y-80187440D01*
X116930067Y-79496997D01*
X116267566Y-78932009D01*
X115526828Y-78503705D01*
X114796016Y-78243107D01*
X114394040Y-78171746D01*
X113881888Y-78128744D01*
X113315250Y-78114168D01*
X112749817Y-78128085D01*
X112241279Y-78170563D01*
X111853404Y-78239542D01*
X111053004Y-78533614D01*
X110318487Y-78974711D01*
X109663593Y-79548757D01*
X109102064Y-80241671D01*
X108647641Y-81039375D01*
X108340514Y-81838800D01*
X108154894Y-82633234D01*
X108042915Y-83528418D01*
X108006277Y-84471809D01*
X108046685Y-85410864D01*
X108165841Y-86293041D01*
X108191955Y-86423628D01*
X108455296Y-87353354D01*
X108858495Y-88289736D01*
X109406510Y-89240625D01*
X110104296Y-90213875D01*
X110956808Y-91217338D01*
X111720024Y-92013763D01*
X112881208Y-93171727D01*
X111231461Y-94837631D01*
X110803111Y-95272374D01*
X110418391Y-95667066D01*
X110092167Y-96006112D01*
X109839305Y-96273915D01*
X109674674Y-96454879D01*
X109613139Y-96533407D01*
X109613337Y-96535158D01*
X109703002Y-96525266D01*
X109900131Y-96466210D01*
X110072720Y-96404245D01*
X110513682Y-96256056D01*
X111045439Y-96106008D01*
X111595929Y-95972356D01*
X112093091Y-95873357D01*
X112280700Y-95844912D01*
X112725200Y-95786984D01*
X112725341Y-99036392D01*
X112727852Y-99911692D01*
X112734902Y-100863324D01*
X112745875Y-101846785D01*
X112760155Y-102817573D01*
X112777125Y-103731184D01*
X112796169Y-104543117D01*
X112806690Y-104910466D01*
X112830215Y-105669919D01*
X112855113Y-106472153D01*
X112880060Y-107274614D01*
X112903733Y-108034748D01*
X112924806Y-108709999D01*
X112941700Y-109249633D01*
X112995502Y-110964133D01*
X112272021Y-110964133D01*
X111089012Y-110904522D01*
X109825186Y-110731721D01*
X108516910Y-110454776D01*
X107200550Y-110082733D01*
X105912474Y-109624639D01*
X104689047Y-109089541D01*
X104639534Y-109065475D01*
X103329624Y-108365200D01*
X102125840Y-107588798D01*
X100986339Y-106706447D01*
X99869278Y-105688323D01*
X99785413Y-105605833D01*
X98578504Y-104297260D01*
X97516694Y-102902774D01*
X96602485Y-101427582D01*
X95838380Y-99876891D01*
X95226882Y-98255910D01*
X94770494Y-96569844D01*
X94471718Y-94823902D01*
X94430761Y-94464786D01*
X94388219Y-93877677D01*
X94368644Y-93187924D01*
X94370727Y-92441362D01*
X94393161Y-91683827D01*
X94434637Y-90961155D01*
X94493847Y-90319183D01*
X94562757Y-89839800D01*
X94963295Y-88073065D01*
X95504326Y-86400039D01*
X96187550Y-84817422D01*
X97014667Y-83321916D01*
X97987379Y-81910221D01*
X99107386Y-80579038D01*
X99601867Y-80063486D01*
X100839428Y-78934492D01*
X102184937Y-77920423D01*
X103622051Y-77027702D01*
X105134424Y-76262754D01*
X106705712Y-75632002D01*
X108319569Y-75141869D01*
X109959652Y-74798781D01*
X111609614Y-74609159D01*
X113253111Y-74579428D01*
X113527396Y-74590575D01*
X115327294Y-74756481D01*
X117057846Y-75074814D01*
X118726088Y-75548135D01*
X120339054Y-76179008D01*
X121903780Y-76969995D01*
X123427301Y-77923659D01*
X124193788Y-78475818D01*
X124656528Y-78852898D01*
X125186546Y-79331997D01*
X125750466Y-79878963D01*
X126314912Y-80459642D01*
X126846509Y-81039883D01*
X127311882Y-81585534D01*
X127618456Y-81980186D01*
X128604934Y-83466413D01*
X129434826Y-85011251D01*
X130106476Y-86607321D01*
X130618229Y-88247244D01*
X130968431Y-89923639D01*
X131155428Y-91629128D01*
X131177563Y-93356331D01*
X132414632Y-93356331D01*
X132450876Y-92438879D01*
X132360679Y-90645582D01*
X132108765Y-88854173D01*
X131767748Y-87345515D01*
X131237706Y-85675376D01*
X130558734Y-84070587D01*
X129739908Y-82539850D01*
X128790304Y-81091867D01*
X127718999Y-79735341D01*
X126535068Y-78478971D01*
X125247587Y-77331461D01*
X123865632Y-76301512D01*
X122398280Y-75397825D01*
X120854606Y-74629103D01*
X119243685Y-74004047D01*
X117574596Y-73531358D01*
X117293856Y-73468531D01*
X116142333Y-73262676D01*
X114918651Y-73120113D01*
X113672567Y-73043233D01*
X112453843Y-73034424D01*
X111312236Y-73096078D01*
X111312236Y-73096078D01*
G37*
X111312236Y-73096078D02*
X110775364Y-73155472D01*
X108984540Y-73475985D01*
X107251691Y-73951242D01*
X105585189Y-74577607D01*
X103993408Y-75351444D01*
X102484722Y-76269116D01*
X101067504Y-77326989D01*
X100956534Y-77419067D01*
X99641598Y-78626992D01*
X98454114Y-79939595D01*
X97397505Y-81346271D01*
X96475191Y-82836416D01*
X95690595Y-84399423D01*
X95047139Y-86024690D01*
X94548245Y-87701609D01*
X94197333Y-89419576D01*
X93997828Y-91167987D01*
X93953149Y-92936236D01*
X94066720Y-94713717D01*
X94341962Y-96489827D01*
X94531035Y-97332800D01*
X95039076Y-99046914D01*
X95692717Y-100685274D01*
X96483803Y-102241067D01*
X97404180Y-103707482D01*
X98445693Y-105077707D01*
X99600187Y-106344931D01*
X100859510Y-107502342D01*
X102215505Y-108543129D01*
X103660019Y-109460480D01*
X105184897Y-110247583D01*
X106781985Y-110897627D01*
X108443128Y-111403801D01*
X110160172Y-111759293D01*
X111924962Y-111957291D01*
X112047867Y-111964946D01*
X113021534Y-112022466D01*
X113074467Y-113546466D01*
X113091954Y-114035010D01*
X113108190Y-114460995D01*
X113122059Y-114797229D01*
X113132442Y-115016520D01*
X113137967Y-115091633D01*
X113215590Y-115112348D01*
X113233200Y-115112800D01*
X113273328Y-115032662D01*
X113302090Y-114809939D01*
X113316649Y-114471163D01*
X113317867Y-114321473D01*
X113324768Y-113841688D01*
X113342989Y-113304080D01*
X113368806Y-112814672D01*
X113372879Y-112755140D01*
X113427890Y-111980133D01*
X113905263Y-111980133D01*
X114277726Y-111964790D01*
X114768863Y-111922665D01*
X115331187Y-111859615D01*
X115917216Y-111781499D01*
X116479463Y-111694172D01*
X116970443Y-111603494D01*
X116987881Y-111599890D01*
X118721402Y-111155378D01*
X120398342Y-110556832D01*
X122007829Y-109811192D01*
X123538992Y-108925397D01*
X124980958Y-107906386D01*
X126322855Y-106761100D01*
X127553812Y-105496478D01*
X128623938Y-104172705D01*
X129076679Y-103540419D01*
X129460871Y-102961360D01*
X129808567Y-102382208D01*
X130151817Y-101749641D01*
X130513133Y-101029889D01*
X131215653Y-99400207D01*
X131761745Y-97714728D01*
X132150351Y-95984989D01*
X132380414Y-94222527D01*
X132414632Y-93356331D01*
X131177563Y-93356331D01*
X131033184Y-95097868D01*
X130833090Y-96316800D01*
X130575138Y-97384632D01*
X130216449Y-98521501D01*
X129776756Y-99677445D01*
X129275794Y-100802501D01*
X128733296Y-101846708D01*
X128475440Y-102285800D01*
X127569583Y-103611896D01*
X126521496Y-104874940D01*
X125352706Y-106054979D01*
X124084740Y-107132056D01*
X122739125Y-108086216D01*
X121349618Y-108891196D01*
X120186812Y-109435423D01*
X118947055Y-109912880D01*
X117668380Y-110313169D01*
X116388821Y-110625890D01*
X115146411Y-110840645D01*
X113979185Y-110947037D01*
X113807805Y-110953149D01*
X113408744Y-110964133D01*
X113450178Y-110011633D01*
X113487886Y-109044974D01*
X113523378Y-107941784D01*
X113556018Y-106734860D01*
X113585172Y-105456997D01*
X113610203Y-104140991D01*
X113630478Y-102819637D01*
X113645360Y-101525732D01*
X113654215Y-100292070D01*
X113656534Y-99355608D01*
X113656534Y-95727359D01*
X113886340Y-95669681D01*
X114051736Y-95654869D01*
X114348456Y-95653720D01*
X114739105Y-95665454D01*
X115186291Y-95689288D01*
X115346840Y-95700173D01*
X115782290Y-95730598D01*
X116151933Y-95754959D01*
X116425722Y-95771391D01*
X116573614Y-95778028D01*
X116591020Y-95777404D01*
X116531125Y-95727674D01*
X116357673Y-95599322D01*
X116095924Y-95410699D01*
X115771136Y-95180157D01*
X115702020Y-95131466D01*
X115324657Y-94851868D01*
X114987504Y-94581133D01*
X113731936Y-94581133D01*
X113334402Y-94631331D01*
X112990457Y-94666749D01*
X112636135Y-94691620D01*
X112562275Y-94694831D01*
X112187683Y-94708133D01*
X112354511Y-94517633D01*
X112507287Y-94342788D01*
X112712441Y-94107528D01*
X112830787Y-93971647D01*
X113140237Y-93616162D01*
X113436087Y-94098647D01*
X113731936Y-94581133D01*
X114987504Y-94581133D01*
X114934016Y-94538182D01*
X114553075Y-94211698D01*
X114204814Y-93893709D01*
X113912210Y-93605506D01*
X113698243Y-93368381D01*
X113585892Y-93203626D01*
X113574549Y-93160192D01*
X113641982Y-93068130D01*
X113818659Y-92915281D01*
X114070205Y-92730570D01*
X114146049Y-92679287D01*
X114540955Y-92382763D01*
X115001943Y-91981520D01*
X115496514Y-91508518D01*
X115992166Y-90996719D01*
X116456401Y-90479082D01*
X116856720Y-89988567D01*
X117027635Y-89756866D01*
X117522493Y-88989700D01*
X117948468Y-88199200D01*
X118283652Y-87429798D01*
X118489661Y-86791800D01*
X118604381Y-86204615D01*
X118682145Y-85508631D01*
X118714170Y-84894423D01*
X116957422Y-84894423D01*
X116942145Y-85629117D01*
X116888062Y-86251367D01*
X116784976Y-86815626D01*
X116622692Y-87376349D01*
X116391015Y-87987991D01*
X116367647Y-88044431D01*
X116094716Y-88624811D01*
X115730087Y-89289586D01*
X115298797Y-90000487D01*
X114825883Y-90719245D01*
X114336382Y-91407590D01*
X113855332Y-92027253D01*
X113470237Y-92473062D01*
X113125139Y-92847450D01*
X112733190Y-92486625D01*
X112508775Y-92265623D01*
X112220348Y-91961300D01*
X111911881Y-91620769D01*
X111724723Y-91406133D01*
X110936501Y-90410203D01*
X110261077Y-89399077D01*
X109711275Y-88394921D01*
X109299916Y-87419899D01*
X109153241Y-86961133D01*
X109047939Y-86447145D01*
X108981507Y-85817761D01*
X108953886Y-85122385D01*
X108965019Y-84410419D01*
X109014848Y-83731266D01*
X109103315Y-83134329D01*
X109157983Y-82897133D01*
X109461870Y-81998666D01*
X109858057Y-81228106D01*
X110340994Y-80590827D01*
X110905130Y-80092203D01*
X111544914Y-79737609D01*
X112254795Y-79532419D01*
X112682448Y-79484693D01*
X113536227Y-79505895D01*
X114293650Y-79665760D01*
X114958568Y-79966450D01*
X115534833Y-80410127D01*
X116026295Y-80998952D01*
X116342936Y-81539857D01*
X116599941Y-82151072D01*
X116784058Y-82832834D01*
X116900112Y-83611488D01*
X116952928Y-84513377D01*
X116957422Y-84894423D01*
X118714170Y-84894423D01*
X118721143Y-84760693D01*
X118719566Y-84017647D01*
X118675604Y-83336340D01*
X118613568Y-82899217D01*
X118356080Y-81899778D01*
X117983530Y-80992110D01*
X117505123Y-80187440D01*
X116930067Y-79496997D01*
X116267566Y-78932009D01*
X115526828Y-78503705D01*
X114796016Y-78243107D01*
X114394040Y-78171746D01*
X113881888Y-78128744D01*
X113315250Y-78114168D01*
X112749817Y-78128085D01*
X112241279Y-78170563D01*
X111853404Y-78239542D01*
X111053004Y-78533614D01*
X110318487Y-78974711D01*
X109663593Y-79548757D01*
X109102064Y-80241671D01*
X108647641Y-81039375D01*
X108340514Y-81838800D01*
X108154894Y-82633234D01*
X108042915Y-83528418D01*
X108006277Y-84471809D01*
X108046685Y-85410864D01*
X108165841Y-86293041D01*
X108191955Y-86423628D01*
X108455296Y-87353354D01*
X108858495Y-88289736D01*
X109406510Y-89240625D01*
X110104296Y-90213875D01*
X110956808Y-91217338D01*
X111720024Y-92013763D01*
X112881208Y-93171727D01*
X111231461Y-94837631D01*
X110803111Y-95272374D01*
X110418391Y-95667066D01*
X110092167Y-96006112D01*
X109839305Y-96273915D01*
X109674674Y-96454879D01*
X109613139Y-96533407D01*
X109613337Y-96535158D01*
X109703002Y-96525266D01*
X109900131Y-96466210D01*
X110072720Y-96404245D01*
X110513682Y-96256056D01*
X111045439Y-96106008D01*
X111595929Y-95972356D01*
X112093091Y-95873357D01*
X112280700Y-95844912D01*
X112725200Y-95786984D01*
X112725341Y-99036392D01*
X112727852Y-99911692D01*
X112734902Y-100863324D01*
X112745875Y-101846785D01*
X112760155Y-102817573D01*
X112777125Y-103731184D01*
X112796169Y-104543117D01*
X112806690Y-104910466D01*
X112830215Y-105669919D01*
X112855113Y-106472153D01*
X112880060Y-107274614D01*
X112903733Y-108034748D01*
X112924806Y-108709999D01*
X112941700Y-109249633D01*
X112995502Y-110964133D01*
X112272021Y-110964133D01*
X111089012Y-110904522D01*
X109825186Y-110731721D01*
X108516910Y-110454776D01*
X107200550Y-110082733D01*
X105912474Y-109624639D01*
X104689047Y-109089541D01*
X104639534Y-109065475D01*
X103329624Y-108365200D01*
X102125840Y-107588798D01*
X100986339Y-106706447D01*
X99869278Y-105688323D01*
X99785413Y-105605833D01*
X98578504Y-104297260D01*
X97516694Y-102902774D01*
X96602485Y-101427582D01*
X95838380Y-99876891D01*
X95226882Y-98255910D01*
X94770494Y-96569844D01*
X94471718Y-94823902D01*
X94430761Y-94464786D01*
X94388219Y-93877677D01*
X94368644Y-93187924D01*
X94370727Y-92441362D01*
X94393161Y-91683827D01*
X94434637Y-90961155D01*
X94493847Y-90319183D01*
X94562757Y-89839800D01*
X94963295Y-88073065D01*
X95504326Y-86400039D01*
X96187550Y-84817422D01*
X97014667Y-83321916D01*
X97987379Y-81910221D01*
X99107386Y-80579038D01*
X99601867Y-80063486D01*
X100839428Y-78934492D01*
X102184937Y-77920423D01*
X103622051Y-77027702D01*
X105134424Y-76262754D01*
X106705712Y-75632002D01*
X108319569Y-75141869D01*
X109959652Y-74798781D01*
X111609614Y-74609159D01*
X113253111Y-74579428D01*
X113527396Y-74590575D01*
X115327294Y-74756481D01*
X117057846Y-75074814D01*
X118726088Y-75548135D01*
X120339054Y-76179008D01*
X121903780Y-76969995D01*
X123427301Y-77923659D01*
X124193788Y-78475818D01*
X124656528Y-78852898D01*
X125186546Y-79331997D01*
X125750466Y-79878963D01*
X126314912Y-80459642D01*
X126846509Y-81039883D01*
X127311882Y-81585534D01*
X127618456Y-81980186D01*
X128604934Y-83466413D01*
X129434826Y-85011251D01*
X130106476Y-86607321D01*
X130618229Y-88247244D01*
X130968431Y-89923639D01*
X131155428Y-91629128D01*
X131177563Y-93356331D01*
X132414632Y-93356331D01*
X132450876Y-92438879D01*
X132360679Y-90645582D01*
X132108765Y-88854173D01*
X131767748Y-87345515D01*
X131237706Y-85675376D01*
X130558734Y-84070587D01*
X129739908Y-82539850D01*
X128790304Y-81091867D01*
X127718999Y-79735341D01*
X126535068Y-78478971D01*
X125247587Y-77331461D01*
X123865632Y-76301512D01*
X122398280Y-75397825D01*
X120854606Y-74629103D01*
X119243685Y-74004047D01*
X117574596Y-73531358D01*
X117293856Y-73468531D01*
X116142333Y-73262676D01*
X114918651Y-73120113D01*
X113672567Y-73043233D01*
X112453843Y-73034424D01*
X111312236Y-73096078D01*
G36*
X155316946Y-75064327D02*
X155219715Y-75205786D01*
X155175073Y-75486677D01*
X155169897Y-75670833D01*
X155199065Y-76001324D01*
X155280302Y-76214165D01*
X155400717Y-76293529D01*
X155547419Y-76223585D01*
X155586005Y-76181743D01*
X155640935Y-76023470D01*
X155663481Y-75749381D01*
X155659872Y-75568733D01*
X155635131Y-75280787D01*
X155589602Y-75122492D01*
X155509326Y-75054306D01*
X155475079Y-75045258D01*
X155316946Y-75064327D01*
X155316946Y-75064327D01*
G37*
X155316946Y-75064327D02*
X155219715Y-75205786D01*
X155175073Y-75486677D01*
X155169897Y-75670833D01*
X155199065Y-76001324D01*
X155280302Y-76214165D01*
X155400717Y-76293529D01*
X155547419Y-76223585D01*
X155586005Y-76181743D01*
X155640935Y-76023470D01*
X155663481Y-75749381D01*
X155659872Y-75568733D01*
X155635131Y-75280787D01*
X155589602Y-75122492D01*
X155509326Y-75054306D01*
X155475079Y-75045258D01*
X155316946Y-75064327D01*
G36*
X155359964Y-76656759D02*
X155115744Y-76681184D01*
X154996813Y-76730532D01*
X154959128Y-76830754D01*
X154956934Y-76894266D01*
X154973627Y-77023598D01*
X155053069Y-77091153D01*
X155239300Y-77122885D01*
X155359964Y-77131774D01*
X155628837Y-77132742D01*
X155771206Y-77085480D01*
X155813522Y-77025940D01*
X155843295Y-76817035D01*
X155734438Y-76694185D01*
X155481439Y-76652905D01*
X155359964Y-76656759D01*
X155359964Y-76656759D01*
G37*
X155359964Y-76656759D02*
X155115744Y-76681184D01*
X154996813Y-76730532D01*
X154959128Y-76830754D01*
X154956934Y-76894266D01*
X154973627Y-77023598D01*
X155053069Y-77091153D01*
X155239300Y-77122885D01*
X155359964Y-77131774D01*
X155628837Y-77132742D01*
X155771206Y-77085480D01*
X155813522Y-77025940D01*
X155843295Y-76817035D01*
X155734438Y-76694185D01*
X155481439Y-76652905D01*
X155359964Y-76656759D01*
G36*
X154192924Y-78389837D02*
X154111330Y-78526577D01*
X154110267Y-78546426D01*
X154174460Y-78688504D01*
X154317330Y-78745276D01*
X154464316Y-78703489D01*
X154525600Y-78620252D01*
X154535781Y-78458944D01*
X154503036Y-78396168D01*
X154349434Y-78336443D01*
X154192924Y-78389837D01*
X154192924Y-78389837D01*
G37*
X154192924Y-78389837D02*
X154111330Y-78526577D01*
X154110267Y-78546426D01*
X154174460Y-78688504D01*
X154317330Y-78745276D01*
X154464316Y-78703489D01*
X154525600Y-78620252D01*
X154535781Y-78458944D01*
X154503036Y-78396168D01*
X154349434Y-78336443D01*
X154192924Y-78389837D01*
G36*
X154146585Y-79243997D02*
X154087282Y-79391811D01*
X154156461Y-79558646D01*
X154166041Y-79568659D01*
X154289765Y-79645723D01*
X154427608Y-79587266D01*
X154436227Y-79581027D01*
X154534694Y-79431544D01*
X154503567Y-79277208D01*
X154364070Y-79185523D01*
X154310218Y-79180266D01*
X154146585Y-79243997D01*
X154146585Y-79243997D01*
G37*
X154146585Y-79243997D02*
X154087282Y-79391811D01*
X154156461Y-79558646D01*
X154166041Y-79568659D01*
X154289765Y-79645723D01*
X154427608Y-79587266D01*
X154436227Y-79581027D01*
X154534694Y-79431544D01*
X154503567Y-79277208D01*
X154364070Y-79185523D01*
X154310218Y-79180266D01*
X154146585Y-79243997D01*
G36*
X159531392Y-79559790D02*
X159423808Y-79630106D01*
X159336595Y-79758444D01*
X159386590Y-79881098D01*
X159398407Y-79895684D01*
X159515733Y-80003999D01*
X159645849Y-79998321D01*
X159719434Y-79970860D01*
X159811349Y-79859539D01*
X159811050Y-79695427D01*
X159724129Y-79563964D01*
X159691702Y-79547031D01*
X159531392Y-79559790D01*
X159531392Y-79559790D01*
G37*
X159531392Y-79559790D02*
X159423808Y-79630106D01*
X159336595Y-79758444D01*
X159386590Y-79881098D01*
X159398407Y-79895684D01*
X159515733Y-80003999D01*
X159645849Y-79998321D01*
X159719434Y-79970860D01*
X159811349Y-79859539D01*
X159811050Y-79695427D01*
X159724129Y-79563964D01*
X159691702Y-79547031D01*
X159531392Y-79559790D01*
G36*
X160542566Y-78957792D02*
X160474521Y-79063273D01*
X160434403Y-79284208D01*
X160420689Y-79572329D01*
X160431855Y-79879370D01*
X160466380Y-80157061D01*
X160522741Y-80357135D01*
X160589029Y-80430634D01*
X160756566Y-80397763D01*
X160821863Y-80351137D01*
X160880383Y-80206901D01*
X160916977Y-79937837D01*
X160925934Y-79681700D01*
X160898607Y-79277917D01*
X160815258Y-79030764D01*
X160673836Y-78936367D01*
X160542566Y-78957792D01*
X160542566Y-78957792D01*
G37*
X160542566Y-78957792D02*
X160474521Y-79063273D01*
X160434403Y-79284208D01*
X160420689Y-79572329D01*
X160431855Y-79879370D01*
X160466380Y-80157061D01*
X160522741Y-80357135D01*
X160589029Y-80430634D01*
X160756566Y-80397763D01*
X160821863Y-80351137D01*
X160880383Y-80206901D01*
X160916977Y-79937837D01*
X160925934Y-79681700D01*
X160898607Y-79277917D01*
X160815258Y-79030764D01*
X160673836Y-78936367D01*
X160542566Y-78957792D01*
G36*
X154146466Y-80090123D02*
X154088331Y-80237676D01*
X154158065Y-80406565D01*
X154171261Y-80420546D01*
X154284861Y-80502173D01*
X154390087Y-80452817D01*
X154433241Y-80411530D01*
X154523959Y-80241210D01*
X154481404Y-80094379D01*
X154323543Y-80027204D01*
X154310218Y-80026933D01*
X154146466Y-80090123D01*
X154146466Y-80090123D01*
G37*
X154146466Y-80090123D02*
X154088331Y-80237676D01*
X154158065Y-80406565D01*
X154171261Y-80420546D01*
X154284861Y-80502173D01*
X154390087Y-80452817D01*
X154433241Y-80411530D01*
X154523959Y-80241210D01*
X154481404Y-80094379D01*
X154323543Y-80027204D01*
X154310218Y-80026933D01*
X154146466Y-80090123D01*
G36*
X148945595Y-79648459D02*
X148898608Y-79727834D01*
X148872980Y-79888095D01*
X148862530Y-80161618D01*
X148860934Y-80451426D01*
X148863433Y-80825311D01*
X148875648Y-81062514D01*
X148904653Y-81195666D01*
X148957526Y-81257398D01*
X149040658Y-81280243D01*
X149213047Y-81243705D01*
X149273491Y-81167485D01*
X149305219Y-80994891D01*
X149321573Y-80720424D01*
X149323368Y-80398792D01*
X149311419Y-80084705D01*
X149286540Y-79832871D01*
X149251659Y-79701102D01*
X149117685Y-79619254D01*
X149020122Y-79617595D01*
X148945595Y-79648459D01*
X148945595Y-79648459D01*
G37*
X148945595Y-79648459D02*
X148898608Y-79727834D01*
X148872980Y-79888095D01*
X148862530Y-80161618D01*
X148860934Y-80451426D01*
X148863433Y-80825311D01*
X148875648Y-81062514D01*
X148904653Y-81195666D01*
X148957526Y-81257398D01*
X149040658Y-81280243D01*
X149213047Y-81243705D01*
X149273491Y-81167485D01*
X149305219Y-80994891D01*
X149321573Y-80720424D01*
X149323368Y-80398792D01*
X149311419Y-80084705D01*
X149286540Y-79832871D01*
X149251659Y-79701102D01*
X149117685Y-79619254D01*
X149020122Y-79617595D01*
X148945595Y-79648459D01*
G36*
X154136190Y-80990442D02*
X154110267Y-81127600D01*
X154162612Y-81293102D01*
X154280488Y-81371464D01*
X154405157Y-81340193D01*
X154458248Y-81260857D01*
X154477172Y-81064021D01*
X154396450Y-80922351D01*
X154258690Y-80889668D01*
X154136190Y-80990442D01*
X154136190Y-80990442D01*
G37*
X154136190Y-80990442D02*
X154110267Y-81127600D01*
X154162612Y-81293102D01*
X154280488Y-81371464D01*
X154405157Y-81340193D01*
X154458248Y-81260857D01*
X154477172Y-81064021D01*
X154396450Y-80922351D01*
X154258690Y-80889668D01*
X154136190Y-80990442D01*
G36*
X148892500Y-81526110D02*
X148818600Y-81593266D01*
X148755881Y-81728779D01*
X148818600Y-81847266D01*
X148964162Y-81954927D01*
X149043291Y-81974266D01*
X149175213Y-81905947D01*
X149211316Y-81847266D01*
X149226802Y-81655352D01*
X149146982Y-81507236D01*
X149043291Y-81466266D01*
X148892500Y-81526110D01*
X148892500Y-81526110D01*
G37*
X148892500Y-81526110D02*
X148818600Y-81593266D01*
X148755881Y-81728779D01*
X148818600Y-81847266D01*
X148964162Y-81954927D01*
X149043291Y-81974266D01*
X149175213Y-81905947D01*
X149211316Y-81847266D01*
X149226802Y-81655352D01*
X149146982Y-81507236D01*
X149043291Y-81466266D01*
X148892500Y-81526110D01*
G36*
X154199591Y-81866350D02*
X154089148Y-81988229D01*
X154081742Y-82110439D01*
X154171057Y-82251270D01*
X154320099Y-82304373D01*
X154431896Y-82259415D01*
X154489986Y-82110893D01*
X154458256Y-81944652D01*
X154377756Y-81864158D01*
X154199591Y-81866350D01*
X154199591Y-81866350D01*
G37*
X154199591Y-81866350D02*
X154089148Y-81988229D01*
X154081742Y-82110439D01*
X154171057Y-82251270D01*
X154320099Y-82304373D01*
X154431896Y-82259415D01*
X154489986Y-82110893D01*
X154458256Y-81944652D01*
X154377756Y-81864158D01*
X154199591Y-81866350D01*
G36*
X159432571Y-81425363D02*
X159325246Y-81515647D01*
X159155524Y-81642794D01*
X159022093Y-81677933D01*
X158879331Y-81742196D01*
X158816724Y-81884182D01*
X158858613Y-82027684D01*
X158899334Y-82062271D01*
X158953152Y-82141539D01*
X158871920Y-82262195D01*
X158859284Y-82275011D01*
X158762120Y-82399277D01*
X158792834Y-82498533D01*
X158838988Y-82548272D01*
X158998652Y-82629742D01*
X159099035Y-82623501D01*
X159206648Y-82509723D01*
X159225682Y-82341746D01*
X159150513Y-82206900D01*
X159126767Y-82192988D01*
X159064503Y-82137385D01*
X159126767Y-82094211D01*
X159224253Y-81975335D01*
X159232600Y-81924877D01*
X159284609Y-81816908D01*
X159392016Y-81831573D01*
X159444267Y-81889600D01*
X159442732Y-81967844D01*
X159415989Y-81974266D01*
X159311732Y-82038986D01*
X159287874Y-82184274D01*
X159354129Y-82336823D01*
X159366222Y-82349792D01*
X159441417Y-82455355D01*
X159402534Y-82559407D01*
X159317203Y-82651664D01*
X159171307Y-82763937D01*
X159072652Y-82784400D01*
X158944645Y-82786056D01*
X158822170Y-82889368D01*
X158762428Y-83034732D01*
X158771384Y-83098333D01*
X158886935Y-83218518D01*
X159048902Y-83233329D01*
X159179985Y-83144623D01*
X159204674Y-83087913D01*
X159290289Y-82973025D01*
X159449695Y-82970581D01*
X159636842Y-82945063D01*
X159725351Y-82818424D01*
X159683022Y-82644994D01*
X159660545Y-82614822D01*
X159605476Y-82476997D01*
X159667146Y-82326442D01*
X159728588Y-82165114D01*
X159658228Y-82018763D01*
X159650840Y-82009706D01*
X159577132Y-81886536D01*
X159632478Y-81827224D01*
X159634767Y-81826442D01*
X159726679Y-81723946D01*
X159727214Y-81564948D01*
X159643053Y-81430998D01*
X159600413Y-81407157D01*
X159432571Y-81425363D01*
X159432571Y-81425363D01*
G37*
X159432571Y-81425363D02*
X159325246Y-81515647D01*
X159155524Y-81642794D01*
X159022093Y-81677933D01*
X158879331Y-81742196D01*
X158816724Y-81884182D01*
X158858613Y-82027684D01*
X158899334Y-82062271D01*
X158953152Y-82141539D01*
X158871920Y-82262195D01*
X158859284Y-82275011D01*
X158762120Y-82399277D01*
X158792834Y-82498533D01*
X158838988Y-82548272D01*
X158998652Y-82629742D01*
X159099035Y-82623501D01*
X159206648Y-82509723D01*
X159225682Y-82341746D01*
X159150513Y-82206900D01*
X159126767Y-82192988D01*
X159064503Y-82137385D01*
X159126767Y-82094211D01*
X159224253Y-81975335D01*
X159232600Y-81924877D01*
X159284609Y-81816908D01*
X159392016Y-81831573D01*
X159444267Y-81889600D01*
X159442732Y-81967844D01*
X159415989Y-81974266D01*
X159311732Y-82038986D01*
X159287874Y-82184274D01*
X159354129Y-82336823D01*
X159366222Y-82349792D01*
X159441417Y-82455355D01*
X159402534Y-82559407D01*
X159317203Y-82651664D01*
X159171307Y-82763937D01*
X159072652Y-82784400D01*
X158944645Y-82786056D01*
X158822170Y-82889368D01*
X158762428Y-83034732D01*
X158771384Y-83098333D01*
X158886935Y-83218518D01*
X159048902Y-83233329D01*
X159179985Y-83144623D01*
X159204674Y-83087913D01*
X159290289Y-82973025D01*
X159449695Y-82970581D01*
X159636842Y-82945063D01*
X159725351Y-82818424D01*
X159683022Y-82644994D01*
X159660545Y-82614822D01*
X159605476Y-82476997D01*
X159667146Y-82326442D01*
X159728588Y-82165114D01*
X159658228Y-82018763D01*
X159650840Y-82009706D01*
X159577132Y-81886536D01*
X159632478Y-81827224D01*
X159634767Y-81826442D01*
X159726679Y-81723946D01*
X159727214Y-81564948D01*
X159643053Y-81430998D01*
X159600413Y-81407157D01*
X159432571Y-81425363D01*
G36*
X149600488Y-81476004D02*
X149595141Y-82207870D01*
X149594586Y-82787285D01*
X149599435Y-83231079D01*
X149610302Y-83556081D01*
X149627798Y-83779122D01*
X149652536Y-83917032D01*
X149685128Y-83986640D01*
X149692101Y-83993402D01*
X149831494Y-84041841D01*
X149948786Y-83983665D01*
X149990468Y-83939903D01*
X150022800Y-83864340D01*
X150046683Y-83738108D01*
X150063016Y-83542338D01*
X150072698Y-83258163D01*
X150076631Y-82866713D01*
X150075714Y-82349120D01*
X150070846Y-81686515D01*
X150068840Y-81466266D01*
X150046267Y-79053266D01*
X149622934Y-79053266D01*
X149600488Y-81476004D01*
X149600488Y-81476004D01*
G37*
X149600488Y-81476004D02*
X149595141Y-82207870D01*
X149594586Y-82787285D01*
X149599435Y-83231079D01*
X149610302Y-83556081D01*
X149627798Y-83779122D01*
X149652536Y-83917032D01*
X149685128Y-83986640D01*
X149692101Y-83993402D01*
X149831494Y-84041841D01*
X149948786Y-83983665D01*
X149990468Y-83939903D01*
X150022800Y-83864340D01*
X150046683Y-83738108D01*
X150063016Y-83542338D01*
X150072698Y-83258163D01*
X150076631Y-82866713D01*
X150075714Y-82349120D01*
X150070846Y-81686515D01*
X150068840Y-81466266D01*
X150046267Y-79053266D01*
X149622934Y-79053266D01*
X149600488Y-81476004D01*
G36*
X150959680Y-83640658D02*
X150864008Y-83702573D01*
X150783303Y-83828071D01*
X150843815Y-83955734D01*
X150847074Y-83959684D01*
X151016755Y-84078845D01*
X151182733Y-84062010D01*
X151217489Y-84034488D01*
X151274887Y-83877318D01*
X151223685Y-83707206D01*
X151131902Y-83631214D01*
X150959680Y-83640658D01*
X150959680Y-83640658D01*
G37*
X150959680Y-83640658D02*
X150864008Y-83702573D01*
X150783303Y-83828071D01*
X150843815Y-83955734D01*
X150847074Y-83959684D01*
X151016755Y-84078845D01*
X151182733Y-84062010D01*
X151217489Y-84034488D01*
X151274887Y-83877318D01*
X151223685Y-83707206D01*
X151131902Y-83631214D01*
X150959680Y-83640658D01*
G36*
X150980059Y-84216456D02*
X150872475Y-84286773D01*
X150785262Y-84415110D01*
X150835256Y-84537765D01*
X150847074Y-84552350D01*
X150964400Y-84660666D01*
X151094516Y-84654987D01*
X151168100Y-84627526D01*
X151260015Y-84516206D01*
X151259717Y-84352093D01*
X151172795Y-84220630D01*
X151140369Y-84203698D01*
X150980059Y-84216456D01*
X150980059Y-84216456D01*
G37*
X150980059Y-84216456D02*
X150872475Y-84286773D01*
X150785262Y-84415110D01*
X150835256Y-84537765D01*
X150847074Y-84552350D01*
X150964400Y-84660666D01*
X151094516Y-84654987D01*
X151168100Y-84627526D01*
X151260015Y-84516206D01*
X151259717Y-84352093D01*
X151172795Y-84220630D01*
X151140369Y-84203698D01*
X150980059Y-84216456D01*
G36*
X152601398Y-81672612D02*
X152558094Y-81731931D01*
X152527721Y-81851959D01*
X152507118Y-82057188D01*
X152493129Y-82372107D01*
X152482595Y-82821209D01*
X152478289Y-83064750D01*
X152473643Y-83673106D01*
X152483229Y-84120002D01*
X152507406Y-84412743D01*
X152546533Y-84558634D01*
X152552156Y-84566507D01*
X152685239Y-84674437D01*
X152815627Y-84628039D01*
X152865667Y-84582000D01*
X152900950Y-84464720D01*
X152929217Y-84214241D01*
X152950130Y-83866565D01*
X152963352Y-83457695D01*
X152968547Y-83023633D01*
X152965377Y-82600381D01*
X152953506Y-82223943D01*
X152932597Y-81930319D01*
X152902313Y-81755513D01*
X152892325Y-81733102D01*
X152758335Y-81651212D01*
X152660788Y-81649512D01*
X152601398Y-81672612D01*
X152601398Y-81672612D01*
G37*
X152601398Y-81672612D02*
X152558094Y-81731931D01*
X152527721Y-81851959D01*
X152507118Y-82057188D01*
X152493129Y-82372107D01*
X152482595Y-82821209D01*
X152478289Y-83064750D01*
X152473643Y-83673106D01*
X152483229Y-84120002D01*
X152507406Y-84412743D01*
X152546533Y-84558634D01*
X152552156Y-84566507D01*
X152685239Y-84674437D01*
X152815627Y-84628039D01*
X152865667Y-84582000D01*
X152900950Y-84464720D01*
X152929217Y-84214241D01*
X152950130Y-83866565D01*
X152963352Y-83457695D01*
X152968547Y-83023633D01*
X152965377Y-82600381D01*
X152953506Y-82223943D01*
X152932597Y-81930319D01*
X152902313Y-81755513D01*
X152892325Y-81733102D01*
X152758335Y-81651212D01*
X152660788Y-81649512D01*
X152601398Y-81672612D01*
G36*
X161474861Y-80620766D02*
X161435143Y-80674483D01*
X161405011Y-80774197D01*
X161383561Y-80939330D01*
X161369891Y-81189303D01*
X161363097Y-81543537D01*
X161362276Y-82021454D01*
X161366524Y-82642474D01*
X161369028Y-82895967D01*
X161376358Y-83557131D01*
X161384049Y-84068491D01*
X161393839Y-84449569D01*
X161407469Y-84719887D01*
X161426678Y-84898968D01*
X161453203Y-85006336D01*
X161488785Y-85061513D01*
X161535163Y-85084021D01*
X161564418Y-85089338D01*
X161732655Y-85083674D01*
X161797251Y-85054060D01*
X161813639Y-84956272D01*
X161828322Y-84712584D01*
X161840659Y-84346422D01*
X161850009Y-83881218D01*
X161855731Y-83340398D01*
X161857267Y-82859522D01*
X161855891Y-82186679D01*
X161851035Y-81663862D01*
X161841603Y-81271777D01*
X161826503Y-80991135D01*
X161804641Y-80802643D01*
X161774923Y-80687010D01*
X161736254Y-80624944D01*
X161730267Y-80619600D01*
X161595161Y-80557055D01*
X161474861Y-80620766D01*
X161474861Y-80620766D01*
G37*
X161474861Y-80620766D02*
X161435143Y-80674483D01*
X161405011Y-80774197D01*
X161383561Y-80939330D01*
X161369891Y-81189303D01*
X161363097Y-81543537D01*
X161362276Y-82021454D01*
X161366524Y-82642474D01*
X161369028Y-82895967D01*
X161376358Y-83557131D01*
X161384049Y-84068491D01*
X161393839Y-84449569D01*
X161407469Y-84719887D01*
X161426678Y-84898968D01*
X161453203Y-85006336D01*
X161488785Y-85061513D01*
X161535163Y-85084021D01*
X161564418Y-85089338D01*
X161732655Y-85083674D01*
X161797251Y-85054060D01*
X161813639Y-84956272D01*
X161828322Y-84712584D01*
X161840659Y-84346422D01*
X161850009Y-83881218D01*
X161855731Y-83340398D01*
X161857267Y-82859522D01*
X161855891Y-82186679D01*
X161851035Y-81663862D01*
X161841603Y-81271777D01*
X161826503Y-80991135D01*
X161804641Y-80802643D01*
X161774923Y-80687010D01*
X161736254Y-80624944D01*
X161730267Y-80619600D01*
X161595161Y-80557055D01*
X161474861Y-80620766D01*
G36*
X164523093Y-79689240D02*
X164487049Y-79738444D01*
X164458787Y-79830988D01*
X164437646Y-79984253D01*
X164422964Y-80215619D01*
X164414081Y-80542465D01*
X164410337Y-80982170D01*
X164411069Y-81552113D01*
X164415618Y-82269675D01*
X164417260Y-82472441D01*
X164423765Y-83215521D01*
X164430358Y-83806813D01*
X164438306Y-84263856D01*
X164448876Y-84604192D01*
X164463335Y-84845360D01*
X164482951Y-85004902D01*
X164508989Y-85100357D01*
X164542718Y-85149267D01*
X164585404Y-85169171D01*
X164612418Y-85174004D01*
X164780655Y-85168340D01*
X164845251Y-85138727D01*
X164860039Y-85042251D01*
X164873503Y-84797354D01*
X164885179Y-84424941D01*
X164894604Y-83945923D01*
X164901312Y-83381206D01*
X164904840Y-82751700D01*
X164905267Y-82436189D01*
X164904253Y-81682029D01*
X164900676Y-81079888D01*
X164893738Y-80612459D01*
X164882638Y-80262437D01*
X164866577Y-80012514D01*
X164844754Y-79845386D01*
X164816370Y-79743746D01*
X164780625Y-79690288D01*
X164778267Y-79688266D01*
X164643094Y-79625693D01*
X164523093Y-79689240D01*
X164523093Y-79689240D01*
G37*
X164523093Y-79689240D02*
X164487049Y-79738444D01*
X164458787Y-79830988D01*
X164437646Y-79984253D01*
X164422964Y-80215619D01*
X164414081Y-80542465D01*
X164410337Y-80982170D01*
X164411069Y-81552113D01*
X164415618Y-82269675D01*
X164417260Y-82472441D01*
X164423765Y-83215521D01*
X164430358Y-83806813D01*
X164438306Y-84263856D01*
X164448876Y-84604192D01*
X164463335Y-84845360D01*
X164482951Y-85004902D01*
X164508989Y-85100357D01*
X164542718Y-85149267D01*
X164585404Y-85169171D01*
X164612418Y-85174004D01*
X164780655Y-85168340D01*
X164845251Y-85138727D01*
X164860039Y-85042251D01*
X164873503Y-84797354D01*
X164885179Y-84424941D01*
X164894604Y-83945923D01*
X164901312Y-83381206D01*
X164904840Y-82751700D01*
X164905267Y-82436189D01*
X164904253Y-81682029D01*
X164900676Y-81079888D01*
X164893738Y-80612459D01*
X164882638Y-80262437D01*
X164866577Y-80012514D01*
X164844754Y-79845386D01*
X164816370Y-79743746D01*
X164780625Y-79690288D01*
X164778267Y-79688266D01*
X164643094Y-79625693D01*
X164523093Y-79689240D01*
G36*
X155972104Y-77487622D02*
X155942005Y-77529896D01*
X155917214Y-77611614D01*
X155897358Y-77746967D01*
X155882068Y-77950149D01*
X155870972Y-78235354D01*
X155863700Y-78616774D01*
X155859882Y-79108603D01*
X155859146Y-79725033D01*
X155861122Y-80480257D01*
X155865439Y-81388470D01*
X155866270Y-81539676D01*
X155871989Y-82469369D01*
X155878211Y-83243618D01*
X155885465Y-83876309D01*
X155894279Y-84381332D01*
X155905179Y-84772574D01*
X155918692Y-85063923D01*
X155935346Y-85269267D01*
X155955669Y-85402495D01*
X155980187Y-85477495D01*
X156009428Y-85508154D01*
X156017029Y-85510424D01*
X156184542Y-85477750D01*
X156249863Y-85431137D01*
X156275858Y-85364295D01*
X156297538Y-85212673D01*
X156315204Y-84964875D01*
X156329152Y-84609507D01*
X156339681Y-84135171D01*
X156347091Y-83530473D01*
X156351680Y-82784015D01*
X156353746Y-81884403D01*
X156353934Y-81459700D01*
X156353326Y-80535360D01*
X156351200Y-79766103D01*
X156347099Y-79137680D01*
X156340568Y-78635844D01*
X156331151Y-78246346D01*
X156318394Y-77954939D01*
X156301841Y-77747376D01*
X156281035Y-77609407D01*
X156255523Y-77526786D01*
X156226934Y-77486933D01*
X156091662Y-77424317D01*
X155972104Y-77487622D01*
X155972104Y-77487622D01*
G37*
X155972104Y-77487622D02*
X155942005Y-77529896D01*
X155917214Y-77611614D01*
X155897358Y-77746967D01*
X155882068Y-77950149D01*
X155870972Y-78235354D01*
X155863700Y-78616774D01*
X155859882Y-79108603D01*
X155859146Y-79725033D01*
X155861122Y-80480257D01*
X155865439Y-81388470D01*
X155866270Y-81539676D01*
X155871989Y-82469369D01*
X155878211Y-83243618D01*
X155885465Y-83876309D01*
X155894279Y-84381332D01*
X155905179Y-84772574D01*
X155918692Y-85063923D01*
X155935346Y-85269267D01*
X155955669Y-85402495D01*
X155980187Y-85477495D01*
X156009428Y-85508154D01*
X156017029Y-85510424D01*
X156184542Y-85477750D01*
X156249863Y-85431137D01*
X156275858Y-85364295D01*
X156297538Y-85212673D01*
X156315204Y-84964875D01*
X156329152Y-84609507D01*
X156339681Y-84135171D01*
X156347091Y-83530473D01*
X156351680Y-82784015D01*
X156353746Y-81884403D01*
X156353934Y-81459700D01*
X156353326Y-80535360D01*
X156351200Y-79766103D01*
X156347099Y-79137680D01*
X156340568Y-78635844D01*
X156331151Y-78246346D01*
X156318394Y-77954939D01*
X156301841Y-77747376D01*
X156281035Y-77609407D01*
X156255523Y-77526786D01*
X156226934Y-77486933D01*
X156091662Y-77424317D01*
X155972104Y-77487622D01*
G36*
X164442059Y-86417790D02*
X164334475Y-86488106D01*
X164247262Y-86616444D01*
X164297256Y-86739098D01*
X164309074Y-86753684D01*
X164426400Y-86861999D01*
X164556516Y-86856321D01*
X164630100Y-86828860D01*
X164722015Y-86717539D01*
X164721717Y-86553427D01*
X164634795Y-86421964D01*
X164602369Y-86405031D01*
X164442059Y-86417790D01*
X164442059Y-86417790D01*
G37*
X164442059Y-86417790D02*
X164334475Y-86488106D01*
X164247262Y-86616444D01*
X164297256Y-86739098D01*
X164309074Y-86753684D01*
X164426400Y-86861999D01*
X164556516Y-86856321D01*
X164630100Y-86828860D01*
X164722015Y-86717539D01*
X164721717Y-86553427D01*
X164634795Y-86421964D01*
X164602369Y-86405031D01*
X164442059Y-86417790D01*
G36*
X165268346Y-86434658D02*
X165172675Y-86496573D01*
X165091970Y-86622071D01*
X165152482Y-86749734D01*
X165155741Y-86753684D01*
X165325422Y-86872845D01*
X165491400Y-86856010D01*
X165526156Y-86828488D01*
X165583554Y-86671318D01*
X165532351Y-86501206D01*
X165440569Y-86425214D01*
X165268346Y-86434658D01*
X165268346Y-86434658D01*
G37*
X165268346Y-86434658D02*
X165172675Y-86496573D01*
X165091970Y-86622071D01*
X165152482Y-86749734D01*
X165155741Y-86753684D01*
X165325422Y-86872845D01*
X165491400Y-86856010D01*
X165526156Y-86828488D01*
X165583554Y-86671318D01*
X165532351Y-86501206D01*
X165440569Y-86425214D01*
X165268346Y-86434658D01*
G36*
X166087979Y-86430455D02*
X166036689Y-86479225D01*
X165947177Y-86640435D01*
X165949366Y-86751368D01*
X166065058Y-86863759D01*
X166230720Y-86871538D01*
X166364445Y-86776311D01*
X166380986Y-86742901D01*
X166370688Y-86570231D01*
X166305378Y-86470758D01*
X166190969Y-86385963D01*
X166087979Y-86430455D01*
X166087979Y-86430455D01*
G37*
X166087979Y-86430455D02*
X166036689Y-86479225D01*
X165947177Y-86640435D01*
X165949366Y-86751368D01*
X166065058Y-86863759D01*
X166230720Y-86871538D01*
X166364445Y-86776311D01*
X166380986Y-86742901D01*
X166370688Y-86570231D01*
X166305378Y-86470758D01*
X166190969Y-86385963D01*
X166087979Y-86430455D01*
G36*
X157627366Y-85409128D02*
X157567707Y-85465541D01*
X157476267Y-85598961D01*
X157521793Y-85720641D01*
X157530234Y-85731049D01*
X157590416Y-85865827D01*
X157525081Y-86029518D01*
X157461100Y-86193086D01*
X157514153Y-86301018D01*
X157568134Y-86428443D01*
X157517126Y-86550256D01*
X157469057Y-86715657D01*
X157533561Y-86835724D01*
X157675348Y-86956477D01*
X157802529Y-86921087D01*
X157877934Y-86842600D01*
X157939705Y-86704068D01*
X157882425Y-86594012D01*
X157827400Y-86424421D01*
X157866151Y-86314283D01*
X157905066Y-86125451D01*
X157877934Y-86038266D01*
X157855044Y-85865302D01*
X157892107Y-85757784D01*
X157928326Y-85588492D01*
X157843866Y-85459912D01*
X157727645Y-85370418D01*
X157627366Y-85409128D01*
X157627366Y-85409128D01*
G37*
X157627366Y-85409128D02*
X157567707Y-85465541D01*
X157476267Y-85598961D01*
X157521793Y-85720641D01*
X157530234Y-85731049D01*
X157590416Y-85865827D01*
X157525081Y-86029518D01*
X157461100Y-86193086D01*
X157514153Y-86301018D01*
X157568134Y-86428443D01*
X157517126Y-86550256D01*
X157469057Y-86715657D01*
X157533561Y-86835724D01*
X157675348Y-86956477D01*
X157802529Y-86921087D01*
X157877934Y-86842600D01*
X157939705Y-86704068D01*
X157882425Y-86594012D01*
X157827400Y-86424421D01*
X157866151Y-86314283D01*
X157905066Y-86125451D01*
X157877934Y-86038266D01*
X157855044Y-85865302D01*
X157892107Y-85757784D01*
X157928326Y-85588492D01*
X157843866Y-85459912D01*
X157727645Y-85370418D01*
X157627366Y-85409128D01*
G36*
X158117516Y-85428721D02*
X158061497Y-85590274D01*
X158111575Y-85782872D01*
X158116838Y-85791556D01*
X158164400Y-85935800D01*
X158136215Y-85993287D01*
X158095402Y-86098123D01*
X158074361Y-86315094D01*
X158074449Y-86482976D01*
X158096800Y-86757249D01*
X158148673Y-86901582D01*
X158238023Y-86953621D01*
X158388737Y-86910740D01*
X158441885Y-86837641D01*
X158445256Y-86652627D01*
X158398579Y-86535051D01*
X158349323Y-86407196D01*
X158385216Y-86376933D01*
X158453701Y-86310796D01*
X158466475Y-86168029D01*
X158423001Y-86032091D01*
X158387668Y-85997004D01*
X158356172Y-85890176D01*
X158401030Y-85791556D01*
X158456554Y-85599042D01*
X158405018Y-85434650D01*
X158267118Y-85361102D01*
X158258934Y-85360933D01*
X158117516Y-85428721D01*
X158117516Y-85428721D01*
G37*
X158117516Y-85428721D02*
X158061497Y-85590274D01*
X158111575Y-85782872D01*
X158116838Y-85791556D01*
X158164400Y-85935800D01*
X158136215Y-85993287D01*
X158095402Y-86098123D01*
X158074361Y-86315094D01*
X158074449Y-86482976D01*
X158096800Y-86757249D01*
X158148673Y-86901582D01*
X158238023Y-86953621D01*
X158388737Y-86910740D01*
X158441885Y-86837641D01*
X158445256Y-86652627D01*
X158398579Y-86535051D01*
X158349323Y-86407196D01*
X158385216Y-86376933D01*
X158453701Y-86310796D01*
X158466475Y-86168029D01*
X158423001Y-86032091D01*
X158387668Y-85997004D01*
X158356172Y-85890176D01*
X158401030Y-85791556D01*
X158456554Y-85599042D01*
X158405018Y-85434650D01*
X158267118Y-85361102D01*
X158258934Y-85360933D01*
X158117516Y-85428721D01*
G36*
X164845013Y-86942658D02*
X164749342Y-87004573D01*
X164668636Y-87130071D01*
X164729148Y-87257734D01*
X164732407Y-87261684D01*
X164902089Y-87380845D01*
X165068066Y-87364010D01*
X165102823Y-87336488D01*
X165160221Y-87179318D01*
X165109018Y-87009206D01*
X165017235Y-86933214D01*
X164845013Y-86942658D01*
X164845013Y-86942658D01*
G37*
X164845013Y-86942658D02*
X164749342Y-87004573D01*
X164668636Y-87130071D01*
X164729148Y-87257734D01*
X164732407Y-87261684D01*
X164902089Y-87380845D01*
X165068066Y-87364010D01*
X165102823Y-87336488D01*
X165160221Y-87179318D01*
X165109018Y-87009206D01*
X165017235Y-86933214D01*
X164845013Y-86942658D01*
G36*
X165566190Y-87001776D02*
X165540267Y-87138933D01*
X165592612Y-87304435D01*
X165710488Y-87382797D01*
X165835157Y-87351526D01*
X165888248Y-87272190D01*
X165907172Y-87075354D01*
X165826450Y-86933685D01*
X165688690Y-86901002D01*
X165566190Y-87001776D01*
X165566190Y-87001776D01*
G37*
X165566190Y-87001776D02*
X165540267Y-87138933D01*
X165592612Y-87304435D01*
X165710488Y-87382797D01*
X165835157Y-87351526D01*
X165888248Y-87272190D01*
X165907172Y-87075354D01*
X165826450Y-86933685D01*
X165688690Y-86901002D01*
X165566190Y-87001776D01*
G36*
X161817144Y-86713829D02*
X161811492Y-86718456D01*
X161739609Y-86825003D01*
X161705007Y-87016002D01*
X161702161Y-87328461D01*
X161705658Y-87427323D01*
X161724062Y-87744163D01*
X161754744Y-87929025D01*
X161809498Y-88019264D01*
X161900116Y-88052237D01*
X161903085Y-88052671D01*
X162071322Y-88047007D01*
X162135918Y-88017393D01*
X162166374Y-87907815D01*
X162187973Y-87679063D01*
X162195934Y-87389189D01*
X162170816Y-86991237D01*
X162097388Y-86742669D01*
X161978535Y-86648521D01*
X161817144Y-86713829D01*
X161817144Y-86713829D01*
G37*
X161817144Y-86713829D02*
X161811492Y-86718456D01*
X161739609Y-86825003D01*
X161705007Y-87016002D01*
X161702161Y-87328461D01*
X161705658Y-87427323D01*
X161724062Y-87744163D01*
X161754744Y-87929025D01*
X161809498Y-88019264D01*
X161900116Y-88052237D01*
X161903085Y-88052671D01*
X162071322Y-88047007D01*
X162135918Y-88017393D01*
X162166374Y-87907815D01*
X162187973Y-87679063D01*
X162195934Y-87389189D01*
X162170816Y-86991237D01*
X162097388Y-86742669D01*
X161978535Y-86648521D01*
X161817144Y-86713829D01*
G36*
X169815934Y-86446652D02*
X169818392Y-87031706D01*
X169826660Y-87466935D01*
X169842075Y-87771789D01*
X169865978Y-87965717D01*
X169899706Y-88068168D01*
X169929445Y-88095708D01*
X170097975Y-88097162D01*
X170143080Y-88077387D01*
X170181015Y-87998204D01*
X170206933Y-87805780D01*
X170221510Y-87485908D01*
X170225419Y-87024384D01*
X170220068Y-86455387D01*
X170211370Y-85906632D01*
X170201866Y-85504026D01*
X170188438Y-85224399D01*
X170167967Y-85044581D01*
X170137335Y-84941403D01*
X170093423Y-84891696D01*
X170033112Y-84872291D01*
X170006434Y-84868211D01*
X169815934Y-84841156D01*
X169815934Y-86446652D01*
X169815934Y-86446652D01*
G37*
X169815934Y-86446652D02*
X169818392Y-87031706D01*
X169826660Y-87466935D01*
X169842075Y-87771789D01*
X169865978Y-87965717D01*
X169899706Y-88068168D01*
X169929445Y-88095708D01*
X170097975Y-88097162D01*
X170143080Y-88077387D01*
X170181015Y-87998204D01*
X170206933Y-87805780D01*
X170221510Y-87485908D01*
X170225419Y-87024384D01*
X170220068Y-86455387D01*
X170211370Y-85906632D01*
X170201866Y-85504026D01*
X170188438Y-85224399D01*
X170167967Y-85044581D01*
X170137335Y-84941403D01*
X170093423Y-84891696D01*
X170033112Y-84872291D01*
X170006434Y-84868211D01*
X169815934Y-84841156D01*
X169815934Y-86446652D01*
G36*
X171398862Y-86851661D02*
X171351971Y-86896516D01*
X171322330Y-87003668D01*
X171306009Y-87199622D01*
X171299076Y-87510882D01*
X171297602Y-87963952D01*
X171297600Y-87984440D01*
X171299649Y-88447476D01*
X171308056Y-88767940D01*
X171326210Y-88972567D01*
X171357503Y-89088093D01*
X171405324Y-89141253D01*
X171446023Y-89154864D01*
X171593234Y-89123869D01*
X171639261Y-89066661D01*
X171654625Y-88940620D01*
X171663750Y-88682362D01*
X171665976Y-88328912D01*
X171660640Y-87917293D01*
X171660172Y-87896236D01*
X171648542Y-87457904D01*
X171633812Y-87161377D01*
X171610935Y-86979135D01*
X171574863Y-86883663D01*
X171520550Y-86847440D01*
X171466934Y-86842600D01*
X171398862Y-86851661D01*
X171398862Y-86851661D01*
G37*
X171398862Y-86851661D02*
X171351971Y-86896516D01*
X171322330Y-87003668D01*
X171306009Y-87199622D01*
X171299076Y-87510882D01*
X171297602Y-87963952D01*
X171297600Y-87984440D01*
X171299649Y-88447476D01*
X171308056Y-88767940D01*
X171326210Y-88972567D01*
X171357503Y-89088093D01*
X171405324Y-89141253D01*
X171446023Y-89154864D01*
X171593234Y-89123869D01*
X171639261Y-89066661D01*
X171654625Y-88940620D01*
X171663750Y-88682362D01*
X171665976Y-88328912D01*
X171660640Y-87917293D01*
X171660172Y-87896236D01*
X171648542Y-87457904D01*
X171633812Y-87161377D01*
X171610935Y-86979135D01*
X171574863Y-86883663D01*
X171520550Y-86847440D01*
X171466934Y-86842600D01*
X171398862Y-86851661D01*
G36*
X162574198Y-87310537D02*
X162514696Y-87392969D01*
X162478776Y-87540798D01*
X162463171Y-87785035D01*
X162464618Y-88156689D01*
X162468364Y-88315737D01*
X162481418Y-88715816D01*
X162499385Y-88977188D01*
X162528797Y-89130474D01*
X162576186Y-89206293D01*
X162648082Y-89235264D01*
X162665085Y-89238004D01*
X162833322Y-89232340D01*
X162897918Y-89202727D01*
X162923050Y-89097663D01*
X162943008Y-88862110D01*
X162955274Y-88534892D01*
X162957934Y-88278189D01*
X162951700Y-87853891D01*
X162930476Y-87569661D01*
X162890479Y-87396606D01*
X162830934Y-87308266D01*
X162696210Y-87245887D01*
X162574198Y-87310537D01*
X162574198Y-87310537D01*
G37*
X162574198Y-87310537D02*
X162514696Y-87392969D01*
X162478776Y-87540798D01*
X162463171Y-87785035D01*
X162464618Y-88156689D01*
X162468364Y-88315737D01*
X162481418Y-88715816D01*
X162499385Y-88977188D01*
X162528797Y-89130474D01*
X162576186Y-89206293D01*
X162648082Y-89235264D01*
X162665085Y-89238004D01*
X162833322Y-89232340D01*
X162897918Y-89202727D01*
X162923050Y-89097663D01*
X162943008Y-88862110D01*
X162955274Y-88534892D01*
X162957934Y-88278189D01*
X162951700Y-87853891D01*
X162930476Y-87569661D01*
X162890479Y-87396606D01*
X162830934Y-87308266D01*
X162696210Y-87245887D01*
X162574198Y-87310537D01*
G36*
X140475159Y-94356570D02*
X140445046Y-94466607D01*
X140450990Y-94519323D01*
X140544089Y-94694057D01*
X140676211Y-94744543D01*
X140821376Y-94737963D01*
X140851488Y-94627926D01*
X140845544Y-94575210D01*
X140752445Y-94400475D01*
X140620324Y-94349989D01*
X140475159Y-94356570D01*
X140475159Y-94356570D01*
G37*
X140475159Y-94356570D02*
X140445046Y-94466607D01*
X140450990Y-94519323D01*
X140544089Y-94694057D01*
X140676211Y-94744543D01*
X140821376Y-94737963D01*
X140851488Y-94627926D01*
X140845544Y-94575210D01*
X140752445Y-94400475D01*
X140620324Y-94349989D01*
X140475159Y-94356570D01*
G36*
X140032080Y-94908218D02*
X140028226Y-94984750D01*
X140106557Y-95125876D01*
X140226803Y-95162171D01*
X140306838Y-95102069D01*
X140320763Y-94956722D01*
X140209582Y-94856893D01*
X140129062Y-94843600D01*
X140032080Y-94908218D01*
X140032080Y-94908218D01*
G37*
X140032080Y-94908218D02*
X140028226Y-94984750D01*
X140106557Y-95125876D01*
X140226803Y-95162171D01*
X140306838Y-95102069D01*
X140320763Y-94956722D01*
X140209582Y-94856893D01*
X140129062Y-94843600D01*
X140032080Y-94908218D01*
G36*
X140929512Y-94873463D02*
X140712436Y-94989161D01*
X140589022Y-95101485D01*
X140436070Y-95272600D01*
X140367459Y-95429080D01*
X140360499Y-95643695D01*
X140372942Y-95794446D01*
X140417629Y-96076004D01*
X140511605Y-96281930D01*
X140694185Y-96489014D01*
X140761062Y-96552560D01*
X140988758Y-96745804D01*
X141180802Y-96842332D01*
X141411779Y-96873968D01*
X141518148Y-96875600D01*
X141802640Y-96855787D01*
X141998164Y-96777081D01*
X142156427Y-96638133D01*
X142322319Y-96406169D01*
X142381683Y-96131373D01*
X142383934Y-96041262D01*
X142311625Y-95589271D01*
X142107038Y-95227964D01*
X141788687Y-94976276D01*
X141375082Y-94853139D01*
X141213254Y-94843916D01*
X140929512Y-94873463D01*
X140929512Y-94873463D01*
G37*
X140929512Y-94873463D02*
X140712436Y-94989161D01*
X140589022Y-95101485D01*
X140436070Y-95272600D01*
X140367459Y-95429080D01*
X140360499Y-95643695D01*
X140372942Y-95794446D01*
X140417629Y-96076004D01*
X140511605Y-96281930D01*
X140694185Y-96489014D01*
X140761062Y-96552560D01*
X140988758Y-96745804D01*
X141180802Y-96842332D01*
X141411779Y-96873968D01*
X141518148Y-96875600D01*
X141802640Y-96855787D01*
X141998164Y-96777081D01*
X142156427Y-96638133D01*
X142322319Y-96406169D01*
X142381683Y-96131373D01*
X142383934Y-96041262D01*
X142311625Y-95589271D01*
X142107038Y-95227964D01*
X141788687Y-94976276D01*
X141375082Y-94853139D01*
X141213254Y-94843916D01*
X140929512Y-94873463D01*
G36*
X141915736Y-97077387D02*
X141875934Y-97198011D01*
X141930330Y-97385293D01*
X142059040Y-97490706D01*
X142204604Y-97474444D01*
X142289713Y-97345094D01*
X142256495Y-97190006D01*
X142127732Y-97077053D01*
X142065569Y-97060211D01*
X141915736Y-97077387D01*
X141915736Y-97077387D01*
G37*
X141915736Y-97077387D02*
X141875934Y-97198011D01*
X141930330Y-97385293D01*
X142059040Y-97490706D01*
X142204604Y-97474444D01*
X142289713Y-97345094D01*
X142256495Y-97190006D01*
X142127732Y-97077053D01*
X142065569Y-97060211D01*
X141915736Y-97077387D01*
G36*
X147710397Y-95488961D02*
X147662613Y-95618910D01*
X147721012Y-95736308D01*
X147882335Y-95846710D01*
X148036470Y-95828666D01*
X148109094Y-95736654D01*
X148111958Y-95553223D01*
X147978670Y-95447917D01*
X147887267Y-95436266D01*
X147710397Y-95488961D01*
X147710397Y-95488961D01*
G37*
X147710397Y-95488961D02*
X147662613Y-95618910D01*
X147721012Y-95736308D01*
X147882335Y-95846710D01*
X148036470Y-95828666D01*
X148109094Y-95736654D01*
X148111958Y-95553223D01*
X147978670Y-95447917D01*
X147887267Y-95436266D01*
X147710397Y-95488961D01*
G36*
X147350310Y-95916779D02*
X147297825Y-96044389D01*
X147294600Y-96085377D01*
X147357104Y-96178849D01*
X147485521Y-96191591D01*
X147585005Y-96123193D01*
X147572830Y-96020726D01*
X147477855Y-95926529D01*
X147371324Y-95903264D01*
X147350310Y-95916779D01*
X147350310Y-95916779D01*
G37*
X147350310Y-95916779D02*
X147297825Y-96044389D01*
X147294600Y-96085377D01*
X147357104Y-96178849D01*
X147485521Y-96191591D01*
X147585005Y-96123193D01*
X147572830Y-96020726D01*
X147477855Y-95926529D01*
X147371324Y-95903264D01*
X147350310Y-95916779D01*
G36*
X148040872Y-95998306D02*
X147792144Y-96231817D01*
X147654684Y-96582159D01*
X147633267Y-96823791D01*
X147707314Y-97212784D01*
X147906980Y-97541392D01*
X148198557Y-97788478D01*
X148548333Y-97932910D01*
X148922600Y-97953552D01*
X149260972Y-97844288D01*
X149518218Y-97621905D01*
X149652606Y-97326169D01*
X149672366Y-96990917D01*
X149585728Y-96649985D01*
X149400922Y-96337209D01*
X149126179Y-96086428D01*
X148797437Y-95938568D01*
X148382193Y-95895824D01*
X148040872Y-95998306D01*
X148040872Y-95998306D01*
G37*
X148040872Y-95998306D02*
X147792144Y-96231817D01*
X147654684Y-96582159D01*
X147633267Y-96823791D01*
X147707314Y-97212784D01*
X147906980Y-97541392D01*
X148198557Y-97788478D01*
X148548333Y-97932910D01*
X148922600Y-97953552D01*
X149260972Y-97844288D01*
X149518218Y-97621905D01*
X149652606Y-97326169D01*
X149672366Y-96990917D01*
X149585728Y-96649985D01*
X149400922Y-96337209D01*
X149126179Y-96086428D01*
X148797437Y-95938568D01*
X148382193Y-95895824D01*
X148040872Y-95998306D01*
G36*
X149149730Y-98198295D02*
X149101946Y-98328244D01*
X149160345Y-98445642D01*
X149321668Y-98556043D01*
X149475804Y-98537999D01*
X149548427Y-98445987D01*
X149551292Y-98262556D01*
X149418004Y-98157250D01*
X149326600Y-98145600D01*
X149149730Y-98198295D01*
X149149730Y-98198295D01*
G37*
X149149730Y-98198295D02*
X149101946Y-98328244D01*
X149160345Y-98445642D01*
X149321668Y-98556043D01*
X149475804Y-98537999D01*
X149548427Y-98445987D01*
X149551292Y-98262556D01*
X149418004Y-98157250D01*
X149326600Y-98145600D01*
X149149730Y-98198295D01*
G36*
X154764588Y-71573022D02*
X154514770Y-71699295D01*
X154382187Y-71814600D01*
X154288111Y-71950484D01*
X154225735Y-72137066D01*
X154188250Y-72404466D01*
X154168851Y-72782803D01*
X154161040Y-73264399D01*
X154151590Y-73723416D01*
X154130436Y-74038801D01*
X154094496Y-74236034D01*
X154040693Y-74340597D01*
X154029750Y-74350822D01*
X153941698Y-74493949D01*
X153868510Y-74730225D01*
X153851378Y-74823024D01*
X153809244Y-75048691D01*
X153737633Y-75164346D01*
X153585219Y-75218290D01*
X153402728Y-75245229D01*
X152133169Y-75496337D01*
X150909919Y-75902684D01*
X149748341Y-76454361D01*
X148663794Y-77141462D01*
X147671639Y-77954079D01*
X146787234Y-78882304D01*
X146025942Y-79916229D01*
X145933724Y-80062900D01*
X145426387Y-81013115D01*
X145000252Y-82072584D01*
X144671905Y-83194039D01*
X144472247Y-84227404D01*
X144385375Y-84829542D01*
X143575155Y-84962729D01*
X142275072Y-85258955D01*
X141044977Y-85704110D01*
X139894865Y-86289652D01*
X138834732Y-87007041D01*
X137874573Y-87847736D01*
X137024384Y-88803198D01*
X136294161Y-89864885D01*
X135693899Y-91024257D01*
X135311774Y-92023096D01*
X135163196Y-92545301D01*
X135025315Y-93151986D01*
X134907618Y-93788814D01*
X134819592Y-94401450D01*
X134770723Y-94935558D01*
X134763934Y-95160854D01*
X134789512Y-95631652D01*
X134860216Y-96211628D01*
X134967003Y-96849524D01*
X135100829Y-97494083D01*
X135252650Y-98094048D01*
X135323716Y-98333548D01*
X135775520Y-99496144D01*
X136375377Y-100597393D01*
X137108519Y-101622470D01*
X137960183Y-102556552D01*
X138915604Y-103384814D01*
X139960014Y-104092433D01*
X141078651Y-104664583D01*
X141960600Y-104996887D01*
X142135148Y-105054208D01*
X142290917Y-105106651D01*
X142435710Y-105154439D01*
X142577329Y-105197797D01*
X142723578Y-105236946D01*
X142882257Y-105272112D01*
X143061171Y-105303518D01*
X143268121Y-105331387D01*
X143510909Y-105355943D01*
X143797338Y-105377409D01*
X144135211Y-105396010D01*
X144532330Y-105411969D01*
X144996497Y-105425509D01*
X145535514Y-105436854D01*
X146157185Y-105446228D01*
X146869312Y-105453854D01*
X147679696Y-105459957D01*
X148596141Y-105464758D01*
X149626449Y-105468483D01*
X150778422Y-105471355D01*
X152059863Y-105473597D01*
X153478573Y-105475433D01*
X155042357Y-105477086D01*
X156759015Y-105478781D01*
X158636351Y-105480741D01*
X158851600Y-105480981D01*
X160773653Y-105482976D01*
X162533602Y-105484426D01*
X164138678Y-105485285D01*
X165596108Y-105485504D01*
X166913124Y-105485037D01*
X168096953Y-105483835D01*
X169154826Y-105481852D01*
X170093971Y-105479040D01*
X170921618Y-105475351D01*
X171644996Y-105470739D01*
X172271335Y-105465155D01*
X172807864Y-105458552D01*
X173261812Y-105450884D01*
X173640409Y-105442101D01*
X173950883Y-105432158D01*
X174200464Y-105421006D01*
X174396382Y-105408598D01*
X174545866Y-105394887D01*
X174656145Y-105379826D01*
X174671121Y-105377199D01*
X175865379Y-105077229D01*
X176990135Y-104629535D01*
X178033877Y-104043975D01*
X178985095Y-103330409D01*
X179832276Y-102498694D01*
X180563909Y-101558689D01*
X181168482Y-100520252D01*
X181366933Y-100042597D01*
X146315010Y-100042597D01*
X146232646Y-100312009D01*
X145995304Y-100575320D01*
X145977172Y-100589814D01*
X145666376Y-100735465D01*
X145293273Y-100763709D01*
X144918097Y-100674005D01*
X144773761Y-100600641D01*
X144546411Y-100491918D01*
X144325612Y-100477812D01*
X144155584Y-100508266D01*
X143704792Y-100535696D01*
X143308434Y-100402802D01*
X142984789Y-100131657D01*
X142766597Y-99828339D01*
X142656658Y-99554566D01*
X142656393Y-99335766D01*
X142767223Y-99197372D01*
X142930548Y-99161600D01*
X143108825Y-99212551D01*
X143279542Y-99385013D01*
X143357600Y-99500266D01*
X143560877Y-99740477D01*
X143766347Y-99845652D01*
X143947043Y-99810702D01*
X144074140Y-99635491D01*
X144202979Y-99415744D01*
X144384459Y-99343921D01*
X144539285Y-99364785D01*
X144726334Y-99490943D01*
X144826572Y-99669575D01*
X144985132Y-99909150D01*
X145150489Y-100013927D01*
X145316276Y-100057148D01*
X145441345Y-100011555D01*
X145592202Y-99851868D01*
X145599224Y-99843345D01*
X145821668Y-99639023D01*
X146019092Y-99601020D01*
X146196039Y-99728920D01*
X146236565Y-99785171D01*
X146315010Y-100042597D01*
X181366933Y-100042597D01*
X181624687Y-99422207D01*
X181814662Y-98784186D01*
X181970244Y-98104857D01*
X182079839Y-97453560D01*
X150413761Y-97453560D01*
X150404738Y-98022612D01*
X150246981Y-98562527D01*
X150127484Y-98786961D01*
X149867268Y-99120540D01*
X149527424Y-99375184D01*
X149409960Y-99440247D01*
X149131468Y-99573821D01*
X148896720Y-99642668D01*
X148629328Y-99662182D01*
X148352934Y-99653266D01*
X147817214Y-99583567D01*
X147374586Y-99427556D01*
X147352448Y-99416543D01*
X146834229Y-99068395D01*
X146404534Y-98607450D01*
X146085031Y-98067785D01*
X145897389Y-97483476D01*
X145856094Y-97063380D01*
X145926203Y-96458238D01*
X145927494Y-96455000D01*
X143169666Y-96455000D01*
X143145299Y-96960174D01*
X143009091Y-97428293D01*
X142772573Y-97842200D01*
X142447278Y-98184738D01*
X142044738Y-98438753D01*
X141576484Y-98587088D01*
X141054049Y-98612587D01*
X140488965Y-98498094D01*
X140128286Y-98352201D01*
X139597501Y-98008520D01*
X139155158Y-97547443D01*
X138824871Y-97002885D01*
X138630259Y-96408758D01*
X138594410Y-96149505D01*
X138617305Y-95538879D01*
X138781548Y-95010095D01*
X139074675Y-94576812D01*
X139484220Y-94252689D01*
X139997719Y-94051386D01*
X140568422Y-93986350D01*
X141161640Y-94054774D01*
X141698615Y-94266833D01*
X142200643Y-94632705D01*
X142456399Y-94888701D01*
X142836748Y-95402107D01*
X143070660Y-95929925D01*
X143169666Y-96455000D01*
X145927494Y-96455000D01*
X146130525Y-95945914D01*
X146457030Y-95538782D01*
X146893689Y-95249214D01*
X147428474Y-95089582D01*
X147802600Y-95061291D01*
X148412117Y-95131616D01*
X148964011Y-95349588D01*
X149480724Y-95724868D01*
X149595509Y-95833032D01*
X150004438Y-96332626D01*
X150278758Y-96881517D01*
X150413761Y-97453560D01*
X182079839Y-97453560D01*
X182083333Y-97432798D01*
X182145828Y-96816589D01*
X182149628Y-96304812D01*
X182148139Y-96282933D01*
X181978687Y-94985126D01*
X181664041Y-93773804D01*
X181202948Y-92646261D01*
X180594155Y-91599789D01*
X179836407Y-90631684D01*
X179253483Y-90033778D01*
X178314164Y-89253369D01*
X177306207Y-88623970D01*
X176223128Y-88142839D01*
X175693892Y-87990338D01*
X172187366Y-87990338D01*
X172186491Y-88445548D01*
X172177937Y-88867209D01*
X172161465Y-89221526D01*
X172136833Y-89474706D01*
X172107768Y-89587726D01*
X172043979Y-89634369D01*
X171905555Y-89669127D01*
X171670814Y-89693980D01*
X171318073Y-89710907D01*
X170825649Y-89721888D01*
X170606231Y-89724810D01*
X170038670Y-89734698D01*
X169597322Y-89752341D01*
X169239095Y-89782277D01*
X168920900Y-89829046D01*
X168599645Y-89897187D01*
X168334267Y-89964130D01*
X167928173Y-90089685D01*
X167453472Y-90265664D01*
X166952882Y-90473173D01*
X166469123Y-90693318D01*
X166044915Y-90907206D01*
X165722975Y-91095942D01*
X165635614Y-91157691D01*
X165549065Y-91236543D01*
X165531342Y-91322903D01*
X165589060Y-91464491D01*
X165706844Y-91671534D01*
X165815532Y-91875139D01*
X165953033Y-92157590D01*
X166100732Y-92477207D01*
X166240010Y-92792312D01*
X166352254Y-93061226D01*
X166418844Y-93242269D01*
X166429267Y-93288911D01*
X166410090Y-93316566D01*
X166343720Y-93253362D01*
X166216896Y-93082811D01*
X166016357Y-92788421D01*
X165965782Y-92712548D01*
X165583450Y-92199073D01*
X165097654Y-91639588D01*
X164549644Y-91076008D01*
X163980673Y-90550249D01*
X163431991Y-90104225D01*
X163313897Y-90017963D01*
X162186883Y-89315496D01*
X160996061Y-88762461D01*
X159756745Y-88359315D01*
X158484248Y-88106513D01*
X157193885Y-88004512D01*
X155900970Y-88053768D01*
X154620818Y-88254737D01*
X153368742Y-88607875D01*
X152160057Y-89113638D01*
X151189267Y-89656906D01*
X150723600Y-89950647D01*
X151099731Y-89562147D01*
X151391951Y-89285346D01*
X151730531Y-88999719D01*
X151921168Y-88854789D01*
X152151742Y-88674375D01*
X152314116Y-88518144D01*
X152370537Y-88427161D01*
X152316176Y-88327771D01*
X152164872Y-88135349D01*
X151939216Y-87876803D01*
X151661799Y-87579041D01*
X151635724Y-87551922D01*
X150709129Y-86708161D01*
X149697877Y-86010532D01*
X148605062Y-85460868D01*
X147433778Y-85061003D01*
X147429025Y-85059729D01*
X147088835Y-84959479D01*
X146811633Y-84860626D01*
X146638280Y-84778542D01*
X146603712Y-84749232D01*
X146570064Y-84615819D01*
X146545218Y-84364790D01*
X146534073Y-84047813D01*
X146533897Y-84012933D01*
X146553483Y-83592016D01*
X146624154Y-83312506D01*
X146760689Y-83150414D01*
X146977867Y-83081752D01*
X147111766Y-83074933D01*
X147440806Y-83002818D01*
X147606644Y-82890841D01*
X147667230Y-82830058D01*
X147713833Y-82761580D01*
X147748286Y-82664032D01*
X147772425Y-82516038D01*
X147788084Y-82296223D01*
X147797098Y-81983211D01*
X147801301Y-81555627D01*
X147802529Y-80992095D01*
X147802600Y-80607820D01*
X147803245Y-79956901D01*
X147806198Y-79454885D01*
X147812990Y-79081345D01*
X147825151Y-78815852D01*
X147844210Y-78637980D01*
X147871698Y-78527299D01*
X147909145Y-78463381D01*
X147958081Y-78425799D01*
X147966368Y-78421245D01*
X148141091Y-78375645D01*
X148435748Y-78345972D01*
X148807434Y-78331631D01*
X149213246Y-78332029D01*
X149610278Y-78346571D01*
X149955628Y-78374663D01*
X150206392Y-78415710D01*
X150305252Y-78453647D01*
X150358069Y-78502261D01*
X150398728Y-78575474D01*
X150429203Y-78694849D01*
X150451468Y-78881948D01*
X150467496Y-79158331D01*
X150479264Y-79545562D01*
X150488745Y-80065202D01*
X150495192Y-80527980D01*
X150520783Y-82482266D01*
X150799570Y-82482266D01*
X151082227Y-82544199D01*
X151231600Y-82651600D01*
X151369633Y-82777694D01*
X151456389Y-82820933D01*
X151476967Y-82740255D01*
X151495230Y-82514164D01*
X151510279Y-82166574D01*
X151521213Y-81721399D01*
X151527134Y-81202554D01*
X151527934Y-80918912D01*
X151527520Y-80272945D01*
X151531675Y-79776622D01*
X151548493Y-79410291D01*
X151586068Y-79154298D01*
X151652495Y-78988993D01*
X151755868Y-78894722D01*
X151904283Y-78851833D01*
X152105832Y-78840672D01*
X152368611Y-78841589D01*
X152383534Y-78841600D01*
X152710670Y-78851108D01*
X152939480Y-78896657D01*
X153087446Y-79003784D01*
X153172047Y-79198026D01*
X153210764Y-79504919D01*
X153221075Y-79949999D01*
X153221267Y-80065455D01*
X153230789Y-80553585D01*
X153262131Y-80892441D01*
X153319463Y-81101156D01*
X153406952Y-81198866D01*
X153471034Y-81212230D01*
X153483772Y-81131335D01*
X153495181Y-80903797D01*
X153504761Y-80552303D01*
X153512012Y-80099541D01*
X153516435Y-79568200D01*
X153517600Y-79098736D01*
X153517600Y-76985278D01*
X153919767Y-76577031D01*
X154321934Y-76168783D01*
X154321934Y-75398892D01*
X154329820Y-74995398D01*
X154356332Y-74731125D01*
X154405750Y-74576572D01*
X154448934Y-74523600D01*
X154506123Y-74438937D01*
X154544117Y-74279184D01*
X154566082Y-74016780D01*
X154575185Y-73624166D01*
X154575934Y-73418078D01*
X154582987Y-72883299D01*
X154608213Y-72495747D01*
X154657710Y-72233749D01*
X154737576Y-72075630D01*
X154853909Y-71999714D01*
X154979543Y-71983600D01*
X155192534Y-72038954D01*
X155439839Y-72217324D01*
X155574306Y-72346638D01*
X155930600Y-72709676D01*
X155930600Y-73546471D01*
X155936343Y-73956494D01*
X155957111Y-74233318D01*
X155998217Y-74412800D01*
X156064969Y-74530795D01*
X156078767Y-74546786D01*
X156152496Y-74667250D01*
X156202954Y-74858136D01*
X156235927Y-75152703D01*
X156256691Y-75569304D01*
X156286448Y-76428302D01*
X156616524Y-76786392D01*
X156946600Y-77144483D01*
X156946600Y-80914041D01*
X156946817Y-81810745D01*
X156947888Y-82552747D01*
X156950444Y-83154680D01*
X156955116Y-83631175D01*
X156962536Y-83996864D01*
X156973335Y-84266379D01*
X156988144Y-84454351D01*
X157007594Y-84575412D01*
X157032316Y-84644194D01*
X157062941Y-84675329D01*
X157100101Y-84683449D01*
X157109207Y-84683600D01*
X157251141Y-84615501D01*
X157328716Y-84424522D01*
X157460824Y-84180970D01*
X157722077Y-84040521D01*
X158010446Y-84006266D01*
X158216600Y-84006266D01*
X158216600Y-80312614D01*
X158470600Y-80069266D01*
X158651175Y-79849791D01*
X158719523Y-79607725D01*
X158724600Y-79479598D01*
X158775174Y-79129535D01*
X158915639Y-78882390D01*
X159129109Y-78763687D01*
X159202663Y-78756933D01*
X159419203Y-78691199D01*
X159571382Y-78566433D01*
X159663648Y-78473226D01*
X159782558Y-78416394D01*
X159968985Y-78387173D01*
X160263801Y-78376795D01*
X160459612Y-78375933D01*
X160878132Y-78386845D01*
X161156230Y-78437178D01*
X161322316Y-78553325D01*
X161404799Y-78761680D01*
X161432090Y-79088637D01*
X161433934Y-79281115D01*
X161433934Y-79857600D01*
X161682422Y-79857600D01*
X161951216Y-79887335D01*
X162148089Y-79940171D01*
X162365267Y-80022742D01*
X162365267Y-83297252D01*
X162619267Y-83540600D01*
X162873267Y-83783947D01*
X162873267Y-80810285D01*
X162875611Y-80049546D01*
X162882338Y-79360817D01*
X162892997Y-78761626D01*
X162907132Y-78269504D01*
X162924292Y-77901977D01*
X162944021Y-77676576D01*
X162955838Y-77619445D01*
X163074901Y-77448604D01*
X163274662Y-77402266D01*
X163389663Y-77425732D01*
X163535861Y-77506457D01*
X163732378Y-77659929D01*
X163998339Y-77901640D01*
X164352866Y-78247077D01*
X164504424Y-78398371D01*
X165497934Y-79394476D01*
X165497934Y-85191600D01*
X165799833Y-85191600D01*
X166053721Y-85215966D01*
X166257288Y-85275036D01*
X166265500Y-85279245D01*
X166390673Y-85321234D01*
X166428245Y-85233745D01*
X166429267Y-85190374D01*
X166484532Y-84937440D01*
X166621116Y-84658668D01*
X166795206Y-84442308D01*
X166804685Y-84434233D01*
X166901032Y-84260524D01*
X166937258Y-83975683D01*
X166937267Y-83970499D01*
X166980752Y-83638160D01*
X167106176Y-83450312D01*
X167305995Y-83407689D01*
X167572666Y-83511024D01*
X167898643Y-83761050D01*
X168008485Y-83866382D01*
X168461267Y-84319165D01*
X168461267Y-84960124D01*
X168471581Y-85394613D01*
X168504866Y-85678803D01*
X168564638Y-85830607D01*
X168639659Y-85868933D01*
X168674146Y-85790835D01*
X168700385Y-85582719D01*
X168714167Y-85283854D01*
X168715267Y-85164025D01*
X168720010Y-84808667D01*
X168741024Y-84578098D01*
X168788486Y-84427881D01*
X168872573Y-84313581D01*
X168920975Y-84265864D01*
X169000576Y-84183181D01*
X169057292Y-84089548D01*
X169095816Y-83955581D01*
X169120843Y-83751902D01*
X169137068Y-83449127D01*
X169149184Y-83017876D01*
X169153809Y-82808521D01*
X169168019Y-82297513D01*
X169187081Y-81931955D01*
X169213733Y-81687977D01*
X169250710Y-81541710D01*
X169300750Y-81469283D01*
X169307934Y-81464312D01*
X169551712Y-81387525D01*
X169809082Y-81466186D01*
X170044736Y-81652208D01*
X170323934Y-81922817D01*
X170323934Y-83081175D01*
X170327242Y-83564870D01*
X170339048Y-83906321D01*
X170362174Y-84132522D01*
X170399440Y-84270469D01*
X170453670Y-84347154D01*
X170456516Y-84349566D01*
X170648052Y-84575256D01*
X170767856Y-84889394D01*
X170824539Y-85320908D01*
X170831934Y-85610728D01*
X170831934Y-86292266D01*
X171407667Y-86292266D01*
X171736526Y-86307118D01*
X171980474Y-86347067D01*
X172085001Y-86393866D01*
X172118903Y-86509902D01*
X172146331Y-86761361D01*
X172167045Y-87114450D01*
X172180804Y-87535374D01*
X172187366Y-87990338D01*
X175693892Y-87990338D01*
X175058443Y-87807232D01*
X173805668Y-87614403D01*
X173473079Y-87587863D01*
X173095674Y-87556116D01*
X172887145Y-87520564D01*
X172847049Y-87479698D01*
X172974944Y-87432011D01*
X173270388Y-87375993D01*
X173404905Y-87355374D01*
X173818875Y-87294350D01*
X173770938Y-86433475D01*
X173625274Y-85294271D01*
X173322291Y-84208038D01*
X172868936Y-83186626D01*
X172272155Y-82241881D01*
X171538893Y-81385652D01*
X170676096Y-80629787D01*
X170154600Y-80264832D01*
X169227850Y-79757972D01*
X168222770Y-79385245D01*
X167123948Y-79141657D01*
X166424649Y-79056421D01*
X165785030Y-78999587D01*
X164771835Y-78002830D01*
X164342611Y-77588050D01*
X164005978Y-77286083D01*
X163739747Y-77085245D01*
X163521732Y-76973854D01*
X163329742Y-76940225D01*
X163141591Y-76972675D01*
X162958602Y-77048043D01*
X162700996Y-77222038D01*
X162541790Y-77465636D01*
X162464806Y-77812844D01*
X162451182Y-78114657D01*
X162449934Y-78615381D01*
X161878434Y-78065268D01*
X161073198Y-77358136D01*
X160243183Y-76773278D01*
X159401934Y-76304303D01*
X158836910Y-76043265D01*
X158230950Y-75799439D01*
X157639972Y-75593326D01*
X157119893Y-75445429D01*
X156967767Y-75411772D01*
X156776850Y-75351699D01*
X156702843Y-75236683D01*
X156692600Y-75085108D01*
X156652963Y-74833161D01*
X156554600Y-74547419D01*
X156523267Y-74481266D01*
X156433994Y-74262130D01*
X156381234Y-74003564D01*
X156357444Y-73656289D01*
X156353934Y-73375218D01*
X156348036Y-72985435D01*
X156324734Y-72718201D01*
X156275613Y-72526972D01*
X156192257Y-72365200D01*
X156163434Y-72321479D01*
X155834723Y-71932179D01*
X155477473Y-71672183D01*
X155113492Y-71549720D01*
X154764588Y-71573022D01*
X154764588Y-71573022D01*
G37*
X154764588Y-71573022D02*
X154514770Y-71699295D01*
X154382187Y-71814600D01*
X154288111Y-71950484D01*
X154225735Y-72137066D01*
X154188250Y-72404466D01*
X154168851Y-72782803D01*
X154161040Y-73264399D01*
X154151590Y-73723416D01*
X154130436Y-74038801D01*
X154094496Y-74236034D01*
X154040693Y-74340597D01*
X154029750Y-74350822D01*
X153941698Y-74493949D01*
X153868510Y-74730225D01*
X153851378Y-74823024D01*
X153809244Y-75048691D01*
X153737633Y-75164346D01*
X153585219Y-75218290D01*
X153402728Y-75245229D01*
X152133169Y-75496337D01*
X150909919Y-75902684D01*
X149748341Y-76454361D01*
X148663794Y-77141462D01*
X147671639Y-77954079D01*
X146787234Y-78882304D01*
X146025942Y-79916229D01*
X145933724Y-80062900D01*
X145426387Y-81013115D01*
X145000252Y-82072584D01*
X144671905Y-83194039D01*
X144472247Y-84227404D01*
X144385375Y-84829542D01*
X143575155Y-84962729D01*
X142275072Y-85258955D01*
X141044977Y-85704110D01*
X139894865Y-86289652D01*
X138834732Y-87007041D01*
X137874573Y-87847736D01*
X137024384Y-88803198D01*
X136294161Y-89864885D01*
X135693899Y-91024257D01*
X135311774Y-92023096D01*
X135163196Y-92545301D01*
X135025315Y-93151986D01*
X134907618Y-93788814D01*
X134819592Y-94401450D01*
X134770723Y-94935558D01*
X134763934Y-95160854D01*
X134789512Y-95631652D01*
X134860216Y-96211628D01*
X134967003Y-96849524D01*
X135100829Y-97494083D01*
X135252650Y-98094048D01*
X135323716Y-98333548D01*
X135775520Y-99496144D01*
X136375377Y-100597393D01*
X137108519Y-101622470D01*
X137960183Y-102556552D01*
X138915604Y-103384814D01*
X139960014Y-104092433D01*
X141078651Y-104664583D01*
X141960600Y-104996887D01*
X142135148Y-105054208D01*
X142290917Y-105106651D01*
X142435710Y-105154439D01*
X142577329Y-105197797D01*
X142723578Y-105236946D01*
X142882257Y-105272112D01*
X143061171Y-105303518D01*
X143268121Y-105331387D01*
X143510909Y-105355943D01*
X143797338Y-105377409D01*
X144135211Y-105396010D01*
X144532330Y-105411969D01*
X144996497Y-105425509D01*
X145535514Y-105436854D01*
X146157185Y-105446228D01*
X146869312Y-105453854D01*
X147679696Y-105459957D01*
X148596141Y-105464758D01*
X149626449Y-105468483D01*
X150778422Y-105471355D01*
X152059863Y-105473597D01*
X153478573Y-105475433D01*
X155042357Y-105477086D01*
X156759015Y-105478781D01*
X158636351Y-105480741D01*
X158851600Y-105480981D01*
X160773653Y-105482976D01*
X162533602Y-105484426D01*
X164138678Y-105485285D01*
X165596108Y-105485504D01*
X166913124Y-105485037D01*
X168096953Y-105483835D01*
X169154826Y-105481852D01*
X170093971Y-105479040D01*
X170921618Y-105475351D01*
X171644996Y-105470739D01*
X172271335Y-105465155D01*
X172807864Y-105458552D01*
X173261812Y-105450884D01*
X173640409Y-105442101D01*
X173950883Y-105432158D01*
X174200464Y-105421006D01*
X174396382Y-105408598D01*
X174545866Y-105394887D01*
X174656145Y-105379826D01*
X174671121Y-105377199D01*
X175865379Y-105077229D01*
X176990135Y-104629535D01*
X178033877Y-104043975D01*
X178985095Y-103330409D01*
X179832276Y-102498694D01*
X180563909Y-101558689D01*
X181168482Y-100520252D01*
X181366933Y-100042597D01*
X146315010Y-100042597D01*
X146232646Y-100312009D01*
X145995304Y-100575320D01*
X145977172Y-100589814D01*
X145666376Y-100735465D01*
X145293273Y-100763709D01*
X144918097Y-100674005D01*
X144773761Y-100600641D01*
X144546411Y-100491918D01*
X144325612Y-100477812D01*
X144155584Y-100508266D01*
X143704792Y-100535696D01*
X143308434Y-100402802D01*
X142984789Y-100131657D01*
X142766597Y-99828339D01*
X142656658Y-99554566D01*
X142656393Y-99335766D01*
X142767223Y-99197372D01*
X142930548Y-99161600D01*
X143108825Y-99212551D01*
X143279542Y-99385013D01*
X143357600Y-99500266D01*
X143560877Y-99740477D01*
X143766347Y-99845652D01*
X143947043Y-99810702D01*
X144074140Y-99635491D01*
X144202979Y-99415744D01*
X144384459Y-99343921D01*
X144539285Y-99364785D01*
X144726334Y-99490943D01*
X144826572Y-99669575D01*
X144985132Y-99909150D01*
X145150489Y-100013927D01*
X145316276Y-100057148D01*
X145441345Y-100011555D01*
X145592202Y-99851868D01*
X145599224Y-99843345D01*
X145821668Y-99639023D01*
X146019092Y-99601020D01*
X146196039Y-99728920D01*
X146236565Y-99785171D01*
X146315010Y-100042597D01*
X181366933Y-100042597D01*
X181624687Y-99422207D01*
X181814662Y-98784186D01*
X181970244Y-98104857D01*
X182079839Y-97453560D01*
X150413761Y-97453560D01*
X150404738Y-98022612D01*
X150246981Y-98562527D01*
X150127484Y-98786961D01*
X149867268Y-99120540D01*
X149527424Y-99375184D01*
X149409960Y-99440247D01*
X149131468Y-99573821D01*
X148896720Y-99642668D01*
X148629328Y-99662182D01*
X148352934Y-99653266D01*
X147817214Y-99583567D01*
X147374586Y-99427556D01*
X147352448Y-99416543D01*
X146834229Y-99068395D01*
X146404534Y-98607450D01*
X146085031Y-98067785D01*
X145897389Y-97483476D01*
X145856094Y-97063380D01*
X145926203Y-96458238D01*
X145927494Y-96455000D01*
X143169666Y-96455000D01*
X143145299Y-96960174D01*
X143009091Y-97428293D01*
X142772573Y-97842200D01*
X142447278Y-98184738D01*
X142044738Y-98438753D01*
X141576484Y-98587088D01*
X141054049Y-98612587D01*
X140488965Y-98498094D01*
X140128286Y-98352201D01*
X139597501Y-98008520D01*
X139155158Y-97547443D01*
X138824871Y-97002885D01*
X138630259Y-96408758D01*
X138594410Y-96149505D01*
X138617305Y-95538879D01*
X138781548Y-95010095D01*
X139074675Y-94576812D01*
X139484220Y-94252689D01*
X139997719Y-94051386D01*
X140568422Y-93986350D01*
X141161640Y-94054774D01*
X141698615Y-94266833D01*
X142200643Y-94632705D01*
X142456399Y-94888701D01*
X142836748Y-95402107D01*
X143070660Y-95929925D01*
X143169666Y-96455000D01*
X145927494Y-96455000D01*
X146130525Y-95945914D01*
X146457030Y-95538782D01*
X146893689Y-95249214D01*
X147428474Y-95089582D01*
X147802600Y-95061291D01*
X148412117Y-95131616D01*
X148964011Y-95349588D01*
X149480724Y-95724868D01*
X149595509Y-95833032D01*
X150004438Y-96332626D01*
X150278758Y-96881517D01*
X150413761Y-97453560D01*
X182079839Y-97453560D01*
X182083333Y-97432798D01*
X182145828Y-96816589D01*
X182149628Y-96304812D01*
X182148139Y-96282933D01*
X181978687Y-94985126D01*
X181664041Y-93773804D01*
X181202948Y-92646261D01*
X180594155Y-91599789D01*
X179836407Y-90631684D01*
X179253483Y-90033778D01*
X178314164Y-89253369D01*
X177306207Y-88623970D01*
X176223128Y-88142839D01*
X175693892Y-87990338D01*
X172187366Y-87990338D01*
X172186491Y-88445548D01*
X172177937Y-88867209D01*
X172161465Y-89221526D01*
X172136833Y-89474706D01*
X172107768Y-89587726D01*
X172043979Y-89634369D01*
X171905555Y-89669127D01*
X171670814Y-89693980D01*
X171318073Y-89710907D01*
X170825649Y-89721888D01*
X170606231Y-89724810D01*
X170038670Y-89734698D01*
X169597322Y-89752341D01*
X169239095Y-89782277D01*
X168920900Y-89829046D01*
X168599645Y-89897187D01*
X168334267Y-89964130D01*
X167928173Y-90089685D01*
X167453472Y-90265664D01*
X166952882Y-90473173D01*
X166469123Y-90693318D01*
X166044915Y-90907206D01*
X165722975Y-91095942D01*
X165635614Y-91157691D01*
X165549065Y-91236543D01*
X165531342Y-91322903D01*
X165589060Y-91464491D01*
X165706844Y-91671534D01*
X165815532Y-91875139D01*
X165953033Y-92157590D01*
X166100732Y-92477207D01*
X166240010Y-92792312D01*
X166352254Y-93061226D01*
X166418844Y-93242269D01*
X166429267Y-93288911D01*
X166410090Y-93316566D01*
X166343720Y-93253362D01*
X166216896Y-93082811D01*
X166016357Y-92788421D01*
X165965782Y-92712548D01*
X165583450Y-92199073D01*
X165097654Y-91639588D01*
X164549644Y-91076008D01*
X163980673Y-90550249D01*
X163431991Y-90104225D01*
X163313897Y-90017963D01*
X162186883Y-89315496D01*
X160996061Y-88762461D01*
X159756745Y-88359315D01*
X158484248Y-88106513D01*
X157193885Y-88004512D01*
X155900970Y-88053768D01*
X154620818Y-88254737D01*
X153368742Y-88607875D01*
X152160057Y-89113638D01*
X151189267Y-89656906D01*
X150723600Y-89950647D01*
X151099731Y-89562147D01*
X151391951Y-89285346D01*
X151730531Y-88999719D01*
X151921168Y-88854789D01*
X152151742Y-88674375D01*
X152314116Y-88518144D01*
X152370537Y-88427161D01*
X152316176Y-88327771D01*
X152164872Y-88135349D01*
X151939216Y-87876803D01*
X151661799Y-87579041D01*
X151635724Y-87551922D01*
X150709129Y-86708161D01*
X149697877Y-86010532D01*
X148605062Y-85460868D01*
X147433778Y-85061003D01*
X147429025Y-85059729D01*
X147088835Y-84959479D01*
X146811633Y-84860626D01*
X146638280Y-84778542D01*
X146603712Y-84749232D01*
X146570064Y-84615819D01*
X146545218Y-84364790D01*
X146534073Y-84047813D01*
X146533897Y-84012933D01*
X146553483Y-83592016D01*
X146624154Y-83312506D01*
X146760689Y-83150414D01*
X146977867Y-83081752D01*
X147111766Y-83074933D01*
X147440806Y-83002818D01*
X147606644Y-82890841D01*
X147667230Y-82830058D01*
X147713833Y-82761580D01*
X147748286Y-82664032D01*
X147772425Y-82516038D01*
X147788084Y-82296223D01*
X147797098Y-81983211D01*
X147801301Y-81555627D01*
X147802529Y-80992095D01*
X147802600Y-80607820D01*
X147803245Y-79956901D01*
X147806198Y-79454885D01*
X147812990Y-79081345D01*
X147825151Y-78815852D01*
X147844210Y-78637980D01*
X147871698Y-78527299D01*
X147909145Y-78463381D01*
X147958081Y-78425799D01*
X147966368Y-78421245D01*
X148141091Y-78375645D01*
X148435748Y-78345972D01*
X148807434Y-78331631D01*
X149213246Y-78332029D01*
X149610278Y-78346571D01*
X149955628Y-78374663D01*
X150206392Y-78415710D01*
X150305252Y-78453647D01*
X150358069Y-78502261D01*
X150398728Y-78575474D01*
X150429203Y-78694849D01*
X150451468Y-78881948D01*
X150467496Y-79158331D01*
X150479264Y-79545562D01*
X150488745Y-80065202D01*
X150495192Y-80527980D01*
X150520783Y-82482266D01*
X150799570Y-82482266D01*
X151082227Y-82544199D01*
X151231600Y-82651600D01*
X151369633Y-82777694D01*
X151456389Y-82820933D01*
X151476967Y-82740255D01*
X151495230Y-82514164D01*
X151510279Y-82166574D01*
X151521213Y-81721399D01*
X151527134Y-81202554D01*
X151527934Y-80918912D01*
X151527520Y-80272945D01*
X151531675Y-79776622D01*
X151548493Y-79410291D01*
X151586068Y-79154298D01*
X151652495Y-78988993D01*
X151755868Y-78894722D01*
X151904283Y-78851833D01*
X152105832Y-78840672D01*
X152368611Y-78841589D01*
X152383534Y-78841600D01*
X152710670Y-78851108D01*
X152939480Y-78896657D01*
X153087446Y-79003784D01*
X153172047Y-79198026D01*
X153210764Y-79504919D01*
X153221075Y-79949999D01*
X153221267Y-80065455D01*
X153230789Y-80553585D01*
X153262131Y-80892441D01*
X153319463Y-81101156D01*
X153406952Y-81198866D01*
X153471034Y-81212230D01*
X153483772Y-81131335D01*
X153495181Y-80903797D01*
X153504761Y-80552303D01*
X153512012Y-80099541D01*
X153516435Y-79568200D01*
X153517600Y-79098736D01*
X153517600Y-76985278D01*
X153919767Y-76577031D01*
X154321934Y-76168783D01*
X154321934Y-75398892D01*
X154329820Y-74995398D01*
X154356332Y-74731125D01*
X154405750Y-74576572D01*
X154448934Y-74523600D01*
X154506123Y-74438937D01*
X154544117Y-74279184D01*
X154566082Y-74016780D01*
X154575185Y-73624166D01*
X154575934Y-73418078D01*
X154582987Y-72883299D01*
X154608213Y-72495747D01*
X154657710Y-72233749D01*
X154737576Y-72075630D01*
X154853909Y-71999714D01*
X154979543Y-71983600D01*
X155192534Y-72038954D01*
X155439839Y-72217324D01*
X155574306Y-72346638D01*
X155930600Y-72709676D01*
X155930600Y-73546471D01*
X155936343Y-73956494D01*
X155957111Y-74233318D01*
X155998217Y-74412800D01*
X156064969Y-74530795D01*
X156078767Y-74546786D01*
X156152496Y-74667250D01*
X156202954Y-74858136D01*
X156235927Y-75152703D01*
X156256691Y-75569304D01*
X156286448Y-76428302D01*
X156616524Y-76786392D01*
X156946600Y-77144483D01*
X156946600Y-80914041D01*
X156946817Y-81810745D01*
X156947888Y-82552747D01*
X156950444Y-83154680D01*
X156955116Y-83631175D01*
X156962536Y-83996864D01*
X156973335Y-84266379D01*
X156988144Y-84454351D01*
X157007594Y-84575412D01*
X157032316Y-84644194D01*
X157062941Y-84675329D01*
X157100101Y-84683449D01*
X157109207Y-84683600D01*
X157251141Y-84615501D01*
X157328716Y-84424522D01*
X157460824Y-84180970D01*
X157722077Y-84040521D01*
X158010446Y-84006266D01*
X158216600Y-84006266D01*
X158216600Y-80312614D01*
X158470600Y-80069266D01*
X158651175Y-79849791D01*
X158719523Y-79607725D01*
X158724600Y-79479598D01*
X158775174Y-79129535D01*
X158915639Y-78882390D01*
X159129109Y-78763687D01*
X159202663Y-78756933D01*
X159419203Y-78691199D01*
X159571382Y-78566433D01*
X159663648Y-78473226D01*
X159782558Y-78416394D01*
X159968985Y-78387173D01*
X160263801Y-78376795D01*
X160459612Y-78375933D01*
X160878132Y-78386845D01*
X161156230Y-78437178D01*
X161322316Y-78553325D01*
X161404799Y-78761680D01*
X161432090Y-79088637D01*
X161433934Y-79281115D01*
X161433934Y-79857600D01*
X161682422Y-79857600D01*
X161951216Y-79887335D01*
X162148089Y-79940171D01*
X162365267Y-80022742D01*
X162365267Y-83297252D01*
X162619267Y-83540600D01*
X162873267Y-83783947D01*
X162873267Y-80810285D01*
X162875611Y-80049546D01*
X162882338Y-79360817D01*
X162892997Y-78761626D01*
X162907132Y-78269504D01*
X162924292Y-77901977D01*
X162944021Y-77676576D01*
X162955838Y-77619445D01*
X163074901Y-77448604D01*
X163274662Y-77402266D01*
X163389663Y-77425732D01*
X163535861Y-77506457D01*
X163732378Y-77659929D01*
X163998339Y-77901640D01*
X164352866Y-78247077D01*
X164504424Y-78398371D01*
X165497934Y-79394476D01*
X165497934Y-85191600D01*
X165799833Y-85191600D01*
X166053721Y-85215966D01*
X166257288Y-85275036D01*
X166265500Y-85279245D01*
X166390673Y-85321234D01*
X166428245Y-85233745D01*
X166429267Y-85190374D01*
X166484532Y-84937440D01*
X166621116Y-84658668D01*
X166795206Y-84442308D01*
X166804685Y-84434233D01*
X166901032Y-84260524D01*
X166937258Y-83975683D01*
X166937267Y-83970499D01*
X166980752Y-83638160D01*
X167106176Y-83450312D01*
X167305995Y-83407689D01*
X167572666Y-83511024D01*
X167898643Y-83761050D01*
X168008485Y-83866382D01*
X168461267Y-84319165D01*
X168461267Y-84960124D01*
X168471581Y-85394613D01*
X168504866Y-85678803D01*
X168564638Y-85830607D01*
X168639659Y-85868933D01*
X168674146Y-85790835D01*
X168700385Y-85582719D01*
X168714167Y-85283854D01*
X168715267Y-85164025D01*
X168720010Y-84808667D01*
X168741024Y-84578098D01*
X168788486Y-84427881D01*
X168872573Y-84313581D01*
X168920975Y-84265864D01*
X169000576Y-84183181D01*
X169057292Y-84089548D01*
X169095816Y-83955581D01*
X169120843Y-83751902D01*
X169137068Y-83449127D01*
X169149184Y-83017876D01*
X169153809Y-82808521D01*
X169168019Y-82297513D01*
X169187081Y-81931955D01*
X169213733Y-81687977D01*
X169250710Y-81541710D01*
X169300750Y-81469283D01*
X169307934Y-81464312D01*
X169551712Y-81387525D01*
X169809082Y-81466186D01*
X170044736Y-81652208D01*
X170323934Y-81922817D01*
X170323934Y-83081175D01*
X170327242Y-83564870D01*
X170339048Y-83906321D01*
X170362174Y-84132522D01*
X170399440Y-84270469D01*
X170453670Y-84347154D01*
X170456516Y-84349566D01*
X170648052Y-84575256D01*
X170767856Y-84889394D01*
X170824539Y-85320908D01*
X170831934Y-85610728D01*
X170831934Y-86292266D01*
X171407667Y-86292266D01*
X171736526Y-86307118D01*
X171980474Y-86347067D01*
X172085001Y-86393866D01*
X172118903Y-86509902D01*
X172146331Y-86761361D01*
X172167045Y-87114450D01*
X172180804Y-87535374D01*
X172187366Y-87990338D01*
X175693892Y-87990338D01*
X175058443Y-87807232D01*
X173805668Y-87614403D01*
X173473079Y-87587863D01*
X173095674Y-87556116D01*
X172887145Y-87520564D01*
X172847049Y-87479698D01*
X172974944Y-87432011D01*
X173270388Y-87375993D01*
X173404905Y-87355374D01*
X173818875Y-87294350D01*
X173770938Y-86433475D01*
X173625274Y-85294271D01*
X173322291Y-84208038D01*
X172868936Y-83186626D01*
X172272155Y-82241881D01*
X171538893Y-81385652D01*
X170676096Y-80629787D01*
X170154600Y-80264832D01*
X169227850Y-79757972D01*
X168222770Y-79385245D01*
X167123948Y-79141657D01*
X166424649Y-79056421D01*
X165785030Y-78999587D01*
X164771835Y-78002830D01*
X164342611Y-77588050D01*
X164005978Y-77286083D01*
X163739747Y-77085245D01*
X163521732Y-76973854D01*
X163329742Y-76940225D01*
X163141591Y-76972675D01*
X162958602Y-77048043D01*
X162700996Y-77222038D01*
X162541790Y-77465636D01*
X162464806Y-77812844D01*
X162451182Y-78114657D01*
X162449934Y-78615381D01*
X161878434Y-78065268D01*
X161073198Y-77358136D01*
X160243183Y-76773278D01*
X159401934Y-76304303D01*
X158836910Y-76043265D01*
X158230950Y-75799439D01*
X157639972Y-75593326D01*
X157119893Y-75445429D01*
X156967767Y-75411772D01*
X156776850Y-75351699D01*
X156702843Y-75236683D01*
X156692600Y-75085108D01*
X156652963Y-74833161D01*
X156554600Y-74547419D01*
X156523267Y-74481266D01*
X156433994Y-74262130D01*
X156381234Y-74003564D01*
X156357444Y-73656289D01*
X156353934Y-73375218D01*
X156348036Y-72985435D01*
X156324734Y-72718201D01*
X156275613Y-72526972D01*
X156192257Y-72365200D01*
X156163434Y-72321479D01*
X155834723Y-71932179D01*
X155477473Y-71672183D01*
X155113492Y-71549720D01*
X154764588Y-71573022D01*
G36*
X166462317Y-106071683D02*
X166210752Y-106229667D01*
X166112131Y-106341300D01*
X165942615Y-106579418D01*
X165798453Y-106683088D01*
X165638638Y-106655163D01*
X165422161Y-106498497D01*
X165307056Y-106397308D01*
X164999457Y-106148836D01*
X164743851Y-106020604D01*
X164492700Y-105995860D01*
X164279108Y-106035019D01*
X164102358Y-106128044D01*
X163858754Y-106313613D01*
X163589363Y-106553785D01*
X163335250Y-106810616D01*
X163137481Y-107046161D01*
X163065928Y-107155946D01*
X162999006Y-107253389D01*
X162938713Y-107228547D01*
X162847837Y-107071279D01*
X162603127Y-106729395D01*
X162262623Y-106410083D01*
X161895044Y-106176027D01*
X161838820Y-106150891D01*
X161617149Y-106086564D01*
X161301277Y-106045078D01*
X160863838Y-106023830D01*
X160459138Y-106019600D01*
X160015136Y-106021316D01*
X159707155Y-106030092D01*
X159501894Y-106051364D01*
X159366047Y-106090571D01*
X159266312Y-106153151D01*
X159186419Y-106227418D01*
X159046501Y-106384995D01*
X158979571Y-106495093D01*
X158978598Y-106502584D01*
X158918031Y-106591697D01*
X158765384Y-106737426D01*
X158684032Y-106804966D01*
X158389468Y-107039999D01*
X158070201Y-106685899D01*
X157728935Y-106367543D01*
X157362282Y-106162614D01*
X156925298Y-106053215D01*
X156401832Y-106021459D01*
X155935780Y-106043788D01*
X155551397Y-106127341D01*
X155205958Y-106292642D01*
X154856740Y-106560214D01*
X154461022Y-106950581D01*
X154455483Y-106956449D01*
X153900175Y-107545104D01*
X153721198Y-107164347D01*
X153449263Y-106746415D01*
X153073838Y-106383971D01*
X152658644Y-106136008D01*
X152343746Y-106056749D01*
X151930083Y-106022035D01*
X151481873Y-106030474D01*
X151063334Y-106080676D01*
X150738683Y-106171248D01*
X150723600Y-106177932D01*
X150509935Y-106310187D01*
X150232257Y-106529535D01*
X149939064Y-106796517D01*
X149834600Y-106901291D01*
X149284267Y-107470036D01*
X149230110Y-106981308D01*
X149179402Y-106669237D01*
X149092959Y-106459030D01*
X148941168Y-106283328D01*
X148911275Y-106256090D01*
X148801785Y-106162629D01*
X148697060Y-106097745D01*
X148565095Y-106056224D01*
X148373890Y-106032852D01*
X148091441Y-106022413D01*
X147685746Y-106019694D01*
X147459879Y-106019600D01*
X146900634Y-106025103D01*
X146475476Y-106049308D01*
X146149308Y-106103756D01*
X145887035Y-106199989D01*
X145653561Y-106349547D01*
X145413790Y-106563973D01*
X145228635Y-106753360D01*
X144758160Y-107247266D01*
X144756380Y-106967895D01*
X144701980Y-106640160D01*
X144563992Y-106339262D01*
X144374128Y-106130156D01*
X144335957Y-106106776D01*
X144195222Y-106076753D01*
X143909469Y-106051854D01*
X143502968Y-106033279D01*
X142999990Y-106022228D01*
X142573592Y-106019600D01*
X142015603Y-106020313D01*
X141601782Y-106024296D01*
X141306962Y-106034314D01*
X141105979Y-106053132D01*
X140973667Y-106083514D01*
X140884861Y-106128226D01*
X140814395Y-106190032D01*
X140790026Y-106215556D01*
X140660746Y-106379393D01*
X140605947Y-106500908D01*
X140605934Y-106502015D01*
X140535220Y-106593690D01*
X140434905Y-106637242D01*
X140283766Y-106624145D01*
X140157245Y-106474292D01*
X140137695Y-106437960D01*
X139997871Y-106236759D01*
X139848624Y-106106776D01*
X139681631Y-106065631D01*
X139385143Y-106037343D01*
X138998476Y-106021514D01*
X138560950Y-106017748D01*
X138111880Y-106025648D01*
X137690586Y-106044816D01*
X137336385Y-106074856D01*
X137088595Y-106115371D01*
X137026048Y-106135272D01*
X136824169Y-106262651D01*
X136559345Y-106485026D01*
X136269293Y-106763789D01*
X135991732Y-107060334D01*
X135764380Y-107336051D01*
X135624955Y-107552334D01*
X135611744Y-107582926D01*
X135532924Y-107975873D01*
X135550185Y-108425755D01*
X135658328Y-108853797D01*
X135702284Y-108955094D01*
X135878634Y-109319384D01*
X135702284Y-109543576D01*
X135554593Y-109852570D01*
X135544700Y-110186004D01*
X135654997Y-110501991D01*
X135867879Y-110758643D01*
X136165739Y-110914071D01*
X136287934Y-110936924D01*
X136549790Y-110938182D01*
X136783575Y-110865805D01*
X137038389Y-110698108D01*
X137261601Y-110506933D01*
X137547316Y-110258609D01*
X137735005Y-110126715D01*
X137843113Y-110104768D01*
X137890086Y-110186282D01*
X137896600Y-110283721D01*
X137954721Y-110478672D01*
X138096070Y-110682867D01*
X138110338Y-110697580D01*
X138427680Y-110911076D01*
X138778410Y-110967365D01*
X139139247Y-110868811D01*
X139486908Y-110617776D01*
X139551065Y-110551387D01*
X139780342Y-110333271D01*
X139933846Y-110260810D01*
X140008726Y-110334924D01*
X140015960Y-110401100D01*
X140099323Y-110647002D01*
X140316604Y-110851130D01*
X140470179Y-110926938D01*
X140650029Y-110961334D01*
X140960122Y-110987066D01*
X141361581Y-111004026D01*
X141815533Y-111012106D01*
X142283101Y-111011201D01*
X142725411Y-111001202D01*
X143103588Y-110982003D01*
X143378757Y-110953497D01*
X143467420Y-110935193D01*
X143666337Y-110833578D01*
X143930416Y-110638275D01*
X144213954Y-110383590D01*
X144250028Y-110347739D01*
X144506873Y-110078136D01*
X144660314Y-109880651D01*
X144734754Y-109716318D01*
X144754593Y-109546169D01*
X144754600Y-109541976D01*
X144754600Y-109243927D01*
X145178042Y-109507153D01*
X145454174Y-109658487D01*
X145722766Y-109748273D01*
X146056589Y-109797410D01*
X146236375Y-109811123D01*
X146871267Y-109851868D01*
X146871267Y-110167855D01*
X146946999Y-110498463D01*
X147147692Y-110762825D01*
X147433594Y-110933974D01*
X147764951Y-110984945D01*
X148002056Y-110934909D01*
X148172885Y-110834172D01*
X148412635Y-110648551D01*
X148673300Y-110415639D01*
X148708092Y-110382019D01*
X149185256Y-109916147D01*
X149373262Y-110192823D01*
X149554177Y-110388251D01*
X149819772Y-110596914D01*
X150015434Y-110718521D01*
X150290242Y-110854649D01*
X150535835Y-110930147D01*
X150824666Y-110961468D01*
X151104600Y-110965893D01*
X151562542Y-110938882D01*
X151953326Y-110847588D01*
X152317702Y-110672678D01*
X152696420Y-110394822D01*
X153110001Y-110014566D01*
X153718402Y-109418054D01*
X153771643Y-109660460D01*
X153898389Y-109945573D01*
X154135735Y-110253984D01*
X154439546Y-110540210D01*
X154765685Y-110758772D01*
X154894988Y-110818024D01*
X155351629Y-110935121D01*
X155859859Y-110971247D01*
X156355879Y-110927756D01*
X156775889Y-110806007D01*
X156836883Y-110776724D01*
X157128828Y-110590096D01*
X157465450Y-110321674D01*
X157804797Y-110010940D01*
X158104921Y-109697370D01*
X158323872Y-109420446D01*
X158383063Y-109321600D01*
X158497703Y-109036818D01*
X158585626Y-108714537D01*
X158596268Y-108657313D01*
X158648113Y-108431697D01*
X158707309Y-108359006D01*
X158750348Y-108382147D01*
X158898972Y-108451311D01*
X159080200Y-108474933D01*
X159251235Y-108488026D01*
X159317267Y-108517266D01*
X159257270Y-108622554D01*
X159090256Y-108818338D01*
X158835687Y-109082529D01*
X158712947Y-109203145D01*
X158444804Y-109547511D01*
X158338367Y-109916915D01*
X158386015Y-110337897D01*
X158386536Y-110339837D01*
X158474404Y-110580553D01*
X158605463Y-110752771D01*
X158805836Y-110866957D01*
X159101644Y-110933573D01*
X159519010Y-110963085D01*
X159952267Y-110967042D01*
X160482658Y-110954594D01*
X160890285Y-110911613D01*
X161221281Y-110819674D01*
X161521782Y-110660359D01*
X161837922Y-110415243D01*
X162215836Y-110065906D01*
X162220672Y-110061257D01*
X162589904Y-109676155D01*
X162834897Y-109335609D01*
X162976793Y-108997349D01*
X163036730Y-108619102D01*
X163042600Y-108417691D01*
X163042600Y-108222910D01*
X141517063Y-108222910D01*
X141354377Y-108343280D01*
X141260268Y-108390266D01*
X141055120Y-108527232D01*
X140969501Y-108720026D01*
X140961064Y-108783567D01*
X140890599Y-109023650D01*
X140770564Y-109198856D01*
X140645587Y-109349439D01*
X140605934Y-109454666D01*
X140530648Y-109582481D01*
X140340050Y-109652522D01*
X140330767Y-109653582D01*
X140304262Y-109577789D01*
X140283183Y-109367964D01*
X140270167Y-109059382D01*
X140267267Y-108804541D01*
X140270298Y-108415760D01*
X140282420Y-108168966D01*
X140308176Y-108036874D01*
X140352109Y-107992200D01*
X140401192Y-108000208D01*
X140555647Y-108028212D01*
X140814685Y-108046878D01*
X141036192Y-108051600D01*
X141354777Y-108072243D01*
X141516132Y-108130956D01*
X141517063Y-108222910D01*
X163042600Y-108222910D01*
X163042600Y-107931676D01*
X163424040Y-108306031D01*
X163805479Y-108680385D01*
X163386440Y-109106826D01*
X163159703Y-109358421D01*
X162975588Y-109600321D01*
X162877862Y-109771975D01*
X162825362Y-110128740D01*
X162927275Y-110461275D01*
X163168773Y-110739883D01*
X163440717Y-110899062D01*
X163657356Y-110960889D01*
X163869085Y-110943557D01*
X164106770Y-110834130D01*
X164401275Y-110619669D01*
X164681576Y-110378933D01*
X164927558Y-110164926D01*
X165125216Y-110003042D01*
X165241362Y-109920122D01*
X165255678Y-109914647D01*
X165304728Y-109988347D01*
X165357211Y-110170943D01*
X165367073Y-110219797D01*
X165506831Y-110576387D01*
X165764016Y-110813685D01*
X166128211Y-110923433D01*
X166263526Y-110930266D01*
X166536482Y-110912010D01*
X166723900Y-110834129D01*
X166907730Y-110661952D01*
X166913927Y-110655100D01*
X167114250Y-110455422D01*
X167304869Y-110299816D01*
X167346032Y-110273382D01*
X167481838Y-110211043D01*
X167526889Y-110259958D01*
X167529934Y-110321042D01*
X167587931Y-110473394D01*
X167732700Y-110665558D01*
X167789743Y-110723926D01*
X167903586Y-110828075D01*
X168010527Y-110898041D01*
X168145687Y-110940509D01*
X168344184Y-110962168D01*
X168641139Y-110969705D01*
X169071672Y-110969807D01*
X169080910Y-110969781D01*
X169612808Y-110959757D01*
X170020769Y-110921263D01*
X170349844Y-110836675D01*
X170645081Y-110688370D01*
X170951530Y-110458724D01*
X171314241Y-110130113D01*
X171375192Y-110072237D01*
X171974934Y-109500875D01*
X171999822Y-109991629D01*
X172075291Y-110422321D01*
X172255582Y-110721590D01*
X172547334Y-110895219D01*
X172957189Y-110948991D01*
X173092915Y-110943434D01*
X173240632Y-110880621D01*
X173462300Y-110726306D01*
X173714751Y-110511282D01*
X173764223Y-110464579D01*
X174248883Y-109998892D01*
X174351041Y-110296048D01*
X174486447Y-110607383D01*
X174654862Y-110796057D01*
X174899866Y-110908414D01*
X174936910Y-110919087D01*
X175272285Y-110966044D01*
X175569361Y-110892819D01*
X175874205Y-110684653D01*
X175984861Y-110583348D01*
X176184197Y-110402430D01*
X176337615Y-110282415D01*
X176395994Y-110252933D01*
X176474191Y-110321792D01*
X176566575Y-110485766D01*
X176773370Y-110757932D01*
X177082802Y-110925852D01*
X177453091Y-110973699D01*
X177729421Y-110926285D01*
X177947221Y-110815873D01*
X178182317Y-110633579D01*
X178244053Y-110572856D01*
X178449121Y-110366776D01*
X178637761Y-110192901D01*
X178680931Y-110156891D01*
X178795487Y-110079010D01*
X178863870Y-110103345D01*
X178925131Y-110256183D01*
X178950065Y-110338046D01*
X179109977Y-110652819D01*
X179372618Y-110845818D01*
X179752829Y-110926508D01*
X179878837Y-110930266D01*
X180083857Y-110923272D01*
X180244376Y-110886970D01*
X180402091Y-110798385D01*
X180598701Y-110634539D01*
X180855483Y-110392094D01*
X181415267Y-109853922D01*
X181415267Y-108538433D01*
X168460863Y-108538433D01*
X168407869Y-108631473D01*
X168277663Y-108794162D01*
X168112591Y-108979567D01*
X167955001Y-109140758D01*
X167847242Y-109230803D01*
X167830584Y-109236933D01*
X167805422Y-109160196D01*
X167788485Y-108961627D01*
X167783934Y-108754333D01*
X167791510Y-108484578D01*
X167818318Y-108360701D01*
X167870478Y-108359753D01*
X167885534Y-108373333D01*
X168041548Y-108449293D01*
X168224200Y-108474933D01*
X168395022Y-108494548D01*
X168460863Y-108538433D01*
X181415267Y-108538433D01*
X181415267Y-108271223D01*
X181409955Y-107593548D01*
X181388419Y-107066378D01*
X181342259Y-106671068D01*
X181263075Y-106388971D01*
X181142468Y-106201440D01*
X180972039Y-106089829D01*
X180743387Y-106035490D01*
X180448113Y-106019778D01*
X180400985Y-106019600D01*
X180172134Y-106026107D01*
X180005900Y-106063157D01*
X179856602Y-106157042D01*
X179678562Y-106334052D01*
X179495614Y-106540706D01*
X179365147Y-106675991D01*
X179186029Y-106846737D01*
X179178114Y-106853986D01*
X178959934Y-107053373D01*
X178959934Y-106783973D01*
X178886401Y-106493269D01*
X178712447Y-106267087D01*
X178536378Y-106117087D01*
X178353228Y-106043169D01*
X178091405Y-106020283D01*
X178005143Y-106019600D01*
X177704331Y-106035523D01*
X177505820Y-106096807D01*
X177344450Y-106223720D01*
X177342464Y-106225734D01*
X177155888Y-106415387D01*
X176927340Y-106647792D01*
X176843267Y-106733304D01*
X176611255Y-106949951D01*
X176472137Y-107031705D01*
X176420507Y-106981552D01*
X176419934Y-106967006D01*
X176355476Y-106840777D01*
X176189893Y-106660562D01*
X175964875Y-106463359D01*
X175722109Y-106286168D01*
X175530934Y-106178005D01*
X175156986Y-106066977D01*
X174695077Y-106021830D01*
X174657629Y-106021459D01*
X174161203Y-106059060D01*
X173733661Y-106188755D01*
X173335679Y-106430210D01*
X172927932Y-106803089D01*
X172784910Y-106957907D01*
X172256783Y-107547781D01*
X172043605Y-107119989D01*
X171802820Y-106724939D01*
X171511416Y-106429432D01*
X171145342Y-106222457D01*
X170680549Y-106093004D01*
X170092984Y-106030062D01*
X169639988Y-106019600D01*
X168611937Y-106019600D01*
X168226207Y-106410864D01*
X167840477Y-106802129D01*
X167692535Y-106513761D01*
X167496831Y-106247769D01*
X167205315Y-106063438D01*
X167007083Y-105990024D01*
X166752856Y-105981952D01*
X166462317Y-106071683D01*
X166462317Y-106071683D01*
G37*
X166462317Y-106071683D02*
X166210752Y-106229667D01*
X166112131Y-106341300D01*
X165942615Y-106579418D01*
X165798453Y-106683088D01*
X165638638Y-106655163D01*
X165422161Y-106498497D01*
X165307056Y-106397308D01*
X164999457Y-106148836D01*
X164743851Y-106020604D01*
X164492700Y-105995860D01*
X164279108Y-106035019D01*
X164102358Y-106128044D01*
X163858754Y-106313613D01*
X163589363Y-106553785D01*
X163335250Y-106810616D01*
X163137481Y-107046161D01*
X163065928Y-107155946D01*
X162999006Y-107253389D01*
X162938713Y-107228547D01*
X162847837Y-107071279D01*
X162603127Y-106729395D01*
X162262623Y-106410083D01*
X161895044Y-106176027D01*
X161838820Y-106150891D01*
X161617149Y-106086564D01*
X161301277Y-106045078D01*
X160863838Y-106023830D01*
X160459138Y-106019600D01*
X160015136Y-106021316D01*
X159707155Y-106030092D01*
X159501894Y-106051364D01*
X159366047Y-106090571D01*
X159266312Y-106153151D01*
X159186419Y-106227418D01*
X159046501Y-106384995D01*
X158979571Y-106495093D01*
X158978598Y-106502584D01*
X158918031Y-106591697D01*
X158765384Y-106737426D01*
X158684032Y-106804966D01*
X158389468Y-107039999D01*
X158070201Y-106685899D01*
X157728935Y-106367543D01*
X157362282Y-106162614D01*
X156925298Y-106053215D01*
X156401832Y-106021459D01*
X155935780Y-106043788D01*
X155551397Y-106127341D01*
X155205958Y-106292642D01*
X154856740Y-106560214D01*
X154461022Y-106950581D01*
X154455483Y-106956449D01*
X153900175Y-107545104D01*
X153721198Y-107164347D01*
X153449263Y-106746415D01*
X153073838Y-106383971D01*
X152658644Y-106136008D01*
X152343746Y-106056749D01*
X151930083Y-106022035D01*
X151481873Y-106030474D01*
X151063334Y-106080676D01*
X150738683Y-106171248D01*
X150723600Y-106177932D01*
X150509935Y-106310187D01*
X150232257Y-106529535D01*
X149939064Y-106796517D01*
X149834600Y-106901291D01*
X149284267Y-107470036D01*
X149230110Y-106981308D01*
X149179402Y-106669237D01*
X149092959Y-106459030D01*
X148941168Y-106283328D01*
X148911275Y-106256090D01*
X148801785Y-106162629D01*
X148697060Y-106097745D01*
X148565095Y-106056224D01*
X148373890Y-106032852D01*
X148091441Y-106022413D01*
X147685746Y-106019694D01*
X147459879Y-106019600D01*
X146900634Y-106025103D01*
X146475476Y-106049308D01*
X146149308Y-106103756D01*
X145887035Y-106199989D01*
X145653561Y-106349547D01*
X145413790Y-106563973D01*
X145228635Y-106753360D01*
X144758160Y-107247266D01*
X144756380Y-106967895D01*
X144701980Y-106640160D01*
X144563992Y-106339262D01*
X144374128Y-106130156D01*
X144335957Y-106106776D01*
X144195222Y-106076753D01*
X143909469Y-106051854D01*
X143502968Y-106033279D01*
X142999990Y-106022228D01*
X142573592Y-106019600D01*
X142015603Y-106020313D01*
X141601782Y-106024296D01*
X141306962Y-106034314D01*
X141105979Y-106053132D01*
X140973667Y-106083514D01*
X140884861Y-106128226D01*
X140814395Y-106190032D01*
X140790026Y-106215556D01*
X140660746Y-106379393D01*
X140605947Y-106500908D01*
X140605934Y-106502015D01*
X140535220Y-106593690D01*
X140434905Y-106637242D01*
X140283766Y-106624145D01*
X140157245Y-106474292D01*
X140137695Y-106437960D01*
X139997871Y-106236759D01*
X139848624Y-106106776D01*
X139681631Y-106065631D01*
X139385143Y-106037343D01*
X138998476Y-106021514D01*
X138560950Y-106017748D01*
X138111880Y-106025648D01*
X137690586Y-106044816D01*
X137336385Y-106074856D01*
X137088595Y-106115371D01*
X137026048Y-106135272D01*
X136824169Y-106262651D01*
X136559345Y-106485026D01*
X136269293Y-106763789D01*
X135991732Y-107060334D01*
X135764380Y-107336051D01*
X135624955Y-107552334D01*
X135611744Y-107582926D01*
X135532924Y-107975873D01*
X135550185Y-108425755D01*
X135658328Y-108853797D01*
X135702284Y-108955094D01*
X135878634Y-109319384D01*
X135702284Y-109543576D01*
X135554593Y-109852570D01*
X135544700Y-110186004D01*
X135654997Y-110501991D01*
X135867879Y-110758643D01*
X136165739Y-110914071D01*
X136287934Y-110936924D01*
X136549790Y-110938182D01*
X136783575Y-110865805D01*
X137038389Y-110698108D01*
X137261601Y-110506933D01*
X137547316Y-110258609D01*
X137735005Y-110126715D01*
X137843113Y-110104768D01*
X137890086Y-110186282D01*
X137896600Y-110283721D01*
X137954721Y-110478672D01*
X138096070Y-110682867D01*
X138110338Y-110697580D01*
X138427680Y-110911076D01*
X138778410Y-110967365D01*
X139139247Y-110868811D01*
X139486908Y-110617776D01*
X139551065Y-110551387D01*
X139780342Y-110333271D01*
X139933846Y-110260810D01*
X140008726Y-110334924D01*
X140015960Y-110401100D01*
X140099323Y-110647002D01*
X140316604Y-110851130D01*
X140470179Y-110926938D01*
X140650029Y-110961334D01*
X140960122Y-110987066D01*
X141361581Y-111004026D01*
X141815533Y-111012106D01*
X142283101Y-111011201D01*
X142725411Y-111001202D01*
X143103588Y-110982003D01*
X143378757Y-110953497D01*
X143467420Y-110935193D01*
X143666337Y-110833578D01*
X143930416Y-110638275D01*
X144213954Y-110383590D01*
X144250028Y-110347739D01*
X144506873Y-110078136D01*
X144660314Y-109880651D01*
X144734754Y-109716318D01*
X144754593Y-109546169D01*
X144754600Y-109541976D01*
X144754600Y-109243927D01*
X145178042Y-109507153D01*
X145454174Y-109658487D01*
X145722766Y-109748273D01*
X146056589Y-109797410D01*
X146236375Y-109811123D01*
X146871267Y-109851868D01*
X146871267Y-110167855D01*
X146946999Y-110498463D01*
X147147692Y-110762825D01*
X147433594Y-110933974D01*
X147764951Y-110984945D01*
X148002056Y-110934909D01*
X148172885Y-110834172D01*
X148412635Y-110648551D01*
X148673300Y-110415639D01*
X148708092Y-110382019D01*
X149185256Y-109916147D01*
X149373262Y-110192823D01*
X149554177Y-110388251D01*
X149819772Y-110596914D01*
X150015434Y-110718521D01*
X150290242Y-110854649D01*
X150535835Y-110930147D01*
X150824666Y-110961468D01*
X151104600Y-110965893D01*
X151562542Y-110938882D01*
X151953326Y-110847588D01*
X152317702Y-110672678D01*
X152696420Y-110394822D01*
X153110001Y-110014566D01*
X153718402Y-109418054D01*
X153771643Y-109660460D01*
X153898389Y-109945573D01*
X154135735Y-110253984D01*
X154439546Y-110540210D01*
X154765685Y-110758772D01*
X154894988Y-110818024D01*
X155351629Y-110935121D01*
X155859859Y-110971247D01*
X156355879Y-110927756D01*
X156775889Y-110806007D01*
X156836883Y-110776724D01*
X157128828Y-110590096D01*
X157465450Y-110321674D01*
X157804797Y-110010940D01*
X158104921Y-109697370D01*
X158323872Y-109420446D01*
X158383063Y-109321600D01*
X158497703Y-109036818D01*
X158585626Y-108714537D01*
X158596268Y-108657313D01*
X158648113Y-108431697D01*
X158707309Y-108359006D01*
X158750348Y-108382147D01*
X158898972Y-108451311D01*
X159080200Y-108474933D01*
X159251235Y-108488026D01*
X159317267Y-108517266D01*
X159257270Y-108622554D01*
X159090256Y-108818338D01*
X158835687Y-109082529D01*
X158712947Y-109203145D01*
X158444804Y-109547511D01*
X158338367Y-109916915D01*
X158386015Y-110337897D01*
X158386536Y-110339837D01*
X158474404Y-110580553D01*
X158605463Y-110752771D01*
X158805836Y-110866957D01*
X159101644Y-110933573D01*
X159519010Y-110963085D01*
X159952267Y-110967042D01*
X160482658Y-110954594D01*
X160890285Y-110911613D01*
X161221281Y-110819674D01*
X161521782Y-110660359D01*
X161837922Y-110415243D01*
X162215836Y-110065906D01*
X162220672Y-110061257D01*
X162589904Y-109676155D01*
X162834897Y-109335609D01*
X162976793Y-108997349D01*
X163036730Y-108619102D01*
X163042600Y-108417691D01*
X163042600Y-108222910D01*
X141517063Y-108222910D01*
X141354377Y-108343280D01*
X141260268Y-108390266D01*
X141055120Y-108527232D01*
X140969501Y-108720026D01*
X140961064Y-108783567D01*
X140890599Y-109023650D01*
X140770564Y-109198856D01*
X140645587Y-109349439D01*
X140605934Y-109454666D01*
X140530648Y-109582481D01*
X140340050Y-109652522D01*
X140330767Y-109653582D01*
X140304262Y-109577789D01*
X140283183Y-109367964D01*
X140270167Y-109059382D01*
X140267267Y-108804541D01*
X140270298Y-108415760D01*
X140282420Y-108168966D01*
X140308176Y-108036874D01*
X140352109Y-107992200D01*
X140401192Y-108000208D01*
X140555647Y-108028212D01*
X140814685Y-108046878D01*
X141036192Y-108051600D01*
X141354777Y-108072243D01*
X141516132Y-108130956D01*
X141517063Y-108222910D01*
X163042600Y-108222910D01*
X163042600Y-107931676D01*
X163424040Y-108306031D01*
X163805479Y-108680385D01*
X163386440Y-109106826D01*
X163159703Y-109358421D01*
X162975588Y-109600321D01*
X162877862Y-109771975D01*
X162825362Y-110128740D01*
X162927275Y-110461275D01*
X163168773Y-110739883D01*
X163440717Y-110899062D01*
X163657356Y-110960889D01*
X163869085Y-110943557D01*
X164106770Y-110834130D01*
X164401275Y-110619669D01*
X164681576Y-110378933D01*
X164927558Y-110164926D01*
X165125216Y-110003042D01*
X165241362Y-109920122D01*
X165255678Y-109914647D01*
X165304728Y-109988347D01*
X165357211Y-110170943D01*
X165367073Y-110219797D01*
X165506831Y-110576387D01*
X165764016Y-110813685D01*
X166128211Y-110923433D01*
X166263526Y-110930266D01*
X166536482Y-110912010D01*
X166723900Y-110834129D01*
X166907730Y-110661952D01*
X166913927Y-110655100D01*
X167114250Y-110455422D01*
X167304869Y-110299816D01*
X167346032Y-110273382D01*
X167481838Y-110211043D01*
X167526889Y-110259958D01*
X167529934Y-110321042D01*
X167587931Y-110473394D01*
X167732700Y-110665558D01*
X167789743Y-110723926D01*
X167903586Y-110828075D01*
X168010527Y-110898041D01*
X168145687Y-110940509D01*
X168344184Y-110962168D01*
X168641139Y-110969705D01*
X169071672Y-110969807D01*
X169080910Y-110969781D01*
X169612808Y-110959757D01*
X170020769Y-110921263D01*
X170349844Y-110836675D01*
X170645081Y-110688370D01*
X170951530Y-110458724D01*
X171314241Y-110130113D01*
X171375192Y-110072237D01*
X171974934Y-109500875D01*
X171999822Y-109991629D01*
X172075291Y-110422321D01*
X172255582Y-110721590D01*
X172547334Y-110895219D01*
X172957189Y-110948991D01*
X173092915Y-110943434D01*
X173240632Y-110880621D01*
X173462300Y-110726306D01*
X173714751Y-110511282D01*
X173764223Y-110464579D01*
X174248883Y-109998892D01*
X174351041Y-110296048D01*
X174486447Y-110607383D01*
X174654862Y-110796057D01*
X174899866Y-110908414D01*
X174936910Y-110919087D01*
X175272285Y-110966044D01*
X175569361Y-110892819D01*
X175874205Y-110684653D01*
X175984861Y-110583348D01*
X176184197Y-110402430D01*
X176337615Y-110282415D01*
X176395994Y-110252933D01*
X176474191Y-110321792D01*
X176566575Y-110485766D01*
X176773370Y-110757932D01*
X177082802Y-110925852D01*
X177453091Y-110973699D01*
X177729421Y-110926285D01*
X177947221Y-110815873D01*
X178182317Y-110633579D01*
X178244053Y-110572856D01*
X178449121Y-110366776D01*
X178637761Y-110192901D01*
X178680931Y-110156891D01*
X178795487Y-110079010D01*
X178863870Y-110103345D01*
X178925131Y-110256183D01*
X178950065Y-110338046D01*
X179109977Y-110652819D01*
X179372618Y-110845818D01*
X179752829Y-110926508D01*
X179878837Y-110930266D01*
X180083857Y-110923272D01*
X180244376Y-110886970D01*
X180402091Y-110798385D01*
X180598701Y-110634539D01*
X180855483Y-110392094D01*
X181415267Y-109853922D01*
X181415267Y-108538433D01*
X168460863Y-108538433D01*
X168407869Y-108631473D01*
X168277663Y-108794162D01*
X168112591Y-108979567D01*
X167955001Y-109140758D01*
X167847242Y-109230803D01*
X167830584Y-109236933D01*
X167805422Y-109160196D01*
X167788485Y-108961627D01*
X167783934Y-108754333D01*
X167791510Y-108484578D01*
X167818318Y-108360701D01*
X167870478Y-108359753D01*
X167885534Y-108373333D01*
X168041548Y-108449293D01*
X168224200Y-108474933D01*
X168395022Y-108494548D01*
X168460863Y-108538433D01*
X181415267Y-108538433D01*
X181415267Y-108271223D01*
X181409955Y-107593548D01*
X181388419Y-107066378D01*
X181342259Y-106671068D01*
X181263075Y-106388971D01*
X181142468Y-106201440D01*
X180972039Y-106089829D01*
X180743387Y-106035490D01*
X180448113Y-106019778D01*
X180400985Y-106019600D01*
X180172134Y-106026107D01*
X180005900Y-106063157D01*
X179856602Y-106157042D01*
X179678562Y-106334052D01*
X179495614Y-106540706D01*
X179365147Y-106675991D01*
X179186029Y-106846737D01*
X179178114Y-106853986D01*
X178959934Y-107053373D01*
X178959934Y-106783973D01*
X178886401Y-106493269D01*
X178712447Y-106267087D01*
X178536378Y-106117087D01*
X178353228Y-106043169D01*
X178091405Y-106020283D01*
X178005143Y-106019600D01*
X177704331Y-106035523D01*
X177505820Y-106096807D01*
X177344450Y-106223720D01*
X177342464Y-106225734D01*
X177155888Y-106415387D01*
X176927340Y-106647792D01*
X176843267Y-106733304D01*
X176611255Y-106949951D01*
X176472137Y-107031705D01*
X176420507Y-106981552D01*
X176419934Y-106967006D01*
X176355476Y-106840777D01*
X176189893Y-106660562D01*
X175964875Y-106463359D01*
X175722109Y-106286168D01*
X175530934Y-106178005D01*
X175156986Y-106066977D01*
X174695077Y-106021830D01*
X174657629Y-106021459D01*
X174161203Y-106059060D01*
X173733661Y-106188755D01*
X173335679Y-106430210D01*
X172927932Y-106803089D01*
X172784910Y-106957907D01*
X172256783Y-107547781D01*
X172043605Y-107119989D01*
X171802820Y-106724939D01*
X171511416Y-106429432D01*
X171145342Y-106222457D01*
X170680549Y-106093004D01*
X170092984Y-106030062D01*
X169639988Y-106019600D01*
X168611937Y-106019600D01*
X168226207Y-106410864D01*
X167840477Y-106802129D01*
X167692535Y-106513761D01*
X167496831Y-106247769D01*
X167205315Y-106063438D01*
X167007083Y-105990024D01*
X166752856Y-105981952D01*
X166462317Y-106071683D01*
G36*
X145058689Y-111117919D02*
X144972193Y-111322874D01*
X144966267Y-111405160D01*
X144995480Y-111588024D01*
X145113652Y-111663684D01*
X145185181Y-111675380D01*
X145390333Y-111649367D01*
X145509672Y-111573614D01*
X145587820Y-111367162D01*
X145583144Y-111353600D01*
X145347267Y-111353600D01*
X145278352Y-111427904D01*
X145215270Y-111438266D01*
X145127636Y-111397220D01*
X145135600Y-111353600D01*
X145243843Y-111272162D01*
X145267597Y-111268933D01*
X145344987Y-111333512D01*
X145347267Y-111353600D01*
X145583144Y-111353600D01*
X145517370Y-111162836D01*
X145410767Y-111066774D01*
X145217926Y-111022621D01*
X145058689Y-111117919D01*
X145058689Y-111117919D01*
G37*
X145058689Y-111117919D02*
X144972193Y-111322874D01*
X144966267Y-111405160D01*
X144995480Y-111588024D01*
X145113652Y-111663684D01*
X145185181Y-111675380D01*
X145390333Y-111649367D01*
X145509672Y-111573614D01*
X145587820Y-111367162D01*
X145583144Y-111353600D01*
X145347267Y-111353600D01*
X145278352Y-111427904D01*
X145215270Y-111438266D01*
X145127636Y-111397220D01*
X145135600Y-111353600D01*
X145243843Y-111272162D01*
X145267597Y-111268933D01*
X145344987Y-111333512D01*
X145347267Y-111353600D01*
X145583144Y-111353600D01*
X145517370Y-111162836D01*
X145410767Y-111066774D01*
X145217926Y-111022621D01*
X145058689Y-111117919D01*
G36*
X160832345Y-111932438D02*
X160729822Y-112105165D01*
X160631096Y-112320096D01*
X160563407Y-112517551D01*
X160553995Y-112637844D01*
X160555700Y-112641019D01*
X160679558Y-112721753D01*
X160834238Y-112668397D01*
X160980913Y-112501209D01*
X161035362Y-112390766D01*
X161102448Y-112119475D01*
X161062411Y-111934300D01*
X160921470Y-111861792D01*
X160911427Y-111861600D01*
X160832345Y-111932438D01*
X160832345Y-111932438D01*
G37*
X160832345Y-111932438D02*
X160729822Y-112105165D01*
X160631096Y-112320096D01*
X160563407Y-112517551D01*
X160553995Y-112637844D01*
X160555700Y-112641019D01*
X160679558Y-112721753D01*
X160834238Y-112668397D01*
X160980913Y-112501209D01*
X161035362Y-112390766D01*
X161102448Y-112119475D01*
X161062411Y-111934300D01*
X160921470Y-111861792D01*
X160911427Y-111861600D01*
X160832345Y-111932438D01*
G36*
X142162422Y-112455010D02*
X141836664Y-112460020D01*
X141629303Y-112473464D01*
X141514870Y-112499509D01*
X141467896Y-112542323D01*
X141462914Y-112606074D01*
X141467879Y-112644766D01*
X141485313Y-112720793D01*
X141530305Y-112774035D01*
X141629825Y-112809338D01*
X141810843Y-112831548D01*
X142100327Y-112845513D01*
X142525248Y-112856077D01*
X142659100Y-112858822D01*
X143823267Y-112882378D01*
X143823267Y-112454266D01*
X142632045Y-112454266D01*
X142162422Y-112455010D01*
X142162422Y-112455010D01*
G37*
X142162422Y-112455010D02*
X141836664Y-112460020D01*
X141629303Y-112473464D01*
X141514870Y-112499509D01*
X141467896Y-112542323D01*
X141462914Y-112606074D01*
X141467879Y-112644766D01*
X141485313Y-112720793D01*
X141530305Y-112774035D01*
X141629825Y-112809338D01*
X141810843Y-112831548D01*
X142100327Y-112845513D01*
X142525248Y-112856077D01*
X142659100Y-112858822D01*
X143823267Y-112882378D01*
X143823267Y-112454266D01*
X142632045Y-112454266D01*
X142162422Y-112455010D01*
G36*
X149827810Y-112472875D02*
X149369884Y-112483902D01*
X149054752Y-112497512D01*
X148855886Y-112518214D01*
X148746758Y-112550514D01*
X148700840Y-112598921D01*
X148691600Y-112665933D01*
X148701215Y-112733634D01*
X148747522Y-112781290D01*
X148856719Y-112813235D01*
X149055004Y-112833803D01*
X149368572Y-112847328D01*
X149823623Y-112858145D01*
X149857503Y-112858833D01*
X150330916Y-112865985D01*
X150661596Y-112863445D01*
X150875986Y-112848791D01*
X151000531Y-112819603D01*
X151061673Y-112773457D01*
X151075245Y-112747309D01*
X151095960Y-112633697D01*
X151043720Y-112553280D01*
X150898532Y-112501660D01*
X150640405Y-112474439D01*
X150249346Y-112467217D01*
X149827810Y-112472875D01*
X149827810Y-112472875D01*
G37*
X149827810Y-112472875D02*
X149369884Y-112483902D01*
X149054752Y-112497512D01*
X148855886Y-112518214D01*
X148746758Y-112550514D01*
X148700840Y-112598921D01*
X148691600Y-112665933D01*
X148701215Y-112733634D01*
X148747522Y-112781290D01*
X148856719Y-112813235D01*
X149055004Y-112833803D01*
X149368572Y-112847328D01*
X149823623Y-112858145D01*
X149857503Y-112858833D01*
X150330916Y-112865985D01*
X150661596Y-112863445D01*
X150875986Y-112848791D01*
X151000531Y-112819603D01*
X151061673Y-112773457D01*
X151075245Y-112747309D01*
X151095960Y-112633697D01*
X151043720Y-112553280D01*
X150898532Y-112501660D01*
X150640405Y-112474439D01*
X150249346Y-112467217D01*
X149827810Y-112472875D01*
G36*
X161505500Y-112046211D02*
X161363750Y-112132709D01*
X161241054Y-112310989D01*
X161160672Y-112523083D01*
X161145864Y-112711025D01*
X161200140Y-112807213D01*
X161341895Y-112867836D01*
X161445494Y-112814085D01*
X161548761Y-112622833D01*
X161565254Y-112583986D01*
X161669627Y-112283087D01*
X161674477Y-112107072D01*
X161578340Y-112042776D01*
X161505500Y-112046211D01*
X161505500Y-112046211D01*
G37*
X161505500Y-112046211D02*
X161363750Y-112132709D01*
X161241054Y-112310989D01*
X161160672Y-112523083D01*
X161145864Y-112711025D01*
X161200140Y-112807213D01*
X161341895Y-112867836D01*
X161445494Y-112814085D01*
X161548761Y-112622833D01*
X161565254Y-112583986D01*
X161669627Y-112283087D01*
X161674477Y-112107072D01*
X161578340Y-112042776D01*
X161505500Y-112046211D01*
G36*
X145521474Y-111936141D02*
X145399342Y-112132404D01*
X145270924Y-112409347D01*
X145150841Y-112725930D01*
X145053716Y-113041111D01*
X144994172Y-113313848D01*
X144986831Y-113503100D01*
X145016908Y-113561859D01*
X145188812Y-113634476D01*
X145291697Y-113576206D01*
X145294904Y-113571161D01*
X145371069Y-113411193D01*
X145470540Y-113154042D01*
X145578861Y-112844083D01*
X145681576Y-112525695D01*
X145764227Y-112243253D01*
X145812358Y-112041134D01*
X145816975Y-111968601D01*
X145708177Y-111877228D01*
X145622695Y-111861600D01*
X145521474Y-111936141D01*
X145521474Y-111936141D01*
G37*
X145521474Y-111936141D02*
X145399342Y-112132404D01*
X145270924Y-112409347D01*
X145150841Y-112725930D01*
X145053716Y-113041111D01*
X144994172Y-113313848D01*
X144986831Y-113503100D01*
X145016908Y-113561859D01*
X145188812Y-113634476D01*
X145291697Y-113576206D01*
X145294904Y-113571161D01*
X145371069Y-113411193D01*
X145470540Y-113154042D01*
X145578861Y-112844083D01*
X145681576Y-112525695D01*
X145764227Y-112243253D01*
X145812358Y-112041134D01*
X145816975Y-111968601D01*
X145708177Y-111877228D01*
X145622695Y-111861600D01*
X145521474Y-111936141D01*
G36*
X146637811Y-111592637D02*
X146580287Y-111702387D01*
X146551197Y-111935967D01*
X146549185Y-111966032D01*
X146598212Y-112460145D01*
X146797876Y-112960159D01*
X147077069Y-113364433D01*
X147297087Y-113576950D01*
X147462845Y-113629383D01*
X147574874Y-113521873D01*
X147584508Y-113498814D01*
X147565654Y-113327401D01*
X147434578Y-113138980D01*
X147218532Y-112869181D01*
X147082152Y-112585742D01*
X146997797Y-112223464D01*
X146973679Y-112051939D01*
X146929762Y-111772404D01*
X146875492Y-111624196D01*
X146793005Y-111569477D01*
X146743910Y-111565266D01*
X146637811Y-111592637D01*
X146637811Y-111592637D01*
G37*
X146637811Y-111592637D02*
X146580287Y-111702387D01*
X146551197Y-111935967D01*
X146549185Y-111966032D01*
X146598212Y-112460145D01*
X146797876Y-112960159D01*
X147077069Y-113364433D01*
X147297087Y-113576950D01*
X147462845Y-113629383D01*
X147574874Y-113521873D01*
X147584508Y-113498814D01*
X147565654Y-113327401D01*
X147434578Y-113138980D01*
X147218532Y-112869181D01*
X147082152Y-112585742D01*
X146997797Y-112223464D01*
X146973679Y-112051939D01*
X146929762Y-111772404D01*
X146875492Y-111624196D01*
X146793005Y-111569477D01*
X146743910Y-111565266D01*
X146637811Y-111592637D01*
G36*
X163629893Y-111901969D02*
X163531544Y-112039131D01*
X163414053Y-112297162D01*
X163301112Y-112595352D01*
X163186325Y-112933755D01*
X163102600Y-113221820D01*
X163062006Y-113415928D01*
X163061244Y-113462213D01*
X163142899Y-113599839D01*
X163275165Y-113608810D01*
X163406969Y-113495879D01*
X163451115Y-113410684D01*
X163653933Y-112882203D01*
X163805000Y-112455135D01*
X163899272Y-112145129D01*
X163931704Y-111967833D01*
X163926137Y-111937426D01*
X163811345Y-111872790D01*
X163722944Y-111861600D01*
X163629893Y-111901969D01*
X163629893Y-111901969D01*
G37*
X163629893Y-111901969D02*
X163531544Y-112039131D01*
X163414053Y-112297162D01*
X163301112Y-112595352D01*
X163186325Y-112933755D01*
X163102600Y-113221820D01*
X163062006Y-113415928D01*
X163061244Y-113462213D01*
X163142899Y-113599839D01*
X163275165Y-113608810D01*
X163406969Y-113495879D01*
X163451115Y-113410684D01*
X163653933Y-112882203D01*
X163805000Y-112455135D01*
X163899272Y-112145129D01*
X163931704Y-111967833D01*
X163926137Y-111937426D01*
X163811345Y-111872790D01*
X163722944Y-111861600D01*
X163629893Y-111901969D01*
G36*
X164754016Y-111594489D02*
X164695399Y-111710089D01*
X164665977Y-111946266D01*
X164692408Y-112458692D01*
X164861364Y-112915338D01*
X165121735Y-113283595D01*
X165325322Y-113508969D01*
X165459061Y-113616528D01*
X165553377Y-113624905D01*
X165610823Y-113583155D01*
X165667212Y-113432770D01*
X165628418Y-113265645D01*
X165544694Y-113187347D01*
X165388319Y-113048487D01*
X165247160Y-112780009D01*
X165137721Y-112421626D01*
X165081698Y-112073266D01*
X165046099Y-111787325D01*
X164999362Y-111632913D01*
X164925242Y-111572305D01*
X164862934Y-111565266D01*
X164754016Y-111594489D01*
X164754016Y-111594489D01*
G37*
X164754016Y-111594489D02*
X164695399Y-111710089D01*
X164665977Y-111946266D01*
X164692408Y-112458692D01*
X164861364Y-112915338D01*
X165121735Y-113283595D01*
X165325322Y-113508969D01*
X165459061Y-113616528D01*
X165553377Y-113624905D01*
X165610823Y-113583155D01*
X165667212Y-113432770D01*
X165628418Y-113265645D01*
X165544694Y-113187347D01*
X165388319Y-113048487D01*
X165247160Y-112780009D01*
X165137721Y-112421626D01*
X165081698Y-112073266D01*
X165046099Y-111787325D01*
X164999362Y-111632913D01*
X164925242Y-111572305D01*
X164862934Y-111565266D01*
X164754016Y-111594489D01*
G36*
X159926387Y-112021056D02*
X159916040Y-112027159D01*
X159852775Y-112100387D01*
X159847023Y-112236889D01*
X159897628Y-112483214D01*
X159904100Y-112509149D01*
X160077410Y-112999778D01*
X160314900Y-113373056D01*
X160591237Y-113599319D01*
X160779741Y-113692729D01*
X160875792Y-113717673D01*
X160936575Y-113684944D01*
X160954156Y-113667822D01*
X161010342Y-113532449D01*
X160988344Y-113382564D01*
X160902873Y-113301971D01*
X160889746Y-113300933D01*
X160732494Y-113225822D01*
X160563875Y-113028711D01*
X160413363Y-112751935D01*
X160321425Y-112484645D01*
X160210261Y-112164351D01*
X160079154Y-112010467D01*
X159926387Y-112021056D01*
X159926387Y-112021056D01*
G37*
X159926387Y-112021056D02*
X159916040Y-112027159D01*
X159852775Y-112100387D01*
X159847023Y-112236889D01*
X159897628Y-112483214D01*
X159904100Y-112509149D01*
X160077410Y-112999778D01*
X160314900Y-113373056D01*
X160591237Y-113599319D01*
X160779741Y-113692729D01*
X160875792Y-113717673D01*
X160936575Y-113684944D01*
X160954156Y-113667822D01*
X161010342Y-113532449D01*
X160988344Y-113382564D01*
X160902873Y-113301971D01*
X160889746Y-113300933D01*
X160732494Y-113225822D01*
X160563875Y-113028711D01*
X160413363Y-112751935D01*
X160321425Y-112484645D01*
X160210261Y-112164351D01*
X160079154Y-112010467D01*
X159926387Y-112021056D01*
G36*
X153745917Y-111209298D02*
X153675218Y-111311266D01*
X153600689Y-111383360D01*
X153425647Y-111423507D01*
X153119143Y-111437923D01*
X153042875Y-111438266D01*
X152459267Y-111438266D01*
X152461127Y-111713433D01*
X152527949Y-112076795D01*
X152723005Y-112544421D01*
X153044462Y-113112147D01*
X153151200Y-113279766D01*
X153369670Y-113590921D01*
X153534860Y-113761502D01*
X153663957Y-113804910D01*
X153757489Y-113752488D01*
X153806174Y-113659734D01*
X153784561Y-113523097D01*
X153681782Y-113314387D01*
X153486964Y-113005412D01*
X153445373Y-112943069D01*
X153252909Y-112639584D01*
X153090025Y-112353290D01*
X152989339Y-112141858D01*
X152984111Y-112127524D01*
X152891409Y-111861600D01*
X153347075Y-111861600D01*
X153616711Y-111869484D01*
X153783080Y-111915861D01*
X153912191Y-112034814D01*
X154043949Y-112221433D01*
X154243443Y-112459329D01*
X154438069Y-112591146D01*
X154598354Y-112603819D01*
X154687353Y-112506672D01*
X154667300Y-112368776D01*
X154559458Y-112166833D01*
X154491121Y-112073082D01*
X154314453Y-111812121D01*
X154175680Y-111541237D01*
X154150693Y-111474819D01*
X154036259Y-111273685D01*
X153886877Y-111180205D01*
X153745917Y-111209298D01*
X153745917Y-111209298D01*
G37*
X153745917Y-111209298D02*
X153675218Y-111311266D01*
X153600689Y-111383360D01*
X153425647Y-111423507D01*
X153119143Y-111437923D01*
X153042875Y-111438266D01*
X152459267Y-111438266D01*
X152461127Y-111713433D01*
X152527949Y-112076795D01*
X152723005Y-112544421D01*
X153044462Y-113112147D01*
X153151200Y-113279766D01*
X153369670Y-113590921D01*
X153534860Y-113761502D01*
X153663957Y-113804910D01*
X153757489Y-113752488D01*
X153806174Y-113659734D01*
X153784561Y-113523097D01*
X153681782Y-113314387D01*
X153486964Y-113005412D01*
X153445373Y-112943069D01*
X153252909Y-112639584D01*
X153090025Y-112353290D01*
X152989339Y-112141858D01*
X152984111Y-112127524D01*
X152891409Y-111861600D01*
X153347075Y-111861600D01*
X153616711Y-111869484D01*
X153783080Y-111915861D01*
X153912191Y-112034814D01*
X154043949Y-112221433D01*
X154243443Y-112459329D01*
X154438069Y-112591146D01*
X154598354Y-112603819D01*
X154687353Y-112506672D01*
X154667300Y-112368776D01*
X154559458Y-112166833D01*
X154491121Y-112073082D01*
X154314453Y-111812121D01*
X154175680Y-111541237D01*
X154150693Y-111474819D01*
X154036259Y-111273685D01*
X153886877Y-111180205D01*
X153745917Y-111209298D01*
G36*
X157344108Y-111257547D02*
X157309698Y-111306937D01*
X157189233Y-111385744D01*
X156924194Y-111435757D01*
X156649324Y-111455103D01*
X156057600Y-111480600D01*
X156069200Y-111747632D01*
X156117805Y-111981937D01*
X156234476Y-112291023D01*
X156399672Y-112640767D01*
X156593852Y-112997049D01*
X156797474Y-113325746D01*
X156991000Y-113592737D01*
X157154887Y-113763900D01*
X157249659Y-113808933D01*
X157387851Y-113740610D01*
X157423047Y-113684371D01*
X157401847Y-113558856D01*
X157302712Y-113336863D01*
X157145188Y-113060370D01*
X157097818Y-112985871D01*
X156863565Y-112609295D01*
X156678736Y-112280346D01*
X156559957Y-112030449D01*
X156523267Y-111899949D01*
X156599720Y-111878617D01*
X156796287Y-111864694D01*
X156972635Y-111861600D01*
X157236782Y-111869577D01*
X157403681Y-111916765D01*
X157539064Y-112038045D01*
X157690557Y-112242600D01*
X157896605Y-112498832D01*
X158061048Y-112609477D01*
X158206822Y-112585499D01*
X158281324Y-112525009D01*
X158314241Y-112429944D01*
X158253781Y-112274936D01*
X158092788Y-112035275D01*
X157921036Y-111774858D01*
X157791033Y-111529949D01*
X157747953Y-111414199D01*
X157645800Y-111239057D01*
X157492335Y-111182227D01*
X157344108Y-111257547D01*
X157344108Y-111257547D01*
G37*
X157344108Y-111257547D02*
X157309698Y-111306937D01*
X157189233Y-111385744D01*
X156924194Y-111435757D01*
X156649324Y-111455103D01*
X156057600Y-111480600D01*
X156069200Y-111747632D01*
X156117805Y-111981937D01*
X156234476Y-112291023D01*
X156399672Y-112640767D01*
X156593852Y-112997049D01*
X156797474Y-113325746D01*
X156991000Y-113592737D01*
X157154887Y-113763900D01*
X157249659Y-113808933D01*
X157387851Y-113740610D01*
X157423047Y-113684371D01*
X157401847Y-113558856D01*
X157302712Y-113336863D01*
X157145188Y-113060370D01*
X157097818Y-112985871D01*
X156863565Y-112609295D01*
X156678736Y-112280346D01*
X156559957Y-112030449D01*
X156523267Y-111899949D01*
X156599720Y-111878617D01*
X156796287Y-111864694D01*
X156972635Y-111861600D01*
X157236782Y-111869577D01*
X157403681Y-111916765D01*
X157539064Y-112038045D01*
X157690557Y-112242600D01*
X157896605Y-112498832D01*
X158061048Y-112609477D01*
X158206822Y-112585499D01*
X158281324Y-112525009D01*
X158314241Y-112429944D01*
X158253781Y-112274936D01*
X158092788Y-112035275D01*
X157921036Y-111774858D01*
X157791033Y-111529949D01*
X157747953Y-111414199D01*
X157645800Y-111239057D01*
X157492335Y-111182227D01*
X157344108Y-111257547D01*
G36*
X41523878Y-88763564D02*
X41583272Y-89300436D01*
X41903785Y-91091260D01*
X42379042Y-92824109D01*
X43005407Y-94490611D01*
X43779244Y-96082392D01*
X44696916Y-97591078D01*
X45754789Y-99008296D01*
X45846867Y-99119266D01*
X47054792Y-100434202D01*
X48367395Y-101621686D01*
X49774071Y-102678295D01*
X51264216Y-103600609D01*
X52827223Y-104385205D01*
X54452490Y-105028661D01*
X56129409Y-105527555D01*
X57847376Y-105878467D01*
X59595787Y-106077972D01*
X61364036Y-106122651D01*
X63141517Y-106009080D01*
X64917627Y-105733838D01*
X65760600Y-105544765D01*
X67474714Y-105036724D01*
X69113074Y-104383083D01*
X70668867Y-103591997D01*
X72135282Y-102671620D01*
X73505507Y-101630107D01*
X74772731Y-100475613D01*
X75930142Y-99216290D01*
X76970929Y-97860295D01*
X77888280Y-96415781D01*
X78675383Y-94890903D01*
X79325427Y-93293815D01*
X79831601Y-91632672D01*
X80187093Y-89915628D01*
X80385091Y-88150838D01*
X80392746Y-88027933D01*
X80450266Y-87054266D01*
X81974266Y-87001333D01*
X82462810Y-86983846D01*
X82888795Y-86967610D01*
X83225029Y-86953741D01*
X83444320Y-86943358D01*
X83519433Y-86937833D01*
X83540148Y-86860210D01*
X83540600Y-86842600D01*
X83460462Y-86802472D01*
X83237739Y-86773710D01*
X82898963Y-86759151D01*
X82749273Y-86757933D01*
X82269488Y-86751032D01*
X81731880Y-86732811D01*
X81242472Y-86706994D01*
X81182940Y-86702921D01*
X80407933Y-86647910D01*
X80407933Y-86170537D01*
X80392590Y-85798074D01*
X80350465Y-85306937D01*
X80287415Y-84744613D01*
X80209299Y-84158584D01*
X80121972Y-83596337D01*
X80031294Y-83105357D01*
X80027690Y-83087919D01*
X79583178Y-81354398D01*
X78984632Y-79677458D01*
X78238992Y-78067971D01*
X77353197Y-76536808D01*
X76334186Y-75094842D01*
X75188900Y-73752945D01*
X73924278Y-72521988D01*
X72600505Y-71451862D01*
X71968219Y-70999121D01*
X71389160Y-70614929D01*
X70810008Y-70267233D01*
X70177441Y-69923983D01*
X69457689Y-69562667D01*
X67828007Y-68860147D01*
X66142528Y-68314055D01*
X64412789Y-67925449D01*
X62650327Y-67695386D01*
X61784131Y-67661168D01*
X61784131Y-68898237D01*
X63525668Y-69042616D01*
X64744600Y-69242710D01*
X65812432Y-69500662D01*
X66949301Y-69859351D01*
X68105245Y-70299044D01*
X69230301Y-70800006D01*
X70274508Y-71342504D01*
X70713600Y-71600360D01*
X72039696Y-72506217D01*
X73302740Y-73554304D01*
X74482779Y-74723094D01*
X75559856Y-75991060D01*
X76514016Y-77336675D01*
X77318996Y-78726182D01*
X77863223Y-79888988D01*
X78340680Y-81128745D01*
X78740969Y-82407420D01*
X79053690Y-83686979D01*
X79268445Y-84929389D01*
X79374837Y-86096615D01*
X79380949Y-86267995D01*
X79391933Y-86667056D01*
X78439433Y-86625622D01*
X77472774Y-86587914D01*
X76369584Y-86552422D01*
X75162660Y-86519782D01*
X73884797Y-86490628D01*
X72568791Y-86465597D01*
X71247437Y-86445322D01*
X69953532Y-86430440D01*
X68719870Y-86421585D01*
X67783408Y-86419266D01*
X64155159Y-86419266D01*
X64097481Y-86189460D01*
X64082669Y-86024064D01*
X64081520Y-85727344D01*
X64093254Y-85336695D01*
X64117088Y-84889509D01*
X64127973Y-84728960D01*
X64158398Y-84293510D01*
X64182759Y-83923867D01*
X64199191Y-83650078D01*
X64205828Y-83502186D01*
X64205204Y-83484780D01*
X64155474Y-83544675D01*
X64027122Y-83718127D01*
X63838499Y-83979876D01*
X63607957Y-84304664D01*
X63559266Y-84373780D01*
X63279668Y-84751143D01*
X63008933Y-85088296D01*
X63008933Y-86343864D01*
X63059131Y-86741398D01*
X63094549Y-87085343D01*
X63119420Y-87439665D01*
X63122631Y-87513525D01*
X63135933Y-87888117D01*
X62945433Y-87721289D01*
X62770588Y-87568513D01*
X62535328Y-87363359D01*
X62399447Y-87245013D01*
X62043962Y-86935563D01*
X62526447Y-86639713D01*
X63008933Y-86343864D01*
X63008933Y-85088296D01*
X62965982Y-85141784D01*
X62639498Y-85522725D01*
X62321509Y-85870986D01*
X62033306Y-86163590D01*
X61796181Y-86377557D01*
X61631426Y-86489908D01*
X61587992Y-86501251D01*
X61495930Y-86433818D01*
X61343081Y-86257141D01*
X61158370Y-86005595D01*
X61107087Y-85929751D01*
X60810563Y-85534845D01*
X60409320Y-85073857D01*
X59936318Y-84579286D01*
X59424519Y-84083634D01*
X58906882Y-83619399D01*
X58416367Y-83219080D01*
X58184666Y-83048165D01*
X57417500Y-82553307D01*
X56627000Y-82127332D01*
X55857598Y-81792148D01*
X55219600Y-81586139D01*
X54632415Y-81471419D01*
X53936431Y-81393655D01*
X53322223Y-81361630D01*
X53322223Y-83118378D01*
X54056917Y-83133655D01*
X54679167Y-83187738D01*
X55243426Y-83290824D01*
X55804149Y-83453108D01*
X56415791Y-83684785D01*
X56472231Y-83708153D01*
X57052611Y-83981084D01*
X57717386Y-84345713D01*
X58428287Y-84777003D01*
X59147045Y-85249917D01*
X59835390Y-85739418D01*
X60455053Y-86220468D01*
X60900862Y-86605563D01*
X61275250Y-86950661D01*
X60914425Y-87342610D01*
X60693423Y-87567025D01*
X60389100Y-87855452D01*
X60048569Y-88163919D01*
X59833933Y-88351077D01*
X58838003Y-89139299D01*
X57826877Y-89814723D01*
X56822721Y-90364525D01*
X55847699Y-90775884D01*
X55388933Y-90922559D01*
X54874945Y-91027861D01*
X54245561Y-91094293D01*
X53550185Y-91121914D01*
X52838219Y-91110781D01*
X52159066Y-91060952D01*
X51562129Y-90972485D01*
X51324933Y-90917817D01*
X50426466Y-90613930D01*
X49655906Y-90217743D01*
X49018627Y-89734806D01*
X48520003Y-89170670D01*
X48165409Y-88530886D01*
X47960219Y-87821005D01*
X47912493Y-87393352D01*
X47933695Y-86539573D01*
X48093560Y-85782150D01*
X48394250Y-85117232D01*
X48837927Y-84540967D01*
X49426752Y-84049505D01*
X49967657Y-83732864D01*
X50578872Y-83475859D01*
X51260634Y-83291742D01*
X52039288Y-83175688D01*
X52941177Y-83122872D01*
X53322223Y-83118378D01*
X53322223Y-81361630D01*
X53188493Y-81354657D01*
X52445447Y-81356234D01*
X51764140Y-81400196D01*
X51327017Y-81462232D01*
X50327578Y-81719720D01*
X49419910Y-82092270D01*
X48615240Y-82570677D01*
X47924797Y-83145733D01*
X47359809Y-83808234D01*
X46931505Y-84548972D01*
X46670907Y-85279784D01*
X46599546Y-85681760D01*
X46556544Y-86193912D01*
X46541968Y-86760550D01*
X46555885Y-87325983D01*
X46598363Y-87834521D01*
X46667342Y-88222396D01*
X46961414Y-89022796D01*
X47402511Y-89757313D01*
X47976557Y-90412207D01*
X48669471Y-90973736D01*
X49467175Y-91428159D01*
X50266600Y-91735286D01*
X51061034Y-91920906D01*
X51956218Y-92032885D01*
X52899609Y-92069523D01*
X53838664Y-92029115D01*
X54720841Y-91909959D01*
X54851428Y-91883845D01*
X55781154Y-91620504D01*
X56717536Y-91217305D01*
X57668425Y-90669290D01*
X58641675Y-89971504D01*
X59645138Y-89118992D01*
X60441563Y-88355776D01*
X61599527Y-87194592D01*
X63265431Y-88844339D01*
X63700174Y-89272689D01*
X64094866Y-89657409D01*
X64433912Y-89983633D01*
X64701715Y-90236495D01*
X64882679Y-90401126D01*
X64961207Y-90462661D01*
X64962958Y-90462463D01*
X64953066Y-90372798D01*
X64894010Y-90175669D01*
X64832045Y-90003080D01*
X64683856Y-89562118D01*
X64533808Y-89030361D01*
X64400156Y-88479871D01*
X64301157Y-87982709D01*
X64272712Y-87795100D01*
X64214784Y-87350600D01*
X67464192Y-87350459D01*
X68339492Y-87347948D01*
X69291124Y-87340898D01*
X70274585Y-87329925D01*
X71245373Y-87315645D01*
X72158984Y-87298675D01*
X72970917Y-87279631D01*
X73338266Y-87269110D01*
X74097719Y-87245585D01*
X74899953Y-87220687D01*
X75702414Y-87195740D01*
X76462548Y-87172067D01*
X77137799Y-87150994D01*
X77677433Y-87134100D01*
X79391933Y-87080298D01*
X79391933Y-87803779D01*
X79332322Y-88986788D01*
X79159521Y-90250614D01*
X78882576Y-91558890D01*
X78510533Y-92875250D01*
X78052439Y-94163326D01*
X77517341Y-95386753D01*
X77493275Y-95436266D01*
X76793000Y-96746176D01*
X76016598Y-97949960D01*
X75134247Y-99089461D01*
X74116123Y-100206522D01*
X74033633Y-100290387D01*
X72725060Y-101497296D01*
X71330574Y-102559106D01*
X69855382Y-103473315D01*
X68304691Y-104237420D01*
X66683710Y-104848918D01*
X64997644Y-105305306D01*
X63251702Y-105604082D01*
X62892586Y-105645039D01*
X62305477Y-105687581D01*
X61615724Y-105707156D01*
X60869162Y-105705073D01*
X60111627Y-105682639D01*
X59388955Y-105641163D01*
X58746983Y-105581953D01*
X58267600Y-105513043D01*
X56500865Y-105112505D01*
X54827839Y-104571474D01*
X53245222Y-103888250D01*
X51749716Y-103061133D01*
X50338021Y-102088421D01*
X49006838Y-100968414D01*
X48491286Y-100473933D01*
X47362292Y-99236372D01*
X46348223Y-97890863D01*
X45455502Y-96453749D01*
X44690554Y-94941376D01*
X44059802Y-93370088D01*
X43569669Y-91756231D01*
X43226581Y-90116148D01*
X43036959Y-88466186D01*
X43007228Y-86822689D01*
X43018375Y-86548404D01*
X43184281Y-84748506D01*
X43502614Y-83017954D01*
X43975935Y-81349712D01*
X44606808Y-79736746D01*
X45397795Y-78172020D01*
X46351459Y-76648499D01*
X46903618Y-75882012D01*
X47280698Y-75419272D01*
X47759797Y-74889254D01*
X48306763Y-74325334D01*
X48887442Y-73760888D01*
X49467683Y-73229291D01*
X50013334Y-72763918D01*
X50407986Y-72457344D01*
X51894213Y-71470866D01*
X53439051Y-70640974D01*
X55035121Y-69969324D01*
X56675044Y-69457571D01*
X58351439Y-69107369D01*
X60056928Y-68920372D01*
X61784131Y-68898237D01*
X61784131Y-67661168D01*
X60866679Y-67624924D01*
X59073382Y-67715121D01*
X57281973Y-67967035D01*
X55773315Y-68308052D01*
X54103176Y-68838094D01*
X52498387Y-69517066D01*
X50967650Y-70335892D01*
X49519667Y-71285496D01*
X48163141Y-72356801D01*
X46906771Y-73540732D01*
X45759261Y-74828213D01*
X44729312Y-76210168D01*
X43825625Y-77677520D01*
X43056903Y-79221194D01*
X42431847Y-80832115D01*
X41959158Y-82501204D01*
X41896331Y-82781944D01*
X41690476Y-83933467D01*
X41547913Y-85157149D01*
X41471033Y-86403233D01*
X41462224Y-87621957D01*
X41523878Y-88763564D01*
X41523878Y-88763564D01*
G37*
X41523878Y-88763564D02*
X41583272Y-89300436D01*
X41903785Y-91091260D01*
X42379042Y-92824109D01*
X43005407Y-94490611D01*
X43779244Y-96082392D01*
X44696916Y-97591078D01*
X45754789Y-99008296D01*
X45846867Y-99119266D01*
X47054792Y-100434202D01*
X48367395Y-101621686D01*
X49774071Y-102678295D01*
X51264216Y-103600609D01*
X52827223Y-104385205D01*
X54452490Y-105028661D01*
X56129409Y-105527555D01*
X57847376Y-105878467D01*
X59595787Y-106077972D01*
X61364036Y-106122651D01*
X63141517Y-106009080D01*
X64917627Y-105733838D01*
X65760600Y-105544765D01*
X67474714Y-105036724D01*
X69113074Y-104383083D01*
X70668867Y-103591997D01*
X72135282Y-102671620D01*
X73505507Y-101630107D01*
X74772731Y-100475613D01*
X75930142Y-99216290D01*
X76970929Y-97860295D01*
X77888280Y-96415781D01*
X78675383Y-94890903D01*
X79325427Y-93293815D01*
X79831601Y-91632672D01*
X80187093Y-89915628D01*
X80385091Y-88150838D01*
X80392746Y-88027933D01*
X80450266Y-87054266D01*
X81974266Y-87001333D01*
X82462810Y-86983846D01*
X82888795Y-86967610D01*
X83225029Y-86953741D01*
X83444320Y-86943358D01*
X83519433Y-86937833D01*
X83540148Y-86860210D01*
X83540600Y-86842600D01*
X83460462Y-86802472D01*
X83237739Y-86773710D01*
X82898963Y-86759151D01*
X82749273Y-86757933D01*
X82269488Y-86751032D01*
X81731880Y-86732811D01*
X81242472Y-86706994D01*
X81182940Y-86702921D01*
X80407933Y-86647910D01*
X80407933Y-86170537D01*
X80392590Y-85798074D01*
X80350465Y-85306937D01*
X80287415Y-84744613D01*
X80209299Y-84158584D01*
X80121972Y-83596337D01*
X80031294Y-83105357D01*
X80027690Y-83087919D01*
X79583178Y-81354398D01*
X78984632Y-79677458D01*
X78238992Y-78067971D01*
X77353197Y-76536808D01*
X76334186Y-75094842D01*
X75188900Y-73752945D01*
X73924278Y-72521988D01*
X72600505Y-71451862D01*
X71968219Y-70999121D01*
X71389160Y-70614929D01*
X70810008Y-70267233D01*
X70177441Y-69923983D01*
X69457689Y-69562667D01*
X67828007Y-68860147D01*
X66142528Y-68314055D01*
X64412789Y-67925449D01*
X62650327Y-67695386D01*
X61784131Y-67661168D01*
X61784131Y-68898237D01*
X63525668Y-69042616D01*
X64744600Y-69242710D01*
X65812432Y-69500662D01*
X66949301Y-69859351D01*
X68105245Y-70299044D01*
X69230301Y-70800006D01*
X70274508Y-71342504D01*
X70713600Y-71600360D01*
X72039696Y-72506217D01*
X73302740Y-73554304D01*
X74482779Y-74723094D01*
X75559856Y-75991060D01*
X76514016Y-77336675D01*
X77318996Y-78726182D01*
X77863223Y-79888988D01*
X78340680Y-81128745D01*
X78740969Y-82407420D01*
X79053690Y-83686979D01*
X79268445Y-84929389D01*
X79374837Y-86096615D01*
X79380949Y-86267995D01*
X79391933Y-86667056D01*
X78439433Y-86625622D01*
X77472774Y-86587914D01*
X76369584Y-86552422D01*
X75162660Y-86519782D01*
X73884797Y-86490628D01*
X72568791Y-86465597D01*
X71247437Y-86445322D01*
X69953532Y-86430440D01*
X68719870Y-86421585D01*
X67783408Y-86419266D01*
X64155159Y-86419266D01*
X64097481Y-86189460D01*
X64082669Y-86024064D01*
X64081520Y-85727344D01*
X64093254Y-85336695D01*
X64117088Y-84889509D01*
X64127973Y-84728960D01*
X64158398Y-84293510D01*
X64182759Y-83923867D01*
X64199191Y-83650078D01*
X64205828Y-83502186D01*
X64205204Y-83484780D01*
X64155474Y-83544675D01*
X64027122Y-83718127D01*
X63838499Y-83979876D01*
X63607957Y-84304664D01*
X63559266Y-84373780D01*
X63279668Y-84751143D01*
X63008933Y-85088296D01*
X63008933Y-86343864D01*
X63059131Y-86741398D01*
X63094549Y-87085343D01*
X63119420Y-87439665D01*
X63122631Y-87513525D01*
X63135933Y-87888117D01*
X62945433Y-87721289D01*
X62770588Y-87568513D01*
X62535328Y-87363359D01*
X62399447Y-87245013D01*
X62043962Y-86935563D01*
X62526447Y-86639713D01*
X63008933Y-86343864D01*
X63008933Y-85088296D01*
X62965982Y-85141784D01*
X62639498Y-85522725D01*
X62321509Y-85870986D01*
X62033306Y-86163590D01*
X61796181Y-86377557D01*
X61631426Y-86489908D01*
X61587992Y-86501251D01*
X61495930Y-86433818D01*
X61343081Y-86257141D01*
X61158370Y-86005595D01*
X61107087Y-85929751D01*
X60810563Y-85534845D01*
X60409320Y-85073857D01*
X59936318Y-84579286D01*
X59424519Y-84083634D01*
X58906882Y-83619399D01*
X58416367Y-83219080D01*
X58184666Y-83048165D01*
X57417500Y-82553307D01*
X56627000Y-82127332D01*
X55857598Y-81792148D01*
X55219600Y-81586139D01*
X54632415Y-81471419D01*
X53936431Y-81393655D01*
X53322223Y-81361630D01*
X53322223Y-83118378D01*
X54056917Y-83133655D01*
X54679167Y-83187738D01*
X55243426Y-83290824D01*
X55804149Y-83453108D01*
X56415791Y-83684785D01*
X56472231Y-83708153D01*
X57052611Y-83981084D01*
X57717386Y-84345713D01*
X58428287Y-84777003D01*
X59147045Y-85249917D01*
X59835390Y-85739418D01*
X60455053Y-86220468D01*
X60900862Y-86605563D01*
X61275250Y-86950661D01*
X60914425Y-87342610D01*
X60693423Y-87567025D01*
X60389100Y-87855452D01*
X60048569Y-88163919D01*
X59833933Y-88351077D01*
X58838003Y-89139299D01*
X57826877Y-89814723D01*
X56822721Y-90364525D01*
X55847699Y-90775884D01*
X55388933Y-90922559D01*
X54874945Y-91027861D01*
X54245561Y-91094293D01*
X53550185Y-91121914D01*
X52838219Y-91110781D01*
X52159066Y-91060952D01*
X51562129Y-90972485D01*
X51324933Y-90917817D01*
X50426466Y-90613930D01*
X49655906Y-90217743D01*
X49018627Y-89734806D01*
X48520003Y-89170670D01*
X48165409Y-88530886D01*
X47960219Y-87821005D01*
X47912493Y-87393352D01*
X47933695Y-86539573D01*
X48093560Y-85782150D01*
X48394250Y-85117232D01*
X48837927Y-84540967D01*
X49426752Y-84049505D01*
X49967657Y-83732864D01*
X50578872Y-83475859D01*
X51260634Y-83291742D01*
X52039288Y-83175688D01*
X52941177Y-83122872D01*
X53322223Y-83118378D01*
X53322223Y-81361630D01*
X53188493Y-81354657D01*
X52445447Y-81356234D01*
X51764140Y-81400196D01*
X51327017Y-81462232D01*
X50327578Y-81719720D01*
X49419910Y-82092270D01*
X48615240Y-82570677D01*
X47924797Y-83145733D01*
X47359809Y-83808234D01*
X46931505Y-84548972D01*
X46670907Y-85279784D01*
X46599546Y-85681760D01*
X46556544Y-86193912D01*
X46541968Y-86760550D01*
X46555885Y-87325983D01*
X46598363Y-87834521D01*
X46667342Y-88222396D01*
X46961414Y-89022796D01*
X47402511Y-89757313D01*
X47976557Y-90412207D01*
X48669471Y-90973736D01*
X49467175Y-91428159D01*
X50266600Y-91735286D01*
X51061034Y-91920906D01*
X51956218Y-92032885D01*
X52899609Y-92069523D01*
X53838664Y-92029115D01*
X54720841Y-91909959D01*
X54851428Y-91883845D01*
X55781154Y-91620504D01*
X56717536Y-91217305D01*
X57668425Y-90669290D01*
X58641675Y-89971504D01*
X59645138Y-89118992D01*
X60441563Y-88355776D01*
X61599527Y-87194592D01*
X63265431Y-88844339D01*
X63700174Y-89272689D01*
X64094866Y-89657409D01*
X64433912Y-89983633D01*
X64701715Y-90236495D01*
X64882679Y-90401126D01*
X64961207Y-90462661D01*
X64962958Y-90462463D01*
X64953066Y-90372798D01*
X64894010Y-90175669D01*
X64832045Y-90003080D01*
X64683856Y-89562118D01*
X64533808Y-89030361D01*
X64400156Y-88479871D01*
X64301157Y-87982709D01*
X64272712Y-87795100D01*
X64214784Y-87350600D01*
X67464192Y-87350459D01*
X68339492Y-87347948D01*
X69291124Y-87340898D01*
X70274585Y-87329925D01*
X71245373Y-87315645D01*
X72158984Y-87298675D01*
X72970917Y-87279631D01*
X73338266Y-87269110D01*
X74097719Y-87245585D01*
X74899953Y-87220687D01*
X75702414Y-87195740D01*
X76462548Y-87172067D01*
X77137799Y-87150994D01*
X77677433Y-87134100D01*
X79391933Y-87080298D01*
X79391933Y-87803779D01*
X79332322Y-88986788D01*
X79159521Y-90250614D01*
X78882576Y-91558890D01*
X78510533Y-92875250D01*
X78052439Y-94163326D01*
X77517341Y-95386753D01*
X77493275Y-95436266D01*
X76793000Y-96746176D01*
X76016598Y-97949960D01*
X75134247Y-99089461D01*
X74116123Y-100206522D01*
X74033633Y-100290387D01*
X72725060Y-101497296D01*
X71330574Y-102559106D01*
X69855382Y-103473315D01*
X68304691Y-104237420D01*
X66683710Y-104848918D01*
X64997644Y-105305306D01*
X63251702Y-105604082D01*
X62892586Y-105645039D01*
X62305477Y-105687581D01*
X61615724Y-105707156D01*
X60869162Y-105705073D01*
X60111627Y-105682639D01*
X59388955Y-105641163D01*
X58746983Y-105581953D01*
X58267600Y-105513043D01*
X56500865Y-105112505D01*
X54827839Y-104571474D01*
X53245222Y-103888250D01*
X51749716Y-103061133D01*
X50338021Y-102088421D01*
X49006838Y-100968414D01*
X48491286Y-100473933D01*
X47362292Y-99236372D01*
X46348223Y-97890863D01*
X45455502Y-96453749D01*
X44690554Y-94941376D01*
X44059802Y-93370088D01*
X43569669Y-91756231D01*
X43226581Y-90116148D01*
X43036959Y-88466186D01*
X43007228Y-86822689D01*
X43018375Y-86548404D01*
X43184281Y-84748506D01*
X43502614Y-83017954D01*
X43975935Y-81349712D01*
X44606808Y-79736746D01*
X45397795Y-78172020D01*
X46351459Y-76648499D01*
X46903618Y-75882012D01*
X47280698Y-75419272D01*
X47759797Y-74889254D01*
X48306763Y-74325334D01*
X48887442Y-73760888D01*
X49467683Y-73229291D01*
X50013334Y-72763918D01*
X50407986Y-72457344D01*
X51894213Y-71470866D01*
X53439051Y-70640974D01*
X55035121Y-69969324D01*
X56675044Y-69457571D01*
X58351439Y-69107369D01*
X60056928Y-68920372D01*
X61784131Y-68898237D01*
X61784131Y-67661168D01*
X60866679Y-67624924D01*
X59073382Y-67715121D01*
X57281973Y-67967035D01*
X55773315Y-68308052D01*
X54103176Y-68838094D01*
X52498387Y-69517066D01*
X50967650Y-70335892D01*
X49519667Y-71285496D01*
X48163141Y-72356801D01*
X46906771Y-73540732D01*
X45759261Y-74828213D01*
X44729312Y-76210168D01*
X43825625Y-77677520D01*
X43056903Y-79221194D01*
X42431847Y-80832115D01*
X41959158Y-82501204D01*
X41896331Y-82781944D01*
X41690476Y-83933467D01*
X41547913Y-85157149D01*
X41471033Y-86403233D01*
X41462224Y-87621957D01*
X41523878Y-88763564D01*
G04 #@! TO.C,R1*
D13*
X116997666Y-69894980D02*
X117331000Y-69418790D01*
X117569095Y-69894980D02*
X117569095Y-68894980D01*
X117188142Y-68894980D01*
X117092904Y-68942600D01*
X117045285Y-68990219D01*
X116997666Y-69085457D01*
X116997666Y-69228314D01*
X117045285Y-69323552D01*
X117092904Y-69371171D01*
X117188142Y-69418790D01*
X117569095Y-69418790D01*
X116045285Y-69894980D02*
X116616714Y-69894980D01*
X116331000Y-69894980D02*
X116331000Y-68894980D01*
X116426238Y-69037838D01*
X116521476Y-69133076D01*
X116616714Y-69180695D01*
G04 #@! TO.C,R4*
X171928780Y-109925933D02*
X171452590Y-109592600D01*
X171928780Y-109354504D02*
X170928780Y-109354504D01*
X170928780Y-109735457D01*
X170976400Y-109830695D01*
X171024019Y-109878314D01*
X171119257Y-109925933D01*
X171262114Y-109925933D01*
X171357352Y-109878314D01*
X171404971Y-109830695D01*
X171452590Y-109735457D01*
X171452590Y-109354504D01*
X171262114Y-110783076D02*
X171928780Y-110783076D01*
X170881161Y-110544980D02*
X171595447Y-110306885D01*
X171595447Y-110925933D01*
G04 #@! TO.C,R5*
X180359580Y-114962533D02*
X179883390Y-114629200D01*
X180359580Y-114391104D02*
X179359580Y-114391104D01*
X179359580Y-114772057D01*
X179407200Y-114867295D01*
X179454819Y-114914914D01*
X179550057Y-114962533D01*
X179692914Y-114962533D01*
X179788152Y-114914914D01*
X179835771Y-114867295D01*
X179883390Y-114772057D01*
X179883390Y-114391104D01*
X179359580Y-115867295D02*
X179359580Y-115391104D01*
X179835771Y-115343485D01*
X179788152Y-115391104D01*
X179740533Y-115486342D01*
X179740533Y-115724438D01*
X179788152Y-115819676D01*
X179835771Y-115867295D01*
X179931009Y-115914914D01*
X180169104Y-115914914D01*
X180264342Y-115867295D01*
X180311961Y-115819676D01*
X180359580Y-115724438D01*
X180359580Y-115486342D01*
X180311961Y-115391104D01*
X180264342Y-115343485D01*
G04 #@! TO.C,U3*
X104002980Y-108991495D02*
X104812504Y-108991495D01*
X104907742Y-109039114D01*
X104955361Y-109086733D01*
X105002980Y-109181971D01*
X105002980Y-109372447D01*
X104955361Y-109467685D01*
X104907742Y-109515304D01*
X104812504Y-109562923D01*
X104002980Y-109562923D01*
X104002980Y-109943876D02*
X104002980Y-110562923D01*
X104383933Y-110229590D01*
X104383933Y-110372447D01*
X104431552Y-110467685D01*
X104479171Y-110515304D01*
X104574409Y-110562923D01*
X104812504Y-110562923D01*
X104907742Y-110515304D01*
X104955361Y-110467685D01*
X105002980Y-110372447D01*
X105002980Y-110086733D01*
X104955361Y-109991495D01*
X104907742Y-109943876D01*
G04 #@! TD*
M02*
