G04 #@! TF.GenerationSoftware,KiCad,Pcbnew,5.0.2-bee76a0~70~ubuntu18.04.1*
G04 #@! TF.CreationDate,2019-08-21T16:40:53-04:00*
G04 #@! TF.ProjectId,output.pcb,6f757470-7574-42e7-9063-622e6b696361,rev?*
G04 #@! TF.SameCoordinates,Original*
G04 #@! TF.FileFunction,Soldermask,Bot*
G04 #@! TF.FilePolarity,Negative*
%FSLAX46Y46*%
G04 Gerber Fmt 4.6, Leading zero omitted, Abs format (unit mm)*
G04 Created by KiCad (PCBNEW 5.0.2-bee76a0~70~ubuntu18.04.1) date Wed 21 Aug 2019 04:40:53 PM EDT*
%MOMM*%
%LPD*%
G01*
G04 APERTURE LIST*
%ADD10C,0.100000*%
G04 APERTURE END LIST*
D10*
G36*
X220865000Y-138619800D02*
X219063000Y-138619800D01*
X219063000Y-136817800D01*
X220865000Y-136817800D01*
X220865000Y-138619800D01*
X220865000Y-138619800D01*
G37*
G36*
X217534443Y-136824319D02*
X217600627Y-136830837D01*
X217713853Y-136865184D01*
X217770467Y-136882357D01*
X217909087Y-136956452D01*
X217926991Y-136966022D01*
X217962729Y-136995352D01*
X218064186Y-137078614D01*
X218147448Y-137180071D01*
X218176778Y-137215809D01*
X218176779Y-137215811D01*
X218260443Y-137372333D01*
X218260443Y-137372334D01*
X218311963Y-137542173D01*
X218329359Y-137718800D01*
X218311963Y-137895427D01*
X218277616Y-138008653D01*
X218260443Y-138065267D01*
X218186348Y-138203887D01*
X218176778Y-138221791D01*
X218147448Y-138257529D01*
X218064186Y-138358986D01*
X217962729Y-138442248D01*
X217926991Y-138471578D01*
X217926989Y-138471579D01*
X217770467Y-138555243D01*
X217713853Y-138572416D01*
X217600627Y-138606763D01*
X217534442Y-138613282D01*
X217468260Y-138619800D01*
X217379740Y-138619800D01*
X217313558Y-138613282D01*
X217247373Y-138606763D01*
X217134147Y-138572416D01*
X217077533Y-138555243D01*
X216921011Y-138471579D01*
X216921009Y-138471578D01*
X216885271Y-138442248D01*
X216783814Y-138358986D01*
X216700552Y-138257529D01*
X216671222Y-138221791D01*
X216661652Y-138203887D01*
X216587557Y-138065267D01*
X216570384Y-138008653D01*
X216536037Y-137895427D01*
X216518641Y-137718800D01*
X216536037Y-137542173D01*
X216587557Y-137372334D01*
X216587557Y-137372333D01*
X216671221Y-137215811D01*
X216671222Y-137215809D01*
X216700552Y-137180071D01*
X216783814Y-137078614D01*
X216885271Y-136995352D01*
X216921009Y-136966022D01*
X216938913Y-136956452D01*
X217077533Y-136882357D01*
X217134147Y-136865184D01*
X217247373Y-136830837D01*
X217313557Y-136824319D01*
X217379740Y-136817800D01*
X217468260Y-136817800D01*
X217534443Y-136824319D01*
X217534443Y-136824319D01*
G37*
G36*
X214994443Y-136824319D02*
X215060627Y-136830837D01*
X215173853Y-136865184D01*
X215230467Y-136882357D01*
X215369087Y-136956452D01*
X215386991Y-136966022D01*
X215422729Y-136995352D01*
X215524186Y-137078614D01*
X215607448Y-137180071D01*
X215636778Y-137215809D01*
X215636779Y-137215811D01*
X215720443Y-137372333D01*
X215720443Y-137372334D01*
X215771963Y-137542173D01*
X215789359Y-137718800D01*
X215771963Y-137895427D01*
X215737616Y-138008653D01*
X215720443Y-138065267D01*
X215646348Y-138203887D01*
X215636778Y-138221791D01*
X215607448Y-138257529D01*
X215524186Y-138358986D01*
X215422729Y-138442248D01*
X215386991Y-138471578D01*
X215386989Y-138471579D01*
X215230467Y-138555243D01*
X215173853Y-138572416D01*
X215060627Y-138606763D01*
X214994442Y-138613282D01*
X214928260Y-138619800D01*
X214839740Y-138619800D01*
X214773558Y-138613282D01*
X214707373Y-138606763D01*
X214594147Y-138572416D01*
X214537533Y-138555243D01*
X214381011Y-138471579D01*
X214381009Y-138471578D01*
X214345271Y-138442248D01*
X214243814Y-138358986D01*
X214160552Y-138257529D01*
X214131222Y-138221791D01*
X214121652Y-138203887D01*
X214047557Y-138065267D01*
X214030384Y-138008653D01*
X213996037Y-137895427D01*
X213978641Y-137718800D01*
X213996037Y-137542173D01*
X214047557Y-137372334D01*
X214047557Y-137372333D01*
X214131221Y-137215811D01*
X214131222Y-137215809D01*
X214160552Y-137180071D01*
X214243814Y-137078614D01*
X214345271Y-136995352D01*
X214381009Y-136966022D01*
X214398913Y-136956452D01*
X214537533Y-136882357D01*
X214594147Y-136865184D01*
X214707373Y-136830837D01*
X214773557Y-136824319D01*
X214839740Y-136817800D01*
X214928260Y-136817800D01*
X214994443Y-136824319D01*
X214994443Y-136824319D01*
G37*
G36*
X209914443Y-136824319D02*
X209980627Y-136830837D01*
X210093853Y-136865184D01*
X210150467Y-136882357D01*
X210289087Y-136956452D01*
X210306991Y-136966022D01*
X210342729Y-136995352D01*
X210444186Y-137078614D01*
X210527448Y-137180071D01*
X210556778Y-137215809D01*
X210556779Y-137215811D01*
X210640443Y-137372333D01*
X210640443Y-137372334D01*
X210691963Y-137542173D01*
X210709359Y-137718800D01*
X210691963Y-137895427D01*
X210657616Y-138008653D01*
X210640443Y-138065267D01*
X210566348Y-138203887D01*
X210556778Y-138221791D01*
X210527448Y-138257529D01*
X210444186Y-138358986D01*
X210342729Y-138442248D01*
X210306991Y-138471578D01*
X210306989Y-138471579D01*
X210150467Y-138555243D01*
X210093853Y-138572416D01*
X209980627Y-138606763D01*
X209914442Y-138613282D01*
X209848260Y-138619800D01*
X209759740Y-138619800D01*
X209693558Y-138613282D01*
X209627373Y-138606763D01*
X209514147Y-138572416D01*
X209457533Y-138555243D01*
X209301011Y-138471579D01*
X209301009Y-138471578D01*
X209265271Y-138442248D01*
X209163814Y-138358986D01*
X209080552Y-138257529D01*
X209051222Y-138221791D01*
X209041652Y-138203887D01*
X208967557Y-138065267D01*
X208950384Y-138008653D01*
X208916037Y-137895427D01*
X208898641Y-137718800D01*
X208916037Y-137542173D01*
X208967557Y-137372334D01*
X208967557Y-137372333D01*
X209051221Y-137215811D01*
X209051222Y-137215809D01*
X209080552Y-137180071D01*
X209163814Y-137078614D01*
X209265271Y-136995352D01*
X209301009Y-136966022D01*
X209318913Y-136956452D01*
X209457533Y-136882357D01*
X209514147Y-136865184D01*
X209627373Y-136830837D01*
X209693557Y-136824319D01*
X209759740Y-136817800D01*
X209848260Y-136817800D01*
X209914443Y-136824319D01*
X209914443Y-136824319D01*
G37*
G36*
X212454443Y-136824319D02*
X212520627Y-136830837D01*
X212633853Y-136865184D01*
X212690467Y-136882357D01*
X212829087Y-136956452D01*
X212846991Y-136966022D01*
X212882729Y-136995352D01*
X212984186Y-137078614D01*
X213067448Y-137180071D01*
X213096778Y-137215809D01*
X213096779Y-137215811D01*
X213180443Y-137372333D01*
X213180443Y-137372334D01*
X213231963Y-137542173D01*
X213249359Y-137718800D01*
X213231963Y-137895427D01*
X213197616Y-138008653D01*
X213180443Y-138065267D01*
X213106348Y-138203887D01*
X213096778Y-138221791D01*
X213067448Y-138257529D01*
X212984186Y-138358986D01*
X212882729Y-138442248D01*
X212846991Y-138471578D01*
X212846989Y-138471579D01*
X212690467Y-138555243D01*
X212633853Y-138572416D01*
X212520627Y-138606763D01*
X212454442Y-138613282D01*
X212388260Y-138619800D01*
X212299740Y-138619800D01*
X212233558Y-138613282D01*
X212167373Y-138606763D01*
X212054147Y-138572416D01*
X211997533Y-138555243D01*
X211841011Y-138471579D01*
X211841009Y-138471578D01*
X211805271Y-138442248D01*
X211703814Y-138358986D01*
X211620552Y-138257529D01*
X211591222Y-138221791D01*
X211581652Y-138203887D01*
X211507557Y-138065267D01*
X211490384Y-138008653D01*
X211456037Y-137895427D01*
X211438641Y-137718800D01*
X211456037Y-137542173D01*
X211507557Y-137372334D01*
X211507557Y-137372333D01*
X211591221Y-137215811D01*
X211591222Y-137215809D01*
X211620552Y-137180071D01*
X211703814Y-137078614D01*
X211805271Y-136995352D01*
X211841009Y-136966022D01*
X211858913Y-136956452D01*
X211997533Y-136882357D01*
X212054147Y-136865184D01*
X212167373Y-136830837D01*
X212233557Y-136824319D01*
X212299740Y-136817800D01*
X212388260Y-136817800D01*
X212454443Y-136824319D01*
X212454443Y-136824319D01*
G37*
G36*
X150783242Y-128442318D02*
X150849427Y-128448837D01*
X150935533Y-128474957D01*
X151019267Y-128500357D01*
X151157887Y-128574452D01*
X151175791Y-128584022D01*
X151211529Y-128613352D01*
X151312986Y-128696614D01*
X151396248Y-128798071D01*
X151425578Y-128833809D01*
X151425579Y-128833811D01*
X151509243Y-128990333D01*
X151509243Y-128990334D01*
X151560763Y-129160173D01*
X151578159Y-129336800D01*
X151560763Y-129513427D01*
X151526416Y-129626653D01*
X151509243Y-129683267D01*
X151439156Y-129814389D01*
X151425578Y-129839791D01*
X151396248Y-129875529D01*
X151312986Y-129976986D01*
X151211529Y-130060248D01*
X151175791Y-130089578D01*
X151175789Y-130089579D01*
X151019267Y-130173243D01*
X150962653Y-130190416D01*
X150849427Y-130224763D01*
X150783243Y-130231281D01*
X150717060Y-130237800D01*
X150628540Y-130237800D01*
X150562357Y-130231281D01*
X150496173Y-130224763D01*
X150382947Y-130190416D01*
X150326333Y-130173243D01*
X150169811Y-130089579D01*
X150169809Y-130089578D01*
X150134071Y-130060248D01*
X150032614Y-129976986D01*
X149949352Y-129875529D01*
X149920022Y-129839791D01*
X149906444Y-129814389D01*
X149836357Y-129683267D01*
X149819184Y-129626653D01*
X149784837Y-129513427D01*
X149767441Y-129336800D01*
X149784837Y-129160173D01*
X149836357Y-128990334D01*
X149836357Y-128990333D01*
X149920021Y-128833811D01*
X149920022Y-128833809D01*
X149949352Y-128798071D01*
X150032614Y-128696614D01*
X150134071Y-128613352D01*
X150169809Y-128584022D01*
X150187713Y-128574452D01*
X150326333Y-128500357D01*
X150410067Y-128474957D01*
X150496173Y-128448837D01*
X150562358Y-128442318D01*
X150628540Y-128435800D01*
X150717060Y-128435800D01*
X150783242Y-128442318D01*
X150783242Y-128442318D01*
G37*
G36*
X156653800Y-130237800D02*
X154851800Y-130237800D01*
X154851800Y-128435800D01*
X156653800Y-128435800D01*
X156653800Y-130237800D01*
X156653800Y-130237800D01*
G37*
G36*
X153323242Y-128442318D02*
X153389427Y-128448837D01*
X153475533Y-128474957D01*
X153559267Y-128500357D01*
X153697887Y-128574452D01*
X153715791Y-128584022D01*
X153751529Y-128613352D01*
X153852986Y-128696614D01*
X153936248Y-128798071D01*
X153965578Y-128833809D01*
X153965579Y-128833811D01*
X154049243Y-128990333D01*
X154049243Y-128990334D01*
X154100763Y-129160173D01*
X154118159Y-129336800D01*
X154100763Y-129513427D01*
X154066416Y-129626653D01*
X154049243Y-129683267D01*
X153979156Y-129814389D01*
X153965578Y-129839791D01*
X153936248Y-129875529D01*
X153852986Y-129976986D01*
X153751529Y-130060248D01*
X153715791Y-130089578D01*
X153715789Y-130089579D01*
X153559267Y-130173243D01*
X153502653Y-130190416D01*
X153389427Y-130224763D01*
X153323243Y-130231281D01*
X153257060Y-130237800D01*
X153168540Y-130237800D01*
X153102357Y-130231281D01*
X153036173Y-130224763D01*
X152922947Y-130190416D01*
X152866333Y-130173243D01*
X152709811Y-130089579D01*
X152709809Y-130089578D01*
X152674071Y-130060248D01*
X152572614Y-129976986D01*
X152489352Y-129875529D01*
X152460022Y-129839791D01*
X152446444Y-129814389D01*
X152376357Y-129683267D01*
X152359184Y-129626653D01*
X152324837Y-129513427D01*
X152307441Y-129336800D01*
X152324837Y-129160173D01*
X152376357Y-128990334D01*
X152376357Y-128990333D01*
X152460021Y-128833811D01*
X152460022Y-128833809D01*
X152489352Y-128798071D01*
X152572614Y-128696614D01*
X152674071Y-128613352D01*
X152709809Y-128584022D01*
X152727713Y-128574452D01*
X152866333Y-128500357D01*
X152950067Y-128474957D01*
X153036173Y-128448837D01*
X153102358Y-128442318D01*
X153168540Y-128435800D01*
X153257060Y-128435800D01*
X153323242Y-128442318D01*
X153323242Y-128442318D01*
G37*
G36*
X148243242Y-128442318D02*
X148309427Y-128448837D01*
X148395533Y-128474957D01*
X148479267Y-128500357D01*
X148617887Y-128574452D01*
X148635791Y-128584022D01*
X148671529Y-128613352D01*
X148772986Y-128696614D01*
X148856248Y-128798071D01*
X148885578Y-128833809D01*
X148885579Y-128833811D01*
X148969243Y-128990333D01*
X148969243Y-128990334D01*
X149020763Y-129160173D01*
X149038159Y-129336800D01*
X149020763Y-129513427D01*
X148986416Y-129626653D01*
X148969243Y-129683267D01*
X148899156Y-129814389D01*
X148885578Y-129839791D01*
X148856248Y-129875529D01*
X148772986Y-129976986D01*
X148671529Y-130060248D01*
X148635791Y-130089578D01*
X148635789Y-130089579D01*
X148479267Y-130173243D01*
X148422653Y-130190416D01*
X148309427Y-130224763D01*
X148243243Y-130231281D01*
X148177060Y-130237800D01*
X148088540Y-130237800D01*
X148022357Y-130231281D01*
X147956173Y-130224763D01*
X147842947Y-130190416D01*
X147786333Y-130173243D01*
X147629811Y-130089579D01*
X147629809Y-130089578D01*
X147594071Y-130060248D01*
X147492614Y-129976986D01*
X147409352Y-129875529D01*
X147380022Y-129839791D01*
X147366444Y-129814389D01*
X147296357Y-129683267D01*
X147279184Y-129626653D01*
X147244837Y-129513427D01*
X147227441Y-129336800D01*
X147244837Y-129160173D01*
X147296357Y-128990334D01*
X147296357Y-128990333D01*
X147380021Y-128833811D01*
X147380022Y-128833809D01*
X147409352Y-128798071D01*
X147492614Y-128696614D01*
X147594071Y-128613352D01*
X147629809Y-128584022D01*
X147647713Y-128574452D01*
X147786333Y-128500357D01*
X147870067Y-128474957D01*
X147956173Y-128448837D01*
X148022358Y-128442318D01*
X148088540Y-128435800D01*
X148177060Y-128435800D01*
X148243242Y-128442318D01*
X148243242Y-128442318D01*
G37*
G36*
X167398000Y-130212400D02*
X165596000Y-130212400D01*
X165596000Y-128410400D01*
X167398000Y-128410400D01*
X167398000Y-130212400D01*
X167398000Y-130212400D01*
G37*
G36*
X164067443Y-128416919D02*
X164133627Y-128423437D01*
X164246853Y-128457784D01*
X164303467Y-128474957D01*
X164350986Y-128500357D01*
X164459991Y-128558622D01*
X164490941Y-128584022D01*
X164597186Y-128671214D01*
X164680448Y-128772671D01*
X164709778Y-128808409D01*
X164709779Y-128808411D01*
X164793443Y-128964933D01*
X164793443Y-128964934D01*
X164844963Y-129134773D01*
X164862359Y-129311400D01*
X164844963Y-129488027D01*
X164837258Y-129513427D01*
X164793443Y-129657867D01*
X164779866Y-129683267D01*
X164709778Y-129814391D01*
X164680448Y-129850129D01*
X164597186Y-129951586D01*
X164495729Y-130034848D01*
X164459991Y-130064178D01*
X164459989Y-130064179D01*
X164303467Y-130147843D01*
X164246853Y-130165016D01*
X164133627Y-130199363D01*
X164067442Y-130205882D01*
X164001260Y-130212400D01*
X163912740Y-130212400D01*
X163846558Y-130205882D01*
X163780373Y-130199363D01*
X163667147Y-130165016D01*
X163610533Y-130147843D01*
X163454011Y-130064179D01*
X163454009Y-130064178D01*
X163418271Y-130034848D01*
X163316814Y-129951586D01*
X163233552Y-129850129D01*
X163204222Y-129814391D01*
X163134134Y-129683267D01*
X163120557Y-129657867D01*
X163076742Y-129513427D01*
X163069037Y-129488027D01*
X163051641Y-129311400D01*
X163069037Y-129134773D01*
X163120557Y-128964934D01*
X163120557Y-128964933D01*
X163204221Y-128808411D01*
X163204222Y-128808409D01*
X163233552Y-128772671D01*
X163316814Y-128671214D01*
X163423059Y-128584022D01*
X163454009Y-128558622D01*
X163563014Y-128500357D01*
X163610533Y-128474957D01*
X163667147Y-128457784D01*
X163780373Y-128423437D01*
X163846557Y-128416919D01*
X163912740Y-128410400D01*
X164001260Y-128410400D01*
X164067443Y-128416919D01*
X164067443Y-128416919D01*
G37*
G36*
X186114352Y-126722077D02*
X186196425Y-126756073D01*
X186196426Y-126756074D01*
X186196429Y-126756075D01*
X186246515Y-126789542D01*
X186270300Y-126805435D01*
X186333111Y-126868246D01*
X186333113Y-126868249D01*
X186333114Y-126868250D01*
X186382471Y-126942117D01*
X186382472Y-126942120D01*
X186382473Y-126942121D01*
X186416469Y-127024194D01*
X186433800Y-127111325D01*
X186433800Y-127200167D01*
X186416469Y-127287298D01*
X186382473Y-127369371D01*
X186382471Y-127369375D01*
X186333114Y-127443242D01*
X186333111Y-127443246D01*
X186270300Y-127506057D01*
X186270297Y-127506059D01*
X186270296Y-127506060D01*
X186196429Y-127555417D01*
X186196426Y-127555418D01*
X186196425Y-127555419D01*
X186114352Y-127589415D01*
X186027221Y-127606746D01*
X185938379Y-127606746D01*
X185851248Y-127589415D01*
X185769175Y-127555419D01*
X185769174Y-127555418D01*
X185769171Y-127555417D01*
X185695304Y-127506060D01*
X185695303Y-127506059D01*
X185695300Y-127506057D01*
X185632489Y-127443246D01*
X185632486Y-127443242D01*
X185583129Y-127369375D01*
X185583127Y-127369371D01*
X185549131Y-127287298D01*
X185531800Y-127200167D01*
X185531800Y-127111325D01*
X185549131Y-127024194D01*
X185583127Y-126942121D01*
X185583128Y-126942120D01*
X185583129Y-126942117D01*
X185632486Y-126868250D01*
X185632487Y-126868249D01*
X185632489Y-126868246D01*
X185695300Y-126805435D01*
X185719085Y-126789542D01*
X185769171Y-126756075D01*
X185769174Y-126756074D01*
X185769175Y-126756073D01*
X185851248Y-126722077D01*
X185938379Y-126704746D01*
X186027221Y-126704746D01*
X186114352Y-126722077D01*
X186114352Y-126722077D01*
G37*
G36*
X190776007Y-126311452D02*
X190858080Y-126345448D01*
X190858081Y-126345449D01*
X190858084Y-126345450D01*
X190931951Y-126394807D01*
X190931955Y-126394810D01*
X190994766Y-126457621D01*
X190994768Y-126457624D01*
X190994769Y-126457625D01*
X191044126Y-126531492D01*
X191044127Y-126531495D01*
X191044128Y-126531496D01*
X191078124Y-126613569D01*
X191095455Y-126700700D01*
X191095455Y-126789542D01*
X191078124Y-126876673D01*
X191051016Y-126942117D01*
X191044126Y-126958750D01*
X191000397Y-127024194D01*
X190994766Y-127032621D01*
X190931955Y-127095432D01*
X190931952Y-127095434D01*
X190931951Y-127095435D01*
X190858084Y-127144792D01*
X190858081Y-127144793D01*
X190858080Y-127144794D01*
X190776007Y-127178790D01*
X190688876Y-127196121D01*
X190600034Y-127196121D01*
X190512903Y-127178790D01*
X190430830Y-127144794D01*
X190430829Y-127144793D01*
X190430826Y-127144792D01*
X190356959Y-127095435D01*
X190356958Y-127095434D01*
X190356955Y-127095432D01*
X190294144Y-127032621D01*
X190288513Y-127024194D01*
X190244784Y-126958750D01*
X190237894Y-126942117D01*
X190210786Y-126876673D01*
X190193455Y-126789542D01*
X190193455Y-126700700D01*
X190210786Y-126613569D01*
X190244782Y-126531496D01*
X190244783Y-126531495D01*
X190244784Y-126531492D01*
X190294141Y-126457625D01*
X190294142Y-126457624D01*
X190294144Y-126457621D01*
X190356955Y-126394810D01*
X190356959Y-126394807D01*
X190430826Y-126345450D01*
X190430829Y-126345449D01*
X190430830Y-126345448D01*
X190512903Y-126311452D01*
X190600034Y-126294121D01*
X190688876Y-126294121D01*
X190776007Y-126311452D01*
X190776007Y-126311452D01*
G37*
G36*
X186114352Y-125263588D02*
X186196425Y-125297584D01*
X186196426Y-125297585D01*
X186196429Y-125297586D01*
X186270296Y-125346943D01*
X186270300Y-125346946D01*
X186333111Y-125409757D01*
X186333113Y-125409760D01*
X186333114Y-125409761D01*
X186382471Y-125483628D01*
X186382472Y-125483631D01*
X186382473Y-125483632D01*
X186416469Y-125565705D01*
X186433800Y-125652836D01*
X186433800Y-125741678D01*
X186416469Y-125828809D01*
X186400622Y-125867066D01*
X186382471Y-125910886D01*
X186333114Y-125984753D01*
X186333111Y-125984757D01*
X186270300Y-126047568D01*
X186270297Y-126047570D01*
X186270296Y-126047571D01*
X186196429Y-126096928D01*
X186196426Y-126096929D01*
X186196425Y-126096930D01*
X186114352Y-126130926D01*
X186027221Y-126148257D01*
X185938379Y-126148257D01*
X185851248Y-126130926D01*
X185769175Y-126096930D01*
X185769174Y-126096929D01*
X185769171Y-126096928D01*
X185695304Y-126047571D01*
X185695303Y-126047570D01*
X185695300Y-126047568D01*
X185632489Y-125984757D01*
X185632486Y-125984753D01*
X185583129Y-125910886D01*
X185564978Y-125867066D01*
X185549131Y-125828809D01*
X185531800Y-125741678D01*
X185531800Y-125652836D01*
X185549131Y-125565705D01*
X185583127Y-125483632D01*
X185583128Y-125483631D01*
X185583129Y-125483628D01*
X185632486Y-125409761D01*
X185632487Y-125409760D01*
X185632489Y-125409757D01*
X185695300Y-125346946D01*
X185695304Y-125346943D01*
X185769171Y-125297586D01*
X185769174Y-125297585D01*
X185769175Y-125297584D01*
X185851248Y-125263588D01*
X185938379Y-125246257D01*
X186027221Y-125246257D01*
X186114352Y-125263588D01*
X186114352Y-125263588D01*
G37*
G36*
X190663038Y-124982397D02*
X190745111Y-125016393D01*
X190745112Y-125016394D01*
X190745115Y-125016395D01*
X190818982Y-125065752D01*
X190818986Y-125065755D01*
X190881797Y-125128566D01*
X190881799Y-125128569D01*
X190881800Y-125128570D01*
X190931157Y-125202437D01*
X190931158Y-125202440D01*
X190931159Y-125202441D01*
X190965155Y-125284514D01*
X190982486Y-125371645D01*
X190982486Y-125460487D01*
X190965155Y-125547618D01*
X190931159Y-125629691D01*
X190931157Y-125629695D01*
X190881800Y-125703562D01*
X190881797Y-125703566D01*
X190818986Y-125766377D01*
X190818983Y-125766379D01*
X190818982Y-125766380D01*
X190745115Y-125815737D01*
X190745112Y-125815738D01*
X190745111Y-125815739D01*
X190663038Y-125849735D01*
X190575907Y-125867066D01*
X190487065Y-125867066D01*
X190399934Y-125849735D01*
X190317861Y-125815739D01*
X190317860Y-125815738D01*
X190317857Y-125815737D01*
X190243990Y-125766380D01*
X190243989Y-125766379D01*
X190243986Y-125766377D01*
X190181175Y-125703566D01*
X190181172Y-125703562D01*
X190131815Y-125629695D01*
X190131813Y-125629691D01*
X190097817Y-125547618D01*
X190080486Y-125460487D01*
X190080486Y-125371645D01*
X190097817Y-125284514D01*
X190131813Y-125202441D01*
X190131814Y-125202440D01*
X190131815Y-125202437D01*
X190181172Y-125128570D01*
X190181173Y-125128569D01*
X190181175Y-125128566D01*
X190243986Y-125065755D01*
X190243990Y-125065752D01*
X190317857Y-125016395D01*
X190317860Y-125016394D01*
X190317861Y-125016393D01*
X190399934Y-124982397D01*
X190487065Y-124965066D01*
X190575907Y-124965066D01*
X190663038Y-124982397D01*
X190663038Y-124982397D01*
G37*
G36*
X186114352Y-123805099D02*
X186196425Y-123839095D01*
X186196426Y-123839096D01*
X186196429Y-123839097D01*
X186247739Y-123873382D01*
X186270300Y-123888457D01*
X186333111Y-123951268D01*
X186333113Y-123951271D01*
X186333114Y-123951272D01*
X186382471Y-124025139D01*
X186382472Y-124025142D01*
X186382473Y-124025143D01*
X186416469Y-124107216D01*
X186433800Y-124194347D01*
X186433800Y-124283189D01*
X186416469Y-124370320D01*
X186388714Y-124437325D01*
X186382471Y-124452397D01*
X186336845Y-124520680D01*
X186333111Y-124526268D01*
X186270300Y-124589079D01*
X186270297Y-124589081D01*
X186270296Y-124589082D01*
X186196429Y-124638439D01*
X186196426Y-124638440D01*
X186196425Y-124638441D01*
X186114352Y-124672437D01*
X186027221Y-124689768D01*
X185938379Y-124689768D01*
X185851248Y-124672437D01*
X185769175Y-124638441D01*
X185769174Y-124638440D01*
X185769171Y-124638439D01*
X185695304Y-124589082D01*
X185695303Y-124589081D01*
X185695300Y-124589079D01*
X185632489Y-124526268D01*
X185628755Y-124520680D01*
X185583129Y-124452397D01*
X185576886Y-124437325D01*
X185549131Y-124370320D01*
X185531800Y-124283189D01*
X185531800Y-124194347D01*
X185549131Y-124107216D01*
X185583127Y-124025143D01*
X185583128Y-124025142D01*
X185583129Y-124025139D01*
X185632486Y-123951272D01*
X185632487Y-123951271D01*
X185632489Y-123951268D01*
X185695300Y-123888457D01*
X185717861Y-123873382D01*
X185769171Y-123839097D01*
X185769174Y-123839096D01*
X185769175Y-123839095D01*
X185851248Y-123805099D01*
X185938379Y-123787768D01*
X186027221Y-123787768D01*
X186114352Y-123805099D01*
X186114352Y-123805099D01*
G37*
G36*
X190550069Y-123653342D02*
X190632142Y-123687338D01*
X190632143Y-123687339D01*
X190632146Y-123687340D01*
X190706013Y-123736697D01*
X190706017Y-123736700D01*
X190768828Y-123799511D01*
X190768830Y-123799514D01*
X190768831Y-123799515D01*
X190818188Y-123873382D01*
X190818189Y-123873385D01*
X190818190Y-123873386D01*
X190852186Y-123955459D01*
X190869517Y-124042590D01*
X190869517Y-124131432D01*
X190852186Y-124218563D01*
X190818190Y-124300636D01*
X190818188Y-124300640D01*
X190768831Y-124374507D01*
X190768828Y-124374511D01*
X190706017Y-124437322D01*
X190706014Y-124437324D01*
X190706013Y-124437325D01*
X190632146Y-124486682D01*
X190632143Y-124486683D01*
X190632142Y-124486684D01*
X190550069Y-124520680D01*
X190462938Y-124538011D01*
X190374096Y-124538011D01*
X190286965Y-124520680D01*
X190204892Y-124486684D01*
X190204891Y-124486683D01*
X190204888Y-124486682D01*
X190131021Y-124437325D01*
X190131020Y-124437324D01*
X190131017Y-124437322D01*
X190068206Y-124374511D01*
X190068203Y-124374507D01*
X190018846Y-124300640D01*
X190018844Y-124300636D01*
X189984848Y-124218563D01*
X189967517Y-124131432D01*
X189967517Y-124042590D01*
X189984848Y-123955459D01*
X190018844Y-123873386D01*
X190018845Y-123873385D01*
X190018846Y-123873382D01*
X190068203Y-123799515D01*
X190068204Y-123799514D01*
X190068206Y-123799511D01*
X190131017Y-123736700D01*
X190131021Y-123736697D01*
X190204888Y-123687340D01*
X190204891Y-123687339D01*
X190204892Y-123687338D01*
X190286965Y-123653342D01*
X190374096Y-123636011D01*
X190462938Y-123636011D01*
X190550069Y-123653342D01*
X190550069Y-123653342D01*
G37*
G36*
X186114352Y-122346610D02*
X186196425Y-122380606D01*
X186196426Y-122380607D01*
X186196429Y-122380608D01*
X186267063Y-122427805D01*
X186270300Y-122429968D01*
X186333111Y-122492779D01*
X186333113Y-122492782D01*
X186333114Y-122492783D01*
X186382471Y-122566650D01*
X186382472Y-122566653D01*
X186382473Y-122566654D01*
X186416469Y-122648727D01*
X186433800Y-122735858D01*
X186433800Y-122824700D01*
X186416469Y-122911831D01*
X186382473Y-122993904D01*
X186382471Y-122993908D01*
X186348030Y-123045452D01*
X186333111Y-123067779D01*
X186270300Y-123130590D01*
X186270297Y-123130592D01*
X186270296Y-123130593D01*
X186196429Y-123179950D01*
X186196426Y-123179951D01*
X186196425Y-123179952D01*
X186114352Y-123213948D01*
X186027221Y-123231279D01*
X185938379Y-123231279D01*
X185851248Y-123213948D01*
X185769175Y-123179952D01*
X185769174Y-123179951D01*
X185769171Y-123179950D01*
X185695304Y-123130593D01*
X185695303Y-123130592D01*
X185695300Y-123130590D01*
X185632489Y-123067779D01*
X185617570Y-123045452D01*
X185583129Y-122993908D01*
X185583127Y-122993904D01*
X185549131Y-122911831D01*
X185531800Y-122824700D01*
X185531800Y-122735858D01*
X185549131Y-122648727D01*
X185583127Y-122566654D01*
X185583128Y-122566653D01*
X185583129Y-122566650D01*
X185632486Y-122492783D01*
X185632487Y-122492782D01*
X185632489Y-122492779D01*
X185695300Y-122429968D01*
X185698537Y-122427805D01*
X185769171Y-122380608D01*
X185769174Y-122380607D01*
X185769175Y-122380606D01*
X185851248Y-122346610D01*
X185938379Y-122329279D01*
X186027221Y-122329279D01*
X186114352Y-122346610D01*
X186114352Y-122346610D01*
G37*
G36*
X190437100Y-122324287D02*
X190519173Y-122358283D01*
X190519174Y-122358284D01*
X190519177Y-122358285D01*
X190552582Y-122380606D01*
X190593048Y-122407645D01*
X190655859Y-122470456D01*
X190655861Y-122470459D01*
X190655862Y-122470460D01*
X190705219Y-122544327D01*
X190705220Y-122544330D01*
X190705221Y-122544331D01*
X190739217Y-122626404D01*
X190756548Y-122713535D01*
X190756548Y-122802377D01*
X190739217Y-122889508D01*
X190729970Y-122911831D01*
X190705219Y-122971585D01*
X190655862Y-123045452D01*
X190655859Y-123045456D01*
X190593048Y-123108267D01*
X190593045Y-123108269D01*
X190593044Y-123108270D01*
X190519177Y-123157627D01*
X190519174Y-123157628D01*
X190519173Y-123157629D01*
X190437100Y-123191625D01*
X190349969Y-123208956D01*
X190261127Y-123208956D01*
X190173996Y-123191625D01*
X190091923Y-123157629D01*
X190091922Y-123157628D01*
X190091919Y-123157627D01*
X190018052Y-123108270D01*
X190018051Y-123108269D01*
X190018048Y-123108267D01*
X189955237Y-123045456D01*
X189955234Y-123045452D01*
X189905877Y-122971585D01*
X189881126Y-122911831D01*
X189871879Y-122889508D01*
X189854548Y-122802377D01*
X189854548Y-122713535D01*
X189871879Y-122626404D01*
X189905875Y-122544331D01*
X189905876Y-122544330D01*
X189905877Y-122544327D01*
X189955234Y-122470460D01*
X189955235Y-122470459D01*
X189955237Y-122470456D01*
X190018048Y-122407645D01*
X190058514Y-122380606D01*
X190091919Y-122358285D01*
X190091922Y-122358284D01*
X190091923Y-122358283D01*
X190173996Y-122324287D01*
X190261127Y-122306956D01*
X190349969Y-122306956D01*
X190437100Y-122324287D01*
X190437100Y-122324287D01*
G37*
G36*
X98208400Y-122744800D02*
X96406400Y-122744800D01*
X96406400Y-120942800D01*
X98208400Y-120942800D01*
X98208400Y-122744800D01*
X98208400Y-122744800D01*
G37*
G36*
X99957842Y-120949318D02*
X100024027Y-120955837D01*
X100137253Y-120990184D01*
X100193867Y-121007357D01*
X100332487Y-121081452D01*
X100350391Y-121091022D01*
X100376124Y-121112141D01*
X100487586Y-121203614D01*
X100570848Y-121305071D01*
X100600178Y-121340809D01*
X100600179Y-121340811D01*
X100683843Y-121497333D01*
X100683843Y-121497334D01*
X100735363Y-121667173D01*
X100752759Y-121843800D01*
X100735363Y-122020427D01*
X100701016Y-122133653D01*
X100683843Y-122190267D01*
X100621470Y-122306956D01*
X100600178Y-122346791D01*
X100590745Y-122358285D01*
X100487586Y-122483986D01*
X100400460Y-122555487D01*
X100350391Y-122596578D01*
X100350389Y-122596579D01*
X100193867Y-122680243D01*
X100137253Y-122697416D01*
X100024027Y-122731763D01*
X99957842Y-122738282D01*
X99891660Y-122744800D01*
X99803140Y-122744800D01*
X99736958Y-122738282D01*
X99670773Y-122731763D01*
X99557547Y-122697416D01*
X99500933Y-122680243D01*
X99344411Y-122596579D01*
X99344409Y-122596578D01*
X99294340Y-122555487D01*
X99207214Y-122483986D01*
X99104055Y-122358285D01*
X99094622Y-122346791D01*
X99073330Y-122306956D01*
X99010957Y-122190267D01*
X98993784Y-122133653D01*
X98959437Y-122020427D01*
X98942041Y-121843800D01*
X98959437Y-121667173D01*
X99010957Y-121497334D01*
X99010957Y-121497333D01*
X99094621Y-121340811D01*
X99094622Y-121340809D01*
X99123952Y-121305071D01*
X99207214Y-121203614D01*
X99318676Y-121112141D01*
X99344409Y-121091022D01*
X99362313Y-121081452D01*
X99500933Y-121007357D01*
X99557547Y-120990184D01*
X99670773Y-120955837D01*
X99736958Y-120949318D01*
X99803140Y-120942800D01*
X99891660Y-120942800D01*
X99957842Y-120949318D01*
X99957842Y-120949318D01*
G37*
G36*
X174175821Y-120878113D02*
X174175824Y-120878114D01*
X174175825Y-120878114D01*
X174336239Y-120926775D01*
X174336241Y-120926776D01*
X174336244Y-120926777D01*
X174484078Y-121005795D01*
X174613659Y-121112141D01*
X174720005Y-121241722D01*
X174799023Y-121389556D01*
X174799024Y-121389559D01*
X174799025Y-121389561D01*
X174847686Y-121549975D01*
X174847687Y-121549979D01*
X174864117Y-121716800D01*
X174847687Y-121883621D01*
X174847686Y-121883624D01*
X174847686Y-121883625D01*
X174806188Y-122020427D01*
X174799023Y-122044044D01*
X174720005Y-122191878D01*
X174613659Y-122321459D01*
X174484078Y-122427805D01*
X174336244Y-122506823D01*
X174336241Y-122506824D01*
X174336239Y-122506825D01*
X174175825Y-122555486D01*
X174175824Y-122555486D01*
X174175821Y-122555487D01*
X174050804Y-122567800D01*
X173167196Y-122567800D01*
X173042179Y-122555487D01*
X173042176Y-122555486D01*
X173042175Y-122555486D01*
X172881761Y-122506825D01*
X172881759Y-122506824D01*
X172881756Y-122506823D01*
X172733922Y-122427805D01*
X172604341Y-122321459D01*
X172497995Y-122191878D01*
X172418977Y-122044044D01*
X172411813Y-122020427D01*
X172370314Y-121883625D01*
X172370314Y-121883624D01*
X172370313Y-121883621D01*
X172353883Y-121716800D01*
X172370313Y-121549979D01*
X172370314Y-121549975D01*
X172418975Y-121389561D01*
X172418976Y-121389559D01*
X172418977Y-121389556D01*
X172497995Y-121241722D01*
X172604341Y-121112141D01*
X172733922Y-121005795D01*
X172881756Y-120926777D01*
X172881759Y-120926776D01*
X172881761Y-120926775D01*
X173042175Y-120878114D01*
X173042176Y-120878114D01*
X173042179Y-120878113D01*
X173167196Y-120865800D01*
X174050804Y-120865800D01*
X174175821Y-120878113D01*
X174175821Y-120878113D01*
G37*
G36*
X182480000Y-122567800D02*
X179978000Y-122567800D01*
X179978000Y-120865800D01*
X182480000Y-120865800D01*
X182480000Y-122567800D01*
X182480000Y-122567800D01*
G37*
G36*
X107043621Y-119176313D02*
X107043624Y-119176314D01*
X107043625Y-119176314D01*
X107204039Y-119224975D01*
X107204041Y-119224976D01*
X107204044Y-119224977D01*
X107351878Y-119303995D01*
X107481459Y-119410341D01*
X107587805Y-119539922D01*
X107666823Y-119687756D01*
X107715487Y-119848179D01*
X107731917Y-120015000D01*
X107715487Y-120181821D01*
X107666823Y-120342244D01*
X107587805Y-120490078D01*
X107481459Y-120619659D01*
X107351878Y-120726005D01*
X107204044Y-120805023D01*
X107204041Y-120805024D01*
X107204039Y-120805025D01*
X107043625Y-120853686D01*
X107043624Y-120853686D01*
X107043621Y-120853687D01*
X106918604Y-120866000D01*
X106034996Y-120866000D01*
X105909979Y-120853687D01*
X105909976Y-120853686D01*
X105909975Y-120853686D01*
X105749561Y-120805025D01*
X105749559Y-120805024D01*
X105749556Y-120805023D01*
X105601722Y-120726005D01*
X105472141Y-120619659D01*
X105365795Y-120490078D01*
X105286777Y-120342244D01*
X105238113Y-120181821D01*
X105221683Y-120015000D01*
X105238113Y-119848179D01*
X105286777Y-119687756D01*
X105365795Y-119539922D01*
X105472141Y-119410341D01*
X105601722Y-119303995D01*
X105749556Y-119224977D01*
X105749559Y-119224976D01*
X105749561Y-119224975D01*
X105909975Y-119176314D01*
X105909976Y-119176314D01*
X105909979Y-119176313D01*
X106034996Y-119164000D01*
X106918604Y-119164000D01*
X107043621Y-119176313D01*
X107043621Y-119176313D01*
G37*
G36*
X115347800Y-120866000D02*
X112845800Y-120866000D01*
X112845800Y-119164000D01*
X115347800Y-119164000D01*
X115347800Y-120866000D01*
X115347800Y-120866000D01*
G37*
G36*
X133129400Y-120861200D02*
X130827400Y-120861200D01*
X130827400Y-118559200D01*
X133129400Y-118559200D01*
X133129400Y-120861200D01*
X133129400Y-120861200D01*
G37*
G36*
X174175821Y-118338113D02*
X174175824Y-118338114D01*
X174175825Y-118338114D01*
X174336239Y-118386775D01*
X174336241Y-118386776D01*
X174336244Y-118386777D01*
X174484078Y-118465795D01*
X174613659Y-118572141D01*
X174720005Y-118701722D01*
X174799023Y-118849556D01*
X174847687Y-119009979D01*
X174864117Y-119176800D01*
X174847687Y-119343621D01*
X174799023Y-119504044D01*
X174720005Y-119651878D01*
X174613659Y-119781459D01*
X174484078Y-119887805D01*
X174336244Y-119966823D01*
X174336241Y-119966824D01*
X174336239Y-119966825D01*
X174175825Y-120015486D01*
X174175824Y-120015486D01*
X174175821Y-120015487D01*
X174050804Y-120027800D01*
X173167196Y-120027800D01*
X173042179Y-120015487D01*
X173042176Y-120015486D01*
X173042175Y-120015486D01*
X172881761Y-119966825D01*
X172881759Y-119966824D01*
X172881756Y-119966823D01*
X172733922Y-119887805D01*
X172604341Y-119781459D01*
X172497995Y-119651878D01*
X172418977Y-119504044D01*
X172370313Y-119343621D01*
X172353883Y-119176800D01*
X172370313Y-119009979D01*
X172418977Y-118849556D01*
X172497995Y-118701722D01*
X172604341Y-118572141D01*
X172733922Y-118465795D01*
X172881756Y-118386777D01*
X172881759Y-118386776D01*
X172881761Y-118386775D01*
X173042175Y-118338114D01*
X173042176Y-118338114D01*
X173042179Y-118338113D01*
X173167196Y-118325800D01*
X174050804Y-118325800D01*
X174175821Y-118338113D01*
X174175821Y-118338113D01*
G37*
G36*
X181795821Y-118338113D02*
X181795824Y-118338114D01*
X181795825Y-118338114D01*
X181956239Y-118386775D01*
X181956241Y-118386776D01*
X181956244Y-118386777D01*
X182104078Y-118465795D01*
X182233659Y-118572141D01*
X182340005Y-118701722D01*
X182419023Y-118849556D01*
X182467687Y-119009979D01*
X182484117Y-119176800D01*
X182467687Y-119343621D01*
X182419023Y-119504044D01*
X182340005Y-119651878D01*
X182233659Y-119781459D01*
X182104078Y-119887805D01*
X181956244Y-119966823D01*
X181956241Y-119966824D01*
X181956239Y-119966825D01*
X181795825Y-120015486D01*
X181795824Y-120015486D01*
X181795821Y-120015487D01*
X181670804Y-120027800D01*
X180787196Y-120027800D01*
X180662179Y-120015487D01*
X180662176Y-120015486D01*
X180662175Y-120015486D01*
X180501761Y-119966825D01*
X180501759Y-119966824D01*
X180501756Y-119966823D01*
X180353922Y-119887805D01*
X180224341Y-119781459D01*
X180117995Y-119651878D01*
X180038977Y-119504044D01*
X179990313Y-119343621D01*
X179973883Y-119176800D01*
X179990313Y-119009979D01*
X180038977Y-118849556D01*
X180117995Y-118701722D01*
X180224341Y-118572141D01*
X180353922Y-118465795D01*
X180501756Y-118386777D01*
X180501759Y-118386776D01*
X180501761Y-118386775D01*
X180662175Y-118338114D01*
X180662176Y-118338114D01*
X180662179Y-118338113D01*
X180787196Y-118325800D01*
X181670804Y-118325800D01*
X181795821Y-118338113D01*
X181795821Y-118338113D01*
G37*
G36*
X114663621Y-116636313D02*
X114663624Y-116636314D01*
X114663625Y-116636314D01*
X114824039Y-116684975D01*
X114824041Y-116684976D01*
X114824044Y-116684977D01*
X114971878Y-116763995D01*
X115101459Y-116870341D01*
X115207805Y-116999922D01*
X115286823Y-117147756D01*
X115335487Y-117308179D01*
X115351917Y-117475000D01*
X115335487Y-117641821D01*
X115286823Y-117802244D01*
X115207805Y-117950078D01*
X115101459Y-118079659D01*
X114971878Y-118186005D01*
X114824044Y-118265023D01*
X114824041Y-118265024D01*
X114824039Y-118265025D01*
X114663625Y-118313686D01*
X114663624Y-118313686D01*
X114663621Y-118313687D01*
X114538604Y-118326000D01*
X113654996Y-118326000D01*
X113529979Y-118313687D01*
X113529976Y-118313686D01*
X113529975Y-118313686D01*
X113369561Y-118265025D01*
X113369559Y-118265024D01*
X113369556Y-118265023D01*
X113221722Y-118186005D01*
X113092141Y-118079659D01*
X112985795Y-117950078D01*
X112906777Y-117802244D01*
X112858113Y-117641821D01*
X112841683Y-117475000D01*
X112858113Y-117308179D01*
X112906777Y-117147756D01*
X112985795Y-116999922D01*
X113092141Y-116870341D01*
X113221722Y-116763995D01*
X113369556Y-116684977D01*
X113369559Y-116684976D01*
X113369561Y-116684975D01*
X113529975Y-116636314D01*
X113529976Y-116636314D01*
X113529979Y-116636313D01*
X113654996Y-116624000D01*
X114538604Y-116624000D01*
X114663621Y-116636313D01*
X114663621Y-116636313D01*
G37*
G36*
X107043621Y-116636313D02*
X107043624Y-116636314D01*
X107043625Y-116636314D01*
X107204039Y-116684975D01*
X107204041Y-116684976D01*
X107204044Y-116684977D01*
X107351878Y-116763995D01*
X107481459Y-116870341D01*
X107587805Y-116999922D01*
X107666823Y-117147756D01*
X107715487Y-117308179D01*
X107731917Y-117475000D01*
X107715487Y-117641821D01*
X107666823Y-117802244D01*
X107587805Y-117950078D01*
X107481459Y-118079659D01*
X107351878Y-118186005D01*
X107204044Y-118265023D01*
X107204041Y-118265024D01*
X107204039Y-118265025D01*
X107043625Y-118313686D01*
X107043624Y-118313686D01*
X107043621Y-118313687D01*
X106918604Y-118326000D01*
X106034996Y-118326000D01*
X105909979Y-118313687D01*
X105909976Y-118313686D01*
X105909975Y-118313686D01*
X105749561Y-118265025D01*
X105749559Y-118265024D01*
X105749556Y-118265023D01*
X105601722Y-118186005D01*
X105472141Y-118079659D01*
X105365795Y-117950078D01*
X105286777Y-117802244D01*
X105238113Y-117641821D01*
X105221683Y-117475000D01*
X105238113Y-117308179D01*
X105286777Y-117147756D01*
X105365795Y-116999922D01*
X105472141Y-116870341D01*
X105601722Y-116763995D01*
X105749556Y-116684977D01*
X105749559Y-116684976D01*
X105749561Y-116684975D01*
X105909975Y-116636314D01*
X105909976Y-116636314D01*
X105909979Y-116636313D01*
X106034996Y-116624000D01*
X106918604Y-116624000D01*
X107043621Y-116636313D01*
X107043621Y-116636313D01*
G37*
G36*
X181795821Y-115798113D02*
X181795824Y-115798114D01*
X181795825Y-115798114D01*
X181956239Y-115846775D01*
X181956241Y-115846776D01*
X181956244Y-115846777D01*
X182104078Y-115925795D01*
X182233659Y-116032141D01*
X182340005Y-116161722D01*
X182419023Y-116309556D01*
X182467687Y-116469979D01*
X182484117Y-116636800D01*
X182467687Y-116803621D01*
X182419023Y-116964044D01*
X182340005Y-117111878D01*
X182233659Y-117241459D01*
X182104078Y-117347805D01*
X181956244Y-117426823D01*
X181956241Y-117426824D01*
X181956239Y-117426825D01*
X181795825Y-117475486D01*
X181795824Y-117475486D01*
X181795821Y-117475487D01*
X181670804Y-117487800D01*
X180787196Y-117487800D01*
X180662179Y-117475487D01*
X180662176Y-117475486D01*
X180662175Y-117475486D01*
X180501761Y-117426825D01*
X180501759Y-117426824D01*
X180501756Y-117426823D01*
X180353922Y-117347805D01*
X180224341Y-117241459D01*
X180117995Y-117111878D01*
X180038977Y-116964044D01*
X179990313Y-116803621D01*
X179973883Y-116636800D01*
X179990313Y-116469979D01*
X180038977Y-116309556D01*
X180117995Y-116161722D01*
X180224341Y-116032141D01*
X180353922Y-115925795D01*
X180501756Y-115846777D01*
X180501759Y-115846776D01*
X180501761Y-115846775D01*
X180662175Y-115798114D01*
X180662176Y-115798114D01*
X180662179Y-115798113D01*
X180787196Y-115785800D01*
X181670804Y-115785800D01*
X181795821Y-115798113D01*
X181795821Y-115798113D01*
G37*
G36*
X174175821Y-115798113D02*
X174175824Y-115798114D01*
X174175825Y-115798114D01*
X174336239Y-115846775D01*
X174336241Y-115846776D01*
X174336244Y-115846777D01*
X174484078Y-115925795D01*
X174613659Y-116032141D01*
X174720005Y-116161722D01*
X174799023Y-116309556D01*
X174847687Y-116469979D01*
X174864117Y-116636800D01*
X174847687Y-116803621D01*
X174799023Y-116964044D01*
X174720005Y-117111878D01*
X174613659Y-117241459D01*
X174484078Y-117347805D01*
X174336244Y-117426823D01*
X174336241Y-117426824D01*
X174336239Y-117426825D01*
X174175825Y-117475486D01*
X174175824Y-117475486D01*
X174175821Y-117475487D01*
X174050804Y-117487800D01*
X173167196Y-117487800D01*
X173042179Y-117475487D01*
X173042176Y-117475486D01*
X173042175Y-117475486D01*
X172881761Y-117426825D01*
X172881759Y-117426824D01*
X172881756Y-117426823D01*
X172733922Y-117347805D01*
X172604341Y-117241459D01*
X172497995Y-117111878D01*
X172418977Y-116964044D01*
X172370313Y-116803621D01*
X172353883Y-116636800D01*
X172370313Y-116469979D01*
X172418977Y-116309556D01*
X172497995Y-116161722D01*
X172604341Y-116032141D01*
X172733922Y-115925795D01*
X172881756Y-115846777D01*
X172881759Y-115846776D01*
X172881761Y-115846775D01*
X173042175Y-115798114D01*
X173042176Y-115798114D01*
X173042179Y-115798113D01*
X173167196Y-115785800D01*
X174050804Y-115785800D01*
X174175821Y-115798113D01*
X174175821Y-115798113D01*
G37*
G36*
X178845877Y-115532665D02*
X178883564Y-115544098D01*
X178918303Y-115562666D01*
X178948748Y-115587652D01*
X178973734Y-115618097D01*
X178992302Y-115652836D01*
X179003735Y-115690523D01*
X179008200Y-115735861D01*
X179008200Y-116572539D01*
X179003735Y-116617877D01*
X178992302Y-116655564D01*
X178973734Y-116690303D01*
X178948748Y-116720748D01*
X178918303Y-116745734D01*
X178883564Y-116764302D01*
X178845877Y-116775735D01*
X178800539Y-116780200D01*
X177713861Y-116780200D01*
X177668523Y-116775735D01*
X177630836Y-116764302D01*
X177596097Y-116745734D01*
X177565652Y-116720748D01*
X177540666Y-116690303D01*
X177522098Y-116655564D01*
X177510665Y-116617877D01*
X177506200Y-116572539D01*
X177506200Y-115735861D01*
X177510665Y-115690523D01*
X177522098Y-115652836D01*
X177540666Y-115618097D01*
X177565652Y-115587652D01*
X177596097Y-115562666D01*
X177630836Y-115544098D01*
X177668523Y-115532665D01*
X177713861Y-115528200D01*
X178800539Y-115528200D01*
X178845877Y-115532665D01*
X178845877Y-115532665D01*
G37*
G36*
X107043621Y-114096313D02*
X107043624Y-114096314D01*
X107043625Y-114096314D01*
X107204039Y-114144975D01*
X107204041Y-114144976D01*
X107204044Y-114144977D01*
X107351878Y-114223995D01*
X107481459Y-114330341D01*
X107587805Y-114459922D01*
X107666823Y-114607756D01*
X107666824Y-114607759D01*
X107666825Y-114607761D01*
X107699144Y-114714302D01*
X107715487Y-114768179D01*
X107731917Y-114935000D01*
X107715487Y-115101821D01*
X107666823Y-115262244D01*
X107587805Y-115410078D01*
X107481459Y-115539659D01*
X107351878Y-115646005D01*
X107204044Y-115725023D01*
X107204041Y-115725024D01*
X107204039Y-115725025D01*
X107043625Y-115773686D01*
X107043624Y-115773686D01*
X107043621Y-115773687D01*
X106918604Y-115786000D01*
X106034996Y-115786000D01*
X105909979Y-115773687D01*
X105909976Y-115773686D01*
X105909975Y-115773686D01*
X105749561Y-115725025D01*
X105749559Y-115725024D01*
X105749556Y-115725023D01*
X105601722Y-115646005D01*
X105472141Y-115539659D01*
X105365795Y-115410078D01*
X105286777Y-115262244D01*
X105238113Y-115101821D01*
X105221683Y-114935000D01*
X105238113Y-114768179D01*
X105254456Y-114714302D01*
X105286775Y-114607761D01*
X105286776Y-114607759D01*
X105286777Y-114607756D01*
X105365795Y-114459922D01*
X105472141Y-114330341D01*
X105601722Y-114223995D01*
X105749556Y-114144977D01*
X105749559Y-114144976D01*
X105749561Y-114144975D01*
X105909975Y-114096314D01*
X105909976Y-114096314D01*
X105909979Y-114096313D01*
X106034996Y-114084000D01*
X106918604Y-114084000D01*
X107043621Y-114096313D01*
X107043621Y-114096313D01*
G37*
G36*
X114663621Y-114096313D02*
X114663624Y-114096314D01*
X114663625Y-114096314D01*
X114824039Y-114144975D01*
X114824041Y-114144976D01*
X114824044Y-114144977D01*
X114971878Y-114223995D01*
X115101459Y-114330341D01*
X115207805Y-114459922D01*
X115286823Y-114607756D01*
X115286824Y-114607759D01*
X115286825Y-114607761D01*
X115319144Y-114714302D01*
X115335487Y-114768179D01*
X115351917Y-114935000D01*
X115335487Y-115101821D01*
X115286823Y-115262244D01*
X115207805Y-115410078D01*
X115101459Y-115539659D01*
X114971878Y-115646005D01*
X114824044Y-115725023D01*
X114824041Y-115725024D01*
X114824039Y-115725025D01*
X114663625Y-115773686D01*
X114663624Y-115773686D01*
X114663621Y-115773687D01*
X114538604Y-115786000D01*
X113654996Y-115786000D01*
X113529979Y-115773687D01*
X113529976Y-115773686D01*
X113529975Y-115773686D01*
X113369561Y-115725025D01*
X113369559Y-115725024D01*
X113369556Y-115725023D01*
X113221722Y-115646005D01*
X113092141Y-115539659D01*
X112985795Y-115410078D01*
X112906777Y-115262244D01*
X112858113Y-115101821D01*
X112841683Y-114935000D01*
X112858113Y-114768179D01*
X112874456Y-114714302D01*
X112906775Y-114607761D01*
X112906776Y-114607759D01*
X112906777Y-114607756D01*
X112985795Y-114459922D01*
X113092141Y-114330341D01*
X113221722Y-114223995D01*
X113369556Y-114144977D01*
X113369559Y-114144976D01*
X113369561Y-114144975D01*
X113529975Y-114096314D01*
X113529976Y-114096314D01*
X113529979Y-114096313D01*
X113654996Y-114084000D01*
X114538604Y-114084000D01*
X114663621Y-114096313D01*
X114663621Y-114096313D01*
G37*
G36*
X181795821Y-113258113D02*
X181795824Y-113258114D01*
X181795825Y-113258114D01*
X181956239Y-113306775D01*
X181956241Y-113306776D01*
X181956244Y-113306777D01*
X182104078Y-113385795D01*
X182233659Y-113492141D01*
X182340005Y-113621722D01*
X182419023Y-113769556D01*
X182467687Y-113929979D01*
X182484117Y-114096800D01*
X182467687Y-114263621D01*
X182419023Y-114424044D01*
X182340005Y-114571878D01*
X182233659Y-114701459D01*
X182104078Y-114807805D01*
X181956244Y-114886823D01*
X181956241Y-114886824D01*
X181956239Y-114886825D01*
X181795825Y-114935486D01*
X181795824Y-114935486D01*
X181795821Y-114935487D01*
X181670804Y-114947800D01*
X180787196Y-114947800D01*
X180662179Y-114935487D01*
X180662176Y-114935486D01*
X180662175Y-114935486D01*
X180501761Y-114886825D01*
X180501759Y-114886824D01*
X180501756Y-114886823D01*
X180353922Y-114807805D01*
X180224341Y-114701459D01*
X180117995Y-114571878D01*
X180038977Y-114424044D01*
X179990313Y-114263621D01*
X179973883Y-114096800D01*
X179990313Y-113929979D01*
X180038977Y-113769556D01*
X180117995Y-113621722D01*
X180224341Y-113492141D01*
X180353922Y-113385795D01*
X180501756Y-113306777D01*
X180501759Y-113306776D01*
X180501761Y-113306775D01*
X180662175Y-113258114D01*
X180662176Y-113258114D01*
X180662179Y-113258113D01*
X180787196Y-113245800D01*
X181670804Y-113245800D01*
X181795821Y-113258113D01*
X181795821Y-113258113D01*
G37*
G36*
X174175821Y-113258113D02*
X174175824Y-113258114D01*
X174175825Y-113258114D01*
X174336239Y-113306775D01*
X174336241Y-113306776D01*
X174336244Y-113306777D01*
X174484078Y-113385795D01*
X174613659Y-113492141D01*
X174720005Y-113621722D01*
X174799023Y-113769556D01*
X174847687Y-113929979D01*
X174864117Y-114096800D01*
X174847687Y-114263621D01*
X174799023Y-114424044D01*
X174720005Y-114571878D01*
X174613659Y-114701459D01*
X174484078Y-114807805D01*
X174336244Y-114886823D01*
X174336241Y-114886824D01*
X174336239Y-114886825D01*
X174175825Y-114935486D01*
X174175824Y-114935486D01*
X174175821Y-114935487D01*
X174050804Y-114947800D01*
X173167196Y-114947800D01*
X173042179Y-114935487D01*
X173042176Y-114935486D01*
X173042175Y-114935486D01*
X172881761Y-114886825D01*
X172881759Y-114886824D01*
X172881756Y-114886823D01*
X172733922Y-114807805D01*
X172604341Y-114701459D01*
X172497995Y-114571878D01*
X172418977Y-114424044D01*
X172370313Y-114263621D01*
X172353883Y-114096800D01*
X172370313Y-113929979D01*
X172418977Y-113769556D01*
X172497995Y-113621722D01*
X172604341Y-113492141D01*
X172733922Y-113385795D01*
X172881756Y-113306777D01*
X172881759Y-113306776D01*
X172881761Y-113306775D01*
X173042175Y-113258114D01*
X173042176Y-113258114D01*
X173042179Y-113258113D01*
X173167196Y-113245800D01*
X174050804Y-113245800D01*
X174175821Y-113258113D01*
X174175821Y-113258113D01*
G37*
G36*
X178845877Y-113482665D02*
X178883564Y-113494098D01*
X178918303Y-113512666D01*
X178948748Y-113537652D01*
X178973734Y-113568097D01*
X178992302Y-113602836D01*
X179003735Y-113640523D01*
X179008200Y-113685861D01*
X179008200Y-114522539D01*
X179003735Y-114567877D01*
X178992302Y-114605564D01*
X178973734Y-114640303D01*
X178948748Y-114670748D01*
X178918303Y-114695734D01*
X178883564Y-114714302D01*
X178845877Y-114725735D01*
X178800539Y-114730200D01*
X177713861Y-114730200D01*
X177668523Y-114725735D01*
X177630836Y-114714302D01*
X177596097Y-114695734D01*
X177565652Y-114670748D01*
X177540666Y-114640303D01*
X177522098Y-114605564D01*
X177510665Y-114567877D01*
X177506200Y-114522539D01*
X177506200Y-113685861D01*
X177510665Y-113640523D01*
X177522098Y-113602836D01*
X177540666Y-113568097D01*
X177565652Y-113537652D01*
X177596097Y-113512666D01*
X177630836Y-113494098D01*
X177668523Y-113482665D01*
X177713861Y-113478200D01*
X178800539Y-113478200D01*
X178845877Y-113482665D01*
X178845877Y-113482665D01*
G37*
G36*
X98551600Y-113954400D02*
X96949600Y-113954400D01*
X96949600Y-111852400D01*
X98551600Y-111852400D01*
X98551600Y-113954400D01*
X98551600Y-113954400D01*
G37*
G36*
X103151600Y-113954400D02*
X101549600Y-113954400D01*
X101549600Y-111852400D01*
X103151600Y-111852400D01*
X103151600Y-113954400D01*
X103151600Y-113954400D01*
G37*
G36*
X100851600Y-113954400D02*
X99249600Y-113954400D01*
X99249600Y-111852400D01*
X100851600Y-111852400D01*
X100851600Y-113954400D01*
X100851600Y-113954400D01*
G37*
G36*
X114663621Y-111556313D02*
X114663624Y-111556314D01*
X114663625Y-111556314D01*
X114824039Y-111604975D01*
X114824041Y-111604976D01*
X114824044Y-111604977D01*
X114971878Y-111683995D01*
X115101459Y-111790341D01*
X115207805Y-111919922D01*
X115286823Y-112067756D01*
X115286824Y-112067759D01*
X115286825Y-112067761D01*
X115335486Y-112228175D01*
X115335487Y-112228179D01*
X115351917Y-112395000D01*
X115335487Y-112561821D01*
X115286823Y-112722244D01*
X115207805Y-112870078D01*
X115101459Y-112999659D01*
X114971878Y-113106005D01*
X114824044Y-113185023D01*
X114824041Y-113185024D01*
X114824039Y-113185025D01*
X114663625Y-113233686D01*
X114663624Y-113233686D01*
X114663621Y-113233687D01*
X114538604Y-113246000D01*
X113654996Y-113246000D01*
X113529979Y-113233687D01*
X113529976Y-113233686D01*
X113529975Y-113233686D01*
X113369561Y-113185025D01*
X113369559Y-113185024D01*
X113369556Y-113185023D01*
X113221722Y-113106005D01*
X113092141Y-112999659D01*
X112985795Y-112870078D01*
X112906777Y-112722244D01*
X112858113Y-112561821D01*
X112841683Y-112395000D01*
X112858113Y-112228179D01*
X112858114Y-112228175D01*
X112906775Y-112067761D01*
X112906776Y-112067759D01*
X112906777Y-112067756D01*
X112985795Y-111919922D01*
X113092141Y-111790341D01*
X113221722Y-111683995D01*
X113369556Y-111604977D01*
X113369559Y-111604976D01*
X113369561Y-111604975D01*
X113529975Y-111556314D01*
X113529976Y-111556314D01*
X113529979Y-111556313D01*
X113654996Y-111544000D01*
X114538604Y-111544000D01*
X114663621Y-111556313D01*
X114663621Y-111556313D01*
G37*
G36*
X107043621Y-111556313D02*
X107043624Y-111556314D01*
X107043625Y-111556314D01*
X107204039Y-111604975D01*
X107204041Y-111604976D01*
X107204044Y-111604977D01*
X107351878Y-111683995D01*
X107481459Y-111790341D01*
X107587805Y-111919922D01*
X107666823Y-112067756D01*
X107666824Y-112067759D01*
X107666825Y-112067761D01*
X107715486Y-112228175D01*
X107715487Y-112228179D01*
X107731917Y-112395000D01*
X107715487Y-112561821D01*
X107666823Y-112722244D01*
X107587805Y-112870078D01*
X107481459Y-112999659D01*
X107351878Y-113106005D01*
X107204044Y-113185023D01*
X107204041Y-113185024D01*
X107204039Y-113185025D01*
X107043625Y-113233686D01*
X107043624Y-113233686D01*
X107043621Y-113233687D01*
X106918604Y-113246000D01*
X106034996Y-113246000D01*
X105909979Y-113233687D01*
X105909976Y-113233686D01*
X105909975Y-113233686D01*
X105749561Y-113185025D01*
X105749559Y-113185024D01*
X105749556Y-113185023D01*
X105601722Y-113106005D01*
X105472141Y-112999659D01*
X105365795Y-112870078D01*
X105286777Y-112722244D01*
X105238113Y-112561821D01*
X105221683Y-112395000D01*
X105238113Y-112228179D01*
X105238114Y-112228175D01*
X105286775Y-112067761D01*
X105286776Y-112067759D01*
X105286777Y-112067756D01*
X105365795Y-111919922D01*
X105472141Y-111790341D01*
X105601722Y-111683995D01*
X105749556Y-111604977D01*
X105749559Y-111604976D01*
X105749561Y-111604975D01*
X105909975Y-111556314D01*
X105909976Y-111556314D01*
X105909979Y-111556313D01*
X106034996Y-111544000D01*
X106918604Y-111544000D01*
X107043621Y-111556313D01*
X107043621Y-111556313D01*
G37*
G36*
X132102580Y-110945862D02*
X132204035Y-110955854D01*
X132421000Y-111021670D01*
X132421002Y-111021671D01*
X132421005Y-111021672D01*
X132620956Y-111128547D01*
X132796218Y-111272382D01*
X132940053Y-111447644D01*
X133046928Y-111647595D01*
X133046929Y-111647598D01*
X133046930Y-111647600D01*
X133112746Y-111864565D01*
X133134969Y-112090200D01*
X133112746Y-112315835D01*
X133088731Y-112395000D01*
X133046928Y-112532805D01*
X132940053Y-112732756D01*
X132796218Y-112908018D01*
X132620956Y-113051853D01*
X132421005Y-113158728D01*
X132421002Y-113158729D01*
X132421000Y-113158730D01*
X132204035Y-113224546D01*
X132111234Y-113233686D01*
X132034945Y-113241200D01*
X131921855Y-113241200D01*
X131845566Y-113233686D01*
X131752765Y-113224546D01*
X131535800Y-113158730D01*
X131535798Y-113158729D01*
X131535795Y-113158728D01*
X131335844Y-113051853D01*
X131160582Y-112908018D01*
X131016747Y-112732756D01*
X130909872Y-112532805D01*
X130868069Y-112395000D01*
X130844054Y-112315835D01*
X130821831Y-112090200D01*
X130844054Y-111864565D01*
X130909870Y-111647600D01*
X130909871Y-111647598D01*
X130909872Y-111647595D01*
X131016747Y-111447644D01*
X131160582Y-111272382D01*
X131335844Y-111128547D01*
X131535795Y-111021672D01*
X131535798Y-111021671D01*
X131535800Y-111021670D01*
X131752765Y-110955854D01*
X131854220Y-110945862D01*
X131921855Y-110939200D01*
X132034945Y-110939200D01*
X132102580Y-110945862D01*
X132102580Y-110945862D01*
G37*
G36*
X173715077Y-110496065D02*
X173752764Y-110507498D01*
X173787503Y-110526066D01*
X173817948Y-110551052D01*
X173842934Y-110581497D01*
X173861502Y-110616236D01*
X173872935Y-110653923D01*
X173877400Y-110699261D01*
X173877400Y-111535939D01*
X173872935Y-111581277D01*
X173861502Y-111618964D01*
X173842934Y-111653703D01*
X173817948Y-111684148D01*
X173787503Y-111709134D01*
X173752764Y-111727702D01*
X173715077Y-111739135D01*
X173669739Y-111743600D01*
X172583061Y-111743600D01*
X172537723Y-111739135D01*
X172500036Y-111727702D01*
X172465297Y-111709134D01*
X172434852Y-111684148D01*
X172409866Y-111653703D01*
X172391298Y-111618964D01*
X172379865Y-111581277D01*
X172375400Y-111535939D01*
X172375400Y-110699261D01*
X172379865Y-110653923D01*
X172391298Y-110616236D01*
X172409866Y-110581497D01*
X172434852Y-110551052D01*
X172465297Y-110526066D01*
X172500036Y-110507498D01*
X172537723Y-110496065D01*
X172583061Y-110491600D01*
X173669739Y-110491600D01*
X173715077Y-110496065D01*
X173715077Y-110496065D01*
G37*
G36*
X63737520Y-108428505D02*
X63874371Y-108470019D01*
X63874373Y-108470020D01*
X63874376Y-108470021D01*
X64000495Y-108537432D01*
X64111043Y-108628157D01*
X64201768Y-108738704D01*
X64269179Y-108864823D01*
X64269179Y-108864824D01*
X64269181Y-108864828D01*
X64310695Y-109001679D01*
X64321200Y-109108341D01*
X64321200Y-109529658D01*
X64310695Y-109636320D01*
X64293319Y-109693600D01*
X64269180Y-109773176D01*
X64201768Y-109899296D01*
X64111043Y-110009843D01*
X64000496Y-110100568D01*
X63874377Y-110167979D01*
X63874374Y-110167980D01*
X63874372Y-110167981D01*
X63737521Y-110209495D01*
X63595200Y-110223512D01*
X63452880Y-110209495D01*
X63316029Y-110167981D01*
X63316027Y-110167980D01*
X63316024Y-110167979D01*
X63189905Y-110100568D01*
X63079360Y-110009845D01*
X62988630Y-109899292D01*
X62921221Y-109773177D01*
X62921219Y-109773172D01*
X62879705Y-109636321D01*
X62869200Y-109529659D01*
X62869200Y-109108342D01*
X62879705Y-109001680D01*
X62921219Y-108864829D01*
X62921220Y-108864827D01*
X62921221Y-108864824D01*
X62988632Y-108738705D01*
X63079357Y-108628157D01*
X63189904Y-108537432D01*
X63316023Y-108470021D01*
X63316026Y-108470020D01*
X63316028Y-108470019D01*
X63452879Y-108428505D01*
X63595200Y-108414488D01*
X63737520Y-108428505D01*
X63737520Y-108428505D01*
G37*
G36*
X58277520Y-108428505D02*
X58414371Y-108470019D01*
X58414373Y-108470020D01*
X58414376Y-108470021D01*
X58540495Y-108537432D01*
X58651043Y-108628157D01*
X58741768Y-108738704D01*
X58809179Y-108864823D01*
X58809179Y-108864824D01*
X58809181Y-108864828D01*
X58850695Y-109001679D01*
X58861200Y-109108341D01*
X58861200Y-109529658D01*
X58850695Y-109636320D01*
X58833319Y-109693600D01*
X58809180Y-109773176D01*
X58741768Y-109899296D01*
X58651043Y-110009843D01*
X58540496Y-110100568D01*
X58414377Y-110167979D01*
X58414374Y-110167980D01*
X58414372Y-110167981D01*
X58277521Y-110209495D01*
X58135200Y-110223512D01*
X57992880Y-110209495D01*
X57856029Y-110167981D01*
X57856027Y-110167980D01*
X57856024Y-110167979D01*
X57729905Y-110100568D01*
X57619360Y-110009845D01*
X57528630Y-109899292D01*
X57461221Y-109773177D01*
X57461219Y-109773172D01*
X57419705Y-109636321D01*
X57409200Y-109529659D01*
X57409200Y-109108342D01*
X57419705Y-109001680D01*
X57461219Y-108864829D01*
X57461220Y-108864827D01*
X57461221Y-108864824D01*
X57528632Y-108738705D01*
X57619357Y-108628157D01*
X57729904Y-108537432D01*
X57856023Y-108470021D01*
X57856026Y-108470020D01*
X57856028Y-108470019D01*
X57992879Y-108428505D01*
X58135200Y-108414488D01*
X58277520Y-108428505D01*
X58277520Y-108428505D01*
G37*
G36*
X173715077Y-108446065D02*
X173752764Y-108457498D01*
X173787503Y-108476066D01*
X173817948Y-108501052D01*
X173842934Y-108531497D01*
X173861502Y-108566236D01*
X173872935Y-108603923D01*
X173877400Y-108649261D01*
X173877400Y-109485939D01*
X173872935Y-109531277D01*
X173861502Y-109568964D01*
X173842934Y-109603703D01*
X173817948Y-109634148D01*
X173787503Y-109659134D01*
X173752764Y-109677702D01*
X173715077Y-109689135D01*
X173669739Y-109693600D01*
X172583061Y-109693600D01*
X172537723Y-109689135D01*
X172500036Y-109677702D01*
X172465297Y-109659134D01*
X172434852Y-109634148D01*
X172409866Y-109603703D01*
X172391298Y-109568964D01*
X172379865Y-109531277D01*
X172375400Y-109485939D01*
X172375400Y-108649261D01*
X172379865Y-108603923D01*
X172391298Y-108566236D01*
X172409866Y-108531497D01*
X172434852Y-108501052D01*
X172465297Y-108476066D01*
X172500036Y-108457498D01*
X172537723Y-108446065D01*
X172583061Y-108441600D01*
X173669739Y-108441600D01*
X173715077Y-108446065D01*
X173715077Y-108446065D01*
G37*
G36*
X113430837Y-104577550D02*
X113430839Y-104577551D01*
X113430840Y-104577551D01*
X113754051Y-104711429D01*
X113754052Y-104711430D01*
X114044937Y-104905793D01*
X114292307Y-105153163D01*
X114292309Y-105153166D01*
X114486671Y-105444049D01*
X114620549Y-105767260D01*
X114620550Y-105767263D01*
X114688800Y-106110378D01*
X114688800Y-106460222D01*
X114631139Y-106750105D01*
X114620549Y-106803340D01*
X114486671Y-107126551D01*
X114486670Y-107126552D01*
X114292307Y-107417437D01*
X114044937Y-107664807D01*
X114044934Y-107664809D01*
X113754051Y-107859171D01*
X113430840Y-107993049D01*
X113430839Y-107993049D01*
X113430837Y-107993050D01*
X113087722Y-108061300D01*
X112737878Y-108061300D01*
X112394763Y-107993050D01*
X112394761Y-107993049D01*
X112394760Y-107993049D01*
X112071549Y-107859171D01*
X111780666Y-107664809D01*
X111780663Y-107664807D01*
X111533293Y-107417437D01*
X111338930Y-107126552D01*
X111338929Y-107126551D01*
X111205051Y-106803340D01*
X111194462Y-106750105D01*
X111136800Y-106460222D01*
X111136800Y-106110378D01*
X111205050Y-105767263D01*
X111205051Y-105767260D01*
X111338929Y-105444049D01*
X111533291Y-105153166D01*
X111533293Y-105153163D01*
X111780663Y-104905793D01*
X112071548Y-104711430D01*
X112071549Y-104711429D01*
X112394760Y-104577551D01*
X112394761Y-104577551D01*
X112394763Y-104577550D01*
X112737878Y-104509300D01*
X113087722Y-104509300D01*
X113430837Y-104577550D01*
X113430837Y-104577550D01*
G37*
G36*
X102001600Y-107654400D02*
X98099600Y-107654400D01*
X98099600Y-105552400D01*
X102001600Y-105552400D01*
X102001600Y-107654400D01*
X102001600Y-107654400D01*
G37*
G36*
X58563017Y-105526696D02*
X58676304Y-105561062D01*
X58780712Y-105616869D01*
X58830976Y-105658120D01*
X58872227Y-105691973D01*
X58934013Y-105767260D01*
X58947331Y-105783488D01*
X59003138Y-105887895D01*
X59037504Y-106001182D01*
X59046200Y-106089481D01*
X59046200Y-106548518D01*
X59037504Y-106636818D01*
X59003138Y-106750105D01*
X58947331Y-106854513D01*
X58872227Y-106946027D01*
X58780713Y-107021131D01*
X58676305Y-107076938D01*
X58563018Y-107111304D01*
X58445200Y-107122907D01*
X58327383Y-107111304D01*
X58214096Y-107076938D01*
X58109688Y-107021131D01*
X58018174Y-106946027D01*
X57943069Y-106854512D01*
X57887262Y-106750105D01*
X57852896Y-106636818D01*
X57844200Y-106548519D01*
X57844200Y-106089482D01*
X57852896Y-106001183D01*
X57887262Y-105887896D01*
X57943069Y-105783488D01*
X57984320Y-105733224D01*
X58018173Y-105691973D01*
X58109687Y-105616870D01*
X58109686Y-105616870D01*
X58109688Y-105616869D01*
X58214095Y-105561062D01*
X58327382Y-105526696D01*
X58445200Y-105515093D01*
X58563017Y-105526696D01*
X58563017Y-105526696D01*
G37*
G36*
X63403017Y-105526696D02*
X63516304Y-105561062D01*
X63620712Y-105616869D01*
X63670976Y-105658120D01*
X63712227Y-105691973D01*
X63774013Y-105767260D01*
X63787331Y-105783488D01*
X63843138Y-105887895D01*
X63877504Y-106001182D01*
X63886200Y-106089481D01*
X63886200Y-106548518D01*
X63877504Y-106636818D01*
X63843138Y-106750105D01*
X63787331Y-106854513D01*
X63712227Y-106946027D01*
X63620713Y-107021131D01*
X63516305Y-107076938D01*
X63403018Y-107111304D01*
X63285200Y-107122907D01*
X63167383Y-107111304D01*
X63054096Y-107076938D01*
X62949688Y-107021131D01*
X62858174Y-106946027D01*
X62783069Y-106854512D01*
X62727262Y-106750105D01*
X62692896Y-106636818D01*
X62684200Y-106548519D01*
X62684200Y-106089482D01*
X62692896Y-106001183D01*
X62727262Y-105887896D01*
X62783069Y-105783488D01*
X62824320Y-105733224D01*
X62858173Y-105691973D01*
X62949687Y-105616870D01*
X62949686Y-105616870D01*
X62949688Y-105616869D01*
X63054095Y-105561062D01*
X63167382Y-105526696D01*
X63285200Y-105515093D01*
X63403017Y-105526696D01*
X63403017Y-105526696D01*
G37*
G36*
X212752818Y-100152696D02*
X212866105Y-100187062D01*
X212970513Y-100242869D01*
X213062027Y-100317973D01*
X213137131Y-100409487D01*
X213192938Y-100513895D01*
X213227304Y-100627182D01*
X213236000Y-100715482D01*
X213236000Y-101174519D01*
X213227304Y-101262818D01*
X213192938Y-101376105D01*
X213137131Y-101480512D01*
X213137130Y-101480513D01*
X213062027Y-101572027D01*
X213020776Y-101605880D01*
X212970512Y-101647131D01*
X212866104Y-101702938D01*
X212752817Y-101737304D01*
X212635000Y-101748907D01*
X212517182Y-101737304D01*
X212403895Y-101702938D01*
X212299488Y-101647131D01*
X212285572Y-101635711D01*
X212207973Y-101572027D01*
X212174120Y-101530776D01*
X212132869Y-101480512D01*
X212077062Y-101376104D01*
X212042696Y-101262817D01*
X212034000Y-101174518D01*
X212034000Y-100715481D01*
X212042696Y-100627182D01*
X212077062Y-100513895D01*
X212132869Y-100409488D01*
X212207974Y-100317973D01*
X212299488Y-100242869D01*
X212403896Y-100187062D01*
X212517183Y-100152696D01*
X212635000Y-100141093D01*
X212752818Y-100152696D01*
X212752818Y-100152696D01*
G37*
G36*
X217592818Y-100152696D02*
X217706105Y-100187062D01*
X217810513Y-100242869D01*
X217902027Y-100317973D01*
X217977131Y-100409487D01*
X218032938Y-100513895D01*
X218067304Y-100627182D01*
X218076000Y-100715482D01*
X218076000Y-101174519D01*
X218067304Y-101262818D01*
X218032938Y-101376105D01*
X217977131Y-101480512D01*
X217977130Y-101480513D01*
X217902027Y-101572027D01*
X217860776Y-101605880D01*
X217810512Y-101647131D01*
X217706104Y-101702938D01*
X217592817Y-101737304D01*
X217475000Y-101748907D01*
X217357182Y-101737304D01*
X217243895Y-101702938D01*
X217139488Y-101647131D01*
X217125572Y-101635711D01*
X217047973Y-101572027D01*
X217014120Y-101530776D01*
X216972869Y-101480512D01*
X216917062Y-101376104D01*
X216882696Y-101262817D01*
X216874000Y-101174518D01*
X216874000Y-100715481D01*
X216882696Y-100627182D01*
X216917062Y-100513895D01*
X216972869Y-100409488D01*
X217047974Y-100317973D01*
X217139488Y-100242869D01*
X217243896Y-100187062D01*
X217357183Y-100152696D01*
X217475000Y-100141093D01*
X217592818Y-100152696D01*
X217592818Y-100152696D01*
G37*
G36*
X217927321Y-97054505D02*
X218064172Y-97096019D01*
X218064174Y-97096020D01*
X218064177Y-97096021D01*
X218190296Y-97163432D01*
X218300843Y-97254157D01*
X218391568Y-97364704D01*
X218458980Y-97490824D01*
X218458981Y-97490828D01*
X218500495Y-97627680D01*
X218511000Y-97734342D01*
X218511000Y-98155659D01*
X218500495Y-98262321D01*
X218458981Y-98399171D01*
X218458979Y-98399177D01*
X218391568Y-98525296D01*
X218300843Y-98635843D01*
X218190295Y-98726568D01*
X218064176Y-98793979D01*
X218064173Y-98793980D01*
X218064171Y-98793981D01*
X217927320Y-98835495D01*
X217785000Y-98849512D01*
X217642679Y-98835495D01*
X217505828Y-98793981D01*
X217505826Y-98793980D01*
X217505823Y-98793979D01*
X217379704Y-98726568D01*
X217269157Y-98635843D01*
X217178432Y-98525295D01*
X217111021Y-98399176D01*
X217111019Y-98399171D01*
X217069505Y-98262320D01*
X217059000Y-98155658D01*
X217059000Y-97734341D01*
X217069505Y-97627679D01*
X217111019Y-97490828D01*
X217111021Y-97490824D01*
X217111021Y-97490823D01*
X217178430Y-97364708D01*
X217269160Y-97254155D01*
X217379705Y-97163432D01*
X217505824Y-97096021D01*
X217505827Y-97096020D01*
X217505829Y-97096019D01*
X217642680Y-97054505D01*
X217785000Y-97040488D01*
X217927321Y-97054505D01*
X217927321Y-97054505D01*
G37*
G36*
X212467321Y-97054505D02*
X212604172Y-97096019D01*
X212604174Y-97096020D01*
X212604177Y-97096021D01*
X212730296Y-97163432D01*
X212840843Y-97254157D01*
X212931568Y-97364704D01*
X212998980Y-97490824D01*
X212998981Y-97490828D01*
X213040495Y-97627680D01*
X213051000Y-97734342D01*
X213051000Y-98155659D01*
X213040495Y-98262321D01*
X212998981Y-98399171D01*
X212998979Y-98399177D01*
X212931568Y-98525296D01*
X212840843Y-98635843D01*
X212730295Y-98726568D01*
X212604176Y-98793979D01*
X212604173Y-98793980D01*
X212604171Y-98793981D01*
X212467320Y-98835495D01*
X212325000Y-98849512D01*
X212182679Y-98835495D01*
X212045828Y-98793981D01*
X212045826Y-98793980D01*
X212045823Y-98793979D01*
X211919704Y-98726568D01*
X211809157Y-98635843D01*
X211718432Y-98525295D01*
X211651021Y-98399176D01*
X211651019Y-98399171D01*
X211609505Y-98262320D01*
X211599000Y-98155658D01*
X211599000Y-97734341D01*
X211609505Y-97627679D01*
X211651019Y-97490828D01*
X211651021Y-97490824D01*
X211651021Y-97490823D01*
X211718430Y-97364708D01*
X211809160Y-97254155D01*
X211919705Y-97163432D01*
X212045824Y-97096021D01*
X212045827Y-97096020D01*
X212045829Y-97096019D01*
X212182680Y-97054505D01*
X212325000Y-97040488D01*
X212467321Y-97054505D01*
X212467321Y-97054505D01*
G37*
G36*
X93486421Y-91236313D02*
X93486424Y-91236314D01*
X93486425Y-91236314D01*
X93646839Y-91284975D01*
X93646841Y-91284976D01*
X93646844Y-91284977D01*
X93794678Y-91363995D01*
X93924259Y-91470341D01*
X94030605Y-91599922D01*
X94109623Y-91747756D01*
X94158287Y-91908179D01*
X94174717Y-92075000D01*
X94158287Y-92241821D01*
X94109623Y-92402244D01*
X94030605Y-92550078D01*
X93924259Y-92679659D01*
X93794678Y-92786005D01*
X93646844Y-92865023D01*
X93646841Y-92865024D01*
X93646839Y-92865025D01*
X93486425Y-92913686D01*
X93486424Y-92913686D01*
X93486421Y-92913687D01*
X93361404Y-92926000D01*
X93277796Y-92926000D01*
X93152779Y-92913687D01*
X93152776Y-92913686D01*
X93152775Y-92913686D01*
X92992361Y-92865025D01*
X92992359Y-92865024D01*
X92992356Y-92865023D01*
X92844522Y-92786005D01*
X92714941Y-92679659D01*
X92608595Y-92550078D01*
X92529577Y-92402244D01*
X92480913Y-92241821D01*
X92464483Y-92075000D01*
X92480913Y-91908179D01*
X92529577Y-91747756D01*
X92608595Y-91599922D01*
X92714941Y-91470341D01*
X92844522Y-91363995D01*
X92992356Y-91284977D01*
X92992359Y-91284976D01*
X92992361Y-91284975D01*
X93152775Y-91236314D01*
X93152776Y-91236314D01*
X93152779Y-91236313D01*
X93277796Y-91224000D01*
X93361404Y-91224000D01*
X93486421Y-91236313D01*
X93486421Y-91236313D01*
G37*
G36*
X94170600Y-85306000D02*
X92468600Y-85306000D01*
X92468600Y-83604000D01*
X94170600Y-83604000D01*
X94170600Y-85306000D01*
X94170600Y-85306000D01*
G37*
G36*
X85767877Y-84383426D02*
X85849950Y-84417422D01*
X85849951Y-84417423D01*
X85849954Y-84417424D01*
X85923821Y-84466781D01*
X85923825Y-84466784D01*
X85986636Y-84529595D01*
X85986638Y-84529598D01*
X85986639Y-84529599D01*
X86035996Y-84603466D01*
X86035997Y-84603469D01*
X86035998Y-84603470D01*
X86069994Y-84685543D01*
X86087325Y-84772674D01*
X86087325Y-84861516D01*
X86069994Y-84948647D01*
X86037304Y-85027567D01*
X86035996Y-85030724D01*
X85988743Y-85101442D01*
X85986636Y-85104595D01*
X85923825Y-85167406D01*
X85923822Y-85167408D01*
X85923821Y-85167409D01*
X85849954Y-85216766D01*
X85849951Y-85216767D01*
X85849950Y-85216768D01*
X85767877Y-85250764D01*
X85680746Y-85268095D01*
X85591904Y-85268095D01*
X85504773Y-85250764D01*
X85422700Y-85216768D01*
X85422699Y-85216767D01*
X85422696Y-85216766D01*
X85348829Y-85167409D01*
X85348828Y-85167408D01*
X85348825Y-85167406D01*
X85286014Y-85104595D01*
X85283907Y-85101442D01*
X85236654Y-85030724D01*
X85235346Y-85027567D01*
X85202656Y-84948647D01*
X85185325Y-84861516D01*
X85185325Y-84772674D01*
X85202656Y-84685543D01*
X85236652Y-84603470D01*
X85236653Y-84603469D01*
X85236654Y-84603466D01*
X85286011Y-84529599D01*
X85286012Y-84529598D01*
X85286014Y-84529595D01*
X85348825Y-84466784D01*
X85348829Y-84466781D01*
X85422696Y-84417424D01*
X85422699Y-84417423D01*
X85422700Y-84417422D01*
X85504773Y-84383426D01*
X85591904Y-84366095D01*
X85680746Y-84366095D01*
X85767877Y-84383426D01*
X85767877Y-84383426D01*
G37*
G36*
X89814952Y-84380273D02*
X89897025Y-84414269D01*
X89897026Y-84414270D01*
X89897029Y-84414271D01*
X89970896Y-84463628D01*
X89970900Y-84463631D01*
X90033711Y-84526442D01*
X90033713Y-84526445D01*
X90033714Y-84526446D01*
X90083071Y-84600313D01*
X90083072Y-84600316D01*
X90083073Y-84600317D01*
X90117069Y-84682390D01*
X90134400Y-84769521D01*
X90134400Y-84858363D01*
X90117069Y-84945494D01*
X90083073Y-85027567D01*
X90083071Y-85027571D01*
X90080964Y-85030724D01*
X90033711Y-85101442D01*
X89970900Y-85164253D01*
X89970897Y-85164255D01*
X89970896Y-85164256D01*
X89897029Y-85213613D01*
X89897026Y-85213614D01*
X89897025Y-85213615D01*
X89814952Y-85247611D01*
X89727821Y-85264942D01*
X89638979Y-85264942D01*
X89551848Y-85247611D01*
X89469775Y-85213615D01*
X89469774Y-85213614D01*
X89469771Y-85213613D01*
X89395904Y-85164256D01*
X89395903Y-85164255D01*
X89395900Y-85164253D01*
X89333089Y-85101442D01*
X89285836Y-85030724D01*
X89283729Y-85027571D01*
X89283727Y-85027567D01*
X89249731Y-84945494D01*
X89232400Y-84858363D01*
X89232400Y-84769521D01*
X89249731Y-84682390D01*
X89283727Y-84600317D01*
X89283728Y-84600316D01*
X89283729Y-84600313D01*
X89333086Y-84526446D01*
X89333087Y-84526445D01*
X89333089Y-84526442D01*
X89395900Y-84463631D01*
X89395904Y-84463628D01*
X89469771Y-84414271D01*
X89469774Y-84414270D01*
X89469775Y-84414269D01*
X89551848Y-84380273D01*
X89638979Y-84362942D01*
X89727821Y-84362942D01*
X89814952Y-84380273D01*
X89814952Y-84380273D01*
G37*
G36*
X85749940Y-82945375D02*
X85832013Y-82979371D01*
X85832014Y-82979372D01*
X85832017Y-82979373D01*
X85905884Y-83028730D01*
X85905888Y-83028733D01*
X85968699Y-83091544D01*
X85968701Y-83091547D01*
X85968702Y-83091548D01*
X86018059Y-83165415D01*
X86018060Y-83165418D01*
X86018061Y-83165419D01*
X86052057Y-83247492D01*
X86069388Y-83334623D01*
X86069388Y-83423465D01*
X86052057Y-83510596D01*
X86027835Y-83569072D01*
X86018059Y-83592673D01*
X85984469Y-83642943D01*
X85968699Y-83666544D01*
X85905888Y-83729355D01*
X85905885Y-83729357D01*
X85905884Y-83729358D01*
X85832017Y-83778715D01*
X85832014Y-83778716D01*
X85832013Y-83778717D01*
X85749940Y-83812713D01*
X85662809Y-83830044D01*
X85573967Y-83830044D01*
X85486836Y-83812713D01*
X85404763Y-83778717D01*
X85404762Y-83778716D01*
X85404759Y-83778715D01*
X85330892Y-83729358D01*
X85330891Y-83729357D01*
X85330888Y-83729355D01*
X85268077Y-83666544D01*
X85252307Y-83642943D01*
X85218717Y-83592673D01*
X85208941Y-83569072D01*
X85184719Y-83510596D01*
X85167388Y-83423465D01*
X85167388Y-83334623D01*
X85184719Y-83247492D01*
X85218715Y-83165419D01*
X85218716Y-83165418D01*
X85218717Y-83165415D01*
X85268074Y-83091548D01*
X85268075Y-83091547D01*
X85268077Y-83091544D01*
X85330888Y-83028733D01*
X85330892Y-83028730D01*
X85404759Y-82979373D01*
X85404762Y-82979372D01*
X85404763Y-82979371D01*
X85486836Y-82945375D01*
X85573967Y-82928044D01*
X85662809Y-82928044D01*
X85749940Y-82945375D01*
X85749940Y-82945375D01*
G37*
G36*
X89814952Y-82921774D02*
X89897025Y-82955770D01*
X89897026Y-82955771D01*
X89897029Y-82955772D01*
X89970896Y-83005129D01*
X89970900Y-83005132D01*
X90033711Y-83067943D01*
X90033713Y-83067946D01*
X90033714Y-83067947D01*
X90083071Y-83141814D01*
X90083072Y-83141817D01*
X90083073Y-83141818D01*
X90117069Y-83223891D01*
X90134400Y-83311022D01*
X90134400Y-83399864D01*
X90117069Y-83486995D01*
X90083073Y-83569068D01*
X90083071Y-83569072D01*
X90033714Y-83642939D01*
X90033711Y-83642943D01*
X89970900Y-83705754D01*
X89970897Y-83705756D01*
X89970896Y-83705757D01*
X89897029Y-83755114D01*
X89897026Y-83755115D01*
X89897025Y-83755116D01*
X89814952Y-83789112D01*
X89727821Y-83806443D01*
X89638979Y-83806443D01*
X89551848Y-83789112D01*
X89469775Y-83755116D01*
X89469774Y-83755115D01*
X89469771Y-83755114D01*
X89395904Y-83705757D01*
X89395903Y-83705756D01*
X89395900Y-83705754D01*
X89333089Y-83642943D01*
X89333086Y-83642939D01*
X89283729Y-83569072D01*
X89283727Y-83569068D01*
X89249731Y-83486995D01*
X89232400Y-83399864D01*
X89232400Y-83311022D01*
X89249731Y-83223891D01*
X89283727Y-83141818D01*
X89283728Y-83141817D01*
X89283729Y-83141814D01*
X89333086Y-83067947D01*
X89333087Y-83067946D01*
X89333089Y-83067943D01*
X89395900Y-83005132D01*
X89395904Y-83005129D01*
X89469771Y-82955772D01*
X89469774Y-82955771D01*
X89469775Y-82955770D01*
X89551848Y-82921774D01*
X89638979Y-82904443D01*
X89727821Y-82904443D01*
X89814952Y-82921774D01*
X89814952Y-82921774D01*
G37*
G36*
X85732003Y-81507324D02*
X85814076Y-81541320D01*
X85814077Y-81541321D01*
X85814080Y-81541322D01*
X85887947Y-81590679D01*
X85887951Y-81590682D01*
X85950762Y-81653493D01*
X85950764Y-81653496D01*
X85950765Y-81653497D01*
X86000122Y-81727364D01*
X86000123Y-81727367D01*
X86000124Y-81727368D01*
X86034120Y-81809441D01*
X86051451Y-81896572D01*
X86051451Y-81985414D01*
X86034120Y-82072545D01*
X86000124Y-82154618D01*
X86000122Y-82154622D01*
X85980195Y-82184444D01*
X85950762Y-82228493D01*
X85887951Y-82291304D01*
X85887948Y-82291306D01*
X85887947Y-82291307D01*
X85814080Y-82340664D01*
X85814077Y-82340665D01*
X85814076Y-82340666D01*
X85732003Y-82374662D01*
X85644872Y-82391993D01*
X85556030Y-82391993D01*
X85468899Y-82374662D01*
X85386826Y-82340666D01*
X85386825Y-82340665D01*
X85386822Y-82340664D01*
X85312955Y-82291307D01*
X85312954Y-82291306D01*
X85312951Y-82291304D01*
X85250140Y-82228493D01*
X85220707Y-82184444D01*
X85200780Y-82154622D01*
X85200778Y-82154618D01*
X85166782Y-82072545D01*
X85149451Y-81985414D01*
X85149451Y-81896572D01*
X85166782Y-81809441D01*
X85200778Y-81727368D01*
X85200779Y-81727367D01*
X85200780Y-81727364D01*
X85250137Y-81653497D01*
X85250138Y-81653496D01*
X85250140Y-81653493D01*
X85312951Y-81590682D01*
X85312955Y-81590679D01*
X85386822Y-81541322D01*
X85386825Y-81541321D01*
X85386826Y-81541320D01*
X85468899Y-81507324D01*
X85556030Y-81489993D01*
X85644872Y-81489993D01*
X85732003Y-81507324D01*
X85732003Y-81507324D01*
G37*
G36*
X89814952Y-81463275D02*
X89897025Y-81497271D01*
X89897026Y-81497272D01*
X89897029Y-81497273D01*
X89962949Y-81541320D01*
X89970900Y-81546633D01*
X90033711Y-81609444D01*
X90033713Y-81609447D01*
X90033714Y-81609448D01*
X90083071Y-81683315D01*
X90083072Y-81683318D01*
X90083073Y-81683319D01*
X90117069Y-81765392D01*
X90134400Y-81852523D01*
X90134400Y-81941365D01*
X90117069Y-82028496D01*
X90098823Y-82072545D01*
X90083071Y-82110573D01*
X90053638Y-82154622D01*
X90033711Y-82184444D01*
X89970900Y-82247255D01*
X89970897Y-82247257D01*
X89970896Y-82247258D01*
X89897029Y-82296615D01*
X89897026Y-82296616D01*
X89897025Y-82296617D01*
X89814952Y-82330613D01*
X89727821Y-82347944D01*
X89638979Y-82347944D01*
X89551848Y-82330613D01*
X89469775Y-82296617D01*
X89469774Y-82296616D01*
X89469771Y-82296615D01*
X89395904Y-82247258D01*
X89395903Y-82247257D01*
X89395900Y-82247255D01*
X89333089Y-82184444D01*
X89313162Y-82154622D01*
X89283729Y-82110573D01*
X89267977Y-82072545D01*
X89249731Y-82028496D01*
X89232400Y-81941365D01*
X89232400Y-81852523D01*
X89249731Y-81765392D01*
X89283727Y-81683319D01*
X89283728Y-81683318D01*
X89283729Y-81683315D01*
X89333086Y-81609448D01*
X89333087Y-81609447D01*
X89333089Y-81609444D01*
X89395900Y-81546633D01*
X89403851Y-81541320D01*
X89469771Y-81497273D01*
X89469774Y-81497272D01*
X89469775Y-81497271D01*
X89551848Y-81463275D01*
X89638979Y-81445944D01*
X89727821Y-81445944D01*
X89814952Y-81463275D01*
X89814952Y-81463275D01*
G37*
G36*
X209736643Y-79953719D02*
X209802827Y-79960237D01*
X209892520Y-79987445D01*
X209972667Y-80011757D01*
X210080270Y-80069273D01*
X210129191Y-80095422D01*
X210164929Y-80124752D01*
X210266386Y-80208014D01*
X210347533Y-80306893D01*
X210378978Y-80345209D01*
X210378979Y-80345211D01*
X210462643Y-80501733D01*
X210462643Y-80501734D01*
X210514163Y-80671573D01*
X210531559Y-80848200D01*
X210514163Y-81024827D01*
X210479816Y-81138053D01*
X210462643Y-81194667D01*
X210388548Y-81333287D01*
X210378978Y-81351191D01*
X210349648Y-81386929D01*
X210266386Y-81488386D01*
X210164929Y-81571648D01*
X210129191Y-81600978D01*
X210129189Y-81600979D01*
X209972667Y-81684643D01*
X209916053Y-81701816D01*
X209802827Y-81736163D01*
X209736643Y-81742681D01*
X209670460Y-81749200D01*
X209581940Y-81749200D01*
X209515757Y-81742681D01*
X209449573Y-81736163D01*
X209336347Y-81701816D01*
X209279733Y-81684643D01*
X209123211Y-81600979D01*
X209123209Y-81600978D01*
X209087471Y-81571648D01*
X208986014Y-81488386D01*
X208902752Y-81386929D01*
X208873422Y-81351191D01*
X208863852Y-81333287D01*
X208789757Y-81194667D01*
X208772584Y-81138053D01*
X208738237Y-81024827D01*
X208720841Y-80848200D01*
X208738237Y-80671573D01*
X208789757Y-80501734D01*
X208789757Y-80501733D01*
X208873421Y-80345211D01*
X208873422Y-80345209D01*
X208904867Y-80306893D01*
X208986014Y-80208014D01*
X209087471Y-80124752D01*
X209123209Y-80095422D01*
X209172130Y-80069273D01*
X209279733Y-80011757D01*
X209359880Y-79987445D01*
X209449573Y-79960237D01*
X209515757Y-79953719D01*
X209581940Y-79947200D01*
X209670460Y-79947200D01*
X209736643Y-79953719D01*
X209736643Y-79953719D01*
G37*
G36*
X212276643Y-79953719D02*
X212342827Y-79960237D01*
X212432520Y-79987445D01*
X212512667Y-80011757D01*
X212620270Y-80069273D01*
X212669191Y-80095422D01*
X212704929Y-80124752D01*
X212806386Y-80208014D01*
X212887533Y-80306893D01*
X212918978Y-80345209D01*
X212918979Y-80345211D01*
X213002643Y-80501733D01*
X213002643Y-80501734D01*
X213054163Y-80671573D01*
X213071559Y-80848200D01*
X213054163Y-81024827D01*
X213019816Y-81138053D01*
X213002643Y-81194667D01*
X212928548Y-81333287D01*
X212918978Y-81351191D01*
X212889648Y-81386929D01*
X212806386Y-81488386D01*
X212704929Y-81571648D01*
X212669191Y-81600978D01*
X212669189Y-81600979D01*
X212512667Y-81684643D01*
X212456053Y-81701816D01*
X212342827Y-81736163D01*
X212276643Y-81742681D01*
X212210460Y-81749200D01*
X212121940Y-81749200D01*
X212055757Y-81742681D01*
X211989573Y-81736163D01*
X211876347Y-81701816D01*
X211819733Y-81684643D01*
X211663211Y-81600979D01*
X211663209Y-81600978D01*
X211627471Y-81571648D01*
X211526014Y-81488386D01*
X211442752Y-81386929D01*
X211413422Y-81351191D01*
X211403852Y-81333287D01*
X211329757Y-81194667D01*
X211312584Y-81138053D01*
X211278237Y-81024827D01*
X211260841Y-80848200D01*
X211278237Y-80671573D01*
X211329757Y-80501734D01*
X211329757Y-80501733D01*
X211413421Y-80345211D01*
X211413422Y-80345209D01*
X211444867Y-80306893D01*
X211526014Y-80208014D01*
X211627471Y-80124752D01*
X211663209Y-80095422D01*
X211712130Y-80069273D01*
X211819733Y-80011757D01*
X211899880Y-79987445D01*
X211989573Y-79960237D01*
X212055757Y-79953719D01*
X212121940Y-79947200D01*
X212210460Y-79947200D01*
X212276643Y-79953719D01*
X212276643Y-79953719D01*
G37*
G36*
X214816643Y-79953719D02*
X214882827Y-79960237D01*
X214972520Y-79987445D01*
X215052667Y-80011757D01*
X215160270Y-80069273D01*
X215209191Y-80095422D01*
X215244929Y-80124752D01*
X215346386Y-80208014D01*
X215427533Y-80306893D01*
X215458978Y-80345209D01*
X215458979Y-80345211D01*
X215542643Y-80501733D01*
X215542643Y-80501734D01*
X215594163Y-80671573D01*
X215611559Y-80848200D01*
X215594163Y-81024827D01*
X215559816Y-81138053D01*
X215542643Y-81194667D01*
X215468548Y-81333287D01*
X215458978Y-81351191D01*
X215429648Y-81386929D01*
X215346386Y-81488386D01*
X215244929Y-81571648D01*
X215209191Y-81600978D01*
X215209189Y-81600979D01*
X215052667Y-81684643D01*
X214996053Y-81701816D01*
X214882827Y-81736163D01*
X214816643Y-81742681D01*
X214750460Y-81749200D01*
X214661940Y-81749200D01*
X214595757Y-81742681D01*
X214529573Y-81736163D01*
X214416347Y-81701816D01*
X214359733Y-81684643D01*
X214203211Y-81600979D01*
X214203209Y-81600978D01*
X214167471Y-81571648D01*
X214066014Y-81488386D01*
X213982752Y-81386929D01*
X213953422Y-81351191D01*
X213943852Y-81333287D01*
X213869757Y-81194667D01*
X213852584Y-81138053D01*
X213818237Y-81024827D01*
X213800841Y-80848200D01*
X213818237Y-80671573D01*
X213869757Y-80501734D01*
X213869757Y-80501733D01*
X213953421Y-80345211D01*
X213953422Y-80345209D01*
X213984867Y-80306893D01*
X214066014Y-80208014D01*
X214167471Y-80124752D01*
X214203209Y-80095422D01*
X214252130Y-80069273D01*
X214359733Y-80011757D01*
X214439880Y-79987445D01*
X214529573Y-79960237D01*
X214595757Y-79953719D01*
X214661940Y-79947200D01*
X214750460Y-79947200D01*
X214816643Y-79953719D01*
X214816643Y-79953719D01*
G37*
G36*
X217356643Y-79953719D02*
X217422827Y-79960237D01*
X217512520Y-79987445D01*
X217592667Y-80011757D01*
X217700270Y-80069273D01*
X217749191Y-80095422D01*
X217784929Y-80124752D01*
X217886386Y-80208014D01*
X217967533Y-80306893D01*
X217998978Y-80345209D01*
X217998979Y-80345211D01*
X218082643Y-80501733D01*
X218082643Y-80501734D01*
X218134163Y-80671573D01*
X218151559Y-80848200D01*
X218134163Y-81024827D01*
X218099816Y-81138053D01*
X218082643Y-81194667D01*
X218008548Y-81333287D01*
X217998978Y-81351191D01*
X217969648Y-81386929D01*
X217886386Y-81488386D01*
X217784929Y-81571648D01*
X217749191Y-81600978D01*
X217749189Y-81600979D01*
X217592667Y-81684643D01*
X217536053Y-81701816D01*
X217422827Y-81736163D01*
X217356643Y-81742681D01*
X217290460Y-81749200D01*
X217201940Y-81749200D01*
X217135757Y-81742681D01*
X217069573Y-81736163D01*
X216956347Y-81701816D01*
X216899733Y-81684643D01*
X216743211Y-81600979D01*
X216743209Y-81600978D01*
X216707471Y-81571648D01*
X216606014Y-81488386D01*
X216522752Y-81386929D01*
X216493422Y-81351191D01*
X216483852Y-81333287D01*
X216409757Y-81194667D01*
X216392584Y-81138053D01*
X216358237Y-81024827D01*
X216340841Y-80848200D01*
X216358237Y-80671573D01*
X216409757Y-80501734D01*
X216409757Y-80501733D01*
X216493421Y-80345211D01*
X216493422Y-80345209D01*
X216524867Y-80306893D01*
X216606014Y-80208014D01*
X216707471Y-80124752D01*
X216743209Y-80095422D01*
X216792130Y-80069273D01*
X216899733Y-80011757D01*
X216979880Y-79987445D01*
X217069573Y-79960237D01*
X217135757Y-79953719D01*
X217201940Y-79947200D01*
X217290460Y-79947200D01*
X217356643Y-79953719D01*
X217356643Y-79953719D01*
G37*
G36*
X220687200Y-81749200D02*
X218885200Y-81749200D01*
X218885200Y-79947200D01*
X220687200Y-79947200D01*
X220687200Y-81749200D01*
X220687200Y-81749200D01*
G37*
G36*
X85714066Y-80069273D02*
X85796139Y-80103269D01*
X85796140Y-80103270D01*
X85796143Y-80103271D01*
X85867491Y-80150945D01*
X85870014Y-80152631D01*
X85932825Y-80215442D01*
X85932827Y-80215445D01*
X85932828Y-80215446D01*
X85982185Y-80289313D01*
X85982186Y-80289316D01*
X85982187Y-80289317D01*
X86016183Y-80371390D01*
X86033514Y-80458521D01*
X86033514Y-80547363D01*
X86016183Y-80634494D01*
X86000824Y-80671573D01*
X85982185Y-80716571D01*
X85975921Y-80725945D01*
X85932825Y-80790442D01*
X85870014Y-80853253D01*
X85870011Y-80853255D01*
X85870010Y-80853256D01*
X85796143Y-80902613D01*
X85796140Y-80902614D01*
X85796139Y-80902615D01*
X85714066Y-80936611D01*
X85626935Y-80953942D01*
X85538093Y-80953942D01*
X85450962Y-80936611D01*
X85368889Y-80902615D01*
X85368888Y-80902614D01*
X85368885Y-80902613D01*
X85295018Y-80853256D01*
X85295017Y-80853255D01*
X85295014Y-80853253D01*
X85232203Y-80790442D01*
X85189107Y-80725945D01*
X85182843Y-80716571D01*
X85164204Y-80671573D01*
X85148845Y-80634494D01*
X85131514Y-80547363D01*
X85131514Y-80458521D01*
X85148845Y-80371390D01*
X85182841Y-80289317D01*
X85182842Y-80289316D01*
X85182843Y-80289313D01*
X85232200Y-80215446D01*
X85232201Y-80215445D01*
X85232203Y-80215442D01*
X85295014Y-80152631D01*
X85297537Y-80150945D01*
X85368885Y-80103271D01*
X85368888Y-80103270D01*
X85368889Y-80103269D01*
X85450962Y-80069273D01*
X85538093Y-80051942D01*
X85626935Y-80051942D01*
X85714066Y-80069273D01*
X85714066Y-80069273D01*
G37*
G36*
X89814952Y-80004776D02*
X89897025Y-80038772D01*
X89897026Y-80038773D01*
X89897029Y-80038774D01*
X89970896Y-80088131D01*
X89970900Y-80088134D01*
X90033711Y-80150945D01*
X90033713Y-80150948D01*
X90033714Y-80150949D01*
X90083071Y-80224816D01*
X90083072Y-80224819D01*
X90083073Y-80224820D01*
X90117069Y-80306893D01*
X90134400Y-80394024D01*
X90134400Y-80482866D01*
X90117069Y-80569997D01*
X90090353Y-80634494D01*
X90083071Y-80652074D01*
X90039975Y-80716571D01*
X90033711Y-80725945D01*
X89970900Y-80788756D01*
X89970897Y-80788758D01*
X89970896Y-80788759D01*
X89897029Y-80838116D01*
X89897026Y-80838117D01*
X89897025Y-80838118D01*
X89814952Y-80872114D01*
X89727821Y-80889445D01*
X89638979Y-80889445D01*
X89551848Y-80872114D01*
X89469775Y-80838118D01*
X89469774Y-80838117D01*
X89469771Y-80838116D01*
X89395904Y-80788759D01*
X89395903Y-80788758D01*
X89395900Y-80788756D01*
X89333089Y-80725945D01*
X89326825Y-80716571D01*
X89283729Y-80652074D01*
X89276447Y-80634494D01*
X89249731Y-80569997D01*
X89232400Y-80482866D01*
X89232400Y-80394024D01*
X89249731Y-80306893D01*
X89283727Y-80224820D01*
X89283728Y-80224819D01*
X89283729Y-80224816D01*
X89333086Y-80150949D01*
X89333087Y-80150948D01*
X89333089Y-80150945D01*
X89395900Y-80088134D01*
X89395904Y-80088131D01*
X89469771Y-80038774D01*
X89469774Y-80038773D01*
X89469775Y-80038772D01*
X89551848Y-80004776D01*
X89638979Y-79987445D01*
X89727821Y-79987445D01*
X89814952Y-80004776D01*
X89814952Y-80004776D01*
G37*
G36*
X168630837Y-69451350D02*
X168630839Y-69451351D01*
X168630840Y-69451351D01*
X168954051Y-69585229D01*
X169087509Y-69674403D01*
X169244937Y-69779593D01*
X169492307Y-70026963D01*
X169492309Y-70026966D01*
X169686671Y-70317849D01*
X169820549Y-70641060D01*
X169820550Y-70641063D01*
X169888800Y-70984178D01*
X169888800Y-71334022D01*
X169851301Y-71522543D01*
X169820549Y-71677140D01*
X169686671Y-72000351D01*
X169686670Y-72000352D01*
X169492307Y-72291237D01*
X169244937Y-72538607D01*
X169244934Y-72538609D01*
X168954051Y-72732971D01*
X168630840Y-72866849D01*
X168630839Y-72866849D01*
X168630837Y-72866850D01*
X168287722Y-72935100D01*
X167937878Y-72935100D01*
X167594763Y-72866850D01*
X167594761Y-72866849D01*
X167594760Y-72866849D01*
X167271549Y-72732971D01*
X166980666Y-72538609D01*
X166980663Y-72538607D01*
X166733293Y-72291237D01*
X166538930Y-72000352D01*
X166538929Y-72000351D01*
X166405051Y-71677140D01*
X166374300Y-71522543D01*
X166336800Y-71334022D01*
X166336800Y-70984178D01*
X166405050Y-70641063D01*
X166405051Y-70641060D01*
X166538929Y-70317849D01*
X166733291Y-70026966D01*
X166733293Y-70026963D01*
X166980663Y-69779593D01*
X167138091Y-69674403D01*
X167271549Y-69585229D01*
X167594760Y-69451351D01*
X167594761Y-69451351D01*
X167594763Y-69451350D01*
X167937878Y-69383100D01*
X168287722Y-69383100D01*
X168630837Y-69451350D01*
X168630837Y-69451350D01*
G37*
G36*
X104946243Y-69960982D02*
X105173003Y-70054909D01*
X105242966Y-70101657D01*
X105377079Y-70191268D01*
X105550632Y-70364821D01*
X105632224Y-70486933D01*
X105686991Y-70568897D01*
X105780918Y-70795657D01*
X105828800Y-71036378D01*
X105828800Y-71281822D01*
X105780918Y-71522543D01*
X105686991Y-71749303D01*
X105632224Y-71831267D01*
X105550632Y-71953379D01*
X105377079Y-72126932D01*
X105254967Y-72208524D01*
X105173003Y-72263291D01*
X104946243Y-72357218D01*
X104705522Y-72405100D01*
X104460078Y-72405100D01*
X104219357Y-72357218D01*
X103992597Y-72263291D01*
X103910633Y-72208524D01*
X103788521Y-72126932D01*
X103614968Y-71953379D01*
X103533376Y-71831267D01*
X103478609Y-71749303D01*
X103384682Y-71522543D01*
X103336800Y-71281822D01*
X103336800Y-71036378D01*
X103384682Y-70795657D01*
X103478609Y-70568897D01*
X103533376Y-70486933D01*
X103614968Y-70364821D01*
X103788521Y-70191268D01*
X103922634Y-70101657D01*
X103992597Y-70054909D01*
X104219357Y-69960982D01*
X104460078Y-69913100D01*
X104705522Y-69913100D01*
X104946243Y-69960982D01*
X104946243Y-69960982D01*
G37*
G36*
X186114351Y-69572045D02*
X186196424Y-69606041D01*
X186196425Y-69606042D01*
X186196428Y-69606043D01*
X186270295Y-69655400D01*
X186270299Y-69655403D01*
X186333110Y-69718214D01*
X186333112Y-69718217D01*
X186333113Y-69718218D01*
X186382470Y-69792085D01*
X186382471Y-69792088D01*
X186382472Y-69792089D01*
X186416468Y-69874162D01*
X186433799Y-69961293D01*
X186433799Y-70050135D01*
X186416468Y-70137266D01*
X186394099Y-70191268D01*
X186382470Y-70219343D01*
X186336791Y-70287705D01*
X186333110Y-70293214D01*
X186270299Y-70356025D01*
X186270296Y-70356027D01*
X186270295Y-70356028D01*
X186196428Y-70405385D01*
X186196425Y-70405386D01*
X186196424Y-70405387D01*
X186114351Y-70439383D01*
X186027220Y-70456714D01*
X185938378Y-70456714D01*
X185851247Y-70439383D01*
X185769174Y-70405387D01*
X185769173Y-70405386D01*
X185769170Y-70405385D01*
X185695303Y-70356028D01*
X185695302Y-70356027D01*
X185695299Y-70356025D01*
X185632488Y-70293214D01*
X185628807Y-70287705D01*
X185583128Y-70219343D01*
X185571499Y-70191268D01*
X185549130Y-70137266D01*
X185531799Y-70050135D01*
X185531799Y-69961293D01*
X185549130Y-69874162D01*
X185583126Y-69792089D01*
X185583127Y-69792088D01*
X185583128Y-69792085D01*
X185632485Y-69718218D01*
X185632486Y-69718217D01*
X185632488Y-69718214D01*
X185695299Y-69655403D01*
X185695303Y-69655400D01*
X185769170Y-69606043D01*
X185769173Y-69606042D01*
X185769174Y-69606041D01*
X185851247Y-69572045D01*
X185938378Y-69554714D01*
X186027220Y-69554714D01*
X186114351Y-69572045D01*
X186114351Y-69572045D01*
G37*
G36*
X61146642Y-68650718D02*
X61212827Y-68657237D01*
X61326053Y-68691584D01*
X61382667Y-68708757D01*
X61480132Y-68760854D01*
X61539191Y-68792422D01*
X61569307Y-68817138D01*
X61676386Y-68905014D01*
X61738657Y-68980893D01*
X61788978Y-69042209D01*
X61788979Y-69042211D01*
X61872643Y-69198733D01*
X61872643Y-69198734D01*
X61924163Y-69368573D01*
X61941559Y-69545200D01*
X61924163Y-69721827D01*
X61902849Y-69792089D01*
X61872643Y-69891667D01*
X61835426Y-69961294D01*
X61788978Y-70048191D01*
X61759648Y-70083929D01*
X61676386Y-70185386D01*
X61574929Y-70268648D01*
X61539191Y-70297978D01*
X61539189Y-70297979D01*
X61382667Y-70381643D01*
X61326053Y-70398816D01*
X61212827Y-70433163D01*
X61149683Y-70439382D01*
X61080460Y-70446200D01*
X60991940Y-70446200D01*
X60922717Y-70439382D01*
X60859573Y-70433163D01*
X60746347Y-70398816D01*
X60689733Y-70381643D01*
X60533211Y-70297979D01*
X60533209Y-70297978D01*
X60497471Y-70268648D01*
X60396014Y-70185386D01*
X60312752Y-70083929D01*
X60283422Y-70048191D01*
X60236974Y-69961294D01*
X60199757Y-69891667D01*
X60169551Y-69792089D01*
X60148237Y-69721827D01*
X60130841Y-69545200D01*
X60148237Y-69368573D01*
X60199757Y-69198734D01*
X60199757Y-69198733D01*
X60283421Y-69042211D01*
X60283422Y-69042209D01*
X60333743Y-68980893D01*
X60396014Y-68905014D01*
X60503093Y-68817138D01*
X60533209Y-68792422D01*
X60592268Y-68760854D01*
X60689733Y-68708757D01*
X60746347Y-68691584D01*
X60859573Y-68657237D01*
X60925758Y-68650718D01*
X60991940Y-68644200D01*
X61080460Y-68644200D01*
X61146642Y-68650718D01*
X61146642Y-68650718D01*
G37*
G36*
X58606642Y-68650718D02*
X58672827Y-68657237D01*
X58786053Y-68691584D01*
X58842667Y-68708757D01*
X58940132Y-68760854D01*
X58999191Y-68792422D01*
X59029307Y-68817138D01*
X59136386Y-68905014D01*
X59198657Y-68980893D01*
X59248978Y-69042209D01*
X59248979Y-69042211D01*
X59332643Y-69198733D01*
X59332643Y-69198734D01*
X59384163Y-69368573D01*
X59401559Y-69545200D01*
X59384163Y-69721827D01*
X59362849Y-69792089D01*
X59332643Y-69891667D01*
X59295426Y-69961294D01*
X59248978Y-70048191D01*
X59219648Y-70083929D01*
X59136386Y-70185386D01*
X59034929Y-70268648D01*
X58999191Y-70297978D01*
X58999189Y-70297979D01*
X58842667Y-70381643D01*
X58786053Y-70398816D01*
X58672827Y-70433163D01*
X58609683Y-70439382D01*
X58540460Y-70446200D01*
X58451940Y-70446200D01*
X58382717Y-70439382D01*
X58319573Y-70433163D01*
X58206347Y-70398816D01*
X58149733Y-70381643D01*
X57993211Y-70297979D01*
X57993209Y-70297978D01*
X57957471Y-70268648D01*
X57856014Y-70185386D01*
X57772752Y-70083929D01*
X57743422Y-70048191D01*
X57696974Y-69961294D01*
X57659757Y-69891667D01*
X57629551Y-69792089D01*
X57608237Y-69721827D01*
X57590841Y-69545200D01*
X57608237Y-69368573D01*
X57659757Y-69198734D01*
X57659757Y-69198733D01*
X57743421Y-69042211D01*
X57743422Y-69042209D01*
X57793743Y-68980893D01*
X57856014Y-68905014D01*
X57963093Y-68817138D01*
X57993209Y-68792422D01*
X58052268Y-68760854D01*
X58149733Y-68708757D01*
X58206347Y-68691584D01*
X58319573Y-68657237D01*
X58385758Y-68650718D01*
X58451940Y-68644200D01*
X58540460Y-68644200D01*
X58606642Y-68650718D01*
X58606642Y-68650718D01*
G37*
G36*
X66226642Y-68650718D02*
X66292827Y-68657237D01*
X66406053Y-68691584D01*
X66462667Y-68708757D01*
X66560132Y-68760854D01*
X66619191Y-68792422D01*
X66649307Y-68817138D01*
X66756386Y-68905014D01*
X66818657Y-68980893D01*
X66868978Y-69042209D01*
X66868979Y-69042211D01*
X66952643Y-69198733D01*
X66952643Y-69198734D01*
X67004163Y-69368573D01*
X67021559Y-69545200D01*
X67004163Y-69721827D01*
X66982849Y-69792089D01*
X66952643Y-69891667D01*
X66915426Y-69961294D01*
X66868978Y-70048191D01*
X66839648Y-70083929D01*
X66756386Y-70185386D01*
X66654929Y-70268648D01*
X66619191Y-70297978D01*
X66619189Y-70297979D01*
X66462667Y-70381643D01*
X66406053Y-70398816D01*
X66292827Y-70433163D01*
X66229683Y-70439382D01*
X66160460Y-70446200D01*
X66071940Y-70446200D01*
X66002717Y-70439382D01*
X65939573Y-70433163D01*
X65826347Y-70398816D01*
X65769733Y-70381643D01*
X65613211Y-70297979D01*
X65613209Y-70297978D01*
X65577471Y-70268648D01*
X65476014Y-70185386D01*
X65392752Y-70083929D01*
X65363422Y-70048191D01*
X65316974Y-69961294D01*
X65279757Y-69891667D01*
X65249551Y-69792089D01*
X65228237Y-69721827D01*
X65210841Y-69545200D01*
X65228237Y-69368573D01*
X65279757Y-69198734D01*
X65279757Y-69198733D01*
X65363421Y-69042211D01*
X65363422Y-69042209D01*
X65413743Y-68980893D01*
X65476014Y-68905014D01*
X65583093Y-68817138D01*
X65613209Y-68792422D01*
X65672268Y-68760854D01*
X65769733Y-68708757D01*
X65826347Y-68691584D01*
X65939573Y-68657237D01*
X66005758Y-68650718D01*
X66071940Y-68644200D01*
X66160460Y-68644200D01*
X66226642Y-68650718D01*
X66226642Y-68650718D01*
G37*
G36*
X63686642Y-68650718D02*
X63752827Y-68657237D01*
X63866053Y-68691584D01*
X63922667Y-68708757D01*
X64020132Y-68760854D01*
X64079191Y-68792422D01*
X64109307Y-68817138D01*
X64216386Y-68905014D01*
X64278657Y-68980893D01*
X64328978Y-69042209D01*
X64328979Y-69042211D01*
X64412643Y-69198733D01*
X64412643Y-69198734D01*
X64464163Y-69368573D01*
X64481559Y-69545200D01*
X64464163Y-69721827D01*
X64442849Y-69792089D01*
X64412643Y-69891667D01*
X64375426Y-69961294D01*
X64328978Y-70048191D01*
X64299648Y-70083929D01*
X64216386Y-70185386D01*
X64114929Y-70268648D01*
X64079191Y-70297978D01*
X64079189Y-70297979D01*
X63922667Y-70381643D01*
X63866053Y-70398816D01*
X63752827Y-70433163D01*
X63689683Y-70439382D01*
X63620460Y-70446200D01*
X63531940Y-70446200D01*
X63462717Y-70439382D01*
X63399573Y-70433163D01*
X63286347Y-70398816D01*
X63229733Y-70381643D01*
X63073211Y-70297979D01*
X63073209Y-70297978D01*
X63037471Y-70268648D01*
X62936014Y-70185386D01*
X62852752Y-70083929D01*
X62823422Y-70048191D01*
X62776974Y-69961294D01*
X62739757Y-69891667D01*
X62709551Y-69792089D01*
X62688237Y-69721827D01*
X62670841Y-69545200D01*
X62688237Y-69368573D01*
X62739757Y-69198734D01*
X62739757Y-69198733D01*
X62823421Y-69042211D01*
X62823422Y-69042209D01*
X62873743Y-68980893D01*
X62936014Y-68905014D01*
X63043093Y-68817138D01*
X63073209Y-68792422D01*
X63132268Y-68760854D01*
X63229733Y-68708757D01*
X63286347Y-68691584D01*
X63399573Y-68657237D01*
X63465758Y-68650718D01*
X63531940Y-68644200D01*
X63620460Y-68644200D01*
X63686642Y-68650718D01*
X63686642Y-68650718D01*
G37*
G36*
X56857200Y-70446200D02*
X55055200Y-70446200D01*
X55055200Y-68644200D01*
X56857200Y-68644200D01*
X56857200Y-70446200D01*
X56857200Y-70446200D01*
G37*
G36*
X190338906Y-69454363D02*
X190420979Y-69488359D01*
X190420980Y-69488360D01*
X190420983Y-69488361D01*
X190494850Y-69537718D01*
X190494854Y-69537721D01*
X190557665Y-69600532D01*
X190557667Y-69600535D01*
X190557668Y-69600536D01*
X190607025Y-69674403D01*
X190607026Y-69674406D01*
X190607027Y-69674407D01*
X190641023Y-69756480D01*
X190658354Y-69843611D01*
X190658354Y-69932453D01*
X190641023Y-70019584D01*
X190607027Y-70101657D01*
X190607025Y-70101661D01*
X190583234Y-70137266D01*
X190557665Y-70175532D01*
X190494854Y-70238343D01*
X190494851Y-70238345D01*
X190494850Y-70238346D01*
X190420983Y-70287703D01*
X190420980Y-70287704D01*
X190420979Y-70287705D01*
X190338906Y-70321701D01*
X190251775Y-70339032D01*
X190162933Y-70339032D01*
X190075802Y-70321701D01*
X189993729Y-70287705D01*
X189993728Y-70287704D01*
X189993725Y-70287703D01*
X189919858Y-70238346D01*
X189919857Y-70238345D01*
X189919854Y-70238343D01*
X189857043Y-70175532D01*
X189831474Y-70137266D01*
X189807683Y-70101661D01*
X189807681Y-70101657D01*
X189773685Y-70019584D01*
X189756354Y-69932453D01*
X189756354Y-69843611D01*
X189773685Y-69756480D01*
X189807681Y-69674407D01*
X189807682Y-69674406D01*
X189807683Y-69674403D01*
X189857040Y-69600536D01*
X189857041Y-69600535D01*
X189857043Y-69600532D01*
X189919854Y-69537721D01*
X189919858Y-69537718D01*
X189993725Y-69488361D01*
X189993728Y-69488360D01*
X189993729Y-69488359D01*
X190075802Y-69454363D01*
X190162933Y-69437032D01*
X190251775Y-69437032D01*
X190338906Y-69454363D01*
X190338906Y-69454363D01*
G37*
G36*
X186114351Y-68113556D02*
X186196424Y-68147552D01*
X186196425Y-68147553D01*
X186196428Y-68147554D01*
X186270295Y-68196911D01*
X186270299Y-68196914D01*
X186333110Y-68259725D01*
X186333112Y-68259728D01*
X186333113Y-68259729D01*
X186382470Y-68333596D01*
X186382471Y-68333599D01*
X186382472Y-68333600D01*
X186416468Y-68415673D01*
X186433799Y-68502804D01*
X186433799Y-68591646D01*
X186416468Y-68678777D01*
X186385174Y-68754327D01*
X186382470Y-68760854D01*
X186333113Y-68834721D01*
X186333110Y-68834725D01*
X186270299Y-68897536D01*
X186270296Y-68897538D01*
X186270295Y-68897539D01*
X186196428Y-68946896D01*
X186196425Y-68946897D01*
X186196424Y-68946898D01*
X186114351Y-68980894D01*
X186027220Y-68998225D01*
X185938378Y-68998225D01*
X185851247Y-68980894D01*
X185769174Y-68946898D01*
X185769173Y-68946897D01*
X185769170Y-68946896D01*
X185695303Y-68897539D01*
X185695302Y-68897538D01*
X185695299Y-68897536D01*
X185632488Y-68834725D01*
X185632485Y-68834721D01*
X185583128Y-68760854D01*
X185580424Y-68754327D01*
X185549130Y-68678777D01*
X185531799Y-68591646D01*
X185531799Y-68502804D01*
X185549130Y-68415673D01*
X185583126Y-68333600D01*
X185583127Y-68333599D01*
X185583128Y-68333596D01*
X185632485Y-68259729D01*
X185632486Y-68259728D01*
X185632488Y-68259725D01*
X185695299Y-68196914D01*
X185695303Y-68196911D01*
X185769170Y-68147554D01*
X185769173Y-68147553D01*
X185769174Y-68147552D01*
X185851247Y-68113556D01*
X185938378Y-68096225D01*
X186027220Y-68096225D01*
X186114351Y-68113556D01*
X186114351Y-68113556D01*
G37*
G36*
X190306225Y-68033158D02*
X190388298Y-68067154D01*
X190388299Y-68067155D01*
X190388302Y-68067156D01*
X190457745Y-68113557D01*
X190462173Y-68116516D01*
X190524984Y-68179327D01*
X190524986Y-68179330D01*
X190524987Y-68179331D01*
X190574344Y-68253198D01*
X190574345Y-68253201D01*
X190574346Y-68253202D01*
X190608342Y-68335275D01*
X190625673Y-68422406D01*
X190625673Y-68511248D01*
X190608342Y-68598379D01*
X190574346Y-68680452D01*
X190574344Y-68680456D01*
X190524987Y-68754323D01*
X190524984Y-68754327D01*
X190462173Y-68817138D01*
X190462170Y-68817140D01*
X190462169Y-68817141D01*
X190388302Y-68866498D01*
X190388299Y-68866499D01*
X190388298Y-68866500D01*
X190306225Y-68900496D01*
X190219094Y-68917827D01*
X190130252Y-68917827D01*
X190043121Y-68900496D01*
X189961048Y-68866500D01*
X189961047Y-68866499D01*
X189961044Y-68866498D01*
X189887177Y-68817141D01*
X189887176Y-68817140D01*
X189887173Y-68817138D01*
X189824362Y-68754327D01*
X189824359Y-68754323D01*
X189775002Y-68680456D01*
X189775000Y-68680452D01*
X189741004Y-68598379D01*
X189723673Y-68511248D01*
X189723673Y-68422406D01*
X189741004Y-68335275D01*
X189775000Y-68253202D01*
X189775001Y-68253201D01*
X189775002Y-68253198D01*
X189824359Y-68179331D01*
X189824360Y-68179330D01*
X189824362Y-68179327D01*
X189887173Y-68116516D01*
X189891601Y-68113557D01*
X189961044Y-68067156D01*
X189961047Y-68067155D01*
X189961048Y-68067154D01*
X190043121Y-68033158D01*
X190130252Y-68015827D01*
X190219094Y-68015827D01*
X190306225Y-68033158D01*
X190306225Y-68033158D01*
G37*
G36*
X116269677Y-67046065D02*
X116307364Y-67057498D01*
X116342103Y-67076066D01*
X116372548Y-67101052D01*
X116397534Y-67131497D01*
X116416102Y-67166236D01*
X116427535Y-67203923D01*
X116432000Y-67249261D01*
X116432000Y-68335939D01*
X116427535Y-68381277D01*
X116416102Y-68418964D01*
X116397534Y-68453703D01*
X116372548Y-68484148D01*
X116342103Y-68509134D01*
X116307364Y-68527702D01*
X116269677Y-68539135D01*
X116224339Y-68543600D01*
X115387661Y-68543600D01*
X115342323Y-68539135D01*
X115304636Y-68527702D01*
X115269897Y-68509134D01*
X115239452Y-68484148D01*
X115214466Y-68453703D01*
X115195898Y-68418964D01*
X115184465Y-68381277D01*
X115180000Y-68335939D01*
X115180000Y-67249261D01*
X115184465Y-67203923D01*
X115195898Y-67166236D01*
X115214466Y-67131497D01*
X115239452Y-67101052D01*
X115269897Y-67076066D01*
X115304636Y-67057498D01*
X115342323Y-67046065D01*
X115387661Y-67041600D01*
X116224339Y-67041600D01*
X116269677Y-67046065D01*
X116269677Y-67046065D01*
G37*
G36*
X118319677Y-67046065D02*
X118357364Y-67057498D01*
X118392103Y-67076066D01*
X118422548Y-67101052D01*
X118447534Y-67131497D01*
X118466102Y-67166236D01*
X118477535Y-67203923D01*
X118482000Y-67249261D01*
X118482000Y-68335939D01*
X118477535Y-68381277D01*
X118466102Y-68418964D01*
X118447534Y-68453703D01*
X118422548Y-68484148D01*
X118392103Y-68509134D01*
X118357364Y-68527702D01*
X118319677Y-68539135D01*
X118274339Y-68543600D01*
X117437661Y-68543600D01*
X117392323Y-68539135D01*
X117354636Y-68527702D01*
X117319897Y-68509134D01*
X117289452Y-68484148D01*
X117264466Y-68453703D01*
X117245898Y-68418964D01*
X117234465Y-68381277D01*
X117230000Y-68335939D01*
X117230000Y-67249261D01*
X117234465Y-67203923D01*
X117245898Y-67166236D01*
X117264466Y-67131497D01*
X117289452Y-67101052D01*
X117319897Y-67076066D01*
X117354636Y-67057498D01*
X117392323Y-67046065D01*
X117437661Y-67041600D01*
X118274339Y-67041600D01*
X118319677Y-67046065D01*
X118319677Y-67046065D01*
G37*
G36*
X186114351Y-66655067D02*
X186196424Y-66689063D01*
X186196425Y-66689064D01*
X186196428Y-66689065D01*
X186270295Y-66738422D01*
X186270299Y-66738425D01*
X186333110Y-66801236D01*
X186333112Y-66801239D01*
X186333113Y-66801240D01*
X186382470Y-66875107D01*
X186382471Y-66875110D01*
X186382472Y-66875111D01*
X186416468Y-66957184D01*
X186433799Y-67044315D01*
X186433799Y-67133157D01*
X186416468Y-67220288D01*
X186382472Y-67302361D01*
X186382470Y-67302365D01*
X186333113Y-67376232D01*
X186333110Y-67376236D01*
X186270299Y-67439047D01*
X186270296Y-67439049D01*
X186270295Y-67439050D01*
X186196428Y-67488407D01*
X186196425Y-67488408D01*
X186196424Y-67488409D01*
X186114351Y-67522405D01*
X186027220Y-67539736D01*
X185938378Y-67539736D01*
X185851247Y-67522405D01*
X185769174Y-67488409D01*
X185769173Y-67488408D01*
X185769170Y-67488407D01*
X185695303Y-67439050D01*
X185695302Y-67439049D01*
X185695299Y-67439047D01*
X185632488Y-67376236D01*
X185632485Y-67376232D01*
X185583128Y-67302365D01*
X185583126Y-67302361D01*
X185549130Y-67220288D01*
X185531799Y-67133157D01*
X185531799Y-67044315D01*
X185549130Y-66957184D01*
X185583126Y-66875111D01*
X185583127Y-66875110D01*
X185583128Y-66875107D01*
X185632485Y-66801240D01*
X185632486Y-66801239D01*
X185632488Y-66801236D01*
X185695299Y-66738425D01*
X185695303Y-66738422D01*
X185769170Y-66689065D01*
X185769173Y-66689064D01*
X185769174Y-66689063D01*
X185851247Y-66655067D01*
X185938378Y-66637736D01*
X186027220Y-66637736D01*
X186114351Y-66655067D01*
X186114351Y-66655067D01*
G37*
G36*
X190273544Y-66611953D02*
X190355617Y-66645949D01*
X190355618Y-66645950D01*
X190355621Y-66645951D01*
X190429488Y-66695308D01*
X190429492Y-66695311D01*
X190492303Y-66758122D01*
X190492305Y-66758125D01*
X190492306Y-66758126D01*
X190541663Y-66831993D01*
X190541664Y-66831996D01*
X190541665Y-66831997D01*
X190575661Y-66914070D01*
X190592992Y-67001201D01*
X190592992Y-67090043D01*
X190575661Y-67177174D01*
X190557802Y-67220288D01*
X190541663Y-67259251D01*
X190505232Y-67313773D01*
X190492303Y-67333122D01*
X190429492Y-67395933D01*
X190429489Y-67395935D01*
X190429488Y-67395936D01*
X190355621Y-67445293D01*
X190355618Y-67445294D01*
X190355617Y-67445295D01*
X190273544Y-67479291D01*
X190186413Y-67496622D01*
X190097571Y-67496622D01*
X190010440Y-67479291D01*
X189928367Y-67445295D01*
X189928366Y-67445294D01*
X189928363Y-67445293D01*
X189854496Y-67395936D01*
X189854495Y-67395935D01*
X189854492Y-67395933D01*
X189791681Y-67333122D01*
X189778752Y-67313773D01*
X189742321Y-67259251D01*
X189726182Y-67220288D01*
X189708323Y-67177174D01*
X189690992Y-67090043D01*
X189690992Y-67001201D01*
X189708323Y-66914070D01*
X189742319Y-66831997D01*
X189742320Y-66831996D01*
X189742321Y-66831993D01*
X189791678Y-66758126D01*
X189791679Y-66758125D01*
X189791681Y-66758122D01*
X189854492Y-66695311D01*
X189854496Y-66695308D01*
X189928363Y-66645951D01*
X189928366Y-66645950D01*
X189928367Y-66645949D01*
X190010440Y-66611953D01*
X190097571Y-66594622D01*
X190186413Y-66594622D01*
X190273544Y-66611953D01*
X190273544Y-66611953D01*
G37*
G36*
X171712842Y-64459718D02*
X171779027Y-64466237D01*
X171889449Y-64499733D01*
X171948867Y-64517757D01*
X172057705Y-64575933D01*
X172105391Y-64601422D01*
X172141129Y-64630752D01*
X172242586Y-64714014D01*
X172325848Y-64815471D01*
X172355178Y-64851209D01*
X172355179Y-64851211D01*
X172438843Y-65007733D01*
X172456016Y-65064347D01*
X172490363Y-65177573D01*
X172507759Y-65354200D01*
X172490363Y-65530827D01*
X172469689Y-65598979D01*
X172438843Y-65700667D01*
X172380208Y-65810363D01*
X172355178Y-65857191D01*
X172325848Y-65892929D01*
X172242586Y-65994386D01*
X172164967Y-66058085D01*
X172105391Y-66106978D01*
X172105389Y-66106979D01*
X171948867Y-66190643D01*
X171892253Y-66207816D01*
X171779027Y-66242163D01*
X171712843Y-66248681D01*
X171646660Y-66255200D01*
X171558140Y-66255200D01*
X171491957Y-66248681D01*
X171425773Y-66242163D01*
X171312547Y-66207816D01*
X171255933Y-66190643D01*
X171099411Y-66106979D01*
X171099409Y-66106978D01*
X171039833Y-66058085D01*
X170962214Y-65994386D01*
X170878952Y-65892929D01*
X170849622Y-65857191D01*
X170824592Y-65810363D01*
X170765957Y-65700667D01*
X170735111Y-65598979D01*
X170714437Y-65530827D01*
X170697041Y-65354200D01*
X170714437Y-65177573D01*
X170748784Y-65064347D01*
X170765957Y-65007733D01*
X170849621Y-64851211D01*
X170849622Y-64851209D01*
X170878952Y-64815471D01*
X170962214Y-64714014D01*
X171063671Y-64630752D01*
X171099409Y-64601422D01*
X171147095Y-64575933D01*
X171255933Y-64517757D01*
X171315351Y-64499733D01*
X171425773Y-64466237D01*
X171491958Y-64459718D01*
X171558140Y-64453200D01*
X171646660Y-64453200D01*
X171712842Y-64459718D01*
X171712842Y-64459718D01*
G37*
G36*
X151392842Y-64459718D02*
X151459027Y-64466237D01*
X151569449Y-64499733D01*
X151628867Y-64517757D01*
X151737705Y-64575933D01*
X151785391Y-64601422D01*
X151821129Y-64630752D01*
X151922586Y-64714014D01*
X152005848Y-64815471D01*
X152035178Y-64851209D01*
X152035179Y-64851211D01*
X152118843Y-65007733D01*
X152136016Y-65064347D01*
X152170363Y-65177573D01*
X152187759Y-65354200D01*
X152170363Y-65530827D01*
X152149689Y-65598979D01*
X152118843Y-65700667D01*
X152060208Y-65810363D01*
X152035178Y-65857191D01*
X152005848Y-65892929D01*
X151922586Y-65994386D01*
X151844967Y-66058085D01*
X151785391Y-66106978D01*
X151785389Y-66106979D01*
X151628867Y-66190643D01*
X151572253Y-66207816D01*
X151459027Y-66242163D01*
X151392843Y-66248681D01*
X151326660Y-66255200D01*
X151238140Y-66255200D01*
X151171957Y-66248681D01*
X151105773Y-66242163D01*
X150992547Y-66207816D01*
X150935933Y-66190643D01*
X150779411Y-66106979D01*
X150779409Y-66106978D01*
X150719833Y-66058085D01*
X150642214Y-65994386D01*
X150558952Y-65892929D01*
X150529622Y-65857191D01*
X150504592Y-65810363D01*
X150445957Y-65700667D01*
X150415111Y-65598979D01*
X150394437Y-65530827D01*
X150377041Y-65354200D01*
X150394437Y-65177573D01*
X150428784Y-65064347D01*
X150445957Y-65007733D01*
X150529621Y-64851211D01*
X150529622Y-64851209D01*
X150558952Y-64815471D01*
X150642214Y-64714014D01*
X150743671Y-64630752D01*
X150779409Y-64601422D01*
X150827095Y-64575933D01*
X150935933Y-64517757D01*
X150995351Y-64499733D01*
X151105773Y-64466237D01*
X151171958Y-64459718D01*
X151238140Y-64453200D01*
X151326660Y-64453200D01*
X151392842Y-64459718D01*
X151392842Y-64459718D01*
G37*
G36*
X146312842Y-64459718D02*
X146379027Y-64466237D01*
X146489449Y-64499733D01*
X146548867Y-64517757D01*
X146657705Y-64575933D01*
X146705391Y-64601422D01*
X146741129Y-64630752D01*
X146842586Y-64714014D01*
X146925848Y-64815471D01*
X146955178Y-64851209D01*
X146955179Y-64851211D01*
X147038843Y-65007733D01*
X147056016Y-65064347D01*
X147090363Y-65177573D01*
X147107759Y-65354200D01*
X147090363Y-65530827D01*
X147069689Y-65598979D01*
X147038843Y-65700667D01*
X146980208Y-65810363D01*
X146955178Y-65857191D01*
X146925848Y-65892929D01*
X146842586Y-65994386D01*
X146764967Y-66058085D01*
X146705391Y-66106978D01*
X146705389Y-66106979D01*
X146548867Y-66190643D01*
X146492253Y-66207816D01*
X146379027Y-66242163D01*
X146312843Y-66248681D01*
X146246660Y-66255200D01*
X146158140Y-66255200D01*
X146091957Y-66248681D01*
X146025773Y-66242163D01*
X145912547Y-66207816D01*
X145855933Y-66190643D01*
X145699411Y-66106979D01*
X145699409Y-66106978D01*
X145639833Y-66058085D01*
X145562214Y-65994386D01*
X145478952Y-65892929D01*
X145449622Y-65857191D01*
X145424592Y-65810363D01*
X145365957Y-65700667D01*
X145335111Y-65598979D01*
X145314437Y-65530827D01*
X145297041Y-65354200D01*
X145314437Y-65177573D01*
X145348784Y-65064347D01*
X145365957Y-65007733D01*
X145449621Y-64851211D01*
X145449622Y-64851209D01*
X145478952Y-64815471D01*
X145562214Y-64714014D01*
X145663671Y-64630752D01*
X145699409Y-64601422D01*
X145747095Y-64575933D01*
X145855933Y-64517757D01*
X145915351Y-64499733D01*
X146025773Y-64466237D01*
X146091958Y-64459718D01*
X146158140Y-64453200D01*
X146246660Y-64453200D01*
X146312842Y-64459718D01*
X146312842Y-64459718D01*
G37*
G36*
X148852842Y-64459718D02*
X148919027Y-64466237D01*
X149029449Y-64499733D01*
X149088867Y-64517757D01*
X149197705Y-64575933D01*
X149245391Y-64601422D01*
X149281129Y-64630752D01*
X149382586Y-64714014D01*
X149465848Y-64815471D01*
X149495178Y-64851209D01*
X149495179Y-64851211D01*
X149578843Y-65007733D01*
X149596016Y-65064347D01*
X149630363Y-65177573D01*
X149647759Y-65354200D01*
X149630363Y-65530827D01*
X149609689Y-65598979D01*
X149578843Y-65700667D01*
X149520208Y-65810363D01*
X149495178Y-65857191D01*
X149465848Y-65892929D01*
X149382586Y-65994386D01*
X149304967Y-66058085D01*
X149245391Y-66106978D01*
X149245389Y-66106979D01*
X149088867Y-66190643D01*
X149032253Y-66207816D01*
X148919027Y-66242163D01*
X148852843Y-66248681D01*
X148786660Y-66255200D01*
X148698140Y-66255200D01*
X148631957Y-66248681D01*
X148565773Y-66242163D01*
X148452547Y-66207816D01*
X148395933Y-66190643D01*
X148239411Y-66106979D01*
X148239409Y-66106978D01*
X148179833Y-66058085D01*
X148102214Y-65994386D01*
X148018952Y-65892929D01*
X147989622Y-65857191D01*
X147964592Y-65810363D01*
X147905957Y-65700667D01*
X147875111Y-65598979D01*
X147854437Y-65530827D01*
X147837041Y-65354200D01*
X147854437Y-65177573D01*
X147888784Y-65064347D01*
X147905957Y-65007733D01*
X147989621Y-64851211D01*
X147989622Y-64851209D01*
X148018952Y-64815471D01*
X148102214Y-64714014D01*
X148203671Y-64630752D01*
X148239409Y-64601422D01*
X148287095Y-64575933D01*
X148395933Y-64517757D01*
X148455351Y-64499733D01*
X148565773Y-64466237D01*
X148631958Y-64459718D01*
X148698140Y-64453200D01*
X148786660Y-64453200D01*
X148852842Y-64459718D01*
X148852842Y-64459718D01*
G37*
G36*
X143772842Y-64459718D02*
X143839027Y-64466237D01*
X143949449Y-64499733D01*
X144008867Y-64517757D01*
X144117705Y-64575933D01*
X144165391Y-64601422D01*
X144201129Y-64630752D01*
X144302586Y-64714014D01*
X144385848Y-64815471D01*
X144415178Y-64851209D01*
X144415179Y-64851211D01*
X144498843Y-65007733D01*
X144516016Y-65064347D01*
X144550363Y-65177573D01*
X144567759Y-65354200D01*
X144550363Y-65530827D01*
X144529689Y-65598979D01*
X144498843Y-65700667D01*
X144440208Y-65810363D01*
X144415178Y-65857191D01*
X144385848Y-65892929D01*
X144302586Y-65994386D01*
X144224967Y-66058085D01*
X144165391Y-66106978D01*
X144165389Y-66106979D01*
X144008867Y-66190643D01*
X143952253Y-66207816D01*
X143839027Y-66242163D01*
X143772843Y-66248681D01*
X143706660Y-66255200D01*
X143618140Y-66255200D01*
X143551957Y-66248681D01*
X143485773Y-66242163D01*
X143372547Y-66207816D01*
X143315933Y-66190643D01*
X143159411Y-66106979D01*
X143159409Y-66106978D01*
X143099833Y-66058085D01*
X143022214Y-65994386D01*
X142938952Y-65892929D01*
X142909622Y-65857191D01*
X142884592Y-65810363D01*
X142825957Y-65700667D01*
X142795111Y-65598979D01*
X142774437Y-65530827D01*
X142757041Y-65354200D01*
X142774437Y-65177573D01*
X142808784Y-65064347D01*
X142825957Y-65007733D01*
X142909621Y-64851211D01*
X142909622Y-64851209D01*
X142938952Y-64815471D01*
X143022214Y-64714014D01*
X143123671Y-64630752D01*
X143159409Y-64601422D01*
X143207095Y-64575933D01*
X143315933Y-64517757D01*
X143375351Y-64499733D01*
X143485773Y-64466237D01*
X143551958Y-64459718D01*
X143618140Y-64453200D01*
X143706660Y-64453200D01*
X143772842Y-64459718D01*
X143772842Y-64459718D01*
G37*
G36*
X141232842Y-64459718D02*
X141299027Y-64466237D01*
X141409449Y-64499733D01*
X141468867Y-64517757D01*
X141577705Y-64575933D01*
X141625391Y-64601422D01*
X141661129Y-64630752D01*
X141762586Y-64714014D01*
X141845848Y-64815471D01*
X141875178Y-64851209D01*
X141875179Y-64851211D01*
X141958843Y-65007733D01*
X141976016Y-65064347D01*
X142010363Y-65177573D01*
X142027759Y-65354200D01*
X142010363Y-65530827D01*
X141989689Y-65598979D01*
X141958843Y-65700667D01*
X141900208Y-65810363D01*
X141875178Y-65857191D01*
X141845848Y-65892929D01*
X141762586Y-65994386D01*
X141684967Y-66058085D01*
X141625391Y-66106978D01*
X141625389Y-66106979D01*
X141468867Y-66190643D01*
X141412253Y-66207816D01*
X141299027Y-66242163D01*
X141232843Y-66248681D01*
X141166660Y-66255200D01*
X141078140Y-66255200D01*
X141011957Y-66248681D01*
X140945773Y-66242163D01*
X140832547Y-66207816D01*
X140775933Y-66190643D01*
X140619411Y-66106979D01*
X140619409Y-66106978D01*
X140559833Y-66058085D01*
X140482214Y-65994386D01*
X140398952Y-65892929D01*
X140369622Y-65857191D01*
X140344592Y-65810363D01*
X140285957Y-65700667D01*
X140255111Y-65598979D01*
X140234437Y-65530827D01*
X140217041Y-65354200D01*
X140234437Y-65177573D01*
X140268784Y-65064347D01*
X140285957Y-65007733D01*
X140369621Y-64851211D01*
X140369622Y-64851209D01*
X140398952Y-64815471D01*
X140482214Y-64714014D01*
X140583671Y-64630752D01*
X140619409Y-64601422D01*
X140667095Y-64575933D01*
X140775933Y-64517757D01*
X140835351Y-64499733D01*
X140945773Y-64466237D01*
X141011958Y-64459718D01*
X141078140Y-64453200D01*
X141166660Y-64453200D01*
X141232842Y-64459718D01*
X141232842Y-64459718D01*
G37*
G36*
X138692842Y-64459718D02*
X138759027Y-64466237D01*
X138869449Y-64499733D01*
X138928867Y-64517757D01*
X139037705Y-64575933D01*
X139085391Y-64601422D01*
X139121129Y-64630752D01*
X139222586Y-64714014D01*
X139305848Y-64815471D01*
X139335178Y-64851209D01*
X139335179Y-64851211D01*
X139418843Y-65007733D01*
X139436016Y-65064347D01*
X139470363Y-65177573D01*
X139487759Y-65354200D01*
X139470363Y-65530827D01*
X139449689Y-65598979D01*
X139418843Y-65700667D01*
X139360208Y-65810363D01*
X139335178Y-65857191D01*
X139305848Y-65892929D01*
X139222586Y-65994386D01*
X139144967Y-66058085D01*
X139085391Y-66106978D01*
X139085389Y-66106979D01*
X138928867Y-66190643D01*
X138872253Y-66207816D01*
X138759027Y-66242163D01*
X138692843Y-66248681D01*
X138626660Y-66255200D01*
X138538140Y-66255200D01*
X138471957Y-66248681D01*
X138405773Y-66242163D01*
X138292547Y-66207816D01*
X138235933Y-66190643D01*
X138079411Y-66106979D01*
X138079409Y-66106978D01*
X138019833Y-66058085D01*
X137942214Y-65994386D01*
X137858952Y-65892929D01*
X137829622Y-65857191D01*
X137804592Y-65810363D01*
X137745957Y-65700667D01*
X137715111Y-65598979D01*
X137694437Y-65530827D01*
X137677041Y-65354200D01*
X137694437Y-65177573D01*
X137728784Y-65064347D01*
X137745957Y-65007733D01*
X137829621Y-64851211D01*
X137829622Y-64851209D01*
X137858952Y-64815471D01*
X137942214Y-64714014D01*
X138043671Y-64630752D01*
X138079409Y-64601422D01*
X138127095Y-64575933D01*
X138235933Y-64517757D01*
X138295351Y-64499733D01*
X138405773Y-64466237D01*
X138471958Y-64459718D01*
X138538140Y-64453200D01*
X138626660Y-64453200D01*
X138692842Y-64459718D01*
X138692842Y-64459718D01*
G37*
G36*
X136152842Y-64459718D02*
X136219027Y-64466237D01*
X136329449Y-64499733D01*
X136388867Y-64517757D01*
X136497705Y-64575933D01*
X136545391Y-64601422D01*
X136581129Y-64630752D01*
X136682586Y-64714014D01*
X136765848Y-64815471D01*
X136795178Y-64851209D01*
X136795179Y-64851211D01*
X136878843Y-65007733D01*
X136896016Y-65064347D01*
X136930363Y-65177573D01*
X136947759Y-65354200D01*
X136930363Y-65530827D01*
X136909689Y-65598979D01*
X136878843Y-65700667D01*
X136820208Y-65810363D01*
X136795178Y-65857191D01*
X136765848Y-65892929D01*
X136682586Y-65994386D01*
X136604967Y-66058085D01*
X136545391Y-66106978D01*
X136545389Y-66106979D01*
X136388867Y-66190643D01*
X136332253Y-66207816D01*
X136219027Y-66242163D01*
X136152843Y-66248681D01*
X136086660Y-66255200D01*
X135998140Y-66255200D01*
X135931957Y-66248681D01*
X135865773Y-66242163D01*
X135752547Y-66207816D01*
X135695933Y-66190643D01*
X135539411Y-66106979D01*
X135539409Y-66106978D01*
X135479833Y-66058085D01*
X135402214Y-65994386D01*
X135318952Y-65892929D01*
X135289622Y-65857191D01*
X135264592Y-65810363D01*
X135205957Y-65700667D01*
X135175111Y-65598979D01*
X135154437Y-65530827D01*
X135137041Y-65354200D01*
X135154437Y-65177573D01*
X135188784Y-65064347D01*
X135205957Y-65007733D01*
X135289621Y-64851211D01*
X135289622Y-64851209D01*
X135318952Y-64815471D01*
X135402214Y-64714014D01*
X135503671Y-64630752D01*
X135539409Y-64601422D01*
X135587095Y-64575933D01*
X135695933Y-64517757D01*
X135755351Y-64499733D01*
X135865773Y-64466237D01*
X135931958Y-64459718D01*
X135998140Y-64453200D01*
X136086660Y-64453200D01*
X136152842Y-64459718D01*
X136152842Y-64459718D01*
G37*
G36*
X133612842Y-64459718D02*
X133679027Y-64466237D01*
X133789449Y-64499733D01*
X133848867Y-64517757D01*
X133957705Y-64575933D01*
X134005391Y-64601422D01*
X134041129Y-64630752D01*
X134142586Y-64714014D01*
X134225848Y-64815471D01*
X134255178Y-64851209D01*
X134255179Y-64851211D01*
X134338843Y-65007733D01*
X134356016Y-65064347D01*
X134390363Y-65177573D01*
X134407759Y-65354200D01*
X134390363Y-65530827D01*
X134369689Y-65598979D01*
X134338843Y-65700667D01*
X134280208Y-65810363D01*
X134255178Y-65857191D01*
X134225848Y-65892929D01*
X134142586Y-65994386D01*
X134064967Y-66058085D01*
X134005391Y-66106978D01*
X134005389Y-66106979D01*
X133848867Y-66190643D01*
X133792253Y-66207816D01*
X133679027Y-66242163D01*
X133612843Y-66248681D01*
X133546660Y-66255200D01*
X133458140Y-66255200D01*
X133391957Y-66248681D01*
X133325773Y-66242163D01*
X133212547Y-66207816D01*
X133155933Y-66190643D01*
X132999411Y-66106979D01*
X132999409Y-66106978D01*
X132939833Y-66058085D01*
X132862214Y-65994386D01*
X132778952Y-65892929D01*
X132749622Y-65857191D01*
X132724592Y-65810363D01*
X132665957Y-65700667D01*
X132635111Y-65598979D01*
X132614437Y-65530827D01*
X132597041Y-65354200D01*
X132614437Y-65177573D01*
X132648784Y-65064347D01*
X132665957Y-65007733D01*
X132749621Y-64851211D01*
X132749622Y-64851209D01*
X132778952Y-64815471D01*
X132862214Y-64714014D01*
X132963671Y-64630752D01*
X132999409Y-64601422D01*
X133047095Y-64575933D01*
X133155933Y-64517757D01*
X133215351Y-64499733D01*
X133325773Y-64466237D01*
X133391958Y-64459718D01*
X133458140Y-64453200D01*
X133546660Y-64453200D01*
X133612842Y-64459718D01*
X133612842Y-64459718D01*
G37*
G36*
X131863400Y-66255200D02*
X130061400Y-66255200D01*
X130061400Y-64453200D01*
X131863400Y-64453200D01*
X131863400Y-66255200D01*
X131863400Y-66255200D01*
G37*
G36*
X159012842Y-64459718D02*
X159079027Y-64466237D01*
X159189449Y-64499733D01*
X159248867Y-64517757D01*
X159357705Y-64575933D01*
X159405391Y-64601422D01*
X159441129Y-64630752D01*
X159542586Y-64714014D01*
X159625848Y-64815471D01*
X159655178Y-64851209D01*
X159655179Y-64851211D01*
X159738843Y-65007733D01*
X159756016Y-65064347D01*
X159790363Y-65177573D01*
X159807759Y-65354200D01*
X159790363Y-65530827D01*
X159769689Y-65598979D01*
X159738843Y-65700667D01*
X159680208Y-65810363D01*
X159655178Y-65857191D01*
X159625848Y-65892929D01*
X159542586Y-65994386D01*
X159464967Y-66058085D01*
X159405391Y-66106978D01*
X159405389Y-66106979D01*
X159248867Y-66190643D01*
X159192253Y-66207816D01*
X159079027Y-66242163D01*
X159012843Y-66248681D01*
X158946660Y-66255200D01*
X158858140Y-66255200D01*
X158791957Y-66248681D01*
X158725773Y-66242163D01*
X158612547Y-66207816D01*
X158555933Y-66190643D01*
X158399411Y-66106979D01*
X158399409Y-66106978D01*
X158339833Y-66058085D01*
X158262214Y-65994386D01*
X158178952Y-65892929D01*
X158149622Y-65857191D01*
X158124592Y-65810363D01*
X158065957Y-65700667D01*
X158035111Y-65598979D01*
X158014437Y-65530827D01*
X157997041Y-65354200D01*
X158014437Y-65177573D01*
X158048784Y-65064347D01*
X158065957Y-65007733D01*
X158149621Y-64851211D01*
X158149622Y-64851209D01*
X158178952Y-64815471D01*
X158262214Y-64714014D01*
X158363671Y-64630752D01*
X158399409Y-64601422D01*
X158447095Y-64575933D01*
X158555933Y-64517757D01*
X158615351Y-64499733D01*
X158725773Y-64466237D01*
X158791958Y-64459718D01*
X158858140Y-64453200D01*
X158946660Y-64453200D01*
X159012842Y-64459718D01*
X159012842Y-64459718D01*
G37*
G36*
X156472842Y-64459718D02*
X156539027Y-64466237D01*
X156649449Y-64499733D01*
X156708867Y-64517757D01*
X156817705Y-64575933D01*
X156865391Y-64601422D01*
X156901129Y-64630752D01*
X157002586Y-64714014D01*
X157085848Y-64815471D01*
X157115178Y-64851209D01*
X157115179Y-64851211D01*
X157198843Y-65007733D01*
X157216016Y-65064347D01*
X157250363Y-65177573D01*
X157267759Y-65354200D01*
X157250363Y-65530827D01*
X157229689Y-65598979D01*
X157198843Y-65700667D01*
X157140208Y-65810363D01*
X157115178Y-65857191D01*
X157085848Y-65892929D01*
X157002586Y-65994386D01*
X156924967Y-66058085D01*
X156865391Y-66106978D01*
X156865389Y-66106979D01*
X156708867Y-66190643D01*
X156652253Y-66207816D01*
X156539027Y-66242163D01*
X156472843Y-66248681D01*
X156406660Y-66255200D01*
X156318140Y-66255200D01*
X156251957Y-66248681D01*
X156185773Y-66242163D01*
X156072547Y-66207816D01*
X156015933Y-66190643D01*
X155859411Y-66106979D01*
X155859409Y-66106978D01*
X155799833Y-66058085D01*
X155722214Y-65994386D01*
X155638952Y-65892929D01*
X155609622Y-65857191D01*
X155584592Y-65810363D01*
X155525957Y-65700667D01*
X155495111Y-65598979D01*
X155474437Y-65530827D01*
X155457041Y-65354200D01*
X155474437Y-65177573D01*
X155508784Y-65064347D01*
X155525957Y-65007733D01*
X155609621Y-64851211D01*
X155609622Y-64851209D01*
X155638952Y-64815471D01*
X155722214Y-64714014D01*
X155823671Y-64630752D01*
X155859409Y-64601422D01*
X155907095Y-64575933D01*
X156015933Y-64517757D01*
X156075351Y-64499733D01*
X156185773Y-64466237D01*
X156251958Y-64459718D01*
X156318140Y-64453200D01*
X156406660Y-64453200D01*
X156472842Y-64459718D01*
X156472842Y-64459718D01*
G37*
G36*
X153932842Y-64459718D02*
X153999027Y-64466237D01*
X154109449Y-64499733D01*
X154168867Y-64517757D01*
X154277705Y-64575933D01*
X154325391Y-64601422D01*
X154361129Y-64630752D01*
X154462586Y-64714014D01*
X154545848Y-64815471D01*
X154575178Y-64851209D01*
X154575179Y-64851211D01*
X154658843Y-65007733D01*
X154676016Y-65064347D01*
X154710363Y-65177573D01*
X154727759Y-65354200D01*
X154710363Y-65530827D01*
X154689689Y-65598979D01*
X154658843Y-65700667D01*
X154600208Y-65810363D01*
X154575178Y-65857191D01*
X154545848Y-65892929D01*
X154462586Y-65994386D01*
X154384967Y-66058085D01*
X154325391Y-66106978D01*
X154325389Y-66106979D01*
X154168867Y-66190643D01*
X154112253Y-66207816D01*
X153999027Y-66242163D01*
X153932843Y-66248681D01*
X153866660Y-66255200D01*
X153778140Y-66255200D01*
X153711957Y-66248681D01*
X153645773Y-66242163D01*
X153532547Y-66207816D01*
X153475933Y-66190643D01*
X153319411Y-66106979D01*
X153319409Y-66106978D01*
X153259833Y-66058085D01*
X153182214Y-65994386D01*
X153098952Y-65892929D01*
X153069622Y-65857191D01*
X153044592Y-65810363D01*
X152985957Y-65700667D01*
X152955111Y-65598979D01*
X152934437Y-65530827D01*
X152917041Y-65354200D01*
X152934437Y-65177573D01*
X152968784Y-65064347D01*
X152985957Y-65007733D01*
X153069621Y-64851211D01*
X153069622Y-64851209D01*
X153098952Y-64815471D01*
X153182214Y-64714014D01*
X153283671Y-64630752D01*
X153319409Y-64601422D01*
X153367095Y-64575933D01*
X153475933Y-64517757D01*
X153535351Y-64499733D01*
X153645773Y-64466237D01*
X153711958Y-64459718D01*
X153778140Y-64453200D01*
X153866660Y-64453200D01*
X153932842Y-64459718D01*
X153932842Y-64459718D01*
G37*
G36*
X179332842Y-64459718D02*
X179399027Y-64466237D01*
X179509449Y-64499733D01*
X179568867Y-64517757D01*
X179677705Y-64575933D01*
X179725391Y-64601422D01*
X179761129Y-64630752D01*
X179862586Y-64714014D01*
X179945848Y-64815471D01*
X179975178Y-64851209D01*
X179975179Y-64851211D01*
X180058843Y-65007733D01*
X180076016Y-65064347D01*
X180110363Y-65177573D01*
X180127759Y-65354200D01*
X180110363Y-65530827D01*
X180089689Y-65598979D01*
X180058843Y-65700667D01*
X180000208Y-65810363D01*
X179975178Y-65857191D01*
X179945848Y-65892929D01*
X179862586Y-65994386D01*
X179784967Y-66058085D01*
X179725391Y-66106978D01*
X179725389Y-66106979D01*
X179568867Y-66190643D01*
X179512253Y-66207816D01*
X179399027Y-66242163D01*
X179332843Y-66248681D01*
X179266660Y-66255200D01*
X179178140Y-66255200D01*
X179111957Y-66248681D01*
X179045773Y-66242163D01*
X178932547Y-66207816D01*
X178875933Y-66190643D01*
X178719411Y-66106979D01*
X178719409Y-66106978D01*
X178659833Y-66058085D01*
X178582214Y-65994386D01*
X178498952Y-65892929D01*
X178469622Y-65857191D01*
X178444592Y-65810363D01*
X178385957Y-65700667D01*
X178355111Y-65598979D01*
X178334437Y-65530827D01*
X178317041Y-65354200D01*
X178334437Y-65177573D01*
X178368784Y-65064347D01*
X178385957Y-65007733D01*
X178469621Y-64851211D01*
X178469622Y-64851209D01*
X178498952Y-64815471D01*
X178582214Y-64714014D01*
X178683671Y-64630752D01*
X178719409Y-64601422D01*
X178767095Y-64575933D01*
X178875933Y-64517757D01*
X178935351Y-64499733D01*
X179045773Y-64466237D01*
X179111958Y-64459718D01*
X179178140Y-64453200D01*
X179266660Y-64453200D01*
X179332842Y-64459718D01*
X179332842Y-64459718D01*
G37*
G36*
X176792842Y-64459718D02*
X176859027Y-64466237D01*
X176969449Y-64499733D01*
X177028867Y-64517757D01*
X177137705Y-64575933D01*
X177185391Y-64601422D01*
X177221129Y-64630752D01*
X177322586Y-64714014D01*
X177405848Y-64815471D01*
X177435178Y-64851209D01*
X177435179Y-64851211D01*
X177518843Y-65007733D01*
X177536016Y-65064347D01*
X177570363Y-65177573D01*
X177587759Y-65354200D01*
X177570363Y-65530827D01*
X177549689Y-65598979D01*
X177518843Y-65700667D01*
X177460208Y-65810363D01*
X177435178Y-65857191D01*
X177405848Y-65892929D01*
X177322586Y-65994386D01*
X177244967Y-66058085D01*
X177185391Y-66106978D01*
X177185389Y-66106979D01*
X177028867Y-66190643D01*
X176972253Y-66207816D01*
X176859027Y-66242163D01*
X176792843Y-66248681D01*
X176726660Y-66255200D01*
X176638140Y-66255200D01*
X176571957Y-66248681D01*
X176505773Y-66242163D01*
X176392547Y-66207816D01*
X176335933Y-66190643D01*
X176179411Y-66106979D01*
X176179409Y-66106978D01*
X176119833Y-66058085D01*
X176042214Y-65994386D01*
X175958952Y-65892929D01*
X175929622Y-65857191D01*
X175904592Y-65810363D01*
X175845957Y-65700667D01*
X175815111Y-65598979D01*
X175794437Y-65530827D01*
X175777041Y-65354200D01*
X175794437Y-65177573D01*
X175828784Y-65064347D01*
X175845957Y-65007733D01*
X175929621Y-64851211D01*
X175929622Y-64851209D01*
X175958952Y-64815471D01*
X176042214Y-64714014D01*
X176143671Y-64630752D01*
X176179409Y-64601422D01*
X176227095Y-64575933D01*
X176335933Y-64517757D01*
X176395351Y-64499733D01*
X176505773Y-64466237D01*
X176571958Y-64459718D01*
X176638140Y-64453200D01*
X176726660Y-64453200D01*
X176792842Y-64459718D01*
X176792842Y-64459718D01*
G37*
G36*
X174252842Y-64459718D02*
X174319027Y-64466237D01*
X174429449Y-64499733D01*
X174488867Y-64517757D01*
X174597705Y-64575933D01*
X174645391Y-64601422D01*
X174681129Y-64630752D01*
X174782586Y-64714014D01*
X174865848Y-64815471D01*
X174895178Y-64851209D01*
X174895179Y-64851211D01*
X174978843Y-65007733D01*
X174996016Y-65064347D01*
X175030363Y-65177573D01*
X175047759Y-65354200D01*
X175030363Y-65530827D01*
X175009689Y-65598979D01*
X174978843Y-65700667D01*
X174920208Y-65810363D01*
X174895178Y-65857191D01*
X174865848Y-65892929D01*
X174782586Y-65994386D01*
X174704967Y-66058085D01*
X174645391Y-66106978D01*
X174645389Y-66106979D01*
X174488867Y-66190643D01*
X174432253Y-66207816D01*
X174319027Y-66242163D01*
X174252843Y-66248681D01*
X174186660Y-66255200D01*
X174098140Y-66255200D01*
X174031957Y-66248681D01*
X173965773Y-66242163D01*
X173852547Y-66207816D01*
X173795933Y-66190643D01*
X173639411Y-66106979D01*
X173639409Y-66106978D01*
X173579833Y-66058085D01*
X173502214Y-65994386D01*
X173418952Y-65892929D01*
X173389622Y-65857191D01*
X173364592Y-65810363D01*
X173305957Y-65700667D01*
X173275111Y-65598979D01*
X173254437Y-65530827D01*
X173237041Y-65354200D01*
X173254437Y-65177573D01*
X173288784Y-65064347D01*
X173305957Y-65007733D01*
X173389621Y-64851211D01*
X173389622Y-64851209D01*
X173418952Y-64815471D01*
X173502214Y-64714014D01*
X173603671Y-64630752D01*
X173639409Y-64601422D01*
X173687095Y-64575933D01*
X173795933Y-64517757D01*
X173855351Y-64499733D01*
X173965773Y-64466237D01*
X174031958Y-64459718D01*
X174098140Y-64453200D01*
X174186660Y-64453200D01*
X174252842Y-64459718D01*
X174252842Y-64459718D01*
G37*
G36*
X169172842Y-64459718D02*
X169239027Y-64466237D01*
X169349449Y-64499733D01*
X169408867Y-64517757D01*
X169517705Y-64575933D01*
X169565391Y-64601422D01*
X169601129Y-64630752D01*
X169702586Y-64714014D01*
X169785848Y-64815471D01*
X169815178Y-64851209D01*
X169815179Y-64851211D01*
X169898843Y-65007733D01*
X169916016Y-65064347D01*
X169950363Y-65177573D01*
X169967759Y-65354200D01*
X169950363Y-65530827D01*
X169929689Y-65598979D01*
X169898843Y-65700667D01*
X169840208Y-65810363D01*
X169815178Y-65857191D01*
X169785848Y-65892929D01*
X169702586Y-65994386D01*
X169624967Y-66058085D01*
X169565391Y-66106978D01*
X169565389Y-66106979D01*
X169408867Y-66190643D01*
X169352253Y-66207816D01*
X169239027Y-66242163D01*
X169172843Y-66248681D01*
X169106660Y-66255200D01*
X169018140Y-66255200D01*
X168951957Y-66248681D01*
X168885773Y-66242163D01*
X168772547Y-66207816D01*
X168715933Y-66190643D01*
X168559411Y-66106979D01*
X168559409Y-66106978D01*
X168499833Y-66058085D01*
X168422214Y-65994386D01*
X168338952Y-65892929D01*
X168309622Y-65857191D01*
X168284592Y-65810363D01*
X168225957Y-65700667D01*
X168195111Y-65598979D01*
X168174437Y-65530827D01*
X168157041Y-65354200D01*
X168174437Y-65177573D01*
X168208784Y-65064347D01*
X168225957Y-65007733D01*
X168309621Y-64851211D01*
X168309622Y-64851209D01*
X168338952Y-64815471D01*
X168422214Y-64714014D01*
X168523671Y-64630752D01*
X168559409Y-64601422D01*
X168607095Y-64575933D01*
X168715933Y-64517757D01*
X168775351Y-64499733D01*
X168885773Y-64466237D01*
X168951958Y-64459718D01*
X169018140Y-64453200D01*
X169106660Y-64453200D01*
X169172842Y-64459718D01*
X169172842Y-64459718D01*
G37*
G36*
X166632842Y-64459718D02*
X166699027Y-64466237D01*
X166809449Y-64499733D01*
X166868867Y-64517757D01*
X166977705Y-64575933D01*
X167025391Y-64601422D01*
X167061129Y-64630752D01*
X167162586Y-64714014D01*
X167245848Y-64815471D01*
X167275178Y-64851209D01*
X167275179Y-64851211D01*
X167358843Y-65007733D01*
X167376016Y-65064347D01*
X167410363Y-65177573D01*
X167427759Y-65354200D01*
X167410363Y-65530827D01*
X167389689Y-65598979D01*
X167358843Y-65700667D01*
X167300208Y-65810363D01*
X167275178Y-65857191D01*
X167245848Y-65892929D01*
X167162586Y-65994386D01*
X167084967Y-66058085D01*
X167025391Y-66106978D01*
X167025389Y-66106979D01*
X166868867Y-66190643D01*
X166812253Y-66207816D01*
X166699027Y-66242163D01*
X166632843Y-66248681D01*
X166566660Y-66255200D01*
X166478140Y-66255200D01*
X166411957Y-66248681D01*
X166345773Y-66242163D01*
X166232547Y-66207816D01*
X166175933Y-66190643D01*
X166019411Y-66106979D01*
X166019409Y-66106978D01*
X165959833Y-66058085D01*
X165882214Y-65994386D01*
X165798952Y-65892929D01*
X165769622Y-65857191D01*
X165744592Y-65810363D01*
X165685957Y-65700667D01*
X165655111Y-65598979D01*
X165634437Y-65530827D01*
X165617041Y-65354200D01*
X165634437Y-65177573D01*
X165668784Y-65064347D01*
X165685957Y-65007733D01*
X165769621Y-64851211D01*
X165769622Y-64851209D01*
X165798952Y-64815471D01*
X165882214Y-64714014D01*
X165983671Y-64630752D01*
X166019409Y-64601422D01*
X166067095Y-64575933D01*
X166175933Y-64517757D01*
X166235351Y-64499733D01*
X166345773Y-64466237D01*
X166411958Y-64459718D01*
X166478140Y-64453200D01*
X166566660Y-64453200D01*
X166632842Y-64459718D01*
X166632842Y-64459718D01*
G37*
G36*
X164092842Y-64459718D02*
X164159027Y-64466237D01*
X164269449Y-64499733D01*
X164328867Y-64517757D01*
X164437705Y-64575933D01*
X164485391Y-64601422D01*
X164521129Y-64630752D01*
X164622586Y-64714014D01*
X164705848Y-64815471D01*
X164735178Y-64851209D01*
X164735179Y-64851211D01*
X164818843Y-65007733D01*
X164836016Y-65064347D01*
X164870363Y-65177573D01*
X164887759Y-65354200D01*
X164870363Y-65530827D01*
X164849689Y-65598979D01*
X164818843Y-65700667D01*
X164760208Y-65810363D01*
X164735178Y-65857191D01*
X164705848Y-65892929D01*
X164622586Y-65994386D01*
X164544967Y-66058085D01*
X164485391Y-66106978D01*
X164485389Y-66106979D01*
X164328867Y-66190643D01*
X164272253Y-66207816D01*
X164159027Y-66242163D01*
X164092843Y-66248681D01*
X164026660Y-66255200D01*
X163938140Y-66255200D01*
X163871957Y-66248681D01*
X163805773Y-66242163D01*
X163692547Y-66207816D01*
X163635933Y-66190643D01*
X163479411Y-66106979D01*
X163479409Y-66106978D01*
X163419833Y-66058085D01*
X163342214Y-65994386D01*
X163258952Y-65892929D01*
X163229622Y-65857191D01*
X163204592Y-65810363D01*
X163145957Y-65700667D01*
X163115111Y-65598979D01*
X163094437Y-65530827D01*
X163077041Y-65354200D01*
X163094437Y-65177573D01*
X163128784Y-65064347D01*
X163145957Y-65007733D01*
X163229621Y-64851211D01*
X163229622Y-64851209D01*
X163258952Y-64815471D01*
X163342214Y-64714014D01*
X163443671Y-64630752D01*
X163479409Y-64601422D01*
X163527095Y-64575933D01*
X163635933Y-64517757D01*
X163695351Y-64499733D01*
X163805773Y-64466237D01*
X163871958Y-64459718D01*
X163938140Y-64453200D01*
X164026660Y-64453200D01*
X164092842Y-64459718D01*
X164092842Y-64459718D01*
G37*
G36*
X161552842Y-64459718D02*
X161619027Y-64466237D01*
X161729449Y-64499733D01*
X161788867Y-64517757D01*
X161897705Y-64575933D01*
X161945391Y-64601422D01*
X161981129Y-64630752D01*
X162082586Y-64714014D01*
X162165848Y-64815471D01*
X162195178Y-64851209D01*
X162195179Y-64851211D01*
X162278843Y-65007733D01*
X162296016Y-65064347D01*
X162330363Y-65177573D01*
X162347759Y-65354200D01*
X162330363Y-65530827D01*
X162309689Y-65598979D01*
X162278843Y-65700667D01*
X162220208Y-65810363D01*
X162195178Y-65857191D01*
X162165848Y-65892929D01*
X162082586Y-65994386D01*
X162004967Y-66058085D01*
X161945391Y-66106978D01*
X161945389Y-66106979D01*
X161788867Y-66190643D01*
X161732253Y-66207816D01*
X161619027Y-66242163D01*
X161552843Y-66248681D01*
X161486660Y-66255200D01*
X161398140Y-66255200D01*
X161331957Y-66248681D01*
X161265773Y-66242163D01*
X161152547Y-66207816D01*
X161095933Y-66190643D01*
X160939411Y-66106979D01*
X160939409Y-66106978D01*
X160879833Y-66058085D01*
X160802214Y-65994386D01*
X160718952Y-65892929D01*
X160689622Y-65857191D01*
X160664592Y-65810363D01*
X160605957Y-65700667D01*
X160575111Y-65598979D01*
X160554437Y-65530827D01*
X160537041Y-65354200D01*
X160554437Y-65177573D01*
X160588784Y-65064347D01*
X160605957Y-65007733D01*
X160689621Y-64851211D01*
X160689622Y-64851209D01*
X160718952Y-64815471D01*
X160802214Y-64714014D01*
X160903671Y-64630752D01*
X160939409Y-64601422D01*
X160987095Y-64575933D01*
X161095933Y-64517757D01*
X161155351Y-64499733D01*
X161265773Y-64466237D01*
X161331958Y-64459718D01*
X161398140Y-64453200D01*
X161486660Y-64453200D01*
X161552842Y-64459718D01*
X161552842Y-64459718D01*
G37*
G36*
X186114351Y-65196578D02*
X186196424Y-65230574D01*
X186196425Y-65230575D01*
X186196428Y-65230576D01*
X186261574Y-65274106D01*
X186270299Y-65279936D01*
X186333110Y-65342747D01*
X186333112Y-65342750D01*
X186333113Y-65342751D01*
X186382470Y-65416618D01*
X186382471Y-65416621D01*
X186382472Y-65416622D01*
X186416468Y-65498695D01*
X186433799Y-65585826D01*
X186433799Y-65674668D01*
X186416468Y-65761799D01*
X186384885Y-65838046D01*
X186382470Y-65843876D01*
X186337006Y-65911917D01*
X186333110Y-65917747D01*
X186270299Y-65980558D01*
X186270296Y-65980560D01*
X186270295Y-65980561D01*
X186196428Y-66029918D01*
X186196425Y-66029919D01*
X186196424Y-66029920D01*
X186114351Y-66063916D01*
X186027220Y-66081247D01*
X185938378Y-66081247D01*
X185851247Y-66063916D01*
X185769174Y-66029920D01*
X185769173Y-66029919D01*
X185769170Y-66029918D01*
X185695303Y-65980561D01*
X185695302Y-65980560D01*
X185695299Y-65980558D01*
X185632488Y-65917747D01*
X185628592Y-65911917D01*
X185583128Y-65843876D01*
X185580713Y-65838046D01*
X185549130Y-65761799D01*
X185531799Y-65674668D01*
X185531799Y-65585826D01*
X185549130Y-65498695D01*
X185583126Y-65416622D01*
X185583127Y-65416621D01*
X185583128Y-65416618D01*
X185632485Y-65342751D01*
X185632486Y-65342750D01*
X185632488Y-65342747D01*
X185695299Y-65279936D01*
X185704024Y-65274106D01*
X185769170Y-65230576D01*
X185769173Y-65230575D01*
X185769174Y-65230574D01*
X185851247Y-65196578D01*
X185938378Y-65179247D01*
X186027220Y-65179247D01*
X186114351Y-65196578D01*
X186114351Y-65196578D01*
G37*
G36*
X190240863Y-65190748D02*
X190322936Y-65224744D01*
X190322937Y-65224745D01*
X190322940Y-65224746D01*
X190396807Y-65274103D01*
X190396811Y-65274106D01*
X190459622Y-65336917D01*
X190459624Y-65336920D01*
X190459625Y-65336921D01*
X190508982Y-65410788D01*
X190508983Y-65410791D01*
X190508984Y-65410792D01*
X190542980Y-65492865D01*
X190560311Y-65579996D01*
X190560311Y-65668838D01*
X190542980Y-65755969D01*
X190508984Y-65838042D01*
X190508982Y-65838046D01*
X190459625Y-65911913D01*
X190459622Y-65911917D01*
X190396811Y-65974728D01*
X190396808Y-65974730D01*
X190396807Y-65974731D01*
X190322940Y-66024088D01*
X190322937Y-66024089D01*
X190322936Y-66024090D01*
X190240863Y-66058086D01*
X190153732Y-66075417D01*
X190064890Y-66075417D01*
X189977759Y-66058086D01*
X189895686Y-66024090D01*
X189895685Y-66024089D01*
X189895682Y-66024088D01*
X189821815Y-65974731D01*
X189821814Y-65974730D01*
X189821811Y-65974728D01*
X189759000Y-65911917D01*
X189758997Y-65911913D01*
X189709640Y-65838046D01*
X189709638Y-65838042D01*
X189675642Y-65755969D01*
X189658311Y-65668838D01*
X189658311Y-65579996D01*
X189675642Y-65492865D01*
X189709638Y-65410792D01*
X189709639Y-65410791D01*
X189709640Y-65410788D01*
X189758997Y-65336921D01*
X189758998Y-65336920D01*
X189759000Y-65336917D01*
X189821811Y-65274106D01*
X189821815Y-65274103D01*
X189895682Y-65224746D01*
X189895685Y-65224745D01*
X189895686Y-65224744D01*
X189977759Y-65190748D01*
X190064890Y-65173417D01*
X190153732Y-65173417D01*
X190240863Y-65190748D01*
X190240863Y-65190748D01*
G37*
G36*
X123529043Y-64027919D02*
X123595227Y-64034437D01*
X123708453Y-64068784D01*
X123765067Y-64085957D01*
X123903687Y-64160052D01*
X123921591Y-64169622D01*
X123957329Y-64198952D01*
X124058786Y-64282214D01*
X124142048Y-64383671D01*
X124171378Y-64419409D01*
X124171379Y-64419411D01*
X124255043Y-64575933D01*
X124262775Y-64601422D01*
X124306563Y-64745773D01*
X124323959Y-64922400D01*
X124306563Y-65099027D01*
X124278740Y-65190748D01*
X124255043Y-65268867D01*
X124212109Y-65349189D01*
X124171378Y-65425391D01*
X124142048Y-65461129D01*
X124058786Y-65562586D01*
X123957329Y-65645848D01*
X123921591Y-65675178D01*
X123921589Y-65675179D01*
X123765067Y-65758843D01*
X123708453Y-65776016D01*
X123595227Y-65810363D01*
X123529043Y-65816881D01*
X123462860Y-65823400D01*
X123374340Y-65823400D01*
X123308157Y-65816881D01*
X123241973Y-65810363D01*
X123128747Y-65776016D01*
X123072133Y-65758843D01*
X122915611Y-65675179D01*
X122915609Y-65675178D01*
X122879871Y-65645848D01*
X122778414Y-65562586D01*
X122695152Y-65461129D01*
X122665822Y-65425391D01*
X122625091Y-65349189D01*
X122582157Y-65268867D01*
X122558460Y-65190748D01*
X122530637Y-65099027D01*
X122513241Y-64922400D01*
X122530637Y-64745773D01*
X122574425Y-64601422D01*
X122582157Y-64575933D01*
X122665821Y-64419411D01*
X122665822Y-64419409D01*
X122695152Y-64383671D01*
X122778414Y-64282214D01*
X122879871Y-64198952D01*
X122915609Y-64169622D01*
X122933513Y-64160052D01*
X123072133Y-64085957D01*
X123128747Y-64068784D01*
X123241973Y-64034437D01*
X123308157Y-64027919D01*
X123374340Y-64021400D01*
X123462860Y-64021400D01*
X123529043Y-64027919D01*
X123529043Y-64027919D01*
G37*
G36*
X120989043Y-64027919D02*
X121055227Y-64034437D01*
X121168453Y-64068784D01*
X121225067Y-64085957D01*
X121363687Y-64160052D01*
X121381591Y-64169622D01*
X121417329Y-64198952D01*
X121518786Y-64282214D01*
X121602048Y-64383671D01*
X121631378Y-64419409D01*
X121631379Y-64419411D01*
X121715043Y-64575933D01*
X121722775Y-64601422D01*
X121766563Y-64745773D01*
X121783959Y-64922400D01*
X121766563Y-65099027D01*
X121738740Y-65190748D01*
X121715043Y-65268867D01*
X121672109Y-65349189D01*
X121631378Y-65425391D01*
X121602048Y-65461129D01*
X121518786Y-65562586D01*
X121417329Y-65645848D01*
X121381591Y-65675178D01*
X121381589Y-65675179D01*
X121225067Y-65758843D01*
X121168453Y-65776016D01*
X121055227Y-65810363D01*
X120989043Y-65816881D01*
X120922860Y-65823400D01*
X120834340Y-65823400D01*
X120768157Y-65816881D01*
X120701973Y-65810363D01*
X120588747Y-65776016D01*
X120532133Y-65758843D01*
X120375611Y-65675179D01*
X120375609Y-65675178D01*
X120339871Y-65645848D01*
X120238414Y-65562586D01*
X120155152Y-65461129D01*
X120125822Y-65425391D01*
X120085091Y-65349189D01*
X120042157Y-65268867D01*
X120018460Y-65190748D01*
X119990637Y-65099027D01*
X119973241Y-64922400D01*
X119990637Y-64745773D01*
X120034425Y-64601422D01*
X120042157Y-64575933D01*
X120125821Y-64419411D01*
X120125822Y-64419409D01*
X120155152Y-64383671D01*
X120238414Y-64282214D01*
X120339871Y-64198952D01*
X120375609Y-64169622D01*
X120393513Y-64160052D01*
X120532133Y-64085957D01*
X120588747Y-64068784D01*
X120701973Y-64034437D01*
X120768157Y-64027919D01*
X120834340Y-64021400D01*
X120922860Y-64021400D01*
X120989043Y-64027919D01*
X120989043Y-64027919D01*
G37*
G36*
X116699600Y-65823400D02*
X114897600Y-65823400D01*
X114897600Y-64021400D01*
X116699600Y-64021400D01*
X116699600Y-65823400D01*
X116699600Y-65823400D01*
G37*
G36*
X118449043Y-64027919D02*
X118515227Y-64034437D01*
X118628453Y-64068784D01*
X118685067Y-64085957D01*
X118823687Y-64160052D01*
X118841591Y-64169622D01*
X118877329Y-64198952D01*
X118978786Y-64282214D01*
X119062048Y-64383671D01*
X119091378Y-64419409D01*
X119091379Y-64419411D01*
X119175043Y-64575933D01*
X119182775Y-64601422D01*
X119226563Y-64745773D01*
X119243959Y-64922400D01*
X119226563Y-65099027D01*
X119198740Y-65190748D01*
X119175043Y-65268867D01*
X119132109Y-65349189D01*
X119091378Y-65425391D01*
X119062048Y-65461129D01*
X118978786Y-65562586D01*
X118877329Y-65645848D01*
X118841591Y-65675178D01*
X118841589Y-65675179D01*
X118685067Y-65758843D01*
X118628453Y-65776016D01*
X118515227Y-65810363D01*
X118449043Y-65816881D01*
X118382860Y-65823400D01*
X118294340Y-65823400D01*
X118228157Y-65816881D01*
X118161973Y-65810363D01*
X118048747Y-65776016D01*
X117992133Y-65758843D01*
X117835611Y-65675179D01*
X117835609Y-65675178D01*
X117799871Y-65645848D01*
X117698414Y-65562586D01*
X117615152Y-65461129D01*
X117585822Y-65425391D01*
X117545091Y-65349189D01*
X117502157Y-65268867D01*
X117478460Y-65190748D01*
X117450637Y-65099027D01*
X117433241Y-64922400D01*
X117450637Y-64745773D01*
X117494425Y-64601422D01*
X117502157Y-64575933D01*
X117585821Y-64419411D01*
X117585822Y-64419409D01*
X117615152Y-64383671D01*
X117698414Y-64282214D01*
X117799871Y-64198952D01*
X117835609Y-64169622D01*
X117853513Y-64160052D01*
X117992133Y-64085957D01*
X118048747Y-64068784D01*
X118161973Y-64034437D01*
X118228157Y-64027919D01*
X118294340Y-64021400D01*
X118382860Y-64021400D01*
X118449043Y-64027919D01*
X118449043Y-64027919D01*
G37*
G36*
X106638043Y-63951719D02*
X106704227Y-63958237D01*
X106817453Y-63992584D01*
X106874067Y-64009757D01*
X106920239Y-64034437D01*
X107030591Y-64093422D01*
X107066329Y-64122752D01*
X107167786Y-64206014D01*
X107251048Y-64307471D01*
X107280378Y-64343209D01*
X107280379Y-64343211D01*
X107364043Y-64499733D01*
X107364043Y-64499734D01*
X107415563Y-64669573D01*
X107432959Y-64846200D01*
X107415563Y-65022827D01*
X107392448Y-65099027D01*
X107364043Y-65192667D01*
X107317396Y-65279936D01*
X107280378Y-65349191D01*
X107276267Y-65354200D01*
X107167786Y-65486386D01*
X107066329Y-65569648D01*
X107030591Y-65598978D01*
X107030589Y-65598979D01*
X106874067Y-65682643D01*
X106817453Y-65699816D01*
X106704227Y-65734163D01*
X106638042Y-65740682D01*
X106571860Y-65747200D01*
X106483340Y-65747200D01*
X106417158Y-65740682D01*
X106350973Y-65734163D01*
X106237747Y-65699816D01*
X106181133Y-65682643D01*
X106024611Y-65598979D01*
X106024609Y-65598978D01*
X105988871Y-65569648D01*
X105887414Y-65486386D01*
X105778933Y-65354200D01*
X105774822Y-65349191D01*
X105737804Y-65279936D01*
X105691157Y-65192667D01*
X105662752Y-65099027D01*
X105639637Y-65022827D01*
X105622241Y-64846200D01*
X105639637Y-64669573D01*
X105691157Y-64499734D01*
X105691157Y-64499733D01*
X105774821Y-64343211D01*
X105774822Y-64343209D01*
X105804152Y-64307471D01*
X105887414Y-64206014D01*
X105988871Y-64122752D01*
X106024609Y-64093422D01*
X106134961Y-64034437D01*
X106181133Y-64009757D01*
X106237747Y-63992584D01*
X106350973Y-63958237D01*
X106417157Y-63951719D01*
X106483340Y-63945200D01*
X106571860Y-63945200D01*
X106638043Y-63951719D01*
X106638043Y-63951719D01*
G37*
G36*
X109178043Y-63951719D02*
X109244227Y-63958237D01*
X109357453Y-63992584D01*
X109414067Y-64009757D01*
X109460239Y-64034437D01*
X109570591Y-64093422D01*
X109606329Y-64122752D01*
X109707786Y-64206014D01*
X109791048Y-64307471D01*
X109820378Y-64343209D01*
X109820379Y-64343211D01*
X109904043Y-64499733D01*
X109904043Y-64499734D01*
X109955563Y-64669573D01*
X109972959Y-64846200D01*
X109955563Y-65022827D01*
X109932448Y-65099027D01*
X109904043Y-65192667D01*
X109857396Y-65279936D01*
X109820378Y-65349191D01*
X109816267Y-65354200D01*
X109707786Y-65486386D01*
X109606329Y-65569648D01*
X109570591Y-65598978D01*
X109570589Y-65598979D01*
X109414067Y-65682643D01*
X109357453Y-65699816D01*
X109244227Y-65734163D01*
X109178042Y-65740682D01*
X109111860Y-65747200D01*
X109023340Y-65747200D01*
X108957158Y-65740682D01*
X108890973Y-65734163D01*
X108777747Y-65699816D01*
X108721133Y-65682643D01*
X108564611Y-65598979D01*
X108564609Y-65598978D01*
X108528871Y-65569648D01*
X108427414Y-65486386D01*
X108318933Y-65354200D01*
X108314822Y-65349191D01*
X108277804Y-65279936D01*
X108231157Y-65192667D01*
X108202752Y-65099027D01*
X108179637Y-65022827D01*
X108162241Y-64846200D01*
X108179637Y-64669573D01*
X108231157Y-64499734D01*
X108231157Y-64499733D01*
X108314821Y-64343211D01*
X108314822Y-64343209D01*
X108344152Y-64307471D01*
X108427414Y-64206014D01*
X108528871Y-64122752D01*
X108564609Y-64093422D01*
X108674961Y-64034437D01*
X108721133Y-64009757D01*
X108777747Y-63992584D01*
X108890973Y-63958237D01*
X108957157Y-63951719D01*
X109023340Y-63945200D01*
X109111860Y-63945200D01*
X109178043Y-63951719D01*
X109178043Y-63951719D01*
G37*
G36*
X102348600Y-65747200D02*
X100546600Y-65747200D01*
X100546600Y-63945200D01*
X102348600Y-63945200D01*
X102348600Y-65747200D01*
X102348600Y-65747200D01*
G37*
G36*
X104098043Y-63951719D02*
X104164227Y-63958237D01*
X104277453Y-63992584D01*
X104334067Y-64009757D01*
X104380239Y-64034437D01*
X104490591Y-64093422D01*
X104526329Y-64122752D01*
X104627786Y-64206014D01*
X104711048Y-64307471D01*
X104740378Y-64343209D01*
X104740379Y-64343211D01*
X104824043Y-64499733D01*
X104824043Y-64499734D01*
X104875563Y-64669573D01*
X104892959Y-64846200D01*
X104875563Y-65022827D01*
X104852448Y-65099027D01*
X104824043Y-65192667D01*
X104777396Y-65279936D01*
X104740378Y-65349191D01*
X104736267Y-65354200D01*
X104627786Y-65486386D01*
X104526329Y-65569648D01*
X104490591Y-65598978D01*
X104490589Y-65598979D01*
X104334067Y-65682643D01*
X104277453Y-65699816D01*
X104164227Y-65734163D01*
X104098042Y-65740682D01*
X104031860Y-65747200D01*
X103943340Y-65747200D01*
X103877158Y-65740682D01*
X103810973Y-65734163D01*
X103697747Y-65699816D01*
X103641133Y-65682643D01*
X103484611Y-65598979D01*
X103484609Y-65598978D01*
X103448871Y-65569648D01*
X103347414Y-65486386D01*
X103238933Y-65354200D01*
X103234822Y-65349191D01*
X103197804Y-65279936D01*
X103151157Y-65192667D01*
X103122752Y-65099027D01*
X103099637Y-65022827D01*
X103082241Y-64846200D01*
X103099637Y-64669573D01*
X103151157Y-64499734D01*
X103151157Y-64499733D01*
X103234821Y-64343211D01*
X103234822Y-64343209D01*
X103264152Y-64307471D01*
X103347414Y-64206014D01*
X103448871Y-64122752D01*
X103484609Y-64093422D01*
X103594961Y-64034437D01*
X103641133Y-64009757D01*
X103697747Y-63992584D01*
X103810973Y-63958237D01*
X103877157Y-63951719D01*
X103943340Y-63945200D01*
X104031860Y-63945200D01*
X104098043Y-63951719D01*
X104098043Y-63951719D01*
G37*
G36*
X143772842Y-61919718D02*
X143839027Y-61926237D01*
X143952253Y-61960584D01*
X144008867Y-61977757D01*
X144147487Y-62051852D01*
X144165391Y-62061422D01*
X144201129Y-62090752D01*
X144302586Y-62174014D01*
X144385848Y-62275471D01*
X144415178Y-62311209D01*
X144415179Y-62311211D01*
X144498843Y-62467733D01*
X144498843Y-62467734D01*
X144550363Y-62637573D01*
X144567759Y-62814200D01*
X144550363Y-62990827D01*
X144516016Y-63104053D01*
X144498843Y-63160667D01*
X144424748Y-63299287D01*
X144415178Y-63317191D01*
X144385848Y-63352929D01*
X144302586Y-63454386D01*
X144201129Y-63537648D01*
X144165391Y-63566978D01*
X144165389Y-63566979D01*
X144008867Y-63650643D01*
X143952253Y-63667816D01*
X143839027Y-63702163D01*
X143772842Y-63708682D01*
X143706660Y-63715200D01*
X143618140Y-63715200D01*
X143551958Y-63708682D01*
X143485773Y-63702163D01*
X143372547Y-63667816D01*
X143315933Y-63650643D01*
X143159411Y-63566979D01*
X143159409Y-63566978D01*
X143123671Y-63537648D01*
X143022214Y-63454386D01*
X142938952Y-63352929D01*
X142909622Y-63317191D01*
X142900052Y-63299287D01*
X142825957Y-63160667D01*
X142808784Y-63104053D01*
X142774437Y-62990827D01*
X142757041Y-62814200D01*
X142774437Y-62637573D01*
X142825957Y-62467734D01*
X142825957Y-62467733D01*
X142909621Y-62311211D01*
X142909622Y-62311209D01*
X142938952Y-62275471D01*
X143022214Y-62174014D01*
X143123671Y-62090752D01*
X143159409Y-62061422D01*
X143177313Y-62051852D01*
X143315933Y-61977757D01*
X143372547Y-61960584D01*
X143485773Y-61926237D01*
X143551958Y-61919718D01*
X143618140Y-61913200D01*
X143706660Y-61913200D01*
X143772842Y-61919718D01*
X143772842Y-61919718D01*
G37*
G36*
X164092842Y-61919718D02*
X164159027Y-61926237D01*
X164272253Y-61960584D01*
X164328867Y-61977757D01*
X164467487Y-62051852D01*
X164485391Y-62061422D01*
X164521129Y-62090752D01*
X164622586Y-62174014D01*
X164705848Y-62275471D01*
X164735178Y-62311209D01*
X164735179Y-62311211D01*
X164818843Y-62467733D01*
X164818843Y-62467734D01*
X164870363Y-62637573D01*
X164887759Y-62814200D01*
X164870363Y-62990827D01*
X164836016Y-63104053D01*
X164818843Y-63160667D01*
X164744748Y-63299287D01*
X164735178Y-63317191D01*
X164705848Y-63352929D01*
X164622586Y-63454386D01*
X164521129Y-63537648D01*
X164485391Y-63566978D01*
X164485389Y-63566979D01*
X164328867Y-63650643D01*
X164272253Y-63667816D01*
X164159027Y-63702163D01*
X164092842Y-63708682D01*
X164026660Y-63715200D01*
X163938140Y-63715200D01*
X163871958Y-63708682D01*
X163805773Y-63702163D01*
X163692547Y-63667816D01*
X163635933Y-63650643D01*
X163479411Y-63566979D01*
X163479409Y-63566978D01*
X163443671Y-63537648D01*
X163342214Y-63454386D01*
X163258952Y-63352929D01*
X163229622Y-63317191D01*
X163220052Y-63299287D01*
X163145957Y-63160667D01*
X163128784Y-63104053D01*
X163094437Y-62990827D01*
X163077041Y-62814200D01*
X163094437Y-62637573D01*
X163145957Y-62467734D01*
X163145957Y-62467733D01*
X163229621Y-62311211D01*
X163229622Y-62311209D01*
X163258952Y-62275471D01*
X163342214Y-62174014D01*
X163443671Y-62090752D01*
X163479409Y-62061422D01*
X163497313Y-62051852D01*
X163635933Y-61977757D01*
X163692547Y-61960584D01*
X163805773Y-61926237D01*
X163871958Y-61919718D01*
X163938140Y-61913200D01*
X164026660Y-61913200D01*
X164092842Y-61919718D01*
X164092842Y-61919718D01*
G37*
G36*
X161552842Y-61919718D02*
X161619027Y-61926237D01*
X161732253Y-61960584D01*
X161788867Y-61977757D01*
X161927487Y-62051852D01*
X161945391Y-62061422D01*
X161981129Y-62090752D01*
X162082586Y-62174014D01*
X162165848Y-62275471D01*
X162195178Y-62311209D01*
X162195179Y-62311211D01*
X162278843Y-62467733D01*
X162278843Y-62467734D01*
X162330363Y-62637573D01*
X162347759Y-62814200D01*
X162330363Y-62990827D01*
X162296016Y-63104053D01*
X162278843Y-63160667D01*
X162204748Y-63299287D01*
X162195178Y-63317191D01*
X162165848Y-63352929D01*
X162082586Y-63454386D01*
X161981129Y-63537648D01*
X161945391Y-63566978D01*
X161945389Y-63566979D01*
X161788867Y-63650643D01*
X161732253Y-63667816D01*
X161619027Y-63702163D01*
X161552842Y-63708682D01*
X161486660Y-63715200D01*
X161398140Y-63715200D01*
X161331958Y-63708682D01*
X161265773Y-63702163D01*
X161152547Y-63667816D01*
X161095933Y-63650643D01*
X160939411Y-63566979D01*
X160939409Y-63566978D01*
X160903671Y-63537648D01*
X160802214Y-63454386D01*
X160718952Y-63352929D01*
X160689622Y-63317191D01*
X160680052Y-63299287D01*
X160605957Y-63160667D01*
X160588784Y-63104053D01*
X160554437Y-62990827D01*
X160537041Y-62814200D01*
X160554437Y-62637573D01*
X160605957Y-62467734D01*
X160605957Y-62467733D01*
X160689621Y-62311211D01*
X160689622Y-62311209D01*
X160718952Y-62275471D01*
X160802214Y-62174014D01*
X160903671Y-62090752D01*
X160939409Y-62061422D01*
X160957313Y-62051852D01*
X161095933Y-61977757D01*
X161152547Y-61960584D01*
X161265773Y-61926237D01*
X161331958Y-61919718D01*
X161398140Y-61913200D01*
X161486660Y-61913200D01*
X161552842Y-61919718D01*
X161552842Y-61919718D01*
G37*
G36*
X156472842Y-61919718D02*
X156539027Y-61926237D01*
X156652253Y-61960584D01*
X156708867Y-61977757D01*
X156847487Y-62051852D01*
X156865391Y-62061422D01*
X156901129Y-62090752D01*
X157002586Y-62174014D01*
X157085848Y-62275471D01*
X157115178Y-62311209D01*
X157115179Y-62311211D01*
X157198843Y-62467733D01*
X157198843Y-62467734D01*
X157250363Y-62637573D01*
X157267759Y-62814200D01*
X157250363Y-62990827D01*
X157216016Y-63104053D01*
X157198843Y-63160667D01*
X157124748Y-63299287D01*
X157115178Y-63317191D01*
X157085848Y-63352929D01*
X157002586Y-63454386D01*
X156901129Y-63537648D01*
X156865391Y-63566978D01*
X156865389Y-63566979D01*
X156708867Y-63650643D01*
X156652253Y-63667816D01*
X156539027Y-63702163D01*
X156472842Y-63708682D01*
X156406660Y-63715200D01*
X156318140Y-63715200D01*
X156251958Y-63708682D01*
X156185773Y-63702163D01*
X156072547Y-63667816D01*
X156015933Y-63650643D01*
X155859411Y-63566979D01*
X155859409Y-63566978D01*
X155823671Y-63537648D01*
X155722214Y-63454386D01*
X155638952Y-63352929D01*
X155609622Y-63317191D01*
X155600052Y-63299287D01*
X155525957Y-63160667D01*
X155508784Y-63104053D01*
X155474437Y-62990827D01*
X155457041Y-62814200D01*
X155474437Y-62637573D01*
X155525957Y-62467734D01*
X155525957Y-62467733D01*
X155609621Y-62311211D01*
X155609622Y-62311209D01*
X155638952Y-62275471D01*
X155722214Y-62174014D01*
X155823671Y-62090752D01*
X155859409Y-62061422D01*
X155877313Y-62051852D01*
X156015933Y-61977757D01*
X156072547Y-61960584D01*
X156185773Y-61926237D01*
X156251958Y-61919718D01*
X156318140Y-61913200D01*
X156406660Y-61913200D01*
X156472842Y-61919718D01*
X156472842Y-61919718D01*
G37*
G36*
X153932842Y-61919718D02*
X153999027Y-61926237D01*
X154112253Y-61960584D01*
X154168867Y-61977757D01*
X154307487Y-62051852D01*
X154325391Y-62061422D01*
X154361129Y-62090752D01*
X154462586Y-62174014D01*
X154545848Y-62275471D01*
X154575178Y-62311209D01*
X154575179Y-62311211D01*
X154658843Y-62467733D01*
X154658843Y-62467734D01*
X154710363Y-62637573D01*
X154727759Y-62814200D01*
X154710363Y-62990827D01*
X154676016Y-63104053D01*
X154658843Y-63160667D01*
X154584748Y-63299287D01*
X154575178Y-63317191D01*
X154545848Y-63352929D01*
X154462586Y-63454386D01*
X154361129Y-63537648D01*
X154325391Y-63566978D01*
X154325389Y-63566979D01*
X154168867Y-63650643D01*
X154112253Y-63667816D01*
X153999027Y-63702163D01*
X153932842Y-63708682D01*
X153866660Y-63715200D01*
X153778140Y-63715200D01*
X153711958Y-63708682D01*
X153645773Y-63702163D01*
X153532547Y-63667816D01*
X153475933Y-63650643D01*
X153319411Y-63566979D01*
X153319409Y-63566978D01*
X153283671Y-63537648D01*
X153182214Y-63454386D01*
X153098952Y-63352929D01*
X153069622Y-63317191D01*
X153060052Y-63299287D01*
X152985957Y-63160667D01*
X152968784Y-63104053D01*
X152934437Y-62990827D01*
X152917041Y-62814200D01*
X152934437Y-62637573D01*
X152985957Y-62467734D01*
X152985957Y-62467733D01*
X153069621Y-62311211D01*
X153069622Y-62311209D01*
X153098952Y-62275471D01*
X153182214Y-62174014D01*
X153283671Y-62090752D01*
X153319409Y-62061422D01*
X153337313Y-62051852D01*
X153475933Y-61977757D01*
X153532547Y-61960584D01*
X153645773Y-61926237D01*
X153711958Y-61919718D01*
X153778140Y-61913200D01*
X153866660Y-61913200D01*
X153932842Y-61919718D01*
X153932842Y-61919718D01*
G37*
G36*
X151392842Y-61919718D02*
X151459027Y-61926237D01*
X151572253Y-61960584D01*
X151628867Y-61977757D01*
X151767487Y-62051852D01*
X151785391Y-62061422D01*
X151821129Y-62090752D01*
X151922586Y-62174014D01*
X152005848Y-62275471D01*
X152035178Y-62311209D01*
X152035179Y-62311211D01*
X152118843Y-62467733D01*
X152118843Y-62467734D01*
X152170363Y-62637573D01*
X152187759Y-62814200D01*
X152170363Y-62990827D01*
X152136016Y-63104053D01*
X152118843Y-63160667D01*
X152044748Y-63299287D01*
X152035178Y-63317191D01*
X152005848Y-63352929D01*
X151922586Y-63454386D01*
X151821129Y-63537648D01*
X151785391Y-63566978D01*
X151785389Y-63566979D01*
X151628867Y-63650643D01*
X151572253Y-63667816D01*
X151459027Y-63702163D01*
X151392842Y-63708682D01*
X151326660Y-63715200D01*
X151238140Y-63715200D01*
X151171958Y-63708682D01*
X151105773Y-63702163D01*
X150992547Y-63667816D01*
X150935933Y-63650643D01*
X150779411Y-63566979D01*
X150779409Y-63566978D01*
X150743671Y-63537648D01*
X150642214Y-63454386D01*
X150558952Y-63352929D01*
X150529622Y-63317191D01*
X150520052Y-63299287D01*
X150445957Y-63160667D01*
X150428784Y-63104053D01*
X150394437Y-62990827D01*
X150377041Y-62814200D01*
X150394437Y-62637573D01*
X150445957Y-62467734D01*
X150445957Y-62467733D01*
X150529621Y-62311211D01*
X150529622Y-62311209D01*
X150558952Y-62275471D01*
X150642214Y-62174014D01*
X150743671Y-62090752D01*
X150779409Y-62061422D01*
X150797313Y-62051852D01*
X150935933Y-61977757D01*
X150992547Y-61960584D01*
X151105773Y-61926237D01*
X151171958Y-61919718D01*
X151238140Y-61913200D01*
X151326660Y-61913200D01*
X151392842Y-61919718D01*
X151392842Y-61919718D01*
G37*
G36*
X148852842Y-61919718D02*
X148919027Y-61926237D01*
X149032253Y-61960584D01*
X149088867Y-61977757D01*
X149227487Y-62051852D01*
X149245391Y-62061422D01*
X149281129Y-62090752D01*
X149382586Y-62174014D01*
X149465848Y-62275471D01*
X149495178Y-62311209D01*
X149495179Y-62311211D01*
X149578843Y-62467733D01*
X149578843Y-62467734D01*
X149630363Y-62637573D01*
X149647759Y-62814200D01*
X149630363Y-62990827D01*
X149596016Y-63104053D01*
X149578843Y-63160667D01*
X149504748Y-63299287D01*
X149495178Y-63317191D01*
X149465848Y-63352929D01*
X149382586Y-63454386D01*
X149281129Y-63537648D01*
X149245391Y-63566978D01*
X149245389Y-63566979D01*
X149088867Y-63650643D01*
X149032253Y-63667816D01*
X148919027Y-63702163D01*
X148852842Y-63708682D01*
X148786660Y-63715200D01*
X148698140Y-63715200D01*
X148631958Y-63708682D01*
X148565773Y-63702163D01*
X148452547Y-63667816D01*
X148395933Y-63650643D01*
X148239411Y-63566979D01*
X148239409Y-63566978D01*
X148203671Y-63537648D01*
X148102214Y-63454386D01*
X148018952Y-63352929D01*
X147989622Y-63317191D01*
X147980052Y-63299287D01*
X147905957Y-63160667D01*
X147888784Y-63104053D01*
X147854437Y-62990827D01*
X147837041Y-62814200D01*
X147854437Y-62637573D01*
X147905957Y-62467734D01*
X147905957Y-62467733D01*
X147989621Y-62311211D01*
X147989622Y-62311209D01*
X148018952Y-62275471D01*
X148102214Y-62174014D01*
X148203671Y-62090752D01*
X148239409Y-62061422D01*
X148257313Y-62051852D01*
X148395933Y-61977757D01*
X148452547Y-61960584D01*
X148565773Y-61926237D01*
X148631958Y-61919718D01*
X148698140Y-61913200D01*
X148786660Y-61913200D01*
X148852842Y-61919718D01*
X148852842Y-61919718D01*
G37*
G36*
X146312842Y-61919718D02*
X146379027Y-61926237D01*
X146492253Y-61960584D01*
X146548867Y-61977757D01*
X146687487Y-62051852D01*
X146705391Y-62061422D01*
X146741129Y-62090752D01*
X146842586Y-62174014D01*
X146925848Y-62275471D01*
X146955178Y-62311209D01*
X146955179Y-62311211D01*
X147038843Y-62467733D01*
X147038843Y-62467734D01*
X147090363Y-62637573D01*
X147107759Y-62814200D01*
X147090363Y-62990827D01*
X147056016Y-63104053D01*
X147038843Y-63160667D01*
X146964748Y-63299287D01*
X146955178Y-63317191D01*
X146925848Y-63352929D01*
X146842586Y-63454386D01*
X146741129Y-63537648D01*
X146705391Y-63566978D01*
X146705389Y-63566979D01*
X146548867Y-63650643D01*
X146492253Y-63667816D01*
X146379027Y-63702163D01*
X146312842Y-63708682D01*
X146246660Y-63715200D01*
X146158140Y-63715200D01*
X146091958Y-63708682D01*
X146025773Y-63702163D01*
X145912547Y-63667816D01*
X145855933Y-63650643D01*
X145699411Y-63566979D01*
X145699409Y-63566978D01*
X145663671Y-63537648D01*
X145562214Y-63454386D01*
X145478952Y-63352929D01*
X145449622Y-63317191D01*
X145440052Y-63299287D01*
X145365957Y-63160667D01*
X145348784Y-63104053D01*
X145314437Y-62990827D01*
X145297041Y-62814200D01*
X145314437Y-62637573D01*
X145365957Y-62467734D01*
X145365957Y-62467733D01*
X145449621Y-62311211D01*
X145449622Y-62311209D01*
X145478952Y-62275471D01*
X145562214Y-62174014D01*
X145663671Y-62090752D01*
X145699409Y-62061422D01*
X145717313Y-62051852D01*
X145855933Y-61977757D01*
X145912547Y-61960584D01*
X146025773Y-61926237D01*
X146091958Y-61919718D01*
X146158140Y-61913200D01*
X146246660Y-61913200D01*
X146312842Y-61919718D01*
X146312842Y-61919718D01*
G37*
G36*
X166632842Y-61919718D02*
X166699027Y-61926237D01*
X166812253Y-61960584D01*
X166868867Y-61977757D01*
X167007487Y-62051852D01*
X167025391Y-62061422D01*
X167061129Y-62090752D01*
X167162586Y-62174014D01*
X167245848Y-62275471D01*
X167275178Y-62311209D01*
X167275179Y-62311211D01*
X167358843Y-62467733D01*
X167358843Y-62467734D01*
X167410363Y-62637573D01*
X167427759Y-62814200D01*
X167410363Y-62990827D01*
X167376016Y-63104053D01*
X167358843Y-63160667D01*
X167284748Y-63299287D01*
X167275178Y-63317191D01*
X167245848Y-63352929D01*
X167162586Y-63454386D01*
X167061129Y-63537648D01*
X167025391Y-63566978D01*
X167025389Y-63566979D01*
X166868867Y-63650643D01*
X166812253Y-63667816D01*
X166699027Y-63702163D01*
X166632842Y-63708682D01*
X166566660Y-63715200D01*
X166478140Y-63715200D01*
X166411958Y-63708682D01*
X166345773Y-63702163D01*
X166232547Y-63667816D01*
X166175933Y-63650643D01*
X166019411Y-63566979D01*
X166019409Y-63566978D01*
X165983671Y-63537648D01*
X165882214Y-63454386D01*
X165798952Y-63352929D01*
X165769622Y-63317191D01*
X165760052Y-63299287D01*
X165685957Y-63160667D01*
X165668784Y-63104053D01*
X165634437Y-62990827D01*
X165617041Y-62814200D01*
X165634437Y-62637573D01*
X165685957Y-62467734D01*
X165685957Y-62467733D01*
X165769621Y-62311211D01*
X165769622Y-62311209D01*
X165798952Y-62275471D01*
X165882214Y-62174014D01*
X165983671Y-62090752D01*
X166019409Y-62061422D01*
X166037313Y-62051852D01*
X166175933Y-61977757D01*
X166232547Y-61960584D01*
X166345773Y-61926237D01*
X166411958Y-61919718D01*
X166478140Y-61913200D01*
X166566660Y-61913200D01*
X166632842Y-61919718D01*
X166632842Y-61919718D01*
G37*
G36*
X141232842Y-61919718D02*
X141299027Y-61926237D01*
X141412253Y-61960584D01*
X141468867Y-61977757D01*
X141607487Y-62051852D01*
X141625391Y-62061422D01*
X141661129Y-62090752D01*
X141762586Y-62174014D01*
X141845848Y-62275471D01*
X141875178Y-62311209D01*
X141875179Y-62311211D01*
X141958843Y-62467733D01*
X141958843Y-62467734D01*
X142010363Y-62637573D01*
X142027759Y-62814200D01*
X142010363Y-62990827D01*
X141976016Y-63104053D01*
X141958843Y-63160667D01*
X141884748Y-63299287D01*
X141875178Y-63317191D01*
X141845848Y-63352929D01*
X141762586Y-63454386D01*
X141661129Y-63537648D01*
X141625391Y-63566978D01*
X141625389Y-63566979D01*
X141468867Y-63650643D01*
X141412253Y-63667816D01*
X141299027Y-63702163D01*
X141232842Y-63708682D01*
X141166660Y-63715200D01*
X141078140Y-63715200D01*
X141011958Y-63708682D01*
X140945773Y-63702163D01*
X140832547Y-63667816D01*
X140775933Y-63650643D01*
X140619411Y-63566979D01*
X140619409Y-63566978D01*
X140583671Y-63537648D01*
X140482214Y-63454386D01*
X140398952Y-63352929D01*
X140369622Y-63317191D01*
X140360052Y-63299287D01*
X140285957Y-63160667D01*
X140268784Y-63104053D01*
X140234437Y-62990827D01*
X140217041Y-62814200D01*
X140234437Y-62637573D01*
X140285957Y-62467734D01*
X140285957Y-62467733D01*
X140369621Y-62311211D01*
X140369622Y-62311209D01*
X140398952Y-62275471D01*
X140482214Y-62174014D01*
X140583671Y-62090752D01*
X140619409Y-62061422D01*
X140637313Y-62051852D01*
X140775933Y-61977757D01*
X140832547Y-61960584D01*
X140945773Y-61926237D01*
X141011958Y-61919718D01*
X141078140Y-61913200D01*
X141166660Y-61913200D01*
X141232842Y-61919718D01*
X141232842Y-61919718D01*
G37*
G36*
X171712842Y-61919718D02*
X171779027Y-61926237D01*
X171892253Y-61960584D01*
X171948867Y-61977757D01*
X172087487Y-62051852D01*
X172105391Y-62061422D01*
X172141129Y-62090752D01*
X172242586Y-62174014D01*
X172325848Y-62275471D01*
X172355178Y-62311209D01*
X172355179Y-62311211D01*
X172438843Y-62467733D01*
X172438843Y-62467734D01*
X172490363Y-62637573D01*
X172507759Y-62814200D01*
X172490363Y-62990827D01*
X172456016Y-63104053D01*
X172438843Y-63160667D01*
X172364748Y-63299287D01*
X172355178Y-63317191D01*
X172325848Y-63352929D01*
X172242586Y-63454386D01*
X172141129Y-63537648D01*
X172105391Y-63566978D01*
X172105389Y-63566979D01*
X171948867Y-63650643D01*
X171892253Y-63667816D01*
X171779027Y-63702163D01*
X171712842Y-63708682D01*
X171646660Y-63715200D01*
X171558140Y-63715200D01*
X171491958Y-63708682D01*
X171425773Y-63702163D01*
X171312547Y-63667816D01*
X171255933Y-63650643D01*
X171099411Y-63566979D01*
X171099409Y-63566978D01*
X171063671Y-63537648D01*
X170962214Y-63454386D01*
X170878952Y-63352929D01*
X170849622Y-63317191D01*
X170840052Y-63299287D01*
X170765957Y-63160667D01*
X170748784Y-63104053D01*
X170714437Y-62990827D01*
X170697041Y-62814200D01*
X170714437Y-62637573D01*
X170765957Y-62467734D01*
X170765957Y-62467733D01*
X170849621Y-62311211D01*
X170849622Y-62311209D01*
X170878952Y-62275471D01*
X170962214Y-62174014D01*
X171063671Y-62090752D01*
X171099409Y-62061422D01*
X171117313Y-62051852D01*
X171255933Y-61977757D01*
X171312547Y-61960584D01*
X171425773Y-61926237D01*
X171491958Y-61919718D01*
X171558140Y-61913200D01*
X171646660Y-61913200D01*
X171712842Y-61919718D01*
X171712842Y-61919718D01*
G37*
G36*
X136152842Y-61919718D02*
X136219027Y-61926237D01*
X136332253Y-61960584D01*
X136388867Y-61977757D01*
X136527487Y-62051852D01*
X136545391Y-62061422D01*
X136581129Y-62090752D01*
X136682586Y-62174014D01*
X136765848Y-62275471D01*
X136795178Y-62311209D01*
X136795179Y-62311211D01*
X136878843Y-62467733D01*
X136878843Y-62467734D01*
X136930363Y-62637573D01*
X136947759Y-62814200D01*
X136930363Y-62990827D01*
X136896016Y-63104053D01*
X136878843Y-63160667D01*
X136804748Y-63299287D01*
X136795178Y-63317191D01*
X136765848Y-63352929D01*
X136682586Y-63454386D01*
X136581129Y-63537648D01*
X136545391Y-63566978D01*
X136545389Y-63566979D01*
X136388867Y-63650643D01*
X136332253Y-63667816D01*
X136219027Y-63702163D01*
X136152842Y-63708682D01*
X136086660Y-63715200D01*
X135998140Y-63715200D01*
X135931958Y-63708682D01*
X135865773Y-63702163D01*
X135752547Y-63667816D01*
X135695933Y-63650643D01*
X135539411Y-63566979D01*
X135539409Y-63566978D01*
X135503671Y-63537648D01*
X135402214Y-63454386D01*
X135318952Y-63352929D01*
X135289622Y-63317191D01*
X135280052Y-63299287D01*
X135205957Y-63160667D01*
X135188784Y-63104053D01*
X135154437Y-62990827D01*
X135137041Y-62814200D01*
X135154437Y-62637573D01*
X135205957Y-62467734D01*
X135205957Y-62467733D01*
X135289621Y-62311211D01*
X135289622Y-62311209D01*
X135318952Y-62275471D01*
X135402214Y-62174014D01*
X135503671Y-62090752D01*
X135539409Y-62061422D01*
X135557313Y-62051852D01*
X135695933Y-61977757D01*
X135752547Y-61960584D01*
X135865773Y-61926237D01*
X135931958Y-61919718D01*
X135998140Y-61913200D01*
X136086660Y-61913200D01*
X136152842Y-61919718D01*
X136152842Y-61919718D01*
G37*
G36*
X133612842Y-61919718D02*
X133679027Y-61926237D01*
X133792253Y-61960584D01*
X133848867Y-61977757D01*
X133987487Y-62051852D01*
X134005391Y-62061422D01*
X134041129Y-62090752D01*
X134142586Y-62174014D01*
X134225848Y-62275471D01*
X134255178Y-62311209D01*
X134255179Y-62311211D01*
X134338843Y-62467733D01*
X134338843Y-62467734D01*
X134390363Y-62637573D01*
X134407759Y-62814200D01*
X134390363Y-62990827D01*
X134356016Y-63104053D01*
X134338843Y-63160667D01*
X134264748Y-63299287D01*
X134255178Y-63317191D01*
X134225848Y-63352929D01*
X134142586Y-63454386D01*
X134041129Y-63537648D01*
X134005391Y-63566978D01*
X134005389Y-63566979D01*
X133848867Y-63650643D01*
X133792253Y-63667816D01*
X133679027Y-63702163D01*
X133612842Y-63708682D01*
X133546660Y-63715200D01*
X133458140Y-63715200D01*
X133391958Y-63708682D01*
X133325773Y-63702163D01*
X133212547Y-63667816D01*
X133155933Y-63650643D01*
X132999411Y-63566979D01*
X132999409Y-63566978D01*
X132963671Y-63537648D01*
X132862214Y-63454386D01*
X132778952Y-63352929D01*
X132749622Y-63317191D01*
X132740052Y-63299287D01*
X132665957Y-63160667D01*
X132648784Y-63104053D01*
X132614437Y-62990827D01*
X132597041Y-62814200D01*
X132614437Y-62637573D01*
X132665957Y-62467734D01*
X132665957Y-62467733D01*
X132749621Y-62311211D01*
X132749622Y-62311209D01*
X132778952Y-62275471D01*
X132862214Y-62174014D01*
X132963671Y-62090752D01*
X132999409Y-62061422D01*
X133017313Y-62051852D01*
X133155933Y-61977757D01*
X133212547Y-61960584D01*
X133325773Y-61926237D01*
X133391958Y-61919718D01*
X133458140Y-61913200D01*
X133546660Y-61913200D01*
X133612842Y-61919718D01*
X133612842Y-61919718D01*
G37*
G36*
X159012842Y-61919718D02*
X159079027Y-61926237D01*
X159192253Y-61960584D01*
X159248867Y-61977757D01*
X159387487Y-62051852D01*
X159405391Y-62061422D01*
X159441129Y-62090752D01*
X159542586Y-62174014D01*
X159625848Y-62275471D01*
X159655178Y-62311209D01*
X159655179Y-62311211D01*
X159738843Y-62467733D01*
X159738843Y-62467734D01*
X159790363Y-62637573D01*
X159807759Y-62814200D01*
X159790363Y-62990827D01*
X159756016Y-63104053D01*
X159738843Y-63160667D01*
X159664748Y-63299287D01*
X159655178Y-63317191D01*
X159625848Y-63352929D01*
X159542586Y-63454386D01*
X159441129Y-63537648D01*
X159405391Y-63566978D01*
X159405389Y-63566979D01*
X159248867Y-63650643D01*
X159192253Y-63667816D01*
X159079027Y-63702163D01*
X159012842Y-63708682D01*
X158946660Y-63715200D01*
X158858140Y-63715200D01*
X158791958Y-63708682D01*
X158725773Y-63702163D01*
X158612547Y-63667816D01*
X158555933Y-63650643D01*
X158399411Y-63566979D01*
X158399409Y-63566978D01*
X158363671Y-63537648D01*
X158262214Y-63454386D01*
X158178952Y-63352929D01*
X158149622Y-63317191D01*
X158140052Y-63299287D01*
X158065957Y-63160667D01*
X158048784Y-63104053D01*
X158014437Y-62990827D01*
X157997041Y-62814200D01*
X158014437Y-62637573D01*
X158065957Y-62467734D01*
X158065957Y-62467733D01*
X158149621Y-62311211D01*
X158149622Y-62311209D01*
X158178952Y-62275471D01*
X158262214Y-62174014D01*
X158363671Y-62090752D01*
X158399409Y-62061422D01*
X158417313Y-62051852D01*
X158555933Y-61977757D01*
X158612547Y-61960584D01*
X158725773Y-61926237D01*
X158791958Y-61919718D01*
X158858140Y-61913200D01*
X158946660Y-61913200D01*
X159012842Y-61919718D01*
X159012842Y-61919718D01*
G37*
G36*
X174252842Y-61919718D02*
X174319027Y-61926237D01*
X174432253Y-61960584D01*
X174488867Y-61977757D01*
X174627487Y-62051852D01*
X174645391Y-62061422D01*
X174681129Y-62090752D01*
X174782586Y-62174014D01*
X174865848Y-62275471D01*
X174895178Y-62311209D01*
X174895179Y-62311211D01*
X174978843Y-62467733D01*
X174978843Y-62467734D01*
X175030363Y-62637573D01*
X175047759Y-62814200D01*
X175030363Y-62990827D01*
X174996016Y-63104053D01*
X174978843Y-63160667D01*
X174904748Y-63299287D01*
X174895178Y-63317191D01*
X174865848Y-63352929D01*
X174782586Y-63454386D01*
X174681129Y-63537648D01*
X174645391Y-63566978D01*
X174645389Y-63566979D01*
X174488867Y-63650643D01*
X174432253Y-63667816D01*
X174319027Y-63702163D01*
X174252842Y-63708682D01*
X174186660Y-63715200D01*
X174098140Y-63715200D01*
X174031958Y-63708682D01*
X173965773Y-63702163D01*
X173852547Y-63667816D01*
X173795933Y-63650643D01*
X173639411Y-63566979D01*
X173639409Y-63566978D01*
X173603671Y-63537648D01*
X173502214Y-63454386D01*
X173418952Y-63352929D01*
X173389622Y-63317191D01*
X173380052Y-63299287D01*
X173305957Y-63160667D01*
X173288784Y-63104053D01*
X173254437Y-62990827D01*
X173237041Y-62814200D01*
X173254437Y-62637573D01*
X173305957Y-62467734D01*
X173305957Y-62467733D01*
X173389621Y-62311211D01*
X173389622Y-62311209D01*
X173418952Y-62275471D01*
X173502214Y-62174014D01*
X173603671Y-62090752D01*
X173639409Y-62061422D01*
X173657313Y-62051852D01*
X173795933Y-61977757D01*
X173852547Y-61960584D01*
X173965773Y-61926237D01*
X174031958Y-61919718D01*
X174098140Y-61913200D01*
X174186660Y-61913200D01*
X174252842Y-61919718D01*
X174252842Y-61919718D01*
G37*
G36*
X176792842Y-61919718D02*
X176859027Y-61926237D01*
X176972253Y-61960584D01*
X177028867Y-61977757D01*
X177167487Y-62051852D01*
X177185391Y-62061422D01*
X177221129Y-62090752D01*
X177322586Y-62174014D01*
X177405848Y-62275471D01*
X177435178Y-62311209D01*
X177435179Y-62311211D01*
X177518843Y-62467733D01*
X177518843Y-62467734D01*
X177570363Y-62637573D01*
X177587759Y-62814200D01*
X177570363Y-62990827D01*
X177536016Y-63104053D01*
X177518843Y-63160667D01*
X177444748Y-63299287D01*
X177435178Y-63317191D01*
X177405848Y-63352929D01*
X177322586Y-63454386D01*
X177221129Y-63537648D01*
X177185391Y-63566978D01*
X177185389Y-63566979D01*
X177028867Y-63650643D01*
X176972253Y-63667816D01*
X176859027Y-63702163D01*
X176792842Y-63708682D01*
X176726660Y-63715200D01*
X176638140Y-63715200D01*
X176571958Y-63708682D01*
X176505773Y-63702163D01*
X176392547Y-63667816D01*
X176335933Y-63650643D01*
X176179411Y-63566979D01*
X176179409Y-63566978D01*
X176143671Y-63537648D01*
X176042214Y-63454386D01*
X175958952Y-63352929D01*
X175929622Y-63317191D01*
X175920052Y-63299287D01*
X175845957Y-63160667D01*
X175828784Y-63104053D01*
X175794437Y-62990827D01*
X175777041Y-62814200D01*
X175794437Y-62637573D01*
X175845957Y-62467734D01*
X175845957Y-62467733D01*
X175929621Y-62311211D01*
X175929622Y-62311209D01*
X175958952Y-62275471D01*
X176042214Y-62174014D01*
X176143671Y-62090752D01*
X176179409Y-62061422D01*
X176197313Y-62051852D01*
X176335933Y-61977757D01*
X176392547Y-61960584D01*
X176505773Y-61926237D01*
X176571958Y-61919718D01*
X176638140Y-61913200D01*
X176726660Y-61913200D01*
X176792842Y-61919718D01*
X176792842Y-61919718D01*
G37*
G36*
X179332842Y-61919718D02*
X179399027Y-61926237D01*
X179512253Y-61960584D01*
X179568867Y-61977757D01*
X179707487Y-62051852D01*
X179725391Y-62061422D01*
X179761129Y-62090752D01*
X179862586Y-62174014D01*
X179945848Y-62275471D01*
X179975178Y-62311209D01*
X179975179Y-62311211D01*
X180058843Y-62467733D01*
X180058843Y-62467734D01*
X180110363Y-62637573D01*
X180127759Y-62814200D01*
X180110363Y-62990827D01*
X180076016Y-63104053D01*
X180058843Y-63160667D01*
X179984748Y-63299287D01*
X179975178Y-63317191D01*
X179945848Y-63352929D01*
X179862586Y-63454386D01*
X179761129Y-63537648D01*
X179725391Y-63566978D01*
X179725389Y-63566979D01*
X179568867Y-63650643D01*
X179512253Y-63667816D01*
X179399027Y-63702163D01*
X179332842Y-63708682D01*
X179266660Y-63715200D01*
X179178140Y-63715200D01*
X179111958Y-63708682D01*
X179045773Y-63702163D01*
X178932547Y-63667816D01*
X178875933Y-63650643D01*
X178719411Y-63566979D01*
X178719409Y-63566978D01*
X178683671Y-63537648D01*
X178582214Y-63454386D01*
X178498952Y-63352929D01*
X178469622Y-63317191D01*
X178460052Y-63299287D01*
X178385957Y-63160667D01*
X178368784Y-63104053D01*
X178334437Y-62990827D01*
X178317041Y-62814200D01*
X178334437Y-62637573D01*
X178385957Y-62467734D01*
X178385957Y-62467733D01*
X178469621Y-62311211D01*
X178469622Y-62311209D01*
X178498952Y-62275471D01*
X178582214Y-62174014D01*
X178683671Y-62090752D01*
X178719409Y-62061422D01*
X178737313Y-62051852D01*
X178875933Y-61977757D01*
X178932547Y-61960584D01*
X179045773Y-61926237D01*
X179111958Y-61919718D01*
X179178140Y-61913200D01*
X179266660Y-61913200D01*
X179332842Y-61919718D01*
X179332842Y-61919718D01*
G37*
G36*
X131072842Y-61919718D02*
X131139027Y-61926237D01*
X131252253Y-61960584D01*
X131308867Y-61977757D01*
X131447487Y-62051852D01*
X131465391Y-62061422D01*
X131501129Y-62090752D01*
X131602586Y-62174014D01*
X131685848Y-62275471D01*
X131715178Y-62311209D01*
X131715179Y-62311211D01*
X131798843Y-62467733D01*
X131798843Y-62467734D01*
X131850363Y-62637573D01*
X131867759Y-62814200D01*
X131850363Y-62990827D01*
X131816016Y-63104053D01*
X131798843Y-63160667D01*
X131724748Y-63299287D01*
X131715178Y-63317191D01*
X131685848Y-63352929D01*
X131602586Y-63454386D01*
X131501129Y-63537648D01*
X131465391Y-63566978D01*
X131465389Y-63566979D01*
X131308867Y-63650643D01*
X131252253Y-63667816D01*
X131139027Y-63702163D01*
X131072842Y-63708682D01*
X131006660Y-63715200D01*
X130918140Y-63715200D01*
X130851958Y-63708682D01*
X130785773Y-63702163D01*
X130672547Y-63667816D01*
X130615933Y-63650643D01*
X130459411Y-63566979D01*
X130459409Y-63566978D01*
X130423671Y-63537648D01*
X130322214Y-63454386D01*
X130238952Y-63352929D01*
X130209622Y-63317191D01*
X130200052Y-63299287D01*
X130125957Y-63160667D01*
X130108784Y-63104053D01*
X130074437Y-62990827D01*
X130057041Y-62814200D01*
X130074437Y-62637573D01*
X130125957Y-62467734D01*
X130125957Y-62467733D01*
X130209621Y-62311211D01*
X130209622Y-62311209D01*
X130238952Y-62275471D01*
X130322214Y-62174014D01*
X130423671Y-62090752D01*
X130459409Y-62061422D01*
X130477313Y-62051852D01*
X130615933Y-61977757D01*
X130672547Y-61960584D01*
X130785773Y-61926237D01*
X130851958Y-61919718D01*
X130918140Y-61913200D01*
X131006660Y-61913200D01*
X131072842Y-61919718D01*
X131072842Y-61919718D01*
G37*
G36*
X169172842Y-61919718D02*
X169239027Y-61926237D01*
X169352253Y-61960584D01*
X169408867Y-61977757D01*
X169547487Y-62051852D01*
X169565391Y-62061422D01*
X169601129Y-62090752D01*
X169702586Y-62174014D01*
X169785848Y-62275471D01*
X169815178Y-62311209D01*
X169815179Y-62311211D01*
X169898843Y-62467733D01*
X169898843Y-62467734D01*
X169950363Y-62637573D01*
X169967759Y-62814200D01*
X169950363Y-62990827D01*
X169916016Y-63104053D01*
X169898843Y-63160667D01*
X169824748Y-63299287D01*
X169815178Y-63317191D01*
X169785848Y-63352929D01*
X169702586Y-63454386D01*
X169601129Y-63537648D01*
X169565391Y-63566978D01*
X169565389Y-63566979D01*
X169408867Y-63650643D01*
X169352253Y-63667816D01*
X169239027Y-63702163D01*
X169172842Y-63708682D01*
X169106660Y-63715200D01*
X169018140Y-63715200D01*
X168951958Y-63708682D01*
X168885773Y-63702163D01*
X168772547Y-63667816D01*
X168715933Y-63650643D01*
X168559411Y-63566979D01*
X168559409Y-63566978D01*
X168523671Y-63537648D01*
X168422214Y-63454386D01*
X168338952Y-63352929D01*
X168309622Y-63317191D01*
X168300052Y-63299287D01*
X168225957Y-63160667D01*
X168208784Y-63104053D01*
X168174437Y-62990827D01*
X168157041Y-62814200D01*
X168174437Y-62637573D01*
X168225957Y-62467734D01*
X168225957Y-62467733D01*
X168309621Y-62311211D01*
X168309622Y-62311209D01*
X168338952Y-62275471D01*
X168422214Y-62174014D01*
X168523671Y-62090752D01*
X168559409Y-62061422D01*
X168577313Y-62051852D01*
X168715933Y-61977757D01*
X168772547Y-61960584D01*
X168885773Y-61926237D01*
X168951958Y-61919718D01*
X169018140Y-61913200D01*
X169106660Y-61913200D01*
X169172842Y-61919718D01*
X169172842Y-61919718D01*
G37*
G36*
X138692842Y-61919718D02*
X138759027Y-61926237D01*
X138872253Y-61960584D01*
X138928867Y-61977757D01*
X139067487Y-62051852D01*
X139085391Y-62061422D01*
X139121129Y-62090752D01*
X139222586Y-62174014D01*
X139305848Y-62275471D01*
X139335178Y-62311209D01*
X139335179Y-62311211D01*
X139418843Y-62467733D01*
X139418843Y-62467734D01*
X139470363Y-62637573D01*
X139487759Y-62814200D01*
X139470363Y-62990827D01*
X139436016Y-63104053D01*
X139418843Y-63160667D01*
X139344748Y-63299287D01*
X139335178Y-63317191D01*
X139305848Y-63352929D01*
X139222586Y-63454386D01*
X139121129Y-63537648D01*
X139085391Y-63566978D01*
X139085389Y-63566979D01*
X138928867Y-63650643D01*
X138872253Y-63667816D01*
X138759027Y-63702163D01*
X138692842Y-63708682D01*
X138626660Y-63715200D01*
X138538140Y-63715200D01*
X138471958Y-63708682D01*
X138405773Y-63702163D01*
X138292547Y-63667816D01*
X138235933Y-63650643D01*
X138079411Y-63566979D01*
X138079409Y-63566978D01*
X138043671Y-63537648D01*
X137942214Y-63454386D01*
X137858952Y-63352929D01*
X137829622Y-63317191D01*
X137820052Y-63299287D01*
X137745957Y-63160667D01*
X137728784Y-63104053D01*
X137694437Y-62990827D01*
X137677041Y-62814200D01*
X137694437Y-62637573D01*
X137745957Y-62467734D01*
X137745957Y-62467733D01*
X137829621Y-62311211D01*
X137829622Y-62311209D01*
X137858952Y-62275471D01*
X137942214Y-62174014D01*
X138043671Y-62090752D01*
X138079409Y-62061422D01*
X138097313Y-62051852D01*
X138235933Y-61977757D01*
X138292547Y-61960584D01*
X138405773Y-61926237D01*
X138471958Y-61919718D01*
X138538140Y-61913200D01*
X138626660Y-61913200D01*
X138692842Y-61919718D01*
X138692842Y-61919718D01*
G37*
G36*
X159803400Y-60083000D02*
X158001400Y-60083000D01*
X158001400Y-58281000D01*
X159803400Y-58281000D01*
X159803400Y-60083000D01*
X159803400Y-60083000D01*
G37*
G36*
X161552842Y-58287518D02*
X161619027Y-58294037D01*
X161705133Y-58320157D01*
X161788867Y-58345557D01*
X161927487Y-58419652D01*
X161945391Y-58429222D01*
X161981129Y-58458552D01*
X162082586Y-58541814D01*
X162165848Y-58643271D01*
X162195178Y-58679009D01*
X162195179Y-58679011D01*
X162278843Y-58835533D01*
X162278843Y-58835534D01*
X162330363Y-59005373D01*
X162347759Y-59182000D01*
X162330363Y-59358627D01*
X162296016Y-59471853D01*
X162278843Y-59528467D01*
X162208756Y-59659589D01*
X162195178Y-59684991D01*
X162165848Y-59720729D01*
X162082586Y-59822186D01*
X161981129Y-59905448D01*
X161945391Y-59934778D01*
X161945389Y-59934779D01*
X161788867Y-60018443D01*
X161732253Y-60035616D01*
X161619027Y-60069963D01*
X161552842Y-60076482D01*
X161486660Y-60083000D01*
X161398140Y-60083000D01*
X161331958Y-60076482D01*
X161265773Y-60069963D01*
X161152547Y-60035616D01*
X161095933Y-60018443D01*
X160939411Y-59934779D01*
X160939409Y-59934778D01*
X160903671Y-59905448D01*
X160802214Y-59822186D01*
X160718952Y-59720729D01*
X160689622Y-59684991D01*
X160676044Y-59659589D01*
X160605957Y-59528467D01*
X160588784Y-59471853D01*
X160554437Y-59358627D01*
X160537041Y-59182000D01*
X160554437Y-59005373D01*
X160605957Y-58835534D01*
X160605957Y-58835533D01*
X160689621Y-58679011D01*
X160689622Y-58679009D01*
X160718952Y-58643271D01*
X160802214Y-58541814D01*
X160903671Y-58458552D01*
X160939409Y-58429222D01*
X160957313Y-58419652D01*
X161095933Y-58345557D01*
X161179667Y-58320157D01*
X161265773Y-58294037D01*
X161331958Y-58287518D01*
X161398140Y-58281000D01*
X161486660Y-58281000D01*
X161552842Y-58287518D01*
X161552842Y-58287518D01*
G37*
G36*
X153932842Y-58287518D02*
X153999027Y-58294037D01*
X154085133Y-58320157D01*
X154168867Y-58345557D01*
X154307487Y-58419652D01*
X154325391Y-58429222D01*
X154361129Y-58458552D01*
X154462586Y-58541814D01*
X154545848Y-58643271D01*
X154575178Y-58679009D01*
X154575179Y-58679011D01*
X154658843Y-58835533D01*
X154658843Y-58835534D01*
X154710363Y-59005373D01*
X154727759Y-59182000D01*
X154710363Y-59358627D01*
X154676016Y-59471853D01*
X154658843Y-59528467D01*
X154588756Y-59659589D01*
X154575178Y-59684991D01*
X154545848Y-59720729D01*
X154462586Y-59822186D01*
X154361129Y-59905448D01*
X154325391Y-59934778D01*
X154325389Y-59934779D01*
X154168867Y-60018443D01*
X154112253Y-60035616D01*
X153999027Y-60069963D01*
X153932842Y-60076482D01*
X153866660Y-60083000D01*
X153778140Y-60083000D01*
X153711958Y-60076482D01*
X153645773Y-60069963D01*
X153532547Y-60035616D01*
X153475933Y-60018443D01*
X153319411Y-59934779D01*
X153319409Y-59934778D01*
X153283671Y-59905448D01*
X153182214Y-59822186D01*
X153098952Y-59720729D01*
X153069622Y-59684991D01*
X153056044Y-59659589D01*
X152985957Y-59528467D01*
X152968784Y-59471853D01*
X152934437Y-59358627D01*
X152917041Y-59182000D01*
X152934437Y-59005373D01*
X152985957Y-58835534D01*
X152985957Y-58835533D01*
X153069621Y-58679011D01*
X153069622Y-58679009D01*
X153098952Y-58643271D01*
X153182214Y-58541814D01*
X153283671Y-58458552D01*
X153319409Y-58429222D01*
X153337313Y-58419652D01*
X153475933Y-58345557D01*
X153559667Y-58320157D01*
X153645773Y-58294037D01*
X153711958Y-58287518D01*
X153778140Y-58281000D01*
X153866660Y-58281000D01*
X153932842Y-58287518D01*
X153932842Y-58287518D01*
G37*
G36*
X152183400Y-60083000D02*
X150381400Y-60083000D01*
X150381400Y-58281000D01*
X152183400Y-58281000D01*
X152183400Y-60083000D01*
X152183400Y-60083000D01*
G37*
G36*
X136943400Y-60057600D02*
X135141400Y-60057600D01*
X135141400Y-58255600D01*
X136943400Y-58255600D01*
X136943400Y-60057600D01*
X136943400Y-60057600D01*
G37*
G36*
X138692843Y-58262119D02*
X138759027Y-58268637D01*
X138872253Y-58302984D01*
X138928867Y-58320157D01*
X138976386Y-58345557D01*
X139085391Y-58403822D01*
X139116341Y-58429222D01*
X139222586Y-58516414D01*
X139305848Y-58617871D01*
X139335178Y-58653609D01*
X139335179Y-58653611D01*
X139418843Y-58810133D01*
X139418843Y-58810134D01*
X139470363Y-58979973D01*
X139487759Y-59156600D01*
X139470363Y-59333227D01*
X139462658Y-59358627D01*
X139418843Y-59503067D01*
X139405266Y-59528467D01*
X139335178Y-59659591D01*
X139305848Y-59695329D01*
X139222586Y-59796786D01*
X139121129Y-59880048D01*
X139085391Y-59909378D01*
X139085389Y-59909379D01*
X138928867Y-59993043D01*
X138872253Y-60010216D01*
X138759027Y-60044563D01*
X138692842Y-60051082D01*
X138626660Y-60057600D01*
X138538140Y-60057600D01*
X138471958Y-60051082D01*
X138405773Y-60044563D01*
X138292547Y-60010216D01*
X138235933Y-59993043D01*
X138079411Y-59909379D01*
X138079409Y-59909378D01*
X138043671Y-59880048D01*
X137942214Y-59796786D01*
X137858952Y-59695329D01*
X137829622Y-59659591D01*
X137759534Y-59528467D01*
X137745957Y-59503067D01*
X137702142Y-59358627D01*
X137694437Y-59333227D01*
X137677041Y-59156600D01*
X137694437Y-58979973D01*
X137745957Y-58810134D01*
X137745957Y-58810133D01*
X137829621Y-58653611D01*
X137829622Y-58653609D01*
X137858952Y-58617871D01*
X137942214Y-58516414D01*
X138048459Y-58429222D01*
X138079409Y-58403822D01*
X138188414Y-58345557D01*
X138235933Y-58320157D01*
X138292547Y-58302984D01*
X138405773Y-58268637D01*
X138471957Y-58262119D01*
X138538140Y-58255600D01*
X138626660Y-58255600D01*
X138692843Y-58262119D01*
X138692843Y-58262119D01*
G37*
G36*
X141232843Y-58262119D02*
X141299027Y-58268637D01*
X141412253Y-58302984D01*
X141468867Y-58320157D01*
X141516386Y-58345557D01*
X141625391Y-58403822D01*
X141656341Y-58429222D01*
X141762586Y-58516414D01*
X141845848Y-58617871D01*
X141875178Y-58653609D01*
X141875179Y-58653611D01*
X141958843Y-58810133D01*
X141958843Y-58810134D01*
X142010363Y-58979973D01*
X142027759Y-59156600D01*
X142010363Y-59333227D01*
X142002658Y-59358627D01*
X141958843Y-59503067D01*
X141945266Y-59528467D01*
X141875178Y-59659591D01*
X141845848Y-59695329D01*
X141762586Y-59796786D01*
X141661129Y-59880048D01*
X141625391Y-59909378D01*
X141625389Y-59909379D01*
X141468867Y-59993043D01*
X141412253Y-60010216D01*
X141299027Y-60044563D01*
X141232842Y-60051082D01*
X141166660Y-60057600D01*
X141078140Y-60057600D01*
X141011958Y-60051082D01*
X140945773Y-60044563D01*
X140832547Y-60010216D01*
X140775933Y-59993043D01*
X140619411Y-59909379D01*
X140619409Y-59909378D01*
X140583671Y-59880048D01*
X140482214Y-59796786D01*
X140398952Y-59695329D01*
X140369622Y-59659591D01*
X140299534Y-59528467D01*
X140285957Y-59503067D01*
X140242142Y-59358627D01*
X140234437Y-59333227D01*
X140217041Y-59156600D01*
X140234437Y-58979973D01*
X140285957Y-58810134D01*
X140285957Y-58810133D01*
X140369621Y-58653611D01*
X140369622Y-58653609D01*
X140398952Y-58617871D01*
X140482214Y-58516414D01*
X140588459Y-58429222D01*
X140619409Y-58403822D01*
X140728414Y-58345557D01*
X140775933Y-58320157D01*
X140832547Y-58302984D01*
X140945773Y-58268637D01*
X141011957Y-58262119D01*
X141078140Y-58255600D01*
X141166660Y-58255600D01*
X141232843Y-58262119D01*
X141232843Y-58262119D01*
G37*
G36*
X217415018Y-43282096D02*
X217528305Y-43316462D01*
X217632713Y-43372269D01*
X217724227Y-43447373D01*
X217799331Y-43538887D01*
X217855138Y-43643295D01*
X217889504Y-43756582D01*
X217898200Y-43844882D01*
X217898200Y-44303919D01*
X217889504Y-44392218D01*
X217855138Y-44505505D01*
X217799331Y-44609912D01*
X217799330Y-44609913D01*
X217724227Y-44701427D01*
X217682976Y-44735280D01*
X217632712Y-44776531D01*
X217528304Y-44832338D01*
X217415017Y-44866704D01*
X217297200Y-44878307D01*
X217179382Y-44866704D01*
X217066095Y-44832338D01*
X216961688Y-44776531D01*
X216947772Y-44765111D01*
X216870173Y-44701427D01*
X216836320Y-44660176D01*
X216795069Y-44609912D01*
X216739262Y-44505504D01*
X216704896Y-44392217D01*
X216696200Y-44303918D01*
X216696200Y-43844881D01*
X216704896Y-43756582D01*
X216739262Y-43643295D01*
X216795069Y-43538888D01*
X216870174Y-43447373D01*
X216961688Y-43372269D01*
X217066096Y-43316462D01*
X217179383Y-43282096D01*
X217297200Y-43270493D01*
X217415018Y-43282096D01*
X217415018Y-43282096D01*
G37*
G36*
X212575018Y-43282096D02*
X212688305Y-43316462D01*
X212792713Y-43372269D01*
X212884227Y-43447373D01*
X212959331Y-43538887D01*
X213015138Y-43643295D01*
X213049504Y-43756582D01*
X213058200Y-43844882D01*
X213058200Y-44303919D01*
X213049504Y-44392218D01*
X213015138Y-44505505D01*
X212959331Y-44609912D01*
X212959330Y-44609913D01*
X212884227Y-44701427D01*
X212842976Y-44735280D01*
X212792712Y-44776531D01*
X212688304Y-44832338D01*
X212575017Y-44866704D01*
X212457200Y-44878307D01*
X212339382Y-44866704D01*
X212226095Y-44832338D01*
X212121688Y-44776531D01*
X212107772Y-44765111D01*
X212030173Y-44701427D01*
X211996320Y-44660176D01*
X211955069Y-44609912D01*
X211899262Y-44505504D01*
X211864896Y-44392217D01*
X211856200Y-44303918D01*
X211856200Y-43844881D01*
X211864896Y-43756582D01*
X211899262Y-43643295D01*
X211955069Y-43538888D01*
X212030174Y-43447373D01*
X212121688Y-43372269D01*
X212226096Y-43316462D01*
X212339383Y-43282096D01*
X212457200Y-43270493D01*
X212575018Y-43282096D01*
X212575018Y-43282096D01*
G37*
G36*
X212289521Y-40183905D02*
X212426372Y-40225419D01*
X212426374Y-40225420D01*
X212426377Y-40225421D01*
X212552496Y-40292832D01*
X212663043Y-40383557D01*
X212753768Y-40494104D01*
X212821180Y-40620224D01*
X212821181Y-40620228D01*
X212862695Y-40757080D01*
X212873200Y-40863742D01*
X212873200Y-41285059D01*
X212862695Y-41391721D01*
X212821181Y-41528571D01*
X212821179Y-41528577D01*
X212753768Y-41654696D01*
X212663043Y-41765243D01*
X212552495Y-41855968D01*
X212426376Y-41923379D01*
X212426373Y-41923380D01*
X212426371Y-41923381D01*
X212289520Y-41964895D01*
X212147200Y-41978912D01*
X212004879Y-41964895D01*
X211868028Y-41923381D01*
X211868026Y-41923380D01*
X211868023Y-41923379D01*
X211741904Y-41855968D01*
X211631357Y-41765243D01*
X211540632Y-41654695D01*
X211473221Y-41528576D01*
X211473219Y-41528571D01*
X211431705Y-41391720D01*
X211421200Y-41285058D01*
X211421200Y-40863741D01*
X211431705Y-40757079D01*
X211473219Y-40620228D01*
X211473221Y-40620224D01*
X211473221Y-40620223D01*
X211540630Y-40494108D01*
X211631360Y-40383555D01*
X211741905Y-40292832D01*
X211868024Y-40225421D01*
X211868027Y-40225420D01*
X211868029Y-40225419D01*
X212004880Y-40183905D01*
X212147200Y-40169888D01*
X212289521Y-40183905D01*
X212289521Y-40183905D01*
G37*
G36*
X217749521Y-40183905D02*
X217886372Y-40225419D01*
X217886374Y-40225420D01*
X217886377Y-40225421D01*
X218012496Y-40292832D01*
X218123043Y-40383557D01*
X218213768Y-40494104D01*
X218281180Y-40620224D01*
X218281181Y-40620228D01*
X218322695Y-40757080D01*
X218333200Y-40863742D01*
X218333200Y-41285059D01*
X218322695Y-41391721D01*
X218281181Y-41528571D01*
X218281179Y-41528577D01*
X218213768Y-41654696D01*
X218123043Y-41765243D01*
X218012495Y-41855968D01*
X217886376Y-41923379D01*
X217886373Y-41923380D01*
X217886371Y-41923381D01*
X217749520Y-41964895D01*
X217607200Y-41978912D01*
X217464879Y-41964895D01*
X217328028Y-41923381D01*
X217328026Y-41923380D01*
X217328023Y-41923379D01*
X217201904Y-41855968D01*
X217091357Y-41765243D01*
X217000632Y-41654695D01*
X216933221Y-41528576D01*
X216933219Y-41528571D01*
X216891705Y-41391720D01*
X216881200Y-41285058D01*
X216881200Y-40863741D01*
X216891705Y-40757079D01*
X216933219Y-40620228D01*
X216933221Y-40620224D01*
X216933221Y-40620223D01*
X217000630Y-40494108D01*
X217091360Y-40383555D01*
X217201905Y-40292832D01*
X217328024Y-40225421D01*
X217328027Y-40225420D01*
X217328029Y-40225419D01*
X217464880Y-40183905D01*
X217607200Y-40169888D01*
X217749521Y-40183905D01*
X217749521Y-40183905D01*
G37*
M02*
