G04 #@! TF.GenerationSoftware,KiCad,Pcbnew,5.0.2-bee76a0~70~ubuntu18.04.1*
G04 #@! TF.CreationDate,2019-08-23T13:18:12-04:00*
G04 #@! TF.ProjectId,badge,62616467-652e-46b6-9963-61645f706362,rev?*
G04 #@! TF.SameCoordinates,Original*
G04 #@! TF.FileFunction,Soldermask,Top*
G04 #@! TF.FilePolarity,Negative*
%FSLAX46Y46*%
G04 Gerber Fmt 4.6, Leading zero omitted, Abs format (unit mm)*
G04 Created by KiCad (PCBNEW 5.0.2-bee76a0~70~ubuntu18.04.1) date Fri 23 Aug 2019 01:18:12 PM EDT*
%MOMM*%
%LPD*%
G01*
G04 APERTURE LIST*
%ADD10C,0.100000*%
G04 APERTURE END LIST*
D10*
G36*
X172140866Y-104460365D02*
X172179537Y-104472096D01*
X172215179Y-104491148D01*
X172246417Y-104516783D01*
X172272052Y-104548021D01*
X172291104Y-104583663D01*
X172302835Y-104622334D01*
X172307400Y-104668688D01*
X172307400Y-105744912D01*
X172302835Y-105791266D01*
X172291104Y-105829937D01*
X172272052Y-105865579D01*
X172246417Y-105896817D01*
X172215179Y-105922452D01*
X172179537Y-105941504D01*
X172140866Y-105953235D01*
X172094512Y-105957800D01*
X171443288Y-105957800D01*
X171396934Y-105953235D01*
X171358263Y-105941504D01*
X171322621Y-105922452D01*
X171291383Y-105896817D01*
X171265748Y-105865579D01*
X171246696Y-105829937D01*
X171234965Y-105791266D01*
X171230400Y-105744912D01*
X171230400Y-104668688D01*
X171234965Y-104622334D01*
X171246696Y-104583663D01*
X171265748Y-104548021D01*
X171291383Y-104516783D01*
X171322621Y-104491148D01*
X171358263Y-104472096D01*
X171396934Y-104460365D01*
X171443288Y-104455800D01*
X172094512Y-104455800D01*
X172140866Y-104460365D01*
X172140866Y-104460365D01*
G37*
G36*
X170265866Y-104460365D02*
X170304537Y-104472096D01*
X170340179Y-104491148D01*
X170371417Y-104516783D01*
X170397052Y-104548021D01*
X170416104Y-104583663D01*
X170427835Y-104622334D01*
X170432400Y-104668688D01*
X170432400Y-105744912D01*
X170427835Y-105791266D01*
X170416104Y-105829937D01*
X170397052Y-105865579D01*
X170371417Y-105896817D01*
X170340179Y-105922452D01*
X170304537Y-105941504D01*
X170265866Y-105953235D01*
X170219512Y-105957800D01*
X169568288Y-105957800D01*
X169521934Y-105953235D01*
X169483263Y-105941504D01*
X169447621Y-105922452D01*
X169416383Y-105896817D01*
X169390748Y-105865579D01*
X169371696Y-105829937D01*
X169359965Y-105791266D01*
X169355400Y-105744912D01*
X169355400Y-104668688D01*
X169359965Y-104622334D01*
X169371696Y-104583663D01*
X169390748Y-104548021D01*
X169416383Y-104516783D01*
X169447621Y-104491148D01*
X169483263Y-104472096D01*
X169521934Y-104460365D01*
X169568288Y-104455800D01*
X170219512Y-104455800D01*
X170265866Y-104460365D01*
X170265866Y-104460365D01*
G37*
G36*
X172320077Y-102148865D02*
X172357764Y-102160298D01*
X172392503Y-102178866D01*
X172422948Y-102203852D01*
X172447934Y-102234297D01*
X172466502Y-102269036D01*
X172477935Y-102306723D01*
X172482400Y-102352061D01*
X172482400Y-103438739D01*
X172477935Y-103484077D01*
X172466502Y-103521764D01*
X172447934Y-103556503D01*
X172422948Y-103586948D01*
X172392503Y-103611934D01*
X172357764Y-103630502D01*
X172320077Y-103641935D01*
X172274739Y-103646400D01*
X171438061Y-103646400D01*
X171392723Y-103641935D01*
X171355036Y-103630502D01*
X171320297Y-103611934D01*
X171289852Y-103586948D01*
X171264866Y-103556503D01*
X171246298Y-103521764D01*
X171234865Y-103484077D01*
X171230400Y-103438739D01*
X171230400Y-102352061D01*
X171234865Y-102306723D01*
X171246298Y-102269036D01*
X171264866Y-102234297D01*
X171289852Y-102203852D01*
X171320297Y-102178866D01*
X171355036Y-102160298D01*
X171392723Y-102148865D01*
X171438061Y-102144400D01*
X172274739Y-102144400D01*
X172320077Y-102148865D01*
X172320077Y-102148865D01*
G37*
G36*
X170270077Y-102148865D02*
X170307764Y-102160298D01*
X170342503Y-102178866D01*
X170372948Y-102203852D01*
X170397934Y-102234297D01*
X170416502Y-102269036D01*
X170427935Y-102306723D01*
X170432400Y-102352061D01*
X170432400Y-103438739D01*
X170427935Y-103484077D01*
X170416502Y-103521764D01*
X170397934Y-103556503D01*
X170372948Y-103586948D01*
X170342503Y-103611934D01*
X170307764Y-103630502D01*
X170270077Y-103641935D01*
X170224739Y-103646400D01*
X169388061Y-103646400D01*
X169342723Y-103641935D01*
X169305036Y-103630502D01*
X169270297Y-103611934D01*
X169239852Y-103586948D01*
X169214866Y-103556503D01*
X169196298Y-103521764D01*
X169184865Y-103484077D01*
X169180400Y-103438739D01*
X169180400Y-102352061D01*
X169184865Y-102306723D01*
X169196298Y-102269036D01*
X169214866Y-102234297D01*
X169239852Y-102203852D01*
X169270297Y-102178866D01*
X169305036Y-102160298D01*
X169342723Y-102148865D01*
X169388061Y-102144400D01*
X170224739Y-102144400D01*
X170270077Y-102148865D01*
X170270077Y-102148865D01*
G37*
G36*
X186470242Y-98140118D02*
X186536427Y-98146637D01*
X186649653Y-98180984D01*
X186706267Y-98198157D01*
X186844887Y-98272252D01*
X186862791Y-98281822D01*
X186896638Y-98309600D01*
X186999986Y-98394414D01*
X187083248Y-98495871D01*
X187112578Y-98531609D01*
X187112579Y-98531611D01*
X187196243Y-98688133D01*
X187196243Y-98688134D01*
X187247763Y-98857973D01*
X187265159Y-99034600D01*
X187247763Y-99211227D01*
X187213416Y-99324453D01*
X187196243Y-99381067D01*
X187122148Y-99519687D01*
X187112578Y-99537591D01*
X187083248Y-99573329D01*
X186999986Y-99674786D01*
X186898529Y-99758048D01*
X186862791Y-99787378D01*
X186862789Y-99787379D01*
X186706267Y-99871043D01*
X186649653Y-99888216D01*
X186536427Y-99922563D01*
X186470243Y-99929081D01*
X186404060Y-99935600D01*
X186315540Y-99935600D01*
X186249357Y-99929081D01*
X186183173Y-99922563D01*
X186069947Y-99888216D01*
X186013333Y-99871043D01*
X185856811Y-99787379D01*
X185856809Y-99787378D01*
X185821071Y-99758048D01*
X185719614Y-99674786D01*
X185636352Y-99573329D01*
X185607022Y-99537591D01*
X185597452Y-99519687D01*
X185523357Y-99381067D01*
X185506184Y-99324453D01*
X185471837Y-99211227D01*
X185454441Y-99034600D01*
X185471837Y-98857973D01*
X185523357Y-98688134D01*
X185523357Y-98688133D01*
X185607021Y-98531611D01*
X185607022Y-98531609D01*
X185636352Y-98495871D01*
X185719614Y-98394414D01*
X185822962Y-98309600D01*
X185856809Y-98281822D01*
X185874713Y-98272252D01*
X186013333Y-98198157D01*
X186069947Y-98180984D01*
X186183173Y-98146637D01*
X186249358Y-98140118D01*
X186315540Y-98133600D01*
X186404060Y-98133600D01*
X186470242Y-98140118D01*
X186470242Y-98140118D01*
G37*
G36*
X166337600Y-98309600D02*
X164485600Y-98309600D01*
X164485600Y-89307600D01*
X166337600Y-89307600D01*
X166337600Y-98309600D01*
X166337600Y-98309600D01*
G37*
G36*
X173537600Y-98309600D02*
X171685600Y-98309600D01*
X171685600Y-89307600D01*
X173537600Y-89307600D01*
X173537600Y-98309600D01*
X173537600Y-98309600D01*
G37*
G36*
X149903818Y-95611296D02*
X149956300Y-95627217D01*
X149980333Y-95631998D01*
X149992586Y-95632600D01*
X150387000Y-95632600D01*
X150387000Y-96167941D01*
X150387602Y-96180193D01*
X150389907Y-96203600D01*
X150387602Y-96227007D01*
X150387000Y-96239259D01*
X150387000Y-97734600D01*
X148792000Y-97734600D01*
X148767614Y-97737002D01*
X148744165Y-97744115D01*
X148738580Y-97747100D01*
X147865000Y-97747100D01*
X147865000Y-97384600D01*
X147862598Y-97360214D01*
X147855485Y-97336765D01*
X147843934Y-97315154D01*
X147828388Y-97296212D01*
X147809446Y-97280666D01*
X147787835Y-97269115D01*
X147764386Y-97262002D01*
X147740000Y-97259600D01*
X146411651Y-97259600D01*
X146409446Y-97257790D01*
X146387835Y-97246239D01*
X146352252Y-97237326D01*
X146351159Y-97237218D01*
X146268679Y-97229095D01*
X146131828Y-97187581D01*
X146131826Y-97187580D01*
X146131823Y-97187579D01*
X146005704Y-97120168D01*
X145895157Y-97029443D01*
X145804432Y-96918896D01*
X145737021Y-96792777D01*
X145727544Y-96761537D01*
X145695505Y-96655921D01*
X145681488Y-96513600D01*
X145695505Y-96371279D01*
X145737019Y-96234428D01*
X145737020Y-96234426D01*
X145737021Y-96234423D01*
X145804432Y-96108304D01*
X145895157Y-95997757D01*
X146005704Y-95907032D01*
X146131823Y-95839621D01*
X146131826Y-95839620D01*
X146131828Y-95839619D01*
X146268679Y-95798105D01*
X146354009Y-95789701D01*
X146375340Y-95787600D01*
X146796660Y-95787600D01*
X146903322Y-95798105D01*
X146916876Y-95802217D01*
X146940909Y-95806998D01*
X146953162Y-95807600D01*
X148660000Y-95807600D01*
X148684386Y-95805198D01*
X148707835Y-95798085D01*
X148729446Y-95786534D01*
X148748388Y-95770988D01*
X148763934Y-95752046D01*
X148775485Y-95730435D01*
X148782598Y-95706986D01*
X148785000Y-95682600D01*
X148785000Y-95632600D01*
X149179414Y-95632600D01*
X149203800Y-95630198D01*
X149215700Y-95627217D01*
X149268182Y-95611296D01*
X149356481Y-95602600D01*
X149815519Y-95602600D01*
X149903818Y-95611296D01*
X149903818Y-95611296D01*
G37*
G36*
X186470243Y-95600119D02*
X186536427Y-95606637D01*
X186649653Y-95640984D01*
X186706267Y-95658157D01*
X186841488Y-95730435D01*
X186862791Y-95741822D01*
X186898330Y-95770988D01*
X186999986Y-95854414D01*
X187083248Y-95955871D01*
X187112578Y-95991609D01*
X187112579Y-95991611D01*
X187196243Y-96148133D01*
X187205968Y-96180193D01*
X187247763Y-96317973D01*
X187265159Y-96494600D01*
X187247763Y-96671227D01*
X187220368Y-96761537D01*
X187196243Y-96841067D01*
X187154642Y-96918895D01*
X187112578Y-96997591D01*
X187083248Y-97033329D01*
X186999986Y-97134786D01*
X186898529Y-97218048D01*
X186862791Y-97247378D01*
X186862789Y-97247379D01*
X186706267Y-97331043D01*
X186649653Y-97348216D01*
X186536427Y-97382563D01*
X186470243Y-97389081D01*
X186404060Y-97395600D01*
X186315540Y-97395600D01*
X186249357Y-97389081D01*
X186183173Y-97382563D01*
X186069947Y-97348216D01*
X186013333Y-97331043D01*
X185856811Y-97247379D01*
X185856809Y-97247378D01*
X185821071Y-97218048D01*
X185719614Y-97134786D01*
X185636352Y-97033329D01*
X185607022Y-96997591D01*
X185564958Y-96918895D01*
X185523357Y-96841067D01*
X185499232Y-96761537D01*
X185471837Y-96671227D01*
X185454441Y-96494600D01*
X185471837Y-96317973D01*
X185513632Y-96180193D01*
X185523357Y-96148133D01*
X185607021Y-95991611D01*
X185607022Y-95991609D01*
X185636352Y-95955871D01*
X185719614Y-95854414D01*
X185821270Y-95770988D01*
X185856809Y-95741822D01*
X185878112Y-95730435D01*
X186013333Y-95658157D01*
X186069947Y-95640984D01*
X186183173Y-95606637D01*
X186249357Y-95600119D01*
X186315540Y-95593600D01*
X186404060Y-95593600D01*
X186470243Y-95600119D01*
X186470243Y-95600119D01*
G37*
G36*
X147617000Y-95509600D02*
X145015000Y-95509600D01*
X145015000Y-93977600D01*
X147617000Y-93977600D01*
X147617000Y-95509600D01*
X147617000Y-95509600D01*
G37*
G36*
X148744165Y-89873085D02*
X148767614Y-89880198D01*
X148792000Y-89882600D01*
X150367000Y-89882600D01*
X150367000Y-91189979D01*
X150369402Y-91214365D01*
X150372383Y-91226265D01*
X150378304Y-91245782D01*
X150389907Y-91363600D01*
X150378304Y-91481418D01*
X150372383Y-91500935D01*
X150367602Y-91524968D01*
X150367000Y-91537221D01*
X150367000Y-92035361D01*
X150363066Y-92040154D01*
X150351515Y-92061765D01*
X150344402Y-92085214D01*
X150342000Y-92109600D01*
X150342000Y-95334600D01*
X148590000Y-95334600D01*
X148590000Y-92232600D01*
X148640000Y-92232600D01*
X148664386Y-92230198D01*
X148687835Y-92223085D01*
X148709446Y-92211534D01*
X148728388Y-92195988D01*
X148743934Y-92177046D01*
X148755485Y-92155435D01*
X148762598Y-92131986D01*
X148765000Y-92107600D01*
X148765000Y-91922100D01*
X148762598Y-91897714D01*
X148755485Y-91874265D01*
X148743934Y-91852654D01*
X148728388Y-91833712D01*
X148709446Y-91818166D01*
X148687835Y-91806615D01*
X148664386Y-91799502D01*
X148640000Y-91797100D01*
X147802774Y-91797100D01*
X147787835Y-91789115D01*
X147764386Y-91782002D01*
X147740000Y-91779600D01*
X146361330Y-91779600D01*
X146352252Y-91777326D01*
X146351159Y-91777218D01*
X146268679Y-91769095D01*
X146131828Y-91727581D01*
X146131826Y-91727580D01*
X146131823Y-91727579D01*
X146005704Y-91660168D01*
X145895157Y-91569443D01*
X145804432Y-91458896D01*
X145737021Y-91332777D01*
X145737019Y-91332772D01*
X145695505Y-91195921D01*
X145681488Y-91053600D01*
X145695505Y-90911279D01*
X145737019Y-90774428D01*
X145737020Y-90774426D01*
X145737021Y-90774423D01*
X145804432Y-90648304D01*
X145895157Y-90537757D01*
X146005704Y-90447032D01*
X146131823Y-90379621D01*
X146131826Y-90379620D01*
X146131828Y-90379619D01*
X146268679Y-90338105D01*
X146352252Y-90329874D01*
X146363686Y-90327600D01*
X147740000Y-90327600D01*
X147764386Y-90325198D01*
X147787835Y-90318085D01*
X147809446Y-90306534D01*
X147828388Y-90290988D01*
X147843934Y-90272046D01*
X147855485Y-90250435D01*
X147862598Y-90226986D01*
X147865000Y-90202600D01*
X147865000Y-89870100D01*
X148738580Y-89870100D01*
X148744165Y-89873085D01*
X148744165Y-89873085D01*
G37*
G36*
X186470242Y-93060118D02*
X186536427Y-93066637D01*
X186649653Y-93100984D01*
X186706267Y-93118157D01*
X186844887Y-93192252D01*
X186862791Y-93201822D01*
X186869831Y-93207600D01*
X186999986Y-93314414D01*
X187057585Y-93384600D01*
X187112578Y-93451609D01*
X187112579Y-93451611D01*
X187196243Y-93608133D01*
X187196243Y-93608134D01*
X187247763Y-93777973D01*
X187265159Y-93954600D01*
X187247763Y-94131227D01*
X187232179Y-94182600D01*
X187196243Y-94301067D01*
X187138230Y-94409600D01*
X187112578Y-94457591D01*
X187083248Y-94493329D01*
X186999986Y-94594786D01*
X186898529Y-94678048D01*
X186862791Y-94707378D01*
X186862789Y-94707379D01*
X186706267Y-94791043D01*
X186649653Y-94808216D01*
X186536427Y-94842563D01*
X186470243Y-94849081D01*
X186404060Y-94855600D01*
X186315540Y-94855600D01*
X186249358Y-94849082D01*
X186183173Y-94842563D01*
X186069947Y-94808216D01*
X186013333Y-94791043D01*
X185856811Y-94707379D01*
X185856809Y-94707378D01*
X185821071Y-94678048D01*
X185719614Y-94594786D01*
X185636352Y-94493329D01*
X185607022Y-94457591D01*
X185581370Y-94409600D01*
X185523357Y-94301067D01*
X185487421Y-94182600D01*
X185471837Y-94131227D01*
X185454441Y-93954600D01*
X185471837Y-93777973D01*
X185523357Y-93608134D01*
X185523357Y-93608133D01*
X185607021Y-93451611D01*
X185607022Y-93451609D01*
X185662015Y-93384600D01*
X185719614Y-93314414D01*
X185849769Y-93207600D01*
X185856809Y-93201822D01*
X185874713Y-93192252D01*
X186013333Y-93118157D01*
X186069947Y-93100984D01*
X186183173Y-93066637D01*
X186249358Y-93060118D01*
X186315540Y-93053600D01*
X186404060Y-93053600D01*
X186470242Y-93060118D01*
X186470242Y-93060118D01*
G37*
G36*
X147617000Y-93589600D02*
X145015000Y-93589600D01*
X145015000Y-92057600D01*
X147617000Y-92057600D01*
X147617000Y-93589600D01*
X147617000Y-93589600D01*
G37*
G36*
X186470243Y-90520119D02*
X186536427Y-90526637D01*
X186649653Y-90560984D01*
X186706267Y-90578157D01*
X186761350Y-90607600D01*
X186862791Y-90661822D01*
X186898529Y-90691152D01*
X186999986Y-90774414D01*
X187071430Y-90861470D01*
X187112578Y-90911609D01*
X187112579Y-90911611D01*
X187196243Y-91068133D01*
X187196243Y-91068134D01*
X187247763Y-91237973D01*
X187265159Y-91414600D01*
X187247763Y-91591227D01*
X187226850Y-91660167D01*
X187196243Y-91761067D01*
X187123203Y-91897714D01*
X187112578Y-91917591D01*
X187083248Y-91953329D01*
X186999986Y-92054786D01*
X186905916Y-92131986D01*
X186862791Y-92167378D01*
X186862789Y-92167379D01*
X186706267Y-92251043D01*
X186649653Y-92268216D01*
X186536427Y-92302563D01*
X186470242Y-92309082D01*
X186404060Y-92315600D01*
X186315540Y-92315600D01*
X186249358Y-92309082D01*
X186183173Y-92302563D01*
X186069947Y-92268216D01*
X186013333Y-92251043D01*
X185856811Y-92167379D01*
X185856809Y-92167378D01*
X185813684Y-92131986D01*
X185719614Y-92054786D01*
X185636352Y-91953329D01*
X185607022Y-91917591D01*
X185596397Y-91897714D01*
X185523357Y-91761067D01*
X185492750Y-91660167D01*
X185471837Y-91591227D01*
X185454441Y-91414600D01*
X185471837Y-91237973D01*
X185523357Y-91068134D01*
X185523357Y-91068133D01*
X185607021Y-90911611D01*
X185607022Y-90911609D01*
X185648170Y-90861470D01*
X185719614Y-90774414D01*
X185821071Y-90691152D01*
X185856809Y-90661822D01*
X185958250Y-90607600D01*
X186013333Y-90578157D01*
X186069947Y-90560984D01*
X186183173Y-90526637D01*
X186249358Y-90520118D01*
X186315540Y-90513600D01*
X186404060Y-90513600D01*
X186470243Y-90520119D01*
X186470243Y-90520119D01*
G37*
G36*
X187260800Y-89775600D02*
X185458800Y-89775600D01*
X185458800Y-87973600D01*
X187260800Y-87973600D01*
X187260800Y-89775600D01*
X187260800Y-89775600D01*
G37*
G36*
X157154277Y-86747065D02*
X157191964Y-86758498D01*
X157226703Y-86777066D01*
X157257148Y-86802052D01*
X157282134Y-86832497D01*
X157300702Y-86867236D01*
X157312135Y-86904923D01*
X157316600Y-86950261D01*
X157316600Y-87786939D01*
X157312135Y-87832277D01*
X157300702Y-87869964D01*
X157282134Y-87904703D01*
X157257148Y-87935148D01*
X157226703Y-87960134D01*
X157191964Y-87978702D01*
X157154277Y-87990135D01*
X157108939Y-87994600D01*
X156022261Y-87994600D01*
X155976923Y-87990135D01*
X155939236Y-87978702D01*
X155904497Y-87960134D01*
X155874052Y-87935148D01*
X155849066Y-87904703D01*
X155830498Y-87869964D01*
X155819065Y-87832277D01*
X155814600Y-87786939D01*
X155814600Y-86950261D01*
X155819065Y-86904923D01*
X155830498Y-86867236D01*
X155849066Y-86832497D01*
X155874052Y-86802052D01*
X155904497Y-86777066D01*
X155939236Y-86758498D01*
X155976923Y-86747065D01*
X156022261Y-86742600D01*
X157108939Y-86742600D01*
X157154277Y-86747065D01*
X157154277Y-86747065D01*
G37*
G36*
X154360277Y-86747065D02*
X154397964Y-86758498D01*
X154432703Y-86777066D01*
X154463148Y-86802052D01*
X154488134Y-86832497D01*
X154506702Y-86867236D01*
X154518135Y-86904923D01*
X154522600Y-86950261D01*
X154522600Y-87786939D01*
X154518135Y-87832277D01*
X154506702Y-87869964D01*
X154488134Y-87904703D01*
X154463148Y-87935148D01*
X154432703Y-87960134D01*
X154397964Y-87978702D01*
X154360277Y-87990135D01*
X154314939Y-87994600D01*
X153228261Y-87994600D01*
X153182923Y-87990135D01*
X153145236Y-87978702D01*
X153110497Y-87960134D01*
X153080052Y-87935148D01*
X153055066Y-87904703D01*
X153036498Y-87869964D01*
X153025065Y-87832277D01*
X153020600Y-87786939D01*
X153020600Y-86950261D01*
X153025065Y-86904923D01*
X153036498Y-86867236D01*
X153055066Y-86832497D01*
X153080052Y-86802052D01*
X153110497Y-86777066D01*
X153145236Y-86758498D01*
X153182923Y-86747065D01*
X153228261Y-86742600D01*
X154314939Y-86742600D01*
X154360277Y-86747065D01*
X154360277Y-86747065D01*
G37*
G36*
X163573477Y-85130865D02*
X163611164Y-85142298D01*
X163645903Y-85160866D01*
X163676348Y-85185852D01*
X163701334Y-85216297D01*
X163719902Y-85251036D01*
X163731335Y-85288723D01*
X163735800Y-85334061D01*
X163735800Y-86420739D01*
X163731335Y-86466077D01*
X163719902Y-86503764D01*
X163701334Y-86538503D01*
X163676348Y-86568948D01*
X163645903Y-86593934D01*
X163611164Y-86612502D01*
X163573477Y-86623935D01*
X163528139Y-86628400D01*
X162691461Y-86628400D01*
X162646123Y-86623935D01*
X162608436Y-86612502D01*
X162573697Y-86593934D01*
X162543252Y-86568948D01*
X162518266Y-86538503D01*
X162499698Y-86503764D01*
X162488265Y-86466077D01*
X162483800Y-86420739D01*
X162483800Y-85334061D01*
X162488265Y-85288723D01*
X162499698Y-85251036D01*
X162518266Y-85216297D01*
X162543252Y-85185852D01*
X162573697Y-85160866D01*
X162608436Y-85142298D01*
X162646123Y-85130865D01*
X162691461Y-85126400D01*
X163528139Y-85126400D01*
X163573477Y-85130865D01*
X163573477Y-85130865D01*
G37*
G36*
X165623477Y-85130865D02*
X165661164Y-85142298D01*
X165695903Y-85160866D01*
X165726348Y-85185852D01*
X165751334Y-85216297D01*
X165769902Y-85251036D01*
X165781335Y-85288723D01*
X165785800Y-85334061D01*
X165785800Y-86420739D01*
X165781335Y-86466077D01*
X165769902Y-86503764D01*
X165751334Y-86538503D01*
X165726348Y-86568948D01*
X165695903Y-86593934D01*
X165661164Y-86612502D01*
X165623477Y-86623935D01*
X165578139Y-86628400D01*
X164741461Y-86628400D01*
X164696123Y-86623935D01*
X164658436Y-86612502D01*
X164623697Y-86593934D01*
X164593252Y-86568948D01*
X164568266Y-86538503D01*
X164549698Y-86503764D01*
X164538265Y-86466077D01*
X164533800Y-86420739D01*
X164533800Y-85334061D01*
X164538265Y-85288723D01*
X164549698Y-85251036D01*
X164568266Y-85216297D01*
X164593252Y-85185852D01*
X164623697Y-85160866D01*
X164658436Y-85142298D01*
X164696123Y-85130865D01*
X164741461Y-85126400D01*
X165578139Y-85126400D01*
X165623477Y-85130865D01*
X165623477Y-85130865D01*
G37*
G36*
X157154277Y-84697065D02*
X157191964Y-84708498D01*
X157226703Y-84727066D01*
X157257148Y-84752052D01*
X157282134Y-84782497D01*
X157300702Y-84817236D01*
X157312135Y-84854923D01*
X157316600Y-84900261D01*
X157316600Y-85736939D01*
X157312135Y-85782277D01*
X157300702Y-85819964D01*
X157282134Y-85854703D01*
X157257148Y-85885148D01*
X157226703Y-85910134D01*
X157191964Y-85928702D01*
X157154277Y-85940135D01*
X157108939Y-85944600D01*
X156022261Y-85944600D01*
X155976923Y-85940135D01*
X155939236Y-85928702D01*
X155904497Y-85910134D01*
X155874052Y-85885148D01*
X155849066Y-85854703D01*
X155830498Y-85819964D01*
X155819065Y-85782277D01*
X155814600Y-85736939D01*
X155814600Y-84900261D01*
X155819065Y-84854923D01*
X155830498Y-84817236D01*
X155849066Y-84782497D01*
X155874052Y-84752052D01*
X155904497Y-84727066D01*
X155939236Y-84708498D01*
X155976923Y-84697065D01*
X156022261Y-84692600D01*
X157108939Y-84692600D01*
X157154277Y-84697065D01*
X157154277Y-84697065D01*
G37*
G36*
X154360277Y-84697065D02*
X154397964Y-84708498D01*
X154432703Y-84727066D01*
X154463148Y-84752052D01*
X154488134Y-84782497D01*
X154506702Y-84817236D01*
X154518135Y-84854923D01*
X154522600Y-84900261D01*
X154522600Y-85736939D01*
X154518135Y-85782277D01*
X154506702Y-85819964D01*
X154488134Y-85854703D01*
X154463148Y-85885148D01*
X154432703Y-85910134D01*
X154397964Y-85928702D01*
X154360277Y-85940135D01*
X154314939Y-85944600D01*
X153228261Y-85944600D01*
X153182923Y-85940135D01*
X153145236Y-85928702D01*
X153110497Y-85910134D01*
X153080052Y-85885148D01*
X153055066Y-85854703D01*
X153036498Y-85819964D01*
X153025065Y-85782277D01*
X153020600Y-85736939D01*
X153020600Y-84900261D01*
X153025065Y-84854923D01*
X153036498Y-84817236D01*
X153055066Y-84782497D01*
X153080052Y-84752052D01*
X153110497Y-84727066D01*
X153145236Y-84708498D01*
X153182923Y-84697065D01*
X153228261Y-84692600D01*
X154314939Y-84692600D01*
X154360277Y-84697065D01*
X154360277Y-84697065D01*
G37*
G36*
X170270077Y-83962465D02*
X170307764Y-83973898D01*
X170342503Y-83992466D01*
X170372948Y-84017452D01*
X170397934Y-84047897D01*
X170416502Y-84082636D01*
X170427935Y-84120323D01*
X170432400Y-84165661D01*
X170432400Y-85252339D01*
X170427935Y-85297677D01*
X170416502Y-85335364D01*
X170397934Y-85370103D01*
X170372948Y-85400548D01*
X170342503Y-85425534D01*
X170307764Y-85444102D01*
X170270077Y-85455535D01*
X170224739Y-85460000D01*
X169388061Y-85460000D01*
X169342723Y-85455535D01*
X169305036Y-85444102D01*
X169270297Y-85425534D01*
X169239852Y-85400548D01*
X169214866Y-85370103D01*
X169196298Y-85335364D01*
X169184865Y-85297677D01*
X169180400Y-85252339D01*
X169180400Y-84165661D01*
X169184865Y-84120323D01*
X169196298Y-84082636D01*
X169214866Y-84047897D01*
X169239852Y-84017452D01*
X169270297Y-83992466D01*
X169305036Y-83973898D01*
X169342723Y-83962465D01*
X169388061Y-83958000D01*
X170224739Y-83958000D01*
X170270077Y-83962465D01*
X170270077Y-83962465D01*
G37*
G36*
X172320077Y-83962465D02*
X172357764Y-83973898D01*
X172392503Y-83992466D01*
X172422948Y-84017452D01*
X172447934Y-84047897D01*
X172466502Y-84082636D01*
X172477935Y-84120323D01*
X172482400Y-84165661D01*
X172482400Y-85252339D01*
X172477935Y-85297677D01*
X172466502Y-85335364D01*
X172447934Y-85370103D01*
X172422948Y-85400548D01*
X172392503Y-85425534D01*
X172357764Y-85444102D01*
X172320077Y-85455535D01*
X172274739Y-85460000D01*
X171438061Y-85460000D01*
X171392723Y-85455535D01*
X171355036Y-85444102D01*
X171320297Y-85425534D01*
X171289852Y-85400548D01*
X171264866Y-85370103D01*
X171246298Y-85335364D01*
X171234865Y-85297677D01*
X171230400Y-85252339D01*
X171230400Y-84165661D01*
X171234865Y-84120323D01*
X171246298Y-84082636D01*
X171264866Y-84047897D01*
X171289852Y-84017452D01*
X171320297Y-83992466D01*
X171355036Y-83973898D01*
X171392723Y-83962465D01*
X171438061Y-83958000D01*
X172274739Y-83958000D01*
X172320077Y-83962465D01*
X172320077Y-83962465D01*
G37*
G36*
X170265866Y-81752765D02*
X170304537Y-81764496D01*
X170340179Y-81783548D01*
X170371417Y-81809183D01*
X170397052Y-81840421D01*
X170416104Y-81876063D01*
X170427835Y-81914734D01*
X170432400Y-81961088D01*
X170432400Y-83037312D01*
X170427835Y-83083666D01*
X170416104Y-83122337D01*
X170397052Y-83157979D01*
X170371417Y-83189217D01*
X170340179Y-83214852D01*
X170304537Y-83233904D01*
X170265866Y-83245635D01*
X170219512Y-83250200D01*
X169568288Y-83250200D01*
X169521934Y-83245635D01*
X169483263Y-83233904D01*
X169447621Y-83214852D01*
X169416383Y-83189217D01*
X169390748Y-83157979D01*
X169371696Y-83122337D01*
X169359965Y-83083666D01*
X169355400Y-83037312D01*
X169355400Y-81961088D01*
X169359965Y-81914734D01*
X169371696Y-81876063D01*
X169390748Y-81840421D01*
X169416383Y-81809183D01*
X169447621Y-81783548D01*
X169483263Y-81764496D01*
X169521934Y-81752765D01*
X169568288Y-81748200D01*
X170219512Y-81748200D01*
X170265866Y-81752765D01*
X170265866Y-81752765D01*
G37*
G36*
X172140866Y-81752765D02*
X172179537Y-81764496D01*
X172215179Y-81783548D01*
X172246417Y-81809183D01*
X172272052Y-81840421D01*
X172291104Y-81876063D01*
X172302835Y-81914734D01*
X172307400Y-81961088D01*
X172307400Y-83037312D01*
X172302835Y-83083666D01*
X172291104Y-83122337D01*
X172272052Y-83157979D01*
X172246417Y-83189217D01*
X172215179Y-83214852D01*
X172179537Y-83233904D01*
X172140866Y-83245635D01*
X172094512Y-83250200D01*
X171443288Y-83250200D01*
X171396934Y-83245635D01*
X171358263Y-83233904D01*
X171322621Y-83214852D01*
X171291383Y-83189217D01*
X171265748Y-83157979D01*
X171246696Y-83122337D01*
X171234965Y-83083666D01*
X171230400Y-83037312D01*
X171230400Y-81961088D01*
X171234965Y-81914734D01*
X171246696Y-81876063D01*
X171265748Y-81840421D01*
X171291383Y-81809183D01*
X171322621Y-81783548D01*
X171358263Y-81764496D01*
X171396934Y-81752765D01*
X171443288Y-81748200D01*
X172094512Y-81748200D01*
X172140866Y-81752765D01*
X172140866Y-81752765D01*
G37*
M02*
