M48
;DRILL file {KiCad 5.0.2-bee76a0~70~ubuntu18.04.1} date Fri 23 Aug 2019 01:18:16 PM EDT
;FORMAT={-:-/ absolute / inch / decimal}
FMAT,2
INCH,TZ
T1C0.0157
T2C0.0256
T3C0.0276
T4C0.0394
%
G90
G05
T1
X6.323Y-3.412
X6.327Y-3.587
X6.34Y-3.786
X6.387Y-3.596
X6.444Y-3.815
X6.594Y-3.709
X6.632Y-3.252
X6.641Y-3.975
X6.739Y-3.94
X6.879Y-3.711
X6.888Y-3.917
X6.961Y-3.776
X7.192Y-3.599
T4
X7.337Y-3.499
X7.337Y-3.599
X7.337Y-3.699
X7.337Y-3.799
X7.337Y-3.899
T2
X5.8813Y-3.597G85X5.8971Y-3.597
G05
X5.8813Y-3.7875G85X5.8971Y-3.7875
G05
T3
X5.7613Y-3.5848G85X5.7809Y-3.5848
G05
X5.7613Y-3.7997G85X5.7809Y-3.7997
G05
T0
M30
