G04 #@! TF.GenerationSoftware,KiCad,Pcbnew,5.0.2-bee76a0~70~ubuntu18.04.1*
G04 #@! TF.CreationDate,2019-08-23T13:18:12-04:00*
G04 #@! TF.ProjectId,badge,62616467-652e-46b6-9963-61645f706362,rev?*
G04 #@! TF.SameCoordinates,Original*
G04 #@! TF.FileFunction,Soldermask,Bot*
G04 #@! TF.FilePolarity,Negative*
%FSLAX46Y46*%
G04 Gerber Fmt 4.6, Leading zero omitted, Abs format (unit mm)*
G04 Created by KiCad (PCBNEW 5.0.2-bee76a0~70~ubuntu18.04.1) date Fri 23 Aug 2019 01:18:12 PM EDT*
%MOMM*%
%LPD*%
G01*
G04 APERTURE LIST*
%ADD10C,0.100000*%
G04 APERTURE END LIST*
D10*
G36*
X186470242Y-98140118D02*
X186536427Y-98146637D01*
X186649653Y-98180984D01*
X186706267Y-98198157D01*
X186844887Y-98272252D01*
X186862791Y-98281822D01*
X186898529Y-98311152D01*
X186999986Y-98394414D01*
X187083248Y-98495871D01*
X187112578Y-98531609D01*
X187112579Y-98531611D01*
X187196243Y-98688133D01*
X187196243Y-98688134D01*
X187247763Y-98857973D01*
X187265159Y-99034600D01*
X187247763Y-99211227D01*
X187213416Y-99324453D01*
X187196243Y-99381067D01*
X187122148Y-99519687D01*
X187112578Y-99537591D01*
X187083248Y-99573329D01*
X186999986Y-99674786D01*
X186898529Y-99758048D01*
X186862791Y-99787378D01*
X186862789Y-99787379D01*
X186706267Y-99871043D01*
X186649653Y-99888216D01*
X186536427Y-99922563D01*
X186470243Y-99929081D01*
X186404060Y-99935600D01*
X186315540Y-99935600D01*
X186249357Y-99929081D01*
X186183173Y-99922563D01*
X186069947Y-99888216D01*
X186013333Y-99871043D01*
X185856811Y-99787379D01*
X185856809Y-99787378D01*
X185821071Y-99758048D01*
X185719614Y-99674786D01*
X185636352Y-99573329D01*
X185607022Y-99537591D01*
X185597452Y-99519687D01*
X185523357Y-99381067D01*
X185506184Y-99324453D01*
X185471837Y-99211227D01*
X185454441Y-99034600D01*
X185471837Y-98857973D01*
X185523357Y-98688134D01*
X185523357Y-98688133D01*
X185607021Y-98531611D01*
X185607022Y-98531609D01*
X185636352Y-98495871D01*
X185719614Y-98394414D01*
X185821071Y-98311152D01*
X185856809Y-98281822D01*
X185874713Y-98272252D01*
X186013333Y-98198157D01*
X186069947Y-98180984D01*
X186183173Y-98146637D01*
X186249358Y-98140118D01*
X186315540Y-98133600D01*
X186404060Y-98133600D01*
X186470242Y-98140118D01*
X186470242Y-98140118D01*
G37*
G36*
X186470243Y-95600119D02*
X186536427Y-95606637D01*
X186649653Y-95640984D01*
X186706267Y-95658157D01*
X186844887Y-95732252D01*
X186862791Y-95741822D01*
X186898529Y-95771152D01*
X186999986Y-95854414D01*
X187083248Y-95955871D01*
X187112578Y-95991609D01*
X187112579Y-95991611D01*
X187196243Y-96148133D01*
X187196243Y-96148134D01*
X187247763Y-96317973D01*
X187265159Y-96494600D01*
X187247763Y-96671227D01*
X187213416Y-96784453D01*
X187196243Y-96841067D01*
X187154642Y-96918895D01*
X187112578Y-96997591D01*
X187083248Y-97033329D01*
X186999986Y-97134786D01*
X186898529Y-97218048D01*
X186862791Y-97247378D01*
X186862789Y-97247379D01*
X186706267Y-97331043D01*
X186649653Y-97348216D01*
X186536427Y-97382563D01*
X186470243Y-97389081D01*
X186404060Y-97395600D01*
X186315540Y-97395600D01*
X186249357Y-97389081D01*
X186183173Y-97382563D01*
X186069947Y-97348216D01*
X186013333Y-97331043D01*
X185856811Y-97247379D01*
X185856809Y-97247378D01*
X185821071Y-97218048D01*
X185719614Y-97134786D01*
X185636352Y-97033329D01*
X185607022Y-96997591D01*
X185564958Y-96918895D01*
X185523357Y-96841067D01*
X185506184Y-96784453D01*
X185471837Y-96671227D01*
X185454441Y-96494600D01*
X185471837Y-96317973D01*
X185523357Y-96148134D01*
X185523357Y-96148133D01*
X185607021Y-95991611D01*
X185607022Y-95991609D01*
X185636352Y-95955871D01*
X185719614Y-95854414D01*
X185821071Y-95771152D01*
X185856809Y-95741822D01*
X185874713Y-95732252D01*
X186013333Y-95658157D01*
X186069947Y-95640984D01*
X186183173Y-95606637D01*
X186249357Y-95600119D01*
X186315540Y-95593600D01*
X186404060Y-95593600D01*
X186470243Y-95600119D01*
X186470243Y-95600119D01*
G37*
G36*
X146817991Y-95789701D02*
X146903321Y-95798105D01*
X147040172Y-95839619D01*
X147040174Y-95839620D01*
X147040177Y-95839621D01*
X147166296Y-95907032D01*
X147276843Y-95997757D01*
X147367568Y-96108304D01*
X147434979Y-96234423D01*
X147434980Y-96234426D01*
X147434981Y-96234428D01*
X147476495Y-96371279D01*
X147490512Y-96513600D01*
X147476495Y-96655921D01*
X147434981Y-96792772D01*
X147434979Y-96792777D01*
X147367568Y-96918896D01*
X147276843Y-97029443D01*
X147166296Y-97120168D01*
X147040177Y-97187579D01*
X147040174Y-97187580D01*
X147040172Y-97187581D01*
X146903321Y-97229095D01*
X146817991Y-97237499D01*
X146796660Y-97239600D01*
X146375340Y-97239600D01*
X146354009Y-97237499D01*
X146268679Y-97229095D01*
X146131828Y-97187581D01*
X146131826Y-97187580D01*
X146131823Y-97187579D01*
X146005704Y-97120168D01*
X145895157Y-97029443D01*
X145804432Y-96918896D01*
X145737021Y-96792777D01*
X145737019Y-96792772D01*
X145695505Y-96655921D01*
X145681488Y-96513600D01*
X145695505Y-96371279D01*
X145737019Y-96234428D01*
X145737020Y-96234426D01*
X145737021Y-96234423D01*
X145804432Y-96108304D01*
X145895157Y-95997757D01*
X146005704Y-95907032D01*
X146131823Y-95839621D01*
X146131826Y-95839620D01*
X146131828Y-95839619D01*
X146268679Y-95798105D01*
X146354009Y-95789701D01*
X146375340Y-95787600D01*
X146796660Y-95787600D01*
X146817991Y-95789701D01*
X146817991Y-95789701D01*
G37*
G36*
X149903818Y-95611296D02*
X150017105Y-95645662D01*
X150121513Y-95701469D01*
X150213027Y-95776573D01*
X150288131Y-95868087D01*
X150343938Y-95972495D01*
X150378304Y-96085782D01*
X150389907Y-96203600D01*
X150378304Y-96321418D01*
X150343938Y-96434705D01*
X150288131Y-96539113D01*
X150213027Y-96630627D01*
X150121513Y-96705731D01*
X150017105Y-96761538D01*
X149903818Y-96795904D01*
X149815519Y-96804600D01*
X149356481Y-96804600D01*
X149268182Y-96795904D01*
X149154895Y-96761538D01*
X149050487Y-96705731D01*
X148958973Y-96630627D01*
X148883869Y-96539113D01*
X148828062Y-96434705D01*
X148793696Y-96321418D01*
X148782093Y-96203600D01*
X148793696Y-96085782D01*
X148828062Y-95972495D01*
X148883869Y-95868087D01*
X148958973Y-95776573D01*
X149050487Y-95701469D01*
X149154895Y-95645662D01*
X149268182Y-95611296D01*
X149356481Y-95602600D01*
X149815519Y-95602600D01*
X149903818Y-95611296D01*
X149903818Y-95611296D01*
G37*
G36*
X186470242Y-93060118D02*
X186536427Y-93066637D01*
X186649653Y-93100984D01*
X186706267Y-93118157D01*
X186844887Y-93192252D01*
X186862791Y-93201822D01*
X186898529Y-93231152D01*
X186999986Y-93314414D01*
X187083248Y-93415871D01*
X187112578Y-93451609D01*
X187112579Y-93451611D01*
X187196243Y-93608133D01*
X187196243Y-93608134D01*
X187247763Y-93777973D01*
X187265159Y-93954600D01*
X187247763Y-94131227D01*
X187213416Y-94244453D01*
X187196243Y-94301067D01*
X187122148Y-94439687D01*
X187112578Y-94457591D01*
X187083248Y-94493329D01*
X186999986Y-94594786D01*
X186898529Y-94678048D01*
X186862791Y-94707378D01*
X186862789Y-94707379D01*
X186706267Y-94791043D01*
X186649653Y-94808216D01*
X186536427Y-94842563D01*
X186470243Y-94849081D01*
X186404060Y-94855600D01*
X186315540Y-94855600D01*
X186249358Y-94849082D01*
X186183173Y-94842563D01*
X186069947Y-94808216D01*
X186013333Y-94791043D01*
X185856811Y-94707379D01*
X185856809Y-94707378D01*
X185821071Y-94678048D01*
X185719614Y-94594786D01*
X185636352Y-94493329D01*
X185607022Y-94457591D01*
X185597452Y-94439687D01*
X185523357Y-94301067D01*
X185506184Y-94244453D01*
X185471837Y-94131227D01*
X185454441Y-93954600D01*
X185471837Y-93777973D01*
X185523357Y-93608134D01*
X185523357Y-93608133D01*
X185607021Y-93451611D01*
X185607022Y-93451609D01*
X185636352Y-93415871D01*
X185719614Y-93314414D01*
X185821071Y-93231152D01*
X185856809Y-93201822D01*
X185874713Y-93192252D01*
X186013333Y-93118157D01*
X186069947Y-93100984D01*
X186183173Y-93066637D01*
X186249358Y-93060118D01*
X186315540Y-93053600D01*
X186404060Y-93053600D01*
X186470242Y-93060118D01*
X186470242Y-93060118D01*
G37*
G36*
X186470243Y-90520119D02*
X186536427Y-90526637D01*
X186649653Y-90560984D01*
X186706267Y-90578157D01*
X186837501Y-90648304D01*
X186862791Y-90661822D01*
X186898529Y-90691152D01*
X186999986Y-90774414D01*
X187071429Y-90861469D01*
X187112578Y-90911609D01*
X187112579Y-90911611D01*
X187196243Y-91068133D01*
X187196243Y-91068134D01*
X187247763Y-91237973D01*
X187265159Y-91414600D01*
X187247763Y-91591227D01*
X187226850Y-91660167D01*
X187196243Y-91761067D01*
X187140298Y-91865731D01*
X187112578Y-91917591D01*
X187083248Y-91953329D01*
X186999986Y-92054786D01*
X186898529Y-92138048D01*
X186862791Y-92167378D01*
X186862789Y-92167379D01*
X186706267Y-92251043D01*
X186649653Y-92268216D01*
X186536427Y-92302563D01*
X186470242Y-92309082D01*
X186404060Y-92315600D01*
X186315540Y-92315600D01*
X186249358Y-92309082D01*
X186183173Y-92302563D01*
X186069947Y-92268216D01*
X186013333Y-92251043D01*
X185856811Y-92167379D01*
X185856809Y-92167378D01*
X185821071Y-92138048D01*
X185719614Y-92054786D01*
X185636352Y-91953329D01*
X185607022Y-91917591D01*
X185579302Y-91865731D01*
X185523357Y-91761067D01*
X185492750Y-91660167D01*
X185471837Y-91591227D01*
X185454441Y-91414600D01*
X185471837Y-91237973D01*
X185523357Y-91068134D01*
X185523357Y-91068133D01*
X185607021Y-90911611D01*
X185607022Y-90911609D01*
X185648171Y-90861469D01*
X185719614Y-90774414D01*
X185821071Y-90691152D01*
X185856809Y-90661822D01*
X185882099Y-90648304D01*
X186013333Y-90578157D01*
X186069947Y-90560984D01*
X186183173Y-90526637D01*
X186249358Y-90520118D01*
X186315540Y-90513600D01*
X186404060Y-90513600D01*
X186470243Y-90520119D01*
X186470243Y-90520119D01*
G37*
G36*
X149903818Y-90771296D02*
X150017105Y-90805662D01*
X150121513Y-90861469D01*
X150213027Y-90936573D01*
X150288131Y-91028087D01*
X150343938Y-91132495D01*
X150378304Y-91245782D01*
X150389907Y-91363600D01*
X150378304Y-91481418D01*
X150343938Y-91594705D01*
X150288131Y-91699113D01*
X150213027Y-91790627D01*
X150121513Y-91865731D01*
X150017105Y-91921538D01*
X149903818Y-91955904D01*
X149815519Y-91964600D01*
X149356481Y-91964600D01*
X149268182Y-91955904D01*
X149154895Y-91921538D01*
X149050487Y-91865731D01*
X148958973Y-91790627D01*
X148883869Y-91699113D01*
X148828062Y-91594705D01*
X148793696Y-91481418D01*
X148782093Y-91363600D01*
X148793696Y-91245782D01*
X148828062Y-91132495D01*
X148883869Y-91028087D01*
X148958973Y-90936573D01*
X149050487Y-90861469D01*
X149154895Y-90805662D01*
X149268182Y-90771296D01*
X149356481Y-90762600D01*
X149815519Y-90762600D01*
X149903818Y-90771296D01*
X149903818Y-90771296D01*
G37*
G36*
X146817991Y-90329701D02*
X146903321Y-90338105D01*
X147040172Y-90379619D01*
X147040174Y-90379620D01*
X147040177Y-90379621D01*
X147166296Y-90447032D01*
X147276843Y-90537757D01*
X147367568Y-90648304D01*
X147434979Y-90774423D01*
X147434980Y-90774426D01*
X147434981Y-90774428D01*
X147476495Y-90911279D01*
X147490512Y-91053600D01*
X147476495Y-91195921D01*
X147434981Y-91332772D01*
X147434979Y-91332777D01*
X147367568Y-91458896D01*
X147276843Y-91569443D01*
X147166296Y-91660168D01*
X147040177Y-91727579D01*
X147040174Y-91727580D01*
X147040172Y-91727581D01*
X146903321Y-91769095D01*
X146817991Y-91777499D01*
X146796660Y-91779600D01*
X146375340Y-91779600D01*
X146354009Y-91777499D01*
X146268679Y-91769095D01*
X146131828Y-91727581D01*
X146131826Y-91727580D01*
X146131823Y-91727579D01*
X146005704Y-91660168D01*
X145895157Y-91569443D01*
X145804432Y-91458896D01*
X145737021Y-91332777D01*
X145737019Y-91332772D01*
X145695505Y-91195921D01*
X145681488Y-91053600D01*
X145695505Y-90911279D01*
X145737019Y-90774428D01*
X145737020Y-90774426D01*
X145737021Y-90774423D01*
X145804432Y-90648304D01*
X145895157Y-90537757D01*
X146005704Y-90447032D01*
X146131823Y-90379621D01*
X146131826Y-90379620D01*
X146131828Y-90379619D01*
X146268679Y-90338105D01*
X146354009Y-90329701D01*
X146375340Y-90327600D01*
X146796660Y-90327600D01*
X146817991Y-90329701D01*
X146817991Y-90329701D01*
G37*
G36*
X187260800Y-89775600D02*
X185458800Y-89775600D01*
X185458800Y-87973600D01*
X187260800Y-87973600D01*
X187260800Y-89775600D01*
X187260800Y-89775600D01*
G37*
M02*
