G04 #@! TF.GenerationSoftware,KiCad,Pcbnew,5.0.2-bee76a0~70~ubuntu18.04.1*
G04 #@! TF.CreationDate,2019-08-23T13:18:12-04:00*
G04 #@! TF.ProjectId,badge,62616467-652e-46b6-9963-61645f706362,rev?*
G04 #@! TF.SameCoordinates,Original*
G04 #@! TF.FileFunction,Copper,L2,Bot*
G04 #@! TF.FilePolarity,Positive*
%FSLAX46Y46*%
G04 Gerber Fmt 4.6, Leading zero omitted, Abs format (unit mm)*
G04 Created by KiCad (PCBNEW 5.0.2-bee76a0~70~ubuntu18.04.1) date Fri 23 Aug 2019 01:18:12 PM EDT*
%MOMM*%
%LPD*%
G01*
G04 APERTURE LIST*
G04 #@! TA.AperFunction,ComponentPad*
%ADD10O,1.500000X1.100000*%
G04 #@! TD*
G04 #@! TA.AperFunction,ComponentPad*
%ADD11O,1.700000X1.350000*%
G04 #@! TD*
G04 #@! TA.AperFunction,ComponentPad*
%ADD12R,1.700000X1.700000*%
G04 #@! TD*
G04 #@! TA.AperFunction,ComponentPad*
%ADD13O,1.700000X1.700000*%
G04 #@! TD*
G04 #@! TA.AperFunction,ViaPad*
%ADD14C,0.800000*%
G04 #@! TD*
G04 #@! TA.AperFunction,Conductor*
%ADD15C,0.400000*%
G04 #@! TD*
G04 #@! TA.AperFunction,Conductor*
%ADD16C,0.254000*%
G04 #@! TD*
G04 APERTURE END LIST*
D10*
G04 #@! TO.P,J1,6*
G04 #@! TO.N,GND*
X149586000Y-91363600D03*
X149586000Y-96203600D03*
D11*
X146586000Y-91053600D03*
X146586000Y-96513600D03*
G04 #@! TD*
D12*
G04 #@! TO.P,J2,1*
G04 #@! TO.N,Net-(C1-Pad1)*
X186359800Y-88874600D03*
D13*
G04 #@! TO.P,J2,2*
G04 #@! TO.N,Net-(C3-Pad1)*
X186359800Y-91414600D03*
G04 #@! TO.P,J2,3*
G04 #@! TO.N,Net-(J2-Pad3)*
X186359800Y-93954600D03*
G04 #@! TO.P,J2,4*
G04 #@! TO.N,Net-(J2-Pad4)*
X186359800Y-96494600D03*
G04 #@! TO.P,J2,5*
G04 #@! TO.N,GND*
X186359800Y-99034600D03*
G04 #@! TD*
D14*
G04 #@! TO.N,*
X171170600Y-100076000D03*
X168681400Y-100965000D03*
G04 #@! TO.N,GND*
X160604200Y-86664800D03*
X160705800Y-91109800D03*
X163677600Y-96901000D03*
X161036000Y-96164400D03*
X174726600Y-94259400D03*
X174955200Y-99491800D03*
G04 #@! TO.N,Net-(C3-Pad1)*
X162229800Y-91338400D03*
X182676800Y-91414600D03*
G04 #@! TO.N,Net-(D1-Pad1)*
X167487600Y-94208600D03*
X168452800Y-82600800D03*
G04 #@! TO.N,Net-(J2-Pad4)*
X176809400Y-95910400D03*
G04 #@! TD*
D15*
G04 #@! TO.N,*
X170604915Y-100076000D02*
X169715915Y-100965000D01*
X171170600Y-100076000D02*
X170604915Y-100076000D01*
X169715915Y-100965000D02*
X168681400Y-100965000D01*
G04 #@! TO.N,GND*
X160604200Y-87230485D02*
X160655000Y-87281285D01*
X160604200Y-86664800D02*
X160604200Y-87230485D01*
X160655000Y-87281285D02*
X160655000Y-91059000D01*
X160655000Y-91059000D02*
X160705800Y-91109800D01*
X163677600Y-96901000D02*
X161772600Y-96901000D01*
X161772600Y-96901000D02*
X161036000Y-96164400D01*
X174726600Y-94825085D02*
X174955200Y-95053685D01*
X174726600Y-94259400D02*
X174726600Y-94825085D01*
X174955200Y-95053685D02*
X174955200Y-99491800D01*
G04 #@! TO.N,Net-(C3-Pad1)*
X162229800Y-91338400D02*
X162229800Y-95046800D01*
X162229800Y-95046800D02*
X163220400Y-96037400D01*
X163220400Y-96037400D02*
X167055800Y-96037400D01*
X167055800Y-96037400D02*
X171678600Y-91414600D01*
X171678600Y-91414600D02*
X182676800Y-91414600D01*
G04 #@! TO.N,Net-(D1-Pad1)*
X167887599Y-93808601D02*
X167887599Y-83191401D01*
X167487600Y-94208600D02*
X167887599Y-93808601D01*
X167887599Y-83191401D02*
X168452800Y-82626200D01*
X168452800Y-82626200D02*
X168452800Y-82600800D01*
G04 #@! TO.N,Net-(J2-Pad4)*
X177393600Y-96494600D02*
X186359800Y-96494600D01*
X176809400Y-95910400D02*
X177393600Y-96494600D01*
G04 #@! TD*
D16*
G04 #@! TO.N,GND*
G36*
X170915410Y-69618401D02*
X172807482Y-69842342D01*
X174676152Y-70214044D01*
X176509897Y-70731214D01*
X178297413Y-71390663D01*
X180027679Y-72188327D01*
X181690028Y-73119286D01*
X183274209Y-74177803D01*
X184770457Y-75357349D01*
X186169546Y-76650654D01*
X187462851Y-78049743D01*
X188642397Y-79545991D01*
X189700914Y-81130172D01*
X190631873Y-82792521D01*
X191429537Y-84522787D01*
X192088986Y-86310303D01*
X192606156Y-88144048D01*
X192977858Y-90012718D01*
X193201799Y-91904790D01*
X193276600Y-93808600D01*
X193201799Y-95712410D01*
X192977858Y-97604482D01*
X192606156Y-99473152D01*
X192088986Y-101306897D01*
X191429537Y-103094413D01*
X190631873Y-104824679D01*
X189700914Y-106487028D01*
X188642397Y-108071209D01*
X187462851Y-109567457D01*
X186169546Y-110966546D01*
X184770457Y-112259851D01*
X183274209Y-113439397D01*
X181690028Y-114497914D01*
X180027679Y-115428873D01*
X178297413Y-116226537D01*
X176509897Y-116885986D01*
X174676152Y-117403156D01*
X172807482Y-117774858D01*
X170915410Y-117998799D01*
X169011600Y-118073600D01*
X167107790Y-117998799D01*
X165215718Y-117774858D01*
X163347048Y-117403156D01*
X161513303Y-116885986D01*
X159725787Y-116226537D01*
X157995521Y-115428873D01*
X156333172Y-114497914D01*
X154748991Y-113439397D01*
X153252743Y-112259851D01*
X151853654Y-110966546D01*
X150560349Y-109567457D01*
X149380803Y-108071209D01*
X148322286Y-106487028D01*
X147391327Y-104824679D01*
X146593663Y-103094413D01*
X145934214Y-101306897D01*
X145779727Y-100759126D01*
X167646400Y-100759126D01*
X167646400Y-101170874D01*
X167803969Y-101551280D01*
X168095120Y-101842431D01*
X168475526Y-102000000D01*
X168887274Y-102000000D01*
X169267680Y-101842431D01*
X169310111Y-101800000D01*
X169633682Y-101800000D01*
X169715915Y-101816357D01*
X169798148Y-101800000D01*
X169798152Y-101800000D01*
X170041716Y-101751552D01*
X170317916Y-101567001D01*
X170364502Y-101497280D01*
X170813445Y-101048338D01*
X170964726Y-101111000D01*
X171376474Y-101111000D01*
X171756880Y-100953431D01*
X172048031Y-100662280D01*
X172205600Y-100281874D01*
X172205600Y-99870126D01*
X172048031Y-99489720D01*
X171949801Y-99391490D01*
X184918324Y-99391490D01*
X185088155Y-99801524D01*
X185478442Y-100229783D01*
X186002908Y-100476086D01*
X186232800Y-100355419D01*
X186232800Y-99161600D01*
X186486800Y-99161600D01*
X186486800Y-100355419D01*
X186716692Y-100476086D01*
X187241158Y-100229783D01*
X187631445Y-99801524D01*
X187801276Y-99391490D01*
X187679955Y-99161600D01*
X186486800Y-99161600D01*
X186232800Y-99161600D01*
X185039645Y-99161600D01*
X184918324Y-99391490D01*
X171949801Y-99391490D01*
X171756880Y-99198569D01*
X171376474Y-99041000D01*
X170964726Y-99041000D01*
X170584320Y-99198569D01*
X170546659Y-99236230D01*
X170522678Y-99241000D01*
X170279114Y-99289448D01*
X170002914Y-99473999D01*
X169956329Y-99543718D01*
X169370048Y-100130000D01*
X169310111Y-100130000D01*
X169267680Y-100087569D01*
X168887274Y-99930000D01*
X168475526Y-99930000D01*
X168095120Y-100087569D01*
X167803969Y-100378720D01*
X167646400Y-100759126D01*
X145779727Y-100759126D01*
X145417044Y-99473152D01*
X145045342Y-97604482D01*
X144955215Y-96843000D01*
X145143090Y-96843000D01*
X145146144Y-96866629D01*
X145377524Y-97323796D01*
X145766241Y-97657618D01*
X146253117Y-97817273D01*
X146459000Y-97667171D01*
X146459000Y-96640600D01*
X146713000Y-96640600D01*
X146713000Y-97667171D01*
X146918883Y-97817273D01*
X147405759Y-97657618D01*
X147794476Y-97323796D01*
X148025856Y-96866629D01*
X148028910Y-96843000D01*
X147905224Y-96640600D01*
X146713000Y-96640600D01*
X146459000Y-96640600D01*
X145266776Y-96640600D01*
X145143090Y-96843000D01*
X144955215Y-96843000D01*
X144916198Y-96513344D01*
X148242197Y-96513344D01*
X148246994Y-96552126D01*
X148467071Y-96961475D01*
X148827046Y-97255444D01*
X149272117Y-97389280D01*
X149459000Y-97233748D01*
X149459000Y-96330600D01*
X149713000Y-96330600D01*
X149713000Y-97233748D01*
X149899883Y-97389280D01*
X150344954Y-97255444D01*
X150704929Y-96961475D01*
X150925006Y-96552126D01*
X150929803Y-96513344D01*
X150804361Y-96330600D01*
X149713000Y-96330600D01*
X149459000Y-96330600D01*
X148367639Y-96330600D01*
X148242197Y-96513344D01*
X144916198Y-96513344D01*
X144877241Y-96184200D01*
X145143090Y-96184200D01*
X145266776Y-96386600D01*
X146459000Y-96386600D01*
X146459000Y-95360029D01*
X146713000Y-95360029D01*
X146713000Y-96386600D01*
X147905224Y-96386600D01*
X148028910Y-96184200D01*
X148025856Y-96160571D01*
X147890867Y-95893856D01*
X148242197Y-95893856D01*
X148367639Y-96076600D01*
X149459000Y-96076600D01*
X149459000Y-95173452D01*
X149713000Y-95173452D01*
X149713000Y-96076600D01*
X150804361Y-96076600D01*
X150929803Y-95893856D01*
X150925006Y-95855074D01*
X150704929Y-95445725D01*
X150344954Y-95151756D01*
X149899883Y-95017920D01*
X149713000Y-95173452D01*
X149459000Y-95173452D01*
X149272117Y-95017920D01*
X148827046Y-95151756D01*
X148467071Y-95445725D01*
X148246994Y-95855074D01*
X148242197Y-95893856D01*
X147890867Y-95893856D01*
X147794476Y-95703404D01*
X147405759Y-95369582D01*
X146918883Y-95209927D01*
X146713000Y-95360029D01*
X146459000Y-95360029D01*
X146253117Y-95209927D01*
X145766241Y-95369582D01*
X145377524Y-95703404D01*
X145146144Y-96160571D01*
X145143090Y-96184200D01*
X144877241Y-96184200D01*
X144821401Y-95712410D01*
X144746600Y-93808600D01*
X144821401Y-91904790D01*
X144883158Y-91383000D01*
X145143090Y-91383000D01*
X145146144Y-91406629D01*
X145377524Y-91863796D01*
X145766241Y-92197618D01*
X146253117Y-92357273D01*
X146459000Y-92207171D01*
X146459000Y-91180600D01*
X146713000Y-91180600D01*
X146713000Y-92207171D01*
X146918883Y-92357273D01*
X147405759Y-92197618D01*
X147794476Y-91863796D01*
X147890866Y-91673344D01*
X148242197Y-91673344D01*
X148246994Y-91712126D01*
X148467071Y-92121475D01*
X148827046Y-92415444D01*
X149272117Y-92549280D01*
X149459000Y-92393748D01*
X149459000Y-91490600D01*
X149713000Y-91490600D01*
X149713000Y-92393748D01*
X149899883Y-92549280D01*
X150344954Y-92415444D01*
X150704929Y-92121475D01*
X150925006Y-91712126D01*
X150929803Y-91673344D01*
X150804361Y-91490600D01*
X149713000Y-91490600D01*
X149459000Y-91490600D01*
X148367639Y-91490600D01*
X148242197Y-91673344D01*
X147890866Y-91673344D01*
X148025856Y-91406629D01*
X148028910Y-91383000D01*
X147905224Y-91180600D01*
X146713000Y-91180600D01*
X146459000Y-91180600D01*
X145266776Y-91180600D01*
X145143090Y-91383000D01*
X144883158Y-91383000D01*
X144922114Y-91053856D01*
X148242197Y-91053856D01*
X148367639Y-91236600D01*
X149459000Y-91236600D01*
X149459000Y-90333452D01*
X149713000Y-90333452D01*
X149713000Y-91236600D01*
X150804361Y-91236600D01*
X150875801Y-91132526D01*
X161194800Y-91132526D01*
X161194800Y-91544274D01*
X161352369Y-91924680D01*
X161394800Y-91967111D01*
X161394801Y-94964562D01*
X161378443Y-95046800D01*
X161443248Y-95372600D01*
X161443249Y-95372601D01*
X161627800Y-95648801D01*
X161697518Y-95695385D01*
X162571815Y-96569682D01*
X162618399Y-96639401D01*
X162840540Y-96787831D01*
X162894599Y-96823952D01*
X163220400Y-96888758D01*
X163302637Y-96872400D01*
X166973567Y-96872400D01*
X167055800Y-96888757D01*
X167138033Y-96872400D01*
X167138037Y-96872400D01*
X167381601Y-96823952D01*
X167657801Y-96639401D01*
X167704387Y-96569680D01*
X168569541Y-95704526D01*
X175774400Y-95704526D01*
X175774400Y-96116274D01*
X175931969Y-96496680D01*
X176223120Y-96787831D01*
X176603526Y-96945400D01*
X176663532Y-96945400D01*
X176745014Y-97026882D01*
X176791599Y-97096601D01*
X177067799Y-97281152D01*
X177311363Y-97329600D01*
X177393600Y-97345958D01*
X177475837Y-97329600D01*
X185131735Y-97329600D01*
X185289175Y-97565225D01*
X185608278Y-97778443D01*
X185478442Y-97839417D01*
X185088155Y-98267676D01*
X184918324Y-98677710D01*
X185039645Y-98907600D01*
X186232800Y-98907600D01*
X186232800Y-98887600D01*
X186486800Y-98887600D01*
X186486800Y-98907600D01*
X187679955Y-98907600D01*
X187801276Y-98677710D01*
X187631445Y-98267676D01*
X187241158Y-97839417D01*
X187111322Y-97778443D01*
X187430425Y-97565225D01*
X187758639Y-97074018D01*
X187873892Y-96494600D01*
X187758639Y-95915182D01*
X187430425Y-95423975D01*
X187132039Y-95224600D01*
X187430425Y-95025225D01*
X187758639Y-94534018D01*
X187873892Y-93954600D01*
X187758639Y-93375182D01*
X187430425Y-92883975D01*
X187132039Y-92684600D01*
X187430425Y-92485225D01*
X187758639Y-91994018D01*
X187873892Y-91414600D01*
X187758639Y-90835182D01*
X187430425Y-90343975D01*
X187412181Y-90331784D01*
X187457565Y-90322757D01*
X187667609Y-90182409D01*
X187807957Y-89972365D01*
X187857240Y-89724600D01*
X187857240Y-88024600D01*
X187807957Y-87776835D01*
X187667609Y-87566791D01*
X187457565Y-87426443D01*
X187209800Y-87377160D01*
X185509800Y-87377160D01*
X185262035Y-87426443D01*
X185051991Y-87566791D01*
X184911643Y-87776835D01*
X184862360Y-88024600D01*
X184862360Y-89724600D01*
X184911643Y-89972365D01*
X185051991Y-90182409D01*
X185262035Y-90322757D01*
X185307419Y-90331784D01*
X185289175Y-90343975D01*
X184960961Y-90835182D01*
X184845708Y-91414600D01*
X184960961Y-91994018D01*
X185289175Y-92485225D01*
X185587561Y-92684600D01*
X185289175Y-92883975D01*
X184960961Y-93375182D01*
X184845708Y-93954600D01*
X184960961Y-94534018D01*
X185289175Y-95025225D01*
X185587561Y-95224600D01*
X185289175Y-95423975D01*
X185131735Y-95659600D01*
X177825791Y-95659600D01*
X177686831Y-95324120D01*
X177395680Y-95032969D01*
X177015274Y-94875400D01*
X176603526Y-94875400D01*
X176223120Y-95032969D01*
X175931969Y-95324120D01*
X175774400Y-95704526D01*
X168569541Y-95704526D01*
X172024469Y-92249600D01*
X182048089Y-92249600D01*
X182090520Y-92292031D01*
X182470926Y-92449600D01*
X182882674Y-92449600D01*
X183263080Y-92292031D01*
X183554231Y-92000880D01*
X183711800Y-91620474D01*
X183711800Y-91208726D01*
X183554231Y-90828320D01*
X183263080Y-90537169D01*
X182882674Y-90379600D01*
X182470926Y-90379600D01*
X182090520Y-90537169D01*
X182048089Y-90579600D01*
X171760832Y-90579600D01*
X171678599Y-90563243D01*
X171596366Y-90579600D01*
X171596363Y-90579600D01*
X171352799Y-90628048D01*
X171076599Y-90812599D01*
X171030017Y-90882314D01*
X168722599Y-93189733D01*
X168722599Y-83609321D01*
X169039080Y-83478231D01*
X169330231Y-83187080D01*
X169487800Y-82806674D01*
X169487800Y-82394926D01*
X169330231Y-82014520D01*
X169039080Y-81723369D01*
X168658674Y-81565800D01*
X168246926Y-81565800D01*
X167866520Y-81723369D01*
X167575369Y-82014520D01*
X167417800Y-82394926D01*
X167417800Y-82480333D01*
X167355317Y-82542816D01*
X167285599Y-82589400D01*
X167239015Y-82659118D01*
X167101047Y-82865601D01*
X167036242Y-83191401D01*
X167052600Y-83273639D01*
X167052599Y-93268507D01*
X166901320Y-93331169D01*
X166610169Y-93622320D01*
X166452600Y-94002726D01*
X166452600Y-94414474D01*
X166610169Y-94794880D01*
X166863811Y-95048522D01*
X166709933Y-95202400D01*
X163566268Y-95202400D01*
X163064800Y-94700933D01*
X163064800Y-91967111D01*
X163107231Y-91924680D01*
X163264800Y-91544274D01*
X163264800Y-91132526D01*
X163107231Y-90752120D01*
X162816080Y-90460969D01*
X162435674Y-90303400D01*
X162023926Y-90303400D01*
X161643520Y-90460969D01*
X161352369Y-90752120D01*
X161194800Y-91132526D01*
X150875801Y-91132526D01*
X150929803Y-91053856D01*
X150925006Y-91015074D01*
X150704929Y-90605725D01*
X150344954Y-90311756D01*
X149899883Y-90177920D01*
X149713000Y-90333452D01*
X149459000Y-90333452D01*
X149272117Y-90177920D01*
X148827046Y-90311756D01*
X148467071Y-90605725D01*
X148246994Y-91015074D01*
X148242197Y-91053856D01*
X144922114Y-91053856D01*
X144961132Y-90724200D01*
X145143090Y-90724200D01*
X145266776Y-90926600D01*
X146459000Y-90926600D01*
X146459000Y-89900029D01*
X146713000Y-89900029D01*
X146713000Y-90926600D01*
X147905224Y-90926600D01*
X148028910Y-90724200D01*
X148025856Y-90700571D01*
X147794476Y-90243404D01*
X147405759Y-89909582D01*
X146918883Y-89749927D01*
X146713000Y-89900029D01*
X146459000Y-89900029D01*
X146253117Y-89749927D01*
X145766241Y-89909582D01*
X145377524Y-90243404D01*
X145146144Y-90700571D01*
X145143090Y-90724200D01*
X144961132Y-90724200D01*
X145045342Y-90012718D01*
X145417044Y-88144048D01*
X145934214Y-86310303D01*
X146593663Y-84522787D01*
X147391327Y-82792521D01*
X148322286Y-81130172D01*
X149380803Y-79545991D01*
X150560349Y-78049743D01*
X151853654Y-76650654D01*
X153252743Y-75357349D01*
X154748991Y-74177803D01*
X156333172Y-73119286D01*
X157379433Y-72533352D01*
X166281804Y-72533352D01*
X166400888Y-73298175D01*
X166729846Y-73998832D01*
X167242233Y-74579000D01*
X167896858Y-74992037D01*
X168641096Y-75204742D01*
X169415120Y-75200013D01*
X170156704Y-74978233D01*
X170806234Y-74557228D01*
X171311495Y-73970844D01*
X171631868Y-73266220D01*
X171741600Y-72500000D01*
X171740785Y-72433300D01*
X171612366Y-71669990D01*
X171274873Y-70973403D01*
X170755436Y-70399539D01*
X170095814Y-69994530D01*
X169349032Y-69790934D01*
X168575124Y-69805118D01*
X167836305Y-70035942D01*
X167191966Y-70464851D01*
X166693907Y-71057363D01*
X166382166Y-71765849D01*
X166281804Y-72533352D01*
X157379433Y-72533352D01*
X157995521Y-72188327D01*
X159725787Y-71390663D01*
X161513303Y-70731214D01*
X163347048Y-70214044D01*
X165215718Y-69842342D01*
X167107790Y-69618401D01*
X169011600Y-69543600D01*
X170915410Y-69618401D01*
X170915410Y-69618401D01*
G37*
X170915410Y-69618401D02*
X172807482Y-69842342D01*
X174676152Y-70214044D01*
X176509897Y-70731214D01*
X178297413Y-71390663D01*
X180027679Y-72188327D01*
X181690028Y-73119286D01*
X183274209Y-74177803D01*
X184770457Y-75357349D01*
X186169546Y-76650654D01*
X187462851Y-78049743D01*
X188642397Y-79545991D01*
X189700914Y-81130172D01*
X190631873Y-82792521D01*
X191429537Y-84522787D01*
X192088986Y-86310303D01*
X192606156Y-88144048D01*
X192977858Y-90012718D01*
X193201799Y-91904790D01*
X193276600Y-93808600D01*
X193201799Y-95712410D01*
X192977858Y-97604482D01*
X192606156Y-99473152D01*
X192088986Y-101306897D01*
X191429537Y-103094413D01*
X190631873Y-104824679D01*
X189700914Y-106487028D01*
X188642397Y-108071209D01*
X187462851Y-109567457D01*
X186169546Y-110966546D01*
X184770457Y-112259851D01*
X183274209Y-113439397D01*
X181690028Y-114497914D01*
X180027679Y-115428873D01*
X178297413Y-116226537D01*
X176509897Y-116885986D01*
X174676152Y-117403156D01*
X172807482Y-117774858D01*
X170915410Y-117998799D01*
X169011600Y-118073600D01*
X167107790Y-117998799D01*
X165215718Y-117774858D01*
X163347048Y-117403156D01*
X161513303Y-116885986D01*
X159725787Y-116226537D01*
X157995521Y-115428873D01*
X156333172Y-114497914D01*
X154748991Y-113439397D01*
X153252743Y-112259851D01*
X151853654Y-110966546D01*
X150560349Y-109567457D01*
X149380803Y-108071209D01*
X148322286Y-106487028D01*
X147391327Y-104824679D01*
X146593663Y-103094413D01*
X145934214Y-101306897D01*
X145779727Y-100759126D01*
X167646400Y-100759126D01*
X167646400Y-101170874D01*
X167803969Y-101551280D01*
X168095120Y-101842431D01*
X168475526Y-102000000D01*
X168887274Y-102000000D01*
X169267680Y-101842431D01*
X169310111Y-101800000D01*
X169633682Y-101800000D01*
X169715915Y-101816357D01*
X169798148Y-101800000D01*
X169798152Y-101800000D01*
X170041716Y-101751552D01*
X170317916Y-101567001D01*
X170364502Y-101497280D01*
X170813445Y-101048338D01*
X170964726Y-101111000D01*
X171376474Y-101111000D01*
X171756880Y-100953431D01*
X172048031Y-100662280D01*
X172205600Y-100281874D01*
X172205600Y-99870126D01*
X172048031Y-99489720D01*
X171949801Y-99391490D01*
X184918324Y-99391490D01*
X185088155Y-99801524D01*
X185478442Y-100229783D01*
X186002908Y-100476086D01*
X186232800Y-100355419D01*
X186232800Y-99161600D01*
X186486800Y-99161600D01*
X186486800Y-100355419D01*
X186716692Y-100476086D01*
X187241158Y-100229783D01*
X187631445Y-99801524D01*
X187801276Y-99391490D01*
X187679955Y-99161600D01*
X186486800Y-99161600D01*
X186232800Y-99161600D01*
X185039645Y-99161600D01*
X184918324Y-99391490D01*
X171949801Y-99391490D01*
X171756880Y-99198569D01*
X171376474Y-99041000D01*
X170964726Y-99041000D01*
X170584320Y-99198569D01*
X170546659Y-99236230D01*
X170522678Y-99241000D01*
X170279114Y-99289448D01*
X170002914Y-99473999D01*
X169956329Y-99543718D01*
X169370048Y-100130000D01*
X169310111Y-100130000D01*
X169267680Y-100087569D01*
X168887274Y-99930000D01*
X168475526Y-99930000D01*
X168095120Y-100087569D01*
X167803969Y-100378720D01*
X167646400Y-100759126D01*
X145779727Y-100759126D01*
X145417044Y-99473152D01*
X145045342Y-97604482D01*
X144955215Y-96843000D01*
X145143090Y-96843000D01*
X145146144Y-96866629D01*
X145377524Y-97323796D01*
X145766241Y-97657618D01*
X146253117Y-97817273D01*
X146459000Y-97667171D01*
X146459000Y-96640600D01*
X146713000Y-96640600D01*
X146713000Y-97667171D01*
X146918883Y-97817273D01*
X147405759Y-97657618D01*
X147794476Y-97323796D01*
X148025856Y-96866629D01*
X148028910Y-96843000D01*
X147905224Y-96640600D01*
X146713000Y-96640600D01*
X146459000Y-96640600D01*
X145266776Y-96640600D01*
X145143090Y-96843000D01*
X144955215Y-96843000D01*
X144916198Y-96513344D01*
X148242197Y-96513344D01*
X148246994Y-96552126D01*
X148467071Y-96961475D01*
X148827046Y-97255444D01*
X149272117Y-97389280D01*
X149459000Y-97233748D01*
X149459000Y-96330600D01*
X149713000Y-96330600D01*
X149713000Y-97233748D01*
X149899883Y-97389280D01*
X150344954Y-97255444D01*
X150704929Y-96961475D01*
X150925006Y-96552126D01*
X150929803Y-96513344D01*
X150804361Y-96330600D01*
X149713000Y-96330600D01*
X149459000Y-96330600D01*
X148367639Y-96330600D01*
X148242197Y-96513344D01*
X144916198Y-96513344D01*
X144877241Y-96184200D01*
X145143090Y-96184200D01*
X145266776Y-96386600D01*
X146459000Y-96386600D01*
X146459000Y-95360029D01*
X146713000Y-95360029D01*
X146713000Y-96386600D01*
X147905224Y-96386600D01*
X148028910Y-96184200D01*
X148025856Y-96160571D01*
X147890867Y-95893856D01*
X148242197Y-95893856D01*
X148367639Y-96076600D01*
X149459000Y-96076600D01*
X149459000Y-95173452D01*
X149713000Y-95173452D01*
X149713000Y-96076600D01*
X150804361Y-96076600D01*
X150929803Y-95893856D01*
X150925006Y-95855074D01*
X150704929Y-95445725D01*
X150344954Y-95151756D01*
X149899883Y-95017920D01*
X149713000Y-95173452D01*
X149459000Y-95173452D01*
X149272117Y-95017920D01*
X148827046Y-95151756D01*
X148467071Y-95445725D01*
X148246994Y-95855074D01*
X148242197Y-95893856D01*
X147890867Y-95893856D01*
X147794476Y-95703404D01*
X147405759Y-95369582D01*
X146918883Y-95209927D01*
X146713000Y-95360029D01*
X146459000Y-95360029D01*
X146253117Y-95209927D01*
X145766241Y-95369582D01*
X145377524Y-95703404D01*
X145146144Y-96160571D01*
X145143090Y-96184200D01*
X144877241Y-96184200D01*
X144821401Y-95712410D01*
X144746600Y-93808600D01*
X144821401Y-91904790D01*
X144883158Y-91383000D01*
X145143090Y-91383000D01*
X145146144Y-91406629D01*
X145377524Y-91863796D01*
X145766241Y-92197618D01*
X146253117Y-92357273D01*
X146459000Y-92207171D01*
X146459000Y-91180600D01*
X146713000Y-91180600D01*
X146713000Y-92207171D01*
X146918883Y-92357273D01*
X147405759Y-92197618D01*
X147794476Y-91863796D01*
X147890866Y-91673344D01*
X148242197Y-91673344D01*
X148246994Y-91712126D01*
X148467071Y-92121475D01*
X148827046Y-92415444D01*
X149272117Y-92549280D01*
X149459000Y-92393748D01*
X149459000Y-91490600D01*
X149713000Y-91490600D01*
X149713000Y-92393748D01*
X149899883Y-92549280D01*
X150344954Y-92415444D01*
X150704929Y-92121475D01*
X150925006Y-91712126D01*
X150929803Y-91673344D01*
X150804361Y-91490600D01*
X149713000Y-91490600D01*
X149459000Y-91490600D01*
X148367639Y-91490600D01*
X148242197Y-91673344D01*
X147890866Y-91673344D01*
X148025856Y-91406629D01*
X148028910Y-91383000D01*
X147905224Y-91180600D01*
X146713000Y-91180600D01*
X146459000Y-91180600D01*
X145266776Y-91180600D01*
X145143090Y-91383000D01*
X144883158Y-91383000D01*
X144922114Y-91053856D01*
X148242197Y-91053856D01*
X148367639Y-91236600D01*
X149459000Y-91236600D01*
X149459000Y-90333452D01*
X149713000Y-90333452D01*
X149713000Y-91236600D01*
X150804361Y-91236600D01*
X150875801Y-91132526D01*
X161194800Y-91132526D01*
X161194800Y-91544274D01*
X161352369Y-91924680D01*
X161394800Y-91967111D01*
X161394801Y-94964562D01*
X161378443Y-95046800D01*
X161443248Y-95372600D01*
X161443249Y-95372601D01*
X161627800Y-95648801D01*
X161697518Y-95695385D01*
X162571815Y-96569682D01*
X162618399Y-96639401D01*
X162840540Y-96787831D01*
X162894599Y-96823952D01*
X163220400Y-96888758D01*
X163302637Y-96872400D01*
X166973567Y-96872400D01*
X167055800Y-96888757D01*
X167138033Y-96872400D01*
X167138037Y-96872400D01*
X167381601Y-96823952D01*
X167657801Y-96639401D01*
X167704387Y-96569680D01*
X168569541Y-95704526D01*
X175774400Y-95704526D01*
X175774400Y-96116274D01*
X175931969Y-96496680D01*
X176223120Y-96787831D01*
X176603526Y-96945400D01*
X176663532Y-96945400D01*
X176745014Y-97026882D01*
X176791599Y-97096601D01*
X177067799Y-97281152D01*
X177311363Y-97329600D01*
X177393600Y-97345958D01*
X177475837Y-97329600D01*
X185131735Y-97329600D01*
X185289175Y-97565225D01*
X185608278Y-97778443D01*
X185478442Y-97839417D01*
X185088155Y-98267676D01*
X184918324Y-98677710D01*
X185039645Y-98907600D01*
X186232800Y-98907600D01*
X186232800Y-98887600D01*
X186486800Y-98887600D01*
X186486800Y-98907600D01*
X187679955Y-98907600D01*
X187801276Y-98677710D01*
X187631445Y-98267676D01*
X187241158Y-97839417D01*
X187111322Y-97778443D01*
X187430425Y-97565225D01*
X187758639Y-97074018D01*
X187873892Y-96494600D01*
X187758639Y-95915182D01*
X187430425Y-95423975D01*
X187132039Y-95224600D01*
X187430425Y-95025225D01*
X187758639Y-94534018D01*
X187873892Y-93954600D01*
X187758639Y-93375182D01*
X187430425Y-92883975D01*
X187132039Y-92684600D01*
X187430425Y-92485225D01*
X187758639Y-91994018D01*
X187873892Y-91414600D01*
X187758639Y-90835182D01*
X187430425Y-90343975D01*
X187412181Y-90331784D01*
X187457565Y-90322757D01*
X187667609Y-90182409D01*
X187807957Y-89972365D01*
X187857240Y-89724600D01*
X187857240Y-88024600D01*
X187807957Y-87776835D01*
X187667609Y-87566791D01*
X187457565Y-87426443D01*
X187209800Y-87377160D01*
X185509800Y-87377160D01*
X185262035Y-87426443D01*
X185051991Y-87566791D01*
X184911643Y-87776835D01*
X184862360Y-88024600D01*
X184862360Y-89724600D01*
X184911643Y-89972365D01*
X185051991Y-90182409D01*
X185262035Y-90322757D01*
X185307419Y-90331784D01*
X185289175Y-90343975D01*
X184960961Y-90835182D01*
X184845708Y-91414600D01*
X184960961Y-91994018D01*
X185289175Y-92485225D01*
X185587561Y-92684600D01*
X185289175Y-92883975D01*
X184960961Y-93375182D01*
X184845708Y-93954600D01*
X184960961Y-94534018D01*
X185289175Y-95025225D01*
X185587561Y-95224600D01*
X185289175Y-95423975D01*
X185131735Y-95659600D01*
X177825791Y-95659600D01*
X177686831Y-95324120D01*
X177395680Y-95032969D01*
X177015274Y-94875400D01*
X176603526Y-94875400D01*
X176223120Y-95032969D01*
X175931969Y-95324120D01*
X175774400Y-95704526D01*
X168569541Y-95704526D01*
X172024469Y-92249600D01*
X182048089Y-92249600D01*
X182090520Y-92292031D01*
X182470926Y-92449600D01*
X182882674Y-92449600D01*
X183263080Y-92292031D01*
X183554231Y-92000880D01*
X183711800Y-91620474D01*
X183711800Y-91208726D01*
X183554231Y-90828320D01*
X183263080Y-90537169D01*
X182882674Y-90379600D01*
X182470926Y-90379600D01*
X182090520Y-90537169D01*
X182048089Y-90579600D01*
X171760832Y-90579600D01*
X171678599Y-90563243D01*
X171596366Y-90579600D01*
X171596363Y-90579600D01*
X171352799Y-90628048D01*
X171076599Y-90812599D01*
X171030017Y-90882314D01*
X168722599Y-93189733D01*
X168722599Y-83609321D01*
X169039080Y-83478231D01*
X169330231Y-83187080D01*
X169487800Y-82806674D01*
X169487800Y-82394926D01*
X169330231Y-82014520D01*
X169039080Y-81723369D01*
X168658674Y-81565800D01*
X168246926Y-81565800D01*
X167866520Y-81723369D01*
X167575369Y-82014520D01*
X167417800Y-82394926D01*
X167417800Y-82480333D01*
X167355317Y-82542816D01*
X167285599Y-82589400D01*
X167239015Y-82659118D01*
X167101047Y-82865601D01*
X167036242Y-83191401D01*
X167052600Y-83273639D01*
X167052599Y-93268507D01*
X166901320Y-93331169D01*
X166610169Y-93622320D01*
X166452600Y-94002726D01*
X166452600Y-94414474D01*
X166610169Y-94794880D01*
X166863811Y-95048522D01*
X166709933Y-95202400D01*
X163566268Y-95202400D01*
X163064800Y-94700933D01*
X163064800Y-91967111D01*
X163107231Y-91924680D01*
X163264800Y-91544274D01*
X163264800Y-91132526D01*
X163107231Y-90752120D01*
X162816080Y-90460969D01*
X162435674Y-90303400D01*
X162023926Y-90303400D01*
X161643520Y-90460969D01*
X161352369Y-90752120D01*
X161194800Y-91132526D01*
X150875801Y-91132526D01*
X150929803Y-91053856D01*
X150925006Y-91015074D01*
X150704929Y-90605725D01*
X150344954Y-90311756D01*
X149899883Y-90177920D01*
X149713000Y-90333452D01*
X149459000Y-90333452D01*
X149272117Y-90177920D01*
X148827046Y-90311756D01*
X148467071Y-90605725D01*
X148246994Y-91015074D01*
X148242197Y-91053856D01*
X144922114Y-91053856D01*
X144961132Y-90724200D01*
X145143090Y-90724200D01*
X145266776Y-90926600D01*
X146459000Y-90926600D01*
X146459000Y-89900029D01*
X146713000Y-89900029D01*
X146713000Y-90926600D01*
X147905224Y-90926600D01*
X148028910Y-90724200D01*
X148025856Y-90700571D01*
X147794476Y-90243404D01*
X147405759Y-89909582D01*
X146918883Y-89749927D01*
X146713000Y-89900029D01*
X146459000Y-89900029D01*
X146253117Y-89749927D01*
X145766241Y-89909582D01*
X145377524Y-90243404D01*
X145146144Y-90700571D01*
X145143090Y-90724200D01*
X144961132Y-90724200D01*
X145045342Y-90012718D01*
X145417044Y-88144048D01*
X145934214Y-86310303D01*
X146593663Y-84522787D01*
X147391327Y-82792521D01*
X148322286Y-81130172D01*
X149380803Y-79545991D01*
X150560349Y-78049743D01*
X151853654Y-76650654D01*
X153252743Y-75357349D01*
X154748991Y-74177803D01*
X156333172Y-73119286D01*
X157379433Y-72533352D01*
X166281804Y-72533352D01*
X166400888Y-73298175D01*
X166729846Y-73998832D01*
X167242233Y-74579000D01*
X167896858Y-74992037D01*
X168641096Y-75204742D01*
X169415120Y-75200013D01*
X170156704Y-74978233D01*
X170806234Y-74557228D01*
X171311495Y-73970844D01*
X171631868Y-73266220D01*
X171741600Y-72500000D01*
X171740785Y-72433300D01*
X171612366Y-71669990D01*
X171274873Y-70973403D01*
X170755436Y-70399539D01*
X170095814Y-69994530D01*
X169349032Y-69790934D01*
X168575124Y-69805118D01*
X167836305Y-70035942D01*
X167191966Y-70464851D01*
X166693907Y-71057363D01*
X166382166Y-71765849D01*
X166281804Y-72533352D01*
X157379433Y-72533352D01*
X157995521Y-72188327D01*
X159725787Y-71390663D01*
X161513303Y-70731214D01*
X163347048Y-70214044D01*
X165215718Y-69842342D01*
X167107790Y-69618401D01*
X169011600Y-69543600D01*
X170915410Y-69618401D01*
G04 #@! TD*
M02*
