G04 #@! TF.GenerationSoftware,KiCad,Pcbnew,5.0.2-bee76a0~70~ubuntu18.04.1*
G04 #@! TF.CreationDate,2019-08-23T13:18:12-04:00*
G04 #@! TF.ProjectId,badge,62616467-652e-46b6-9963-61645f706362,rev?*
G04 #@! TF.SameCoordinates,Original*
G04 #@! TF.FileFunction,Copper,L1,Top*
G04 #@! TF.FilePolarity,Positive*
%FSLAX46Y46*%
G04 Gerber Fmt 4.6, Leading zero omitted, Abs format (unit mm)*
G04 Created by KiCad (PCBNEW 5.0.2-bee76a0~70~ubuntu18.04.1) date Fri 23 Aug 2019 01:18:12 PM EDT*
%MOMM*%
%LPD*%
G01*
G04 APERTURE LIST*
G04 #@! TA.AperFunction,NonConductor*
%ADD10C,0.200000*%
G04 #@! TD*
G04 #@! TA.AperFunction,EtchedComponent*
%ADD11C,0.010000*%
G04 #@! TD*
G04 #@! TA.AperFunction,Conductor*
%ADD12C,0.100000*%
G04 #@! TD*
G04 #@! TA.AperFunction,SMDPad,CuDef*
%ADD13C,1.150000*%
G04 #@! TD*
G04 #@! TA.AperFunction,SMDPad,CuDef*
%ADD14C,0.975000*%
G04 #@! TD*
G04 #@! TA.AperFunction,SMDPad,CuDef*
%ADD15R,2.000000X1.350000*%
G04 #@! TD*
G04 #@! TA.AperFunction,SMDPad,CuDef*
%ADD16R,0.700000X1.825000*%
G04 #@! TD*
G04 #@! TA.AperFunction,SMDPad,CuDef*
%ADD17R,1.500000X2.000000*%
G04 #@! TD*
G04 #@! TA.AperFunction,SMDPad,CuDef*
%ADD18R,1.650000X0.400000*%
G04 #@! TD*
G04 #@! TA.AperFunction,ComponentPad*
%ADD19O,1.500000X1.100000*%
G04 #@! TD*
G04 #@! TA.AperFunction,ComponentPad*
%ADD20O,1.700000X1.350000*%
G04 #@! TD*
G04 #@! TA.AperFunction,SMDPad,CuDef*
%ADD21R,2.500000X1.430000*%
G04 #@! TD*
G04 #@! TA.AperFunction,ComponentPad*
%ADD22R,1.700000X1.700000*%
G04 #@! TD*
G04 #@! TA.AperFunction,ComponentPad*
%ADD23O,1.700000X1.700000*%
G04 #@! TD*
G04 #@! TA.AperFunction,SMDPad,CuDef*
%ADD24R,1.750000X0.450000*%
G04 #@! TD*
G04 #@! TA.AperFunction,ViaPad*
%ADD25C,0.800000*%
G04 #@! TD*
G04 #@! TA.AperFunction,Conductor*
%ADD26C,0.400000*%
G04 #@! TD*
G04 #@! TA.AperFunction,Conductor*
%ADD27C,0.500000*%
G04 #@! TD*
G04 #@! TA.AperFunction,Conductor*
%ADD28C,0.254000*%
G04 #@! TD*
G04 APERTURE END LIST*
D10*
X151627342Y-102227971D02*
X151770200Y-102275590D01*
X151817819Y-102323209D01*
X151865438Y-102418447D01*
X151865438Y-102561304D01*
X151817819Y-102656542D01*
X151770200Y-102704161D01*
X151674961Y-102751780D01*
X151294009Y-102751780D01*
X151294009Y-101751780D01*
X151627342Y-101751780D01*
X151722580Y-101799400D01*
X151770200Y-101847019D01*
X151817819Y-101942257D01*
X151817819Y-102037495D01*
X151770200Y-102132733D01*
X151722580Y-102180352D01*
X151627342Y-102227971D01*
X151294009Y-102227971D01*
X152294009Y-102751780D02*
X152294009Y-102085114D01*
X152294009Y-102275590D02*
X152341628Y-102180352D01*
X152389247Y-102132733D01*
X152484485Y-102085114D01*
X152579723Y-102085114D01*
X152913057Y-102751780D02*
X152913057Y-102085114D01*
X152913057Y-101751780D02*
X152865438Y-101799400D01*
X152913057Y-101847019D01*
X152960676Y-101799400D01*
X152913057Y-101751780D01*
X152913057Y-101847019D01*
X153817819Y-102751780D02*
X153817819Y-102227971D01*
X153770200Y-102132733D01*
X153674961Y-102085114D01*
X153484485Y-102085114D01*
X153389247Y-102132733D01*
X153817819Y-102704161D02*
X153722580Y-102751780D01*
X153484485Y-102751780D01*
X153389247Y-102704161D01*
X153341628Y-102608923D01*
X153341628Y-102513685D01*
X153389247Y-102418447D01*
X153484485Y-102370828D01*
X153722580Y-102370828D01*
X153817819Y-102323209D01*
X154294009Y-102085114D02*
X154294009Y-102751780D01*
X154294009Y-102180352D02*
X154341628Y-102132733D01*
X154436866Y-102085114D01*
X154579723Y-102085114D01*
X154674961Y-102132733D01*
X154722580Y-102227971D01*
X154722580Y-102751780D01*
X155960676Y-102751780D02*
X155960676Y-101751780D01*
X155960676Y-102227971D02*
X156532104Y-102227971D01*
X156532104Y-102751780D02*
X156532104Y-101751780D01*
X157151152Y-102751780D02*
X157055914Y-102704161D01*
X157008295Y-102656542D01*
X156960676Y-102561304D01*
X156960676Y-102275590D01*
X157008295Y-102180352D01*
X157055914Y-102132733D01*
X157151152Y-102085114D01*
X157294009Y-102085114D01*
X157389247Y-102132733D01*
X157436866Y-102180352D01*
X157484485Y-102275590D01*
X157484485Y-102561304D01*
X157436866Y-102656542D01*
X157389247Y-102704161D01*
X157294009Y-102751780D01*
X157151152Y-102751780D01*
X157913057Y-102085114D02*
X157913057Y-102751780D01*
X157913057Y-102180352D02*
X157960676Y-102132733D01*
X158055914Y-102085114D01*
X158198771Y-102085114D01*
X158294009Y-102132733D01*
X158341628Y-102227971D01*
X158341628Y-102751780D01*
X159246390Y-102085114D02*
X159246390Y-102894638D01*
X159198771Y-102989876D01*
X159151152Y-103037495D01*
X159055914Y-103085114D01*
X158913057Y-103085114D01*
X158817819Y-103037495D01*
X159246390Y-102704161D02*
X159151152Y-102751780D01*
X158960676Y-102751780D01*
X158865438Y-102704161D01*
X158817819Y-102656542D01*
X158770200Y-102561304D01*
X158770200Y-102275590D01*
X158817819Y-102180352D01*
X158865438Y-102132733D01*
X158960676Y-102085114D01*
X159151152Y-102085114D01*
X159246390Y-102132733D01*
X151008295Y-103975590D02*
X150960676Y-103927971D01*
X150865438Y-103880352D01*
X150770200Y-103880352D01*
X150674961Y-103927971D01*
X150627342Y-103975590D01*
X150579723Y-104070828D01*
X150579723Y-104166066D01*
X150627342Y-104261304D01*
X150674961Y-104308923D01*
X150770200Y-104356542D01*
X150865438Y-104356542D01*
X150960676Y-104308923D01*
X151008295Y-104261304D01*
X151008295Y-103880352D02*
X151008295Y-104261304D01*
X151055914Y-104308923D01*
X151103533Y-104308923D01*
X151198771Y-104261304D01*
X151246390Y-104166066D01*
X151246390Y-103927971D01*
X151151152Y-103785114D01*
X151008295Y-103689876D01*
X150817819Y-103642257D01*
X150627342Y-103689876D01*
X150484485Y-103785114D01*
X150389247Y-103927971D01*
X150341628Y-104118447D01*
X150389247Y-104308923D01*
X150484485Y-104451780D01*
X150627342Y-104547019D01*
X150817819Y-104594638D01*
X151008295Y-104547019D01*
X151151152Y-104451780D01*
X151674961Y-104451780D02*
X151674961Y-103785114D01*
X151674961Y-103451780D02*
X151627342Y-103499400D01*
X151674961Y-103547019D01*
X151722580Y-103499400D01*
X151674961Y-103451780D01*
X151674961Y-103547019D01*
X152151152Y-104451780D02*
X152151152Y-103785114D01*
X152151152Y-103880352D02*
X152198771Y-103832733D01*
X152294009Y-103785114D01*
X152436866Y-103785114D01*
X152532104Y-103832733D01*
X152579723Y-103927971D01*
X152579723Y-104451780D01*
X152579723Y-103927971D02*
X152627342Y-103832733D01*
X152722580Y-103785114D01*
X152865438Y-103785114D01*
X152960676Y-103832733D01*
X153008295Y-103927971D01*
X153008295Y-104451780D01*
X153246390Y-104547019D02*
X154008295Y-104547019D01*
X154627342Y-104404161D02*
X154532104Y-104451780D01*
X154341628Y-104451780D01*
X154246390Y-104404161D01*
X154198771Y-104308923D01*
X154198771Y-103927971D01*
X154246390Y-103832733D01*
X154341628Y-103785114D01*
X154532104Y-103785114D01*
X154627342Y-103832733D01*
X154674961Y-103927971D01*
X154674961Y-104023209D01*
X154198771Y-104118447D01*
X155103533Y-103785114D02*
X155103533Y-104451780D01*
X155103533Y-103880352D02*
X155151152Y-103832733D01*
X155246390Y-103785114D01*
X155389247Y-103785114D01*
X155484485Y-103832733D01*
X155532104Y-103927971D01*
X155532104Y-104451780D01*
X156008295Y-104451780D02*
X156008295Y-103785114D01*
X156008295Y-103451780D02*
X155960676Y-103499400D01*
X156008295Y-103547019D01*
X156055914Y-103499400D01*
X156008295Y-103451780D01*
X156008295Y-103547019D01*
X156484485Y-103785114D02*
X156484485Y-104451780D01*
X156484485Y-103880352D02*
X156532104Y-103832733D01*
X156627342Y-103785114D01*
X156770200Y-103785114D01*
X156865438Y-103832733D01*
X156913057Y-103927971D01*
X156913057Y-104451780D01*
X157817819Y-103785114D02*
X157817819Y-104594638D01*
X157770200Y-104689876D01*
X157722580Y-104737495D01*
X157627342Y-104785114D01*
X157484485Y-104785114D01*
X157389247Y-104737495D01*
X157817819Y-104404161D02*
X157722580Y-104451780D01*
X157532104Y-104451780D01*
X157436866Y-104404161D01*
X157389247Y-104356542D01*
X157341628Y-104261304D01*
X157341628Y-103975590D01*
X157389247Y-103880352D01*
X157436866Y-103832733D01*
X157532104Y-103785114D01*
X157722580Y-103785114D01*
X157817819Y-103832733D01*
X158674961Y-104404161D02*
X158579723Y-104451780D01*
X158389247Y-104451780D01*
X158294009Y-104404161D01*
X158246390Y-104308923D01*
X158246390Y-103927971D01*
X158294009Y-103832733D01*
X158389247Y-103785114D01*
X158579723Y-103785114D01*
X158674961Y-103832733D01*
X158722580Y-103927971D01*
X158722580Y-104023209D01*
X158246390Y-104118447D01*
X159532104Y-104404161D02*
X159436866Y-104451780D01*
X159246390Y-104451780D01*
X159151152Y-104404161D01*
X159103533Y-104308923D01*
X159103533Y-103927971D01*
X159151152Y-103832733D01*
X159246390Y-103785114D01*
X159436866Y-103785114D01*
X159532104Y-103832733D01*
X159579723Y-103927971D01*
X159579723Y-104023209D01*
X159103533Y-104118447D01*
X160008295Y-104451780D02*
X160008295Y-103785114D01*
X160008295Y-103975590D02*
X160055914Y-103880352D01*
X160103533Y-103832733D01*
X160198771Y-103785114D01*
X160294009Y-103785114D01*
D11*
G04 #@! TO.C,REF\002A\002A*
G36*
X180386764Y-105087618D02*
X180443612Y-105389170D01*
X180863138Y-105562112D01*
X181114784Y-105390995D01*
X181185258Y-105343350D01*
X181248963Y-105300810D01*
X181302926Y-105265315D01*
X181344173Y-105238810D01*
X181369734Y-105223236D01*
X181376695Y-105219878D01*
X181389235Y-105228514D01*
X181416031Y-105252392D01*
X181454080Y-105288459D01*
X181500379Y-105333667D01*
X181551923Y-105384964D01*
X181605709Y-105439301D01*
X181658735Y-105493628D01*
X181707995Y-105544895D01*
X181750487Y-105590051D01*
X181783207Y-105626046D01*
X181803151Y-105649830D01*
X181807919Y-105657790D01*
X181801057Y-105672465D01*
X181781820Y-105704614D01*
X181752230Y-105751092D01*
X181714310Y-105808756D01*
X181670082Y-105874460D01*
X181644454Y-105911936D01*
X181597741Y-105980368D01*
X181556232Y-106042120D01*
X181521940Y-106094119D01*
X181496880Y-106133292D01*
X181483064Y-106156565D01*
X181480988Y-106161455D01*
X181485695Y-106175355D01*
X181498523Y-106207750D01*
X181517538Y-106254085D01*
X181540803Y-106309806D01*
X181566384Y-106370358D01*
X181592345Y-106431186D01*
X181616750Y-106487736D01*
X181637663Y-106535452D01*
X181653149Y-106569781D01*
X181661272Y-106586168D01*
X181661752Y-106586812D01*
X181674507Y-106589941D01*
X181708477Y-106596921D01*
X181760140Y-106607067D01*
X181825976Y-106619692D01*
X181902464Y-106634109D01*
X181947090Y-106642423D01*
X182028821Y-106657984D01*
X182102643Y-106672792D01*
X182164821Y-106686036D01*
X182211622Y-106696905D01*
X182239309Y-106704589D01*
X182244874Y-106707027D01*
X182250326Y-106723530D01*
X182254724Y-106760800D01*
X182258072Y-106814480D01*
X182260374Y-106880212D01*
X182261632Y-106953637D01*
X182261848Y-107030396D01*
X182261027Y-107106132D01*
X182259171Y-107176486D01*
X182256282Y-107237100D01*
X182252365Y-107283616D01*
X182247422Y-107311675D01*
X182244457Y-107317516D01*
X182226734Y-107324517D01*
X182189181Y-107334527D01*
X182136764Y-107346369D01*
X182074452Y-107358867D01*
X182052700Y-107362910D01*
X181947824Y-107382120D01*
X181864980Y-107397591D01*
X181801430Y-107409937D01*
X181754437Y-107419773D01*
X181721263Y-107427714D01*
X181699171Y-107434376D01*
X181685424Y-107440373D01*
X181677284Y-107446319D01*
X181676145Y-107447494D01*
X181664777Y-107466426D01*
X181647435Y-107503269D01*
X181625850Y-107553513D01*
X181601754Y-107612646D01*
X181576879Y-107676156D01*
X181552957Y-107739532D01*
X181531719Y-107798262D01*
X181514897Y-107847835D01*
X181504222Y-107883739D01*
X181501427Y-107901462D01*
X181501660Y-107902083D01*
X181511131Y-107916570D01*
X181532618Y-107948444D01*
X181563863Y-107994389D01*
X181602607Y-108051085D01*
X181646593Y-108115217D01*
X181659119Y-108133442D01*
X181703784Y-108199514D01*
X181743088Y-108259800D01*
X181774888Y-108310835D01*
X181797045Y-108349160D01*
X181807417Y-108371311D01*
X181807919Y-108374032D01*
X181799205Y-108388336D01*
X181775125Y-108416672D01*
X181738776Y-108455996D01*
X181693253Y-108503261D01*
X181641652Y-108555423D01*
X181587067Y-108609435D01*
X181532594Y-108662253D01*
X181481329Y-108710831D01*
X181436367Y-108752123D01*
X181400804Y-108783085D01*
X181377735Y-108800670D01*
X181371354Y-108803541D01*
X181356499Y-108796778D01*
X181326086Y-108778539D01*
X181285068Y-108751897D01*
X181253509Y-108730452D01*
X181196325Y-108691103D01*
X181128606Y-108644771D01*
X181060680Y-108598513D01*
X181024161Y-108573755D01*
X180900552Y-108490147D01*
X180796791Y-108546250D01*
X180749520Y-108570828D01*
X180709323Y-108589931D01*
X180682126Y-108600827D01*
X180675202Y-108602343D01*
X180666877Y-108591149D01*
X180650454Y-108559517D01*
X180627157Y-108510365D01*
X180598214Y-108446610D01*
X180564850Y-108371171D01*
X180528291Y-108286964D01*
X180489764Y-108196908D01*
X180450494Y-108103921D01*
X180411708Y-108010920D01*
X180374630Y-107920823D01*
X180340489Y-107836548D01*
X180310508Y-107761013D01*
X180285916Y-107697134D01*
X180267936Y-107647831D01*
X180257797Y-107616021D01*
X180256166Y-107605096D01*
X180269091Y-107591161D01*
X180297389Y-107568540D01*
X180335146Y-107541933D01*
X180338315Y-107539828D01*
X180435900Y-107461714D01*
X180514586Y-107370582D01*
X180573691Y-107269345D01*
X180612532Y-107160918D01*
X180630428Y-107048214D01*
X180626697Y-106934148D01*
X180600657Y-106821634D01*
X180551625Y-106713585D01*
X180537200Y-106689945D01*
X180462169Y-106594487D01*
X180373530Y-106517832D01*
X180274349Y-106460380D01*
X180167695Y-106422529D01*
X180056636Y-106404678D01*
X179944239Y-106407225D01*
X179833573Y-106430570D01*
X179727706Y-106475110D01*
X179629705Y-106541245D01*
X179599390Y-106568087D01*
X179522238Y-106652112D01*
X179466018Y-106740566D01*
X179427453Y-106839715D01*
X179405974Y-106937903D01*
X179400672Y-107048297D01*
X179418352Y-107159240D01*
X179457219Y-107266981D01*
X179515477Y-107367769D01*
X179591331Y-107457856D01*
X179682983Y-107533492D01*
X179695028Y-107541464D01*
X179733189Y-107567574D01*
X179762199Y-107590195D01*
X179776068Y-107604639D01*
X179776269Y-107605096D01*
X179773292Y-107620721D01*
X179761489Y-107656182D01*
X179742086Y-107708562D01*
X179716312Y-107774945D01*
X179685391Y-107852414D01*
X179650551Y-107938050D01*
X179613017Y-108028937D01*
X179574017Y-108122159D01*
X179534777Y-108214797D01*
X179496524Y-108303935D01*
X179460483Y-108386655D01*
X179427883Y-108460041D01*
X179399948Y-108521175D01*
X179377905Y-108567141D01*
X179362982Y-108595021D01*
X179356972Y-108602343D01*
X179338609Y-108596641D01*
X179304248Y-108581349D01*
X179259816Y-108559199D01*
X179235383Y-108546250D01*
X179131622Y-108490147D01*
X179008013Y-108573755D01*
X178944914Y-108616587D01*
X178875830Y-108663722D01*
X178811093Y-108708103D01*
X178778666Y-108730452D01*
X178733059Y-108761077D01*
X178694440Y-108785347D01*
X178667848Y-108800187D01*
X178659210Y-108803324D01*
X178646639Y-108794861D01*
X178618816Y-108771236D01*
X178578439Y-108734902D01*
X178528205Y-108688311D01*
X178470812Y-108633917D01*
X178434514Y-108598992D01*
X178371010Y-108536596D01*
X178316127Y-108480788D01*
X178272086Y-108433954D01*
X178241105Y-108398482D01*
X178225402Y-108376761D01*
X178223895Y-108372352D01*
X178230886Y-108355585D01*
X178250206Y-108321682D01*
X178279709Y-108274076D01*
X178317255Y-108216199D01*
X178360700Y-108151484D01*
X178373055Y-108133442D01*
X178418073Y-108067867D01*
X178458460Y-108008828D01*
X178491960Y-107959642D01*
X178516314Y-107923628D01*
X178529264Y-107904102D01*
X178530515Y-107902083D01*
X178528644Y-107886522D01*
X178518713Y-107852309D01*
X178502453Y-107803955D01*
X178481595Y-107745971D01*
X178457873Y-107682870D01*
X178433016Y-107619163D01*
X178408758Y-107559361D01*
X178386829Y-107507976D01*
X178368962Y-107469519D01*
X178356887Y-107448502D01*
X178356029Y-107447494D01*
X178348646Y-107441488D01*
X178336175Y-107435548D01*
X178315880Y-107429060D01*
X178285022Y-107421409D01*
X178240866Y-107411980D01*
X178180674Y-107400159D01*
X178101707Y-107385329D01*
X178001230Y-107366877D01*
X177979475Y-107362910D01*
X177914998Y-107350453D01*
X177858789Y-107338266D01*
X177815813Y-107327526D01*
X177791040Y-107319409D01*
X177787718Y-107317516D01*
X177782244Y-107300738D01*
X177777794Y-107263245D01*
X177774372Y-107209394D01*
X177771981Y-107143544D01*
X177770623Y-107070053D01*
X177770301Y-106993280D01*
X177771019Y-106917583D01*
X177772779Y-106847320D01*
X177775584Y-106786850D01*
X177779438Y-106740530D01*
X177784343Y-106712719D01*
X177787300Y-106707027D01*
X177803763Y-106701286D01*
X177841249Y-106691945D01*
X177896025Y-106679815D01*
X177964355Y-106665707D01*
X178042506Y-106650430D01*
X178085084Y-106642423D01*
X178165871Y-106627321D01*
X178237913Y-106613640D01*
X178297689Y-106602067D01*
X178341679Y-106593287D01*
X178366361Y-106587987D01*
X178370423Y-106586812D01*
X178377289Y-106573565D01*
X178391802Y-106541657D01*
X178412029Y-106495647D01*
X178436034Y-106440092D01*
X178461882Y-106379553D01*
X178487640Y-106318586D01*
X178511373Y-106261751D01*
X178531146Y-106213606D01*
X178545024Y-106178710D01*
X178551074Y-106161621D01*
X178551186Y-106160874D01*
X178544328Y-106147393D01*
X178525102Y-106116370D01*
X178495528Y-106070889D01*
X178457627Y-106014032D01*
X178413420Y-105948883D01*
X178387721Y-105911462D01*
X178340893Y-105842847D01*
X178299301Y-105780552D01*
X178264975Y-105727729D01*
X178239943Y-105687527D01*
X178226235Y-105663100D01*
X178224256Y-105657624D01*
X178232766Y-105644878D01*
X178256293Y-105617663D01*
X178291832Y-105579028D01*
X178336377Y-105532023D01*
X178386923Y-105479695D01*
X178440464Y-105425095D01*
X178493995Y-105371270D01*
X178544511Y-105321270D01*
X178589006Y-105278143D01*
X178624475Y-105244939D01*
X178647913Y-105224706D01*
X178655754Y-105219878D01*
X178668520Y-105226667D01*
X178699056Y-105245742D01*
X178744390Y-105275161D01*
X178801556Y-105312981D01*
X178867584Y-105357261D01*
X178917390Y-105390995D01*
X179169036Y-105562112D01*
X179378799Y-105475641D01*
X179588563Y-105389170D01*
X179645411Y-105087618D01*
X179702260Y-104786066D01*
X180329915Y-104786066D01*
X180386764Y-105087618D01*
X180386764Y-105087618D01*
G37*
X180386764Y-105087618D02*
X180443612Y-105389170D01*
X180863138Y-105562112D01*
X181114784Y-105390995D01*
X181185258Y-105343350D01*
X181248963Y-105300810D01*
X181302926Y-105265315D01*
X181344173Y-105238810D01*
X181369734Y-105223236D01*
X181376695Y-105219878D01*
X181389235Y-105228514D01*
X181416031Y-105252392D01*
X181454080Y-105288459D01*
X181500379Y-105333667D01*
X181551923Y-105384964D01*
X181605709Y-105439301D01*
X181658735Y-105493628D01*
X181707995Y-105544895D01*
X181750487Y-105590051D01*
X181783207Y-105626046D01*
X181803151Y-105649830D01*
X181807919Y-105657790D01*
X181801057Y-105672465D01*
X181781820Y-105704614D01*
X181752230Y-105751092D01*
X181714310Y-105808756D01*
X181670082Y-105874460D01*
X181644454Y-105911936D01*
X181597741Y-105980368D01*
X181556232Y-106042120D01*
X181521940Y-106094119D01*
X181496880Y-106133292D01*
X181483064Y-106156565D01*
X181480988Y-106161455D01*
X181485695Y-106175355D01*
X181498523Y-106207750D01*
X181517538Y-106254085D01*
X181540803Y-106309806D01*
X181566384Y-106370358D01*
X181592345Y-106431186D01*
X181616750Y-106487736D01*
X181637663Y-106535452D01*
X181653149Y-106569781D01*
X181661272Y-106586168D01*
X181661752Y-106586812D01*
X181674507Y-106589941D01*
X181708477Y-106596921D01*
X181760140Y-106607067D01*
X181825976Y-106619692D01*
X181902464Y-106634109D01*
X181947090Y-106642423D01*
X182028821Y-106657984D01*
X182102643Y-106672792D01*
X182164821Y-106686036D01*
X182211622Y-106696905D01*
X182239309Y-106704589D01*
X182244874Y-106707027D01*
X182250326Y-106723530D01*
X182254724Y-106760800D01*
X182258072Y-106814480D01*
X182260374Y-106880212D01*
X182261632Y-106953637D01*
X182261848Y-107030396D01*
X182261027Y-107106132D01*
X182259171Y-107176486D01*
X182256282Y-107237100D01*
X182252365Y-107283616D01*
X182247422Y-107311675D01*
X182244457Y-107317516D01*
X182226734Y-107324517D01*
X182189181Y-107334527D01*
X182136764Y-107346369D01*
X182074452Y-107358867D01*
X182052700Y-107362910D01*
X181947824Y-107382120D01*
X181864980Y-107397591D01*
X181801430Y-107409937D01*
X181754437Y-107419773D01*
X181721263Y-107427714D01*
X181699171Y-107434376D01*
X181685424Y-107440373D01*
X181677284Y-107446319D01*
X181676145Y-107447494D01*
X181664777Y-107466426D01*
X181647435Y-107503269D01*
X181625850Y-107553513D01*
X181601754Y-107612646D01*
X181576879Y-107676156D01*
X181552957Y-107739532D01*
X181531719Y-107798262D01*
X181514897Y-107847835D01*
X181504222Y-107883739D01*
X181501427Y-107901462D01*
X181501660Y-107902083D01*
X181511131Y-107916570D01*
X181532618Y-107948444D01*
X181563863Y-107994389D01*
X181602607Y-108051085D01*
X181646593Y-108115217D01*
X181659119Y-108133442D01*
X181703784Y-108199514D01*
X181743088Y-108259800D01*
X181774888Y-108310835D01*
X181797045Y-108349160D01*
X181807417Y-108371311D01*
X181807919Y-108374032D01*
X181799205Y-108388336D01*
X181775125Y-108416672D01*
X181738776Y-108455996D01*
X181693253Y-108503261D01*
X181641652Y-108555423D01*
X181587067Y-108609435D01*
X181532594Y-108662253D01*
X181481329Y-108710831D01*
X181436367Y-108752123D01*
X181400804Y-108783085D01*
X181377735Y-108800670D01*
X181371354Y-108803541D01*
X181356499Y-108796778D01*
X181326086Y-108778539D01*
X181285068Y-108751897D01*
X181253509Y-108730452D01*
X181196325Y-108691103D01*
X181128606Y-108644771D01*
X181060680Y-108598513D01*
X181024161Y-108573755D01*
X180900552Y-108490147D01*
X180796791Y-108546250D01*
X180749520Y-108570828D01*
X180709323Y-108589931D01*
X180682126Y-108600827D01*
X180675202Y-108602343D01*
X180666877Y-108591149D01*
X180650454Y-108559517D01*
X180627157Y-108510365D01*
X180598214Y-108446610D01*
X180564850Y-108371171D01*
X180528291Y-108286964D01*
X180489764Y-108196908D01*
X180450494Y-108103921D01*
X180411708Y-108010920D01*
X180374630Y-107920823D01*
X180340489Y-107836548D01*
X180310508Y-107761013D01*
X180285916Y-107697134D01*
X180267936Y-107647831D01*
X180257797Y-107616021D01*
X180256166Y-107605096D01*
X180269091Y-107591161D01*
X180297389Y-107568540D01*
X180335146Y-107541933D01*
X180338315Y-107539828D01*
X180435900Y-107461714D01*
X180514586Y-107370582D01*
X180573691Y-107269345D01*
X180612532Y-107160918D01*
X180630428Y-107048214D01*
X180626697Y-106934148D01*
X180600657Y-106821634D01*
X180551625Y-106713585D01*
X180537200Y-106689945D01*
X180462169Y-106594487D01*
X180373530Y-106517832D01*
X180274349Y-106460380D01*
X180167695Y-106422529D01*
X180056636Y-106404678D01*
X179944239Y-106407225D01*
X179833573Y-106430570D01*
X179727706Y-106475110D01*
X179629705Y-106541245D01*
X179599390Y-106568087D01*
X179522238Y-106652112D01*
X179466018Y-106740566D01*
X179427453Y-106839715D01*
X179405974Y-106937903D01*
X179400672Y-107048297D01*
X179418352Y-107159240D01*
X179457219Y-107266981D01*
X179515477Y-107367769D01*
X179591331Y-107457856D01*
X179682983Y-107533492D01*
X179695028Y-107541464D01*
X179733189Y-107567574D01*
X179762199Y-107590195D01*
X179776068Y-107604639D01*
X179776269Y-107605096D01*
X179773292Y-107620721D01*
X179761489Y-107656182D01*
X179742086Y-107708562D01*
X179716312Y-107774945D01*
X179685391Y-107852414D01*
X179650551Y-107938050D01*
X179613017Y-108028937D01*
X179574017Y-108122159D01*
X179534777Y-108214797D01*
X179496524Y-108303935D01*
X179460483Y-108386655D01*
X179427883Y-108460041D01*
X179399948Y-108521175D01*
X179377905Y-108567141D01*
X179362982Y-108595021D01*
X179356972Y-108602343D01*
X179338609Y-108596641D01*
X179304248Y-108581349D01*
X179259816Y-108559199D01*
X179235383Y-108546250D01*
X179131622Y-108490147D01*
X179008013Y-108573755D01*
X178944914Y-108616587D01*
X178875830Y-108663722D01*
X178811093Y-108708103D01*
X178778666Y-108730452D01*
X178733059Y-108761077D01*
X178694440Y-108785347D01*
X178667848Y-108800187D01*
X178659210Y-108803324D01*
X178646639Y-108794861D01*
X178618816Y-108771236D01*
X178578439Y-108734902D01*
X178528205Y-108688311D01*
X178470812Y-108633917D01*
X178434514Y-108598992D01*
X178371010Y-108536596D01*
X178316127Y-108480788D01*
X178272086Y-108433954D01*
X178241105Y-108398482D01*
X178225402Y-108376761D01*
X178223895Y-108372352D01*
X178230886Y-108355585D01*
X178250206Y-108321682D01*
X178279709Y-108274076D01*
X178317255Y-108216199D01*
X178360700Y-108151484D01*
X178373055Y-108133442D01*
X178418073Y-108067867D01*
X178458460Y-108008828D01*
X178491960Y-107959642D01*
X178516314Y-107923628D01*
X178529264Y-107904102D01*
X178530515Y-107902083D01*
X178528644Y-107886522D01*
X178518713Y-107852309D01*
X178502453Y-107803955D01*
X178481595Y-107745971D01*
X178457873Y-107682870D01*
X178433016Y-107619163D01*
X178408758Y-107559361D01*
X178386829Y-107507976D01*
X178368962Y-107469519D01*
X178356887Y-107448502D01*
X178356029Y-107447494D01*
X178348646Y-107441488D01*
X178336175Y-107435548D01*
X178315880Y-107429060D01*
X178285022Y-107421409D01*
X178240866Y-107411980D01*
X178180674Y-107400159D01*
X178101707Y-107385329D01*
X178001230Y-107366877D01*
X177979475Y-107362910D01*
X177914998Y-107350453D01*
X177858789Y-107338266D01*
X177815813Y-107327526D01*
X177791040Y-107319409D01*
X177787718Y-107317516D01*
X177782244Y-107300738D01*
X177777794Y-107263245D01*
X177774372Y-107209394D01*
X177771981Y-107143544D01*
X177770623Y-107070053D01*
X177770301Y-106993280D01*
X177771019Y-106917583D01*
X177772779Y-106847320D01*
X177775584Y-106786850D01*
X177779438Y-106740530D01*
X177784343Y-106712719D01*
X177787300Y-106707027D01*
X177803763Y-106701286D01*
X177841249Y-106691945D01*
X177896025Y-106679815D01*
X177964355Y-106665707D01*
X178042506Y-106650430D01*
X178085084Y-106642423D01*
X178165871Y-106627321D01*
X178237913Y-106613640D01*
X178297689Y-106602067D01*
X178341679Y-106593287D01*
X178366361Y-106587987D01*
X178370423Y-106586812D01*
X178377289Y-106573565D01*
X178391802Y-106541657D01*
X178412029Y-106495647D01*
X178436034Y-106440092D01*
X178461882Y-106379553D01*
X178487640Y-106318586D01*
X178511373Y-106261751D01*
X178531146Y-106213606D01*
X178545024Y-106178710D01*
X178551074Y-106161621D01*
X178551186Y-106160874D01*
X178544328Y-106147393D01*
X178525102Y-106116370D01*
X178495528Y-106070889D01*
X178457627Y-106014032D01*
X178413420Y-105948883D01*
X178387721Y-105911462D01*
X178340893Y-105842847D01*
X178299301Y-105780552D01*
X178264975Y-105727729D01*
X178239943Y-105687527D01*
X178226235Y-105663100D01*
X178224256Y-105657624D01*
X178232766Y-105644878D01*
X178256293Y-105617663D01*
X178291832Y-105579028D01*
X178336377Y-105532023D01*
X178386923Y-105479695D01*
X178440464Y-105425095D01*
X178493995Y-105371270D01*
X178544511Y-105321270D01*
X178589006Y-105278143D01*
X178624475Y-105244939D01*
X178647913Y-105224706D01*
X178655754Y-105219878D01*
X178668520Y-105226667D01*
X178699056Y-105245742D01*
X178744390Y-105275161D01*
X178801556Y-105312981D01*
X178867584Y-105357261D01*
X178917390Y-105390995D01*
X179169036Y-105562112D01*
X179378799Y-105475641D01*
X179588563Y-105389170D01*
X179645411Y-105087618D01*
X179702260Y-104786066D01*
X180329915Y-104786066D01*
X180386764Y-105087618D01*
G36*
X181809260Y-109255630D02*
X181852511Y-109268845D01*
X181880358Y-109285541D01*
X181889429Y-109298745D01*
X181886932Y-109314397D01*
X181870731Y-109338985D01*
X181857032Y-109356400D01*
X181828792Y-109387883D01*
X181807575Y-109401129D01*
X181789488Y-109400264D01*
X181735835Y-109386610D01*
X181696430Y-109387230D01*
X181664432Y-109402704D01*
X181653690Y-109411761D01*
X181619305Y-109443627D01*
X181619305Y-109859779D01*
X181480988Y-109859779D01*
X181480988Y-109256214D01*
X181550147Y-109256214D01*
X181591669Y-109257856D01*
X181613091Y-109263687D01*
X181619302Y-109275061D01*
X181619305Y-109275398D01*
X181622239Y-109287313D01*
X181635504Y-109285759D01*
X181653884Y-109277163D01*
X181691846Y-109261168D01*
X181722672Y-109251545D01*
X181762336Y-109249078D01*
X181809260Y-109255630D01*
X181809260Y-109255630D01*
G37*
X181809260Y-109255630D02*
X181852511Y-109268845D01*
X181880358Y-109285541D01*
X181889429Y-109298745D01*
X181886932Y-109314397D01*
X181870731Y-109338985D01*
X181857032Y-109356400D01*
X181828792Y-109387883D01*
X181807575Y-109401129D01*
X181789488Y-109400264D01*
X181735835Y-109386610D01*
X181696430Y-109387230D01*
X181664432Y-109402704D01*
X181653690Y-109411761D01*
X181619305Y-109443627D01*
X181619305Y-109859779D01*
X181480988Y-109859779D01*
X181480988Y-109256214D01*
X181550147Y-109256214D01*
X181591669Y-109257856D01*
X181613091Y-109263687D01*
X181619302Y-109275061D01*
X181619305Y-109275398D01*
X181622239Y-109287313D01*
X181635504Y-109285759D01*
X181653884Y-109277163D01*
X181691846Y-109261168D01*
X181722672Y-109251545D01*
X181762336Y-109249078D01*
X181809260Y-109255630D01*
G36*
X179255788Y-109266602D02*
X179287083Y-109281550D01*
X179317391Y-109303141D01*
X179340482Y-109327991D01*
X179357300Y-109359687D01*
X179368794Y-109401814D01*
X179375909Y-109457958D01*
X179379593Y-109531706D01*
X179380792Y-109626644D01*
X179380811Y-109636585D01*
X179381087Y-109859779D01*
X179242770Y-109859779D01*
X179242770Y-109654018D01*
X179242672Y-109577789D01*
X179241991Y-109522539D01*
X179240149Y-109484101D01*
X179236567Y-109458306D01*
X179230668Y-109440984D01*
X179221873Y-109427968D01*
X179209620Y-109415107D01*
X179166753Y-109387473D01*
X179119957Y-109382345D01*
X179075376Y-109399817D01*
X179059872Y-109412821D01*
X179048490Y-109425047D01*
X179040319Y-109438140D01*
X179034826Y-109456215D01*
X179031480Y-109483387D01*
X179029749Y-109523770D01*
X179029103Y-109581479D01*
X179029008Y-109651732D01*
X179029008Y-109859779D01*
X178890691Y-109859779D01*
X178890691Y-109256214D01*
X178959850Y-109256214D01*
X179001372Y-109257856D01*
X179022794Y-109263687D01*
X179029005Y-109275061D01*
X179029008Y-109275398D01*
X179031890Y-109286538D01*
X179044601Y-109285274D01*
X179069874Y-109273034D01*
X179127195Y-109255024D01*
X179192763Y-109253021D01*
X179255788Y-109266602D01*
X179255788Y-109266602D01*
G37*
X179255788Y-109266602D02*
X179287083Y-109281550D01*
X179317391Y-109303141D01*
X179340482Y-109327991D01*
X179357300Y-109359687D01*
X179368794Y-109401814D01*
X179375909Y-109457958D01*
X179379593Y-109531706D01*
X179380792Y-109626644D01*
X179380811Y-109636585D01*
X179381087Y-109859779D01*
X179242770Y-109859779D01*
X179242770Y-109654018D01*
X179242672Y-109577789D01*
X179241991Y-109522539D01*
X179240149Y-109484101D01*
X179236567Y-109458306D01*
X179230668Y-109440984D01*
X179221873Y-109427968D01*
X179209620Y-109415107D01*
X179166753Y-109387473D01*
X179119957Y-109382345D01*
X179075376Y-109399817D01*
X179059872Y-109412821D01*
X179048490Y-109425047D01*
X179040319Y-109438140D01*
X179034826Y-109456215D01*
X179031480Y-109483387D01*
X179029749Y-109523770D01*
X179029103Y-109581479D01*
X179029008Y-109651732D01*
X179029008Y-109859779D01*
X178890691Y-109859779D01*
X178890691Y-109256214D01*
X178959850Y-109256214D01*
X179001372Y-109257856D01*
X179022794Y-109263687D01*
X179029005Y-109275061D01*
X179029008Y-109275398D01*
X179031890Y-109286538D01*
X179044601Y-109285274D01*
X179069874Y-109273034D01*
X179127195Y-109255024D01*
X179192763Y-109253021D01*
X179255788Y-109266602D01*
G36*
X182687698Y-109254057D02*
X182719896Y-109261879D01*
X182781625Y-109290521D01*
X182834410Y-109334267D01*
X182870941Y-109386717D01*
X182875960Y-109398493D01*
X182882845Y-109429340D01*
X182887664Y-109474971D01*
X182889305Y-109521092D01*
X182889305Y-109608293D01*
X182706978Y-109608293D01*
X182631779Y-109608578D01*
X182578803Y-109610304D01*
X182545125Y-109614781D01*
X182527820Y-109623320D01*
X182523963Y-109637230D01*
X182530629Y-109657822D01*
X182542570Y-109681915D01*
X182575880Y-109722125D01*
X182622168Y-109742158D01*
X182678744Y-109741505D01*
X182742831Y-109719701D01*
X182798217Y-109692793D01*
X182844175Y-109729132D01*
X182890133Y-109765472D01*
X182846896Y-109805419D01*
X182789174Y-109843163D01*
X182718186Y-109865920D01*
X182641829Y-109872288D01*
X182567999Y-109860868D01*
X182556087Y-109856993D01*
X182491199Y-109823106D01*
X182442930Y-109772586D01*
X182410265Y-109703925D01*
X182392185Y-109615614D01*
X182391975Y-109613721D01*
X182390356Y-109517478D01*
X182396900Y-109483142D01*
X182524652Y-109483142D01*
X182536384Y-109488422D01*
X182568238Y-109492467D01*
X182615197Y-109494776D01*
X182644954Y-109495125D01*
X182700448Y-109494906D01*
X182735146Y-109493516D01*
X182753401Y-109489851D01*
X182759566Y-109482810D01*
X182757995Y-109471290D01*
X182756678Y-109466833D01*
X182734182Y-109424955D01*
X182698803Y-109391204D01*
X182667580Y-109376373D01*
X182626101Y-109377268D01*
X182584069Y-109395764D01*
X182548812Y-109426386D01*
X182527654Y-109463662D01*
X182524652Y-109483142D01*
X182396900Y-109483142D01*
X182406490Y-109432829D01*
X182438498Y-109361791D01*
X182484501Y-109306379D01*
X182542621Y-109268609D01*
X182610980Y-109250496D01*
X182687698Y-109254057D01*
X182687698Y-109254057D01*
G37*
X182687698Y-109254057D02*
X182719896Y-109261879D01*
X182781625Y-109290521D01*
X182834410Y-109334267D01*
X182870941Y-109386717D01*
X182875960Y-109398493D01*
X182882845Y-109429340D01*
X182887664Y-109474971D01*
X182889305Y-109521092D01*
X182889305Y-109608293D01*
X182706978Y-109608293D01*
X182631779Y-109608578D01*
X182578803Y-109610304D01*
X182545125Y-109614781D01*
X182527820Y-109623320D01*
X182523963Y-109637230D01*
X182530629Y-109657822D01*
X182542570Y-109681915D01*
X182575880Y-109722125D01*
X182622168Y-109742158D01*
X182678744Y-109741505D01*
X182742831Y-109719701D01*
X182798217Y-109692793D01*
X182844175Y-109729132D01*
X182890133Y-109765472D01*
X182846896Y-109805419D01*
X182789174Y-109843163D01*
X182718186Y-109865920D01*
X182641829Y-109872288D01*
X182567999Y-109860868D01*
X182556087Y-109856993D01*
X182491199Y-109823106D01*
X182442930Y-109772586D01*
X182410265Y-109703925D01*
X182392185Y-109615614D01*
X182391975Y-109613721D01*
X182390356Y-109517478D01*
X182396900Y-109483142D01*
X182524652Y-109483142D01*
X182536384Y-109488422D01*
X182568238Y-109492467D01*
X182615197Y-109494776D01*
X182644954Y-109495125D01*
X182700448Y-109494906D01*
X182735146Y-109493516D01*
X182753401Y-109489851D01*
X182759566Y-109482810D01*
X182757995Y-109471290D01*
X182756678Y-109466833D01*
X182734182Y-109424955D01*
X182698803Y-109391204D01*
X182667580Y-109376373D01*
X182626101Y-109377268D01*
X182584069Y-109395764D01*
X182548812Y-109426386D01*
X182527654Y-109463662D01*
X182524652Y-109483142D01*
X182396900Y-109483142D01*
X182406490Y-109432829D01*
X182438498Y-109361791D01*
X182484501Y-109306379D01*
X182542621Y-109268609D01*
X182610980Y-109250496D01*
X182687698Y-109254057D01*
G36*
X182227026Y-109261480D02*
X182299880Y-109292430D01*
X182322827Y-109307495D01*
X182352154Y-109330648D01*
X182370564Y-109348853D01*
X182373761Y-109354783D01*
X182364735Y-109367940D01*
X182341637Y-109390267D01*
X182323144Y-109405850D01*
X182272528Y-109446526D01*
X182232560Y-109412895D01*
X182201674Y-109391184D01*
X182171559Y-109383690D01*
X182137092Y-109385520D01*
X182082361Y-109399128D01*
X182044686Y-109427372D01*
X182021791Y-109473033D01*
X182011397Y-109538889D01*
X182011395Y-109538931D01*
X182012294Y-109612539D01*
X182026263Y-109666546D01*
X182054128Y-109703316D01*
X182073125Y-109715768D01*
X182123576Y-109731273D01*
X182177463Y-109731283D01*
X182224346Y-109716238D01*
X182235444Y-109708887D01*
X182263276Y-109690111D01*
X182285036Y-109687034D01*
X182308504Y-109701009D01*
X182334449Y-109726110D01*
X182375516Y-109768480D01*
X182329921Y-109806064D01*
X182259474Y-109848482D01*
X182180033Y-109869385D01*
X182097015Y-109867872D01*
X182042494Y-109854011D01*
X181978770Y-109819735D01*
X181927805Y-109765812D01*
X181904651Y-109727749D01*
X181885899Y-109673136D01*
X181876515Y-109603969D01*
X181876443Y-109529007D01*
X181885624Y-109457009D01*
X181903999Y-109396737D01*
X181906893Y-109390558D01*
X181949752Y-109329951D01*
X182007779Y-109285824D01*
X182076391Y-109259093D01*
X182151001Y-109250673D01*
X182227026Y-109261480D01*
X182227026Y-109261480D01*
G37*
X182227026Y-109261480D02*
X182299880Y-109292430D01*
X182322827Y-109307495D01*
X182352154Y-109330648D01*
X182370564Y-109348853D01*
X182373761Y-109354783D01*
X182364735Y-109367940D01*
X182341637Y-109390267D01*
X182323144Y-109405850D01*
X182272528Y-109446526D01*
X182232560Y-109412895D01*
X182201674Y-109391184D01*
X182171559Y-109383690D01*
X182137092Y-109385520D01*
X182082361Y-109399128D01*
X182044686Y-109427372D01*
X182021791Y-109473033D01*
X182011397Y-109538889D01*
X182011395Y-109538931D01*
X182012294Y-109612539D01*
X182026263Y-109666546D01*
X182054128Y-109703316D01*
X182073125Y-109715768D01*
X182123576Y-109731273D01*
X182177463Y-109731283D01*
X182224346Y-109716238D01*
X182235444Y-109708887D01*
X182263276Y-109690111D01*
X182285036Y-109687034D01*
X182308504Y-109701009D01*
X182334449Y-109726110D01*
X182375516Y-109768480D01*
X182329921Y-109806064D01*
X182259474Y-109848482D01*
X182180033Y-109869385D01*
X182097015Y-109867872D01*
X182042494Y-109854011D01*
X181978770Y-109819735D01*
X181927805Y-109765812D01*
X181904651Y-109727749D01*
X181885899Y-109673136D01*
X181876515Y-109603969D01*
X181876443Y-109529007D01*
X181885624Y-109457009D01*
X181903999Y-109396737D01*
X181906893Y-109390558D01*
X181949752Y-109329951D01*
X182007779Y-109285824D01*
X182076391Y-109259093D01*
X182151001Y-109250673D01*
X182227026Y-109261480D01*
G36*
X181003167Y-109451942D02*
X181004355Y-109544163D01*
X181008697Y-109614210D01*
X181017358Y-109664981D01*
X181031504Y-109699372D01*
X181052300Y-109720279D01*
X181080910Y-109730600D01*
X181116335Y-109733236D01*
X181153436Y-109730282D01*
X181181618Y-109719489D01*
X181202043Y-109697960D01*
X181215879Y-109662799D01*
X181224291Y-109611110D01*
X181228443Y-109539994D01*
X181229503Y-109451942D01*
X181229503Y-109256214D01*
X181367820Y-109256214D01*
X181367820Y-109859779D01*
X181298662Y-109859779D01*
X181256970Y-109858089D01*
X181235501Y-109852156D01*
X181229503Y-109840893D01*
X181225891Y-109830861D01*
X181211514Y-109832983D01*
X181182536Y-109847180D01*
X181116119Y-109869080D01*
X181045675Y-109867528D01*
X180978177Y-109843747D01*
X180946033Y-109824962D01*
X180921515Y-109804622D01*
X180903604Y-109779173D01*
X180891279Y-109745058D01*
X180883523Y-109698721D01*
X180879316Y-109636607D01*
X180877640Y-109555161D01*
X180877424Y-109492178D01*
X180877424Y-109256214D01*
X181003167Y-109256214D01*
X181003167Y-109451942D01*
X181003167Y-109451942D01*
G37*
X181003167Y-109451942D02*
X181004355Y-109544163D01*
X181008697Y-109614210D01*
X181017358Y-109664981D01*
X181031504Y-109699372D01*
X181052300Y-109720279D01*
X181080910Y-109730600D01*
X181116335Y-109733236D01*
X181153436Y-109730282D01*
X181181618Y-109719489D01*
X181202043Y-109697960D01*
X181215879Y-109662799D01*
X181224291Y-109611110D01*
X181228443Y-109539994D01*
X181229503Y-109451942D01*
X181229503Y-109256214D01*
X181367820Y-109256214D01*
X181367820Y-109859779D01*
X181298662Y-109859779D01*
X181256970Y-109858089D01*
X181235501Y-109852156D01*
X181229503Y-109840893D01*
X181225891Y-109830861D01*
X181211514Y-109832983D01*
X181182536Y-109847180D01*
X181116119Y-109869080D01*
X181045675Y-109867528D01*
X180978177Y-109843747D01*
X180946033Y-109824962D01*
X180921515Y-109804622D01*
X180903604Y-109779173D01*
X180891279Y-109745058D01*
X180883523Y-109698721D01*
X180879316Y-109636607D01*
X180877640Y-109555161D01*
X180877424Y-109492178D01*
X180877424Y-109256214D01*
X181003167Y-109256214D01*
X181003167Y-109451942D01*
G36*
X180620562Y-109263655D02*
X180684163Y-109298292D01*
X180733923Y-109352972D01*
X180757368Y-109397442D01*
X180767434Y-109436721D01*
X180773956Y-109492716D01*
X180776751Y-109557221D01*
X180775636Y-109622029D01*
X180770426Y-109678934D01*
X180764341Y-109709327D01*
X180743814Y-109750906D01*
X180708263Y-109795068D01*
X180665419Y-109833687D01*
X180623011Y-109858634D01*
X180621977Y-109859030D01*
X180569353Y-109869931D01*
X180506988Y-109870201D01*
X180447724Y-109860276D01*
X180424840Y-109852322D01*
X180365902Y-109818900D01*
X180323690Y-109775111D01*
X180295956Y-109717138D01*
X180280451Y-109641165D01*
X180276943Y-109601371D01*
X180277390Y-109551366D01*
X180412176Y-109551366D01*
X180416717Y-109624332D01*
X180429786Y-109679934D01*
X180450556Y-109715461D01*
X180465352Y-109725620D01*
X180503264Y-109732704D01*
X180548327Y-109730607D01*
X180587287Y-109720412D01*
X180597504Y-109714804D01*
X180624459Y-109682138D01*
X180642251Y-109632145D01*
X180649824Y-109571305D01*
X180646125Y-109506097D01*
X180637857Y-109466853D01*
X180614120Y-109421405D01*
X180576649Y-109392996D01*
X180531520Y-109383173D01*
X180484811Y-109393487D01*
X180448932Y-109418712D01*
X180430077Y-109439525D01*
X180419072Y-109460039D01*
X180413826Y-109487803D01*
X180412249Y-109530362D01*
X180412176Y-109551366D01*
X180277390Y-109551366D01*
X180277894Y-109495180D01*
X180295188Y-109408101D01*
X180328829Y-109340130D01*
X180378818Y-109291264D01*
X180445156Y-109261499D01*
X180459401Y-109258048D01*
X180545010Y-109249945D01*
X180620562Y-109263655D01*
X180620562Y-109263655D01*
G37*
X180620562Y-109263655D02*
X180684163Y-109298292D01*
X180733923Y-109352972D01*
X180757368Y-109397442D01*
X180767434Y-109436721D01*
X180773956Y-109492716D01*
X180776751Y-109557221D01*
X180775636Y-109622029D01*
X180770426Y-109678934D01*
X180764341Y-109709327D01*
X180743814Y-109750906D01*
X180708263Y-109795068D01*
X180665419Y-109833687D01*
X180623011Y-109858634D01*
X180621977Y-109859030D01*
X180569353Y-109869931D01*
X180506988Y-109870201D01*
X180447724Y-109860276D01*
X180424840Y-109852322D01*
X180365902Y-109818900D01*
X180323690Y-109775111D01*
X180295956Y-109717138D01*
X180280451Y-109641165D01*
X180276943Y-109601371D01*
X180277390Y-109551366D01*
X180412176Y-109551366D01*
X180416717Y-109624332D01*
X180429786Y-109679934D01*
X180450556Y-109715461D01*
X180465352Y-109725620D01*
X180503264Y-109732704D01*
X180548327Y-109730607D01*
X180587287Y-109720412D01*
X180597504Y-109714804D01*
X180624459Y-109682138D01*
X180642251Y-109632145D01*
X180649824Y-109571305D01*
X180646125Y-109506097D01*
X180637857Y-109466853D01*
X180614120Y-109421405D01*
X180576649Y-109392996D01*
X180531520Y-109383173D01*
X180484811Y-109393487D01*
X180448932Y-109418712D01*
X180430077Y-109439525D01*
X180419072Y-109460039D01*
X180413826Y-109487803D01*
X180412249Y-109530362D01*
X180412176Y-109551366D01*
X180277390Y-109551366D01*
X180277894Y-109495180D01*
X180295188Y-109408101D01*
X180328829Y-109340130D01*
X180378818Y-109291264D01*
X180445156Y-109261499D01*
X180459401Y-109258048D01*
X180545010Y-109249945D01*
X180620562Y-109263655D01*
G36*
X180023817Y-109254052D02*
X180071434Y-109263082D01*
X180120834Y-109281970D01*
X180126112Y-109284377D01*
X180163574Y-109304076D01*
X180189517Y-109322381D01*
X180197903Y-109334108D01*
X180189917Y-109353232D01*
X180170520Y-109381450D01*
X180161910Y-109391984D01*
X180126428Y-109433447D01*
X180080685Y-109406458D01*
X180037150Y-109388478D01*
X179986850Y-109378867D01*
X179938612Y-109378260D01*
X179901267Y-109387291D01*
X179892305Y-109392927D01*
X179875237Y-109418771D01*
X179873163Y-109448541D01*
X179885934Y-109471797D01*
X179893488Y-109476308D01*
X179916125Y-109481909D01*
X179955915Y-109488492D01*
X180004966Y-109494783D01*
X180014015Y-109495770D01*
X180092796Y-109509398D01*
X180149936Y-109532546D01*
X180187830Y-109567352D01*
X180208879Y-109615954D01*
X180215435Y-109675318D01*
X180206377Y-109742798D01*
X180176964Y-109795788D01*
X180127078Y-109834383D01*
X180056600Y-109858681D01*
X179978365Y-109868267D01*
X179914566Y-109868152D01*
X179862816Y-109859445D01*
X179827473Y-109847425D01*
X179782817Y-109826480D01*
X179741547Y-109802174D01*
X179726879Y-109791476D01*
X179689157Y-109760684D01*
X179734652Y-109714649D01*
X179780147Y-109668613D01*
X179831872Y-109702843D01*
X179883752Y-109728552D01*
X179939151Y-109741999D01*
X179992405Y-109743418D01*
X180037849Y-109733043D01*
X180069816Y-109711107D01*
X180080138Y-109692598D01*
X180078589Y-109662914D01*
X180052940Y-109640215D01*
X180003260Y-109624540D01*
X179948831Y-109617295D01*
X179865064Y-109603473D01*
X179802833Y-109577396D01*
X179761307Y-109538299D01*
X179739653Y-109485420D01*
X179736653Y-109422726D01*
X179751471Y-109357242D01*
X179785254Y-109307744D01*
X179838305Y-109274008D01*
X179910926Y-109255807D01*
X179964728Y-109252239D01*
X180023817Y-109254052D01*
X180023817Y-109254052D01*
G37*
X180023817Y-109254052D02*
X180071434Y-109263082D01*
X180120834Y-109281970D01*
X180126112Y-109284377D01*
X180163574Y-109304076D01*
X180189517Y-109322381D01*
X180197903Y-109334108D01*
X180189917Y-109353232D01*
X180170520Y-109381450D01*
X180161910Y-109391984D01*
X180126428Y-109433447D01*
X180080685Y-109406458D01*
X180037150Y-109388478D01*
X179986850Y-109378867D01*
X179938612Y-109378260D01*
X179901267Y-109387291D01*
X179892305Y-109392927D01*
X179875237Y-109418771D01*
X179873163Y-109448541D01*
X179885934Y-109471797D01*
X179893488Y-109476308D01*
X179916125Y-109481909D01*
X179955915Y-109488492D01*
X180004966Y-109494783D01*
X180014015Y-109495770D01*
X180092796Y-109509398D01*
X180149936Y-109532546D01*
X180187830Y-109567352D01*
X180208879Y-109615954D01*
X180215435Y-109675318D01*
X180206377Y-109742798D01*
X180176964Y-109795788D01*
X180127078Y-109834383D01*
X180056600Y-109858681D01*
X179978365Y-109868267D01*
X179914566Y-109868152D01*
X179862816Y-109859445D01*
X179827473Y-109847425D01*
X179782817Y-109826480D01*
X179741547Y-109802174D01*
X179726879Y-109791476D01*
X179689157Y-109760684D01*
X179734652Y-109714649D01*
X179780147Y-109668613D01*
X179831872Y-109702843D01*
X179883752Y-109728552D01*
X179939151Y-109741999D01*
X179992405Y-109743418D01*
X180037849Y-109733043D01*
X180069816Y-109711107D01*
X180080138Y-109692598D01*
X180078589Y-109662914D01*
X180052940Y-109640215D01*
X180003260Y-109624540D01*
X179948831Y-109617295D01*
X179865064Y-109603473D01*
X179802833Y-109577396D01*
X179761307Y-109538299D01*
X179739653Y-109485420D01*
X179736653Y-109422726D01*
X179751471Y-109357242D01*
X179785254Y-109307744D01*
X179838305Y-109274008D01*
X179910926Y-109255807D01*
X179964728Y-109252239D01*
X180023817Y-109254052D01*
G36*
X178653101Y-109270214D02*
X178665632Y-109276114D01*
X178709001Y-109307883D01*
X178750010Y-109354246D01*
X178780632Y-109405296D01*
X178789341Y-109428766D01*
X178797288Y-109470691D01*
X178802026Y-109521357D01*
X178802601Y-109542279D01*
X178802671Y-109608293D01*
X178422717Y-109608293D01*
X178430817Y-109642873D01*
X178450696Y-109683770D01*
X178485453Y-109719114D01*
X178526802Y-109741882D01*
X178553151Y-109746610D01*
X178588884Y-109740873D01*
X178631518Y-109726482D01*
X178646001Y-109719862D01*
X178699560Y-109693113D01*
X178745267Y-109727976D01*
X178771642Y-109751555D01*
X178785676Y-109771017D01*
X178786386Y-109776729D01*
X178773849Y-109790573D01*
X178746372Y-109811612D01*
X178721434Y-109828025D01*
X178654136Y-109857530D01*
X178578690Y-109870884D01*
X178503912Y-109867412D01*
X178444305Y-109849263D01*
X178382859Y-109810384D01*
X178339192Y-109759195D01*
X178311874Y-109692967D01*
X178299478Y-109608971D01*
X178298379Y-109570536D01*
X178302778Y-109482461D01*
X178303318Y-109479899D01*
X178429218Y-109479899D01*
X178432685Y-109488158D01*
X178446937Y-109492713D01*
X178476330Y-109494665D01*
X178525225Y-109495117D01*
X178544052Y-109495125D01*
X178601333Y-109494443D01*
X178637659Y-109491964D01*
X178657196Y-109487043D01*
X178664110Y-109479034D01*
X178664355Y-109476462D01*
X178656464Y-109456023D01*
X178636715Y-109427389D01*
X178628225Y-109417363D01*
X178596706Y-109389008D01*
X178563851Y-109377859D01*
X178546149Y-109376927D01*
X178498261Y-109388581D01*
X178458101Y-109419885D01*
X178432627Y-109465352D01*
X178432175Y-109466833D01*
X178429218Y-109479899D01*
X178303318Y-109479899D01*
X178317408Y-109413110D01*
X178343762Y-109357625D01*
X178375993Y-109318239D01*
X178435583Y-109275531D01*
X178505632Y-109252709D01*
X178580139Y-109250646D01*
X178653101Y-109270214D01*
X178653101Y-109270214D01*
G37*
X178653101Y-109270214D02*
X178665632Y-109276114D01*
X178709001Y-109307883D01*
X178750010Y-109354246D01*
X178780632Y-109405296D01*
X178789341Y-109428766D01*
X178797288Y-109470691D01*
X178802026Y-109521357D01*
X178802601Y-109542279D01*
X178802671Y-109608293D01*
X178422717Y-109608293D01*
X178430817Y-109642873D01*
X178450696Y-109683770D01*
X178485453Y-109719114D01*
X178526802Y-109741882D01*
X178553151Y-109746610D01*
X178588884Y-109740873D01*
X178631518Y-109726482D01*
X178646001Y-109719862D01*
X178699560Y-109693113D01*
X178745267Y-109727976D01*
X178771642Y-109751555D01*
X178785676Y-109771017D01*
X178786386Y-109776729D01*
X178773849Y-109790573D01*
X178746372Y-109811612D01*
X178721434Y-109828025D01*
X178654136Y-109857530D01*
X178578690Y-109870884D01*
X178503912Y-109867412D01*
X178444305Y-109849263D01*
X178382859Y-109810384D01*
X178339192Y-109759195D01*
X178311874Y-109692967D01*
X178299478Y-109608971D01*
X178298379Y-109570536D01*
X178302778Y-109482461D01*
X178303318Y-109479899D01*
X178429218Y-109479899D01*
X178432685Y-109488158D01*
X178446937Y-109492713D01*
X178476330Y-109494665D01*
X178525225Y-109495117D01*
X178544052Y-109495125D01*
X178601333Y-109494443D01*
X178637659Y-109491964D01*
X178657196Y-109487043D01*
X178664110Y-109479034D01*
X178664355Y-109476462D01*
X178656464Y-109456023D01*
X178636715Y-109427389D01*
X178628225Y-109417363D01*
X178596706Y-109389008D01*
X178563851Y-109377859D01*
X178546149Y-109376927D01*
X178498261Y-109388581D01*
X178458101Y-109419885D01*
X178432627Y-109465352D01*
X178432175Y-109466833D01*
X178429218Y-109479899D01*
X178303318Y-109479899D01*
X178317408Y-109413110D01*
X178343762Y-109357625D01*
X178375993Y-109318239D01*
X178435583Y-109275531D01*
X178505632Y-109252709D01*
X178580139Y-109250646D01*
X178653101Y-109270214D01*
G36*
X177471539Y-109262748D02*
X177537321Y-109291831D01*
X177587260Y-109340393D01*
X177621426Y-109408508D01*
X177639893Y-109496251D01*
X177641217Y-109509951D01*
X177642254Y-109606539D01*
X177628807Y-109691202D01*
X177601692Y-109759821D01*
X177587173Y-109781894D01*
X177536599Y-109828611D01*
X177472191Y-109858868D01*
X177400134Y-109871424D01*
X177326615Y-109865039D01*
X177270728Y-109845372D01*
X177222668Y-109812229D01*
X177183388Y-109768775D01*
X177182708Y-109767758D01*
X177166756Y-109740938D01*
X177156390Y-109713968D01*
X177150112Y-109679932D01*
X177146427Y-109631910D01*
X177144803Y-109592531D01*
X177144128Y-109556819D01*
X177269845Y-109556819D01*
X177271074Y-109592370D01*
X177275534Y-109639694D01*
X177283403Y-109670065D01*
X177297593Y-109691672D01*
X177310883Y-109704294D01*
X177357998Y-109730722D01*
X177407295Y-109734253D01*
X177453207Y-109715239D01*
X177476162Y-109693931D01*
X177492704Y-109672459D01*
X177502379Y-109651913D01*
X177506626Y-109625174D01*
X177506880Y-109585123D01*
X177505572Y-109548238D01*
X177502757Y-109495547D01*
X177498295Y-109461372D01*
X177490252Y-109439080D01*
X177476697Y-109422042D01*
X177465955Y-109412303D01*
X177421023Y-109386723D01*
X177372551Y-109385447D01*
X177331906Y-109400599D01*
X177297233Y-109432242D01*
X177276576Y-109484220D01*
X177269845Y-109556819D01*
X177144128Y-109556819D01*
X177143321Y-109514221D01*
X177145852Y-109455656D01*
X177153438Y-109411607D01*
X177167119Y-109376848D01*
X177187935Y-109346151D01*
X177195653Y-109337036D01*
X177243911Y-109291621D01*
X177295672Y-109265093D01*
X177358972Y-109253979D01*
X177389839Y-109253071D01*
X177471539Y-109262748D01*
X177471539Y-109262748D01*
G37*
X177471539Y-109262748D02*
X177537321Y-109291831D01*
X177587260Y-109340393D01*
X177621426Y-109408508D01*
X177639893Y-109496251D01*
X177641217Y-109509951D01*
X177642254Y-109606539D01*
X177628807Y-109691202D01*
X177601692Y-109759821D01*
X177587173Y-109781894D01*
X177536599Y-109828611D01*
X177472191Y-109858868D01*
X177400134Y-109871424D01*
X177326615Y-109865039D01*
X177270728Y-109845372D01*
X177222668Y-109812229D01*
X177183388Y-109768775D01*
X177182708Y-109767758D01*
X177166756Y-109740938D01*
X177156390Y-109713968D01*
X177150112Y-109679932D01*
X177146427Y-109631910D01*
X177144803Y-109592531D01*
X177144128Y-109556819D01*
X177269845Y-109556819D01*
X177271074Y-109592370D01*
X177275534Y-109639694D01*
X177283403Y-109670065D01*
X177297593Y-109691672D01*
X177310883Y-109704294D01*
X177357998Y-109730722D01*
X177407295Y-109734253D01*
X177453207Y-109715239D01*
X177476162Y-109693931D01*
X177492704Y-109672459D01*
X177502379Y-109651913D01*
X177506626Y-109625174D01*
X177506880Y-109585123D01*
X177505572Y-109548238D01*
X177502757Y-109495547D01*
X177498295Y-109461372D01*
X177490252Y-109439080D01*
X177476697Y-109422042D01*
X177465955Y-109412303D01*
X177421023Y-109386723D01*
X177372551Y-109385447D01*
X177331906Y-109400599D01*
X177297233Y-109432242D01*
X177276576Y-109484220D01*
X177269845Y-109556819D01*
X177144128Y-109556819D01*
X177143321Y-109514221D01*
X177145852Y-109455656D01*
X177153438Y-109411607D01*
X177167119Y-109376848D01*
X177187935Y-109346151D01*
X177195653Y-109337036D01*
X177243911Y-109291621D01*
X177295672Y-109265093D01*
X177358972Y-109253979D01*
X177389839Y-109253071D01*
X177471539Y-109262748D01*
G36*
X182042381Y-110202570D02*
X182102485Y-110218197D01*
X182152821Y-110250448D01*
X182177193Y-110274540D01*
X182217145Y-110331495D01*
X182240042Y-110397565D01*
X182247908Y-110478782D01*
X182247948Y-110485348D01*
X182248018Y-110551363D01*
X181868064Y-110551363D01*
X181876163Y-110585942D01*
X181890787Y-110617259D01*
X181916381Y-110649891D01*
X181921735Y-110655100D01*
X181967743Y-110683294D01*
X182020210Y-110688075D01*
X182080603Y-110669526D01*
X182090840Y-110664531D01*
X182122239Y-110649345D01*
X182143270Y-110640694D01*
X182146939Y-110639893D01*
X182159748Y-110647663D01*
X182184178Y-110666672D01*
X182196579Y-110677060D01*
X182222276Y-110700921D01*
X182230715Y-110716677D01*
X182224858Y-110731171D01*
X182221728Y-110735134D01*
X182200525Y-110752479D01*
X182165538Y-110773559D01*
X182141137Y-110785865D01*
X182071872Y-110807546D01*
X181995188Y-110814571D01*
X181922565Y-110806247D01*
X181902226Y-110800286D01*
X181839276Y-110766552D01*
X181792615Y-110714645D01*
X181761973Y-110644059D01*
X181747082Y-110554292D01*
X181745447Y-110507353D01*
X181750221Y-110439013D01*
X181870790Y-110439013D01*
X181882452Y-110444065D01*
X181913798Y-110448029D01*
X181959371Y-110450368D01*
X181990246Y-110450769D01*
X182045781Y-110450383D01*
X182080833Y-110448575D01*
X182100062Y-110444373D01*
X182108130Y-110436803D01*
X182109701Y-110425818D01*
X182098921Y-110391981D01*
X182071780Y-110358540D01*
X182036077Y-110332872D01*
X182000360Y-110322372D01*
X181951848Y-110331686D01*
X181909853Y-110358613D01*
X181880736Y-110397427D01*
X181870790Y-110439013D01*
X181750221Y-110439013D01*
X181752399Y-110407836D01*
X181773855Y-110328549D01*
X181810270Y-110268863D01*
X181862097Y-110228149D01*
X181929790Y-110205779D01*
X181966462Y-110201471D01*
X182042381Y-110202570D01*
X182042381Y-110202570D01*
G37*
X182042381Y-110202570D02*
X182102485Y-110218197D01*
X182152821Y-110250448D01*
X182177193Y-110274540D01*
X182217145Y-110331495D01*
X182240042Y-110397565D01*
X182247908Y-110478782D01*
X182247948Y-110485348D01*
X182248018Y-110551363D01*
X181868064Y-110551363D01*
X181876163Y-110585942D01*
X181890787Y-110617259D01*
X181916381Y-110649891D01*
X181921735Y-110655100D01*
X181967743Y-110683294D01*
X182020210Y-110688075D01*
X182080603Y-110669526D01*
X182090840Y-110664531D01*
X182122239Y-110649345D01*
X182143270Y-110640694D01*
X182146939Y-110639893D01*
X182159748Y-110647663D01*
X182184178Y-110666672D01*
X182196579Y-110677060D01*
X182222276Y-110700921D01*
X182230715Y-110716677D01*
X182224858Y-110731171D01*
X182221728Y-110735134D01*
X182200525Y-110752479D01*
X182165538Y-110773559D01*
X182141137Y-110785865D01*
X182071872Y-110807546D01*
X181995188Y-110814571D01*
X181922565Y-110806247D01*
X181902226Y-110800286D01*
X181839276Y-110766552D01*
X181792615Y-110714645D01*
X181761973Y-110644059D01*
X181747082Y-110554292D01*
X181745447Y-110507353D01*
X181750221Y-110439013D01*
X181870790Y-110439013D01*
X181882452Y-110444065D01*
X181913798Y-110448029D01*
X181959371Y-110450368D01*
X181990246Y-110450769D01*
X182045781Y-110450383D01*
X182080833Y-110448575D01*
X182100062Y-110444373D01*
X182108130Y-110436803D01*
X182109701Y-110425818D01*
X182098921Y-110391981D01*
X182071780Y-110358540D01*
X182036077Y-110332872D01*
X182000360Y-110322372D01*
X181951848Y-110331686D01*
X181909853Y-110358613D01*
X181880736Y-110397427D01*
X181870790Y-110439013D01*
X181750221Y-110439013D01*
X181752399Y-110407836D01*
X181773855Y-110328549D01*
X181810270Y-110268863D01*
X181862097Y-110228149D01*
X181929790Y-110205779D01*
X181966462Y-110201471D01*
X182042381Y-110202570D01*
G36*
X181645055Y-110199086D02*
X181693395Y-110208615D01*
X181720914Y-110222725D01*
X181749864Y-110246168D01*
X181708676Y-110298171D01*
X181683282Y-110329664D01*
X181666038Y-110345028D01*
X181648902Y-110347376D01*
X181623827Y-110339817D01*
X181612057Y-110335541D01*
X181564070Y-110329231D01*
X181520124Y-110342756D01*
X181487860Y-110373310D01*
X181482619Y-110383052D01*
X181476912Y-110408858D01*
X181472506Y-110456417D01*
X181469611Y-110522358D01*
X181468431Y-110603310D01*
X181468414Y-110614826D01*
X181468414Y-110815422D01*
X181330097Y-110815422D01*
X181330097Y-110199283D01*
X181399256Y-110199283D01*
X181439133Y-110200325D01*
X181459907Y-110204958D01*
X181467589Y-110215449D01*
X181468414Y-110225345D01*
X181468414Y-110251406D01*
X181501545Y-110225345D01*
X181539535Y-110207565D01*
X181590570Y-110198774D01*
X181645055Y-110199086D01*
X181645055Y-110199086D01*
G37*
X181645055Y-110199086D02*
X181693395Y-110208615D01*
X181720914Y-110222725D01*
X181749864Y-110246168D01*
X181708676Y-110298171D01*
X181683282Y-110329664D01*
X181666038Y-110345028D01*
X181648902Y-110347376D01*
X181623827Y-110339817D01*
X181612057Y-110335541D01*
X181564070Y-110329231D01*
X181520124Y-110342756D01*
X181487860Y-110373310D01*
X181482619Y-110383052D01*
X181476912Y-110408858D01*
X181472506Y-110456417D01*
X181469611Y-110522358D01*
X181468431Y-110603310D01*
X181468414Y-110614826D01*
X181468414Y-110815422D01*
X181330097Y-110815422D01*
X181330097Y-110199283D01*
X181399256Y-110199283D01*
X181439133Y-110200325D01*
X181459907Y-110204958D01*
X181467589Y-110215449D01*
X181468414Y-110225345D01*
X181468414Y-110251406D01*
X181501545Y-110225345D01*
X181539535Y-110207565D01*
X181590570Y-110198774D01*
X181645055Y-110199086D01*
G36*
X181048211Y-110203017D02*
X181101211Y-110215890D01*
X181116531Y-110222710D01*
X181146228Y-110240574D01*
X181169020Y-110260693D01*
X181185883Y-110286562D01*
X181197798Y-110321673D01*
X181205742Y-110369520D01*
X181210694Y-110433596D01*
X181213631Y-110517394D01*
X181214747Y-110573368D01*
X181218852Y-110815422D01*
X181148732Y-110815422D01*
X181106193Y-110813638D01*
X181084276Y-110807542D01*
X181078612Y-110797306D01*
X181075621Y-110786237D01*
X181062251Y-110788354D01*
X181044033Y-110797229D01*
X180998424Y-110810833D01*
X180939807Y-110814499D01*
X180878154Y-110808503D01*
X180823438Y-110793121D01*
X180818530Y-110790986D01*
X180768523Y-110755855D01*
X180735556Y-110707019D01*
X180720387Y-110649933D01*
X180721546Y-110629424D01*
X180845308Y-110629424D01*
X180856213Y-110657025D01*
X180888545Y-110676804D01*
X180940710Y-110687419D01*
X180968587Y-110688828D01*
X181015047Y-110685220D01*
X181045929Y-110671197D01*
X181053464Y-110664531D01*
X181073876Y-110628266D01*
X181078612Y-110595373D01*
X181078612Y-110551363D01*
X181017313Y-110551363D01*
X180946056Y-110554995D01*
X180896076Y-110566418D01*
X180864496Y-110586424D01*
X180857426Y-110595343D01*
X180845308Y-110629424D01*
X180721546Y-110629424D01*
X180723771Y-110590056D01*
X180746463Y-110532844D01*
X180777424Y-110494180D01*
X180796176Y-110477464D01*
X180814533Y-110466478D01*
X180838419Y-110459780D01*
X180873757Y-110455926D01*
X180926469Y-110453473D01*
X180947377Y-110452768D01*
X181078612Y-110448479D01*
X181078420Y-110408758D01*
X181073337Y-110367005D01*
X181054962Y-110341758D01*
X181017839Y-110325630D01*
X181016843Y-110325342D01*
X180964210Y-110319000D01*
X180912706Y-110327284D01*
X180874430Y-110347427D01*
X180859072Y-110357373D01*
X180842530Y-110355997D01*
X180817075Y-110341587D01*
X180802128Y-110331417D01*
X180772891Y-110309688D01*
X180754780Y-110293400D01*
X180751874Y-110288737D01*
X180763840Y-110264605D01*
X180799196Y-110235785D01*
X180814553Y-110226061D01*
X180858701Y-110209314D01*
X180918198Y-110199827D01*
X180984287Y-110197695D01*
X181048211Y-110203017D01*
X181048211Y-110203017D01*
G37*
X181048211Y-110203017D02*
X181101211Y-110215890D01*
X181116531Y-110222710D01*
X181146228Y-110240574D01*
X181169020Y-110260693D01*
X181185883Y-110286562D01*
X181197798Y-110321673D01*
X181205742Y-110369520D01*
X181210694Y-110433596D01*
X181213631Y-110517394D01*
X181214747Y-110573368D01*
X181218852Y-110815422D01*
X181148732Y-110815422D01*
X181106193Y-110813638D01*
X181084276Y-110807542D01*
X181078612Y-110797306D01*
X181075621Y-110786237D01*
X181062251Y-110788354D01*
X181044033Y-110797229D01*
X180998424Y-110810833D01*
X180939807Y-110814499D01*
X180878154Y-110808503D01*
X180823438Y-110793121D01*
X180818530Y-110790986D01*
X180768523Y-110755855D01*
X180735556Y-110707019D01*
X180720387Y-110649933D01*
X180721546Y-110629424D01*
X180845308Y-110629424D01*
X180856213Y-110657025D01*
X180888545Y-110676804D01*
X180940710Y-110687419D01*
X180968587Y-110688828D01*
X181015047Y-110685220D01*
X181045929Y-110671197D01*
X181053464Y-110664531D01*
X181073876Y-110628266D01*
X181078612Y-110595373D01*
X181078612Y-110551363D01*
X181017313Y-110551363D01*
X180946056Y-110554995D01*
X180896076Y-110566418D01*
X180864496Y-110586424D01*
X180857426Y-110595343D01*
X180845308Y-110629424D01*
X180721546Y-110629424D01*
X180723771Y-110590056D01*
X180746463Y-110532844D01*
X180777424Y-110494180D01*
X180796176Y-110477464D01*
X180814533Y-110466478D01*
X180838419Y-110459780D01*
X180873757Y-110455926D01*
X180926469Y-110453473D01*
X180947377Y-110452768D01*
X181078612Y-110448479D01*
X181078420Y-110408758D01*
X181073337Y-110367005D01*
X181054962Y-110341758D01*
X181017839Y-110325630D01*
X181016843Y-110325342D01*
X180964210Y-110319000D01*
X180912706Y-110327284D01*
X180874430Y-110347427D01*
X180859072Y-110357373D01*
X180842530Y-110355997D01*
X180817075Y-110341587D01*
X180802128Y-110331417D01*
X180772891Y-110309688D01*
X180754780Y-110293400D01*
X180751874Y-110288737D01*
X180763840Y-110264605D01*
X180799196Y-110235785D01*
X180814553Y-110226061D01*
X180858701Y-110209314D01*
X180918198Y-110199827D01*
X180984287Y-110197695D01*
X181048211Y-110203017D01*
G36*
X180291324Y-110201837D02*
X180341055Y-110205571D01*
X180471091Y-110595373D01*
X180491478Y-110526214D01*
X180503746Y-110483474D01*
X180519885Y-110425715D01*
X180537312Y-110362225D01*
X180546526Y-110328170D01*
X180581188Y-110199283D01*
X180724191Y-110199283D01*
X180681446Y-110334457D01*
X180660396Y-110400942D01*
X180634967Y-110481139D01*
X180608410Y-110564793D01*
X180584702Y-110639382D01*
X180530702Y-110809135D01*
X180472398Y-110812928D01*
X180414095Y-110816722D01*
X180382479Y-110712334D01*
X180362982Y-110647489D01*
X180341704Y-110576000D01*
X180323108Y-110512863D01*
X180322374Y-110510350D01*
X180308484Y-110467569D01*
X180296229Y-110438379D01*
X180287646Y-110427341D01*
X180285882Y-110428618D01*
X180279691Y-110445730D01*
X180267928Y-110482387D01*
X180252025Y-110533978D01*
X180233414Y-110595894D01*
X180223343Y-110629952D01*
X180168807Y-110815422D01*
X180053064Y-110815422D01*
X179960537Y-110523071D01*
X179934544Y-110441062D01*
X179910866Y-110366587D01*
X179890620Y-110303144D01*
X179874926Y-110254232D01*
X179864902Y-110223349D01*
X179861855Y-110214326D01*
X179864267Y-110205087D01*
X179883208Y-110201041D01*
X179922623Y-110201446D01*
X179928793Y-110201752D01*
X180001886Y-110205571D01*
X180049757Y-110381610D01*
X180067353Y-110445811D01*
X180083077Y-110502249D01*
X180095546Y-110546022D01*
X180103374Y-110572230D01*
X180104820Y-110576503D01*
X180110814Y-110571590D01*
X180122901Y-110546132D01*
X180139693Y-110503597D01*
X180159803Y-110447450D01*
X180176803Y-110396730D01*
X180241594Y-110198104D01*
X180291324Y-110201837D01*
X180291324Y-110201837D01*
G37*
X180291324Y-110201837D02*
X180341055Y-110205571D01*
X180471091Y-110595373D01*
X180491478Y-110526214D01*
X180503746Y-110483474D01*
X180519885Y-110425715D01*
X180537312Y-110362225D01*
X180546526Y-110328170D01*
X180581188Y-110199283D01*
X180724191Y-110199283D01*
X180681446Y-110334457D01*
X180660396Y-110400942D01*
X180634967Y-110481139D01*
X180608410Y-110564793D01*
X180584702Y-110639382D01*
X180530702Y-110809135D01*
X180472398Y-110812928D01*
X180414095Y-110816722D01*
X180382479Y-110712334D01*
X180362982Y-110647489D01*
X180341704Y-110576000D01*
X180323108Y-110512863D01*
X180322374Y-110510350D01*
X180308484Y-110467569D01*
X180296229Y-110438379D01*
X180287646Y-110427341D01*
X180285882Y-110428618D01*
X180279691Y-110445730D01*
X180267928Y-110482387D01*
X180252025Y-110533978D01*
X180233414Y-110595894D01*
X180223343Y-110629952D01*
X180168807Y-110815422D01*
X180053064Y-110815422D01*
X179960537Y-110523071D01*
X179934544Y-110441062D01*
X179910866Y-110366587D01*
X179890620Y-110303144D01*
X179874926Y-110254232D01*
X179864902Y-110223349D01*
X179861855Y-110214326D01*
X179864267Y-110205087D01*
X179883208Y-110201041D01*
X179922623Y-110201446D01*
X179928793Y-110201752D01*
X180001886Y-110205571D01*
X180049757Y-110381610D01*
X180067353Y-110445811D01*
X180083077Y-110502249D01*
X180095546Y-110546022D01*
X180103374Y-110572230D01*
X180104820Y-110576503D01*
X180110814Y-110571590D01*
X180122901Y-110546132D01*
X180139693Y-110503597D01*
X180159803Y-110447450D01*
X180176803Y-110396730D01*
X180241594Y-110198104D01*
X180291324Y-110201837D01*
G36*
X179808612Y-110815422D02*
X179739454Y-110815422D01*
X179699312Y-110814245D01*
X179678406Y-110809372D01*
X179670878Y-110798786D01*
X179670295Y-110791629D01*
X179669026Y-110777276D01*
X179661021Y-110774523D01*
X179639985Y-110783371D01*
X179623627Y-110791629D01*
X179560823Y-110811197D01*
X179492552Y-110812329D01*
X179437048Y-110797735D01*
X179385362Y-110762477D01*
X179345962Y-110710435D01*
X179324387Y-110649050D01*
X179323838Y-110645618D01*
X179320633Y-110608171D01*
X179319039Y-110554413D01*
X179319167Y-110513755D01*
X179456521Y-110513755D01*
X179459703Y-110567794D01*
X179466941Y-110612335D01*
X179476740Y-110637488D01*
X179513811Y-110671860D01*
X179557826Y-110684182D01*
X179603216Y-110674218D01*
X179642003Y-110644495D01*
X179656692Y-110624505D01*
X179665281Y-110600650D01*
X179669304Y-110565830D01*
X179670295Y-110513530D01*
X179668522Y-110461739D01*
X179663837Y-110416234D01*
X179657197Y-110385781D01*
X179656090Y-110383052D01*
X179629309Y-110350600D01*
X179590221Y-110332783D01*
X179546485Y-110329906D01*
X179505762Y-110342274D01*
X179475713Y-110370193D01*
X179472596Y-110375748D01*
X179462839Y-110409622D01*
X179457523Y-110458328D01*
X179456521Y-110513755D01*
X179319167Y-110513755D01*
X179319232Y-110493140D01*
X179320136Y-110460163D01*
X179326286Y-110378581D01*
X179339067Y-110317330D01*
X179360329Y-110272049D01*
X179391922Y-110238379D01*
X179422593Y-110218614D01*
X179465446Y-110204720D01*
X179518744Y-110199954D01*
X179573320Y-110203836D01*
X179620008Y-110215882D01*
X179644676Y-110230293D01*
X179670295Y-110253478D01*
X179670295Y-109960373D01*
X179808612Y-109960373D01*
X179808612Y-110815422D01*
X179808612Y-110815422D01*
G37*
X179808612Y-110815422D02*
X179739454Y-110815422D01*
X179699312Y-110814245D01*
X179678406Y-110809372D01*
X179670878Y-110798786D01*
X179670295Y-110791629D01*
X179669026Y-110777276D01*
X179661021Y-110774523D01*
X179639985Y-110783371D01*
X179623627Y-110791629D01*
X179560823Y-110811197D01*
X179492552Y-110812329D01*
X179437048Y-110797735D01*
X179385362Y-110762477D01*
X179345962Y-110710435D01*
X179324387Y-110649050D01*
X179323838Y-110645618D01*
X179320633Y-110608171D01*
X179319039Y-110554413D01*
X179319167Y-110513755D01*
X179456521Y-110513755D01*
X179459703Y-110567794D01*
X179466941Y-110612335D01*
X179476740Y-110637488D01*
X179513811Y-110671860D01*
X179557826Y-110684182D01*
X179603216Y-110674218D01*
X179642003Y-110644495D01*
X179656692Y-110624505D01*
X179665281Y-110600650D01*
X179669304Y-110565830D01*
X179670295Y-110513530D01*
X179668522Y-110461739D01*
X179663837Y-110416234D01*
X179657197Y-110385781D01*
X179656090Y-110383052D01*
X179629309Y-110350600D01*
X179590221Y-110332783D01*
X179546485Y-110329906D01*
X179505762Y-110342274D01*
X179475713Y-110370193D01*
X179472596Y-110375748D01*
X179462839Y-110409622D01*
X179457523Y-110458328D01*
X179456521Y-110513755D01*
X179319167Y-110513755D01*
X179319232Y-110493140D01*
X179320136Y-110460163D01*
X179326286Y-110378581D01*
X179339067Y-110317330D01*
X179360329Y-110272049D01*
X179391922Y-110238379D01*
X179422593Y-110218614D01*
X179465446Y-110204720D01*
X179518744Y-110199954D01*
X179573320Y-110203836D01*
X179620008Y-110215882D01*
X179644676Y-110230293D01*
X179670295Y-110253478D01*
X179670295Y-109960373D01*
X179808612Y-109960373D01*
X179808612Y-110815422D01*
G36*
X179016444Y-110200620D02*
X179035261Y-110206260D01*
X179041327Y-110218653D01*
X179041582Y-110224247D01*
X179042671Y-110239830D01*
X179050168Y-110242276D01*
X179070419Y-110231593D01*
X179082449Y-110224294D01*
X179120400Y-110208663D01*
X179165728Y-110200934D01*
X179213256Y-110200340D01*
X179257805Y-110206113D01*
X179294198Y-110217484D01*
X179317257Y-110233688D01*
X179321804Y-110253955D01*
X179319509Y-110259443D01*
X179302780Y-110282226D01*
X179276837Y-110310247D01*
X179272145Y-110314777D01*
X179247417Y-110335605D01*
X179226082Y-110342335D01*
X179196245Y-110337638D01*
X179184292Y-110334517D01*
X179147095Y-110327021D01*
X179120941Y-110330392D01*
X179098854Y-110342281D01*
X179078622Y-110358235D01*
X179063721Y-110378300D01*
X179053366Y-110406302D01*
X179046771Y-110446067D01*
X179043151Y-110501423D01*
X179041722Y-110576194D01*
X179041582Y-110621340D01*
X179041582Y-110815422D01*
X178915840Y-110815422D01*
X178915840Y-110199283D01*
X178978711Y-110199283D01*
X179016444Y-110200620D01*
X179016444Y-110200620D01*
G37*
X179016444Y-110200620D02*
X179035261Y-110206260D01*
X179041327Y-110218653D01*
X179041582Y-110224247D01*
X179042671Y-110239830D01*
X179050168Y-110242276D01*
X179070419Y-110231593D01*
X179082449Y-110224294D01*
X179120400Y-110208663D01*
X179165728Y-110200934D01*
X179213256Y-110200340D01*
X179257805Y-110206113D01*
X179294198Y-110217484D01*
X179317257Y-110233688D01*
X179321804Y-110253955D01*
X179319509Y-110259443D01*
X179302780Y-110282226D01*
X179276837Y-110310247D01*
X179272145Y-110314777D01*
X179247417Y-110335605D01*
X179226082Y-110342335D01*
X179196245Y-110337638D01*
X179184292Y-110334517D01*
X179147095Y-110327021D01*
X179120941Y-110330392D01*
X179098854Y-110342281D01*
X179078622Y-110358235D01*
X179063721Y-110378300D01*
X179053366Y-110406302D01*
X179046771Y-110446067D01*
X179043151Y-110501423D01*
X179041722Y-110576194D01*
X179041582Y-110621340D01*
X179041582Y-110815422D01*
X178915840Y-110815422D01*
X178915840Y-110199283D01*
X178978711Y-110199283D01*
X179016444Y-110200620D01*
G36*
X178625590Y-110204155D02*
X178684745Y-110219939D01*
X178729777Y-110248548D01*
X178761554Y-110286019D01*
X178771434Y-110302011D01*
X178778727Y-110318763D01*
X178783826Y-110340192D01*
X178787121Y-110370216D01*
X178789003Y-110412754D01*
X178789863Y-110471722D01*
X178790093Y-110551040D01*
X178790097Y-110572084D01*
X178790097Y-110815422D01*
X178729741Y-110815422D01*
X178691243Y-110812726D01*
X178662777Y-110805895D01*
X178655645Y-110801683D01*
X178636148Y-110794413D01*
X178616234Y-110801683D01*
X178583447Y-110810760D01*
X178535822Y-110814413D01*
X178483036Y-110812828D01*
X178434764Y-110806189D01*
X178406582Y-110797672D01*
X178352047Y-110762663D01*
X178317965Y-110714079D01*
X178302643Y-110649482D01*
X178302501Y-110647823D01*
X178303845Y-110619166D01*
X178425444Y-110619166D01*
X178436074Y-110651761D01*
X178453390Y-110670105D01*
X178488148Y-110683979D01*
X178534027Y-110689517D01*
X178580812Y-110686791D01*
X178618286Y-110675874D01*
X178628785Y-110668869D01*
X178647132Y-110636504D01*
X178651780Y-110599711D01*
X178651780Y-110551363D01*
X178582218Y-110551363D01*
X178516133Y-110556450D01*
X178466036Y-110570863D01*
X178434871Y-110593329D01*
X178425444Y-110619166D01*
X178303845Y-110619166D01*
X178305813Y-110577247D01*
X178329090Y-110521445D01*
X178372852Y-110479247D01*
X178378901Y-110475408D01*
X178404893Y-110462909D01*
X178437065Y-110455340D01*
X178482040Y-110451661D01*
X178535469Y-110450816D01*
X178651780Y-110450769D01*
X178651780Y-110402011D01*
X178646847Y-110364181D01*
X178634257Y-110338836D01*
X178632783Y-110337487D01*
X178604766Y-110326400D01*
X178562474Y-110322103D01*
X178515736Y-110324215D01*
X178474382Y-110332356D01*
X178449843Y-110344565D01*
X178436547Y-110354346D01*
X178422506Y-110356213D01*
X178403129Y-110348200D01*
X178373824Y-110328339D01*
X178329997Y-110294663D01*
X178325975Y-110291509D01*
X178328036Y-110279836D01*
X178345232Y-110260422D01*
X178371367Y-110238848D01*
X178400248Y-110220696D01*
X178409322Y-110216409D01*
X178442420Y-110207856D01*
X178490920Y-110201755D01*
X178545105Y-110199308D01*
X178547639Y-110199303D01*
X178625590Y-110204155D01*
X178625590Y-110204155D01*
G37*
X178625590Y-110204155D02*
X178684745Y-110219939D01*
X178729777Y-110248548D01*
X178761554Y-110286019D01*
X178771434Y-110302011D01*
X178778727Y-110318763D01*
X178783826Y-110340192D01*
X178787121Y-110370216D01*
X178789003Y-110412754D01*
X178789863Y-110471722D01*
X178790093Y-110551040D01*
X178790097Y-110572084D01*
X178790097Y-110815422D01*
X178729741Y-110815422D01*
X178691243Y-110812726D01*
X178662777Y-110805895D01*
X178655645Y-110801683D01*
X178636148Y-110794413D01*
X178616234Y-110801683D01*
X178583447Y-110810760D01*
X178535822Y-110814413D01*
X178483036Y-110812828D01*
X178434764Y-110806189D01*
X178406582Y-110797672D01*
X178352047Y-110762663D01*
X178317965Y-110714079D01*
X178302643Y-110649482D01*
X178302501Y-110647823D01*
X178303845Y-110619166D01*
X178425444Y-110619166D01*
X178436074Y-110651761D01*
X178453390Y-110670105D01*
X178488148Y-110683979D01*
X178534027Y-110689517D01*
X178580812Y-110686791D01*
X178618286Y-110675874D01*
X178628785Y-110668869D01*
X178647132Y-110636504D01*
X178651780Y-110599711D01*
X178651780Y-110551363D01*
X178582218Y-110551363D01*
X178516133Y-110556450D01*
X178466036Y-110570863D01*
X178434871Y-110593329D01*
X178425444Y-110619166D01*
X178303845Y-110619166D01*
X178305813Y-110577247D01*
X178329090Y-110521445D01*
X178372852Y-110479247D01*
X178378901Y-110475408D01*
X178404893Y-110462909D01*
X178437065Y-110455340D01*
X178482040Y-110451661D01*
X178535469Y-110450816D01*
X178651780Y-110450769D01*
X178651780Y-110402011D01*
X178646847Y-110364181D01*
X178634257Y-110338836D01*
X178632783Y-110337487D01*
X178604766Y-110326400D01*
X178562474Y-110322103D01*
X178515736Y-110324215D01*
X178474382Y-110332356D01*
X178449843Y-110344565D01*
X178436547Y-110354346D01*
X178422506Y-110356213D01*
X178403129Y-110348200D01*
X178373824Y-110328339D01*
X178329997Y-110294663D01*
X178325975Y-110291509D01*
X178328036Y-110279836D01*
X178345232Y-110260422D01*
X178371367Y-110238848D01*
X178400248Y-110220696D01*
X178409322Y-110216409D01*
X178442420Y-110207856D01*
X178490920Y-110201755D01*
X178545105Y-110199308D01*
X178547639Y-110199303D01*
X178625590Y-110204155D01*
G36*
X178101041Y-109266784D02*
X178127553Y-109279882D01*
X178160247Y-109302706D01*
X178184075Y-109327596D01*
X178200394Y-109358849D01*
X178210560Y-109400766D01*
X178215928Y-109457644D01*
X178217856Y-109533784D01*
X178217969Y-109566517D01*
X178217639Y-109638256D01*
X178216273Y-109689527D01*
X178213300Y-109725004D01*
X178208151Y-109749363D01*
X178200257Y-109767280D01*
X178192043Y-109779502D01*
X178139613Y-109831505D01*
X178077870Y-109862784D01*
X178011264Y-109872192D01*
X177944242Y-109858580D01*
X177923008Y-109848954D01*
X177872176Y-109822459D01*
X177872176Y-110237652D01*
X177909275Y-110218468D01*
X177958157Y-110203625D01*
X178018239Y-110199822D01*
X178078236Y-110206843D01*
X178123544Y-110222613D01*
X178161125Y-110252647D01*
X178193236Y-110295624D01*
X178195650Y-110300036D01*
X178205833Y-110320821D01*
X178213270Y-110341770D01*
X178218389Y-110367148D01*
X178221619Y-110401218D01*
X178223387Y-110448241D01*
X178224123Y-110512482D01*
X178224256Y-110584776D01*
X178224256Y-110815422D01*
X178085939Y-110815422D01*
X178085939Y-110390133D01*
X178047251Y-110357579D01*
X178007062Y-110331540D01*
X177969003Y-110326805D01*
X177930734Y-110338989D01*
X177910338Y-110350920D01*
X177895158Y-110367913D01*
X177884362Y-110393595D01*
X177877117Y-110431591D01*
X177872592Y-110485526D01*
X177869956Y-110559025D01*
X177869028Y-110607947D01*
X177865889Y-110809135D01*
X177799874Y-110812936D01*
X177733860Y-110816736D01*
X177733860Y-109568250D01*
X177872176Y-109568250D01*
X177875703Y-109637854D01*
X177887585Y-109686169D01*
X177909780Y-109716231D01*
X177944241Y-109731071D01*
X177979058Y-109734036D01*
X178018471Y-109730628D01*
X178044629Y-109717217D01*
X178060986Y-109699496D01*
X178073863Y-109680435D01*
X178081528Y-109659201D01*
X178084939Y-109629449D01*
X178085051Y-109584836D01*
X178083903Y-109547480D01*
X178081268Y-109491204D01*
X178077344Y-109454258D01*
X178070737Y-109430823D01*
X178060051Y-109415080D01*
X178049967Y-109405980D01*
X178007830Y-109386137D01*
X177957960Y-109382932D01*
X177929324Y-109389768D01*
X177900972Y-109414064D01*
X177882191Y-109461328D01*
X177873088Y-109531224D01*
X177872176Y-109568250D01*
X177733860Y-109568250D01*
X177733860Y-109256214D01*
X177803018Y-109256214D01*
X177844540Y-109257856D01*
X177865962Y-109263687D01*
X177872174Y-109275061D01*
X177872176Y-109275398D01*
X177875058Y-109286538D01*
X177887770Y-109285273D01*
X177913043Y-109273033D01*
X177971931Y-109254307D01*
X178038185Y-109252339D01*
X178101041Y-109266784D01*
X178101041Y-109266784D01*
G37*
X178101041Y-109266784D02*
X178127553Y-109279882D01*
X178160247Y-109302706D01*
X178184075Y-109327596D01*
X178200394Y-109358849D01*
X178210560Y-109400766D01*
X178215928Y-109457644D01*
X178217856Y-109533784D01*
X178217969Y-109566517D01*
X178217639Y-109638256D01*
X178216273Y-109689527D01*
X178213300Y-109725004D01*
X178208151Y-109749363D01*
X178200257Y-109767280D01*
X178192043Y-109779502D01*
X178139613Y-109831505D01*
X178077870Y-109862784D01*
X178011264Y-109872192D01*
X177944242Y-109858580D01*
X177923008Y-109848954D01*
X177872176Y-109822459D01*
X177872176Y-110237652D01*
X177909275Y-110218468D01*
X177958157Y-110203625D01*
X178018239Y-110199822D01*
X178078236Y-110206843D01*
X178123544Y-110222613D01*
X178161125Y-110252647D01*
X178193236Y-110295624D01*
X178195650Y-110300036D01*
X178205833Y-110320821D01*
X178213270Y-110341770D01*
X178218389Y-110367148D01*
X178221619Y-110401218D01*
X178223387Y-110448241D01*
X178224123Y-110512482D01*
X178224256Y-110584776D01*
X178224256Y-110815422D01*
X178085939Y-110815422D01*
X178085939Y-110390133D01*
X178047251Y-110357579D01*
X178007062Y-110331540D01*
X177969003Y-110326805D01*
X177930734Y-110338989D01*
X177910338Y-110350920D01*
X177895158Y-110367913D01*
X177884362Y-110393595D01*
X177877117Y-110431591D01*
X177872592Y-110485526D01*
X177869956Y-110559025D01*
X177869028Y-110607947D01*
X177865889Y-110809135D01*
X177799874Y-110812936D01*
X177733860Y-110816736D01*
X177733860Y-109568250D01*
X177872176Y-109568250D01*
X177875703Y-109637854D01*
X177887585Y-109686169D01*
X177909780Y-109716231D01*
X177944241Y-109731071D01*
X177979058Y-109734036D01*
X178018471Y-109730628D01*
X178044629Y-109717217D01*
X178060986Y-109699496D01*
X178073863Y-109680435D01*
X178081528Y-109659201D01*
X178084939Y-109629449D01*
X178085051Y-109584836D01*
X178083903Y-109547480D01*
X178081268Y-109491204D01*
X178077344Y-109454258D01*
X178070737Y-109430823D01*
X178060051Y-109415080D01*
X178049967Y-109405980D01*
X178007830Y-109386137D01*
X177957960Y-109382932D01*
X177929324Y-109389768D01*
X177900972Y-109414064D01*
X177882191Y-109461328D01*
X177873088Y-109531224D01*
X177872176Y-109568250D01*
X177733860Y-109568250D01*
X177733860Y-109256214D01*
X177803018Y-109256214D01*
X177844540Y-109257856D01*
X177865962Y-109263687D01*
X177872174Y-109275061D01*
X177872176Y-109275398D01*
X177875058Y-109286538D01*
X177887770Y-109285273D01*
X177913043Y-109273033D01*
X177971931Y-109254307D01*
X178038185Y-109252339D01*
X178101041Y-109266784D01*
G04 #@! TD*
D12*
G04 #@! TO.N,Net-(C1-Pad1)*
G04 #@! TO.C,C1*
G36*
X157040105Y-86794804D02*
X157064373Y-86798404D01*
X157088172Y-86804365D01*
X157111271Y-86812630D01*
X157133450Y-86823120D01*
X157154493Y-86835732D01*
X157174199Y-86850347D01*
X157192377Y-86866823D01*
X157208853Y-86885001D01*
X157223468Y-86904707D01*
X157236080Y-86925750D01*
X157246570Y-86947929D01*
X157254835Y-86971028D01*
X157260796Y-86994827D01*
X157264396Y-87019095D01*
X157265600Y-87043599D01*
X157265600Y-87693601D01*
X157264396Y-87718105D01*
X157260796Y-87742373D01*
X157254835Y-87766172D01*
X157246570Y-87789271D01*
X157236080Y-87811450D01*
X157223468Y-87832493D01*
X157208853Y-87852199D01*
X157192377Y-87870377D01*
X157174199Y-87886853D01*
X157154493Y-87901468D01*
X157133450Y-87914080D01*
X157111271Y-87924570D01*
X157088172Y-87932835D01*
X157064373Y-87938796D01*
X157040105Y-87942396D01*
X157015601Y-87943600D01*
X156115599Y-87943600D01*
X156091095Y-87942396D01*
X156066827Y-87938796D01*
X156043028Y-87932835D01*
X156019929Y-87924570D01*
X155997750Y-87914080D01*
X155976707Y-87901468D01*
X155957001Y-87886853D01*
X155938823Y-87870377D01*
X155922347Y-87852199D01*
X155907732Y-87832493D01*
X155895120Y-87811450D01*
X155884630Y-87789271D01*
X155876365Y-87766172D01*
X155870404Y-87742373D01*
X155866804Y-87718105D01*
X155865600Y-87693601D01*
X155865600Y-87043599D01*
X155866804Y-87019095D01*
X155870404Y-86994827D01*
X155876365Y-86971028D01*
X155884630Y-86947929D01*
X155895120Y-86925750D01*
X155907732Y-86904707D01*
X155922347Y-86885001D01*
X155938823Y-86866823D01*
X155957001Y-86850347D01*
X155976707Y-86835732D01*
X155997750Y-86823120D01*
X156019929Y-86812630D01*
X156043028Y-86804365D01*
X156066827Y-86798404D01*
X156091095Y-86794804D01*
X156115599Y-86793600D01*
X157015601Y-86793600D01*
X157040105Y-86794804D01*
X157040105Y-86794804D01*
G37*
D13*
G04 #@! TD*
G04 #@! TO.P,C1,1*
G04 #@! TO.N,Net-(C1-Pad1)*
X156565600Y-87368600D03*
D12*
G04 #@! TO.N,GND*
G04 #@! TO.C,C1*
G36*
X157040105Y-84744804D02*
X157064373Y-84748404D01*
X157088172Y-84754365D01*
X157111271Y-84762630D01*
X157133450Y-84773120D01*
X157154493Y-84785732D01*
X157174199Y-84800347D01*
X157192377Y-84816823D01*
X157208853Y-84835001D01*
X157223468Y-84854707D01*
X157236080Y-84875750D01*
X157246570Y-84897929D01*
X157254835Y-84921028D01*
X157260796Y-84944827D01*
X157264396Y-84969095D01*
X157265600Y-84993599D01*
X157265600Y-85643601D01*
X157264396Y-85668105D01*
X157260796Y-85692373D01*
X157254835Y-85716172D01*
X157246570Y-85739271D01*
X157236080Y-85761450D01*
X157223468Y-85782493D01*
X157208853Y-85802199D01*
X157192377Y-85820377D01*
X157174199Y-85836853D01*
X157154493Y-85851468D01*
X157133450Y-85864080D01*
X157111271Y-85874570D01*
X157088172Y-85882835D01*
X157064373Y-85888796D01*
X157040105Y-85892396D01*
X157015601Y-85893600D01*
X156115599Y-85893600D01*
X156091095Y-85892396D01*
X156066827Y-85888796D01*
X156043028Y-85882835D01*
X156019929Y-85874570D01*
X155997750Y-85864080D01*
X155976707Y-85851468D01*
X155957001Y-85836853D01*
X155938823Y-85820377D01*
X155922347Y-85802199D01*
X155907732Y-85782493D01*
X155895120Y-85761450D01*
X155884630Y-85739271D01*
X155876365Y-85716172D01*
X155870404Y-85692373D01*
X155866804Y-85668105D01*
X155865600Y-85643601D01*
X155865600Y-84993599D01*
X155866804Y-84969095D01*
X155870404Y-84944827D01*
X155876365Y-84921028D01*
X155884630Y-84897929D01*
X155895120Y-84875750D01*
X155907732Y-84854707D01*
X155922347Y-84835001D01*
X155938823Y-84816823D01*
X155957001Y-84800347D01*
X155976707Y-84785732D01*
X155997750Y-84773120D01*
X156019929Y-84762630D01*
X156043028Y-84754365D01*
X156066827Y-84748404D01*
X156091095Y-84744804D01*
X156115599Y-84743600D01*
X157015601Y-84743600D01*
X157040105Y-84744804D01*
X157040105Y-84744804D01*
G37*
D13*
G04 #@! TD*
G04 #@! TO.P,C1,2*
G04 #@! TO.N,GND*
X156565600Y-85318600D03*
D12*
G04 #@! TO.N,GND*
G04 #@! TO.C,C2*
G36*
X154246105Y-84744804D02*
X154270373Y-84748404D01*
X154294172Y-84754365D01*
X154317271Y-84762630D01*
X154339450Y-84773120D01*
X154360493Y-84785732D01*
X154380199Y-84800347D01*
X154398377Y-84816823D01*
X154414853Y-84835001D01*
X154429468Y-84854707D01*
X154442080Y-84875750D01*
X154452570Y-84897929D01*
X154460835Y-84921028D01*
X154466796Y-84944827D01*
X154470396Y-84969095D01*
X154471600Y-84993599D01*
X154471600Y-85643601D01*
X154470396Y-85668105D01*
X154466796Y-85692373D01*
X154460835Y-85716172D01*
X154452570Y-85739271D01*
X154442080Y-85761450D01*
X154429468Y-85782493D01*
X154414853Y-85802199D01*
X154398377Y-85820377D01*
X154380199Y-85836853D01*
X154360493Y-85851468D01*
X154339450Y-85864080D01*
X154317271Y-85874570D01*
X154294172Y-85882835D01*
X154270373Y-85888796D01*
X154246105Y-85892396D01*
X154221601Y-85893600D01*
X153321599Y-85893600D01*
X153297095Y-85892396D01*
X153272827Y-85888796D01*
X153249028Y-85882835D01*
X153225929Y-85874570D01*
X153203750Y-85864080D01*
X153182707Y-85851468D01*
X153163001Y-85836853D01*
X153144823Y-85820377D01*
X153128347Y-85802199D01*
X153113732Y-85782493D01*
X153101120Y-85761450D01*
X153090630Y-85739271D01*
X153082365Y-85716172D01*
X153076404Y-85692373D01*
X153072804Y-85668105D01*
X153071600Y-85643601D01*
X153071600Y-84993599D01*
X153072804Y-84969095D01*
X153076404Y-84944827D01*
X153082365Y-84921028D01*
X153090630Y-84897929D01*
X153101120Y-84875750D01*
X153113732Y-84854707D01*
X153128347Y-84835001D01*
X153144823Y-84816823D01*
X153163001Y-84800347D01*
X153182707Y-84785732D01*
X153203750Y-84773120D01*
X153225929Y-84762630D01*
X153249028Y-84754365D01*
X153272827Y-84748404D01*
X153297095Y-84744804D01*
X153321599Y-84743600D01*
X154221601Y-84743600D01*
X154246105Y-84744804D01*
X154246105Y-84744804D01*
G37*
D13*
G04 #@! TD*
G04 #@! TO.P,C2,2*
G04 #@! TO.N,GND*
X153771600Y-85318600D03*
D12*
G04 #@! TO.N,Net-(C1-Pad1)*
G04 #@! TO.C,C2*
G36*
X154246105Y-86794804D02*
X154270373Y-86798404D01*
X154294172Y-86804365D01*
X154317271Y-86812630D01*
X154339450Y-86823120D01*
X154360493Y-86835732D01*
X154380199Y-86850347D01*
X154398377Y-86866823D01*
X154414853Y-86885001D01*
X154429468Y-86904707D01*
X154442080Y-86925750D01*
X154452570Y-86947929D01*
X154460835Y-86971028D01*
X154466796Y-86994827D01*
X154470396Y-87019095D01*
X154471600Y-87043599D01*
X154471600Y-87693601D01*
X154470396Y-87718105D01*
X154466796Y-87742373D01*
X154460835Y-87766172D01*
X154452570Y-87789271D01*
X154442080Y-87811450D01*
X154429468Y-87832493D01*
X154414853Y-87852199D01*
X154398377Y-87870377D01*
X154380199Y-87886853D01*
X154360493Y-87901468D01*
X154339450Y-87914080D01*
X154317271Y-87924570D01*
X154294172Y-87932835D01*
X154270373Y-87938796D01*
X154246105Y-87942396D01*
X154221601Y-87943600D01*
X153321599Y-87943600D01*
X153297095Y-87942396D01*
X153272827Y-87938796D01*
X153249028Y-87932835D01*
X153225929Y-87924570D01*
X153203750Y-87914080D01*
X153182707Y-87901468D01*
X153163001Y-87886853D01*
X153144823Y-87870377D01*
X153128347Y-87852199D01*
X153113732Y-87832493D01*
X153101120Y-87811450D01*
X153090630Y-87789271D01*
X153082365Y-87766172D01*
X153076404Y-87742373D01*
X153072804Y-87718105D01*
X153071600Y-87693601D01*
X153071600Y-87043599D01*
X153072804Y-87019095D01*
X153076404Y-86994827D01*
X153082365Y-86971028D01*
X153090630Y-86947929D01*
X153101120Y-86925750D01*
X153113732Y-86904707D01*
X153128347Y-86885001D01*
X153144823Y-86866823D01*
X153163001Y-86850347D01*
X153182707Y-86835732D01*
X153203750Y-86823120D01*
X153225929Y-86812630D01*
X153249028Y-86804365D01*
X153272827Y-86798404D01*
X153297095Y-86794804D01*
X153321599Y-86793600D01*
X154221601Y-86793600D01*
X154246105Y-86794804D01*
X154246105Y-86794804D01*
G37*
D13*
G04 #@! TD*
G04 #@! TO.P,C2,1*
G04 #@! TO.N,Net-(C1-Pad1)*
X153771600Y-87368600D03*
D12*
G04 #@! TO.N,Net-(C3-Pad1)*
G04 #@! TO.C,C3*
G36*
X165509305Y-85178604D02*
X165533573Y-85182204D01*
X165557372Y-85188165D01*
X165580471Y-85196430D01*
X165602650Y-85206920D01*
X165623693Y-85219532D01*
X165643399Y-85234147D01*
X165661577Y-85250623D01*
X165678053Y-85268801D01*
X165692668Y-85288507D01*
X165705280Y-85309550D01*
X165715770Y-85331729D01*
X165724035Y-85354828D01*
X165729996Y-85378627D01*
X165733596Y-85402895D01*
X165734800Y-85427399D01*
X165734800Y-86327401D01*
X165733596Y-86351905D01*
X165729996Y-86376173D01*
X165724035Y-86399972D01*
X165715770Y-86423071D01*
X165705280Y-86445250D01*
X165692668Y-86466293D01*
X165678053Y-86485999D01*
X165661577Y-86504177D01*
X165643399Y-86520653D01*
X165623693Y-86535268D01*
X165602650Y-86547880D01*
X165580471Y-86558370D01*
X165557372Y-86566635D01*
X165533573Y-86572596D01*
X165509305Y-86576196D01*
X165484801Y-86577400D01*
X164834799Y-86577400D01*
X164810295Y-86576196D01*
X164786027Y-86572596D01*
X164762228Y-86566635D01*
X164739129Y-86558370D01*
X164716950Y-86547880D01*
X164695907Y-86535268D01*
X164676201Y-86520653D01*
X164658023Y-86504177D01*
X164641547Y-86485999D01*
X164626932Y-86466293D01*
X164614320Y-86445250D01*
X164603830Y-86423071D01*
X164595565Y-86399972D01*
X164589604Y-86376173D01*
X164586004Y-86351905D01*
X164584800Y-86327401D01*
X164584800Y-85427399D01*
X164586004Y-85402895D01*
X164589604Y-85378627D01*
X164595565Y-85354828D01*
X164603830Y-85331729D01*
X164614320Y-85309550D01*
X164626932Y-85288507D01*
X164641547Y-85268801D01*
X164658023Y-85250623D01*
X164676201Y-85234147D01*
X164695907Y-85219532D01*
X164716950Y-85206920D01*
X164739129Y-85196430D01*
X164762228Y-85188165D01*
X164786027Y-85182204D01*
X164810295Y-85178604D01*
X164834799Y-85177400D01*
X165484801Y-85177400D01*
X165509305Y-85178604D01*
X165509305Y-85178604D01*
G37*
D13*
G04 #@! TD*
G04 #@! TO.P,C3,1*
G04 #@! TO.N,Net-(C3-Pad1)*
X165159800Y-85877400D03*
D12*
G04 #@! TO.N,GND*
G04 #@! TO.C,C3*
G36*
X163459305Y-85178604D02*
X163483573Y-85182204D01*
X163507372Y-85188165D01*
X163530471Y-85196430D01*
X163552650Y-85206920D01*
X163573693Y-85219532D01*
X163593399Y-85234147D01*
X163611577Y-85250623D01*
X163628053Y-85268801D01*
X163642668Y-85288507D01*
X163655280Y-85309550D01*
X163665770Y-85331729D01*
X163674035Y-85354828D01*
X163679996Y-85378627D01*
X163683596Y-85402895D01*
X163684800Y-85427399D01*
X163684800Y-86327401D01*
X163683596Y-86351905D01*
X163679996Y-86376173D01*
X163674035Y-86399972D01*
X163665770Y-86423071D01*
X163655280Y-86445250D01*
X163642668Y-86466293D01*
X163628053Y-86485999D01*
X163611577Y-86504177D01*
X163593399Y-86520653D01*
X163573693Y-86535268D01*
X163552650Y-86547880D01*
X163530471Y-86558370D01*
X163507372Y-86566635D01*
X163483573Y-86572596D01*
X163459305Y-86576196D01*
X163434801Y-86577400D01*
X162784799Y-86577400D01*
X162760295Y-86576196D01*
X162736027Y-86572596D01*
X162712228Y-86566635D01*
X162689129Y-86558370D01*
X162666950Y-86547880D01*
X162645907Y-86535268D01*
X162626201Y-86520653D01*
X162608023Y-86504177D01*
X162591547Y-86485999D01*
X162576932Y-86466293D01*
X162564320Y-86445250D01*
X162553830Y-86423071D01*
X162545565Y-86399972D01*
X162539604Y-86376173D01*
X162536004Y-86351905D01*
X162534800Y-86327401D01*
X162534800Y-85427399D01*
X162536004Y-85402895D01*
X162539604Y-85378627D01*
X162545565Y-85354828D01*
X162553830Y-85331729D01*
X162564320Y-85309550D01*
X162576932Y-85288507D01*
X162591547Y-85268801D01*
X162608023Y-85250623D01*
X162626201Y-85234147D01*
X162645907Y-85219532D01*
X162666950Y-85206920D01*
X162689129Y-85196430D01*
X162712228Y-85188165D01*
X162736027Y-85182204D01*
X162760295Y-85178604D01*
X162784799Y-85177400D01*
X163434801Y-85177400D01*
X163459305Y-85178604D01*
X163459305Y-85178604D01*
G37*
D13*
G04 #@! TD*
G04 #@! TO.P,C3,2*
G04 #@! TO.N,GND*
X163109800Y-85877400D03*
D12*
G04 #@! TO.N,Net-(D1-Pad2)*
G04 #@! TO.C,D1*
G36*
X172036542Y-81800374D02*
X172060203Y-81803884D01*
X172083407Y-81809696D01*
X172105929Y-81817754D01*
X172127553Y-81827982D01*
X172148070Y-81840279D01*
X172167283Y-81854529D01*
X172185007Y-81870593D01*
X172201071Y-81888317D01*
X172215321Y-81907530D01*
X172227618Y-81928047D01*
X172237846Y-81949671D01*
X172245904Y-81972193D01*
X172251716Y-81995397D01*
X172255226Y-82019058D01*
X172256400Y-82042950D01*
X172256400Y-82955450D01*
X172255226Y-82979342D01*
X172251716Y-83003003D01*
X172245904Y-83026207D01*
X172237846Y-83048729D01*
X172227618Y-83070353D01*
X172215321Y-83090870D01*
X172201071Y-83110083D01*
X172185007Y-83127807D01*
X172167283Y-83143871D01*
X172148070Y-83158121D01*
X172127553Y-83170418D01*
X172105929Y-83180646D01*
X172083407Y-83188704D01*
X172060203Y-83194516D01*
X172036542Y-83198026D01*
X172012650Y-83199200D01*
X171525150Y-83199200D01*
X171501258Y-83198026D01*
X171477597Y-83194516D01*
X171454393Y-83188704D01*
X171431871Y-83180646D01*
X171410247Y-83170418D01*
X171389730Y-83158121D01*
X171370517Y-83143871D01*
X171352793Y-83127807D01*
X171336729Y-83110083D01*
X171322479Y-83090870D01*
X171310182Y-83070353D01*
X171299954Y-83048729D01*
X171291896Y-83026207D01*
X171286084Y-83003003D01*
X171282574Y-82979342D01*
X171281400Y-82955450D01*
X171281400Y-82042950D01*
X171282574Y-82019058D01*
X171286084Y-81995397D01*
X171291896Y-81972193D01*
X171299954Y-81949671D01*
X171310182Y-81928047D01*
X171322479Y-81907530D01*
X171336729Y-81888317D01*
X171352793Y-81870593D01*
X171370517Y-81854529D01*
X171389730Y-81840279D01*
X171410247Y-81827982D01*
X171431871Y-81817754D01*
X171454393Y-81809696D01*
X171477597Y-81803884D01*
X171501258Y-81800374D01*
X171525150Y-81799200D01*
X172012650Y-81799200D01*
X172036542Y-81800374D01*
X172036542Y-81800374D01*
G37*
D14*
G04 #@! TD*
G04 #@! TO.P,D1,2*
G04 #@! TO.N,Net-(D1-Pad2)*
X171768900Y-82499200D03*
D12*
G04 #@! TO.N,Net-(D1-Pad1)*
G04 #@! TO.C,D1*
G36*
X170161542Y-81800374D02*
X170185203Y-81803884D01*
X170208407Y-81809696D01*
X170230929Y-81817754D01*
X170252553Y-81827982D01*
X170273070Y-81840279D01*
X170292283Y-81854529D01*
X170310007Y-81870593D01*
X170326071Y-81888317D01*
X170340321Y-81907530D01*
X170352618Y-81928047D01*
X170362846Y-81949671D01*
X170370904Y-81972193D01*
X170376716Y-81995397D01*
X170380226Y-82019058D01*
X170381400Y-82042950D01*
X170381400Y-82955450D01*
X170380226Y-82979342D01*
X170376716Y-83003003D01*
X170370904Y-83026207D01*
X170362846Y-83048729D01*
X170352618Y-83070353D01*
X170340321Y-83090870D01*
X170326071Y-83110083D01*
X170310007Y-83127807D01*
X170292283Y-83143871D01*
X170273070Y-83158121D01*
X170252553Y-83170418D01*
X170230929Y-83180646D01*
X170208407Y-83188704D01*
X170185203Y-83194516D01*
X170161542Y-83198026D01*
X170137650Y-83199200D01*
X169650150Y-83199200D01*
X169626258Y-83198026D01*
X169602597Y-83194516D01*
X169579393Y-83188704D01*
X169556871Y-83180646D01*
X169535247Y-83170418D01*
X169514730Y-83158121D01*
X169495517Y-83143871D01*
X169477793Y-83127807D01*
X169461729Y-83110083D01*
X169447479Y-83090870D01*
X169435182Y-83070353D01*
X169424954Y-83048729D01*
X169416896Y-83026207D01*
X169411084Y-83003003D01*
X169407574Y-82979342D01*
X169406400Y-82955450D01*
X169406400Y-82042950D01*
X169407574Y-82019058D01*
X169411084Y-81995397D01*
X169416896Y-81972193D01*
X169424954Y-81949671D01*
X169435182Y-81928047D01*
X169447479Y-81907530D01*
X169461729Y-81888317D01*
X169477793Y-81870593D01*
X169495517Y-81854529D01*
X169514730Y-81840279D01*
X169535247Y-81827982D01*
X169556871Y-81817754D01*
X169579393Y-81809696D01*
X169602597Y-81803884D01*
X169626258Y-81800374D01*
X169650150Y-81799200D01*
X170137650Y-81799200D01*
X170161542Y-81800374D01*
X170161542Y-81800374D01*
G37*
D14*
G04 #@! TD*
G04 #@! TO.P,D1,1*
G04 #@! TO.N,Net-(D1-Pad1)*
X169893900Y-82499200D03*
D12*
G04 #@! TO.N,Net-(D2-Pad1)*
G04 #@! TO.C,D2*
G36*
X170161542Y-104507974D02*
X170185203Y-104511484D01*
X170208407Y-104517296D01*
X170230929Y-104525354D01*
X170252553Y-104535582D01*
X170273070Y-104547879D01*
X170292283Y-104562129D01*
X170310007Y-104578193D01*
X170326071Y-104595917D01*
X170340321Y-104615130D01*
X170352618Y-104635647D01*
X170362846Y-104657271D01*
X170370904Y-104679793D01*
X170376716Y-104702997D01*
X170380226Y-104726658D01*
X170381400Y-104750550D01*
X170381400Y-105663050D01*
X170380226Y-105686942D01*
X170376716Y-105710603D01*
X170370904Y-105733807D01*
X170362846Y-105756329D01*
X170352618Y-105777953D01*
X170340321Y-105798470D01*
X170326071Y-105817683D01*
X170310007Y-105835407D01*
X170292283Y-105851471D01*
X170273070Y-105865721D01*
X170252553Y-105878018D01*
X170230929Y-105888246D01*
X170208407Y-105896304D01*
X170185203Y-105902116D01*
X170161542Y-105905626D01*
X170137650Y-105906800D01*
X169650150Y-105906800D01*
X169626258Y-105905626D01*
X169602597Y-105902116D01*
X169579393Y-105896304D01*
X169556871Y-105888246D01*
X169535247Y-105878018D01*
X169514730Y-105865721D01*
X169495517Y-105851471D01*
X169477793Y-105835407D01*
X169461729Y-105817683D01*
X169447479Y-105798470D01*
X169435182Y-105777953D01*
X169424954Y-105756329D01*
X169416896Y-105733807D01*
X169411084Y-105710603D01*
X169407574Y-105686942D01*
X169406400Y-105663050D01*
X169406400Y-104750550D01*
X169407574Y-104726658D01*
X169411084Y-104702997D01*
X169416896Y-104679793D01*
X169424954Y-104657271D01*
X169435182Y-104635647D01*
X169447479Y-104615130D01*
X169461729Y-104595917D01*
X169477793Y-104578193D01*
X169495517Y-104562129D01*
X169514730Y-104547879D01*
X169535247Y-104535582D01*
X169556871Y-104525354D01*
X169579393Y-104517296D01*
X169602597Y-104511484D01*
X169626258Y-104507974D01*
X169650150Y-104506800D01*
X170137650Y-104506800D01*
X170161542Y-104507974D01*
X170161542Y-104507974D01*
G37*
D14*
G04 #@! TD*
G04 #@! TO.P,D2,1*
G04 #@! TO.N,Net-(D2-Pad1)*
X169893900Y-105206800D03*
D12*
G04 #@! TO.N,Net-(D2-Pad2)*
G04 #@! TO.C,D2*
G36*
X172036542Y-104507974D02*
X172060203Y-104511484D01*
X172083407Y-104517296D01*
X172105929Y-104525354D01*
X172127553Y-104535582D01*
X172148070Y-104547879D01*
X172167283Y-104562129D01*
X172185007Y-104578193D01*
X172201071Y-104595917D01*
X172215321Y-104615130D01*
X172227618Y-104635647D01*
X172237846Y-104657271D01*
X172245904Y-104679793D01*
X172251716Y-104702997D01*
X172255226Y-104726658D01*
X172256400Y-104750550D01*
X172256400Y-105663050D01*
X172255226Y-105686942D01*
X172251716Y-105710603D01*
X172245904Y-105733807D01*
X172237846Y-105756329D01*
X172227618Y-105777953D01*
X172215321Y-105798470D01*
X172201071Y-105817683D01*
X172185007Y-105835407D01*
X172167283Y-105851471D01*
X172148070Y-105865721D01*
X172127553Y-105878018D01*
X172105929Y-105888246D01*
X172083407Y-105896304D01*
X172060203Y-105902116D01*
X172036542Y-105905626D01*
X172012650Y-105906800D01*
X171525150Y-105906800D01*
X171501258Y-105905626D01*
X171477597Y-105902116D01*
X171454393Y-105896304D01*
X171431871Y-105888246D01*
X171410247Y-105878018D01*
X171389730Y-105865721D01*
X171370517Y-105851471D01*
X171352793Y-105835407D01*
X171336729Y-105817683D01*
X171322479Y-105798470D01*
X171310182Y-105777953D01*
X171299954Y-105756329D01*
X171291896Y-105733807D01*
X171286084Y-105710603D01*
X171282574Y-105686942D01*
X171281400Y-105663050D01*
X171281400Y-104750550D01*
X171282574Y-104726658D01*
X171286084Y-104702997D01*
X171291896Y-104679793D01*
X171299954Y-104657271D01*
X171310182Y-104635647D01*
X171322479Y-104615130D01*
X171336729Y-104595917D01*
X171352793Y-104578193D01*
X171370517Y-104562129D01*
X171389730Y-104547879D01*
X171410247Y-104535582D01*
X171431871Y-104525354D01*
X171454393Y-104517296D01*
X171477597Y-104511484D01*
X171501258Y-104507974D01*
X171525150Y-104506800D01*
X172012650Y-104506800D01*
X172036542Y-104507974D01*
X172036542Y-104507974D01*
G37*
D14*
G04 #@! TD*
G04 #@! TO.P,D2,2*
G04 #@! TO.N,Net-(D2-Pad2)*
X171768900Y-105206800D03*
D15*
G04 #@! TO.P,J1,6*
G04 #@! TO.N,GND*
X147516000Y-96533600D03*
X147516000Y-91053600D03*
D16*
X148266000Y-90833600D03*
X148266000Y-96783600D03*
D17*
X149566000Y-90933600D03*
X149586000Y-96683600D03*
D18*
G04 #@! TO.P,J1,1*
G04 #@! TO.N,Net-(C1-Pad1)*
X149466000Y-92483600D03*
G04 #@! TO.P,J1,2*
G04 #@! TO.N,Net-(J1-Pad2)*
X149466000Y-93133600D03*
G04 #@! TO.P,J1,3*
G04 #@! TO.N,Net-(J1-Pad3)*
X149466000Y-93783600D03*
G04 #@! TO.P,J1,4*
G04 #@! TO.N,Net-(J1-Pad4)*
X149466000Y-94433600D03*
G04 #@! TO.P,J1,5*
G04 #@! TO.N,GND*
X149466000Y-95083600D03*
D19*
G04 #@! TO.P,J1,6*
X149586000Y-91363600D03*
X149586000Y-96203600D03*
D20*
X146586000Y-91053600D03*
X146586000Y-96513600D03*
D21*
X146316000Y-92823600D03*
X146316000Y-94743600D03*
G04 #@! TD*
D22*
G04 #@! TO.P,J2,1*
G04 #@! TO.N,Net-(C1-Pad1)*
X186359800Y-88874600D03*
D23*
G04 #@! TO.P,J2,2*
G04 #@! TO.N,Net-(C3-Pad1)*
X186359800Y-91414600D03*
G04 #@! TO.P,J2,3*
G04 #@! TO.N,Net-(J2-Pad3)*
X186359800Y-93954600D03*
G04 #@! TO.P,J2,4*
G04 #@! TO.N,Net-(J2-Pad4)*
X186359800Y-96494600D03*
G04 #@! TO.P,J2,5*
G04 #@! TO.N,GND*
X186359800Y-99034600D03*
G04 #@! TD*
D12*
G04 #@! TO.N,Net-(D1-Pad2)*
G04 #@! TO.C,R1*
G36*
X172205905Y-84010204D02*
X172230173Y-84013804D01*
X172253972Y-84019765D01*
X172277071Y-84028030D01*
X172299250Y-84038520D01*
X172320293Y-84051132D01*
X172339999Y-84065747D01*
X172358177Y-84082223D01*
X172374653Y-84100401D01*
X172389268Y-84120107D01*
X172401880Y-84141150D01*
X172412370Y-84163329D01*
X172420635Y-84186428D01*
X172426596Y-84210227D01*
X172430196Y-84234495D01*
X172431400Y-84258999D01*
X172431400Y-85159001D01*
X172430196Y-85183505D01*
X172426596Y-85207773D01*
X172420635Y-85231572D01*
X172412370Y-85254671D01*
X172401880Y-85276850D01*
X172389268Y-85297893D01*
X172374653Y-85317599D01*
X172358177Y-85335777D01*
X172339999Y-85352253D01*
X172320293Y-85366868D01*
X172299250Y-85379480D01*
X172277071Y-85389970D01*
X172253972Y-85398235D01*
X172230173Y-85404196D01*
X172205905Y-85407796D01*
X172181401Y-85409000D01*
X171531399Y-85409000D01*
X171506895Y-85407796D01*
X171482627Y-85404196D01*
X171458828Y-85398235D01*
X171435729Y-85389970D01*
X171413550Y-85379480D01*
X171392507Y-85366868D01*
X171372801Y-85352253D01*
X171354623Y-85335777D01*
X171338147Y-85317599D01*
X171323532Y-85297893D01*
X171310920Y-85276850D01*
X171300430Y-85254671D01*
X171292165Y-85231572D01*
X171286204Y-85207773D01*
X171282604Y-85183505D01*
X171281400Y-85159001D01*
X171281400Y-84258999D01*
X171282604Y-84234495D01*
X171286204Y-84210227D01*
X171292165Y-84186428D01*
X171300430Y-84163329D01*
X171310920Y-84141150D01*
X171323532Y-84120107D01*
X171338147Y-84100401D01*
X171354623Y-84082223D01*
X171372801Y-84065747D01*
X171392507Y-84051132D01*
X171413550Y-84038520D01*
X171435729Y-84028030D01*
X171458828Y-84019765D01*
X171482627Y-84013804D01*
X171506895Y-84010204D01*
X171531399Y-84009000D01*
X172181401Y-84009000D01*
X172205905Y-84010204D01*
X172205905Y-84010204D01*
G37*
D13*
G04 #@! TD*
G04 #@! TO.P,R1,2*
G04 #@! TO.N,Net-(D1-Pad2)*
X171856400Y-84709000D03*
D12*
G04 #@! TO.N,Net-(C1-Pad1)*
G04 #@! TO.C,R1*
G36*
X170155905Y-84010204D02*
X170180173Y-84013804D01*
X170203972Y-84019765D01*
X170227071Y-84028030D01*
X170249250Y-84038520D01*
X170270293Y-84051132D01*
X170289999Y-84065747D01*
X170308177Y-84082223D01*
X170324653Y-84100401D01*
X170339268Y-84120107D01*
X170351880Y-84141150D01*
X170362370Y-84163329D01*
X170370635Y-84186428D01*
X170376596Y-84210227D01*
X170380196Y-84234495D01*
X170381400Y-84258999D01*
X170381400Y-85159001D01*
X170380196Y-85183505D01*
X170376596Y-85207773D01*
X170370635Y-85231572D01*
X170362370Y-85254671D01*
X170351880Y-85276850D01*
X170339268Y-85297893D01*
X170324653Y-85317599D01*
X170308177Y-85335777D01*
X170289999Y-85352253D01*
X170270293Y-85366868D01*
X170249250Y-85379480D01*
X170227071Y-85389970D01*
X170203972Y-85398235D01*
X170180173Y-85404196D01*
X170155905Y-85407796D01*
X170131401Y-85409000D01*
X169481399Y-85409000D01*
X169456895Y-85407796D01*
X169432627Y-85404196D01*
X169408828Y-85398235D01*
X169385729Y-85389970D01*
X169363550Y-85379480D01*
X169342507Y-85366868D01*
X169322801Y-85352253D01*
X169304623Y-85335777D01*
X169288147Y-85317599D01*
X169273532Y-85297893D01*
X169260920Y-85276850D01*
X169250430Y-85254671D01*
X169242165Y-85231572D01*
X169236204Y-85207773D01*
X169232604Y-85183505D01*
X169231400Y-85159001D01*
X169231400Y-84258999D01*
X169232604Y-84234495D01*
X169236204Y-84210227D01*
X169242165Y-84186428D01*
X169250430Y-84163329D01*
X169260920Y-84141150D01*
X169273532Y-84120107D01*
X169288147Y-84100401D01*
X169304623Y-84082223D01*
X169322801Y-84065747D01*
X169342507Y-84051132D01*
X169363550Y-84038520D01*
X169385729Y-84028030D01*
X169408828Y-84019765D01*
X169432627Y-84013804D01*
X169456895Y-84010204D01*
X169481399Y-84009000D01*
X170131401Y-84009000D01*
X170155905Y-84010204D01*
X170155905Y-84010204D01*
G37*
D13*
G04 #@! TD*
G04 #@! TO.P,R1,1*
G04 #@! TO.N,Net-(C1-Pad1)*
X169806400Y-84709000D03*
D12*
G04 #@! TO.N,Net-(C1-Pad1)*
G04 #@! TO.C,R2*
G36*
X170155905Y-102196604D02*
X170180173Y-102200204D01*
X170203972Y-102206165D01*
X170227071Y-102214430D01*
X170249250Y-102224920D01*
X170270293Y-102237532D01*
X170289999Y-102252147D01*
X170308177Y-102268623D01*
X170324653Y-102286801D01*
X170339268Y-102306507D01*
X170351880Y-102327550D01*
X170362370Y-102349729D01*
X170370635Y-102372828D01*
X170376596Y-102396627D01*
X170380196Y-102420895D01*
X170381400Y-102445399D01*
X170381400Y-103345401D01*
X170380196Y-103369905D01*
X170376596Y-103394173D01*
X170370635Y-103417972D01*
X170362370Y-103441071D01*
X170351880Y-103463250D01*
X170339268Y-103484293D01*
X170324653Y-103503999D01*
X170308177Y-103522177D01*
X170289999Y-103538653D01*
X170270293Y-103553268D01*
X170249250Y-103565880D01*
X170227071Y-103576370D01*
X170203972Y-103584635D01*
X170180173Y-103590596D01*
X170155905Y-103594196D01*
X170131401Y-103595400D01*
X169481399Y-103595400D01*
X169456895Y-103594196D01*
X169432627Y-103590596D01*
X169408828Y-103584635D01*
X169385729Y-103576370D01*
X169363550Y-103565880D01*
X169342507Y-103553268D01*
X169322801Y-103538653D01*
X169304623Y-103522177D01*
X169288147Y-103503999D01*
X169273532Y-103484293D01*
X169260920Y-103463250D01*
X169250430Y-103441071D01*
X169242165Y-103417972D01*
X169236204Y-103394173D01*
X169232604Y-103369905D01*
X169231400Y-103345401D01*
X169231400Y-102445399D01*
X169232604Y-102420895D01*
X169236204Y-102396627D01*
X169242165Y-102372828D01*
X169250430Y-102349729D01*
X169260920Y-102327550D01*
X169273532Y-102306507D01*
X169288147Y-102286801D01*
X169304623Y-102268623D01*
X169322801Y-102252147D01*
X169342507Y-102237532D01*
X169363550Y-102224920D01*
X169385729Y-102214430D01*
X169408828Y-102206165D01*
X169432627Y-102200204D01*
X169456895Y-102196604D01*
X169481399Y-102195400D01*
X170131401Y-102195400D01*
X170155905Y-102196604D01*
X170155905Y-102196604D01*
G37*
D13*
G04 #@! TD*
G04 #@! TO.P,R2,1*
G04 #@! TO.N,Net-(C1-Pad1)*
X169806400Y-102895400D03*
D12*
G04 #@! TO.N,Net-(D2-Pad2)*
G04 #@! TO.C,R2*
G36*
X172205905Y-102196604D02*
X172230173Y-102200204D01*
X172253972Y-102206165D01*
X172277071Y-102214430D01*
X172299250Y-102224920D01*
X172320293Y-102237532D01*
X172339999Y-102252147D01*
X172358177Y-102268623D01*
X172374653Y-102286801D01*
X172389268Y-102306507D01*
X172401880Y-102327550D01*
X172412370Y-102349729D01*
X172420635Y-102372828D01*
X172426596Y-102396627D01*
X172430196Y-102420895D01*
X172431400Y-102445399D01*
X172431400Y-103345401D01*
X172430196Y-103369905D01*
X172426596Y-103394173D01*
X172420635Y-103417972D01*
X172412370Y-103441071D01*
X172401880Y-103463250D01*
X172389268Y-103484293D01*
X172374653Y-103503999D01*
X172358177Y-103522177D01*
X172339999Y-103538653D01*
X172320293Y-103553268D01*
X172299250Y-103565880D01*
X172277071Y-103576370D01*
X172253972Y-103584635D01*
X172230173Y-103590596D01*
X172205905Y-103594196D01*
X172181401Y-103595400D01*
X171531399Y-103595400D01*
X171506895Y-103594196D01*
X171482627Y-103590596D01*
X171458828Y-103584635D01*
X171435729Y-103576370D01*
X171413550Y-103565880D01*
X171392507Y-103553268D01*
X171372801Y-103538653D01*
X171354623Y-103522177D01*
X171338147Y-103503999D01*
X171323532Y-103484293D01*
X171310920Y-103463250D01*
X171300430Y-103441071D01*
X171292165Y-103417972D01*
X171286204Y-103394173D01*
X171282604Y-103369905D01*
X171281400Y-103345401D01*
X171281400Y-102445399D01*
X171282604Y-102420895D01*
X171286204Y-102396627D01*
X171292165Y-102372828D01*
X171300430Y-102349729D01*
X171310920Y-102327550D01*
X171323532Y-102306507D01*
X171338147Y-102286801D01*
X171354623Y-102268623D01*
X171372801Y-102252147D01*
X171392507Y-102237532D01*
X171413550Y-102224920D01*
X171435729Y-102214430D01*
X171458828Y-102206165D01*
X171482627Y-102200204D01*
X171506895Y-102196604D01*
X171531399Y-102195400D01*
X172181401Y-102195400D01*
X172205905Y-102196604D01*
X172205905Y-102196604D01*
G37*
D13*
G04 #@! TD*
G04 #@! TO.P,R2,2*
G04 #@! TO.N,Net-(D2-Pad2)*
X171856400Y-102895400D03*
D24*
G04 #@! TO.P,U1,1*
G04 #@! TO.N,Net-(J2-Pad3)*
X172611600Y-98033600D03*
G04 #@! TO.P,U1,2*
G04 #@! TO.N,Net-(U1-Pad2)*
X172611600Y-97383600D03*
G04 #@! TO.P,U1,3*
G04 #@! TO.N,Net-(U1-Pad3)*
X172611600Y-96733600D03*
G04 #@! TO.P,U1,4*
G04 #@! TO.N,Net-(C1-Pad1)*
X172611600Y-96083600D03*
G04 #@! TO.P,U1,5*
G04 #@! TO.N,Net-(J2-Pad4)*
X172611600Y-95433600D03*
G04 #@! TO.P,U1,6*
G04 #@! TO.N,Net-(U1-Pad6)*
X172611600Y-94783600D03*
G04 #@! TO.P,U1,7*
G04 #@! TO.N,GND*
X172611600Y-94133600D03*
G04 #@! TO.P,U1,8*
G04 #@! TO.N,N/C*
X172611600Y-93483600D03*
G04 #@! TO.P,U1,9*
G04 #@! TO.N,Net-(U1-Pad9)*
X172611600Y-92833600D03*
G04 #@! TO.P,U1,10*
G04 #@! TO.N,Net-(U1-Pad10)*
X172611600Y-92183600D03*
G04 #@! TO.P,U1,11*
G04 #@! TO.N,Net-(U1-Pad11)*
X172611600Y-91533600D03*
G04 #@! TO.P,U1,12*
G04 #@! TO.N,Net-(U1-Pad12)*
X172611600Y-90883600D03*
G04 #@! TO.P,U1,13*
G04 #@! TO.N,Net-(U1-Pad13)*
X172611600Y-90233600D03*
G04 #@! TO.P,U1,14*
G04 #@! TO.N,Net-(U1-Pad14)*
X172611600Y-89583600D03*
G04 #@! TO.P,U1,15*
G04 #@! TO.N,Net-(J1-Pad3)*
X165411600Y-89583600D03*
G04 #@! TO.P,U1,16*
G04 #@! TO.N,Net-(J1-Pad2)*
X165411600Y-90233600D03*
G04 #@! TO.P,U1,17*
G04 #@! TO.N,Net-(C3-Pad1)*
X165411600Y-90883600D03*
G04 #@! TO.P,U1,18*
G04 #@! TO.N,GND*
X165411600Y-91533600D03*
G04 #@! TO.P,U1,19*
G04 #@! TO.N,Net-(U1-Pad19)*
X165411600Y-92183600D03*
G04 #@! TO.P,U1,20*
G04 #@! TO.N,Net-(C1-Pad1)*
X165411600Y-92833600D03*
G04 #@! TO.P,U1,21*
G04 #@! TO.N,GND*
X165411600Y-93483600D03*
G04 #@! TO.P,U1,22*
G04 #@! TO.N,Net-(D2-Pad1)*
X165411600Y-94133600D03*
G04 #@! TO.P,U1,23*
G04 #@! TO.N,Net-(D1-Pad1)*
X165411600Y-94783600D03*
G04 #@! TO.P,U1,24*
G04 #@! TO.N,N/C*
X165411600Y-95433600D03*
G04 #@! TO.P,U1,25*
G04 #@! TO.N,GND*
X165411600Y-96083600D03*
G04 #@! TO.P,U1,26*
X165411600Y-96733600D03*
G04 #@! TO.P,U1,27*
G04 #@! TO.N,Net-(U1-Pad27)*
X165411600Y-97383600D03*
G04 #@! TO.P,U1,28*
G04 #@! TO.N,Net-(U1-Pad28)*
X165411600Y-98033600D03*
G04 #@! TD*
D25*
G04 #@! TO.N,*
X171170600Y-100076000D03*
X168681400Y-100965000D03*
G04 #@! TO.N,GND*
X160604200Y-86664800D03*
X160705800Y-91109800D03*
X163677600Y-96901000D03*
X161036000Y-96164400D03*
X174726600Y-94259400D03*
X174955200Y-99491800D03*
G04 #@! TO.N,Net-(C3-Pad1)*
X162229800Y-91338400D03*
X182676800Y-91414600D03*
G04 #@! TO.N,Net-(D1-Pad1)*
X167487600Y-94208600D03*
X168452800Y-82600800D03*
G04 #@! TO.N,Net-(J2-Pad4)*
X176809400Y-95910400D03*
G04 #@! TD*
D26*
G04 #@! TO.N,*
X171399200Y-100152200D02*
X171246800Y-100152200D01*
X171246800Y-100152200D02*
X171170600Y-100076000D01*
D27*
G04 #@! TO.N,Net-(C1-Pad1)*
X153771600Y-87368600D02*
X156565600Y-87368600D01*
D26*
X149466000Y-92483600D02*
X152397800Y-92483600D01*
X153771600Y-91109800D02*
X153771600Y-87368600D01*
X152397800Y-92483600D02*
X153771600Y-91109800D01*
X167919400Y-84709000D02*
X169806400Y-84709000D01*
X157868400Y-87368600D02*
X158496000Y-86741000D01*
X159816800Y-83464400D02*
X166674800Y-83464400D01*
X156565600Y-87368600D02*
X157868400Y-87368600D01*
X158496000Y-86741000D02*
X158496000Y-84785200D01*
X158496000Y-84785200D02*
X159816800Y-83464400D01*
X166674800Y-83464400D02*
X167919400Y-84709000D01*
X167919400Y-84709000D02*
X167919400Y-85293200D01*
X167919400Y-85293200D02*
X169341800Y-86715600D01*
X169341800Y-86715600D02*
X169341800Y-91694000D01*
X168202200Y-92833600D02*
X165411600Y-92833600D01*
X169341800Y-91694000D02*
X168202200Y-92833600D01*
X168202200Y-92949200D02*
X168202200Y-92833600D01*
X171336600Y-96083600D02*
X168202200Y-92949200D01*
X172611600Y-96083600D02*
X171336600Y-96083600D01*
X169806400Y-97613800D02*
X171336600Y-96083600D01*
X169806400Y-102895400D02*
X169806400Y-97613800D01*
X169341800Y-86715600D02*
X175691800Y-86715600D01*
X177850800Y-88874600D02*
X186359800Y-88874600D01*
X175691800Y-86715600D02*
X177850800Y-88874600D01*
G04 #@! TO.N,GND*
X164136600Y-93483600D02*
X163626800Y-92973800D01*
X165411600Y-93483600D02*
X164136600Y-93483600D01*
X164136600Y-91533600D02*
X165411600Y-91533600D01*
X163626800Y-92043400D02*
X164136600Y-91533600D01*
X163626800Y-92973800D02*
X163626800Y-92043400D01*
X163109800Y-85877400D02*
X161290000Y-85877400D01*
X161290000Y-85877400D02*
X160604200Y-86563200D01*
X160604200Y-86563200D02*
X160604200Y-86664800D01*
X165411600Y-96083600D02*
X165411600Y-96733600D01*
X165411600Y-96733600D02*
X163845000Y-96733600D01*
X163845000Y-96733600D02*
X163677600Y-96901000D01*
X173353800Y-94133600D02*
X173380400Y-94107000D01*
X172611600Y-94133600D02*
X173353800Y-94133600D01*
X173380400Y-94107000D02*
X174574200Y-94107000D01*
X174574200Y-94107000D02*
X174726600Y-94259400D01*
X146316000Y-91323600D02*
X146586000Y-91053600D01*
X146316000Y-92823600D02*
X146316000Y-91323600D01*
X146316000Y-96243600D02*
X146586000Y-96513600D01*
X146316000Y-94743600D02*
X146316000Y-96243600D01*
X149466000Y-96083600D02*
X149586000Y-96203600D01*
X149466000Y-95083600D02*
X149466000Y-96083600D01*
X149466000Y-95083600D02*
X151090600Y-95083600D01*
G04 #@! TO.N,Net-(C3-Pad1)*
X165411600Y-90883600D02*
X167383600Y-90883600D01*
X167383600Y-90883600D02*
X168351200Y-89916000D01*
X168351200Y-89916000D02*
X168351200Y-87122000D01*
X167106600Y-85877400D02*
X165159800Y-85877400D01*
X168351200Y-87122000D02*
X167106600Y-85877400D01*
X165411600Y-90883600D02*
X162684600Y-90883600D01*
X162684600Y-90883600D02*
X162229800Y-91338400D01*
X182676800Y-91414600D02*
X186359800Y-91414600D01*
G04 #@! TO.N,Net-(D1-Pad2)*
X171856400Y-82586700D02*
X171768900Y-82499200D01*
X171856400Y-84709000D02*
X171856400Y-82586700D01*
G04 #@! TO.N,Net-(D1-Pad1)*
X165411600Y-94783600D02*
X166912600Y-94783600D01*
X166912600Y-94783600D02*
X167487600Y-94208600D01*
X169792300Y-82600800D02*
X169893900Y-82499200D01*
X168452800Y-82600800D02*
X169792300Y-82600800D01*
G04 #@! TO.N,Net-(D2-Pad1)*
X165411600Y-94133600D02*
X163701800Y-94133600D01*
X163701800Y-94133600D02*
X162687000Y-95148400D01*
X162687000Y-95148400D02*
X162687000Y-102362000D01*
X165531800Y-105206800D02*
X162687000Y-102362000D01*
X169893900Y-105206800D02*
X165531800Y-105206800D01*
G04 #@! TO.N,Net-(D2-Pad2)*
X171768900Y-102982900D02*
X171856400Y-102895400D01*
X171768900Y-105206800D02*
X171768900Y-102982900D01*
G04 #@! TO.N,Net-(J1-Pad2)*
X149466000Y-93133600D02*
X154795800Y-93133600D01*
X166547800Y-87833200D02*
X167233600Y-88519000D01*
X154795800Y-93133600D02*
X160096200Y-87833200D01*
X167233600Y-88519000D02*
X167233600Y-89686600D01*
X166686600Y-90233600D02*
X165411600Y-90233600D01*
X160096200Y-87833200D02*
X166547800Y-87833200D01*
X167233600Y-89686600D02*
X166686600Y-90233600D01*
G04 #@! TO.N,Net-(J1-Pad3)*
X149466000Y-93783600D02*
X155492000Y-93783600D01*
X159692000Y-89583600D02*
X165411600Y-89583600D01*
X155492000Y-93783600D02*
X159692000Y-89583600D01*
G04 #@! TO.N,Net-(J2-Pad3)*
X186359800Y-93954600D02*
X180543200Y-93954600D01*
X176464200Y-98033600D02*
X172611600Y-98033600D01*
X180543200Y-93954600D02*
X176464200Y-98033600D01*
G04 #@! TO.N,Net-(J2-Pad4)*
X172611600Y-95433600D02*
X176332600Y-95433600D01*
X176332600Y-95433600D02*
X176809400Y-95910400D01*
G04 #@! TD*
D28*
G04 #@! TO.N,GND*
G36*
X170915410Y-69618401D02*
X172807482Y-69842342D01*
X174676152Y-70214044D01*
X176509897Y-70731214D01*
X178297413Y-71390663D01*
X180027679Y-72188327D01*
X181690028Y-73119286D01*
X183274209Y-74177803D01*
X184770457Y-75357349D01*
X186169546Y-76650654D01*
X187462851Y-78049743D01*
X188642397Y-79545991D01*
X189700914Y-81130172D01*
X190631873Y-82792521D01*
X191429537Y-84522787D01*
X192088986Y-86310303D01*
X192606156Y-88144048D01*
X192977858Y-90012718D01*
X193201799Y-91904790D01*
X193276600Y-93808600D01*
X193201799Y-95712410D01*
X192977858Y-97604482D01*
X192606156Y-99473152D01*
X192088986Y-101306897D01*
X191429537Y-103094413D01*
X190631873Y-104824679D01*
X189700914Y-106487028D01*
X188642397Y-108071209D01*
X187462851Y-109567457D01*
X186169546Y-110966546D01*
X184770457Y-112259851D01*
X183274209Y-113439397D01*
X181690028Y-114497914D01*
X180027679Y-115428873D01*
X178297413Y-116226537D01*
X176509897Y-116885986D01*
X174676152Y-117403156D01*
X172807482Y-117774858D01*
X170915410Y-117998799D01*
X169011600Y-118073600D01*
X167107790Y-117998799D01*
X165215718Y-117774858D01*
X163347048Y-117403156D01*
X161513303Y-116885986D01*
X159725787Y-116226537D01*
X157995521Y-115428873D01*
X156333172Y-114497914D01*
X154748991Y-113439397D01*
X153252743Y-112259851D01*
X151853654Y-110966546D01*
X150560349Y-109567457D01*
X150527938Y-109526343D01*
X176503436Y-109526343D01*
X176504242Y-109568912D01*
X176504242Y-109568914D01*
X176504917Y-109604625D01*
X176506469Y-109611725D01*
X176505347Y-109618902D01*
X176506971Y-109658281D01*
X176509677Y-109669457D01*
X176508303Y-109680877D01*
X176511988Y-109728899D01*
X176521206Y-109761830D01*
X176520729Y-109796023D01*
X176527007Y-109830059D01*
X176548930Y-109885147D01*
X176558996Y-109943578D01*
X176569362Y-109970549D01*
X176598494Y-110016677D01*
X176616698Y-110068102D01*
X176632650Y-110094921D01*
X176644115Y-110107657D01*
X176650679Y-110123490D01*
X176651359Y-110124507D01*
X176684410Y-110157537D01*
X176685367Y-110159947D01*
X176686764Y-110161386D01*
X176708612Y-110197946D01*
X176747892Y-110241400D01*
X176798166Y-110278789D01*
X176799720Y-110280515D01*
X176801860Y-110281536D01*
X176807541Y-110285761D01*
X176859332Y-110339095D01*
X176907393Y-110372238D01*
X176946526Y-110389124D01*
X176948268Y-110390420D01*
X176951296Y-110391183D01*
X176985287Y-110405850D01*
X177058279Y-110449082D01*
X177093860Y-110461603D01*
X177093860Y-110816736D01*
X177097500Y-110835037D01*
X177094918Y-110853516D01*
X177121740Y-110956898D01*
X177142577Y-111061653D01*
X177152943Y-111077167D01*
X177157629Y-111095228D01*
X177221973Y-111180478D01*
X177281312Y-111269284D01*
X177296827Y-111279650D01*
X177308067Y-111294543D01*
X177400135Y-111348679D01*
X177488943Y-111408019D01*
X177507243Y-111411659D01*
X177523328Y-111421117D01*
X177629105Y-111435899D01*
X177733860Y-111456736D01*
X177752161Y-111453096D01*
X177770640Y-111455678D01*
X177836654Y-111451878D01*
X177836657Y-111451877D01*
X177836663Y-111451878D01*
X177902678Y-111448077D01*
X177966180Y-111431601D01*
X178085939Y-111455422D01*
X178224256Y-111455422D01*
X178330446Y-111434300D01*
X178347564Y-111440221D01*
X178395835Y-111446860D01*
X178430240Y-111444804D01*
X178463827Y-111452540D01*
X178516614Y-111454125D01*
X178550576Y-111448423D01*
X178584768Y-111452539D01*
X178632394Y-111448886D01*
X178635254Y-111448086D01*
X178646534Y-111451162D01*
X178685031Y-111453858D01*
X178707512Y-111451000D01*
X178729741Y-111455422D01*
X178790097Y-111455422D01*
X178852969Y-111442916D01*
X178915840Y-111455422D01*
X179041582Y-111455422D01*
X179263278Y-111411324D01*
X179274301Y-111416696D01*
X179329805Y-111431291D01*
X179417112Y-111436603D01*
X179503162Y-111452241D01*
X179571433Y-111451109D01*
X179621212Y-111440346D01*
X179680555Y-111453970D01*
X179720696Y-111455147D01*
X179730100Y-111453561D01*
X179739454Y-111455422D01*
X179808612Y-111455422D01*
X179925836Y-111432105D01*
X179997977Y-111453047D01*
X180025705Y-111449980D01*
X180053064Y-111455422D01*
X180168807Y-111455422D01*
X180202630Y-111448694D01*
X180236976Y-111451781D01*
X180290238Y-111435126D01*
X180351086Y-111453613D01*
X180403473Y-111448476D01*
X180455654Y-111455371D01*
X180513945Y-111451578D01*
X180513946Y-111451578D01*
X180572249Y-111447785D01*
X180578462Y-111446124D01*
X180584853Y-111446840D01*
X180683096Y-111418477D01*
X180704949Y-111424620D01*
X180761706Y-111429039D01*
X180816204Y-111445498D01*
X180877857Y-111451494D01*
X180928910Y-111446402D01*
X180929648Y-111446502D01*
X180932732Y-111447453D01*
X180935077Y-111447233D01*
X180979756Y-111453251D01*
X181038373Y-111449585D01*
X181051114Y-111446212D01*
X181079376Y-111453076D01*
X181121915Y-111454860D01*
X181135374Y-111452765D01*
X181148732Y-111455422D01*
X181218852Y-111455422D01*
X181224269Y-111454344D01*
X181229704Y-111455330D01*
X181277542Y-111444968D01*
X181330097Y-111455422D01*
X181468414Y-111455422D01*
X181709033Y-111407560D01*
X181722225Y-111414452D01*
X181742564Y-111420413D01*
X181797332Y-111425286D01*
X181849686Y-111442084D01*
X181922308Y-111450408D01*
X181988011Y-111444993D01*
X182053574Y-111451902D01*
X182130258Y-111444877D01*
X182195451Y-111425585D01*
X182263055Y-111418324D01*
X182332320Y-111396643D01*
X182378564Y-111371397D01*
X182429329Y-111357307D01*
X182453729Y-111345001D01*
X182472915Y-111330004D01*
X182495826Y-111321747D01*
X182530813Y-111300666D01*
X182564974Y-111269561D01*
X182605756Y-111247845D01*
X182626960Y-111230500D01*
X182652658Y-111199288D01*
X182681311Y-111179781D01*
X182698563Y-111153470D01*
X182723972Y-111131809D01*
X182727102Y-111127846D01*
X182752624Y-111077868D01*
X182785681Y-111037717D01*
X182795439Y-111005730D01*
X182818241Y-110970956D01*
X182824098Y-110956462D01*
X182829554Y-110927734D01*
X182843314Y-110901938D01*
X182850945Y-110823785D01*
X182858546Y-110798868D01*
X182857020Y-110783117D01*
X182870691Y-110711132D01*
X182864739Y-110682506D01*
X182867444Y-110654794D01*
X182888018Y-110551363D01*
X182887951Y-110551024D01*
X182888018Y-110550684D01*
X182887948Y-110484669D01*
X182887626Y-110483059D01*
X182887936Y-110481449D01*
X182887917Y-110478303D01*
X182913560Y-110475370D01*
X182984548Y-110452613D01*
X183059703Y-110410912D01*
X183139431Y-110378812D01*
X183197153Y-110341068D01*
X183235459Y-110303517D01*
X183281206Y-110275499D01*
X183324443Y-110235551D01*
X183353947Y-110194965D01*
X183392153Y-110162431D01*
X183426684Y-110094907D01*
X183471275Y-110033566D01*
X183483001Y-109984779D01*
X183505849Y-109940100D01*
X183511911Y-109864500D01*
X183529633Y-109790765D01*
X183521796Y-109741203D01*
X183525807Y-109691182D01*
X183517765Y-109666308D01*
X183529305Y-109608293D01*
X183529305Y-109521092D01*
X183527049Y-109509749D01*
X183528900Y-109498335D01*
X183527259Y-109452214D01*
X183522070Y-109430242D01*
X183524125Y-109407756D01*
X183519306Y-109362125D01*
X183508334Y-109326851D01*
X183507475Y-109289924D01*
X183500590Y-109259077D01*
X183476794Y-109205206D01*
X183464716Y-109147562D01*
X183459697Y-109135786D01*
X183422512Y-109081344D01*
X183396113Y-109020939D01*
X183359583Y-108968489D01*
X183297302Y-108908569D01*
X183242796Y-108841498D01*
X183190011Y-108797752D01*
X183117534Y-108758563D01*
X183050998Y-108709971D01*
X182989269Y-108681329D01*
X182928081Y-108666480D01*
X182870979Y-108639968D01*
X182838782Y-108632146D01*
X182777204Y-108629560D01*
X182717373Y-108614745D01*
X182640655Y-108611184D01*
X182544305Y-108625743D01*
X182447057Y-108631845D01*
X182379489Y-108649748D01*
X182375895Y-108648487D01*
X182379800Y-108637816D01*
X182409166Y-108589249D01*
X182414910Y-108551532D01*
X182433824Y-108507608D01*
X182434076Y-108489501D01*
X182440300Y-108472493D01*
X182437418Y-108403742D01*
X182446763Y-108342380D01*
X182436692Y-108301503D01*
X182437298Y-108257917D01*
X182436796Y-108255196D01*
X182430531Y-108239455D01*
X182429841Y-108222996D01*
X182403218Y-108165642D01*
X182387024Y-108099915D01*
X182376652Y-108077764D01*
X182360104Y-108055271D01*
X182351113Y-108028834D01*
X182328956Y-107990509D01*
X182321865Y-107982433D01*
X182318070Y-107972378D01*
X182312149Y-107962875D01*
X182330215Y-107958794D01*
X182341594Y-107953732D01*
X182354022Y-107952934D01*
X182391574Y-107942924D01*
X182420767Y-107928575D01*
X182443150Y-107925891D01*
X182450330Y-107921856D01*
X182461868Y-107919758D01*
X182479591Y-107912757D01*
X182564995Y-107857707D01*
X182614593Y-107835874D01*
X182627715Y-107822162D01*
X182660841Y-107803545D01*
X182672975Y-107788105D01*
X182689482Y-107777465D01*
X182739154Y-107705715D01*
X182787247Y-107655461D01*
X182797061Y-107630211D01*
X182815141Y-107607206D01*
X182818106Y-107601365D01*
X182822674Y-107585074D01*
X182831621Y-107572150D01*
X182846637Y-107502669D01*
X182877716Y-107422711D01*
X182882659Y-107394652D01*
X182882180Y-107372850D01*
X182885524Y-107360923D01*
X182884874Y-107355498D01*
X182890108Y-107337319D01*
X182894025Y-107290802D01*
X182892699Y-107279047D01*
X182895556Y-107267569D01*
X182898445Y-107206955D01*
X182897420Y-107200112D01*
X182898948Y-107193364D01*
X182900804Y-107123010D01*
X182899948Y-107118022D01*
X182900989Y-107113069D01*
X182901810Y-107037334D01*
X182900989Y-107032961D01*
X182901845Y-107028595D01*
X182901629Y-106951836D01*
X182900706Y-106947265D01*
X182901538Y-106942674D01*
X182900280Y-106869248D01*
X182899047Y-106863559D01*
X182899982Y-106857812D01*
X182897680Y-106792080D01*
X182895644Y-106783439D01*
X182896831Y-106774641D01*
X182893483Y-106720961D01*
X182888903Y-106703649D01*
X182890314Y-106685798D01*
X182885916Y-106648528D01*
X182865943Y-106586983D01*
X182858022Y-106522769D01*
X182852570Y-106506266D01*
X182844025Y-106491181D01*
X182840986Y-106474109D01*
X182817276Y-106437023D01*
X182808833Y-106411008D01*
X182800095Y-106400770D01*
X182796396Y-106389545D01*
X182767332Y-106355801D01*
X182729485Y-106288993D01*
X182715816Y-106278326D01*
X182706476Y-106263717D01*
X182660211Y-106231433D01*
X182633428Y-106200337D01*
X182583830Y-106175326D01*
X182532620Y-106135362D01*
X182515911Y-106130738D01*
X182501691Y-106120815D01*
X182496126Y-106118377D01*
X182451375Y-106108531D01*
X182410459Y-106087898D01*
X182382773Y-106080214D01*
X182368992Y-106079187D01*
X182356402Y-106073496D01*
X182312203Y-106063231D01*
X182321695Y-106048322D01*
X182324960Y-106039918D01*
X182331010Y-106033233D01*
X182350247Y-106001084D01*
X182361314Y-105970081D01*
X182380807Y-105943555D01*
X182387669Y-105928880D01*
X182402363Y-105869107D01*
X182428695Y-105813472D01*
X182430539Y-105776158D01*
X182434199Y-105765904D01*
X182433108Y-105744034D01*
X182447280Y-105686384D01*
X182437981Y-105625537D01*
X182441018Y-105564060D01*
X182419300Y-105503307D01*
X182416798Y-105486942D01*
X182413592Y-105457576D01*
X182411815Y-105454334D01*
X182409553Y-105439535D01*
X182377679Y-105386882D01*
X182356958Y-105328919D01*
X182352190Y-105320959D01*
X182318020Y-105283237D01*
X182293553Y-105238605D01*
X182273609Y-105214821D01*
X182263482Y-105206688D01*
X182256787Y-105195555D01*
X182224067Y-105159560D01*
X182219551Y-105156221D01*
X182216575Y-105151460D01*
X182174083Y-105106304D01*
X182171316Y-105104331D01*
X182169486Y-105101470D01*
X182120226Y-105050203D01*
X182118129Y-105048740D01*
X182116734Y-105046597D01*
X182063708Y-104992270D01*
X182061820Y-104990975D01*
X182060557Y-104989064D01*
X182006772Y-104934728D01*
X182004746Y-104933359D01*
X182003383Y-104931330D01*
X181951839Y-104880033D01*
X181949254Y-104878315D01*
X181947500Y-104875756D01*
X181901201Y-104830548D01*
X181897157Y-104827915D01*
X181894369Y-104823975D01*
X181856320Y-104787908D01*
X181847847Y-104782568D01*
X181841814Y-104774576D01*
X181815019Y-104750698D01*
X181804399Y-104744454D01*
X181802837Y-104742381D01*
X181777627Y-104727533D01*
X181752234Y-104701417D01*
X181739694Y-104692781D01*
X181661258Y-104658994D01*
X181587668Y-104615651D01*
X181547555Y-104610015D01*
X181510352Y-104593990D01*
X181424957Y-104592791D01*
X181340381Y-104580909D01*
X181301163Y-104591054D01*
X181260660Y-104590485D01*
X181181308Y-104622056D01*
X181098623Y-104643444D01*
X181091661Y-104646802D01*
X181066414Y-104665829D01*
X181036732Y-104676693D01*
X181011171Y-104692267D01*
X181005438Y-104697539D01*
X180998189Y-104700391D01*
X180968620Y-104719392D01*
X180958837Y-104667501D01*
X180934114Y-104606082D01*
X180921198Y-104541149D01*
X180887942Y-104491378D01*
X180865590Y-104435849D01*
X180819245Y-104388567D01*
X180782463Y-104333518D01*
X180732692Y-104300262D01*
X180690791Y-104257513D01*
X180629880Y-104231565D01*
X180574832Y-104194783D01*
X180516124Y-104183105D01*
X180461053Y-104159645D01*
X180394848Y-104158982D01*
X180329915Y-104146066D01*
X179702260Y-104146066D01*
X179637327Y-104158982D01*
X179571123Y-104159645D01*
X179516052Y-104183105D01*
X179457343Y-104194783D01*
X179402294Y-104231565D01*
X179341384Y-104257513D01*
X179299482Y-104300263D01*
X179249712Y-104333518D01*
X179212931Y-104388564D01*
X179166585Y-104435848D01*
X179144232Y-104491380D01*
X179110977Y-104541149D01*
X179098061Y-104606081D01*
X179073338Y-104667501D01*
X179063566Y-104719337D01*
X179047448Y-104708878D01*
X179042224Y-104706796D01*
X179038127Y-104702943D01*
X179007591Y-104683868D01*
X178986492Y-104675878D01*
X178969023Y-104661603D01*
X178956257Y-104654814D01*
X178878059Y-104631273D01*
X178803831Y-104597245D01*
X178776139Y-104596216D01*
X178774061Y-104595429D01*
X178763599Y-104595750D01*
X178759565Y-104595600D01*
X178717142Y-104582829D01*
X178635889Y-104591005D01*
X178554288Y-104587973D01*
X178512758Y-104603395D01*
X178468681Y-104607830D01*
X178452812Y-104616355D01*
X178446930Y-104617083D01*
X178391948Y-104648257D01*
X178320192Y-104674903D01*
X178312351Y-104679731D01*
X178281458Y-104708411D01*
X178248700Y-104726009D01*
X178243421Y-104732470D01*
X178229702Y-104740248D01*
X178206264Y-104760481D01*
X178198212Y-104770806D01*
X178187091Y-104777718D01*
X178151622Y-104810923D01*
X178148328Y-104815517D01*
X178143578Y-104818585D01*
X178099082Y-104861712D01*
X178097140Y-104864522D01*
X178094291Y-104866405D01*
X178043776Y-104916404D01*
X178042338Y-104918532D01*
X178040209Y-104919963D01*
X177986678Y-104973788D01*
X177985406Y-104975704D01*
X177983506Y-104977000D01*
X177929965Y-105031600D01*
X177928622Y-105033653D01*
X177926605Y-105035052D01*
X177876059Y-105087380D01*
X177874375Y-105089997D01*
X177871836Y-105091794D01*
X177827291Y-105138799D01*
X177824712Y-105142893D01*
X177820805Y-105145746D01*
X177785266Y-105184381D01*
X177780046Y-105192946D01*
X177772130Y-105199110D01*
X177748603Y-105226326D01*
X177728818Y-105261163D01*
X177700498Y-105289504D01*
X177691988Y-105302250D01*
X177673506Y-105346914D01*
X177644836Y-105385829D01*
X177634682Y-105426921D01*
X177625285Y-105443467D01*
X177622549Y-105465459D01*
X177610112Y-105489920D01*
X177609135Y-105502479D01*
X177596509Y-105532991D01*
X177596526Y-105581325D01*
X177584930Y-105628253D01*
X177594457Y-105691098D01*
X177590738Y-105738883D01*
X177596590Y-105756839D01*
X177596599Y-105782707D01*
X177615111Y-105827354D01*
X177622356Y-105875148D01*
X177624335Y-105880624D01*
X177651705Y-105925961D01*
X177668113Y-105976308D01*
X177681820Y-106000735D01*
X177691435Y-106011972D01*
X177696652Y-106025810D01*
X177719991Y-106063293D01*
X177702875Y-106067083D01*
X177695046Y-106070526D01*
X177686502Y-106070935D01*
X177649016Y-106080276D01*
X177622290Y-106092877D01*
X177593027Y-106096976D01*
X177576564Y-106102717D01*
X177476852Y-106161393D01*
X177476170Y-106161767D01*
X177451779Y-106173267D01*
X177417276Y-106188447D01*
X177405767Y-106200468D01*
X177375504Y-106217104D01*
X177369551Y-106224533D01*
X177361346Y-106229362D01*
X177299119Y-106311865D01*
X177244586Y-106368826D01*
X177235758Y-106391524D01*
X177219365Y-106411985D01*
X177216408Y-106417676D01*
X177214588Y-106423939D01*
X177210976Y-106428728D01*
X177192693Y-106499293D01*
X177189292Y-106510997D01*
X177154071Y-106601559D01*
X177149166Y-106629369D01*
X177149566Y-106647722D01*
X177146732Y-106657474D01*
X177147708Y-106666317D01*
X177141642Y-106687463D01*
X177137788Y-106733783D01*
X177139136Y-106745623D01*
X177136271Y-106757194D01*
X177133466Y-106817664D01*
X177134503Y-106824527D01*
X177132980Y-106831294D01*
X177131220Y-106901557D01*
X177132084Y-106906551D01*
X177131048Y-106911513D01*
X177130330Y-106987210D01*
X177131158Y-106991590D01*
X177130307Y-106995964D01*
X177130629Y-107072738D01*
X177131556Y-107077296D01*
X177130732Y-107081877D01*
X177132090Y-107155369D01*
X177133327Y-107161038D01*
X177132402Y-107166767D01*
X177134793Y-107232617D01*
X177136831Y-107241219D01*
X177135660Y-107249981D01*
X177139082Y-107303833D01*
X177143641Y-107320986D01*
X177142255Y-107338676D01*
X177146705Y-107376169D01*
X177166290Y-107436378D01*
X177167777Y-107448815D01*
X177170472Y-107486652D01*
X177172877Y-107491460D01*
X177173808Y-107499247D01*
X177179282Y-107516024D01*
X177209027Y-107568987D01*
X177220080Y-107608552D01*
X177223864Y-107613377D01*
X177223949Y-107613637D01*
X177225400Y-107615334D01*
X177251453Y-107648551D01*
X177282183Y-107709988D01*
X177293941Y-107720183D01*
X177301562Y-107733752D01*
X177345182Y-107768054D01*
X177374192Y-107805040D01*
X177424491Y-107833372D01*
X177470856Y-107873572D01*
X177474178Y-107875465D01*
X177487359Y-107879856D01*
X177497856Y-107888111D01*
X177545329Y-107901438D01*
X177591765Y-107927594D01*
X177616538Y-107935711D01*
X177639620Y-107938501D01*
X177660645Y-107948431D01*
X177703621Y-107959171D01*
X177713818Y-107959666D01*
X177719966Y-107962338D01*
X177706203Y-107984546D01*
X177702001Y-107995762D01*
X177694155Y-108004811D01*
X177674835Y-108038713D01*
X177663985Y-108071277D01*
X177649303Y-108090495D01*
X177647015Y-108099105D01*
X177640176Y-108109289D01*
X177633185Y-108126056D01*
X177614573Y-108218496D01*
X177593520Y-108275151D01*
X177594340Y-108297358D01*
X177585179Y-108331837D01*
X177587804Y-108351454D01*
X177583897Y-108370858D01*
X177600098Y-108453311D01*
X177602734Y-108524697D01*
X177614385Y-108550127D01*
X177618294Y-108579347D01*
X177619800Y-108583756D01*
X177628766Y-108599210D01*
X177632043Y-108615889D01*
X177644125Y-108634063D01*
X177596878Y-108643461D01*
X177546818Y-108627191D01*
X177465118Y-108617514D01*
X177417813Y-108621233D01*
X177371020Y-108613348D01*
X177340154Y-108614256D01*
X177294811Y-108624670D01*
X177248296Y-108623621D01*
X177184996Y-108634735D01*
X177095792Y-108669350D01*
X177003770Y-108695538D01*
X176952009Y-108722066D01*
X176881535Y-108777894D01*
X176805299Y-108825553D01*
X176757042Y-108870967D01*
X176735828Y-108900721D01*
X176707226Y-108923467D01*
X176699508Y-108932582D01*
X176682787Y-108962740D01*
X176658237Y-108986957D01*
X176637421Y-109017654D01*
X176617817Y-109064083D01*
X176612300Y-109069892D01*
X176603484Y-109092832D01*
X176571588Y-109142450D01*
X176557907Y-109177208D01*
X176548836Y-109227451D01*
X176540285Y-109247702D01*
X176540218Y-109257461D01*
X176522723Y-109302987D01*
X176515137Y-109347036D01*
X176516197Y-109388109D01*
X176506449Y-109428023D01*
X176503918Y-109486588D01*
X176506993Y-109506506D01*
X176503436Y-109526343D01*
X150527938Y-109526343D01*
X149380803Y-108071209D01*
X148322286Y-106487028D01*
X147391327Y-104824679D01*
X146593663Y-103094413D01*
X145934214Y-101306897D01*
X145817878Y-100894400D01*
X149416153Y-100894400D01*
X149416153Y-105564400D01*
X161124248Y-105564400D01*
X161124248Y-100894400D01*
X149416153Y-100894400D01*
X145817878Y-100894400D01*
X145417044Y-99473152D01*
X145045342Y-97604482D01*
X144862745Y-96061728D01*
X144939691Y-96093600D01*
X145180039Y-96093600D01*
X145146144Y-96160571D01*
X145143090Y-96184200D01*
X145266776Y-96386600D01*
X146019750Y-96386600D01*
X146039750Y-96406600D01*
X146733000Y-96406600D01*
X146733000Y-96640600D01*
X146713000Y-96640600D01*
X146713000Y-96660600D01*
X146459000Y-96660600D01*
X146459000Y-96640600D01*
X145266776Y-96640600D01*
X145143090Y-96843000D01*
X145146144Y-96866629D01*
X145377524Y-97323796D01*
X145766241Y-97657618D01*
X146253117Y-97817273D01*
X146279570Y-97797987D01*
X146389690Y-97843600D01*
X147230250Y-97843600D01*
X147281000Y-97792850D01*
X147281000Y-97822409D01*
X147377673Y-98055798D01*
X147556301Y-98234427D01*
X147789690Y-98331100D01*
X147980250Y-98331100D01*
X148139000Y-98172350D01*
X148139000Y-97843600D01*
X148214955Y-97843600D01*
X148297673Y-98043298D01*
X148393000Y-98138626D01*
X148393000Y-98172350D01*
X148551750Y-98331100D01*
X148742310Y-98331100D01*
X148772488Y-98318600D01*
X149300250Y-98318600D01*
X149459000Y-98159850D01*
X149459000Y-96536600D01*
X149713000Y-96536600D01*
X149713000Y-98159850D01*
X149871750Y-98318600D01*
X150462310Y-98318600D01*
X150695699Y-98221927D01*
X150874327Y-98043298D01*
X150971000Y-97809909D01*
X150971000Y-96969350D01*
X150812250Y-96810600D01*
X150786043Y-96810600D01*
X150925006Y-96552126D01*
X150929803Y-96513344D01*
X150899562Y-96469288D01*
X150971000Y-96397850D01*
X150971000Y-95557291D01*
X150917976Y-95429281D01*
X150926000Y-95409910D01*
X150926000Y-95342350D01*
X150767250Y-95183600D01*
X150734026Y-95183600D01*
X150695699Y-95145273D01*
X150678721Y-95138241D01*
X150748809Y-95091409D01*
X150889157Y-94881365D01*
X150894042Y-94856808D01*
X150926000Y-94824850D01*
X150926000Y-94757290D01*
X150917783Y-94737452D01*
X150938440Y-94633600D01*
X150938440Y-94618600D01*
X155409767Y-94618600D01*
X155492000Y-94634957D01*
X155574233Y-94618600D01*
X155574237Y-94618600D01*
X155817801Y-94570152D01*
X156094001Y-94385601D01*
X156140587Y-94315880D01*
X160037868Y-90418600D01*
X161745808Y-90418600D01*
X161643520Y-90460969D01*
X161352369Y-90752120D01*
X161194800Y-91132526D01*
X161194800Y-91544274D01*
X161352369Y-91924680D01*
X161643520Y-92215831D01*
X162023926Y-92373400D01*
X162435674Y-92373400D01*
X162816080Y-92215831D01*
X163107231Y-91924680D01*
X163192592Y-91718600D01*
X163936898Y-91718600D01*
X163924247Y-91782203D01*
X163901600Y-91804850D01*
X163901600Y-91884910D01*
X163903098Y-91888527D01*
X163889160Y-91958600D01*
X163889160Y-92408600D01*
X163909051Y-92508600D01*
X163889160Y-92608600D01*
X163889160Y-93058600D01*
X163903098Y-93128673D01*
X163901600Y-93132290D01*
X163901600Y-93212350D01*
X163924247Y-93234997D01*
X163936898Y-93298600D01*
X163784037Y-93298600D01*
X163701800Y-93282242D01*
X163619563Y-93298600D01*
X163375999Y-93347048D01*
X163099799Y-93531599D01*
X163053215Y-93601318D01*
X162154720Y-94499813D01*
X162084999Y-94546399D01*
X161900448Y-94822600D01*
X161852000Y-95066164D01*
X161852000Y-95066167D01*
X161835643Y-95148400D01*
X161852000Y-95230633D01*
X161852001Y-102279762D01*
X161835643Y-102362000D01*
X161900448Y-102687800D01*
X161900449Y-102687801D01*
X162085000Y-102964001D01*
X162154718Y-103010585D01*
X164883215Y-105739083D01*
X164929799Y-105808801D01*
X165205999Y-105993352D01*
X165449563Y-106041800D01*
X165531800Y-106058158D01*
X165614037Y-106041800D01*
X168851992Y-106041800D01*
X169019984Y-106293216D01*
X169309106Y-106486402D01*
X169650150Y-106554240D01*
X170137650Y-106554240D01*
X170478694Y-106486402D01*
X170767816Y-106293216D01*
X170831400Y-106198056D01*
X170894984Y-106293216D01*
X171184106Y-106486402D01*
X171525150Y-106554240D01*
X172012650Y-106554240D01*
X172353694Y-106486402D01*
X172642816Y-106293216D01*
X172836002Y-106004094D01*
X172903840Y-105663050D01*
X172903840Y-104750550D01*
X172836002Y-104409506D01*
X172642816Y-104120384D01*
X172624341Y-104108039D01*
X172815986Y-103979986D01*
X173010527Y-103688836D01*
X173078840Y-103345401D01*
X173078840Y-102445399D01*
X173010527Y-102101964D01*
X172815986Y-101810814D01*
X172524836Y-101616273D01*
X172181401Y-101547960D01*
X171531399Y-101547960D01*
X171187964Y-101616273D01*
X170896814Y-101810814D01*
X170831400Y-101908713D01*
X170765986Y-101810814D01*
X170641400Y-101727568D01*
X170641400Y-100977074D01*
X170964726Y-101111000D01*
X171376474Y-101111000D01*
X171756880Y-100953431D01*
X171865312Y-100844999D01*
X172001201Y-100754201D01*
X172185752Y-100478001D01*
X172250558Y-100152200D01*
X172205600Y-99926181D01*
X172205600Y-99870126D01*
X172048031Y-99489720D01*
X171949801Y-99391490D01*
X184918324Y-99391490D01*
X185088155Y-99801524D01*
X185478442Y-100229783D01*
X186002908Y-100476086D01*
X186232800Y-100355419D01*
X186232800Y-99161600D01*
X186486800Y-99161600D01*
X186486800Y-100355419D01*
X186716692Y-100476086D01*
X187241158Y-100229783D01*
X187631445Y-99801524D01*
X187801276Y-99391490D01*
X187679955Y-99161600D01*
X186486800Y-99161600D01*
X186232800Y-99161600D01*
X185039645Y-99161600D01*
X184918324Y-99391490D01*
X171949801Y-99391490D01*
X171756880Y-99198569D01*
X171376474Y-99041000D01*
X170964726Y-99041000D01*
X170641400Y-99174926D01*
X170641400Y-97959667D01*
X171089160Y-97511907D01*
X171089160Y-97608600D01*
X171109051Y-97708600D01*
X171089160Y-97808600D01*
X171089160Y-98258600D01*
X171138443Y-98506365D01*
X171278791Y-98716409D01*
X171488835Y-98856757D01*
X171736600Y-98906040D01*
X173486600Y-98906040D01*
X173674826Y-98868600D01*
X176381967Y-98868600D01*
X176464200Y-98884957D01*
X176546433Y-98868600D01*
X176546437Y-98868600D01*
X176790001Y-98820152D01*
X177066201Y-98635601D01*
X177112787Y-98565880D01*
X180889068Y-94789600D01*
X185131735Y-94789600D01*
X185289175Y-95025225D01*
X185587561Y-95224600D01*
X185289175Y-95423975D01*
X184960961Y-95915182D01*
X184845708Y-96494600D01*
X184960961Y-97074018D01*
X185289175Y-97565225D01*
X185608278Y-97778443D01*
X185478442Y-97839417D01*
X185088155Y-98267676D01*
X184918324Y-98677710D01*
X185039645Y-98907600D01*
X186232800Y-98907600D01*
X186232800Y-98887600D01*
X186486800Y-98887600D01*
X186486800Y-98907600D01*
X187679955Y-98907600D01*
X187801276Y-98677710D01*
X187631445Y-98267676D01*
X187241158Y-97839417D01*
X187111322Y-97778443D01*
X187430425Y-97565225D01*
X187758639Y-97074018D01*
X187873892Y-96494600D01*
X187758639Y-95915182D01*
X187430425Y-95423975D01*
X187132039Y-95224600D01*
X187430425Y-95025225D01*
X187758639Y-94534018D01*
X187873892Y-93954600D01*
X187758639Y-93375182D01*
X187430425Y-92883975D01*
X187132039Y-92684600D01*
X187430425Y-92485225D01*
X187758639Y-91994018D01*
X187873892Y-91414600D01*
X187758639Y-90835182D01*
X187430425Y-90343975D01*
X187412181Y-90331784D01*
X187457565Y-90322757D01*
X187667609Y-90182409D01*
X187807957Y-89972365D01*
X187857240Y-89724600D01*
X187857240Y-88024600D01*
X187807957Y-87776835D01*
X187667609Y-87566791D01*
X187457565Y-87426443D01*
X187209800Y-87377160D01*
X185509800Y-87377160D01*
X185262035Y-87426443D01*
X185051991Y-87566791D01*
X184911643Y-87776835D01*
X184862360Y-88024600D01*
X184862360Y-88039600D01*
X178196668Y-88039600D01*
X176340387Y-86183320D01*
X176293801Y-86113599D01*
X176017601Y-85929048D01*
X175774037Y-85880600D01*
X175774033Y-85880600D01*
X175691800Y-85864243D01*
X175609567Y-85880600D01*
X172685761Y-85880600D01*
X172815986Y-85793586D01*
X173010527Y-85502436D01*
X173078840Y-85159001D01*
X173078840Y-84258999D01*
X173010527Y-83915564D01*
X172815986Y-83624414D01*
X172691400Y-83541168D01*
X172691400Y-83512905D01*
X172836002Y-83296494D01*
X172903840Y-82955450D01*
X172903840Y-82042950D01*
X172836002Y-81701906D01*
X172642816Y-81412784D01*
X172353694Y-81219598D01*
X172012650Y-81151760D01*
X171525150Y-81151760D01*
X171184106Y-81219598D01*
X170894984Y-81412784D01*
X170831400Y-81507944D01*
X170767816Y-81412784D01*
X170478694Y-81219598D01*
X170137650Y-81151760D01*
X169650150Y-81151760D01*
X169309106Y-81219598D01*
X169019984Y-81412784D01*
X168861583Y-81649847D01*
X168658674Y-81565800D01*
X168246926Y-81565800D01*
X167866520Y-81723369D01*
X167575369Y-82014520D01*
X167417800Y-82394926D01*
X167417800Y-82806674D01*
X167573263Y-83181996D01*
X167323387Y-82932120D01*
X167276801Y-82862399D01*
X167000601Y-82677848D01*
X166757037Y-82629400D01*
X166757033Y-82629400D01*
X166674800Y-82613043D01*
X166592567Y-82629400D01*
X159899032Y-82629400D01*
X159816799Y-82613043D01*
X159734566Y-82629400D01*
X159734563Y-82629400D01*
X159490999Y-82677848D01*
X159319379Y-82792521D01*
X159214799Y-82862399D01*
X159168216Y-82932115D01*
X157963718Y-84136615D01*
X157894000Y-84183199D01*
X157847416Y-84252917D01*
X157777531Y-84357506D01*
X157625299Y-84205273D01*
X157391910Y-84108600D01*
X156851350Y-84108600D01*
X156692600Y-84267350D01*
X156692600Y-85191600D01*
X156712600Y-85191600D01*
X156712600Y-85445600D01*
X156692600Y-85445600D01*
X156692600Y-85465600D01*
X156438600Y-85465600D01*
X156438600Y-85445600D01*
X155389350Y-85445600D01*
X155230600Y-85604350D01*
X155230600Y-86019909D01*
X155327273Y-86253298D01*
X155482197Y-86408223D01*
X155481014Y-86409014D01*
X155431177Y-86483600D01*
X154906023Y-86483600D01*
X154856186Y-86409014D01*
X154855003Y-86408223D01*
X155009927Y-86253298D01*
X155106600Y-86019909D01*
X155106600Y-85604350D01*
X154947850Y-85445600D01*
X153898600Y-85445600D01*
X153898600Y-85465600D01*
X153644600Y-85465600D01*
X153644600Y-85445600D01*
X152595350Y-85445600D01*
X152436600Y-85604350D01*
X152436600Y-86019909D01*
X152533273Y-86253298D01*
X152688197Y-86408223D01*
X152687014Y-86409014D01*
X152492473Y-86700164D01*
X152424160Y-87043599D01*
X152424160Y-87693601D01*
X152492473Y-88037036D01*
X152687014Y-88328186D01*
X152936601Y-88494955D01*
X152936600Y-90763932D01*
X152051933Y-91648600D01*
X150951000Y-91648600D01*
X150951000Y-91219350D01*
X150871069Y-91139419D01*
X150929803Y-91053856D01*
X150925006Y-91015074D01*
X150805696Y-90793154D01*
X150951000Y-90647850D01*
X150951000Y-89807291D01*
X150854327Y-89573902D01*
X150675699Y-89395273D01*
X150442310Y-89298600D01*
X149851750Y-89298600D01*
X149693000Y-89457350D01*
X149693000Y-90806600D01*
X149713000Y-90806600D01*
X149713000Y-91060600D01*
X149693000Y-91060600D01*
X149693000Y-91080600D01*
X149459000Y-91080600D01*
X149459000Y-90333452D01*
X149439000Y-90316807D01*
X149439000Y-89457350D01*
X149280250Y-89298600D01*
X148772488Y-89298600D01*
X148742310Y-89286100D01*
X148551750Y-89286100D01*
X148393000Y-89444850D01*
X148393000Y-89458574D01*
X148277673Y-89573902D01*
X148207382Y-89743600D01*
X148139000Y-89743600D01*
X148139000Y-89444850D01*
X147980250Y-89286100D01*
X147789690Y-89286100D01*
X147556301Y-89382773D01*
X147377673Y-89561402D01*
X147281129Y-89794479D01*
X147230250Y-89743600D01*
X146389690Y-89743600D01*
X146297064Y-89781967D01*
X146253117Y-89749927D01*
X145766241Y-89909582D01*
X145377524Y-90243404D01*
X145146144Y-90700571D01*
X145143090Y-90724200D01*
X145266776Y-90926600D01*
X146733000Y-90926600D01*
X146733000Y-91180600D01*
X145266776Y-91180600D01*
X145143090Y-91383000D01*
X145146144Y-91406629D01*
X145180039Y-91473600D01*
X144939691Y-91473600D01*
X144868968Y-91502894D01*
X145045342Y-90012718D01*
X145417044Y-88144048D01*
X145934214Y-86310303D01*
X146558798Y-84617291D01*
X152436600Y-84617291D01*
X152436600Y-85032850D01*
X152595350Y-85191600D01*
X153644600Y-85191600D01*
X153644600Y-84267350D01*
X153898600Y-84267350D01*
X153898600Y-85191600D01*
X154947850Y-85191600D01*
X155106600Y-85032850D01*
X155106600Y-84617291D01*
X155230600Y-84617291D01*
X155230600Y-85032850D01*
X155389350Y-85191600D01*
X156438600Y-85191600D01*
X156438600Y-84267350D01*
X156279850Y-84108600D01*
X155739290Y-84108600D01*
X155505901Y-84205273D01*
X155327273Y-84383902D01*
X155230600Y-84617291D01*
X155106600Y-84617291D01*
X155009927Y-84383902D01*
X154831299Y-84205273D01*
X154597910Y-84108600D01*
X154057350Y-84108600D01*
X153898600Y-84267350D01*
X153644600Y-84267350D01*
X153485850Y-84108600D01*
X152945290Y-84108600D01*
X152711901Y-84205273D01*
X152533273Y-84383902D01*
X152436600Y-84617291D01*
X146558798Y-84617291D01*
X146593663Y-84522787D01*
X147391327Y-82792521D01*
X148322286Y-81130172D01*
X149380803Y-79545991D01*
X150560349Y-78049743D01*
X151853654Y-76650654D01*
X153252743Y-75357349D01*
X154748991Y-74177803D01*
X156333172Y-73119286D01*
X157379433Y-72533352D01*
X166281804Y-72533352D01*
X166400888Y-73298175D01*
X166729846Y-73998832D01*
X167242233Y-74579000D01*
X167896858Y-74992037D01*
X168641096Y-75204742D01*
X169415120Y-75200013D01*
X170156704Y-74978233D01*
X170806234Y-74557228D01*
X171311495Y-73970844D01*
X171631868Y-73266220D01*
X171741600Y-72500000D01*
X171740785Y-72433300D01*
X171612366Y-71669990D01*
X171274873Y-70973403D01*
X170755436Y-70399539D01*
X170095814Y-69994530D01*
X169349032Y-69790934D01*
X168575124Y-69805118D01*
X167836305Y-70035942D01*
X167191966Y-70464851D01*
X166693907Y-71057363D01*
X166382166Y-71765849D01*
X166281804Y-72533352D01*
X157379433Y-72533352D01*
X157995521Y-72188327D01*
X159725787Y-71390663D01*
X161513303Y-70731214D01*
X163347048Y-70214044D01*
X165215718Y-69842342D01*
X167107790Y-69618401D01*
X169011600Y-69543600D01*
X170915410Y-69618401D01*
X170915410Y-69618401D01*
G37*
X170915410Y-69618401D02*
X172807482Y-69842342D01*
X174676152Y-70214044D01*
X176509897Y-70731214D01*
X178297413Y-71390663D01*
X180027679Y-72188327D01*
X181690028Y-73119286D01*
X183274209Y-74177803D01*
X184770457Y-75357349D01*
X186169546Y-76650654D01*
X187462851Y-78049743D01*
X188642397Y-79545991D01*
X189700914Y-81130172D01*
X190631873Y-82792521D01*
X191429537Y-84522787D01*
X192088986Y-86310303D01*
X192606156Y-88144048D01*
X192977858Y-90012718D01*
X193201799Y-91904790D01*
X193276600Y-93808600D01*
X193201799Y-95712410D01*
X192977858Y-97604482D01*
X192606156Y-99473152D01*
X192088986Y-101306897D01*
X191429537Y-103094413D01*
X190631873Y-104824679D01*
X189700914Y-106487028D01*
X188642397Y-108071209D01*
X187462851Y-109567457D01*
X186169546Y-110966546D01*
X184770457Y-112259851D01*
X183274209Y-113439397D01*
X181690028Y-114497914D01*
X180027679Y-115428873D01*
X178297413Y-116226537D01*
X176509897Y-116885986D01*
X174676152Y-117403156D01*
X172807482Y-117774858D01*
X170915410Y-117998799D01*
X169011600Y-118073600D01*
X167107790Y-117998799D01*
X165215718Y-117774858D01*
X163347048Y-117403156D01*
X161513303Y-116885986D01*
X159725787Y-116226537D01*
X157995521Y-115428873D01*
X156333172Y-114497914D01*
X154748991Y-113439397D01*
X153252743Y-112259851D01*
X151853654Y-110966546D01*
X150560349Y-109567457D01*
X150527938Y-109526343D01*
X176503436Y-109526343D01*
X176504242Y-109568912D01*
X176504242Y-109568914D01*
X176504917Y-109604625D01*
X176506469Y-109611725D01*
X176505347Y-109618902D01*
X176506971Y-109658281D01*
X176509677Y-109669457D01*
X176508303Y-109680877D01*
X176511988Y-109728899D01*
X176521206Y-109761830D01*
X176520729Y-109796023D01*
X176527007Y-109830059D01*
X176548930Y-109885147D01*
X176558996Y-109943578D01*
X176569362Y-109970549D01*
X176598494Y-110016677D01*
X176616698Y-110068102D01*
X176632650Y-110094921D01*
X176644115Y-110107657D01*
X176650679Y-110123490D01*
X176651359Y-110124507D01*
X176684410Y-110157537D01*
X176685367Y-110159947D01*
X176686764Y-110161386D01*
X176708612Y-110197946D01*
X176747892Y-110241400D01*
X176798166Y-110278789D01*
X176799720Y-110280515D01*
X176801860Y-110281536D01*
X176807541Y-110285761D01*
X176859332Y-110339095D01*
X176907393Y-110372238D01*
X176946526Y-110389124D01*
X176948268Y-110390420D01*
X176951296Y-110391183D01*
X176985287Y-110405850D01*
X177058279Y-110449082D01*
X177093860Y-110461603D01*
X177093860Y-110816736D01*
X177097500Y-110835037D01*
X177094918Y-110853516D01*
X177121740Y-110956898D01*
X177142577Y-111061653D01*
X177152943Y-111077167D01*
X177157629Y-111095228D01*
X177221973Y-111180478D01*
X177281312Y-111269284D01*
X177296827Y-111279650D01*
X177308067Y-111294543D01*
X177400135Y-111348679D01*
X177488943Y-111408019D01*
X177507243Y-111411659D01*
X177523328Y-111421117D01*
X177629105Y-111435899D01*
X177733860Y-111456736D01*
X177752161Y-111453096D01*
X177770640Y-111455678D01*
X177836654Y-111451878D01*
X177836657Y-111451877D01*
X177836663Y-111451878D01*
X177902678Y-111448077D01*
X177966180Y-111431601D01*
X178085939Y-111455422D01*
X178224256Y-111455422D01*
X178330446Y-111434300D01*
X178347564Y-111440221D01*
X178395835Y-111446860D01*
X178430240Y-111444804D01*
X178463827Y-111452540D01*
X178516614Y-111454125D01*
X178550576Y-111448423D01*
X178584768Y-111452539D01*
X178632394Y-111448886D01*
X178635254Y-111448086D01*
X178646534Y-111451162D01*
X178685031Y-111453858D01*
X178707512Y-111451000D01*
X178729741Y-111455422D01*
X178790097Y-111455422D01*
X178852969Y-111442916D01*
X178915840Y-111455422D01*
X179041582Y-111455422D01*
X179263278Y-111411324D01*
X179274301Y-111416696D01*
X179329805Y-111431291D01*
X179417112Y-111436603D01*
X179503162Y-111452241D01*
X179571433Y-111451109D01*
X179621212Y-111440346D01*
X179680555Y-111453970D01*
X179720696Y-111455147D01*
X179730100Y-111453561D01*
X179739454Y-111455422D01*
X179808612Y-111455422D01*
X179925836Y-111432105D01*
X179997977Y-111453047D01*
X180025705Y-111449980D01*
X180053064Y-111455422D01*
X180168807Y-111455422D01*
X180202630Y-111448694D01*
X180236976Y-111451781D01*
X180290238Y-111435126D01*
X180351086Y-111453613D01*
X180403473Y-111448476D01*
X180455654Y-111455371D01*
X180513945Y-111451578D01*
X180513946Y-111451578D01*
X180572249Y-111447785D01*
X180578462Y-111446124D01*
X180584853Y-111446840D01*
X180683096Y-111418477D01*
X180704949Y-111424620D01*
X180761706Y-111429039D01*
X180816204Y-111445498D01*
X180877857Y-111451494D01*
X180928910Y-111446402D01*
X180929648Y-111446502D01*
X180932732Y-111447453D01*
X180935077Y-111447233D01*
X180979756Y-111453251D01*
X181038373Y-111449585D01*
X181051114Y-111446212D01*
X181079376Y-111453076D01*
X181121915Y-111454860D01*
X181135374Y-111452765D01*
X181148732Y-111455422D01*
X181218852Y-111455422D01*
X181224269Y-111454344D01*
X181229704Y-111455330D01*
X181277542Y-111444968D01*
X181330097Y-111455422D01*
X181468414Y-111455422D01*
X181709033Y-111407560D01*
X181722225Y-111414452D01*
X181742564Y-111420413D01*
X181797332Y-111425286D01*
X181849686Y-111442084D01*
X181922308Y-111450408D01*
X181988011Y-111444993D01*
X182053574Y-111451902D01*
X182130258Y-111444877D01*
X182195451Y-111425585D01*
X182263055Y-111418324D01*
X182332320Y-111396643D01*
X182378564Y-111371397D01*
X182429329Y-111357307D01*
X182453729Y-111345001D01*
X182472915Y-111330004D01*
X182495826Y-111321747D01*
X182530813Y-111300666D01*
X182564974Y-111269561D01*
X182605756Y-111247845D01*
X182626960Y-111230500D01*
X182652658Y-111199288D01*
X182681311Y-111179781D01*
X182698563Y-111153470D01*
X182723972Y-111131809D01*
X182727102Y-111127846D01*
X182752624Y-111077868D01*
X182785681Y-111037717D01*
X182795439Y-111005730D01*
X182818241Y-110970956D01*
X182824098Y-110956462D01*
X182829554Y-110927734D01*
X182843314Y-110901938D01*
X182850945Y-110823785D01*
X182858546Y-110798868D01*
X182857020Y-110783117D01*
X182870691Y-110711132D01*
X182864739Y-110682506D01*
X182867444Y-110654794D01*
X182888018Y-110551363D01*
X182887951Y-110551024D01*
X182888018Y-110550684D01*
X182887948Y-110484669D01*
X182887626Y-110483059D01*
X182887936Y-110481449D01*
X182887917Y-110478303D01*
X182913560Y-110475370D01*
X182984548Y-110452613D01*
X183059703Y-110410912D01*
X183139431Y-110378812D01*
X183197153Y-110341068D01*
X183235459Y-110303517D01*
X183281206Y-110275499D01*
X183324443Y-110235551D01*
X183353947Y-110194965D01*
X183392153Y-110162431D01*
X183426684Y-110094907D01*
X183471275Y-110033566D01*
X183483001Y-109984779D01*
X183505849Y-109940100D01*
X183511911Y-109864500D01*
X183529633Y-109790765D01*
X183521796Y-109741203D01*
X183525807Y-109691182D01*
X183517765Y-109666308D01*
X183529305Y-109608293D01*
X183529305Y-109521092D01*
X183527049Y-109509749D01*
X183528900Y-109498335D01*
X183527259Y-109452214D01*
X183522070Y-109430242D01*
X183524125Y-109407756D01*
X183519306Y-109362125D01*
X183508334Y-109326851D01*
X183507475Y-109289924D01*
X183500590Y-109259077D01*
X183476794Y-109205206D01*
X183464716Y-109147562D01*
X183459697Y-109135786D01*
X183422512Y-109081344D01*
X183396113Y-109020939D01*
X183359583Y-108968489D01*
X183297302Y-108908569D01*
X183242796Y-108841498D01*
X183190011Y-108797752D01*
X183117534Y-108758563D01*
X183050998Y-108709971D01*
X182989269Y-108681329D01*
X182928081Y-108666480D01*
X182870979Y-108639968D01*
X182838782Y-108632146D01*
X182777204Y-108629560D01*
X182717373Y-108614745D01*
X182640655Y-108611184D01*
X182544305Y-108625743D01*
X182447057Y-108631845D01*
X182379489Y-108649748D01*
X182375895Y-108648487D01*
X182379800Y-108637816D01*
X182409166Y-108589249D01*
X182414910Y-108551532D01*
X182433824Y-108507608D01*
X182434076Y-108489501D01*
X182440300Y-108472493D01*
X182437418Y-108403742D01*
X182446763Y-108342380D01*
X182436692Y-108301503D01*
X182437298Y-108257917D01*
X182436796Y-108255196D01*
X182430531Y-108239455D01*
X182429841Y-108222996D01*
X182403218Y-108165642D01*
X182387024Y-108099915D01*
X182376652Y-108077764D01*
X182360104Y-108055271D01*
X182351113Y-108028834D01*
X182328956Y-107990509D01*
X182321865Y-107982433D01*
X182318070Y-107972378D01*
X182312149Y-107962875D01*
X182330215Y-107958794D01*
X182341594Y-107953732D01*
X182354022Y-107952934D01*
X182391574Y-107942924D01*
X182420767Y-107928575D01*
X182443150Y-107925891D01*
X182450330Y-107921856D01*
X182461868Y-107919758D01*
X182479591Y-107912757D01*
X182564995Y-107857707D01*
X182614593Y-107835874D01*
X182627715Y-107822162D01*
X182660841Y-107803545D01*
X182672975Y-107788105D01*
X182689482Y-107777465D01*
X182739154Y-107705715D01*
X182787247Y-107655461D01*
X182797061Y-107630211D01*
X182815141Y-107607206D01*
X182818106Y-107601365D01*
X182822674Y-107585074D01*
X182831621Y-107572150D01*
X182846637Y-107502669D01*
X182877716Y-107422711D01*
X182882659Y-107394652D01*
X182882180Y-107372850D01*
X182885524Y-107360923D01*
X182884874Y-107355498D01*
X182890108Y-107337319D01*
X182894025Y-107290802D01*
X182892699Y-107279047D01*
X182895556Y-107267569D01*
X182898445Y-107206955D01*
X182897420Y-107200112D01*
X182898948Y-107193364D01*
X182900804Y-107123010D01*
X182899948Y-107118022D01*
X182900989Y-107113069D01*
X182901810Y-107037334D01*
X182900989Y-107032961D01*
X182901845Y-107028595D01*
X182901629Y-106951836D01*
X182900706Y-106947265D01*
X182901538Y-106942674D01*
X182900280Y-106869248D01*
X182899047Y-106863559D01*
X182899982Y-106857812D01*
X182897680Y-106792080D01*
X182895644Y-106783439D01*
X182896831Y-106774641D01*
X182893483Y-106720961D01*
X182888903Y-106703649D01*
X182890314Y-106685798D01*
X182885916Y-106648528D01*
X182865943Y-106586983D01*
X182858022Y-106522769D01*
X182852570Y-106506266D01*
X182844025Y-106491181D01*
X182840986Y-106474109D01*
X182817276Y-106437023D01*
X182808833Y-106411008D01*
X182800095Y-106400770D01*
X182796396Y-106389545D01*
X182767332Y-106355801D01*
X182729485Y-106288993D01*
X182715816Y-106278326D01*
X182706476Y-106263717D01*
X182660211Y-106231433D01*
X182633428Y-106200337D01*
X182583830Y-106175326D01*
X182532620Y-106135362D01*
X182515911Y-106130738D01*
X182501691Y-106120815D01*
X182496126Y-106118377D01*
X182451375Y-106108531D01*
X182410459Y-106087898D01*
X182382773Y-106080214D01*
X182368992Y-106079187D01*
X182356402Y-106073496D01*
X182312203Y-106063231D01*
X182321695Y-106048322D01*
X182324960Y-106039918D01*
X182331010Y-106033233D01*
X182350247Y-106001084D01*
X182361314Y-105970081D01*
X182380807Y-105943555D01*
X182387669Y-105928880D01*
X182402363Y-105869107D01*
X182428695Y-105813472D01*
X182430539Y-105776158D01*
X182434199Y-105765904D01*
X182433108Y-105744034D01*
X182447280Y-105686384D01*
X182437981Y-105625537D01*
X182441018Y-105564060D01*
X182419300Y-105503307D01*
X182416798Y-105486942D01*
X182413592Y-105457576D01*
X182411815Y-105454334D01*
X182409553Y-105439535D01*
X182377679Y-105386882D01*
X182356958Y-105328919D01*
X182352190Y-105320959D01*
X182318020Y-105283237D01*
X182293553Y-105238605D01*
X182273609Y-105214821D01*
X182263482Y-105206688D01*
X182256787Y-105195555D01*
X182224067Y-105159560D01*
X182219551Y-105156221D01*
X182216575Y-105151460D01*
X182174083Y-105106304D01*
X182171316Y-105104331D01*
X182169486Y-105101470D01*
X182120226Y-105050203D01*
X182118129Y-105048740D01*
X182116734Y-105046597D01*
X182063708Y-104992270D01*
X182061820Y-104990975D01*
X182060557Y-104989064D01*
X182006772Y-104934728D01*
X182004746Y-104933359D01*
X182003383Y-104931330D01*
X181951839Y-104880033D01*
X181949254Y-104878315D01*
X181947500Y-104875756D01*
X181901201Y-104830548D01*
X181897157Y-104827915D01*
X181894369Y-104823975D01*
X181856320Y-104787908D01*
X181847847Y-104782568D01*
X181841814Y-104774576D01*
X181815019Y-104750698D01*
X181804399Y-104744454D01*
X181802837Y-104742381D01*
X181777627Y-104727533D01*
X181752234Y-104701417D01*
X181739694Y-104692781D01*
X181661258Y-104658994D01*
X181587668Y-104615651D01*
X181547555Y-104610015D01*
X181510352Y-104593990D01*
X181424957Y-104592791D01*
X181340381Y-104580909D01*
X181301163Y-104591054D01*
X181260660Y-104590485D01*
X181181308Y-104622056D01*
X181098623Y-104643444D01*
X181091661Y-104646802D01*
X181066414Y-104665829D01*
X181036732Y-104676693D01*
X181011171Y-104692267D01*
X181005438Y-104697539D01*
X180998189Y-104700391D01*
X180968620Y-104719392D01*
X180958837Y-104667501D01*
X180934114Y-104606082D01*
X180921198Y-104541149D01*
X180887942Y-104491378D01*
X180865590Y-104435849D01*
X180819245Y-104388567D01*
X180782463Y-104333518D01*
X180732692Y-104300262D01*
X180690791Y-104257513D01*
X180629880Y-104231565D01*
X180574832Y-104194783D01*
X180516124Y-104183105D01*
X180461053Y-104159645D01*
X180394848Y-104158982D01*
X180329915Y-104146066D01*
X179702260Y-104146066D01*
X179637327Y-104158982D01*
X179571123Y-104159645D01*
X179516052Y-104183105D01*
X179457343Y-104194783D01*
X179402294Y-104231565D01*
X179341384Y-104257513D01*
X179299482Y-104300263D01*
X179249712Y-104333518D01*
X179212931Y-104388564D01*
X179166585Y-104435848D01*
X179144232Y-104491380D01*
X179110977Y-104541149D01*
X179098061Y-104606081D01*
X179073338Y-104667501D01*
X179063566Y-104719337D01*
X179047448Y-104708878D01*
X179042224Y-104706796D01*
X179038127Y-104702943D01*
X179007591Y-104683868D01*
X178986492Y-104675878D01*
X178969023Y-104661603D01*
X178956257Y-104654814D01*
X178878059Y-104631273D01*
X178803831Y-104597245D01*
X178776139Y-104596216D01*
X178774061Y-104595429D01*
X178763599Y-104595750D01*
X178759565Y-104595600D01*
X178717142Y-104582829D01*
X178635889Y-104591005D01*
X178554288Y-104587973D01*
X178512758Y-104603395D01*
X178468681Y-104607830D01*
X178452812Y-104616355D01*
X178446930Y-104617083D01*
X178391948Y-104648257D01*
X178320192Y-104674903D01*
X178312351Y-104679731D01*
X178281458Y-104708411D01*
X178248700Y-104726009D01*
X178243421Y-104732470D01*
X178229702Y-104740248D01*
X178206264Y-104760481D01*
X178198212Y-104770806D01*
X178187091Y-104777718D01*
X178151622Y-104810923D01*
X178148328Y-104815517D01*
X178143578Y-104818585D01*
X178099082Y-104861712D01*
X178097140Y-104864522D01*
X178094291Y-104866405D01*
X178043776Y-104916404D01*
X178042338Y-104918532D01*
X178040209Y-104919963D01*
X177986678Y-104973788D01*
X177985406Y-104975704D01*
X177983506Y-104977000D01*
X177929965Y-105031600D01*
X177928622Y-105033653D01*
X177926605Y-105035052D01*
X177876059Y-105087380D01*
X177874375Y-105089997D01*
X177871836Y-105091794D01*
X177827291Y-105138799D01*
X177824712Y-105142893D01*
X177820805Y-105145746D01*
X177785266Y-105184381D01*
X177780046Y-105192946D01*
X177772130Y-105199110D01*
X177748603Y-105226326D01*
X177728818Y-105261163D01*
X177700498Y-105289504D01*
X177691988Y-105302250D01*
X177673506Y-105346914D01*
X177644836Y-105385829D01*
X177634682Y-105426921D01*
X177625285Y-105443467D01*
X177622549Y-105465459D01*
X177610112Y-105489920D01*
X177609135Y-105502479D01*
X177596509Y-105532991D01*
X177596526Y-105581325D01*
X177584930Y-105628253D01*
X177594457Y-105691098D01*
X177590738Y-105738883D01*
X177596590Y-105756839D01*
X177596599Y-105782707D01*
X177615111Y-105827354D01*
X177622356Y-105875148D01*
X177624335Y-105880624D01*
X177651705Y-105925961D01*
X177668113Y-105976308D01*
X177681820Y-106000735D01*
X177691435Y-106011972D01*
X177696652Y-106025810D01*
X177719991Y-106063293D01*
X177702875Y-106067083D01*
X177695046Y-106070526D01*
X177686502Y-106070935D01*
X177649016Y-106080276D01*
X177622290Y-106092877D01*
X177593027Y-106096976D01*
X177576564Y-106102717D01*
X177476852Y-106161393D01*
X177476170Y-106161767D01*
X177451779Y-106173267D01*
X177417276Y-106188447D01*
X177405767Y-106200468D01*
X177375504Y-106217104D01*
X177369551Y-106224533D01*
X177361346Y-106229362D01*
X177299119Y-106311865D01*
X177244586Y-106368826D01*
X177235758Y-106391524D01*
X177219365Y-106411985D01*
X177216408Y-106417676D01*
X177214588Y-106423939D01*
X177210976Y-106428728D01*
X177192693Y-106499293D01*
X177189292Y-106510997D01*
X177154071Y-106601559D01*
X177149166Y-106629369D01*
X177149566Y-106647722D01*
X177146732Y-106657474D01*
X177147708Y-106666317D01*
X177141642Y-106687463D01*
X177137788Y-106733783D01*
X177139136Y-106745623D01*
X177136271Y-106757194D01*
X177133466Y-106817664D01*
X177134503Y-106824527D01*
X177132980Y-106831294D01*
X177131220Y-106901557D01*
X177132084Y-106906551D01*
X177131048Y-106911513D01*
X177130330Y-106987210D01*
X177131158Y-106991590D01*
X177130307Y-106995964D01*
X177130629Y-107072738D01*
X177131556Y-107077296D01*
X177130732Y-107081877D01*
X177132090Y-107155369D01*
X177133327Y-107161038D01*
X177132402Y-107166767D01*
X177134793Y-107232617D01*
X177136831Y-107241219D01*
X177135660Y-107249981D01*
X177139082Y-107303833D01*
X177143641Y-107320986D01*
X177142255Y-107338676D01*
X177146705Y-107376169D01*
X177166290Y-107436378D01*
X177167777Y-107448815D01*
X177170472Y-107486652D01*
X177172877Y-107491460D01*
X177173808Y-107499247D01*
X177179282Y-107516024D01*
X177209027Y-107568987D01*
X177220080Y-107608552D01*
X177223864Y-107613377D01*
X177223949Y-107613637D01*
X177225400Y-107615334D01*
X177251453Y-107648551D01*
X177282183Y-107709988D01*
X177293941Y-107720183D01*
X177301562Y-107733752D01*
X177345182Y-107768054D01*
X177374192Y-107805040D01*
X177424491Y-107833372D01*
X177470856Y-107873572D01*
X177474178Y-107875465D01*
X177487359Y-107879856D01*
X177497856Y-107888111D01*
X177545329Y-107901438D01*
X177591765Y-107927594D01*
X177616538Y-107935711D01*
X177639620Y-107938501D01*
X177660645Y-107948431D01*
X177703621Y-107959171D01*
X177713818Y-107959666D01*
X177719966Y-107962338D01*
X177706203Y-107984546D01*
X177702001Y-107995762D01*
X177694155Y-108004811D01*
X177674835Y-108038713D01*
X177663985Y-108071277D01*
X177649303Y-108090495D01*
X177647015Y-108099105D01*
X177640176Y-108109289D01*
X177633185Y-108126056D01*
X177614573Y-108218496D01*
X177593520Y-108275151D01*
X177594340Y-108297358D01*
X177585179Y-108331837D01*
X177587804Y-108351454D01*
X177583897Y-108370858D01*
X177600098Y-108453311D01*
X177602734Y-108524697D01*
X177614385Y-108550127D01*
X177618294Y-108579347D01*
X177619800Y-108583756D01*
X177628766Y-108599210D01*
X177632043Y-108615889D01*
X177644125Y-108634063D01*
X177596878Y-108643461D01*
X177546818Y-108627191D01*
X177465118Y-108617514D01*
X177417813Y-108621233D01*
X177371020Y-108613348D01*
X177340154Y-108614256D01*
X177294811Y-108624670D01*
X177248296Y-108623621D01*
X177184996Y-108634735D01*
X177095792Y-108669350D01*
X177003770Y-108695538D01*
X176952009Y-108722066D01*
X176881535Y-108777894D01*
X176805299Y-108825553D01*
X176757042Y-108870967D01*
X176735828Y-108900721D01*
X176707226Y-108923467D01*
X176699508Y-108932582D01*
X176682787Y-108962740D01*
X176658237Y-108986957D01*
X176637421Y-109017654D01*
X176617817Y-109064083D01*
X176612300Y-109069892D01*
X176603484Y-109092832D01*
X176571588Y-109142450D01*
X176557907Y-109177208D01*
X176548836Y-109227451D01*
X176540285Y-109247702D01*
X176540218Y-109257461D01*
X176522723Y-109302987D01*
X176515137Y-109347036D01*
X176516197Y-109388109D01*
X176506449Y-109428023D01*
X176503918Y-109486588D01*
X176506993Y-109506506D01*
X176503436Y-109526343D01*
X150527938Y-109526343D01*
X149380803Y-108071209D01*
X148322286Y-106487028D01*
X147391327Y-104824679D01*
X146593663Y-103094413D01*
X145934214Y-101306897D01*
X145817878Y-100894400D01*
X149416153Y-100894400D01*
X149416153Y-105564400D01*
X161124248Y-105564400D01*
X161124248Y-100894400D01*
X149416153Y-100894400D01*
X145817878Y-100894400D01*
X145417044Y-99473152D01*
X145045342Y-97604482D01*
X144862745Y-96061728D01*
X144939691Y-96093600D01*
X145180039Y-96093600D01*
X145146144Y-96160571D01*
X145143090Y-96184200D01*
X145266776Y-96386600D01*
X146019750Y-96386600D01*
X146039750Y-96406600D01*
X146733000Y-96406600D01*
X146733000Y-96640600D01*
X146713000Y-96640600D01*
X146713000Y-96660600D01*
X146459000Y-96660600D01*
X146459000Y-96640600D01*
X145266776Y-96640600D01*
X145143090Y-96843000D01*
X145146144Y-96866629D01*
X145377524Y-97323796D01*
X145766241Y-97657618D01*
X146253117Y-97817273D01*
X146279570Y-97797987D01*
X146389690Y-97843600D01*
X147230250Y-97843600D01*
X147281000Y-97792850D01*
X147281000Y-97822409D01*
X147377673Y-98055798D01*
X147556301Y-98234427D01*
X147789690Y-98331100D01*
X147980250Y-98331100D01*
X148139000Y-98172350D01*
X148139000Y-97843600D01*
X148214955Y-97843600D01*
X148297673Y-98043298D01*
X148393000Y-98138626D01*
X148393000Y-98172350D01*
X148551750Y-98331100D01*
X148742310Y-98331100D01*
X148772488Y-98318600D01*
X149300250Y-98318600D01*
X149459000Y-98159850D01*
X149459000Y-96536600D01*
X149713000Y-96536600D01*
X149713000Y-98159850D01*
X149871750Y-98318600D01*
X150462310Y-98318600D01*
X150695699Y-98221927D01*
X150874327Y-98043298D01*
X150971000Y-97809909D01*
X150971000Y-96969350D01*
X150812250Y-96810600D01*
X150786043Y-96810600D01*
X150925006Y-96552126D01*
X150929803Y-96513344D01*
X150899562Y-96469288D01*
X150971000Y-96397850D01*
X150971000Y-95557291D01*
X150917976Y-95429281D01*
X150926000Y-95409910D01*
X150926000Y-95342350D01*
X150767250Y-95183600D01*
X150734026Y-95183600D01*
X150695699Y-95145273D01*
X150678721Y-95138241D01*
X150748809Y-95091409D01*
X150889157Y-94881365D01*
X150894042Y-94856808D01*
X150926000Y-94824850D01*
X150926000Y-94757290D01*
X150917783Y-94737452D01*
X150938440Y-94633600D01*
X150938440Y-94618600D01*
X155409767Y-94618600D01*
X155492000Y-94634957D01*
X155574233Y-94618600D01*
X155574237Y-94618600D01*
X155817801Y-94570152D01*
X156094001Y-94385601D01*
X156140587Y-94315880D01*
X160037868Y-90418600D01*
X161745808Y-90418600D01*
X161643520Y-90460969D01*
X161352369Y-90752120D01*
X161194800Y-91132526D01*
X161194800Y-91544274D01*
X161352369Y-91924680D01*
X161643520Y-92215831D01*
X162023926Y-92373400D01*
X162435674Y-92373400D01*
X162816080Y-92215831D01*
X163107231Y-91924680D01*
X163192592Y-91718600D01*
X163936898Y-91718600D01*
X163924247Y-91782203D01*
X163901600Y-91804850D01*
X163901600Y-91884910D01*
X163903098Y-91888527D01*
X163889160Y-91958600D01*
X163889160Y-92408600D01*
X163909051Y-92508600D01*
X163889160Y-92608600D01*
X163889160Y-93058600D01*
X163903098Y-93128673D01*
X163901600Y-93132290D01*
X163901600Y-93212350D01*
X163924247Y-93234997D01*
X163936898Y-93298600D01*
X163784037Y-93298600D01*
X163701800Y-93282242D01*
X163619563Y-93298600D01*
X163375999Y-93347048D01*
X163099799Y-93531599D01*
X163053215Y-93601318D01*
X162154720Y-94499813D01*
X162084999Y-94546399D01*
X161900448Y-94822600D01*
X161852000Y-95066164D01*
X161852000Y-95066167D01*
X161835643Y-95148400D01*
X161852000Y-95230633D01*
X161852001Y-102279762D01*
X161835643Y-102362000D01*
X161900448Y-102687800D01*
X161900449Y-102687801D01*
X162085000Y-102964001D01*
X162154718Y-103010585D01*
X164883215Y-105739083D01*
X164929799Y-105808801D01*
X165205999Y-105993352D01*
X165449563Y-106041800D01*
X165531800Y-106058158D01*
X165614037Y-106041800D01*
X168851992Y-106041800D01*
X169019984Y-106293216D01*
X169309106Y-106486402D01*
X169650150Y-106554240D01*
X170137650Y-106554240D01*
X170478694Y-106486402D01*
X170767816Y-106293216D01*
X170831400Y-106198056D01*
X170894984Y-106293216D01*
X171184106Y-106486402D01*
X171525150Y-106554240D01*
X172012650Y-106554240D01*
X172353694Y-106486402D01*
X172642816Y-106293216D01*
X172836002Y-106004094D01*
X172903840Y-105663050D01*
X172903840Y-104750550D01*
X172836002Y-104409506D01*
X172642816Y-104120384D01*
X172624341Y-104108039D01*
X172815986Y-103979986D01*
X173010527Y-103688836D01*
X173078840Y-103345401D01*
X173078840Y-102445399D01*
X173010527Y-102101964D01*
X172815986Y-101810814D01*
X172524836Y-101616273D01*
X172181401Y-101547960D01*
X171531399Y-101547960D01*
X171187964Y-101616273D01*
X170896814Y-101810814D01*
X170831400Y-101908713D01*
X170765986Y-101810814D01*
X170641400Y-101727568D01*
X170641400Y-100977074D01*
X170964726Y-101111000D01*
X171376474Y-101111000D01*
X171756880Y-100953431D01*
X171865312Y-100844999D01*
X172001201Y-100754201D01*
X172185752Y-100478001D01*
X172250558Y-100152200D01*
X172205600Y-99926181D01*
X172205600Y-99870126D01*
X172048031Y-99489720D01*
X171949801Y-99391490D01*
X184918324Y-99391490D01*
X185088155Y-99801524D01*
X185478442Y-100229783D01*
X186002908Y-100476086D01*
X186232800Y-100355419D01*
X186232800Y-99161600D01*
X186486800Y-99161600D01*
X186486800Y-100355419D01*
X186716692Y-100476086D01*
X187241158Y-100229783D01*
X187631445Y-99801524D01*
X187801276Y-99391490D01*
X187679955Y-99161600D01*
X186486800Y-99161600D01*
X186232800Y-99161600D01*
X185039645Y-99161600D01*
X184918324Y-99391490D01*
X171949801Y-99391490D01*
X171756880Y-99198569D01*
X171376474Y-99041000D01*
X170964726Y-99041000D01*
X170641400Y-99174926D01*
X170641400Y-97959667D01*
X171089160Y-97511907D01*
X171089160Y-97608600D01*
X171109051Y-97708600D01*
X171089160Y-97808600D01*
X171089160Y-98258600D01*
X171138443Y-98506365D01*
X171278791Y-98716409D01*
X171488835Y-98856757D01*
X171736600Y-98906040D01*
X173486600Y-98906040D01*
X173674826Y-98868600D01*
X176381967Y-98868600D01*
X176464200Y-98884957D01*
X176546433Y-98868600D01*
X176546437Y-98868600D01*
X176790001Y-98820152D01*
X177066201Y-98635601D01*
X177112787Y-98565880D01*
X180889068Y-94789600D01*
X185131735Y-94789600D01*
X185289175Y-95025225D01*
X185587561Y-95224600D01*
X185289175Y-95423975D01*
X184960961Y-95915182D01*
X184845708Y-96494600D01*
X184960961Y-97074018D01*
X185289175Y-97565225D01*
X185608278Y-97778443D01*
X185478442Y-97839417D01*
X185088155Y-98267676D01*
X184918324Y-98677710D01*
X185039645Y-98907600D01*
X186232800Y-98907600D01*
X186232800Y-98887600D01*
X186486800Y-98887600D01*
X186486800Y-98907600D01*
X187679955Y-98907600D01*
X187801276Y-98677710D01*
X187631445Y-98267676D01*
X187241158Y-97839417D01*
X187111322Y-97778443D01*
X187430425Y-97565225D01*
X187758639Y-97074018D01*
X187873892Y-96494600D01*
X187758639Y-95915182D01*
X187430425Y-95423975D01*
X187132039Y-95224600D01*
X187430425Y-95025225D01*
X187758639Y-94534018D01*
X187873892Y-93954600D01*
X187758639Y-93375182D01*
X187430425Y-92883975D01*
X187132039Y-92684600D01*
X187430425Y-92485225D01*
X187758639Y-91994018D01*
X187873892Y-91414600D01*
X187758639Y-90835182D01*
X187430425Y-90343975D01*
X187412181Y-90331784D01*
X187457565Y-90322757D01*
X187667609Y-90182409D01*
X187807957Y-89972365D01*
X187857240Y-89724600D01*
X187857240Y-88024600D01*
X187807957Y-87776835D01*
X187667609Y-87566791D01*
X187457565Y-87426443D01*
X187209800Y-87377160D01*
X185509800Y-87377160D01*
X185262035Y-87426443D01*
X185051991Y-87566791D01*
X184911643Y-87776835D01*
X184862360Y-88024600D01*
X184862360Y-88039600D01*
X178196668Y-88039600D01*
X176340387Y-86183320D01*
X176293801Y-86113599D01*
X176017601Y-85929048D01*
X175774037Y-85880600D01*
X175774033Y-85880600D01*
X175691800Y-85864243D01*
X175609567Y-85880600D01*
X172685761Y-85880600D01*
X172815986Y-85793586D01*
X173010527Y-85502436D01*
X173078840Y-85159001D01*
X173078840Y-84258999D01*
X173010527Y-83915564D01*
X172815986Y-83624414D01*
X172691400Y-83541168D01*
X172691400Y-83512905D01*
X172836002Y-83296494D01*
X172903840Y-82955450D01*
X172903840Y-82042950D01*
X172836002Y-81701906D01*
X172642816Y-81412784D01*
X172353694Y-81219598D01*
X172012650Y-81151760D01*
X171525150Y-81151760D01*
X171184106Y-81219598D01*
X170894984Y-81412784D01*
X170831400Y-81507944D01*
X170767816Y-81412784D01*
X170478694Y-81219598D01*
X170137650Y-81151760D01*
X169650150Y-81151760D01*
X169309106Y-81219598D01*
X169019984Y-81412784D01*
X168861583Y-81649847D01*
X168658674Y-81565800D01*
X168246926Y-81565800D01*
X167866520Y-81723369D01*
X167575369Y-82014520D01*
X167417800Y-82394926D01*
X167417800Y-82806674D01*
X167573263Y-83181996D01*
X167323387Y-82932120D01*
X167276801Y-82862399D01*
X167000601Y-82677848D01*
X166757037Y-82629400D01*
X166757033Y-82629400D01*
X166674800Y-82613043D01*
X166592567Y-82629400D01*
X159899032Y-82629400D01*
X159816799Y-82613043D01*
X159734566Y-82629400D01*
X159734563Y-82629400D01*
X159490999Y-82677848D01*
X159319379Y-82792521D01*
X159214799Y-82862399D01*
X159168216Y-82932115D01*
X157963718Y-84136615D01*
X157894000Y-84183199D01*
X157847416Y-84252917D01*
X157777531Y-84357506D01*
X157625299Y-84205273D01*
X157391910Y-84108600D01*
X156851350Y-84108600D01*
X156692600Y-84267350D01*
X156692600Y-85191600D01*
X156712600Y-85191600D01*
X156712600Y-85445600D01*
X156692600Y-85445600D01*
X156692600Y-85465600D01*
X156438600Y-85465600D01*
X156438600Y-85445600D01*
X155389350Y-85445600D01*
X155230600Y-85604350D01*
X155230600Y-86019909D01*
X155327273Y-86253298D01*
X155482197Y-86408223D01*
X155481014Y-86409014D01*
X155431177Y-86483600D01*
X154906023Y-86483600D01*
X154856186Y-86409014D01*
X154855003Y-86408223D01*
X155009927Y-86253298D01*
X155106600Y-86019909D01*
X155106600Y-85604350D01*
X154947850Y-85445600D01*
X153898600Y-85445600D01*
X153898600Y-85465600D01*
X153644600Y-85465600D01*
X153644600Y-85445600D01*
X152595350Y-85445600D01*
X152436600Y-85604350D01*
X152436600Y-86019909D01*
X152533273Y-86253298D01*
X152688197Y-86408223D01*
X152687014Y-86409014D01*
X152492473Y-86700164D01*
X152424160Y-87043599D01*
X152424160Y-87693601D01*
X152492473Y-88037036D01*
X152687014Y-88328186D01*
X152936601Y-88494955D01*
X152936600Y-90763932D01*
X152051933Y-91648600D01*
X150951000Y-91648600D01*
X150951000Y-91219350D01*
X150871069Y-91139419D01*
X150929803Y-91053856D01*
X150925006Y-91015074D01*
X150805696Y-90793154D01*
X150951000Y-90647850D01*
X150951000Y-89807291D01*
X150854327Y-89573902D01*
X150675699Y-89395273D01*
X150442310Y-89298600D01*
X149851750Y-89298600D01*
X149693000Y-89457350D01*
X149693000Y-90806600D01*
X149713000Y-90806600D01*
X149713000Y-91060600D01*
X149693000Y-91060600D01*
X149693000Y-91080600D01*
X149459000Y-91080600D01*
X149459000Y-90333452D01*
X149439000Y-90316807D01*
X149439000Y-89457350D01*
X149280250Y-89298600D01*
X148772488Y-89298600D01*
X148742310Y-89286100D01*
X148551750Y-89286100D01*
X148393000Y-89444850D01*
X148393000Y-89458574D01*
X148277673Y-89573902D01*
X148207382Y-89743600D01*
X148139000Y-89743600D01*
X148139000Y-89444850D01*
X147980250Y-89286100D01*
X147789690Y-89286100D01*
X147556301Y-89382773D01*
X147377673Y-89561402D01*
X147281129Y-89794479D01*
X147230250Y-89743600D01*
X146389690Y-89743600D01*
X146297064Y-89781967D01*
X146253117Y-89749927D01*
X145766241Y-89909582D01*
X145377524Y-90243404D01*
X145146144Y-90700571D01*
X145143090Y-90724200D01*
X145266776Y-90926600D01*
X146733000Y-90926600D01*
X146733000Y-91180600D01*
X145266776Y-91180600D01*
X145143090Y-91383000D01*
X145146144Y-91406629D01*
X145180039Y-91473600D01*
X144939691Y-91473600D01*
X144868968Y-91502894D01*
X145045342Y-90012718D01*
X145417044Y-88144048D01*
X145934214Y-86310303D01*
X146558798Y-84617291D01*
X152436600Y-84617291D01*
X152436600Y-85032850D01*
X152595350Y-85191600D01*
X153644600Y-85191600D01*
X153644600Y-84267350D01*
X153898600Y-84267350D01*
X153898600Y-85191600D01*
X154947850Y-85191600D01*
X155106600Y-85032850D01*
X155106600Y-84617291D01*
X155230600Y-84617291D01*
X155230600Y-85032850D01*
X155389350Y-85191600D01*
X156438600Y-85191600D01*
X156438600Y-84267350D01*
X156279850Y-84108600D01*
X155739290Y-84108600D01*
X155505901Y-84205273D01*
X155327273Y-84383902D01*
X155230600Y-84617291D01*
X155106600Y-84617291D01*
X155009927Y-84383902D01*
X154831299Y-84205273D01*
X154597910Y-84108600D01*
X154057350Y-84108600D01*
X153898600Y-84267350D01*
X153644600Y-84267350D01*
X153485850Y-84108600D01*
X152945290Y-84108600D01*
X152711901Y-84205273D01*
X152533273Y-84383902D01*
X152436600Y-84617291D01*
X146558798Y-84617291D01*
X146593663Y-84522787D01*
X147391327Y-82792521D01*
X148322286Y-81130172D01*
X149380803Y-79545991D01*
X150560349Y-78049743D01*
X151853654Y-76650654D01*
X153252743Y-75357349D01*
X154748991Y-74177803D01*
X156333172Y-73119286D01*
X157379433Y-72533352D01*
X166281804Y-72533352D01*
X166400888Y-73298175D01*
X166729846Y-73998832D01*
X167242233Y-74579000D01*
X167896858Y-74992037D01*
X168641096Y-75204742D01*
X169415120Y-75200013D01*
X170156704Y-74978233D01*
X170806234Y-74557228D01*
X171311495Y-73970844D01*
X171631868Y-73266220D01*
X171741600Y-72500000D01*
X171740785Y-72433300D01*
X171612366Y-71669990D01*
X171274873Y-70973403D01*
X170755436Y-70399539D01*
X170095814Y-69994530D01*
X169349032Y-69790934D01*
X168575124Y-69805118D01*
X167836305Y-70035942D01*
X167191966Y-70464851D01*
X166693907Y-71057363D01*
X166382166Y-71765849D01*
X166281804Y-72533352D01*
X157379433Y-72533352D01*
X157995521Y-72188327D01*
X159725787Y-71390663D01*
X161513303Y-70731214D01*
X163347048Y-70214044D01*
X165215718Y-69842342D01*
X167107790Y-69618401D01*
X169011600Y-69543600D01*
X170915410Y-69618401D01*
G36*
X170155732Y-96083600D02*
X169274118Y-96965215D01*
X169204400Y-97011799D01*
X169157816Y-97081517D01*
X169019848Y-97288000D01*
X168955043Y-97613800D01*
X168971401Y-97696038D01*
X168971401Y-99964846D01*
X168887274Y-99930000D01*
X168475526Y-99930000D01*
X168095120Y-100087569D01*
X167803969Y-100378720D01*
X167646400Y-100759126D01*
X167646400Y-101170874D01*
X167803969Y-101551280D01*
X168095120Y-101842431D01*
X168475526Y-102000000D01*
X168720403Y-102000000D01*
X168652273Y-102101964D01*
X168583960Y-102445399D01*
X168583960Y-103345401D01*
X168652273Y-103688836D01*
X168846814Y-103979986D01*
X169038459Y-104108039D01*
X169019984Y-104120384D01*
X168851992Y-104371800D01*
X165877668Y-104371800D01*
X163522000Y-102016133D01*
X163522000Y-95494267D01*
X163908822Y-95107446D01*
X163909051Y-95108600D01*
X163889160Y-95208600D01*
X163889160Y-95658600D01*
X163903098Y-95728673D01*
X163901600Y-95732290D01*
X163901600Y-95812350D01*
X163924247Y-95834997D01*
X163938443Y-95906365D01*
X164059555Y-96087620D01*
X163998273Y-96148901D01*
X163921003Y-96335447D01*
X163901600Y-96354850D01*
X163901600Y-96462350D01*
X163921003Y-96481753D01*
X163998273Y-96668299D01*
X164059555Y-96729580D01*
X163938443Y-96910835D01*
X163924247Y-96982203D01*
X163901600Y-97004850D01*
X163901600Y-97084910D01*
X163903098Y-97088527D01*
X163889160Y-97158600D01*
X163889160Y-97608600D01*
X163909051Y-97708600D01*
X163889160Y-97808600D01*
X163889160Y-98258600D01*
X163938443Y-98506365D01*
X164078791Y-98716409D01*
X164288835Y-98856757D01*
X164536600Y-98906040D01*
X166286600Y-98906040D01*
X166534365Y-98856757D01*
X166744409Y-98716409D01*
X166884757Y-98506365D01*
X166934040Y-98258600D01*
X166934040Y-97808600D01*
X166914149Y-97708600D01*
X166934040Y-97608600D01*
X166934040Y-97158600D01*
X166920102Y-97088527D01*
X166921600Y-97084910D01*
X166921600Y-97004850D01*
X166898953Y-96982203D01*
X166884757Y-96910835D01*
X166763645Y-96729580D01*
X166824927Y-96668299D01*
X166902197Y-96481753D01*
X166921600Y-96462350D01*
X166921600Y-96354850D01*
X166902197Y-96335447D01*
X166824927Y-96148901D01*
X166763645Y-96087620D01*
X166884757Y-95906365D01*
X166898953Y-95834997D01*
X166921600Y-95812350D01*
X166921600Y-95732290D01*
X166920102Y-95728673D01*
X166934040Y-95658600D01*
X166934040Y-95630692D01*
X166994833Y-95618600D01*
X166994837Y-95618600D01*
X167238401Y-95570152D01*
X167514601Y-95385601D01*
X167561187Y-95315880D01*
X167633467Y-95243600D01*
X167693474Y-95243600D01*
X168073880Y-95086031D01*
X168365031Y-94794880D01*
X168512058Y-94439925D01*
X170155732Y-96083600D01*
X170155732Y-96083600D01*
G37*
X170155732Y-96083600D02*
X169274118Y-96965215D01*
X169204400Y-97011799D01*
X169157816Y-97081517D01*
X169019848Y-97288000D01*
X168955043Y-97613800D01*
X168971401Y-97696038D01*
X168971401Y-99964846D01*
X168887274Y-99930000D01*
X168475526Y-99930000D01*
X168095120Y-100087569D01*
X167803969Y-100378720D01*
X167646400Y-100759126D01*
X167646400Y-101170874D01*
X167803969Y-101551280D01*
X168095120Y-101842431D01*
X168475526Y-102000000D01*
X168720403Y-102000000D01*
X168652273Y-102101964D01*
X168583960Y-102445399D01*
X168583960Y-103345401D01*
X168652273Y-103688836D01*
X168846814Y-103979986D01*
X169038459Y-104108039D01*
X169019984Y-104120384D01*
X168851992Y-104371800D01*
X165877668Y-104371800D01*
X163522000Y-102016133D01*
X163522000Y-95494267D01*
X163908822Y-95107446D01*
X163909051Y-95108600D01*
X163889160Y-95208600D01*
X163889160Y-95658600D01*
X163903098Y-95728673D01*
X163901600Y-95732290D01*
X163901600Y-95812350D01*
X163924247Y-95834997D01*
X163938443Y-95906365D01*
X164059555Y-96087620D01*
X163998273Y-96148901D01*
X163921003Y-96335447D01*
X163901600Y-96354850D01*
X163901600Y-96462350D01*
X163921003Y-96481753D01*
X163998273Y-96668299D01*
X164059555Y-96729580D01*
X163938443Y-96910835D01*
X163924247Y-96982203D01*
X163901600Y-97004850D01*
X163901600Y-97084910D01*
X163903098Y-97088527D01*
X163889160Y-97158600D01*
X163889160Y-97608600D01*
X163909051Y-97708600D01*
X163889160Y-97808600D01*
X163889160Y-98258600D01*
X163938443Y-98506365D01*
X164078791Y-98716409D01*
X164288835Y-98856757D01*
X164536600Y-98906040D01*
X166286600Y-98906040D01*
X166534365Y-98856757D01*
X166744409Y-98716409D01*
X166884757Y-98506365D01*
X166934040Y-98258600D01*
X166934040Y-97808600D01*
X166914149Y-97708600D01*
X166934040Y-97608600D01*
X166934040Y-97158600D01*
X166920102Y-97088527D01*
X166921600Y-97084910D01*
X166921600Y-97004850D01*
X166898953Y-96982203D01*
X166884757Y-96910835D01*
X166763645Y-96729580D01*
X166824927Y-96668299D01*
X166902197Y-96481753D01*
X166921600Y-96462350D01*
X166921600Y-96354850D01*
X166902197Y-96335447D01*
X166824927Y-96148901D01*
X166763645Y-96087620D01*
X166884757Y-95906365D01*
X166898953Y-95834997D01*
X166921600Y-95812350D01*
X166921600Y-95732290D01*
X166920102Y-95728673D01*
X166934040Y-95658600D01*
X166934040Y-95630692D01*
X166994833Y-95618600D01*
X166994837Y-95618600D01*
X167238401Y-95570152D01*
X167514601Y-95385601D01*
X167561187Y-95315880D01*
X167633467Y-95243600D01*
X167693474Y-95243600D01*
X168073880Y-95086031D01*
X168365031Y-94794880D01*
X168512058Y-94439925D01*
X170155732Y-96083600D01*
G36*
X177202215Y-89406883D02*
X177248799Y-89476601D01*
X177524999Y-89661152D01*
X177768563Y-89709600D01*
X177768566Y-89709600D01*
X177850799Y-89725957D01*
X177933032Y-89709600D01*
X184862360Y-89709600D01*
X184862360Y-89724600D01*
X184911643Y-89972365D01*
X185051991Y-90182409D01*
X185262035Y-90322757D01*
X185307419Y-90331784D01*
X185289175Y-90343975D01*
X185131735Y-90579600D01*
X183305511Y-90579600D01*
X183263080Y-90537169D01*
X182882674Y-90379600D01*
X182470926Y-90379600D01*
X182090520Y-90537169D01*
X181799369Y-90828320D01*
X181641800Y-91208726D01*
X181641800Y-91620474D01*
X181799369Y-92000880D01*
X182090520Y-92292031D01*
X182470926Y-92449600D01*
X182882674Y-92449600D01*
X183263080Y-92292031D01*
X183305511Y-92249600D01*
X185131735Y-92249600D01*
X185289175Y-92485225D01*
X185587561Y-92684600D01*
X185289175Y-92883975D01*
X185131735Y-93119600D01*
X180625432Y-93119600D01*
X180543199Y-93103243D01*
X180460966Y-93119600D01*
X180460963Y-93119600D01*
X180217399Y-93168048D01*
X179941199Y-93352599D01*
X179894615Y-93422317D01*
X177776451Y-95540482D01*
X177686831Y-95324120D01*
X177395680Y-95032969D01*
X177015274Y-94875400D01*
X176963868Y-94875400D01*
X176934601Y-94831599D01*
X176658401Y-94647048D01*
X176414837Y-94598600D01*
X176414833Y-94598600D01*
X176332600Y-94582243D01*
X176250367Y-94598600D01*
X174134040Y-94598600D01*
X174134040Y-94558600D01*
X174120102Y-94488527D01*
X174121600Y-94484910D01*
X174121600Y-94404850D01*
X174098953Y-94382203D01*
X174084757Y-94310835D01*
X173966331Y-94133600D01*
X174084757Y-93956365D01*
X174098953Y-93884997D01*
X174121600Y-93862350D01*
X174121600Y-93782290D01*
X174120102Y-93778673D01*
X174134040Y-93708600D01*
X174134040Y-93258600D01*
X174114149Y-93158600D01*
X174134040Y-93058600D01*
X174134040Y-92608600D01*
X174114149Y-92508600D01*
X174134040Y-92408600D01*
X174134040Y-91958600D01*
X174114149Y-91858600D01*
X174134040Y-91758600D01*
X174134040Y-91308600D01*
X174114149Y-91208600D01*
X174134040Y-91108600D01*
X174134040Y-90658600D01*
X174114149Y-90558600D01*
X174134040Y-90458600D01*
X174134040Y-90008600D01*
X174114149Y-89908600D01*
X174134040Y-89808600D01*
X174134040Y-89358600D01*
X174084757Y-89110835D01*
X173944409Y-88900791D01*
X173734365Y-88760443D01*
X173486600Y-88711160D01*
X171736600Y-88711160D01*
X171488835Y-88760443D01*
X171278791Y-88900791D01*
X171138443Y-89110835D01*
X171089160Y-89358600D01*
X171089160Y-89808600D01*
X171109051Y-89908600D01*
X171089160Y-90008600D01*
X171089160Y-90458600D01*
X171109051Y-90558600D01*
X171089160Y-90658600D01*
X171089160Y-91108600D01*
X171109051Y-91208600D01*
X171089160Y-91308600D01*
X171089160Y-91758600D01*
X171109051Y-91858600D01*
X171089160Y-91958600D01*
X171089160Y-92408600D01*
X171109051Y-92508600D01*
X171089160Y-92608600D01*
X171089160Y-93058600D01*
X171109051Y-93158600D01*
X171089160Y-93258600D01*
X171089160Y-93708600D01*
X171103098Y-93778673D01*
X171101600Y-93782290D01*
X171101600Y-93862350D01*
X171124247Y-93884997D01*
X171138443Y-93956365D01*
X171256869Y-94133600D01*
X171138443Y-94310835D01*
X171124247Y-94382203D01*
X171101600Y-94404850D01*
X171101600Y-94484910D01*
X171103098Y-94488527D01*
X171089160Y-94558600D01*
X171089160Y-94655292D01*
X169325267Y-92891400D01*
X169874082Y-92342585D01*
X169943801Y-92296001D01*
X170128352Y-92019801D01*
X170176800Y-91776237D01*
X170193158Y-91694000D01*
X170176800Y-91611763D01*
X170176800Y-87550600D01*
X175345933Y-87550600D01*
X177202215Y-89406883D01*
X177202215Y-89406883D01*
G37*
X177202215Y-89406883D02*
X177248799Y-89476601D01*
X177524999Y-89661152D01*
X177768563Y-89709600D01*
X177768566Y-89709600D01*
X177850799Y-89725957D01*
X177933032Y-89709600D01*
X184862360Y-89709600D01*
X184862360Y-89724600D01*
X184911643Y-89972365D01*
X185051991Y-90182409D01*
X185262035Y-90322757D01*
X185307419Y-90331784D01*
X185289175Y-90343975D01*
X185131735Y-90579600D01*
X183305511Y-90579600D01*
X183263080Y-90537169D01*
X182882674Y-90379600D01*
X182470926Y-90379600D01*
X182090520Y-90537169D01*
X181799369Y-90828320D01*
X181641800Y-91208726D01*
X181641800Y-91620474D01*
X181799369Y-92000880D01*
X182090520Y-92292031D01*
X182470926Y-92449600D01*
X182882674Y-92449600D01*
X183263080Y-92292031D01*
X183305511Y-92249600D01*
X185131735Y-92249600D01*
X185289175Y-92485225D01*
X185587561Y-92684600D01*
X185289175Y-92883975D01*
X185131735Y-93119600D01*
X180625432Y-93119600D01*
X180543199Y-93103243D01*
X180460966Y-93119600D01*
X180460963Y-93119600D01*
X180217399Y-93168048D01*
X179941199Y-93352599D01*
X179894615Y-93422317D01*
X177776451Y-95540482D01*
X177686831Y-95324120D01*
X177395680Y-95032969D01*
X177015274Y-94875400D01*
X176963868Y-94875400D01*
X176934601Y-94831599D01*
X176658401Y-94647048D01*
X176414837Y-94598600D01*
X176414833Y-94598600D01*
X176332600Y-94582243D01*
X176250367Y-94598600D01*
X174134040Y-94598600D01*
X174134040Y-94558600D01*
X174120102Y-94488527D01*
X174121600Y-94484910D01*
X174121600Y-94404850D01*
X174098953Y-94382203D01*
X174084757Y-94310835D01*
X173966331Y-94133600D01*
X174084757Y-93956365D01*
X174098953Y-93884997D01*
X174121600Y-93862350D01*
X174121600Y-93782290D01*
X174120102Y-93778673D01*
X174134040Y-93708600D01*
X174134040Y-93258600D01*
X174114149Y-93158600D01*
X174134040Y-93058600D01*
X174134040Y-92608600D01*
X174114149Y-92508600D01*
X174134040Y-92408600D01*
X174134040Y-91958600D01*
X174114149Y-91858600D01*
X174134040Y-91758600D01*
X174134040Y-91308600D01*
X174114149Y-91208600D01*
X174134040Y-91108600D01*
X174134040Y-90658600D01*
X174114149Y-90558600D01*
X174134040Y-90458600D01*
X174134040Y-90008600D01*
X174114149Y-89908600D01*
X174134040Y-89808600D01*
X174134040Y-89358600D01*
X174084757Y-89110835D01*
X173944409Y-88900791D01*
X173734365Y-88760443D01*
X173486600Y-88711160D01*
X171736600Y-88711160D01*
X171488835Y-88760443D01*
X171278791Y-88900791D01*
X171138443Y-89110835D01*
X171089160Y-89358600D01*
X171089160Y-89808600D01*
X171109051Y-89908600D01*
X171089160Y-90008600D01*
X171089160Y-90458600D01*
X171109051Y-90558600D01*
X171089160Y-90658600D01*
X171089160Y-91108600D01*
X171109051Y-91208600D01*
X171089160Y-91308600D01*
X171089160Y-91758600D01*
X171109051Y-91858600D01*
X171089160Y-91958600D01*
X171089160Y-92408600D01*
X171109051Y-92508600D01*
X171089160Y-92608600D01*
X171089160Y-93058600D01*
X171109051Y-93158600D01*
X171089160Y-93258600D01*
X171089160Y-93708600D01*
X171103098Y-93778673D01*
X171101600Y-93782290D01*
X171101600Y-93862350D01*
X171124247Y-93884997D01*
X171138443Y-93956365D01*
X171256869Y-94133600D01*
X171138443Y-94310835D01*
X171124247Y-94382203D01*
X171101600Y-94404850D01*
X171101600Y-94484910D01*
X171103098Y-94488527D01*
X171089160Y-94558600D01*
X171089160Y-94655292D01*
X169325267Y-92891400D01*
X169874082Y-92342585D01*
X169943801Y-92296001D01*
X170128352Y-92019801D01*
X170176800Y-91776237D01*
X170193158Y-91694000D01*
X170176800Y-91611763D01*
X170176800Y-87550600D01*
X175345933Y-87550600D01*
X177202215Y-89406883D01*
G36*
X146443000Y-92696600D02*
X146463000Y-92696600D01*
X146463000Y-92950600D01*
X146443000Y-92950600D01*
X146443000Y-94616600D01*
X146463000Y-94616600D01*
X146463000Y-94870600D01*
X146443000Y-94870600D01*
X146443000Y-94890600D01*
X146189000Y-94890600D01*
X146189000Y-94870600D01*
X146169000Y-94870600D01*
X146169000Y-94616600D01*
X146189000Y-94616600D01*
X146189000Y-92950600D01*
X146169000Y-92950600D01*
X146169000Y-92696600D01*
X146189000Y-92696600D01*
X146189000Y-92676600D01*
X146443000Y-92676600D01*
X146443000Y-92696600D01*
X146443000Y-92696600D01*
G37*
X146443000Y-92696600D02*
X146463000Y-92696600D01*
X146463000Y-92950600D01*
X146443000Y-92950600D01*
X146443000Y-94616600D01*
X146463000Y-94616600D01*
X146463000Y-94870600D01*
X146443000Y-94870600D01*
X146443000Y-94890600D01*
X146189000Y-94890600D01*
X146189000Y-94870600D01*
X146169000Y-94870600D01*
X146169000Y-94616600D01*
X146189000Y-94616600D01*
X146189000Y-92950600D01*
X146169000Y-92950600D01*
X146169000Y-92696600D01*
X146189000Y-92696600D01*
X146189000Y-92676600D01*
X146443000Y-92676600D01*
X146443000Y-92696600D01*
G36*
X167064041Y-85034508D02*
X167024367Y-85042400D01*
X166286155Y-85042400D01*
X166119386Y-84792814D01*
X165828236Y-84598273D01*
X165484801Y-84529960D01*
X164834799Y-84529960D01*
X164491364Y-84598273D01*
X164200214Y-84792814D01*
X164199423Y-84793997D01*
X164044498Y-84639073D01*
X163811109Y-84542400D01*
X163395550Y-84542400D01*
X163236800Y-84701150D01*
X163236800Y-85750400D01*
X163256800Y-85750400D01*
X163256800Y-86004400D01*
X163236800Y-86004400D01*
X163236800Y-86024400D01*
X162982800Y-86024400D01*
X162982800Y-86004400D01*
X162058550Y-86004400D01*
X161899800Y-86163150D01*
X161899800Y-86703710D01*
X161996473Y-86937099D01*
X162057574Y-86998200D01*
X160178437Y-86998200D01*
X160096200Y-86981842D01*
X160013963Y-86998200D01*
X159770399Y-87046648D01*
X159494199Y-87231199D01*
X159447615Y-87300917D01*
X154449933Y-92298600D01*
X153763668Y-92298600D01*
X154303883Y-91758385D01*
X154373601Y-91711801D01*
X154558152Y-91435601D01*
X154606600Y-91192037D01*
X154606600Y-91192036D01*
X154622958Y-91109800D01*
X154606600Y-91027563D01*
X154606600Y-88494955D01*
X154856186Y-88328186D01*
X154906023Y-88253600D01*
X155431177Y-88253600D01*
X155481014Y-88328186D01*
X155772164Y-88522727D01*
X156115599Y-88591040D01*
X157015601Y-88591040D01*
X157359036Y-88522727D01*
X157650186Y-88328186D01*
X157733432Y-88203600D01*
X157786167Y-88203600D01*
X157868400Y-88219957D01*
X157950633Y-88203600D01*
X157950637Y-88203600D01*
X158194201Y-88155152D01*
X158470401Y-87970601D01*
X158516987Y-87900881D01*
X159028285Y-87389583D01*
X159098001Y-87343001D01*
X159282552Y-87066801D01*
X159331000Y-86823237D01*
X159331000Y-86823234D01*
X159347357Y-86741001D01*
X159331000Y-86658768D01*
X159331000Y-85131067D01*
X159410977Y-85051090D01*
X161899800Y-85051090D01*
X161899800Y-85591650D01*
X162058550Y-85750400D01*
X162982800Y-85750400D01*
X162982800Y-84701150D01*
X162824050Y-84542400D01*
X162408491Y-84542400D01*
X162175102Y-84639073D01*
X161996473Y-84817701D01*
X161899800Y-85051090D01*
X159410977Y-85051090D01*
X160162669Y-84299400D01*
X166328933Y-84299400D01*
X167064041Y-85034508D01*
X167064041Y-85034508D01*
G37*
X167064041Y-85034508D02*
X167024367Y-85042400D01*
X166286155Y-85042400D01*
X166119386Y-84792814D01*
X165828236Y-84598273D01*
X165484801Y-84529960D01*
X164834799Y-84529960D01*
X164491364Y-84598273D01*
X164200214Y-84792814D01*
X164199423Y-84793997D01*
X164044498Y-84639073D01*
X163811109Y-84542400D01*
X163395550Y-84542400D01*
X163236800Y-84701150D01*
X163236800Y-85750400D01*
X163256800Y-85750400D01*
X163256800Y-86004400D01*
X163236800Y-86004400D01*
X163236800Y-86024400D01*
X162982800Y-86024400D01*
X162982800Y-86004400D01*
X162058550Y-86004400D01*
X161899800Y-86163150D01*
X161899800Y-86703710D01*
X161996473Y-86937099D01*
X162057574Y-86998200D01*
X160178437Y-86998200D01*
X160096200Y-86981842D01*
X160013963Y-86998200D01*
X159770399Y-87046648D01*
X159494199Y-87231199D01*
X159447615Y-87300917D01*
X154449933Y-92298600D01*
X153763668Y-92298600D01*
X154303883Y-91758385D01*
X154373601Y-91711801D01*
X154558152Y-91435601D01*
X154606600Y-91192037D01*
X154606600Y-91192036D01*
X154622958Y-91109800D01*
X154606600Y-91027563D01*
X154606600Y-88494955D01*
X154856186Y-88328186D01*
X154906023Y-88253600D01*
X155431177Y-88253600D01*
X155481014Y-88328186D01*
X155772164Y-88522727D01*
X156115599Y-88591040D01*
X157015601Y-88591040D01*
X157359036Y-88522727D01*
X157650186Y-88328186D01*
X157733432Y-88203600D01*
X157786167Y-88203600D01*
X157868400Y-88219957D01*
X157950633Y-88203600D01*
X157950637Y-88203600D01*
X158194201Y-88155152D01*
X158470401Y-87970601D01*
X158516987Y-87900881D01*
X159028285Y-87389583D01*
X159098001Y-87343001D01*
X159282552Y-87066801D01*
X159331000Y-86823237D01*
X159331000Y-86823234D01*
X159347357Y-86741001D01*
X159331000Y-86658768D01*
X159331000Y-85131067D01*
X159410977Y-85051090D01*
X161899800Y-85051090D01*
X161899800Y-85591650D01*
X162058550Y-85750400D01*
X162982800Y-85750400D01*
X162982800Y-84701150D01*
X162824050Y-84542400D01*
X162408491Y-84542400D01*
X162175102Y-84639073D01*
X161996473Y-84817701D01*
X161899800Y-85051090D01*
X159410977Y-85051090D01*
X160162669Y-84299400D01*
X166328933Y-84299400D01*
X167064041Y-85034508D01*
G04 #@! TD*
M02*
